<svg xmlns="http://www.w3.org/2000/svg" viewBox="0 0 399.47 104.14"><defs><style>.a{fill:none;stroke:#ed1c24;stroke-miterlimit:10;stroke-width:10px;}.b{fill:#f3eee8;}</style></defs><title>dialog-lower-flipped</title><rect class="a" x="-187.54" y="-555.98" width="3383.57" height="7734.04"/><path class="b" d="M396.47.57c0,.61,0,13.7-.19,17.28-.68,14.32-3.59,27.4-15.85,35.58q-1.9,1.27-3.9,2.4c-19.87,11.27-45,11.84-66.44,14.63-43,5.61-87.42,7.62-130.74,7.86-25.67.14-51.27-1.23-76.87-2.36l-7.69-.33q-7.68-.31-15.36-.58l-5.7-.16c-1.58,4.43,13.73,27.18,10.92,26.58C67.4,97.82,54.5,90,48.15,76.07c-5.31.31-10.46-.51-15.55-1.15-1-.13-1.9-.28-2.82-.48-6.42-1.42-11.69-5-13.95-13.25C8.79,35.53,3,17.57,3,.57"/><path d="M393.47.57c0,15.25,1.62,34.09-9.62,46.09-7.79,8.33-20.23,12.31-31,14.85-11,2.57-22.19,3.63-33.37,4.85-25.52,2.78-50.91,5.75-76.57,7.15C216.5,75,190,75.65,163.56,75.23c-30-.47-59.88-2.51-89.83-3.34a3,3,0,0,0-2.89,2.2c-1,3.91,1.62,8.36,3.26,11.74,2.24,4.59,4.44,10,7.36,14.18a14.09,14.09,0,0,0,.59,1.55l1.89-3.31c-.75-.17-1.49-.35-2.22-.55-1-.25-1.93-.51-2.89-.8a57.64,57.64,0,0,1-11.61-4.8A38.93,38.93,0,0,1,50.74,74.55a2.93,2.93,0,0,0-2.59-1.48c-7.16.26-17.3.26-23.49-3.86C17.48,64.45,16.57,52.68,14.45,45,10.44,30.51,6.17,15.73,6,.57c0-3.86-6-3.87-6,0,.15,18.1,5.76,35.76,10.58,53,2.23,8,3.8,16.52,11.51,21.08,7.22,4.27,17.91,4.68,26,4.38l-2.59-1.49A44.14,44.14,0,0,0,63,96.61a63.23,63.23,0,0,0,13.5,5.87c2.58.8,7.71,3.28,10.22,1.28,3.51-2.8-1.47-9.51-2.9-12.2-1.63-3-3.29-6.08-4.78-9.19-.74-1.55-2.85-5-2.45-6.68l-2.89,2.2c28.31.78,56.58,2.65,84.9,3.25,28.08.6,56.23-.1,84.26-1.63,26.73-1.46,53.18-4.63,79.77-7.49,21.28-2.29,46.55-4.35,63.4-19.16C400.73,40,399.46,18.34,399.47.57c0-3.87-6-3.87-6,0Z"/></svg>