<svg xmlns="http://www.w3.org/2000/svg" viewBox="0 0 399.62 104.14"><defs><style>.a{fill:none;stroke:#ed1c24;stroke-miterlimit:10;stroke-width:10px;}.b{fill:#f3eee8;}</style></defs><title>dialog-upper</title><rect class="a" x="-187.48" y="-415.62" width="3383.57" height="7734.04"/><path class="b" d="M3,104.14V68.92S4.71,34.71,4.71,23.59c0-4.09,2.78-7.45,4.66-9.33,4-4,12.06-7.81,22.57-7.55l4.47.14c4,.15,7.76.29,11.2.11C67,6,86.25,3.22,105.74,3.22c44.42,0,89.06,2.69,133.53,4.69l.87,0q9.35.42,18.68.79c3.64.14,7.28.3,10.93.5,25.54,1.37,51.27,4.25,76,11.51,1.71.5,3.46,1,5.23,1.57,9.69,3,20,6.87,28.28,13.31.7.55,1.39,1.11,2.06,1.69s1.32,1.18,2,1.81a49.57,49.57,0,0,1,10.54,15.3q.63,1.43,1.2,2.88c1.44,3.7,1.6,7.78,1.6,11.61l-.1,35.22"/><path d="M6,104.14c0-16.45-.07-32.82.66-49.25.3-6.87.59-13.74.82-20.62.23-7.37-.79-14.56,5.9-19.5C22.1,8.33,33,10,43.13,10c11.8.08,23.67-1.53,35.43-2.49,24.4-2,48.85-1.3,73.3-.5S201,9.11,225.53,10.27C270.86,12.42,318.13,12,361,29c11.52,4.57,21.72,11.48,27.93,22.45,3.93,6.94,4.69,13.71,4.67,21.42l-.09,31.3c0,3.86,6,3.87,6,0l.09-29.9c0-5.36.34-10.92-1.16-16.12-2.69-9.35-9-18.13-16.55-24.19-7.92-6.4-17.44-10.37-27-13.52a256.19,256.19,0,0,0-35.8-8.9c-23.94-4.21-48.14-5.23-72.38-6.27-25.39-1.1-50.77-2.47-76.16-3.5C144.49.68,118.16-.76,92.13.61,79.52,1.28,67,2.67,54.38,3.54,43.44,4.31,31.69,2.23,21,4.89,13.61,6.73,5.81,11.17,2.79,18.54c-2.39,5.84-1.24,14-1.47,20.2C.52,60.6,0,82.26,0,104.14c0,3.86,6,3.87,6,0Z"/></svg>