<svg xmlns="http://www.w3.org/2000/svg" viewBox="0 0 399.47 104.14"><defs><style>.a{fill:none;stroke:#ed1c24;stroke-miterlimit:10;stroke-width:10px;}.b{fill:#f3eee8;}</style></defs><title>dialog-lower</title><rect class="a" x="-187.54" y="-555.98" width="3383.57" height="7734.04"/><path class="b" d="M3,.57c0,.61,0,13.7.19,17.28.68,14.32,3.59,27.4,15.85,35.58Q21,54.71,23,55.83C42.85,67.1,68,67.67,89.42,70.46c43.05,5.61,87.42,7.62,130.74,7.86,25.67.14,51.27-1.23,76.87-2.36l7.68-.33q7.69-.31,15.37-.58l5.7-.16A62.87,62.87,0,0,0,330.32,83C336.94,93,347.79,101,359.9,101.14q-5-13-9-26.29c5.32.32,10.92.71,16,.07,1-.13,1.9-.28,2.82-.48,6.42-1.42,11.69-5,13.95-13.25,7-25.66,12.79-43.62,12.79-60.62"/><path d="M0,.57c0,15.68-1.17,33.84,8.7,47.11,13.1,17.62,39.82,21.1,60,23.44C122.41,77.36,175.93,81.76,230,81.3c31.94-.26,63.82-2.53,95.75-3.41l-2.59-1.49c7.09,14.63,19.68,27,36.71,27.74a3,3,0,0,0,2.89-3.8q-4.95-13-9-26.29l-2.9,3.8c8.53.51,18.16,1.42,26-2.86,8.08-4.43,9.74-13.19,12-21.38,4.82-17.28,10.43-34.94,10.58-53,0-3.87-6-3.87-6,0-.13,15.16-4.4,29.94-8.41,44.45-2.06,7.43-3,18.78-9.56,23.72s-16.79,3.58-24.6,3.11a3,3,0,0,0-2.89,3.8q4,13.29,9,26.29l2.9-3.8C345,97.51,334.48,86,328.37,73.37a2.93,2.93,0,0,0-2.59-1.48c-26.67.74-53.3,2.43-80,3.13-26.5.7-53.06.19-79.53-1-26.23-1.21-52.34-3.51-78.39-6.74-22.22-2.75-46.52-3.19-66-15.58C4.53,40.65,6.05,18.65,6,.57,6-3.3,0-3.3,0,.57Z"/></svg>