<svg xmlns="http://www.w3.org/2000/svg" viewBox="0 0 413.8 19.18"><defs><style>.a{fill:#010100;}</style></defs><title>res-lower</title><path class="a" d="M3.46,11.5c-.1-2.86-.1-5.7-.1-8.56,0-3.31-.8-7.33.5-10.46,1.6-3.81,4-5.56,8-6.44a80.92,80.92,0,0,1,12.41-1.53c9.5-.61,19-.27,28.56-.44,6.6-.11,13.2-.13,19.81-.16,25.55-.14,51.1-.16,76.66-.19q96.74-.09,193.48.2c18.17.07,36.36,0,54.53.39.83,0,1.66,0,2.49.06,5.39.28,8.15,2.4,9.63,7.6a38.1,38.1,0,0,1,1.35,14.45c-.87,7.67-15.69,7.25-21.55,7.66q-6.33.43-12.68.62c-6.94.23-13.87.28-20.81.34-60.52.56-121.06.34-181.59.36-52.09,0-104.28-.76-156.36.63-1,0-2.05,0-3.07.09C9.57,16.42,4.59,17.74,3.41,11,3.09,9.18.32,10,.64,11.76,2.13,20.29,8.5,19.3,15.48,19c2.94-.14,5.88-.15,8.82-.2,10-.16,20-.22,30-.28,31.25-.17,62.49-.18,93.74-.2,66-.05,132.09.15,198.13-.3,8.86-.06,17.72-.11,26.57-.31,5.51-.12,11-.34,16.53-.73,6.14-.43,13.72-.53,19.47-2.94,4.83-2,5.12-6.64,5.09-11.33-.05-5.45-.7-12.45-3.84-17.07-2.44-3.58-6.39-4-10.41-4.12-2.34-.09-4.67-.1-7-.13-9-.11-17.93-.16-26.89-.21q-97.54-.52-195.1-.32-44,0-88,.16c-8.54,0-17.08.06-25.63.16-3.18,0-6.37.11-9.55.15-7.11.08-14.22-.13-21.32.23-3.14.16-6.28.42-9.39.84s-7.79.49-10.57,2.27C-2.22-10,.28,3.37.59,11.5c.07,1.84,2.94,1.85,2.87,0Z"/></svg>