<svg xmlns="http://www.w3.org/2000/svg" viewBox="0 0 413.8 19.18"><defs><style>.a{fill:#010100;}</style></defs><title>res-upper</title><path class="a" d="M3.46,30.68c-.1-2.86-.1-5.7-.1-8.55,0-3.32-.8-7.34.5-10.47,1.6-3.81,4-5.55,8-6.44A80.92,80.92,0,0,1,24.28,3.69c9.5-.61,19-.27,28.56-.43,6.6-.12,13.2-.14,19.81-.17Q111,2.9,149.31,2.9q96.74-.09,193.48.21c18.17.06,36.36,0,54.53.39.83,0,1.66,0,2.49.06,5.39.27,8.15,2.39,9.63,7.59a38.14,38.14,0,0,1,1.35,14.45c-.87,7.67-15.69,7.25-21.55,7.66-4.22.29-8.45.49-12.68.63-6.94.22-13.87.27-20.81.33-60.52.57-121.06.34-181.59.36-52.09,0-104.28-.76-156.36.63-1,0-2.05,0-3.07.1-5.16.3-10.14,1.61-11.32-5.13-.32-1.82-3.09-1.05-2.77.76,1.49,8.53,7.86,7.54,14.84,7.21C18.42,38,21.36,38,24.3,38c10-.16,20-.22,30-.27,31.25-.18,62.49-.19,93.74-.21,66,0,132.09.16,198.13-.3,8.86-.06,17.72-.11,26.57-.31,5.51-.12,11-.34,16.53-.73,6.14-.43,13.72-.53,19.47-2.93,4.83-2,5.12-6.64,5.09-11.34-.05-5.44-.7-12.45-3.84-17.07-2.44-3.58-6.39-4-10.41-4.12-2.34-.09-4.67-.09-7-.12-9-.12-17.93-.17-26.89-.22Q268.11-.19,170.55,0q-44,0-88,.16Q69.75.22,56.93.33c-3.18,0-6.37.12-9.55.15C40.27.56,33.16.35,26.06.71c-3.14.16-6.28.43-9.39.84S8.88,2.05,6.1,3.83C-2.22,9.14.28,22.56.59,30.68c.07,1.84,2.94,1.85,2.87,0Z"/></svg>