<svg xmlns="http://www.w3.org/2000/svg" viewBox="0 0 452.36 32.58"><defs><style>.cls-1{fill:#040000;}</style></defs><title>speech-upper</title><g id="圖層_1" data-name="圖層 1"><path class="cls-1" d="M452.36,33.68V18.14a3,3,0,0,0-3-3q-52.39,0-104.78.15-93.29.15-186.58.38-42.29.11-84.57.29L76,17.45,66.16,1.5C65.25,0,62.69-.69,61.45.89,59,4,56.48,7,53.79,9.9c-1.74,1.87-4.38,5.55-6.8,6.47-3.84,1.46-9.27,1.24-13.33,1.6-9.58.86-20.43,2.15-29.86-.37A3,3,0,0,0,0,20.49V33.68c0,3.86,6,3.87,6,0V20.49L2.2,23.38c10.57,2.83,22.6,1.45,33.32.41,4.21-.41,9.74-.31,13.77-1.76,3-1.07,5.34-4.32,7.49-6.57,3.15-3.29,6.09-6.75,8.91-10.32L61,4.53l4.93,8c1.52,2.45,2.94,5.85,4.93,8s5,1.47,7.79,1.46l16.44-.07L135,21.74q47.16-.14,94.32-.23,89-.19,178-.31,21,0,42.05-.05l-3-3V33.68c0,3.86,6,3.87,6,0Z"/></g></svg>