<svg xmlns="http://www.w3.org/2000/svg" viewBox="0 0 452.36 32.58"><defs><style>.cls-1{fill:#040000;}</style></defs><title>speech-lower</title><g id="圖層_1" data-name="圖層 1"><path class="cls-1" d="M0-150.64V28.06A3.05,3.05,0,0,0,2.2,31c13.67,3.58,28.17.16,42.15-.06,9.29-.14,18.58-.23,27.87-.31q47.29-.42,94.58-.64,58.64-.33,117.28-.59,52.54-.24,105.09-.44,29-.11,58-.2h2.19a3,3,0,0,0,3-3V-150.64a3,3,0,0,0-3-3H21.21c-5.75,0-11.72-.47-17.46,0-.25,0-.5,0-.75,0-3.86,0-3.87,6,0,6H442.55c1.82,0,4.29.45,6.06,0a3.4,3.4,0,0,1,.75,0l-3-3V25.71l3-3c-16.46,0-32.92.1-49.37.16q-50.24.19-100.49.42-58.84.26-117.67.58-49.63.27-99.25.64c-17.72.14-35.7-.48-53.37,1.09-8.49.75-17,1.77-25.41-.42L6,28.06v-178.7C6-154.5,0-154.51,0-150.64Z"/></g></svg>