<?xml version="1.0" encoding="utf-8"?>
<!-- Generator: Adobe Illustrator 22.0.1, SVG Export Plug-In . SVG Version: 6.00 Build 0)  -->
<!DOCTYPE svg PUBLIC "-//W3C//DTD SVG 1.1//EN" "http://www.w3.org/Graphics/SVG/1.1/DTD/svg11.dtd">
<svg version="1.1" id="Layer_1" xmlns="http://www.w3.org/2000/svg" xmlns:xlink="http://www.w3.org/1999/xlink" x="0px" y="0px"
	 viewBox="0 0 357.5 7.2" style="enable-background:new 0 0 357.5 7.2;" xml:space="preserve">
<style type="text/css">
	.st0{fill:#D1CCC7;}
</style>
<title>line</title>
<path class="st0" d="M4.1,6c11.4,1.9,27.1,0.9,38.8,1c27.2,0.2,54.3,0.2,81.5,0.2c60.2,0,120.5-0.3,180.7-0.7
	c15.5-0.1,31.1,0,46.5-0.4c7.7-0.2,7.7-6.2,0-6c-39.5,1.1-79.4,0.6-118.9,0.8C173.1,1.2,113.3,1.4,53.6,1.1
	C42.9,1,32.2,0.9,21.6,0.7c-3.4-0.1-6.7-0.2-10.1-0.3s-2.4,0-4.2-0.3C0-1.1-3.2,4.7,4.1,6z"/>
</svg>
