<svg xmlns="http://www.w3.org/2000/svg" viewBox="0 0 136.66 44.29"><defs><style>.cls-1{fill:#f3eee8;}</style></defs><title>black-logo</title><g id="圖層_1" data-name="圖層 1"><path d="M38.44,3.94c9.45-.43,18.69-.09,28.16-.54a210.34,210.34,0,0,1,34,.88c4.55.52,9.31.81,13.81,1.17s9.07-1.06,12.69,2.41c3.46,3.31,4.58,8.54,5.36,13.28.61,3.7,2.05,10.63.3,13.94-2.78,5.27-11.33,3.51-15.73,3.27a90.89,90.89,0,0,0-15.92.06C89.77,39.8,78.46,39.58,67,39c-10.39-.5-20.63,1-31,1.48-9,.4-18.23,2.45-26.48-2.13-7.25-4-8.39-24.71-3.66-31.74C5.92,6.65,28.13,4.41,38.44,3.94Z"/><path d="M38.44,6.94c9.7-.39,19.41-.18,29.11-.59a220.27,220.27,0,0,1,29.27.53c4.44.41,8.87.89,13.32,1.23,4,.3,10-.63,13.55,1.2,4,2,4.89,7.14,5.65,11.18.65,3.44,1.89,7.72,1.24,11.2-1.25,6.73-13,3.62-17.91,3.43-9.55-.38-19,1.24-28.56,1.33-9.91.1-19.77-.83-29.68-.23-9.51.58-19,1.54-28.53,2-4.7.23-11.19.45-15.13-2.65C8.52,33.8,7.62,30.74,7,28,5.55,22,5.13,13.69,8.51,8.16L5.92,9.65C16.74,8.56,27.58,7.47,38.44,6.94c3.84-.19,3.87-6.19,0-6-9.07.44-18.12,1.32-27.16,2.18-1.81.17-4.41,0-6.15.63-3,1.17-3.89,5.87-4.4,8.65C-.69,20.16-.26,30.19,4.12,37c5.82,9.07,19.48,7.34,28.56,6.7,14.72-1.05,29.1-1.68,43.85-1.34,13.85.32,27.56-2,41.39-1,7.49.56,17.05,1,18.52-8.45.7-4.56-.48-9.58-1.32-14-1-5.18-2.63-10.92-7.13-14.15-4.79-3.44-11.45-2.14-17-2.56C103.12,1.58,95.28.59,87.38.27,71.19-.39,54.63.29,38.44.94,34.59,1.1,34.57,7.1,38.44,6.94Z"/><path class="cls-1" d="M46.22,21.43l-1.82-4-3,3.17L43,20.9a7.19,7.19,0,1,1-7.11-8.2,7.11,7.11,0,0,1,3.73,1,.8.8,0,0,0,.42.13.77.77,0,0,0,.77-.77.81.81,0,0,0-.37-.66,0,0,0,0,1,0,0,8.59,8.59,0,0,0-4.55-1.27,8.75,8.75,0,1,0,8.7,10Z"/><path class="cls-1" d="M43.52,15.48a1,1,0,1,1-1-1,1,1,0,0,1,1,1"/><path id="_路徑_" data-name="&lt;路徑&gt;" class="cls-1" d="M81.23,23.75V13.39H80.06V23.59c0,2.14,1.14,3.38,3.09,3.38h.4V25.92h-.4c-1.45-.08-1.9-1-1.93-2.17"/><path class="cls-1" d="M89.37,17.17a5,5,0,0,0,0,9.94,4.84,4.84,0,0,0,3.91-2.3V27h1.06l0-4.84a5,5,0,0,0-5-5m0,8.8a3.83,3.83,0,1,1,3.83-3.83A3.84,3.84,0,0,1,89.37,26"/><rect id="_路徑_2" data-name="&lt;路徑&gt;" class="cls-1" x="72.55" y="21.59" width="4.26" height="1.24"/><path class="cls-1" d="M101.82,17.17A4.39,4.39,0,0,0,98,19.26V13.65H96.88V27H98V24.89a4.43,4.43,0,0,0,3.86,2.17,4.94,4.94,0,1,0,0-9.89m0,8.8a3.83,3.83,0,1,1,3.83-3.83A3.84,3.84,0,0,1,101.82,26"/><path class="cls-1" d="M69.54,22.09a5,5,0,0,0-9.94,0,4.93,4.93,0,0,0,5,5,5.18,5.18,0,0,0,4.57-2.7h-1.4a3.89,3.89,0,0,1-3.2,1.51,3.61,3.61,0,0,1-3.83-3.07h8.75a3,3,0,0,0,.08-.71Zm-5-3.81a3.82,3.82,0,0,1,3.78,3.25H60.76a3.87,3.87,0,0,1,3.81-3.25"/><path class="cls-1" d="M58.2,17.57a4.27,4.27,0,0,0-4.44-4.44H49V27h1.14V22h3.23a.29.29,0,0,1,.26.13c.11.19,0,.05,3.12,4.84h1.35S54.92,22,54.89,22s-.05-.08,0-.08a4.27,4.27,0,0,0,3.31-4.34m-8-3.38h3.2c2.7.05,3.68,1.61,3.68,3.38s-1.24,3.28-3.6,3.31H50.19Z"/></g></svg>