<svg xmlns="http://www.w3.org/2000/svg" viewBox="0 0 810.55 416"><defs><style>.cls-1{fill:#d1ccc7;}.cls-2{fill:#f3eee8;}</style></defs><title>hand-overlay</title><g id="圖層_1" data-name="圖層 1"><path class="cls-1" d="M702.36,185.33s21.66,46.46,19.79,68.73l-19.79-7.37Z"/><path d="M7.18,322.73c-5.47-32,6.82-65.51,21.26-93.49C42.31,202.33,60.32,176,83,155.77c6.41-5.73,15.89-14.46,25.2-14.16,3.86.12,3.86-5.88,0-6-8.72-.28-17.06,5.86-23.56,11C73.48,155.37,63.82,166.09,55,177.2c-21.72,27.34-39.85,59-49.35,92.71-5,17.64-7.36,36.23-4.25,54.42.65,3.8,6.43,2.19,5.79-1.6Z"/><path class="cls-2" d="M105.29,413.1C95.66,399,98.67,371.18,97.06,355c-4.67-47.18-9.35-94.21-9.8-141.67A1484.31,1484.31,0,0,0,78.79,63.64C77.65,53.37,75.28,43.22,74.29,33c-.31-3.18-2.73-13.49-2-15.46,3.32-8.65,27.25-15.42,36-14.49"/><path d="M107.88,411.59c-6.25-9.61-6.64-22.1-7-33.21-.4-12.48-1-24.72-2.17-37.17-3.21-32.71-6.24-65.45-7.65-98.3C88.27,177.8,90.17,112,79.38,47.51c-1.17-7-1.9-14-3.15-21-1-5.41-2.11-8.49,2.76-11.92C86.7,9.14,98.8,5.34,108.29,6.1c3.85.31,3.83-5.69,0-6-9-.72-19,2.54-27.07,6.34-3.8,1.8-7.92,4.15-10.37,7.68-2.26,3.25-1.61,6.63-1,10.35,2.3,14.65,4.93,29.33,6.51,44.08q2.78,26,4.51,52.11c2.34,34.82,2.8,69.63,3.63,104.51s3.76,69.59,7.09,104.27c1.53,15.9,2.84,31.57,3.28,47.52.35,12.57.79,26.78,7.86,37.66,2.1,3.23,7.29.22,5.18-3Z"/><path d="M809.11,324.32c5.7-33.3-6.32-67.67-21.28-97-14.49-28.4-33.72-56.66-58.09-77.56-7.29-6.25-17.19-14.5-27.45-14.17-3.85.12-3.87,6.12,0,6,7.9-.25,15.87,6.32,21.57,11,10.51,8.69,19.7,19,28.12,29.69,20.47,26,37.55,56.1,46.76,88,4.88,16.89,7.58,34.91,4.58,52.4-.65,3.78,5.13,5.4,5.79,1.6Z"/><path class="cls-2" d="M717.13,251.76c-16.42-12.3-63.43-15.18-67.72,8.8-3.72,20.82,16.93,23.41,30.82,29.7,10.41,4.72,35.21,45.33,39.08,56.4"/><path d="M718.65,249.17c-10.45-7.58-25.13-9.95-37.76-9.69-11.66.24-26.52,3.23-32.41,14.62a23.53,23.53,0,0,0-.78,19.61c2.78,6.22,8.66,10,14.68,12.7,5.81,2.6,13,3.88,18.2,7.56,4.93,3.47,8.8,9.1,12.31,13.89,5.14,7,9.87,14.35,14.3,21.83,3.36,5.68,7,11.55,9.23,17.77,1.3,3.6,7.1,2,5.79-1.6-3.95-10.91-10.73-21.15-17.05-30.79A201.7,201.7,0,0,0,693,298.17c-2.94-3.62-6.21-7.65-10.31-10-9.76-5.67-28.44-6.59-30.49-20.46-2.14-14.41,11.3-20.63,23.38-21.89,13.16-1.38,29.12.59,40.09,8.55,3.13,2.27,6.13-2.93,3-5.18Z"/><path class="cls-2" d="M85.46,251.76c16.42-12.3,63.43-15.18,67.72,8.8,3.72,20.82-16.93,23.41-30.82,29.7C112,295,87.15,335.6,83.29,346.66"/><path d="M87,254.35c9.81-7.11,23.44-9.18,35.27-8.86,10.7.3,25.77,3.34,28,15.86,3,16.77-15.37,20.4-27.15,25.33-10,4.2-16.77,15.25-22.68,23.88C93,321.49,84.93,333.32,80.4,345.86c-1.32,3.64,4.48,5.2,5.79,1.6,4.47-12.36,12.72-24.12,20.14-34.85,4-5.71,8.08-11.5,13.09-16.36,4.42-4.29,10.38-5.68,16-7.86,6.24-2.42,12.81-5.26,17.05-10.67s5.1-13.05,3.22-19.71c-3.51-12.43-17-17-28.6-18.22-14.1-1.44-31.37.85-43.12,9.37-3.1,2.25-.1,7.45,3,5.18Z"/></g></svg>