<svg xmlns="http://www.w3.org/2000/svg" viewBox="0 0 113 42.74"><defs><style>.cls-1{fill:#f3eee8;}</style></defs><title>others</title><g id="圖層_1" data-name="圖層 1"><path d="M5,3.35C5,10,1.05,29.81,4.64,35.41,8,40.6,19,38.85,25,38.85h56.8c6.06,0,21.52,3,24.92-2.62,2.37-4,3.38-12.81,3.06-17-.42-5.49.22-10.29-1.39-15.6-29-1-74.67-.23-103.38-.23"/><path d="M2,3.35C1.88,8.84.9,14.3.46,19.77c-.4,5-1.14,11.12,1,15.85,4.34,9.75,20.37,6.23,28.79,6.23H70.79c5.19,0,10.4-.15,15.58.27,5.5.44,11.48,1.26,16.89-.27,6.24-1.76,7.92-7.39,8.87-13.24a65.45,65.45,0,0,0-.87-25.83,3.07,3.07,0,0,0-2.89-2.2C73.91-.57,39.43.34,5,.35c-3.86,0-3.87,6,0,6,34.45,0,68.94-.92,103.38.23l-2.89-2.2c1.66,6.34,1.81,14.13,1.12,20.68-.28,2.71-.62,6.32-2,8.74-1.26,2.2-3.42,2.51-5.82,2.76-5,.5-10-.34-14.91-.62-4.34-.24-8.72-.08-13.07-.08H36.57c-4.54,0-9.1-.11-13.65,0C18.78,36,11,37.57,7.74,34.34S6.18,23.07,6.51,19.14C7,13.89,7.88,8.63,8,3.35,8-.51,2-.51,2,3.35Z"/><path class="cls-1" d="M23.91,13.83V12.31h1.75v1.51h6.16V12.31h1.75v1.51h3v1.6h-3v7.81h3.31v1.58H20.62V23.24h3.29V15.43h-3v-1.6Zm3.37,12.28a21.68,21.68,0,0,1-5.33,2.83l-1.08-1.39A22.63,22.63,0,0,0,26.07,25ZM31.82,17v-1.6H25.66V17Zm0,3.06v-1.6H25.66v1.6Zm0,3.15V21.55H25.66v1.69Zm4.79,4.21-.94,1.48a25.78,25.78,0,0,0-5.35-2.54l.86-1.3A29.87,29.87,0,0,1,36.61,27.46Z"/><path class="cls-1" d="M44.59,12.93A21.83,21.83,0,0,1,43,16.71V29H41.33V19.35c-.5.67-1,1.31-1.62,2l-.54-1.75A20.45,20.45,0,0,0,43,12.21Zm9.13,9.74-1.58-.49a36.74,36.74,0,0,0,.88-5l-2.27.68V25H49.06V18.35L46.81,19v7.11a.75.75,0,0,0,.85.85h5.42a1.06,1.06,0,0,0,.88-.36,7.65,7.65,0,0,0,.32-2.57l1.62.54c-.13,1.89-.34,3-.67,3.44a2.43,2.43,0,0,1-1.87.59H47.24c-1.44,0-2.14-.76-2.14-2.23V19.55L43.62,20V18.35l1.48-.45V14h1.71v3.39l2.25-.68V12.33h1.69V16.2L54.66,15A40.91,40.91,0,0,1,53.72,22.67Z"/><path class="cls-1" d="M63.87,21.37c-.5.23-1,.45-1.53.67v4.9a1.59,1.59,0,0,1-1.82,1.76H58.9L58.52,27a9.55,9.55,0,0,0,1.4.11q.7,0,.7-.65V22.68c-.68.23-1.39.45-2.07.65l-.43-1.73c.85-.18,1.67-.4,2.5-.65V17.18H58.47V15.52h2.16V12.35h1.71v3.17H64v1.66H62.34v3.15c.52-.22,1-.45,1.53-.7ZM67,28.88H65.31v-10c-.36.52-.76,1-1.17,1.53l-.58-1.8a17.61,17.61,0,0,0,3-6.25l1.66.32a20,20,0,0,1-.92,2.59h2.75c-.29-.86-.61-1.73-1-2.56l1.64-.43a28.84,28.84,0,0,1,.94,3h2.75v1.64H71.49V19h2.57v1.6H71.49v2h2.57V24.2H71.49v2.23h3.13v1.64H67Zm0-11.94V19H69.8V16.94Zm0,5.67H69.8v-2H67Zm0,3.82H69.8V24.2H67Z"/><path class="cls-1" d="M82.66,24.14H93c-.14,2.27-.4,3.64-.72,4.09a2.62,2.62,0,0,1-2.16.7l-.76-.07L89,27.67l-.07,0A9.75,9.75,0,0,0,88,26l1.15-.32a12.05,12.05,0,0,1,1,1.55l-.81.32a7,7,0,0,0,.83.07,1.06,1.06,0,0,0,.85-.29,5.05,5.05,0,0,0,.32-1.93H80.77l.94-3.85H80.07A15.85,15.85,0,0,1,78.41,29l-1.3-1.13a13.29,13.29,0,0,0,1.35-6.36V16.17h6.41a8.08,8.08,0,0,0-.41-.88L86.12,15c.14.32.27.7.41,1.13h6.73V17.5H88.7v.88h3.89v3.19H83.28l-.16.7H93.38v1.12H82.84ZM81.39,13.36v-1H83v1h2v1.4H83v1H81.39v-1H77.64v-1.4Zm1,13.05A11.7,11.7,0,0,1,80.86,29l-1.21-.88a8.92,8.92,0,0,0,1.46-2.34ZM80.07,17.5v.88H83V17.5Zm0,2.92H83v-.94h-2.9Zm5,8.07L83.76,29A20.92,20.92,0,0,0,83,26.36L84.21,26A17.6,17.6,0,0,1,85.08,28.48Zm-.59-11v.88h2.7V17.5Zm0,2.92h2.7v-.94h-2.7Zm3.28,7.63-1.3.49a18.42,18.42,0,0,0-1-2.36l1.21-.34A18.39,18.39,0,0,1,87.76,28.05Zm1.73-15.72v1h3.76v1.4H89.49v1H87.87v-1h-2v-1.4h2v-1Zm-.79,8.08h2.39v-.94H88.7Z"/></g></svg>