<svg xmlns="http://www.w3.org/2000/svg" viewBox="0 0 161.38 42.69"><defs><style>.cls-1{fill:none;stroke:#ed1c24;stroke-miterlimit:10;stroke-width:10px;}.cls-2{fill:#f3eee8;}</style></defs><title>button</title><g id="圖層_1" data-name="圖層 1"><rect class="cls-1" x="-1952.3" y="-3013.18" width="3383.57" height="7734.04"/><path d="M6.05,3.36c0,6.63-5.69,26.46-.48,32.05,4.84,5.19,20.81,3.45,29.55,3.45h82.53c8.81,0,31.28,3,36.21-2.62,3.44-4,4.91-12.81,4.44-17-.61-5.49.33-10.28-2-15.6-42.13-1-108.5-.23-150.23-.23"/><path d="M3.05,3.36C2.8,13.5-5.59,33.59,6.58,39.74,13.3,43.13,22.15,42.21,29.4,42c6.74-.21,13.48-.13,20.22-.13H100.7c6.65,0,13.33-.19,20,.08,7.52.31,15.07,1.12,22.6.56,7.31-.53,12.93-2.22,15.8-9.49a33.15,33.15,0,0,0,2.29-12.91c-.18-5.78-.12-11.85-2.2-17.31a3.12,3.12,0,0,0-2.89-2.2C106.22-.58,56.12.35,6.05.36c-3.86,0-3.86,6,0,6,50.07,0,100.17-.94,150.23.23l-2.9-2.2c1.8,4.72,1.73,9.8,1.92,14.8a28.62,28.62,0,0,1-1.55,11c-2.47,6.76-9,6.43-15.29,6.47-12.17.07-24.35-.81-36.53-.81H57.18c-12.72,0-25.6.72-38.3.22C15.72,36,10.48,36,8,33.59,5.82,31.37,6.29,27,6.46,24.11c.4-7,2.42-13.79,2.59-20.75.1-3.87-5.9-3.86-6,0Z"/><path class="cls-2" d="M29.75,13.24v1.37a29.88,29.88,0,0,1-2.55,3.83h2.66v1a13.19,13.19,0,0,1-1.33,5.76,4.92,4.92,0,0,0,1.42,1,20.28,20.28,0,0,0,7.08,1c1.24,0,2.52-.05,3.83-.13l-.34,1.7H37.8c-4.12,0-7.07-.45-8.87-1.32a5.86,5.86,0,0,1-1.28-.83A9.48,9.48,0,0,1,25,28.87l-.87-1.48a7.85,7.85,0,0,0,2.42-2.07,14.3,14.3,0,0,1-2-3.78L25.9,21a15.79,15.79,0,0,0,1.5,2.8,11.35,11.35,0,0,0,.93-3.94H25V18.66a27.44,27.44,0,0,0,2.86-3.87H24.64V13.24Zm1.57,10.31V17.27h1.62v6.28h2V15c-1.15.11-2.39.18-3.72.18l-.53-1.53a25.88,25.88,0,0,0,8.43-1.19l.83,1.42a17.34,17.34,0,0,1-3.37.9v3.37h3v1.55h-3v3.83h3.6v1.63h-10V23.55Z"/><path class="cls-2" d="M48.55,13a22.39,22.39,0,0,1-1.79,4V29H45.09V19.45c-.5.63-1.05,1.24-1.62,1.85l-.56-1.81a19.74,19.74,0,0,0,4-7.26ZM50.26,24v.79H48.65V15H53V12.43h1.67V15h4.41v9.85H57.42V24H54.65V29H53V24Zm0-7.49v2.18H53V16.55Zm0,5.92H53V20.26H50.26Zm7.16-5.92H54.65v2.18h2.77Zm0,5.92V20.26H54.65v2.21Z"/><path class="cls-2" d="M73.69,15.13c-.07.25-.14.48-.23.72A8.36,8.36,0,0,0,78.3,18l-.7,1.41a8.81,8.81,0,0,1-1.39-.33v7.38H72.65a39.2,39.2,0,0,1,5.56,1.3l-.55,1.35a36.4,36.4,0,0,0-6-1.57l.56-1.08H68.06l.74,1a19.57,19.57,0,0,1-5.73,1.67l-.77-1.31a23.87,23.87,0,0,0,5.33-1.32H64.31V19h4.34L68,18c2.41-.43,3.83-1.47,4.28-3.13Zm-6.17,1.4V18H62.31V16.53Zm-.38-3.24v1.44H62.67V13.29Zm7.4,7.87v-.85H66v.85Zm0,1.93v-.8H66v.8Zm0,1.11H66v.89h8.55Zm-6.18-7.54-.93-1.24A6.66,6.66,0,0,0,70,12.25l1.57.18c-.11.29-.22.57-.34.84h6.32v1.19A10,10,0,0,1,76,16.82l-1.17-.92a7.38,7.38,0,0,0,.93-1.22H70.42A9.48,9.48,0,0,1,68.36,16.66ZM76.05,19a8.64,8.64,0,0,1-3.26-2,6.12,6.12,0,0,1-3.27,2Z"/><path class="cls-2" d="M85,19.68l-1.15,1.17a18.94,18.94,0,0,0-3-2.7L82,17.05A23.1,23.1,0,0,1,85,19.68Zm.22,2.87a60,60,0,0,1-2.59,6.37l-1.61-.7A49.86,49.86,0,0,0,83.77,22Zm.34-7.17-1.17,1.15a21.21,21.21,0,0,0-3.2-2.79l1.15-1.1A25.76,25.76,0,0,1,85.59,15.38Zm5.65.49a12.1,12.1,0,0,0,.4-1.39H87.77V19.2a22,22,0,0,1-2,9.79l-1.3-1.15a19.5,19.5,0,0,0,1.71-8.64V13h11v1.51H93.26a11,11,0,0,1-.4,1.39h3.37v6.57H93.35v4.79c0,1.11-.54,1.69-1.6,1.69H90.24l-.36-1.55a8.47,8.47,0,0,0,1.31.11c.36,0,.54-.22.54-.65V22.44h-3V15.87Zm-.66,8A13.25,13.25,0,0,1,88.71,28l-1.37-.87a11,11,0,0,0,1.73-3.63Zm4.16-5.33V17.18H90.27v1.35Zm0,1.24H90.27v1.32h4.47Zm2.68,7.62L96,28a27.11,27.11,0,0,0-1.78-4.09l1.42-.48A25.81,25.81,0,0,1,97.42,27.39Z"/><path class="cls-2" d="M105.39,21.38c-.5.23-1,.45-1.53.66v4.9A1.59,1.59,0,0,1,102,28.7h-1.62L100,27.05a10,10,0,0,0,1.41.11c.47,0,.7-.22.7-.65V22.69c-.68.23-1.39.45-2.07.65l-.43-1.73c.84-.18,1.67-.4,2.5-.65V17.18H100V15.52h2.16V12.35h1.71v3.17h1.67v1.66h-1.67v3.15c.52-.21,1-.45,1.53-.7Zm3.13,7.5h-1.69v-10c-.36.52-.76,1-1.17,1.53l-.58-1.8a17.57,17.57,0,0,0,3-6.25l1.66.33a19.84,19.84,0,0,1-.92,2.59h2.75c-.28-.87-.61-1.73-1-2.56l1.64-.43a29.23,29.23,0,0,1,.94,3h2.75V17H113V19h2.57v1.6H113v2h2.57V24.2H113v2.24h3.13v1.63h-7.62Zm0-11.93V19h2.79V17Zm0,5.67h2.79v-2h-2.79Zm0,3.82h2.79V24.2h-2.79Z"/><path class="cls-2" d="M124.18,24.15H134.5c-.14,2.27-.4,3.64-.72,4.09a2.65,2.65,0,0,1-2.16.7l-.76-.07-.34-1.19-.07,0a9.43,9.43,0,0,0-1-1.68l1.16-.32a12.29,12.29,0,0,1,.95,1.55l-.81.32a6.33,6.33,0,0,0,.83.07,1,1,0,0,0,.84-.29,4.81,4.81,0,0,0,.33-1.92h-10.5l.94-3.86h-1.64a15.73,15.73,0,0,1-1.66,7.4l-1.29-1.13A13.4,13.4,0,0,0,120,21.48V16.17h6.41a8,8,0,0,0-.42-.88l1.66-.25c.14.32.27.7.41,1.13h6.74V17.5h-4.58v.89h3.89v3.18h-9.31l-.16.71H134.9v1.11H124.36ZM122.9,13.36v-1h1.62v1h2v1.41h-2v1H122.9v-1h-3.74V13.36Zm1,13.06a11.83,11.83,0,0,1-1.5,2.61l-1.2-.88a8.92,8.92,0,0,0,1.45-2.34Zm-2.29-8.92v.89h2.9V17.5Zm0,2.92h2.9v-.93h-2.9Zm5,8.07-1.32.48a22.51,22.51,0,0,0-.79-2.61l1.24-.32A17.38,17.38,0,0,1,126.6,28.49Zm-.6-11v.89h2.7V17.5Zm0,2.92h2.7v-.93H126Zm3.28,7.64-1.3.48a19.76,19.76,0,0,0-1-2.36l1.2-.34A17.79,17.79,0,0,1,129.28,28.06ZM131,12.34v1h3.76v1.41H131v1h-1.62v-1h-2V13.36h2v-1Zm-.8,8.08h2.4v-.93h-2.4Z"/></g></svg>