<svg xmlns="http://www.w3.org/2000/svg" viewBox="0 0 183.36 54.1"><title>three-head</title><g id="圖層_1" data-name="圖層 1"><circle cx="31.21" cy="32" r="1.49"/><path d="M30.72,29.19c1.46-.18,3.46-.33,4.29,1.2,1.32,2.42-1.59,4.08-3.59,3.94a5.3,5.3,0,0,1-2.33-.49,1.89,1.89,0,0,1-.73-1.93,3.16,3.16,0,0,1,2.58-2.75c1.1-.25.63-1.94-.46-1.69a4.86,4.86,0,0,0-3.83,5.1c.14,2.9,2.83,3.63,5.42,3.55a4.79,4.79,0,0,0,4.87-5.32c-.45-3.06-3.66-3.68-6.23-3.36C29.62,27.58,29.6,29.33,30.72,29.19Z"/><path d="M15.83,29.19c1.46-.18,3.46-.33,4.29,1.2,1.32,2.42-1.59,4.08-3.59,3.94a5.3,5.3,0,0,1-2.33-.49,1.89,1.89,0,0,1-.73-1.93,3.16,3.16,0,0,1,2.58-2.75c1.1-.25.63-1.94-.46-1.69a4.86,4.86,0,0,0-3.83,5.1c.14,2.9,2.83,3.63,5.42,3.55a4.79,4.79,0,0,0,4.87-5.32c-.45-3.06-3.66-3.68-6.23-3.36C14.73,27.58,14.71,29.33,15.83,29.19Z"/><circle cx="16.03" cy="32" r="1.49"/><path d="M29.92,22.48a2,2,0,0,0-1.48.39,1.46,1.46,0,0,0-.26,1.69c.46.8,1.65.78,2.44.62,1-.22,2.14-1.41,1.19-2.4a2.23,2.23,0,0,0-2.88-.08,1.15,1.15,0,0,0,.51,1.78,1.6,1.6,0,0,0,1.83-.27.89.89,0,0,0-.39-1.46l-.13,0a.88.88,0,0,0-1.08.61.89.89,0,0,0,.61,1.08l.13,0L30,23s.09,0,.12-.07,0,.05,0,0,.09.11,0,0,.22.49.17.19l-.22.85q.09-.1,0,0t0,0,0,0h.34l.08,0q.16.05,0,0,.1.07,0,0a.44.44,0,0,1-.1-.46q.2-.29.08-.17s0,0,0,0-.25.13-.12.08c0,0-.32.08-.21.07s-.09,0-.12,0h-.6q.15,0,0,0h0a.36.36,0,0,1,.23.19c.17.29,0,.31-.12.51s-.17,0,0,0a2.79,2.79,0,0,0,.37,0,.87.87,0,0,0,0-1.75Z"/><path d="M18.91,22.48a2,2,0,0,0-1.48.39,1.46,1.46,0,0,0-.26,1.69c.46.8,1.65.78,2.44.62,1-.22,2.14-1.41,1.19-2.4a2.23,2.23,0,0,0-2.88-.08,1.15,1.15,0,0,0,.51,1.78,1.6,1.6,0,0,0,1.83-.27.89.89,0,0,0-.39-1.46l-.13,0a.88.88,0,0,0-1.08.61.89.89,0,0,0,.61,1.08l.13,0L19,23s.09,0,.12-.07,0,.05,0,0,.09.11,0,0,.22.49.17.19l-.22.85q.09-.1,0,0t0,0,0,0h.34l.08,0q.16.05,0,0,.1.07,0,0a.44.44,0,0,1-.1-.46q.2-.29.08-.17s0,0,0,0-.25.13-.12.08c0,0-.32.08-.21.07s-.09,0-.12,0h-.6q.15,0,0,0h0a.36.36,0,0,1,.23.19c.17.29,0,.31-.12.51s-.17,0,0,0a2.79,2.79,0,0,0,.37,0,.87.87,0,0,0,0-1.75Z"/><path d="M22.13,31c-.33,1.39-1.09,4,.42,5a2,2,0,0,0,3.22-1.8.9.9,0,0,0-.64-.84h-.06C24,33.13,23.5,34.82,24.6,35h.06L24,34.21c0,.28-.11.57-.45.36s-.11-.64-.11-.84a9.5,9.5,0,0,1,.35-2.27c.26-1.09-1.43-1.56-1.69-.46Z"/><path d="M16.66,40c4.87-1.2,10.57-.86,15.55-.86a.87.87,0,0,0,0-1.75c-5.18,0-11-.31-16,.92-1.09.27-.63,2,.46,1.69Z"/><path d="M4.34,50.68s-.59-13.21-.74-17.4S3.68,25,6,21.35c4.56-7.13,14.53-9.1,22.35-9.1,2.13,0,4.54-.29,6.57.38a21.13,21.13,0,0,1,5.36,2.73,15.89,15.89,0,0,1,3.88,4.75c1,1.71,1.24,3.59,2,5.39a18.51,18.51,0,0,1,1.66,6.13c.13,1.53.61,3,.87,4.46a19.86,19.86,0,0,0,.81,4.53c.72,1.69,3.49,11.65,4.73,13,1.55,1.63,4-.84,2.47-2.47-.85-.89-3.29-10.37-3.81-11.5a14.3,14.3,0,0,1-.62-3.53c-.39-2.18-.8-4.23-1-6.43a16.54,16.54,0,0,0-1.71-5.11c-.9-2.09-1.18-4.22-2.38-6.2a19.65,19.65,0,0,0-9-8.09c-4-1.94-8.24-1.61-12.61-1.5-8,.19-17.67,3.57-22.32,10.47A20.39,20.39,0,0,0,0,30.94c.13,5,.85,14.75.84,19.74,0,2.25,3.26,2.69,3.27.44Z"/><path d="M23.36,41.71c-2.16-.26-3.32,1.84-2.8,3.75a2.73,2.73,0,0,0,1.66,1.94,3.06,3.06,0,0,0,2.93-.93l-1.37-.18a3.36,3.36,0,0,0,2.44,1.88,2.57,2.57,0,0,0,2.07-1c.87-1,1.64-3.31,0-4-1-.47-1.9,1-.88,1.51.08,0,.08.05,0,.34A2.16,2.16,0,0,1,27,46c-.69.85-1.31.12-1.75-.6a.89.89,0,0,0-1.37-.18c-.75.66-1.48.75-1.7-.36-.18-.91.19-1.54,1.15-1.42,1.11.14,1.1-1.61,0-1.75Z"/><path d="M7.65,26.49c2.91,0,5.85.12,8.76,0a11,11,0,0,1,2.78-.18c1.92.49,1.52,2.14,1.47,3.61s.48,3.74-.15,5.07c-.77,1.63-3.5,1.46-5.05,1.61a42.73,42.73,0,0,1-5.12.3c-2,0-2-.83-2.18-2.65A35.71,35.71,0,0,1,8,25.61c.15-1.11-1.6-1.1-1.75,0a35.22,35.22,0,0,0,0,6.52c.09,1.56,0,4,.89,5.38s2.44,1.15,3.81,1.13a55.4,55.4,0,0,0,7-.56c1.65-.23,3.32-.59,4.08-2.24.92-2,.48-5.27.46-7.4,0-1.89-.63-3.45-2.64-3.84-1.42-.27-3.1.12-4.54.14-2.56,0-5.11,0-7.67,0a.87.87,0,0,0,0,1.75Z"/><path d="M24.92,25.87c0,2.94-.18,5.93-.11,8.86,0,1.51.38,2.81,1.85,3.48,1.62.74,3.72.34,5.43.22,2.93-.21,5.84.16,8.78.13a.89.89,0,0,0,.87-.87c.18-3.52.85-7.61.2-11.1-.32-1.72-1.26-2.42-3-2.72-3.77-.67-10.67-1.16-13.56,1.88-.77.82.46,2.05,1.24,1.24,2.3-2.42,7.55-1.73,10.59-1.52,2.55.18,3,.7,3,3.23,0,3-.13,6-.29,9l.87-.87c-3.64,0-7.22-.12-10.86,0-1.55.06-2.87.26-3.46-2.1a10.57,10.57,0,0,1,.11-2.46c.05-2.13,0-4.27,0-6.4a.87.87,0,0,0-1.75,0Z"/><path d="M23,30.74a10.07,10.07,0,0,1,3.3-.22.87.87,0,0,0,0-1.75,11.49,11.49,0,0,0-3.76.28c-1.06.36-.61,2,.46,1.69Z"/><path d="M93.35,12.36C91,10.18,87.89,5.95,92.68,4.7a16.89,16.89,0,0,1,7.74.31c5.24,1.19,10.93,3.86,14.05,8.43a13.92,13.92,0,0,1,2.25,6.88c.15,2.28-.25,3.76-3.09,3.11a26.53,26.53,0,0,1-5.5-2.33c-2.74-1.35-5.33-3-8-4.37-1.93-1-5.36-2.29-6-4.62s-3.93-1.25-3.37.93c.68,2.65,3.11,4.25,5.35,5.53,3.06,1.75,6.2,3.48,9.34,5.08s7.2,4.08,10.75,3.37c3-.59,4.05-3.24,4-6C120.23,8.31,105.8.09,94.2,1c-2.9.22-6.35,1.25-7.39,4.28-1.28,3.71,1.53,7.23,4.07,9.59,1.65,1.53,4.13-.94,2.47-2.47Z"/><path d="M90.54,3.62c-2,2.31-1.4,7.64.51,9.86A1.76,1.76,0,0,0,94,12.71c.71-2.21.31-4.39.22-6.67a1.75,1.75,0,0,0-3.5,0c-.08,2.53-.22,5.06.87,7.4.66,1.41,2.82.93,3.19-.42.82-2.94.09-5.84.13-8.82l-3.26.88c1.54,2.39,1.51,5.65,2,8.38.31,1.78,2.92,1.55,3.37,0,.9-3.12-1.37-6.32-.14-9.28l-3.19.42c2,2.54,1.31,6.92,1.25,9.93h3.5c-.1-3.31-.65-6.62.52-9.81l-3.19.42c.82,1.25.51,3,.54,4.42,0,1.9.31,3.79.32,5.69h3.5c-.05-3-.58-6,.3-8.89l-2.92.77c1.53,1.56.64,6.56.67,8.59s3,2.46,3.43.46c.7-3.54-.41-7.12.34-10.63H98.53c1,3.7.93,7.53,1.07,11.34.09,2.24,3.49,2.26,3.5,0s-.28-4.66-.45-7c-.12-1.7-.5-3.53.08-5.17l-3.19.42c2.15,4,1.79,9.22,1.76,13.66h3.5c-.47-4.1-1.69-9.18.29-13h-3c1.07,1.62.88,3.93,1,5.8.09,2.41.25,4.81.29,7.22l3.43-.46c-.77-3.7-1.36-7.83-.36-11.55l-3.19.42c1,1.47.87,3.56,1,5.26.17,2.17.44,4.31.46,6.49l3.43-.46c-.6-2.81-1.7-7.18-.3-9.89h-3c1.38,2.85,2.62,7,1.89,10.19l3.19-.42a12.52,12.52,0,0,1-.45-9.24l-2.92.77c1.9,2.08,2.09,7.33,1.22,9.89l2.92-.77c-1.06-1.33-1.53-6-.19-7.27H108c1.89,2.06,1.72,7.07,1.34,9.67L112.5,21c-1.54-2.24-1.54-6.7-.41-9.11l-2.75.35c2.13,1.81,1.5,7.38,1.33,9.93l3-1.24c-2.37-2.91-3.94-8-3.06-11.74l-2.15,1.22c1.76.27,4,7.63,3,9l2.75-.35a12.58,12.58,0,0,1-1.89-3.88c-.33-.91-.47-1.9-.81-2.8a9.18,9.18,0,0,0-.06-.92c-.3-.19-.63.58-.64.64a14.69,14.69,0,0,0,1,2,16.37,16.37,0,0,1,.63,2.54c.19,1.1.66,3.18,0,4.22l2.75-.35c-1.64-1.86-2.12-6-.63-8l-2.39.63c1.82,1,1.61,6.8,1.31,8.54h3.37c-.25-1.12-.75-3,.13-4l-2.12.27c.59.43.38,2.07.69,2.75v.58l1.75-.06c.06-.11-.4-1.27-.32-1.61l-2.15,1.22q-.72.58.9.42a1.63,1.63,0,0,1-.17-1.19l-2.39.63c-.57-.43,1.11.44,1.11.43.34-2.2-3-3.15-3.37-.93-.38,2.47,1.15,5.1,3.9,3.47,2.48-1.47,2.22-4.39.13-6a1.76,1.76,0,0,0-2.39.63c-1.32,2.37.24,7.39,3.65,6.13,3.11-1.16,2.2-5.9-.43-7a1.76,1.76,0,0,0-2.15,1.22c-.57,2.21,1.28,7.71,4.33,5.27,2.46-2,.85-7.45-1.31-9a1.75,1.75,0,0,0-2.12.27c-1.86,2.14-1.6,4.8-1,7.41.36,1.62,3.08,1.71,3.37,0,.58-3.39.69-10.6-2.92-12.48a1.81,1.81,0,0,0-2.39.63c-2.45,3.33-1.44,9.33,1.17,12.29a1.76,1.76,0,0,0,2.75-.35c2-3.34.29-13.74-4.47-14.17-6.36-.57-1.19,10.94.68,13.06a1.77,1.77,0,0,0,2.75-.35c1.55-2.14.34-5.89-.45-8.09s-2-5.68-4.59-6.07a1.79,1.79,0,0,0-2.15,1.22c-1.2,5,.76,11.21,4,15.14,1,1.27,2.9.13,3-1.24.23-3.52.66-9.85-2.35-12.4a1.77,1.77,0,0,0-2.75.35c-1.65,3.54-1.87,9.31.41,12.64.75,1.08,3,1.21,3.19-.42.58-4,.65-9.92-2.24-13.07a1.78,1.78,0,0,0-2.47,0c-2.9,2.7-2.08,9.37.19,12.21.88,1.1,2.54.35,2.92-.77,1.28-3.77.64-10.27-2.12-13.29a1.77,1.77,0,0,0-2.92.77,16,16,0,0,0,.8,11.93,1.76,1.76,0,0,0,3.19-.42c1-4.17-.42-9.12-2.24-12.89a1.76,1.76,0,0,0-3,0c-1.93,3.71-.89,8.69-.05,12.58.42,1.95,3.45,1.48,3.43-.46,0-2.64-.33-5.29-.56-7.92-.17-1.89-.3-4-1.38-5.6a1.77,1.77,0,0,0-3.19.42c-1.17,4.34-.55,9.07.36,13.4.4,1.94,3.47,1.49,3.43-.46,0-2.9-.2-5.8-.34-8.7-.1-2.06-.21-4.32-1.38-6.09a1.77,1.77,0,0,0-3,0c-2.35,4.59-1.33,9.91-.77,14.81.25,2.18,3.48,2.31,3.5,0,0-5.11.23-10.79-2.24-15.42a1.77,1.77,0,0,0-3.19.42c-1.37,3.93.26,9,.25,13.09h3.5c-.16-4.12-.07-8.27-1.2-12.27-.45-1.59-3-1.74-3.37,0-.75,3.55.36,7.1-.34,10.63l3.43.46c-.05-3.32.89-8.44-1.7-11.06A1.77,1.77,0,0,0,97,5.44c-1,3.21-.48,6.52-.43,9.82,0,2.25,3.51,2.26,3.5,0s-.27-4.75-.32-7.14a8.74,8.74,0,0,0-1-4.74,1.77,1.77,0,0,0-3.19.42c-1.28,3.5-.75,7.1-.64,10.74a1.75,1.75,0,0,0,3.5,0c.08-3.65.65-8.6-1.73-11.7a1.78,1.78,0,0,0-3.19.42c-1.32,3.18,1,6.2.14,9.28H97c-.54-3.09-.6-6.5-2.34-9.21a1.76,1.76,0,0,0-3.26.88c0,2.63.72,5.32,0,7.89l3.19-.42C93.83,10,94.14,7.8,94.2,6H90.7c.08,1.92.51,3.87-.1,5.74L93.53,11C93,10.39,92.41,6.78,93,6.1c1.48-1.69-1-4.17-2.47-2.47Z"/><path d="M107.91,8.52c1-2.84,4.72-4.25,7.26-5.34,2.06-.88.28-3.9-1.76-3-3.6,1.54-7.46,3.51-8.87,7.43-.76,2.12,2.61,3,3.37.93Z"/><circle cx="93.97" cy="32" r="1.49"/><path d="M93.48,29.19c1.46-.18,3.46-.33,4.29,1.2,1.32,2.42-1.59,4.08-3.59,3.94a5.3,5.3,0,0,1-2.33-.49,1.89,1.89,0,0,1-.73-1.93,3.16,3.16,0,0,1,2.58-2.75c1.1-.25.63-1.94-.46-1.69a4.86,4.86,0,0,0-3.83,5.1c.14,2.9,2.83,3.63,5.42,3.55a4.79,4.79,0,0,0,4.87-5.32c-.45-3.06-3.66-3.68-6.23-3.36C92.38,27.58,92.36,29.33,93.48,29.19Z"/><path d="M78.59,29.19c1.46-.18,3.46-.33,4.29,1.2,1.32,2.42-1.59,4.08-3.59,3.94A5.3,5.3,0,0,1,77,33.85a1.89,1.89,0,0,1-.73-1.93,3.16,3.16,0,0,1,2.58-2.75c1.1-.25.63-1.94-.46-1.69a4.86,4.86,0,0,0-3.83,5.1c.14,2.9,2.83,3.63,5.42,3.55a4.79,4.79,0,0,0,4.87-5.32c-.45-3.06-3.66-3.68-6.23-3.36C77.49,27.58,77.47,29.33,78.59,29.19Z"/><circle cx="78.79" cy="32" r="1.49"/><path d="M92.68,22.48a2,2,0,0,0-1.48.39,1.46,1.46,0,0,0-.26,1.69c.46.8,1.65.78,2.44.62,1-.22,2.14-1.41,1.19-2.4a2.23,2.23,0,0,0-2.88-.08,1.15,1.15,0,0,0,.51,1.78A1.6,1.6,0,0,0,94,24.22a.89.89,0,0,0-.39-1.46l-.13,0a.88.88,0,0,0-1.08.61A.89.89,0,0,0,93,24.4l.13,0L92.79,23s.09,0,.12-.07,0,.05,0,0,.09.11,0,0,.22.49.17.19l-.22.85q.09-.1,0,0t0,0,0,0h.34l.08,0q.16.05,0,0,.1.07,0,0a.44.44,0,0,1-.1-.46q.2-.29.08-.17s0,0,0,0-.25.13-.12.08c0,0-.32.08-.21.07s-.09,0-.12,0h-.6q.15,0,0,0h0a.36.36,0,0,1,.23.19c.17.29,0,.31-.12.51s-.17,0,0,0a2.79,2.79,0,0,0,.37,0,.87.87,0,0,0,0-1.75Z"/><path d="M81.67,22.48a2,2,0,0,0-1.48.39,1.46,1.46,0,0,0-.26,1.69c.46.8,1.65.78,2.44.62,1-.22,2.14-1.41,1.19-2.4a2.23,2.23,0,0,0-2.88-.08,1.15,1.15,0,0,0,.51,1.78A1.6,1.6,0,0,0,83,24.22a.89.89,0,0,0-.39-1.46l-.13,0a.88.88,0,0,0-1.08.61A.89.89,0,0,0,82,24.4l.13,0L81.77,23s.09,0,.12-.07,0,.05,0,0,.09.11,0,0,.22.49.17.19l-.22.85q.09-.1,0,0t0,0,0,0h.34l.08,0q.16.05,0,0,.1.07,0,0a.44.44,0,0,1-.1-.46q.2-.29.08-.17s0,0,0,0-.25.13-.12.08c0,0-.32.08-.21.07s-.09,0-.12,0h-.6q.15,0,0,0h0a.36.36,0,0,1,.23.19c.17.29,0,.31-.12.51s-.17,0,0,0a2.79,2.79,0,0,0,.37,0,.87.87,0,0,0,0-1.75Z"/><path d="M84.89,31c-.33,1.39-1.09,4,.42,5a2,2,0,0,0,3.22-1.8.9.9,0,0,0-.64-.84h-.06c-1.1-.23-1.57,1.46-.46,1.69h.06l-.64-.84c0,.28-.11.57-.45.36s-.11-.64-.11-.84a9.5,9.5,0,0,1,.35-2.27c.26-1.09-1.43-1.56-1.69-.46Z"/><path d="M79.42,40c4.87-1.2,10.57-.86,15.55-.86a.87.87,0,0,0,0-1.75c-5.18,0-11-.31-16,.92-1.09.27-.63,2,.46,1.69Z"/><path d="M67.1,50.68c0-4.22-.59-13.21-.74-17.4s.08-8.26,2.43-11.93c4.56-7.13,14.53-9.1,22.35-9.1,2.13,0,4.54-.29,6.57.38a21.13,21.13,0,0,1,5.36,2.73,15.89,15.89,0,0,1,3.88,4.75c1,1.71,1.24,3.59,2,5.39a18.51,18.51,0,0,1,1.66,6.13c.13,1.53.61,3,.87,4.46a19.86,19.86,0,0,0,.81,4.53c.72,1.69,3.49,11.65,4.73,13,1.55,1.63,4-.84,2.47-2.47-.85-.89-3.29-10.37-3.81-11.5a14.3,14.3,0,0,1-.62-3.53c-.39-2.18-.8-4.23-1-6.43a16.54,16.54,0,0,0-1.71-5.11c-.9-2.09-1.18-4.22-2.38-6.2a19.65,19.65,0,0,0-9-8.09c-4-1.94-8.24-1.61-12.61-1.5-8,.19-17.67,3.57-22.32,10.47a20.39,20.39,0,0,0-3.25,11.73c.13,5,.85,14.75.84,19.74a1.75,1.75,0,0,0,3.5,0Z"/><path d="M86.12,41.71c-2.16-.26-3.32,1.84-2.8,3.75A2.73,2.73,0,0,0,85,47.4a3.06,3.06,0,0,0,2.93-.93l-1.37-.18A3.36,3.36,0,0,0,89,48.17a2.57,2.57,0,0,0,2.07-1c.87-1,1.64-3.31,0-4-1-.47-1.9,1-.88,1.51.08,0,.08.05,0,.34a2.16,2.16,0,0,1-.46,1c-.69.85-1.31.12-1.75-.6a.89.89,0,0,0-1.37-.18c-.75.66-1.48.75-1.7-.36-.18-.91.19-1.54,1.15-1.42,1.11.14,1.1-1.61,0-1.75Z"/><circle cx="157.36" cy="32" r="1.49"/><path d="M156.86,29.19c1.46-.18,3.46-.33,4.29,1.2,1.32,2.42-1.59,4.08-3.59,3.94a5.3,5.3,0,0,1-2.33-.49,1.89,1.89,0,0,1-.73-1.93,3.16,3.16,0,0,1,2.58-2.75c1.1-.25.63-1.94-.46-1.69a4.86,4.86,0,0,0-3.83,5.1c.14,2.9,2.83,3.63,5.42,3.55a4.79,4.79,0,0,0,4.87-5.32c-.45-3.06-3.66-3.68-6.23-3.36C155.76,27.58,155.74,29.33,156.86,29.19Z"/><path d="M142,29.19c1.46-.18,3.46-.33,4.29,1.2,1.32,2.42-1.59,4.08-3.59,3.94a5.3,5.3,0,0,1-2.33-.49,1.89,1.89,0,0,1-.73-1.93,3.16,3.16,0,0,1,2.58-2.75c1.1-.25.63-1.94-.46-1.69a4.86,4.86,0,0,0-3.83,5.1c.14,2.9,2.83,3.63,5.42,3.55a4.79,4.79,0,0,0,4.87-5.32c-.45-3.06-3.66-3.68-6.23-3.36C140.87,27.58,140.86,29.33,142,29.19Z"/><circle cx="142.17" cy="32" r="1.49"/><path d="M156.07,22.48a2,2,0,0,0-1.48.39,1.46,1.46,0,0,0-.26,1.69c.46.8,1.65.78,2.44.62,1-.22,2.14-1.41,1.19-2.4a2.23,2.23,0,0,0-2.88-.08,1.15,1.15,0,0,0,.51,1.78,1.6,1.6,0,0,0,1.83-.27.89.89,0,0,0-.39-1.46l-.13,0a.88.88,0,0,0-1.08.61.89.89,0,0,0,.61,1.08l.13,0L156.17,23s.09,0,.12-.07,0,.05,0,0,.09.11,0,0,.22.49.17.19l-.22.85q.09-.1,0,0t0,0,0,0h.34l.08,0q.16.05,0,0,.1.07,0,0a.44.44,0,0,1-.1-.46q.2-.29.08-.17s0,0,0,0-.25.13-.12.08c0,0-.32.08-.21.07s-.09,0-.12,0h-.6q.15,0,0,0h0a.36.36,0,0,1,.23.19c.17.29,0,.31-.12.51s-.17,0,0,0a2.79,2.79,0,0,0,.37,0,.87.87,0,0,0,0-1.75Z"/><path d="M145,22.48a2,2,0,0,0-1.48.39,1.46,1.46,0,0,0-.26,1.69c.46.8,1.65.78,2.44.62,1-.22,2.14-1.41,1.19-2.4a2.23,2.23,0,0,0-2.88-.08,1.15,1.15,0,0,0,.51,1.78,1.6,1.6,0,0,0,1.83-.27.89.89,0,0,0-.39-1.46l-.13,0a.88.88,0,0,0-1.08.61.89.89,0,0,0,.61,1.08l.13,0L145.16,23s.09,0,.12-.07,0,.05,0,0,.09.11,0,0,.22.49.17.19l-.22.85q.09-.1,0,0t0,0,0,0h.34l.08,0q.16.05,0,0,.1.07,0,0a.44.44,0,0,1-.1-.46q.2-.29.08-.17s0,0,0,0-.25.13-.12.08c0,0-.32.08-.21.07s-.09,0-.12,0h-.6q.15,0,0,0h0a.36.36,0,0,1,.23.19c.17.29,0,.31-.12.51s-.17,0,0,0a2.79,2.79,0,0,0,.37,0,.87.87,0,0,0,0-1.75Z"/><path d="M148.28,31c-.33,1.39-1.09,4,.42,5a2,2,0,0,0,3.22-1.8.9.9,0,0,0-.64-.84h-.06c-1.1-.23-1.57,1.46-.46,1.69h.06l-.64-.84c0,.28-.11.57-.45.36s-.11-.64-.11-.84a9.5,9.5,0,0,1,.35-2.27c.26-1.09-1.43-1.56-1.69-.46Z"/><path d="M142.8,40c4.87-1.2,10.57-.86,15.55-.86a.87.87,0,0,0,0-1.75c-5.18,0-11-.31-16,.92-1.09.27-.63,2,.46,1.69Z"/><path d="M130.48,50.68c0-4.22-.59-13.21-.74-17.4s.08-8.26,2.43-11.93c4.56-7.13,14.53-9.1,22.35-9.1,2.13,0,4.54-.29,6.57.38a21.13,21.13,0,0,1,5.36,2.73,15.89,15.89,0,0,1,3.88,4.75c1,1.71,1.24,3.59,2,5.39A18.51,18.51,0,0,1,174,31.62c.13,1.53.61,3,.87,4.46a19.86,19.86,0,0,0,.81,4.53c.72,1.69,3.49,11.65,4.73,13,1.55,1.63,4-.84,2.47-2.47-.85-.89-3.29-10.37-3.81-11.5a14.3,14.3,0,0,1-.62-3.53c-.39-2.18-.8-4.23-1-6.43a16.54,16.54,0,0,0-1.71-5.11c-.9-2.09-1.18-4.22-2.38-6.2a19.65,19.65,0,0,0-9-8.09c-4-1.94-8.24-1.61-12.61-1.5-8,.19-17.67,3.57-22.32,10.47a20.39,20.39,0,0,0-3.25,11.73c.13,5,.85,14.75.84,19.74a1.75,1.75,0,0,0,3.5,0Z"/><path d="M149.5,41.71c-2.16-.26-3.32,1.84-2.8,3.75a2.73,2.73,0,0,0,1.66,1.94,3.06,3.06,0,0,0,2.93-.93l-1.37-.18a3.36,3.36,0,0,0,2.44,1.88,2.57,2.57,0,0,0,2.07-1c.87-1,1.64-3.31,0-4-1-.47-1.9,1-.88,1.51.08,0,.08.05,0,.34a2.16,2.16,0,0,1-.46,1c-.69.85-1.31.12-1.75-.6a.89.89,0,0,0-1.37-.18c-.75.66-1.48.75-1.7-.36-.18-.91.19-1.54,1.15-1.42,1.11.14,1.1-1.61,0-1.75Z"/><path d="M153.37,30.48a6,6,0,0,0-2.27-1.21,5.41,5.41,0,0,0-3.86-.2,5.64,5.64,0,0,0-4.13,4.14c-1.31,4.92,4.26,6.44,7.92,5.26A5.94,5.94,0,0,0,155,35.29,4.37,4.37,0,0,0,153.37,30.48Z"/></g></svg>