<svg xmlns="http://www.w3.org/2000/svg" viewBox="0 0 481.08 141.79"><defs><style>.cls-1{fill:#040000;}.cls-2{fill:#f3eee8;}</style></defs><title>not late</title><g id="圖層_1" data-name="圖層 1"><path d="M224.07,4.86c23.73-.94,46.91-.2,70.69-1.2,28.64-1.2,56.75-.92,85.38,1.94,11.44,1.14,23.38,1.78,34.67,2.58,11,.78,22.77-2.34,31.87,5.32,8.68,7.3,11.5,18.87,13.46,29.33,1.54,8.18,5.16,23.48.77,30.8-7,11.64-28.44,7.76-39.48,7.22-13-.64-26.9-1.3-40,.13-28.51,3.1-56.91,2.62-85.58,1.4-26.09-1.1-51.81,2.26-77.76,3.28-22.62.89-45.77,5.42-66.49-4.7-18.19-8.89-21.07-54.6-9.19-70.11C142.43,10.85,198.18,5.89,224.07,4.86Z"/><path d="M224.07,7.86c25.5-1,51-.54,76.54-1.43a600.31,600.31,0,0,1,75.63,1.79c12.84,1.18,25.7,2.27,38.57,3,9.75.52,21.49-2.2,29.75,4.44s10.76,18.06,12.69,28c1.57,8.07,4.56,18,2.05,26.12-2.63,8.57-13.49,9.22-21,9.15-8.14-.07-16.28-1-24.41-1.4-25.17-1.06-50,2.61-75.2,2.81-25.36.21-50.62-1.85-76-.43-24.42,1.38-48.84,3.73-73.28,4.48-12.2.38-27.14.09-37.78-6.78-6.19-4-9.2-11.77-11-18.59C137,44.9,135.92,24.77,145,12.36l-2.59,1.49c27.16-2.42,54.39-4.88,81.64-6,3.84-.16,3.86-6.16,0-6C203.52,2.7,183,4.44,162.51,6.13c-6.36.53-12.79.84-19.12,1.63-5.66.71-7.77,9.07-9,13.88-4.32,16.88-3.12,39.67,7.28,54.27C148,84.85,159.35,88,169.76,89.46c14.88,2.13,29.86.16,44.77-.63,16.74-.89,33.44-2.18,50.17-3.06s33.09-.17,49.71.27c16.84.45,33.71.43,50.52-.64,16.45-1.06,32.47-2.61,49-1.91,15.68.67,48.3,7.88,51.73-14.94,1.65-11-1.62-23.83-4.33-34.49-2.85-11.22-8.72-23.17-20.42-27.18-5.93-2-12.33-1.72-18.5-1.6-7.65.14-15.3-.61-22.93-1.13C383,3,366.56,1.17,350,.49c-33.44-1.39-67,.6-100.41.85-8.52.06-17,.2-25.55.52C220.22,2,220.2,8,224.07,7.86Z"/><path d="M139.39,56.43c-2.07,7.52-12.88,12.1-18.52,16.84,8.59,0,17.64,1.43,24.38-5.27,6.19-6.15.65-9-5.93-11"/><path class="cls-1" d="M137.94,56c-2.62,7.82-12.13,11.35-18.13,16.18-1.06.85-.14,2.54,1.06,2.56,9.09.11,19.31,1.13,26-6.34,6.11-6.81-.86-10.83-7.17-12.89-1.84-.6-2.63,2.3-.8,2.89,3.09,1,7.5,2,7,6.37-.35,3-6.71,5.64-9.15,6.28-5.14,1.35-10.64.75-15.9.69l1.06,2.56c6.6-5.31,16-8.84,18.91-17.5.61-1.84-2.28-2.62-2.9-.8Z"/><path class="cls-2" d="M165,39.17h-2.29v4.27h1.86c.43,0,.65.27.65.82V46c0,.51-.22.77-.65.77h-1.86V52.3l2-.55q.86-.26,1,.33l.44,1.86c.12.54,0,.87-.33,1l-8.42,2.41a.63.63,0,0,1-.88-.44l-.55-1.75c-.18-.69,0-1.09.55-1.2l2.95-.77V46.72h-2.62c-.44,0-.66-.26-.66-.77V44.26c0-.55.22-.82.66-.82h2.62V39.17h-2.62c-.44,0-.66-.27-.66-.82v-1.8a.58.58,0,0,1,.66-.66H165c.44,0,.66.27.66.82V38.3Q165.63,39.17,165,39.17Zm15.21,11.16a1,1,0,0,1-1.1,1.09h-2.29v5.14c0,.37.14.55.43.55h.66q.38,0,.66-.66l.49-1.61a.63.63,0,0,1,.85-.52l1.8.41c.42.11.59.44.52,1a10,10,0,0,1-1.15,3.8,2,2,0,0,1-1.86.88h-3.83c-1.31,0-2-.8-2-2.3V51.42h-.65a9.07,9.07,0,0,1-2,5.78q-2.12,2.8-8.35,3.85a.7.7,0,0,1-.88-.44l-.65-2a.53.53,0,0,1,.43-.77c3-.63,5.12-1.46,6.27-2.47a5.44,5.44,0,0,0,1.83-4h-1.86a1,1,0,0,1-1.1-1.09V36.44c0-.81.37-1.21,1.1-1.21h11.59c.73,0,1.1.4,1.1,1.21ZM169.79,38.51v1.1h7v-1.1Zm0,4.27v1.09h7V42.78Zm0,4.27v1.09h7V47.05Z"/><path class="cls-2" d="M196.41,38.19c.18-.91.36-1.9.54-3,.1-.51.35-.73.77-.65l1.75.32q.87.2.87.66a11.69,11.69,0,0,1-.32,2.63h12.57c.52,0,.77.21.77.65v2a.68.68,0,0,1-.77.77H199a22.9,22.9,0,0,1-3,6.07l-.6.84V59.71c.06.6-.2.9-.76.9h-2c-.47,0-.71-.3-.71-.9v-7l-.85.91c-.54.6-.95.79-1.2.57L188,52.4a.76.76,0,0,1,0-1.14A38.83,38.83,0,0,0,192,47.07V44.89c0-.57.24-.85.71-.85H194a18.54,18.54,0,0,0,1.2-2.46H190c-.58,0-.87-.26-.87-.77v-2c0-.44.29-.65.87-.65Zm8.64,3.61c.49,0,.75.2.76.65v4.16h5.8a.77.77,0,0,1,.88.85v1.88c0,.44-.3.66-.88.66h-5.8v6.12h7.33c.46,0,.68.28.66.88v1.64c0,.62-.24.91-.77.87h-16.4c-.5,0-.75-.25-.77-.87V57c0-.6.27-.89.77-.88h5.68V50h-4.7c-.58,0-.87-.26-.87-.77V47.46a.76.76,0,0,1,.87-.85h4.7V42.45c0-.45.28-.67.77-.65Z"/><path class="cls-2" d="M245.23,57c.71,0,1,.33.88,1l-.22,1.56c-.07.51-.4.77-1,.77H229.81q-3.39-.23-4.59-2.44l-1.86,1.67c-.82.7-1.44.8-1.86.33l-1.2-1.67c-.24-.36-.1-.73.43-1.09a19.61,19.61,0,0,0,2.7-2.54,4.4,4.4,0,0,0,.69-2.68V48.08h-2.73c-.37,0-.55-.25-.55-.76V45.51c0-.51.18-.76.55-.76h4.7c.8,0,1.21.36,1.21,1.09v7.93A3.3,3.3,0,0,0,230.9,57ZM224.56,35.83l2.79,2.77a.72.72,0,0,1-.11,1.12l-1.07,1a.81.81,0,0,1-1.09,0l-2.84-2.78c-.42-.42-.45-.81-.09-1.15l1-.91A.93.93,0,0,1,224.56,35.83Zm20.48,8H228.63c-.52,0-.79-.24-.79-.73v-1c0-.51.25-.77.69-.77H245c.55,0,.82.25.82.74v1C245.86,43.62,245.59,43.87,245,43.87Zm-2.87.47c.75,0,1.11.34,1.09,1V48.8a1,1,0,0,1-1.09,1h-2.84A5.78,5.78,0,0,0,240.64,51l2.49-1.43a.81.81,0,0,1,1.09.22l.85,1.1c.25.32.18.6-.22.82l-1.7,1.06a8.4,8.4,0,0,0,2,1.12c.5.21.6.51.33.93l-1,1.23a.93.93,0,0,1-1.21.31,29.62,29.62,0,0,1-5.57-3.92v3.78c0,.36-.22.55-.66.55h-1.75c-.51,0-.77-.19-.77-.55v-2.9A20.94,20.94,0,0,1,230,55.36c-.48.14-.8.09-1-.17l-.88-1.45c-.38-.58-.35-1,.11-1.12A15.21,15.21,0,0,0,234,49.83h-3.28c-.73,0-1.1-.34-1.1-1V45.35c0-.67.37-1,1.1-1Zm.11-9.54c1,0,1.44.35,1.42,1.06v3.86c0,.75-.49,1.12-1.42,1.12H230.36c-1,0-1.42-.37-1.42-1.12V35.86c0-.71.47-1.06,1.42-1.06ZM231.89,37v1.48h1.42V37Zm.76,9.68v.74h7.55v-.74Zm3.07-8.2h1.42V37h-1.42ZM239.55,37v1.48h1.31V37Z"/><path class="cls-2" d="M264.75,34.9h1.64q.87,0,.87.66v.88h9.63c.43,0,.65.29.65.76V39c0,.51-.22.77-.65.77h-9.63v7.13a2.21,2.21,0,0,1,.55-.57,7.81,7.81,0,0,0,2.05-2.08,12.81,12.81,0,0,0,1.45-3.06c.14-.64.5-.9,1.06-.79l1.86.38c.51.07.7.54.55,1.39-.38.92-.67,1.61-.85,2.08a10.34,10.34,0,0,1,3.23,2.49,1,1,0,0,1,.11,1.37l-1.37,1.26a.88.88,0,0,1-1.15-.25,13.87,13.87,0,0,0-2.57-2,7.79,7.79,0,0,1-2.1,1.91,1.39,1.39,0,0,1-1.34,0l-1.4-1.32-.08-.08V48a20.34,20.34,0,0,0,10.09,7c.6.35.84.68.71,1l-1.31,2a1.13,1.13,0,0,1-1.4.24A24.71,24.71,0,0,1,267.26,53v6.89c0,.51-.29.77-.87.77h-1.64c-.66,0-1-.26-1-.77V53a22.36,22.36,0,0,1-8,5.5,1,1,0,0,1-1.29-.33L253.1,56c-.11-.39.23-.72,1-1A21.26,21.26,0,0,0,263.76,48V39.72h-9.62c-.44,0-.66-.26-.66-.77V37.28q0-.84.66-.84h9.62v-.88Q263.76,34.9,264.75,34.9ZM258.29,41a.71.71,0,0,1,1-.68l1.86.38c.51.07.69.54.55,1.39a4.27,4.27,0,0,1-1,2.08c.78.49,1.54,1,2.27,1.53a1.25,1.25,0,0,1,0,1.42l-1.12,1.37a.89.89,0,0,1-1.2-.11,17.76,17.76,0,0,0-2.19-1.36,7.79,7.79,0,0,1-2.1,1.91,1.39,1.39,0,0,1-1.34,0l-1.4-1.32c-.38-.36-.23-.82.47-1.39a10.35,10.35,0,0,0,2.7-2.53A11.42,11.42,0,0,0,258.29,41Z"/><path class="cls-2" d="M293.72,42.34a1.19,1.19,0,0,1,.11,1.31,12.18,12.18,0,0,1-2,2.19V59.3a.78.78,0,0,1-.9.87h-1.48c-.52,0-.79-.29-.79-.87V48.36a8.6,8.6,0,0,1-1.86,1.2.69.69,0,0,1-1.06-.33l-.77-1.53c-.27-.53-.1-1,.52-1.31a35.75,35.75,0,0,0,6.23-5.14.8.8,0,0,1,1.07.11ZM292,35.89l1.14,1.42A1,1,0,0,1,293,38.4a46.08,46.08,0,0,1-5.52,4.49.67.67,0,0,1-1-.22L285.46,41a.91.91,0,0,1,.44-1.2,25.81,25.81,0,0,0,5-4.16C291.33,35.36,291.69,35.43,292,35.89Zm17.41,9.41c.6,0,.86.23.77.76v1.86c0,.35-.24.53-.77.55h-2.29v.87h2.4a.68.68,0,0,1,.77.77v1.64a.68.68,0,0,1-.77.76h-2.4v4.27c0,1.77-.59,2.75-1.75,2.95a16.66,16.66,0,0,1-3.28.33c-.44.07-.7-.14-.77-.66l-.22-1.85c-.11-.53,0-.82.33-.88a15.22,15.22,0,0,0,1.75-.11,1.13,1.13,0,0,0,.66-1V52.51H293.55c-.51,0-.76-.26-.76-.79V50.11c0-.51.29-.77.87-.77h10.18v-.87H293.66c-.56,0-.85-.17-.87-.55V46.06a.75.75,0,0,1,.87-.76Zm-12.25,7.35a28.51,28.51,0,0,1,3.2,2.6c.31.35.34.65.08.93l-1,1.42c-.33.49-.63.59-.93.3-1.24-1-2.35-1.83-3.33-2.54-.33-.35-.36-.67-.08-1L296.21,53C296.5,52.51,296.82,52.41,297.16,52.65Zm11.27-16v6.24c0,1.17-.53,1.75-1.59,1.75H296.67c-1.13,0-1.69-.58-1.69-1.75V36.65c0-1,.56-1.47,1.69-1.47h10.17Q308.43,35.18,308.43,36.65Zm-10.06,1.21v.76h6.78v-.76Zm0,3.5V42h6.78v-.65Z"/><path class="cls-2" d="M319.19,39.17V37c0-.51.29-.76.88-.76h15.75c1.16,0,1.64.58,1.42,1.75l-1.1,5h4.38q1.26,0,.66,2.4a22,22,0,0,1-4.6,8.86,41.88,41.88,0,0,0,5.22,3c.59.28.68.72.28,1.32l-.85,1.26a.91.91,0,0,1-1.23.3,28.34,28.34,0,0,1-6.15-3.34,22.16,22.16,0,0,1-7.44,3.39c-.71.16-1.15.11-1.31-.16l-.93-1.86c-.33-.75-.17-1.19.49-1.32a15.21,15.21,0,0,0,6.13-2.35,19.34,19.34,0,0,1-4.6-5.36v2.3a11.33,11.33,0,0,1-1.83,5.14,12.5,12.5,0,0,1-4.18,3.58c-.73.39-1.26.33-1.59-.16l-1-1.4c-.23-.41-.08-.82.47-1.2a18,18,0,0,0,3.13-2.8,6.09,6.09,0,0,0,1.3-2.86,26.67,26.67,0,0,0,.27-4.24V39.72h-2.73C319.48,39.72,319.19,39.54,319.19,39.17Zm7,.55V42q3.56,7.44,7.55,10.29A14.3,14.3,0,0,0,337.35,46h-3c-1.62,0-2.24-.69-1.85-2.08l1-4.15Z"/><path class="cls-2" d="M362.44,34.58c.44,0,.65.25.65.76v.41h7c.52,0,.77.22.77.66v1.2c0,.49-.25.74-.77.74h-7v.55H373.7c.75.16,1.08.5,1,1l-.66,2.9c-.22.87-.54,1.25-1,1.12l-1.75-.49c-.44-.15-.59-.39-.44-.71l.22-1.07h-8.42v.71l6.23-.3c.44-.07.69.07.77.44l.22,1.42c0,.42-.26.66-.77.74l-6.45.3v.33c0,.21.18.32.54.32h6a1.13,1.13,0,0,0,1.09-.84.62.62,0,0,1,.77-.41l1.86.41c.29.12.36.41.22.84L372,47.78c-.25.31-.87.47-1.86.47h-9.4c-.88,0-1.31-.33-1.31-1V45.19l-3.83.11c-.44,0-.66-.18-.66-.52l-.11-1.56c0-.4.18-.6.55-.6l4.16-.14v-.82h-5.58V50.3c0,.66,0,1.29-.06,1.91A8.1,8.1,0,0,0,356,47.73c0-.2.18-.28.49-.25l2,.6a.41.41,0,0,1,.35.52l-.24.72h3.11a.25.25,0,0,1,.28.1l.63.41a.46.46,0,0,1,0,.52,13.27,13.27,0,0,1-1.77,5.55l.41.36c0-.15.06-.26.24-.36,1.12-.5,1.71-1.75,1.78-3.74V49.62c0-.51.31-.77.93-.77h5.85c.57,0,.85.26.85.77V53.8c0,.29.18.43.55.41H372c.2,0,.32-.41.35-1.12,0-.29.16-.44.36-.44l2,.3c.35.06.47.29.38.69l-.35,2.26c-.26.73-1.06,1.1-2.41,1.1h-1.61c-1.84,0-2.75-.47-2.74-1.53V51.69h-1.8v.85q-.17,3.32-2.13,4.6a1.49,1.49,0,0,1-.47.13c.68.06,1.63.08,2.87.08h7.91c.47,0,.68.15.62.44L374.25,60a1.16,1.16,0,0,1-1,.3h-8a15.74,15.74,0,0,1-2.9-.21,12.17,12.17,0,0,1-4-1.81,9.7,9.7,0,0,1-3.39,2,.92.92,0,0,1-.87-.11l-1.73-1.34-.19.38c-.33.62-.66.85-1,.69l-1.67-.69c-.62-.27-.73-.75-.33-1.45a8,8,0,0,0,1-2.4,25.11,25.11,0,0,0,.44-5.06V39.69c0-.53.29-.79.87-.79h8.31V35.34a.68.68,0,0,1,.77-.76Zm-9.6,23.49a8.7,8.7,0,0,0,3.42-1.89A7.26,7.26,0,0,1,355.14,55a.67.67,0,0,1-.14-.19l-.38.27a1.31,1.31,0,0,1-.9.06l-.17-.17a16.5,16.5,0,0,1-.82,3.09Zm5.58-3.83a4.21,4.21,0,0,0,1.09-2.49h-1.77a9.31,9.31,0,0,1-.66,1A8.15,8.15,0,0,0,358.42,54.24Z"/><path class="cls-2" d="M382.12,39.42c0-.4.28-.6.84-.58h9.35v-3a.78.78,0,0,1,.88-.88h2.05c.51,0,.76.3.74.88v3h9.95c.51,0,.77.18.77.58v2.43c0,.31-.3.46-.9.44H391v2.9h11.59c.9,0,1.33.46,1.32,1.5a40.47,40.47,0,0,1-.33,9.41,4.21,4.21,0,0,1-1.36,2.57,12.12,12.12,0,0,1-2.83,1.47c-.63.26-1.07.26-1.31,0l-1.5-1.66c-.57-.75-.42-1.24.44-1.48,1.76-.35,2.76-1,3-1.86a17,17,0,0,0,.3-6,.48.48,0,0,0-.55-.54H391a17,17,0,0,1-1,5.14,11.91,11.91,0,0,1-1.78,2.84A25,25,0,0,1,385,59.62q-.76.42-1.2,0l-1.69-1.47a.81.81,0,0,1,.1-1.23c1.15-1,2.07-1.77,2.77-2.46a8.89,8.89,0,0,0,1.79-2.81q.75-1.76.75-9.36h-4.59c-.55,0-.82-.13-.82-.44Z"/><path class="cls-2" d="M420.5,35.23c.34.11.38.38.1.8h5c.36,0,.54.17.54.52v1.77c1-1.44,1.81-2.62,2.41-3.55.16-.26.53-.28,1.09-.08l1.64.54c.31.09.35.36.11.8h6.35c.43,0,.65.17.65.52v1.77c0,.4-.22.6-.65.6h-4l.66,1.54c.16.4.05.63-.33.71l-2,.41c-.46.05-.75-.09-.88-.41l-.87-2.25h-.66a35.21,35.21,0,0,1-2.29,3c-.44.56-.92.69-1.43.38l-1.42-1c-.29-.17-.29-.43,0-.79l1.21-1.54h-2.52l.44,1.54q.21.74-.33.84l-1.75.36c-.55.07-.88-.06-1-.41l-.87-2.33h-.33a13,13,0,0,1-2.95,3.89,1.16,1.16,0,0,1-1.31,0l-1.32-1c-.25-.15-.22-.39.11-.74a18.5,18.5,0,0,0,3.61-5.88c.18-.58.58-.75,1.18-.52Zm-6.59,12.23V46c0-.4.18-.59.54-.58h14.08V41.74c0-.49.23-.74.63-.74H431c.35,0,.52.27.52.8v3.6h7c.4,0,.6.16.6.47v1.78a.43.43,0,0,1-.49.49h-7a13.56,13.56,0,0,0,1.2,5A11.12,11.12,0,0,0,434.58,49c0-.23.19-.34.52-.3L437,49q.47.09.3.93a16.35,16.35,0,0,1-2.76,6.13c.64,1,1.08,1.28,1.34.87a4.46,4.46,0,0,0,1-2.07c0-.28.27-.3.71-.09l1.56.63c.37.15.45.53.25,1.15a14.46,14.46,0,0,1-2,3.77c-.4.44-1.16.47-2.27.09a9.39,9.39,0,0,1-2.79-2A12.07,12.07,0,0,1,428,60.85c-.54.15-.92.06-1.12-.27l-1.09-1.91c-.13-.24.09-.44.65-.6a11.73,11.73,0,0,0,4.19-2.38q-1.43-2.16-2.14-7.55H414.45C414.09,48.14,413.91,47.91,413.91,47.46Zm1.17,10a65.68,65.68,0,0,0,10.5-1.34c.42,0,.65.1.68.39l.33,1.47q0,.2-.57.36a76.62,76.62,0,0,1-9.85,2.35.65.65,0,0,1-.73-.33l-1-2.29C414.23,57.7,414.46,57.5,415.08,57.46Zm.06-8.66H420c.44,0,.66.16.66.49v.93c0,.29-.22.43-.66.43h-4.86c-.5,0-.74-.14-.74-.43v-.93C414.4,49,414.64,48.8,415.14,48.8Zm0,2.54H420c.44,0,.66.16.66.49v.93c0,.29-.22.44-.66.44h-4.86c-.5,0-.74-.15-.74-.44v-.93C414.4,51.5,414.64,51.34,415.14,51.34Zm0,2.46H420c.44,0,.66.16.66.49v.93c0,.29-.22.44-.66.44h-4.86c-.5,0-.74-.15-.74-.44v-.93C414.4,54,414.64,53.8,415.14,53.8Zm2.78-12.72c0-.3.23-.46.69-.46l1.45.14a.54.54,0,0,1,.57.71c-.09.47-.16.85-.22,1.12a3.3,3.3,0,0,1,1.92,1.17.34.34,0,0,1,0,.41l-1.29,1a.45.45,0,0,1-.57-.11,3.53,3.53,0,0,0-.93-.52,6.78,6.78,0,0,1-1.29,1.67,1,1,0,0,1-1.06.13l-1.43-.73c-.16-.09-.14-.28.06-.55a8.51,8.51,0,0,0,1.54-2A5.42,5.42,0,0,0,417.92,41.08Zm.66,16.38V48a.64.64,0,0,1,.74-.71h.93c.53,0,.79.24.79.71v9.46c.06.48-.21.71-.79.71h-.93C418.83,58.17,418.58,57.94,418.58,57.46Zm5-16.29c0-.31.22-.46.66-.44l1.48.08c.38,0,.55.27.51.74a9.5,9.5,0,0,1-.16,1.12A3.07,3.07,0,0,1,428,43.85c.11.18.11.32,0,.43l-1.26,1a.46.46,0,0,1-.54-.08,3.53,3.53,0,0,0-.93-.52,9.18,9.18,0,0,1-1.29,1.67.89.89,0,0,1-1.09.08l-1.43-.71c-.18-.09-.16-.27.06-.52a10,10,0,0,0,1.54-2A5.21,5.21,0,0,0,423.61,41.17ZM422,57.05V48a.63.63,0,0,1,.71-.71h1c.51,0,.76.24.76.71v9c.06.46-.2.69-.76.69h-1A.62.62,0,0,1,422,57.05Zm1.42-8.25h4.27c.43,0,.65.16.65.49v.93c0,.29-.22.43-.65.43h-4.27c-.47,0-.71-.14-.71-.43v-.93C422.71,49,423,48.8,423.42,48.8Zm0,2.54h4.27c.43,0,.65.16.65.49v.93c0,.31-.22.47-.65.47h-4.27c-.47,0-.71-.18-.71-.47v-.93C422.71,51.5,423,51.34,423.42,51.34Zm.14,2.46h4.24c.43,0,.65.16.65.49v.93c0,.29-.22.44-.65.44h-4.24c-.49,0-.74-.15-.74-.44v-.93C422.82,54,423.07,53.8,423.56,53.8ZM433.62,45a4.36,4.36,0,0,0-1.23-1.77q-.43-.39.27-.66l1.48-.55a.79.79,0,0,1,.85.28A4.09,4.09,0,0,1,436.14,44c.12.36.08.6-.14.71l-1.48.49C434.05,45.37,433.75,45.29,433.62,45Z"/><path class="cls-2" d="M58,4.92C42.86,4.27,26.32,15.6,21,25.57c-6.92,13-9.16,28.67-2.48,42.24C28.1,87.24,54.69,97,74.73,90.05,99,81.61,108.32,52.48,98.05,29.48,98.05,29.48,91.27,6.35,58,4.92Z"/><path d="M58,1.92C46.19,1.71,34.72,7,26,14.75c-8.47,7.6-12.95,18.89-14.2,30.06C9.24,68.1,25,87.38,47,93.38,67.08,98.88,88.79,91.72,99.11,73c8-14.57,7.51-31.73.9-46.7C92.77,9.91,74.83,2.84,58,1.92c-3.86-.21-3.84,5.79,0,6,13.73.74,27.94,5.78,35.22,18.19a46.87,46.87,0,0,1,4.74,33.5c-4.33,17.69-19.42,30-37.77,29.67-18.94-.31-38.22-12.56-42-31.94-2.23-11.5.94-26.09,8.78-35C34.57,13.66,46.35,7.71,58,7.92,61.82,8,61.83,2,58,1.92Z"/><circle cx="55.59" cy="54.43" r="1.95"/><path d="M56.24,48.31c-3.57-.44-7.92.54-8.5,4.76s2.79,7.18,6.73,7.31c3.59.12,7.25-1,7.44-5a6.71,6.71,0,0,0-5.27-7c-1.88-.44-2.68,2.46-.8,2.89a3.9,3.9,0,0,1,3.12,3,3.78,3.78,0,0,1-.3,2.26c-.59.77-2.49.79-3.38.86C52.93,57.51,50,56,50.8,53.22c.67-2.36,3.49-2.15,5.44-1.91S58.13,48.55,56.24,48.31Z"/><path d="M75.7,48.31c-3.56-.44-7.92.54-8.49,4.76s2.79,7.18,6.72,7.31c3.6.12,7.26-1,7.45-5a6.72,6.72,0,0,0-5.28-7c-1.88-.44-2.68,2.46-.79,2.89a3.66,3.66,0,0,1,2.82,5.22c-.59.77-2.49.79-3.39.86-2.34.17-5.26-1.33-4.47-4.12.67-2.36,3.49-2.15,5.43-1.91S77.6,48.55,75.7,48.31Z"/><circle cx="75.44" cy="54.43" r="1.95"/><path d="M57.28,44.82h.43c.28,0,.12,0-.07-.05a.79.79,0,0,1-.37-1.2l.37-.36.12,0c-.3.06.31,0,0,0h-.32l-.31,0s-.42,0-.15,0-.12,0-.17-.06l.08,0a.72.72,0,0,1-.21-.12l.12.1c-.19-.2-.13-.08.15.33l-.1.81c-.29.25-.35.33-.18.23-.28.23-.15,0,0,0H57l-.16,0c.32.27-.37-.39-.15-.11l-.39-1.46c-.06.34.41-.48.43-.49-.15.14,0,0,.14,0s-.12,0,.07,0a.81.81,0,0,1,.41.19l-.66,2.51L56.9,45a1.5,1.5,0,1,0-.8-2.89l-.17.07a1.51,1.51,0,0,0-.66,2.5c1.26,1.3,4,.59,4-1.4s-2.87-2.13-4.14-1.43a2.09,2.09,0,0,0-1.1,2.35,2.77,2.77,0,0,0,1.78,1.69,4,4,0,0,0,3.55-.28,2.16,2.16,0,0,0,.4-2.8,2.6,2.6,0,0,0-2.5-1,1.5,1.5,0,0,0,0,3Z"/><path d="M71.68,44.82h.43c.28,0,.12,0-.06-.05a.79.79,0,0,1-.37-1.2l.37-.36.11,0c-.3.06.32,0,0,0h-.32l-.3,0s-.42,0-.16,0-.11,0-.17-.06l.08,0L71.07,43l.12.1c-.18-.2-.13-.08.16.33l-.1.81c-.29.25-.35.33-.18.23-.29.23-.16,0,0,0h.35l-.15,0c.31.27-.38-.39-.16-.11l-.38-1.46c-.07.34.41-.48.42-.49-.15.14,0,0,.15,0s-.13,0,.06,0a.78.78,0,0,1,.41.19l-.66,2.51L71.3,45a1.53,1.53,0,0,0,1-1.84,1.52,1.52,0,0,0-1.85-1l-.17.07a1.52,1.52,0,0,0-.66,2.5c1.26,1.3,4,.59,4-1.4s-2.86-2.13-4.14-1.43a2.1,2.1,0,0,0-1.1,2.35,2.77,2.77,0,0,0,1.79,1.69,3.94,3.94,0,0,0,3.54-.28,2.15,2.15,0,0,0,.4-2.8,2.6,2.6,0,0,0-2.5-1,1.5,1.5,0,0,0,0,3Z"/><path d="M64.91,54a12.18,12.18,0,0,1,.45,2.88c0,.24,0,.48,0,.72s0,.24.13,0a2.64,2.64,0,0,1-.4,0c.23.27.32.22.27-.14L64.25,59l.08,0c1.89-.39,1.09-3.28-.8-2.89l-.08,0a1.52,1.52,0,0,0-1.1,1.44c-.31,2.59,2.69,4,4.74,2.66s1.19-5,.72-7-3.34-1.08-2.9.8Z"/><path d="M21.63,70.51c1.82-1.93,3.91-4.07,4.77-6.65.77-2.31.63-4.9,1.2-7.3,1.42-6,2.06-12.3,5-17.94,6.67-12.95,21.93-12.11,34.17-9,6,1.52,12.2,5,15.42,10.42,3.64,6.19,2.79,13.15,2.11,19.94-.74,7.33.63,14.92.71,22.27,0,3.86,6,3.87,6,0,0-4.62-.4-9.25-.61-13.87-.27-5.61.48-11,.57-16.58C91.14,38.5,82.51,28,69.88,24.27,58.29,20.83,42.7,19.07,33,28c-5.07,4.7-6.71,10.93-9.27,17-3,7-.82,15.3-6.37,21.2-2.65,2.81,1.59,7.06,4.24,4.24Z"/><path d="M65.86,70a2,2,0,0,1,.88,0,.69.69,0,0,1,.12.16A1.9,1.9,0,0,1,67,71.38a1.65,1.65,0,0,1-.25.65.53.53,0,0,1-.27.26s-.06,0-.17,0a2.85,2.85,0,0,1-.93-.57A1.52,1.52,0,0,0,63,72c-.26.43-.66,1.07-1.11,1.17.07,0-.07,0-.2-.07a1.53,1.53,0,0,1-.38-.35,2.92,2.92,0,0,1-.53-1.16c0,.14,0-.06,0-.1-.07-.24,0,0,0,0s.21-.15-.06,0c-.06,0-.29.2,0,.07,1.75-.8.22-3.39-1.52-2.59-2.32,1.08-1.28,4.4,0,5.86a3.69,3.69,0,0,0,3,1.36c1.6-.09,2.72-1.37,3.5-2.65l-2.35.31c1.15,1,2.61,1.81,4.18,1.31a3.92,3.92,0,0,0,2.42-2.79c.72-2.7-1-5.73-4-5.36a1.55,1.55,0,0,0-1.5,1.5,1.5,1.5,0,0,0,1.5,1.5Z"/><path class="cls-2" d="M60.93,35.94c-4.48-1.09-10-1.82-10-7.5-.11-6.25,2.9-12.57,9-14.62,5.05-1.69,13.42.69,16.56,5.07,3.44,4.81.92,11.85-3.63,14.92C72.86,33.81,67.28,37.48,60.93,35.94Z"/><path d="M61.73,33.05c-1.85-.44-4.34-.65-5.95-1.73-2.64-1.76-2-5.31-1.12-8,2-5.8,7.13-8,12.84-6.54,5.53,1.41,9.75,6,6.28,11.71-2.46,4-7.62,5.33-12.05,4.54-3.78-.68-5.39,5.1-1.59,5.78,7.74,1.39,16.15-1.26,19.59-8.82,4.06-8.93-1.92-16.7-10.63-19s-17,1.52-20,10.11c-1.31,3.7-2,8.75.21,12.25,2.34,3.66,6.94,4.54,10.86,5.46C63.89,39.72,65.49,33.93,61.73,33.05Z"/><path d="M64,29.9c3.59.25,6.69-2.12,6.13-5.95-.45-3.09-3-4.53-5.87-4.47A5,5,0,0,0,59,24.15c-.26,2.9,2,4.91,4.57,5.7,1.85.56,2.64-2.33.79-2.89-1-.31-2.28-1-2.41-2.16A2,2,0,0,1,64,22.48c.2,0,1.37.05.69,0,.9.07,1.68.16,2.16,1C68.15,25.82,66,27,64,26.9S62,29.77,64,29.9Z"/><path class="cls-2" d="M66.25,60.15c4.65,0,8.51,3,10.78,7-3.09,1-9.36-1.9-12.48-1.77-5.31.22-8,1.32-11.47,2.46-.16-3.35,3.06-6.28,6.42-7.89,1.78-.85,5.66-1.89,6.75.58"/><path d="M66.25,61.65c4.3.29,7.27,2.68,9.49,6.26l.9-2.2c-4,.78-8.06-1.76-12.09-1.82s-8.06,1.23-11.87,2.51l1.9,1.45c.17-2.28,7.47-10.75,10.38-6.56,1.09,1.58,3.69.08,2.59-1.51-4.75-6.85-15.51,2.06-16,8.07a1.51,1.51,0,0,0,1.9,1.45c4.46-1.5,9.05-3,13.8-2,3.41.67,6.64,2,10.15,1.33a1.51,1.51,0,0,0,.9-2.2c-2.8-4.53-6.67-7.38-12.08-7.75-1.92-.14-1.91,2.87,0,3Z"/><path d="M2.17,129.36c15.67,2.78,31.72.14,47.55,0,9.81-.09,19.62-.11,29.44-.14q49.79-.14,99.57-.11,61.82,0,123.63,0l111.14.1,62.15.06h2.53c3.86,0,3.87-6,0-6q-26.67,0-53.34,0l-106.45-.1q-62,0-124.07,0-52.23,0-104.45.08c-20,0-40-.33-59.88.87-8.73.53-17.57,1-26.23-.49-3.77-.67-5.39,5.11-1.59,5.78Z"/><path d="M2.17,140.52c15.67,2.78,31.72.14,47.55,0q14.72-.12,29.44-.13,49.79-.15,99.57-.11,61.82,0,123.63,0l111.14.09,62.15.07h2.53c3.86,0,3.87-6,0-6q-26.67,0-53.34,0-53.23-.06-106.45-.1-62,0-124.07-.05-52.23,0-104.45.08c-20,0-40-.33-59.88.87-8.73.53-17.57,1-26.23-.5-3.77-.67-5.39,5.12-1.59,5.79Z"/></g></svg>