<svg xmlns="http://www.w3.org/2000/svg" viewBox="0 0 481.08 141.79"><defs><style>.cls-1{fill:#040000;}.cls-2{fill:#f3eee8;}</style></defs><title>receipe-title</title><g id="圖層_1" data-name="圖層 1"><path d="M224.07,4.86c23.74-.94,46.92-.2,70.69-1.2,28.64-1.2,56.76-.92,85.39,1.94,11.43,1.14,23.37,1.79,34.67,2.58,11,.78,22.77-2.34,31.87,5.32,8.68,7.3,11.5,18.87,13.47,29.33,1.54,8.18,5.15,23.49.76,30.8-7,11.64-28.43,7.76-39.48,7.22-13-.63-26.89-1.29-40,.13-28.51,3.1-56.9,2.62-85.58,1.41-26.09-1.11-51.8,2.26-77.76,3.28-22.62.89-45.77,5.42-66.49-4.7-18.19-8.89-21.07-54.6-9.2-70.11C142.43,10.85,198.18,5.89,224.07,4.86Z"/><path d="M224.07,7.86c25.5-1,51-.54,76.54-1.43a599,599,0,0,1,75.64,1.79c12.84,1.18,25.69,2.26,38.57,3,9.75.52,21.49-2.19,29.75,4.44s10.77,18.06,12.69,28c1.56,8.07,4.55,18,2.05,26.12-2.64,8.57-13.49,9.21-21,9.15-8.14-.07-16.28-1.05-24.42-1.4-25.16-1.06-50,2.6-75.2,2.81-25.35.21-50.61-1.86-76-.43-24.42,1.37-48.84,3.73-73.28,4.48-12.2.38-27.14.08-37.78-6.79-6.19-4-9.2-11.77-11-18.59C137,44.9,135.92,24.77,145,12.36l-2.59,1.49c27.16-2.41,54.39-4.87,81.64-6,3.85-.16,3.87-6.16,0-6C203.52,2.7,183,4.44,162.51,6.13c-6.36.53-12.79.84-19.11,1.63-5.67.71-7.78,9.07-9,13.88-4.32,16.87-3.12,39.67,7.28,54.27C148,84.85,159.35,88,169.76,89.46c14.89,2.13,29.87.17,44.78-.63,16.73-.89,33.44-2.17,50.17-3.06s33.09-.17,49.71.28c16.84.45,33.71.43,50.53-.65,16.45-1.05,32.46-2.6,49-1.9,15.69.66,48.3,7.88,51.73-14.94,1.66-11-1.61-23.83-4.32-34.49-2.85-11.22-8.72-23.17-20.42-27.18-5.93-2-12.33-1.72-18.5-1.6-7.65.14-15.3-.61-22.93-1.13C383,3,366.56,1.17,350,.49c-33.44-1.39-67,.6-100.42.85-8.52.06-17,.2-25.55.52C220.22,2,220.2,8,224.07,7.86Z"/><path d="M139.39,56.43c-2.08,7.52-12.88,12.1-18.52,16.84,8.59,0,17.64,1.43,24.38-5.27,6.19-6.15.65-9-5.93-11"/><path class="cls-1" d="M137.94,56c-2.63,7.82-12.13,11.35-18.14,16.18-1.06.85-.14,2.55,1.06,2.56,9.09.11,19.31,1.13,26-6.34,6.11-6.81-.86-10.83-7.17-12.89-1.84-.6-2.63,2.3-.8,2.89,3.1,1,7.5,2,7,6.37-.35,3-6.71,5.64-9.15,6.28-5.15,1.35-10.65.75-15.91.69l1.06,2.56c6.61-5.31,16-8.84,18.91-17.5.62-1.83-2.28-2.62-2.89-.8Z"/><path class="cls-2" d="M160.68,38.5q-1.43,0-2.38.08t-1.76.17V36.94q.9.11,2,.17t2.81.06q1.68,0,2.81-.06t2-.17v1.82q-.73-.11-1.62-.17t-2.16-.08v6a21.07,21.07,0,0,0,3.33-.25V46.2a9.52,9.52,0,0,0-1.44-.2q-.83-.06-1.89-.08V53q1.06-.28,2-.57t1.78-.6a5,5,0,0,0,0,.91,2.75,2.75,0,0,0,.2.85q-1.76.36-3.12.7l-2.49.64q-1.13.31-2.11.63t-2,.69a5.28,5.28,0,0,0-.76-2,47,47,0,0,0,4.76-.81v-7.5q-1.18,0-2.13.08a10.67,10.67,0,0,0-1.6.2V44.27a14.34,14.34,0,0,0,1.6.17q1,.06,2.13.08Zm11.51,13.3a13.79,13.79,0,0,1-.64,3.14,6,6,0,0,1-1.36,2.2,8.73,8.73,0,0,1-2.41,1.68A35,35,0,0,1,164,60.37a3.36,3.36,0,0,0-.52-.91,5.64,5.64,0,0,0-.94-.83,16.11,16.11,0,0,0,3.36-.69,8,8,0,0,0,2.51-1.3,5.53,5.53,0,0,0,1.58-2,6.63,6.63,0,0,0,.56-2.84q-1.18,0-1.93,0c-.5,0-1,.07-1.34.13q.06-.48.1-1.32t0-1.68v-9.3q0-.84-.06-1.74c0-.6-.07-1-.08-1.26l.94.1,1.22.07,1.65,0h4.54l1.65,0,1.2-.07,1-.1a11.94,11.94,0,0,0-.08,1.26q0,.9,0,1.74V49q0,.84,0,1.61t.08,1.41c-.39-.06-.83-.1-1.3-.14s-1.08-.06-1.81-.06v4.68a6.2,6.2,0,0,0,0,.81.81.81,0,0,0,.21.48A.87.87,0,0,0,177,58a4.84,4.84,0,0,0,.84.06,3.94,3.94,0,0,0,1-.11,1.26,1.26,0,0,0,.66-.42,1.94,1.94,0,0,0,.36-.84,10.1,10.1,0,0,0,.17-1.34,3.48,3.48,0,0,0,.94.56,2.16,2.16,0,0,0,.88.06,12.21,12.21,0,0,1-.49,1.86,2.81,2.81,0,0,1-.71,1.12,2.35,2.35,0,0,1-1.12.55,8.65,8.65,0,0,1-1.71.14,9.82,9.82,0,0,1-1.51-.1,2.35,2.35,0,0,1-1-.36,1.41,1.41,0,0,1-.53-.71,3.49,3.49,0,0,1-.15-1.12V51.8Zm5.46-13.44h-8.57v3.11h8.57Zm0,4.54h-8.57v2.91h8.57Zm0,4.31h-8.57V50.4h8.57Z"/><path class="cls-2" d="M197.53,40.07l-4.06.07q-1.79,0-3.25.15v-1.9q1.54.11,3.46.17l4.38.11a21.69,21.69,0,0,0,1-4.17,7.85,7.85,0,0,0,1.18.6,1.81,1.81,0,0,0,.9.13c.3,0,.46,0,.49.22s-.11.36-.41.53a1,1,0,0,0-.27.24,4.3,4.3,0,0,0-.31.45,7.14,7.14,0,0,0-.41.78q-.22.49-.5,1.22h9.37l1,0,1.27-.08,1.67-.14v1.9l-1.75-.12L210,40.1l-.94,0h-9.86a26.92,26.92,0,0,1-1.53,3.15,24.63,24.63,0,0,1-1.83,2.73v8.74q0,.92,0,2.24t.11,3.16h-2q.08-1.85.13-3.16t0-2.24V47.88q-.84.9-1.88,1.86T190,51.8a2.24,2.24,0,0,0-.56-1.12,2.86,2.86,0,0,0-1.15-.56,26.07,26.07,0,0,0,5.63-4.48A19.42,19.42,0,0,0,197.53,40.07Zm8.15,7.53q2,0,3.42-.08t2.55-.2v1.9q-1.15-.14-2.55-.2T205.67,49v7.67q2.66,0,4.72-.07t3.57-.21v1.88q-3.11-.25-8.79-.25-2.83,0-4.89.06t-3.6.2V56.37q1.4.14,3.14.2t4.09.08V49q-1.79,0-3.28.11t-2.63.22v-2q1.18.14,2.55.2t3.36.08q0-2-.08-3.36t-.17-1.9a6.64,6.64,0,0,0,1.12.22,5.5,5.5,0,0,0,1.12,0,.37.37,0,0,1,.43.25q.1.28-.32.53a.72.72,0,0,0-.25.43,4.79,4.79,0,0,0-.08,1.08Z"/><path class="cls-2" d="M224.83,56.34a10.87,10.87,0,0,1-1.09,1.58q-.62.74-1.43,1.55a4.06,4.06,0,0,0-1.4-1.15,20.51,20.51,0,0,0,1.75-1.57A9.29,9.29,0,0,0,224.91,53a19.24,19.24,0,0,0,.67-2.83h-1.23q-.64,0-1.06,0a5.26,5.26,0,0,0-1.09.27q-.14-.48-.22-.81a2.18,2.18,0,0,0-.31-.67,2.19,2.19,0,0,0,.81-.36,3.2,3.2,0,0,0,.64-.84l1.79-3.53H223.4l-1,0q-.53,0-1.29.11V42.68a12.73,12.73,0,0,0,1.37.14q.64,0,1.6,0a22.93,22.93,0,0,0,3.14-.17L224,48.86h2.52a7.71,7.71,0,0,0,.87-.07q-.53,2.18-1,3.7a22.78,22.78,0,0,1-1,2.66,10.76,10.76,0,0,0,3,1.65,17.63,17.63,0,0,0,4.13.92,42.81,42.81,0,0,0,5.63.22q3.22-.06,7.5-.45a6.45,6.45,0,0,0-.55,1.12,3.56,3.56,0,0,0-.15.9q-4.51.11-7.69,0a42.4,42.4,0,0,1-5.46-.45,18.65,18.65,0,0,1-3.93-1A14.07,14.07,0,0,1,224.83,56.34Zm.39-15.15q-.34-.62-.64-1.12t-.63-1l-.67-1q-.35-.5-.8-1.09l1.18-.84q.73.9,1.48,1.93t1.48,2.1Zm16.88,8,0-.07,0-.07a3.93,3.93,0,0,0,1.37.9c.24.09.35.21.32.35s-.18.23-.46.27l-.32.1a2.44,2.44,0,0,0-.5.31l-.85.66q-.53.42-1.37,1.12.81.56,1.71,1.22l2.1,1.55-1.06,1.12a15.52,15.52,0,0,0-1.36-1.18q-.85-.67-1.86-1.41t-2.09-1.47q-1.08-.73-2.06-1.34l.78-1,1.46.91,1.46.94q.53-.48.92-.85l.69-.69q.29-.31.5-.57c.14-.18.27-.36.41-.55l-1.19-.08-1.25-.06q-.7,0-1.64,0h-2.31l-.69.69-.63.63v3.11q0,.9,0,1.64t.13,1.64h-1.76q.11-.9.15-1.65t0-1.62V51.89q-.87.64-1.88,1.27t-2.32,1.36a3,3,0,0,0-.48-.64,6.48,6.48,0,0,0-.81-.64,19.32,19.32,0,0,0,1.92-.78,18.56,18.56,0,0,0,1.67-.9,16.92,16.92,0,0,0,1.5-1,16.24,16.24,0,0,0,1.39-1.19l-2.09.06q-.88,0-1.58.08c0-.07,0-.21,0-.39s0-.39,0-.6,0-.43,0-.66v-1.6a7.17,7.17,0,0,0-.06-.9q1.15.08,2.62.13t3.57,0h1.9l1.48,0,1.25,0,1.13-.08q0,.39,0,.87t0,1v1Q242.07,48.75,242.1,49.23Zm2.74-4.79q-1.51-.11-3.6-.17t-5-.06q-2.88,0-5,.06t-3.61.17V42.82q1.51.08,3.61.14t5,.06q2.88,0,5-.06t3.6-.14ZM243,36.52q-.06.56-.1,1.23t0,1.4q0,.64,0,1.34t.08,1.34l-.81-.06-1.26,0-2,0h-5.59l-1.86,0-1.23,0-.78.06a10.09,10.09,0,0,0,.07-1.13q0-.74,0-1.55,0-1.2-.08-2.63.36.06,1.08.1l1.64.08,2,.07,2,0h1.93q1,0,1.88-.06l1.68-.1ZM233.53,38H231v2.52h2.55Zm7.06,8.6h-8.88v1.54h8.88ZM235,40.55h2.46V38H235Zm3.89,0h2.52V38h-2.52Z"/><path class="cls-2" d="M264.56,40.32q-3.5,0-5.78.06t-3.91.14v-1.9l1.68.14q.81.06,1.88.08l2.52,0h3.61V37.33c0-.43,0-.8,0-1.12s0-.59-.06-.83,0-.45-.08-.66a10.1,10.1,0,0,0,2.21.28q.53,0,.62.2t-.39.53a1.52,1.52,0,0,0-.5,1.32V38.9H270l2.65,0q1.12,0,2-.08l1.76-.14v1.9l-1.72-.07-2-.07-2.67,0h-3.72V47a21.5,21.5,0,0,0,2.59,3.08A25.21,25.21,0,0,0,272,52.66a20.92,20.92,0,0,0,3.16,1.89,11,11,0,0,0,3,1,4.44,4.44,0,0,0-.67.77,5.82,5.82,0,0,0-.53,1.11q-2.13-1-3.77-2a26.08,26.08,0,0,1-2.9-2,19,19,0,0,1-2.2-2.1A21.46,21.46,0,0,1,266.32,49v6.61q0,1.06,0,2.32t.13,2.49h-2.16q.11-1.32.17-2.53t.06-2.28V49a26.81,26.81,0,0,1-4.2,4.45,43.46,43.46,0,0,1-5.88,4.14,3,3,0,0,0-1.54-1.65,16.88,16.88,0,0,0,3.39-1.5,25.56,25.56,0,0,0,3.21-2.18,25,25,0,0,0,2.81-2.62,21.17,21.17,0,0,0,2.21-2.83Zm-5.91,5.15q-.62,1-1.37,1.93t-1.62,1.93a4.44,4.44,0,0,0-.8-.73,3,3,0,0,0-.94-.42A12.66,12.66,0,0,0,259,41.3q.48.22.88.38a7.49,7.49,0,0,0,.85.27q.45.11.41.34c0,.15-.15.24-.35.28a1.46,1.46,0,0,0-.59.45,7.78,7.78,0,0,0-.87,1.23q1.26.84,2.07,1.5a19.2,19.2,0,0,1,1.46,1.3l-1.26,1.09a15.39,15.39,0,0,0-1.5-1.51Q259.41,46,258.65,45.48Zm12.43-.36q-.5,1-1,1.71T269,48.44a2.88,2.88,0,0,0-1.62-1,11.86,11.86,0,0,0,2.35-3,17.62,17.62,0,0,0,1.32-3.11,12.75,12.75,0,0,0,1.76.64c.22.06.34.15.35.29s-.09.25-.29.32-.69.55-1.18,1.37a22.31,22.31,0,0,1,2.56,1.67,23.35,23.35,0,0,1,2.06,1.78l-1.2,1.15A14.94,14.94,0,0,0,271.08,45.11Z"/><path class="cls-2" d="M290.37,60.45h-1.85q.14-1.15.18-2.16t0-2.21V48q-1.09,1.15-2.83,2.66a2.52,2.52,0,0,0-.52-.76,5,5,0,0,0-.85-.62q1.09-.73,2-1.48a16.36,16.36,0,0,0,1.76-1.65,17.14,17.14,0,0,0,1.57-2q.74-1.09,1.5-2.46a6.53,6.53,0,0,0,.81.67,3,3,0,0,0,.64.34c.34.11.51.23.52.35s-.12.23-.38.32a2,2,0,0,0-.35.2,3.28,3.28,0,0,0-.5.45l-.73.8q-.43.49-1,1.25Zm2.35-24.36q.48.2.45.38t-.5.29a1.13,1.13,0,0,0-.28.13,2.59,2.59,0,0,0-.43.35q-.27.25-.67.69l-1,1.11q-.53.59-1,1.05t-.88.85q-.43.39-.88.76l-1,.76a3.51,3.51,0,0,0-1.46-1.4,21.65,21.65,0,0,0,2-1.34,14,14,0,0,0,1.61-1.4,12.35,12.35,0,0,0,1.3-1.57,18.85,18.85,0,0,0,1.12-1.82,5.91,5.91,0,0,0,.74.73A2.91,2.91,0,0,0,292.73,36.1Zm13.38,14.64q1.48,0,2.7,0a20.07,20.07,0,0,0,2-.15v1.74l-2-.11q-1.25-.06-2.7-.06v5.21a5,5,0,0,1-.14,1.27,1.57,1.57,0,0,1-.62.87A3.79,3.79,0,0,1,304,60a21.93,21.93,0,0,1-2.45.38,3.84,3.84,0,0,0-1-2.24,19.54,19.54,0,0,0,2.06.18,3.75,3.75,0,0,0,1.19-.13.83.83,0,0,0,.55-.45,2.09,2.09,0,0,0,.13-.78V52.11h-8.06q-1.68,0-2.65,0l-1.81.1V50.54l.87.1q.42,0,.92.06l1.15,0h9.58V48.39h-6.75q-1.68,0-2.65,0l-1.81.1V46.87l.87.1q.42,0,.92.06l1.15,0h10.37l1.13,0c.34,0,.65,0,.94-.06l.91-.1v1.68l-1.5-.1-1.92-.07Zm-7.25,6.47q-.64-.62-1.19-1.09t-1.08-.88q-.53-.41-1.06-.74t-1.12-.67l1.06-1.29,1.33.84q.6.39,1.15.78L299,55q.55.41,1.13.91Zm9.24-11.87-1.09-.1-1.34-.07-1.78,0H299l-1.81,0-1.39.07-1.11.1a6.72,6.72,0,0,0,.18-1.15q0-.59,0-1v-5q0-.42-.06-1a11.54,11.54,0,0,0-.17-1.15q1,.11,2.7.18t4,.07q2.18,0,3.89-.07T308.1,36a9.28,9.28,0,0,0-.13,1q0,.52,0,1.19v5A11.59,11.59,0,0,0,308.1,45.34ZM306.31,40V37.58h-9.72V40Zm-9.72,1.32v2.46h9.72V41.36Z"/><path class="cls-2" d="M326.77,38.36q-.06,2.55-.21,4.58a29,29,0,0,1-.5,3.71,17.56,17.56,0,0,1-.92,3.08,15.43,15.43,0,0,1-1.44,2.7A21,21,0,0,1,321.64,55q-1.19,1.29-2.79,2.72a6.08,6.08,0,0,0-.74-.69,3.58,3.58,0,0,0-1.16-.49,30,30,0,0,0,3.91-3.3,13.22,13.22,0,0,0,2.53-3.67,17.32,17.32,0,0,0,1.36-4.75,42.31,42.31,0,0,0,.38-6.48h-3.42l-1.18,0-1.09.06V36.77l1.88.1,1.83.07q1,0,2.17,0h7.2l2.74,0q1.06,0,1.67-.06a9.22,9.22,0,0,0,1-.13l-3.81,7.67h3.19q.84,0,1.5,0c.44,0,.79-.06,1.05-.1a44.66,44.66,0,0,1-2.69,6.33,18.67,18.67,0,0,1-2.69,3.92,22.29,22.29,0,0,0,3.57,2A23,23,0,0,0,342.85,58a6.64,6.64,0,0,0-.83.85,5.16,5.16,0,0,0-.55,1,33.2,33.2,0,0,1-4.35-1.85,28.62,28.62,0,0,1-3.77-2.27,16.21,16.21,0,0,1-2.09,1.57,17.64,17.64,0,0,1-2.39,1.26,28.13,28.13,0,0,1-2.76,1q-1.47.46-3.18.88a4.2,4.2,0,0,0-.6-1,4.65,4.65,0,0,0-.91-.81,24.24,24.24,0,0,0,6-1.3,14.93,14.93,0,0,0,4.68-2.65q-1-.87-1.74-1.62T328.9,51.5q-.67-.79-1.33-1.69t-1.44-2.14l1.32-.9q.67,1.15,1.32,2.07a19.71,19.71,0,0,0,1.34,1.72q.7.8,1.46,1.51t1.65,1.44q.7-.78,1.3-1.6a16.47,16.47,0,0,0,1.12-1.74q.52-.92,1-2a24.17,24.17,0,0,0,.9-2.39h-4.34a4.73,4.73,0,0,0-.55,0l-.48.06-.55.06,3.7-7.56Z"/><path class="cls-2" d="M362.9,39.57q1.62,0,3.29,0l3.15-.08,2.7-.1q1.22-.06,2-.14L371.83,44l-1.46-.59,1.23-2.52H354q.06,1.65,0,3.3T354,47.77q-.08,2.41-.21,4a19.39,19.39,0,0,1-.42,2.88,12.94,12.94,0,0,1-.8,2.38,28.11,28.11,0,0,1-1.32,2.52,4.51,4.51,0,0,0-.8-.63,5.17,5.17,0,0,0-.94-.38,12,12,0,0,0,1.3-2,11.19,11.19,0,0,0,.84-2.2,18.17,18.17,0,0,0,.49-2.65q.17-1.46.25-3.33t0-4q-.06-2.2-.25-4.86l.92,0h8.06V36.94q0-.53,0-.84c0-.21,0-.39,0-.55a2.55,2.55,0,0,0-.06-.42c0-.12-.07-.28-.13-.46q.73.11,1.22.14a5.86,5.86,0,0,0,1,0,.33.33,0,0,1,.39.21q.08.24-.2.46a.86.86,0,0,0-.29.48,5.21,5.21,0,0,0-.15.73h3.72q1.34,0,2.58-.06t2.35-.2v1.71q-1.12-.11-2.35-.15t-2.58,0H362.9Zm-6.3,13.13-.43.59c-.14.19-.3.38-.49.59l-.39-.29-.32-.22-.34-.18-.43-.17a19,19,0,0,0,1.34-1.48A13.83,13.83,0,0,0,356.59,50a11.2,11.2,0,0,0,.84-1.71q.36-.92.7-2.07a4.81,4.81,0,0,0,.83.38,5.81,5.81,0,0,0,.88.21q.39.06.39.32c0,.18-.13.31-.39.41a1.41,1.41,0,0,0-.57.49,8.15,8.15,0,0,0-.8,1.39h2.13q.48,0,1.13-.06t1.44-.17q-.34,1.23-.69,2.2t-.69,1.71a12.75,12.75,0,0,1-.67,1.3q-.34.56-.64,1a8.39,8.39,0,0,0,1.19.9A10.71,10.71,0,0,0,366.91,58q1.27.08,3.14,0t4.66-.29a3.23,3.23,0,0,0-.28.81,6.91,6.91,0,0,0-.11,1q-3,0-5,0t-3.26-.21a13.42,13.42,0,0,1-2.16-.41,10,10,0,0,1-1.64-.64,13,13,0,0,1-1.39-.77,13.21,13.21,0,0,1-1.3-1,21.48,21.48,0,0,1-5.38,3.58,3.18,3.18,0,0,0-.52-.8,3.12,3.12,0,0,0-.91-.63,17.44,17.44,0,0,0,3.36-1.34,10,10,0,0,0,2.41-1.87q-.45-.5-.94-1.18T356.59,52.7Zm7.17-6.47,1,.06,1.2,0h2.18l1.2-.06,1-.07.9-.1.91-.14a5.11,5.11,0,0,0-.28.85,2.09,2.09,0,0,0,0,.69l-1.37.1q-.73,0-1.93.07h-2.34l-1.4-.06-1.75-.1a8.25,8.25,0,0,1-1.18-.11,2.16,2.16,0,0,1-.69-.22.7.7,0,0,1-.32-.38,1.73,1.73,0,0,1-.08-.57V44.52l-2,.13-1.41.08-1.06.1-1,.11-.14-1.65a21.8,21.8,0,0,0,2.42.1q1.3,0,3.21-.1,0-.78,0-1.16a6.24,6.24,0,0,0-.14-.88q.64.08,1.09.1a6,6,0,0,0,1-.07c.21,0,.34,0,.39.1s0,.23-.22.38a1.45,1.45,0,0,0-.41.5,2.23,2.23,0,0,0-.15,1l2.88-.14q1.09-.06,1.82-.13l1.25-.14q.52-.07,1.19-.21l.06,1.6h-1.25l-1.4,0-1.88.08-2.67.14a5.67,5.67,0,0,0,.06.9,1.15,1.15,0,0,0,.2.52.8.8,0,0,0,.41.27A3,3,0,0,0,363.76,46.23Zm-6.47,5.35a24.7,24.7,0,0,0,2.16,2.94,8.94,8.94,0,0,0,.94-1.61,13.31,13.31,0,0,0,.77-2.23H357.8l-.25.46C357.47,51.28,357.39,51.43,357.29,51.58Zm13.3,4.56a2.71,2.71,0,0,1-.81-.1.84.84,0,0,1-.48-.36,1.93,1.93,0,0,1-.24-.74,8.76,8.76,0,0,1-.07-1.23V50.46h-2.27q-.06,1.29-.15,2.11a7.3,7.3,0,0,1-.32,1.48,6.74,6.74,0,0,1-.6,1.29,16.11,16.11,0,0,1-1,1.47,3.28,3.28,0,0,0-.62-.57,4.18,4.18,0,0,0-1-.46,9.33,9.33,0,0,0,1.37-1.43,3.37,3.37,0,0,0,.59-1.43,9.82,9.82,0,0,0,.13-1.83,13.26,13.26,0,0,0-.15-1.92h4.27l1.27,0c0,.26,0,.58,0,1s0,.77,0,1.18l0,1.22c0,.4,0,.76,0,1.08a1.42,1.42,0,0,0,.24.92,1.19,1.19,0,0,0,1,.25,1,1,0,0,0,.43-.08.7.7,0,0,0,.31-.31,2,2,0,0,0,.2-.6c0-.25.09-.59.13-1a5.06,5.06,0,0,0,.78.67,3.47,3.47,0,0,0,.92.36,8.87,8.87,0,0,1-.49,1.29,1.72,1.72,0,0,1-.62.71,2.28,2.28,0,0,1-1,.29Q371.66,56.14,370.59,56.14Z"/><path class="cls-2" d="M393.53,39.68a15.18,15.18,0,0,0-1-1.95,11.07,11.07,0,0,0-1.15-1.61l1.93-.87q.56,1,1.08,2.07t1,2.35q3.56,0,6.16,0t4.65-.15v1.88q-2.16-.11-5.77-.15t-9,0v5.07h9l.92,0,.91,0,.74-.06-1,10.5a3.15,3.15,0,0,1-.31,1.15,2.15,2.15,0,0,1-1,.88,7.23,7.23,0,0,1-2,.63,25.46,25.46,0,0,1-3.42.36,3.76,3.76,0,0,0-.21-1.19,4.23,4.23,0,0,0-.69-1.25,18.64,18.64,0,0,0,2.79.34,6.7,6.7,0,0,0,1.76-.14,1.61,1.61,0,0,0,.94-.54,1.86,1.86,0,0,0,.34-.94l.81-8.26h-9.63a20.9,20.9,0,0,1-.36,3.67A12.91,12.91,0,0,1,390,54.59a12.66,12.66,0,0,1-2,2.94,17.55,17.55,0,0,1-3.15,2.65,4.12,4.12,0,0,0-.81-.85,4.57,4.57,0,0,0-1-.6,15.25,15.25,0,0,0,3.44-2.44,10,10,0,0,0,2-2.74,10.36,10.36,0,0,0,1-3.11,24.84,24.84,0,0,0,.24-3.53V41.16q-1.06,0-2,0l-1.76,0-1.71.06-1.78.07V39.48q2.07.11,4.77.15T393.53,39.68Z"/><path class="cls-2" d="M418.89,37.64q2.1,0,3.54,0t2.35-.07q.91,0,1.4-.1a6.2,6.2,0,0,0,.71-.11v1.82l-.56-.07a8.27,8.27,0,0,0-.85-.06l-1.39,0h-2.16c.21.22.38.43.53.62l.43.55c.14.18.28.37.42.57l.49.7-1.48.73q-.25-.5-.48-.9l-.43-.74-.45-.71-.52-.81h-2.27q-.31.59-.59,1t-.56.88q-.28.42-.59.84c-.21.28-.45.6-.73,1a5.93,5.93,0,0,0-.83-.56,4.91,4.91,0,0,0-1-.39A13.7,13.7,0,0,0,416.53,39a16.62,16.62,0,0,0,2-4.1,7.47,7.47,0,0,0,.74.49,2.5,2.5,0,0,0,.71.27.46.46,0,0,1,.29.27c.06.14,0,.26-.21.35a1.47,1.47,0,0,0-.48.32A4.8,4.8,0,0,0,418.89,37.64Zm6.41,12.1h2.52a6.28,6.28,0,0,0,1.68-.2v1.32l-.8-.11a6.52,6.52,0,0,0-.88-.06h-2.52v1.43h2.24a6.29,6.29,0,0,0,1.68-.2v1.26l-.8-.11a6.52,6.52,0,0,0-.88-.06h-2.24v1.54h2.24a7.8,7.8,0,0,0,1.68-.17v1.29l-.8-.1a8.52,8.52,0,0,0-.88,0h-2.24V57q2-.17,4-.42-.11.42-.15.69c0,.18-.05.35-.07.52q-3.5.25-5.94.48t-4.06.41q-1.62.18-2.59.34t-1.53.27a7.06,7.06,0,0,0-.14-.85,3.19,3.19,0,0,0-.34-.91q3,0,5.66-.17V55.47h-2.91a8,8,0,0,0-1.74.17V54.32a3.82,3.82,0,0,0,.8.14q.41,0,.94,0h2.91V53.06h-3a7.06,7.06,0,0,0-.92.06l-.76.11V51.94a5.73,5.73,0,0,0,1.68.2h3v-1.4H417a8,8,0,0,0-1.74.17V49.59a3,3,0,0,0,.8.17q.41,0,.94,0h3.19v-1.6l-3.16,0q-1.62,0-2.74.08V47q1.12.08,2.76.13t3.23,0h9.91a3.49,3.49,0,0,1-.06-.63c0-.21,0-.42,0-.63Q430,44.72,430,44t0-1.2q0-.46,0-.76l-.06-.57a5.63,5.63,0,0,0,.92.17c.24,0,.53,0,.87,0s.61.07.7.21,0,.32-.34.55-.34.54-.46,1.22a10.24,10.24,0,0,0,0,2.62l.08.92q2.38,0,4,0t2.7-.13V48.3q-1.09-.06-2.66-.08t-3.92,0a28.41,28.41,0,0,0,1.2,6.08,15.37,15.37,0,0,0,2-4.42,3,3,0,0,0,1.4.73q.39.06.46.29t-.27.32a.71.71,0,0,0-.24.2,3.63,3.63,0,0,0-.38.53l-.57,1q-.35.59-.8,1.46a15.7,15.7,0,0,1-.92,1.48,7.17,7.17,0,0,0,.91,1.34,6.26,6.26,0,0,0,1.08,1q.76.53,1.23.17A4.18,4.18,0,0,0,437.6,56a4.11,4.11,0,0,0,.71.67,2.76,2.76,0,0,0,.77.36,5.32,5.32,0,0,1-.77,1.83,2.88,2.88,0,0,1-1.08,1A2,2,0,0,1,436,60a3,3,0,0,1-1.22-.53A8.3,8.3,0,0,1,432.59,57a14.75,14.75,0,0,1-2.28,1.95,25.29,25.29,0,0,1-3,1.78,3.31,3.31,0,0,0-.53-.66,4.92,4.92,0,0,0-1-.66q1.15-.36,2.06-.74a11.67,11.67,0,0,0,1.64-.83,9.59,9.59,0,0,0,1.32-1,9.17,9.17,0,0,0,1.12-1.19,18.83,18.83,0,0,1-1.08-3.44,33.29,33.29,0,0,1-.6-4h-5ZM419.62,44a15.37,15.37,0,0,1-1,1.26q-.53.62-1.34,1.4a2.12,2.12,0,0,0-.56-.49,4.81,4.81,0,0,0-.9-.38,13,13,0,0,0,1.25-.84,5.87,5.87,0,0,0,1-1,7.31,7.31,0,0,0,.78-1.19,10.39,10.39,0,0,0,.66-1.58l.67.28a2.47,2.47,0,0,0,.56.17q.31.06.32.29a.3.3,0,0,1-.21.32,1.06,1.06,0,0,0-.25.2,4.13,4.13,0,0,0-.45.64,14.47,14.47,0,0,1,1.54.57l1.62.74-1,1.06q-.64-.42-1.32-.81A12.49,12.49,0,0,0,419.62,44Zm2.13,13.24q.5-.06,1-.07t1-.07v-8.9h-2Zm3.86-12.57a9.58,9.58,0,0,1-.71,1q-.38.48-1,1.12a4,4,0,0,0-.66-.34,5.69,5.69,0,0,0-.85-.22l1.18-1.09a5.51,5.51,0,0,0,.81-1A7.61,7.61,0,0,0,425,43a17.7,17.7,0,0,0,.63-1.74q.31.17.63.31a2.73,2.73,0,0,0,.71.2q.31.06.32.25a.22.22,0,0,1-.18.25,1,1,0,0,0-.34.21,1.59,1.59,0,0,0-.31.41l-.2.41a2.62,2.62,0,0,1-.2.35l1.51.77q.78.41,1.74,1l-1,1-1.32-.87Q426.4,45.08,425.61,44.66ZM429.67,39q-.36.53-.8,1.13t-.94,1.25a5.67,5.67,0,0,0-.66-.46,3.4,3.4,0,0,0-.91-.35,12.07,12.07,0,0,0,1.12-1,9.21,9.21,0,0,0,.92-1.15,13.31,13.31,0,0,0,.81-1.37A18.4,18.4,0,0,0,430,35.2q.48.25.77.38a5.25,5.25,0,0,0,.71.24c.24.06.38.16.41.32s-.1.28-.38.38a1.85,1.85,0,0,0-.46.29,3.88,3.88,0,0,0-.6.85q2.18,0,3.61,0t2.34-.08q.91-.06,1.39-.13a6.78,6.78,0,0,0,.78-.15v1.82l-.5-.06-.77,0-1.22,0h-1.85q.56.7.94,1.2t.77,1.15l-1.4.81q-.5-1-.9-1.61t-1-1.55Zm5.6,7.17q-.48-.9-1-1.65a19,19,0,0,0-1.2-1.6l1.18-.62.67.83.57.73q.27.35.52.74t.53.9Z"/><path class="cls-2" d="M58,4.92C42.86,4.27,26.32,15.6,21,25.57c-6.92,13-9.16,28.67-2.48,42.24C28.1,87.24,54.69,97,74.73,90,99,81.61,108.32,52.48,98.05,29.48,98.05,29.48,91.27,6.35,58,4.92Z"/><path d="M58,1.92C46.19,1.71,34.72,7,26,14.75c-8.48,7.61-13,18.89-14.2,30.06C9.24,68.1,25,87.38,47,93.38,67.08,98.88,88.79,91.72,99.11,73c8-14.58,7.52-31.74.9-46.7C92.77,9.91,74.83,2.84,58,1.92c-3.86-.21-3.85,5.79,0,6,13.73.75,27.94,5.78,35.22,18.19a46.89,46.89,0,0,1,4.73,33.5c-4.33,17.69-19.42,30-37.77,29.67-18.94-.31-38.22-12.56-42-31.94-2.23-11.5.95-26.09,8.78-35C34.57,13.66,46.35,7.71,58,7.92,61.82,8,61.83,2,58,1.92Z"/><circle cx="55.59" cy="54.43" r="1.95"/><path d="M56.24,48.31c-3.56-.44-7.92.54-8.5,4.75s2.79,7.19,6.72,7.32c3.6.12,7.26-1,7.45-5a6.72,6.72,0,0,0-5.27-7c-1.88-.43-2.68,2.46-.8,2.89a3.9,3.9,0,0,1,3.12,3,3.84,3.84,0,0,1-.3,2.26c-.59.76-2.49.79-3.39.85C52.93,57.51,50,56,50.8,53.22c.67-2.36,3.49-2.15,5.44-1.91S58.13,48.55,56.24,48.31Z"/><path d="M75.7,48.31c-3.56-.44-7.92.54-8.5,4.75s2.79,7.19,6.72,7.32c3.6.12,7.26-1,7.45-5a6.72,6.72,0,0,0-5.27-7c-1.88-.43-2.68,2.46-.8,2.89a3.9,3.9,0,0,1,3.12,3,3.84,3.84,0,0,1-.3,2.26c-.59.76-2.49.79-3.39.85-2.35.17-5.26-1.32-4.47-4.12.67-2.36,3.49-2.15,5.44-1.91S77.6,48.55,75.7,48.31Z"/><circle cx="75.44" cy="54.43" r="1.95"/><path d="M57.28,44.82h.43c.28,0,.12,0-.06-.05a.78.78,0,0,1-.37-1.2l.37-.36q.35-.12.11,0c-.3.07.32,0,0,0h-.32l-.31,0s-.42,0-.16,0-.12,0-.17-.06l.08,0L56.67,43l.12.09q-.27-.29.16.34l-.1.8q-.44.39-.18.23c-.28.23-.15,0,0,0-.35,0,0,0,.1,0H57l-.16,0c.32.26-.37-.39-.15-.12l-.39-1.46c-.07.35.41-.47.43-.49-.15.15,0,0,.14,0s-.12,0,.06,0a.81.81,0,0,1,.41.19l-.66,2.51L56.9,45a1.54,1.54,0,0,0,1-1.85,1.51,1.51,0,0,0-1.85-1l-.17.06a1.52,1.52,0,0,0-.66,2.51c1.26,1.3,4,.59,4-1.4s-2.87-2.14-4.14-1.44a2.1,2.1,0,0,0-1.1,2.36,2.74,2.74,0,0,0,1.78,1.68,4,4,0,0,0,3.54-.28,2.15,2.15,0,0,0,.4-2.8,2.61,2.61,0,0,0-2.5-1,1.5,1.5,0,0,0,0,3Z"/><path d="M71.68,44.82h.43c.28,0,.12,0-.06-.05a.78.78,0,0,1-.37-1.2L72,43.2q.35-.12.11,0c-.3.07.32,0,0,0h-.32l-.31,0s-.42,0-.16,0-.12,0-.17-.06l.08,0L71.07,43l.12.09q-.27-.29.16.34l-.1.8q-.44.39-.18.23c-.28.23-.15,0,0,0-.35,0,0,0,.1,0h.25l-.16,0c.32.26-.37-.39-.15-.12l-.39-1.46c-.07.35.41-.47.43-.49-.15.15,0,0,.14,0s-.12,0,.06,0a.81.81,0,0,1,.41.19l-.66,2.51L71.3,45a1.54,1.54,0,0,0,1-1.85,1.51,1.51,0,0,0-1.85-1l-.17.06a1.52,1.52,0,0,0-.66,2.51c1.26,1.3,4,.59,4-1.4s-2.87-2.14-4.14-1.44a2.1,2.1,0,0,0-1.1,2.36,2.74,2.74,0,0,0,1.78,1.68,4,4,0,0,0,3.54-.28,2.15,2.15,0,0,0,.4-2.8,2.61,2.61,0,0,0-2.5-1,1.5,1.5,0,0,0,0,3Z"/><path d="M64.91,54a12,12,0,0,1,.45,2.88q0,.36,0,.72t.13,0a2.16,2.16,0,0,1-.4,0q.34.4.27-.14L64.25,59l.08,0c1.89-.39,1.09-3.28-.8-2.89l-.08,0a1.54,1.54,0,0,0-1.1,1.45c-.31,2.59,2.69,4,4.74,2.66s1.19-5,.72-7-3.34-1.08-2.89.8Z"/><path d="M21.63,70.51c1.82-1.93,3.91-4.07,4.77-6.65.77-2.32.63-4.91,1.2-7.3,1.43-6,2.07-12.3,5-17.94,6.66-13,21.92-12.11,34.16-9,6,1.52,12.2,5,15.42,10.43,3.65,6.19,2.79,13.15,2.11,19.94-.73,7.33.64,14.92.72,22.27,0,3.86,6,3.87,6,0-.05-4.63-.4-9.25-.62-13.87-.26-5.61.48-11,.57-16.58.21-13.32-8.42-23.81-21-27.55C58.29,20.83,42.7,19.07,33,28c-5.07,4.7-6.71,10.93-9.27,17-2.95,7-.82,15.3-6.37,21.2-2.65,2.81,1.59,7.06,4.24,4.24Z"/><path d="M65.86,70a2,2,0,0,1,.88,0,.77.77,0,0,1,.13.16,2,2,0,0,1-.1,1.86.56.56,0,0,1-.28.26s-.06,0-.17,0a3,3,0,0,1-.93-.58A1.52,1.52,0,0,0,63,72c-.26.43-.67,1.07-1.11,1.17.07,0-.07,0-.2-.08a1.5,1.5,0,0,1-.39-.35,3,3,0,0,1-.53-1.16c0,.14,0-.07,0-.1-.06-.24,0,0,0-.06s.21-.14-.06,0c-.06,0-.29.2,0,.07,1.75-.81.23-3.4-1.51-2.59-2.33,1.07-1.29,4.4,0,5.85a3.7,3.7,0,0,0,3,1.36c1.6-.09,2.72-1.37,3.5-2.64l-2.36.3c1.15,1,2.61,1.82,4.18,1.31a3.92,3.92,0,0,0,2.42-2.79c.73-2.7-.94-5.73-4-5.36a1.55,1.55,0,0,0-1.5,1.5,1.51,1.51,0,0,0,1.5,1.5Z"/><path class="cls-2" d="M60.93,35.94c-4.48-1.09-10-1.82-10-7.5-.11-6.25,2.91-12.58,9-14.62,5.05-1.69,13.43.69,16.56,5.08,3.44,4.8.92,11.84-3.63,14.91C72.86,33.81,67.28,37.48,60.93,35.94Z"/><path d="M61.73,33c-1.85-.43-4.34-.65-6-1.72-2.64-1.76-2-5.31-1.12-8,2-5.8,7.14-8,12.85-6.54,5.52,1.41,9.75,6,6.28,11.71-2.46,4-7.62,5.33-12,4.54-3.78-.68-5.4,5.1-1.6,5.79,7.75,1.39,16.16-1.26,19.59-8.82,4.06-8.94-1.92-16.7-10.63-19s-17,1.52-20,10.11c-1.32,3.7-2,8.75.2,12.25,2.35,3.66,6.94,4.54,10.86,5.46C63.89,39.72,65.49,33.93,61.73,33Z"/><path d="M63.95,29.9c3.6.24,6.69-2.13,6.14-6-.45-3.09-3-4.53-5.88-4.48A5,5,0,0,0,59,24.15c-.25,2.9,2,4.9,4.57,5.7,1.85.57,2.64-2.33.8-2.89-1-.31-2.28-1-2.41-2.16A2,2,0,0,1,64,22.48c.2,0,1.37,0,.69,0,.89.07,1.68.17,2.15,1,1.29,2.33-.91,3.54-2.91,3.41S62,29.77,63.95,29.9Z"/><path class="cls-2" d="M66.25,60.15c4.64,0,8.51,3,10.78,7-3.1,1-9.37-1.89-12.48-1.77-5.32.22-8,1.32-11.48,2.46-.15-3.35,3.06-6.28,6.42-7.89,1.78-.85,5.66-1.89,6.75.58"/><path d="M66.25,61.65c4.3.3,7.27,2.68,9.49,6.27l.9-2.2c-4,.78-8.05-1.76-12.08-1.82s-8.06,1.23-11.88,2.51l1.9,1.45c.17-2.28,7.48-10.75,10.38-6.56,1.09,1.58,3.69.08,2.59-1.51-4.75-6.85-15.51,2.06-16,8.07a1.51,1.51,0,0,0,1.9,1.45c4.47-1.5,9.05-3,13.8-2,3.41.68,6.64,2,10.16,1.34a1.51,1.51,0,0,0,.9-2.2c-2.8-4.53-6.67-7.38-12.08-7.75-1.93-.13-1.92,2.87,0,3Z"/><path d="M2.17,129.36c15.67,2.78,31.72.14,47.55,0,9.81-.08,19.63-.11,29.44-.14q49.79-.14,99.58-.11,61.81,0,123.62,0l111.15.1,62.15.06h2.53c3.86,0,3.87-6,0-6q-26.67,0-53.34-.05l-106.45-.1q-62,0-124.07-.05-52.22,0-104.45.08c-19.95,0-40-.33-59.88.87-8.73.53-17.57,1-26.23-.5-3.78-.67-5.4,5.11-1.6,5.79Z"/><path d="M2.17,140.52c15.67,2.78,31.72.14,47.55,0,9.81-.08,19.63-.11,29.44-.14q49.79-.14,99.58-.11,61.81,0,123.62,0l111.15.1,62.15.06h2.53c3.86,0,3.87-6,0-6q-26.67,0-53.34-.05l-106.45-.1q-62,0-124.07-.05-52.22,0-104.45.08c-19.95,0-40-.33-59.88.87-8.73.53-17.57,1-26.23-.5-3.78-.67-5.4,5.11-1.6,5.79Z"/></g></svg>