<?xml version="1.0" encoding="utf-8"?>
<!-- Generator: Adobe Illustrator 21.1.0, SVG Export Plug-In . SVG Version: 6.00 Build 0)  -->
<svg version="1.1" id="圖層_1" xmlns="http://www.w3.org/2000/svg" xmlns:xlink="http://www.w3.org/1999/xlink" x="0px" y="0px"
	 viewBox="0 0 481.1 97.8" style="enable-background:new 0 0 481.1 97.8;" xml:space="preserve">
<style type="text/css">
	.st0{fill:#F3EEE8;}
</style>
<title>not late</title>
<g id="圖層_1_1_">
	<path d="M224.1,4.9c23.7-0.9,46.9-0.2,70.7-1.2c28.6-1.2,56.8-0.9,85.4,1.9c11.4,1.1,23.4,1.8,34.7,2.6c11,0.8,22.8-2.3,31.9,5.3
		c8.7,7.3,11.5,18.9,13.5,29.3c1.5,8.2,5.2,23.5,0.8,30.8c-7,11.6-28.4,7.8-39.5,7.2c-13-0.6-26.9-1.3-40,0.1
		c-28.5,3.1-56.9,2.6-85.6,1.4c-26.1-1.1-51.8,2.3-77.8,3.3c-22.6,0.9-45.8,5.4-66.5-4.7c-18.2-8.9-21.1-54.6-9.2-70.1
		C142.4,10.8,198.2,5.9,224.1,4.9z"/>
	<path d="M224.1,7.9c25.5-1,51-0.5,76.5-1.4c25.2-1,50.5-0.4,75.6,1.8c12.8,1.2,25.7,2.3,38.6,3c9.8,0.5,21.5-2.2,29.8,4.4
		s10.8,18.1,12.7,28c1.6,8.1,4.6,18,2,26.1c-2.6,8.6-13.5,9.2-21,9.2c-8.1-0.1-16.3-1-24.4-1.4c-25.2-1.1-50,2.6-75.2,2.8
		c-25.4,0.2-50.6-1.8-76-0.4c-24.4,1.4-48.8,3.7-73.3,4.5c-12.2,0.4-27.1,0.1-37.8-6.8c-6.2-4-9.2-11.8-11-18.6
		c-3.6-14.1-4.7-34.2,4.4-46.7l-2.6,1.5C169.6,11.4,196.8,9,224.1,7.9c3.8-0.2,3.8-6.2,0-6c-20.5,0.9-41.1,2.6-61.5,4.3
		c-6.4,0.5-12.8,0.8-19.1,1.6c-5.7,0.7-7.8,9.1-9,13.9c-4.3,16.9-3.1,39.7,7.3,54.3c6.3,8.9,17.7,12.1,28.1,13.5
		c14.9,2.1,29.9,0.2,44.8-0.6c16.7-0.9,33.4-2.2,50.2-3.1s33.1-0.2,49.7,0.3c16.8,0.4,33.7,0.4,50.5-0.6c16.5-1.1,32.5-2.6,49-1.9
		c15.7,0.7,48.3,7.9,51.7-14.9c1.6-11-1.6-23.8-4.3-34.5c-2.9-11.2-8.7-23.2-20.4-27.2c-5.9-2-12.3-1.7-18.5-1.6
		c-7.6,0.1-15.3-0.6-22.9-1.1C383,3,366.6,1.2,350,0.5c-33.4-1.4-67,0.6-100.4,0.9c-8.5,0.1-17,0.2-25.6,0.5
		C220.2,2,220.2,8,224.1,7.9z"/>
	<path class="st0" d="M165,39.2h-2.3v4.3h1.9c0.4,0,0.6,0.3,0.6,0.8V46c0,0.5-0.2,0.8-0.6,0.8h-1.9v5.5l2-0.5c0.6-0.2,0.9-0.1,1,0.3
		l0.4,1.9c0.1,0.5,0,0.9-0.3,1l-8.4,2.4c-0.3,0.1-0.7,0-0.8-0.3c0,0,0-0.1,0-0.1l-0.6-1.8c-0.2-0.7,0-1.1,0.6-1.2l2.9-0.8v-6.5h-2.6
		c-0.4,0-0.7-0.3-0.7-0.8v-1.7c0-0.5,0.2-0.8,0.7-0.8h2.6v-4.3h-2.6c-0.4,0-0.7-0.3-0.7-0.8v-1.8c0-0.3,0.2-0.6,0.5-0.7
		c0.1,0,0.1,0,0.2,0h8.1c0.4,0,0.7,0.3,0.7,0.8v1.6C165.6,38.9,165.4,39.2,165,39.2z M180.2,50.3c0.1,0.5-0.4,1-0.9,1.1
		c-0.1,0-0.1,0-0.2,0h-2.3v5.1c0,0.4,0.1,0.5,0.4,0.5h0.7c0.3,0,0.5-0.2,0.7-0.7l0.5-1.6c0-0.3,0.3-0.6,0.7-0.6c0.1,0,0.1,0,0.2,0
		l1.8,0.4c0.4,0.1,0.6,0.4,0.5,1c-0.1,1.3-0.5,2.6-1.1,3.8c-0.4,0.6-1.1,1-1.9,0.9h-3.8c-1.3,0-2-0.8-2-2.3v-6.7h-0.6
		c0,2.1-0.7,4.1-2,5.8c-1.4,1.9-4.2,3.1-8.4,3.8c-0.4,0.1-0.8-0.1-0.9-0.4l-0.6-2c-0.1-0.3,0-0.6,0.2-0.7c0.1,0,0.1-0.1,0.2-0.1
		c3-0.6,5.1-1.5,6.3-2.5c1.1-1,1.8-2.5,1.8-4h-1.9c-0.5,0.1-1-0.3-1.1-0.9c0-0.1,0-0.1,0-0.2V36.4c0-0.8,0.4-1.2,1.1-1.2h11.6
		c0.7,0,1.1,0.4,1.1,1.2L180.2,50.3z M169.8,38.5v1.1h7v-1.1H169.8z M169.8,42.8v1.1h7v-1.1H169.8z M169.8,47v1.1h7V47H169.8z"/>
	<path class="st0" d="M196.4,38.2c0.2-0.9,0.4-1.9,0.5-3c0.1-0.5,0.4-0.7,0.8-0.7l1.8,0.3c0.6,0.1,0.9,0.4,0.9,0.7
		c0,0.9-0.1,1.8-0.3,2.6h12.6c0.5,0,0.8,0.2,0.8,0.7v2c0.1,0.4-0.2,0.7-0.6,0.8c-0.1,0-0.1,0-0.2,0H199c-0.7,2.2-1.7,4.2-3,6.1
		l-0.6,0.8v11.2c0.1,0.6-0.2,0.9-0.8,0.9h-2c-0.5,0-0.7-0.3-0.7-0.9v-7l-0.9,0.9c-0.5,0.6-0.9,0.8-1.2,0.6l-1.9-1.8
		c-0.3-0.3-0.3-0.8-0.1-1.1c0,0,0,0,0.1-0.1c1.4-1.3,2.8-2.7,4-4.2v-2.2c0-0.6,0.2-0.8,0.7-0.8h1.3c0.5-0.8,0.9-1.6,1.2-2.5H190
		c-0.6,0-0.9-0.3-0.9-0.8v-2c0-0.4,0.3-0.7,0.9-0.7L196.4,38.2z M205.1,41.8c0.5,0,0.8,0.2,0.8,0.7v4.2h5.8c0.4-0.1,0.8,0.2,0.9,0.6
		c0,0.1,0,0.1,0,0.2v1.9c0,0.4-0.3,0.7-0.9,0.7h-5.8v6.1h7.3c0.5,0,0.7,0.3,0.7,0.9v1.6c0,0.6-0.2,0.9-0.8,0.9h-16.4
		c-0.5,0-0.8-0.2-0.8-0.9V57c0-0.6,0.3-0.9,0.8-0.9h5.7V50h-4.7c-0.6,0-0.9-0.3-0.9-0.8v-1.8c-0.1-0.4,0.2-0.8,0.7-0.9
		c0.1,0,0.1,0,0.2,0h4.7v-4.2c0-0.5,0.3-0.7,0.8-0.7H205.1z"/>
	<path class="st0" d="M245.2,57c0.7,0,1,0.3,0.9,1l-0.2,1.6c-0.1,0.5-0.4,0.8-1,0.8h-15.1c-2.3-0.2-3.8-1-4.6-2.4l-1.9,1.7
		c-0.8,0.7-1.4,0.8-1.9,0.3l-1.2-1.7c-0.2-0.4-0.1-0.7,0.4-1.1c1-0.8,1.9-1.6,2.7-2.5c0.5-0.8,0.8-1.7,0.7-2.7v-3.8h-2.7
		c-0.4,0-0.6-0.2-0.6-0.8v-1.8c0-0.5,0.2-0.8,0.6-0.8h4.7c0.8,0,1.2,0.4,1.2,1.1v7.9c0,1.8,1.5,3.3,3.4,3.2c0.1,0,0.2,0,0.2,0H245.2
		z M224.6,35.8l2.8,2.8c0.3,0.3,0.3,0.7,0,1c0,0-0.1,0.1-0.1,0.1l-1.1,1c-0.3,0.3-0.8,0.3-1.1,0l-2.8-2.8c-0.4-0.4-0.4-0.8-0.1-1.2
		l1-0.9c0.3-0.4,0.9-0.5,1.3-0.1C224.5,35.8,224.5,35.8,224.6,35.8z M245,43.8h-16.4c-0.5,0-0.8-0.2-0.8-0.7v-1
		c0-0.5,0.2-0.8,0.7-0.8H245c0.6,0,0.8,0.2,0.8,0.7v1C245.9,43.6,245.6,43.9,245,43.8L245,43.8z M242.2,44.3c0.8,0,1.1,0.3,1.1,1
		v3.5c0,0.6-0.4,1-1,1c0,0-0.1,0-0.1,0h-2.8c0.4,0.5,0.8,0.9,1.3,1.2l2.5-1.4c0.4-0.2,0.8-0.1,1.1,0.2l0.9,1.1
		c0.2,0.3,0.2,0.6-0.2,0.8l-1.7,1.1c0.6,0.5,1.3,0.8,2,1.1c0.5,0.2,0.6,0.5,0.3,0.9l-1,1.2c-0.3,0.4-0.8,0.5-1.2,0.3
		c-2-1.1-3.9-2.4-5.6-3.9v3.8c0,0.4-0.2,0.5-0.7,0.5h-1.8c-0.5,0-0.8-0.2-0.8-0.5v-2.9c-1.4,0.9-2.9,1.5-4.5,2
		c-0.5,0.1-0.8,0.1-1-0.2l-0.9-1.5c-0.4-0.6-0.4-1,0.1-1.1c2.1-0.5,4.1-1.5,5.8-2.8h-3.3c-0.7,0-1.1-0.3-1.1-1v-3.5
		c0-0.7,0.4-1,1.1-1L242.2,44.3z M242.3,34.8c1,0,1.4,0.3,1.4,1.1v3.9c0,0.8-0.5,1.1-1.4,1.1h-11.9c-1,0-1.4-0.4-1.4-1.1v-3.8
		c0-0.7,0.5-1.1,1.4-1.1L242.3,34.8z M231.9,37v1.5h1.4V37H231.9z M232.6,46.7v0.7h7.6v-0.7H232.6z M235.7,38.5h1.4V37h-1.4V38.5z
		 M239.6,37v1.5h1.3V37H239.6z"/>
	<path class="st0" d="M264.8,34.9h1.6c0.6,0,0.9,0.2,0.9,0.7v0.9h9.6c0.4,0,0.6,0.3,0.6,0.8V39c0,0.5-0.2,0.8-0.6,0.8h-9.6v7.1
		c0.1-0.2,0.3-0.4,0.5-0.6c0.8-0.6,1.5-1.3,2-2.1c0.6-1,1.1-2,1.5-3.1c0.1-0.6,0.5-0.9,1.1-0.8l1.9,0.4c0.5,0.1,0.7,0.5,0.5,1.4
		c-0.4,0.9-0.7,1.6-0.9,2.1c1.2,0.6,2.3,1.5,3.2,2.5c0.4,0.4,0.4,1,0.1,1.4l-1.4,1.3c-0.4,0.2-0.9,0.1-1.1-0.2
		c-0.8-0.8-1.6-1.4-2.6-2c-0.6,0.8-1.3,1.4-2.1,1.9c-0.4,0.2-0.9,0.2-1.3,0l-1.4-1.3l-0.1-0.1V48c2.6,3.3,6.1,5.8,10.1,7
		c0.6,0.3,0.8,0.7,0.7,1l-1.3,2c-0.4,0.4-0.9,0.5-1.4,0.2c-3-1.2-5.8-3-8.1-5.2v6.9c0,0.5-0.3,0.8-0.9,0.8h-1.6c-0.7,0-1-0.3-1-0.8
		V53c-2.2,2.4-5,4.3-8,5.5c-0.5,0.2-1,0.1-1.3-0.3l-1.4-2.2c-0.1-0.4,0.2-0.7,1-1c3.8-1.4,7.2-3.8,9.7-7v-8.3h-9.6
		c-0.4,0-0.7-0.3-0.7-0.8v-1.7c0-0.6,0.2-0.8,0.7-0.8h9.6v-0.9C263.8,35.1,264.1,34.9,264.8,34.9z M258.3,41c0-0.4,0.3-0.7,0.7-0.7
		c0.1,0,0.2,0,0.3,0.1l1.9,0.4c0.5,0.1,0.7,0.5,0.5,1.4c-0.1,0.8-0.5,1.5-1,2.1c0.8,0.5,1.5,1,2.3,1.5c0.3,0.4,0.3,1,0,1.4l-1.1,1.4
		c-0.4,0.3-0.9,0.2-1.2-0.1c-0.7-0.5-1.4-1-2.2-1.4c-0.6,0.8-1.3,1.4-2.1,1.9c-0.4,0.2-0.9,0.2-1.3,0l-1.4-1.3
		c-0.4-0.4-0.2-0.8,0.5-1.4c1-0.7,2-1.5,2.7-2.5C257.4,42.9,257.9,42,258.3,41z"/>
	<path class="st0" d="M293.7,42.3c0.3,0.4,0.3,0.9,0.1,1.3c-0.6,0.8-1.2,1.5-2,2.2v13.5c0.1,0.4-0.2,0.8-0.7,0.9c-0.1,0-0.2,0-0.2,0
		h-1.5c-0.5,0-0.8-0.3-0.8-0.9V48.4c-0.6,0.5-1.2,0.9-1.9,1.2c-0.3,0.2-0.7,0.2-1-0.1c0-0.1-0.1-0.1-0.1-0.2l-0.8-1.5
		c-0.3-0.5-0.1-1,0.5-1.3c2.3-1.5,4.4-3.2,6.2-5.1c0.3-0.2,0.8-0.2,1.1,0.1L293.7,42.3z M292,35.9l1.1,1.4c0.2,0.4,0.1,0.8-0.1,1.1
		c-1.7,1.6-3.6,3.1-5.5,4.5c-0.3,0.2-0.7,0.2-0.9-0.1c0,0,0-0.1-0.1-0.1l-1-1.7c-0.2-0.5,0-1,0.4-1.2c1.8-1.2,3.5-2.6,5-4.2
		C291.3,35.4,291.7,35.4,292,35.9z M309.4,45.3c0.6,0,0.9,0.2,0.8,0.8v1.9c0,0.3-0.2,0.5-0.8,0.5h-2.3v0.9h2.4
		c0.4-0.1,0.7,0.2,0.8,0.6c0,0.1,0,0.1,0,0.2v1.6c0,0.4-0.2,0.7-0.6,0.8c-0.1,0-0.1,0-0.2,0h-2.4v4.3c0,1.8-0.6,2.8-1.8,3
		c-1.1,0.2-2.2,0.3-3.3,0.3c-0.4,0.1-0.7-0.1-0.8-0.7l-0.2-1.8c-0.1-0.5,0-0.8,0.3-0.9c0.6,0,1.2,0,1.8-0.1c0.4-0.2,0.6-0.6,0.7-1
		v-3h-10.3c-0.5,0-0.8-0.3-0.8-0.8v-1.6c0-0.5,0.3-0.8,0.9-0.8h10.2v-0.9h-10.2c-0.6,0-0.9-0.2-0.9-0.5v-1.9c0-0.4,0.3-0.8,0.7-0.8
		c0,0,0.1,0,0.1,0L309.4,45.3z M297.2,52.6c1.1,0.8,2.2,1.7,3.2,2.6c0.3,0.3,0.3,0.7,0.1,0.9l-1,1.4c-0.3,0.5-0.6,0.6-0.9,0.3
		c-1.2-1-2.4-1.8-3.3-2.5c-0.3-0.3-0.4-0.7-0.1-1l1.1-1.4C296.5,52.5,296.8,52.4,297.2,52.6z M308.4,36.6v6.2c0,1.2-0.5,1.8-1.6,1.8
		h-10.2c-1.1,0-1.7-0.6-1.7-1.8v-6.2c0-1,0.6-1.5,1.7-1.5h10.2C307.9,35.2,308.4,35.7,308.4,36.6z M298.4,37.9v0.8h6.8v-0.8H298.4z
		 M298.4,41.4V42h6.8v-0.7L298.4,41.4z"/>
	<path class="st0" d="M319.2,39.2V37c0-0.5,0.3-0.8,0.9-0.8h15.8c1.2,0,1.6,0.6,1.4,1.8l-1.1,5h4.4c0.8,0,1.1,0.8,0.7,2.4
		c-0.8,3.3-2.4,6.3-4.6,8.9c1.7,1.1,3.4,2.1,5.2,3c0.6,0.3,0.7,0.7,0.3,1.3l-0.9,1.3c-0.3,0.4-0.8,0.5-1.2,0.3
		c-2.2-0.9-4.2-2-6.1-3.3c-2.2,1.6-4.8,2.7-7.4,3.4c-0.7,0.2-1.1,0.1-1.3-0.2l-0.9-1.9c-0.3-0.8-0.2-1.2,0.5-1.3
		c2.2-0.3,4.3-1.1,6.1-2.3c-1.8-1.5-3.4-3.3-4.6-5.4v2.3c-0.2,1.8-0.8,3.6-1.8,5.1c-1.1,1.5-2.5,2.7-4.2,3.6
		c-0.7,0.4-1.3,0.3-1.6-0.2l-1-1.4c-0.2-0.4-0.1-0.8,0.5-1.2c1.1-0.8,2.2-1.7,3.1-2.8c0.7-0.8,1.1-1.8,1.3-2.9
		c0.2-1.4,0.3-2.8,0.3-4.2v-7.8H320C319.5,39.7,319.2,39.5,319.2,39.2z M326.2,39.7V42c2.4,5,4.9,8.4,7.5,10.3
		c1.7-1.8,3-3.9,3.6-6.3h-3c-1.6,0-2.2-0.7-1.9-2.1l1-4.2L326.2,39.7z"/>
	<path class="st0" d="M362.4,34.6c0.4,0,0.6,0.2,0.6,0.8v0.4h7c0.5,0,0.8,0.2,0.8,0.7v1.2c0,0.5-0.2,0.7-0.8,0.7h-7v0.5h10.6
		c0.8,0.2,1.1,0.5,1,1l-0.7,2.9c-0.2,0.9-0.5,1.2-1,1.1l-1.8-0.5c-0.4-0.2-0.6-0.4-0.4-0.7l0.2-1.1h-8.4v0.7l6.2-0.3
		c0.4-0.1,0.7,0.1,0.8,0.4l0.2,1.4c0,0.4-0.3,0.7-0.8,0.7l-6.5,0.3v0.3c0,0.2,0.2,0.3,0.5,0.3h6c0.5,0,1-0.3,1.1-0.8
		c0.1-0.3,0.4-0.5,0.8-0.4l1.9,0.4c0.3,0.1,0.4,0.4,0.2,0.8l-1.1,2.2c-0.2,0.3-0.9,0.5-1.9,0.5h-9.4c-0.9,0-1.3-0.3-1.3-1v-2.1
		l-3.8,0.1c-0.4,0-0.7-0.2-0.7-0.5l-0.1-1.6c0-0.4,0.2-0.6,0.5-0.6l4.2-0.1v-0.8H354v8.6c0,0.7,0,1.3-0.1,1.9
		c1.2-1.2,1.9-2.8,2.1-4.5c0-0.2,0.2-0.3,0.5-0.2l2,0.6c0.2,0,0.4,0.2,0.4,0.5c0,0,0,0,0,0.1l-0.2,0.7h3.1c0.1,0,0.2,0,0.3,0.1
		l0.6,0.4c0.1,0.2,0.1,0.4,0,0.5c-0.2,2-0.8,3.9-1.8,5.5l0.4,0.4c0-0.2,0.1-0.3,0.2-0.4c1.1-0.5,1.7-1.8,1.8-3.7v-2.5
		c0-0.5,0.3-0.8,0.9-0.8h5.9c0.6,0,0.9,0.3,0.9,0.8v4.2c0,0.3,0.2,0.4,0.5,0.4h0.5c0.2,0,0.3-0.4,0.4-1.1c0-0.3,0.2-0.4,0.4-0.4
		l2,0.3c0.4,0.1,0.5,0.3,0.4,0.7l-0.4,2.3c-0.3,0.7-1.1,1.1-2.4,1.1h-1.6c-1.8,0-2.8-0.5-2.7-1.5v-3.8h-1.8v0.8
		c-0.1,2.2-0.8,3.7-2.1,4.6c-0.1,0.1-0.3,0.1-0.5,0.1c0.7,0.1,1.6,0.1,2.9,0.1h7.9c0.5,0,0.7,0.2,0.6,0.4l-0.7,2.2
		c-0.3,0.3-0.6,0.4-1,0.3h-8c-1,0-1.9-0.1-2.9-0.2c-1.4-0.4-2.8-1-4-1.8c-1,0.9-2.1,1.6-3.4,2c-0.3,0.1-0.6,0.1-0.9-0.1l-1.7-1.3
		l-0.2,0.4c-0.3,0.6-0.7,0.8-1,0.7l-1.7-0.7c-0.6-0.3-0.7-0.8-0.3-1.5c0.5-0.7,0.8-1.6,1-2.4c0.3-1.7,0.5-3.4,0.4-5.1V39.7
		c0-0.5,0.3-0.8,0.9-0.8h8.3v-3.6c0-0.4,0.2-0.7,0.6-0.8c0.1,0,0.1,0,0.2,0H362.4z M352.8,58.1c1.3-0.4,2.4-1,3.4-1.9
		c-0.4-0.4-0.8-0.7-1.1-1.2c-0.1-0.1-0.1-0.1-0.1-0.2l-0.4,0.3c-0.3,0.1-0.6,0.1-0.9,0.1l-0.2-0.2c-0.2,1.1-0.4,2.1-0.8,3.1
		L352.8,58.1z M358.4,54.2c0.6-0.7,1-1.6,1.1-2.5h-1.8c-0.2,0.3-0.4,0.7-0.7,1C357.5,53.3,357.9,53.8,358.4,54.2L358.4,54.2z"/>
	<path class="st0" d="M382.1,39.4c0-0.4,0.3-0.6,0.8-0.6h9.4v-3c-0.1-0.4,0.2-0.8,0.7-0.9c0.1,0,0.1,0,0.2,0h2
		c0.5,0,0.8,0.3,0.7,0.9v3h10c0.5,0,0.8,0.2,0.8,0.6v2.4c0,0.3-0.3,0.5-0.9,0.4H391v2.9h11.6c0.9,0,1.3,0.5,1.3,1.5
		c0.3,3.1,0.1,6.3-0.3,9.4c-0.1,1-0.6,1.9-1.4,2.6c-0.9,0.6-1.8,1.1-2.8,1.5c-0.6,0.3-1.1,0.3-1.3,0l-1.5-1.7
		c-0.6-0.8-0.4-1.2,0.4-1.5c1.8-0.3,2.8-1,3-1.9c0.5-2,0.6-4,0.3-6c0-0.3-0.1-0.5-0.4-0.5c0,0-0.1,0-0.1,0H391
		c-0.1,1.8-0.4,3.5-1,5.1c-0.5,1-1.1,2-1.8,2.8c-1,1.1-2.1,2.1-3.2,3c-0.5,0.3-0.9,0.3-1.2,0l-1.7-1.5c-0.3-0.3-0.3-0.8,0-1.1
		c0,0,0.1-0.1,0.1-0.1c1.1-1,2.1-1.8,2.8-2.5c0.8-0.8,1.4-1.8,1.8-2.8c0.5-1.2,0.8-4.3,0.8-9.4h-4.6c-0.5,0-0.8-0.1-0.8-0.4
		L382.1,39.4z"/>
	<path class="st0" d="M420.5,35.2c0.3,0.1,0.4,0.4,0.1,0.8h5c0.4,0,0.5,0.2,0.5,0.5v1.8c1-1.4,1.8-2.6,2.4-3.5
		c0.2-0.3,0.5-0.3,1.1-0.1l1.6,0.5c0.3,0.1,0.4,0.4,0.1,0.8h6.4c0.4,0,0.6,0.2,0.6,0.5v1.8c0,0.4-0.2,0.6-0.6,0.6h-4l0.7,1.5
		c0.2,0.4,0,0.6-0.3,0.7l-2,0.4c-0.5,0-0.8-0.1-0.9-0.4l-0.9-2.2h-0.7c-0.7,1-1.5,2-2.3,3c-0.4,0.6-0.9,0.7-1.4,0.4l-1.4-1
		c-0.3-0.2-0.3-0.4,0-0.8l1.2-1.5h-2.5l0.4,1.5c0.1,0.5,0,0.8-0.3,0.8l-1.8,0.4c-0.5,0.1-0.9-0.1-1-0.4l-0.9-2.3h-0.3
		c-0.7,1.5-1.7,2.8-3,3.9c-0.4,0.3-0.9,0.3-1.3,0l-1.3-1c-0.2-0.2-0.2-0.4,0.1-0.7c1.6-1.7,2.8-3.7,3.6-5.9c0.2-0.6,0.6-0.8,1.2-0.5
		L420.5,35.2z M413.9,47.5V46c0-0.4,0.2-0.6,0.5-0.6h14.1v-3.7c0-0.5,0.2-0.7,0.6-0.7h1.8c0.4,0,0.5,0.3,0.5,0.8v3.6h7
		c0.4,0,0.6,0.2,0.6,0.5v1.8c0,0.2-0.1,0.5-0.4,0.5c0,0-0.1,0-0.1,0h-7c0.1,1.7,0.5,3.4,1.2,5c0.9-1.2,1.5-2.7,1.7-4.1
		c0-0.2,0.2-0.3,0.5-0.3L437,49c0.3,0.1,0.4,0.4,0.3,0.9c-0.5,2.2-1.4,4.3-2.8,6.1c0.6,1,1.1,1.3,1.3,0.9c0.5-0.6,0.9-1.3,1-2.1
		c0-0.3,0.3-0.3,0.7-0.1l1.6,0.6c0.4,0.2,0.5,0.5,0.2,1.2c-0.5,1.3-1.2,2.6-2,3.8c-0.4,0.4-1.2,0.5-2.3,0.1c-1-0.5-2-1.2-2.8-2
		c-1.3,1.1-2.7,1.9-4.3,2.4c-0.5,0.2-0.9,0.1-1.1-0.3l-1.1-1.9c-0.1-0.2,0.1-0.4,0.6-0.6c1.5-0.5,3-1.3,4.2-2.4
		c-1-1.4-1.7-4-2.1-7.5h-14C414.1,48.1,413.9,47.9,413.9,47.5z M415.1,57.5c3.5-0.2,7-0.6,10.5-1.3c0.4,0,0.6,0.1,0.7,0.4l0.3,1.5
		c0,0.1-0.2,0.3-0.6,0.4c-3.2,1-6.5,1.8-9.9,2.3c-0.3,0.1-0.6-0.1-0.7-0.3l-1-2.3C414.2,57.7,414.5,57.5,415.1,57.5L415.1,57.5z
		 M415.1,48.8h4.9c0.4,0,0.7,0.2,0.7,0.5v0.9c0,0.3-0.2,0.4-0.7,0.4h-4.9c-0.5,0-0.7-0.1-0.7-0.4v-0.9
		C414.4,49,414.6,48.8,415.1,48.8z M415.1,51.3h4.9c0.4,0,0.7,0.2,0.7,0.5v0.9c0,0.3-0.2,0.4-0.7,0.4h-4.9c-0.5,0-0.7-0.2-0.7-0.4
		v-0.9C414.4,51.5,414.6,51.3,415.1,51.3z M415.1,53.8h4.9c0.4,0,0.7,0.2,0.7,0.5v0.9c0,0.3-0.2,0.4-0.7,0.4h-4.9
		c-0.5,0-0.7-0.2-0.7-0.4v-0.9C414.4,54,414.6,53.8,415.1,53.8z M417.9,41.1c0-0.3,0.2-0.5,0.7-0.5l1.5,0.1c0.3,0,0.6,0.2,0.6,0.5
		c0,0.1,0,0.2,0,0.2c-0.1,0.5-0.2,0.8-0.2,1.1c0.8,0.2,1.4,0.6,1.9,1.2c0.1,0.1,0.1,0.3,0,0.4l-1.3,1c-0.2,0.1-0.4,0.1-0.6-0.1
		c-0.3-0.2-0.6-0.4-0.9-0.5c-0.3,0.6-0.8,1.2-1.3,1.7c-0.3,0.2-0.7,0.3-1.1,0.1l-1.4-0.7c-0.2-0.1-0.1-0.3,0.1-0.5
		c0.6-0.6,1.1-1.3,1.5-2C417.7,42.4,417.9,41.8,417.9,41.1z M418.6,57.5V48c0-0.4,0.2-0.7,0.6-0.7c0.1,0,0.1,0,0.2,0h0.9
		c0.5,0,0.8,0.2,0.8,0.7v9.5c0.1,0.5-0.2,0.7-0.8,0.7h-0.9C418.8,58.2,418.6,57.9,418.6,57.5L418.6,57.5z M423.6,41.2
		c0-0.3,0.2-0.5,0.7-0.4l1.5,0.1c0.4,0,0.5,0.3,0.5,0.7c0,0.4-0.1,0.8-0.2,1.1c0.8,0.1,1.5,0.6,1.9,1.2c0.1,0.2,0.1,0.3,0,0.4
		l-1.3,1c-0.2,0.1-0.4,0.1-0.5-0.1c-0.3-0.2-0.6-0.4-0.9-0.5c-0.4,0.6-0.8,1.2-1.3,1.7c-0.3,0.3-0.8,0.3-1.1,0.1l-1.4-0.7
		c-0.2-0.1-0.2-0.3,0.1-0.5c0.6-0.6,1.1-1.3,1.5-2C423.4,42.6,423.6,41.9,423.6,41.2L423.6,41.2z M422,57v-9c0-0.3,0.2-0.7,0.5-0.7
		c0.1,0,0.1,0,0.2,0h1c0.5,0,0.8,0.2,0.8,0.7v9c0.1,0.5-0.2,0.7-0.8,0.7h-1c-0.3,0.1-0.7-0.2-0.7-0.5C422,57.1,422,57.1,422,57z
		 M423.4,48.8h4.3c0.4,0,0.6,0.2,0.6,0.5v0.9c0,0.3-0.2,0.4-0.6,0.4h-4.3c-0.5,0-0.7-0.1-0.7-0.4v-0.9C422.7,49,423,48.8,423.4,48.8
		z M423.4,51.3h4.3c0.4,0,0.6,0.2,0.6,0.5v0.9c0,0.3-0.2,0.5-0.6,0.5h-4.3c-0.5,0-0.7-0.2-0.7-0.5v-0.9
		C422.7,51.5,423,51.3,423.4,51.3z M423.6,53.8h4.2c0.4,0,0.6,0.2,0.6,0.5v0.9c0,0.3-0.2,0.4-0.6,0.4h-4.2c-0.5,0-0.7-0.2-0.7-0.4
		v-0.9C422.8,54,423.1,53.8,423.6,53.8L423.6,53.8z M433.6,45c-0.3-0.7-0.7-1.3-1.2-1.8c-0.3-0.3-0.2-0.5,0.3-0.7l1.5-0.5
		c0.3-0.1,0.7,0,0.9,0.3c0.5,0.5,0.9,1,1.2,1.7c0.1,0.4,0.1,0.6-0.1,0.7l-1.5,0.5C434,45.4,433.8,45.3,433.6,45z"/>
	<path class="st0" d="M58,4.9C42.9,4.3,26.3,15.6,21,25.6c-6.9,13-9.2,28.7-2.5,42.2C28.1,87.2,54.7,97,74.7,90
		c24.3-8.4,33.6-37.6,23.3-60.6C98.1,29.5,91.3,6.3,58,4.9z"/>
	<path d="M58,1.9C46.2,1.7,34.7,7,26,14.7c-8.5,7.6-12.9,18.9-14.2,30.1C9.2,68.1,25,87.4,47,93.4c20.1,5.5,41.8-1.7,52.1-20.4
		c8-14.6,7.5-31.7,0.9-46.7C92.8,9.9,74.8,2.8,58,1.9c-3.9-0.2-3.8,5.8,0,6c13.7,0.7,27.9,5.8,35.2,18.2c5.7,10.2,7.4,22.1,4.7,33.5
		c-4.3,17.7-19.4,30-37.8,29.7C41.2,89,22,76.7,18.2,57.3c-2.2-11.5,0.9-26.1,8.8-35c7.6-8.7,19.4-14.6,31-14.4
		C61.8,8,61.8,2,58,1.9z"/>
	<circle cx="55.6" cy="54.4" r="2"/>
	<path d="M56.2,48.3c-3.6-0.4-7.9,0.5-8.5,4.8s2.8,7.2,6.7,7.3c3.6,0.1,7.2-1,7.4-5c0.2-3.3-2-6.3-5.3-7c-1.9-0.4-2.7,2.5-0.8,2.9
		c1.6,0.3,2.8,1.5,3.1,3c0.1,0.8,0,1.6-0.3,2.3c-0.6,0.8-2.5,0.8-3.4,0.9c-2.3,0.1-5.3-1.4-4.5-4.2c0.7-2.4,3.5-2.2,5.4-1.9
		S58.1,48.5,56.2,48.3z"/>
	<path d="M75.7,48.3c-3.6-0.4-7.9,0.5-8.5,4.8s2.8,7.2,6.7,7.3c3.6,0.1,7.3-1,7.4-5c0.2-3.3-2-6.3-5.3-7c-1.9-0.4-2.7,2.5-0.8,2.9
		c2,0.3,3.4,2.1,3.2,4.1c-0.1,0.4-0.2,0.8-0.3,1.1c-0.6,0.8-2.5,0.8-3.4,0.9c-2.3,0.2-5.3-1.3-4.5-4.1c0.7-2.4,3.5-2.2,5.4-1.9
		S77.6,48.5,75.7,48.3z"/>
	<circle cx="75.4" cy="54.4" r="1.9"/>
	<path d="M57.3,44.8h0.4c0.3,0,0.1,0-0.1,0c-0.4-0.2-0.6-0.6-0.5-1c0-0.1,0.1-0.1,0.1-0.2l0.4-0.4h0.1c-0.3,0.1,0.3,0,0,0h-0.3h-0.3
		c0,0-0.4,0-0.2,0s-0.1,0-0.2-0.1h0.1c-0.1,0-0.1-0.1-0.2-0.1l0.1,0.1c-0.2-0.2-0.1-0.1,0.2,0.3l-0.1,0.8c-0.3,0.2-0.3,0.3-0.2,0.2
		c-0.3,0.2-0.2,0,0,0H57h-0.2c0.3,0.3-0.4-0.4-0.2-0.1l-0.4-1.5c-0.1,0.3,0.4-0.5,0.4-0.5c-0.2,0.1,0,0,0.1,0s-0.1,0,0.1,0
		c0.2,0,0.3,0.1,0.4,0.2l-0.7,2.5l0.2-0.1c0.8-0.2,1.3-1,1.1-1.8c-0.2-0.8-1-1.3-1.8-1.1c0,0-0.1,0-0.1,0l-0.2,0.1
		c-0.8,0.2-1.3,1.1-1,1.9c0.1,0.2,0.2,0.5,0.4,0.6c1.3,1.3,4,0.6,4-1.4s-2.9-2.1-4.1-1.4c-0.9,0.4-1.3,1.4-1.1,2.3
		c0.3,0.8,1,1.4,1.8,1.7c1.2,0.5,2.5,0.4,3.5-0.3c0.8-0.7,1-1.9,0.4-2.8c-0.6-0.8-1.5-1.2-2.5-1c-0.8,0-1.5,0.7-1.5,1.5
		S56.4,44.8,57.3,44.8L57.3,44.8z"/>
	<path d="M71.7,44.8h0.4c0.3,0,0.1,0-0.1,0c-0.4-0.2-0.6-0.6-0.5-1c0-0.1,0.1-0.1,0.1-0.2l0.4-0.4h0.1c-0.3,0.1,0.3,0,0,0h-0.3h-0.3
		c0,0-0.4,0-0.2,0s-0.1,0-0.2-0.1h0.1L71.1,43l0.1,0.1c-0.2-0.2-0.1-0.1,0.2,0.3l-0.1,0.8c-0.3,0.2-0.3,0.3-0.2,0.2
		c-0.3,0.2-0.2,0,0,0h0.3h-0.2c0.3,0.3-0.4-0.4-0.2-0.1l-0.4-1.5c-0.1,0.3,0.4-0.5,0.4-0.5c-0.2,0.1,0,0,0.2,0s-0.1,0,0.1,0
		c0.2,0,0.3,0.1,0.4,0.2l-0.7,2.5l0.2-0.1c0.8-0.3,1.2-1.1,1-1.8c-0.2-0.8-1.1-1.2-1.8-1l-0.2,0.1c-0.8,0.2-1.3,1.1-1,1.9
		c0.1,0.2,0.2,0.4,0.4,0.6c1.3,1.3,4,0.6,4-1.4s-2.9-2.1-4.1-1.4c-0.9,0.4-1.3,1.4-1.1,2.3c0.3,0.8,1,1.4,1.8,1.7
		c1.2,0.5,2.5,0.4,3.5-0.3c0.8-0.7,1-1.9,0.4-2.8c-0.6-0.8-1.5-1.2-2.5-1c-0.8,0-1.5,0.7-1.5,1.5S70.8,44.9,71.7,44.8L71.7,44.8z"/>
	<path d="M64.9,54c0.3,0.9,0.4,1.9,0.4,2.9c0,0.2,0,0.5,0,0.7s0,0.2,0.1,0c-0.1,0-0.3,0-0.4,0c0.2,0.3,0.3,0.2,0.3-0.1L64.2,59h0.1
		c1.9-0.4,1.1-3.3-0.8-2.9h-0.1c-0.6,0.2-1.1,0.8-1.1,1.4c-0.3,2.6,2.7,4,4.7,2.7s1.2-5,0.7-7S64.5,52.1,64.9,54L64.9,54z"/>
	<path d="M21.6,70.5c1.8-1.9,3.9-4.1,4.8-6.7c0.8-2.3,0.6-4.9,1.2-7.3c1.4-6,2.1-12.3,5-17.9c6.7-12.9,21.9-12.1,34.2-9
		c6,1.5,12.2,5,15.4,10.4c3.6,6.2,2.8,13.2,2.1,19.9c-0.7,7.3,0.6,14.9,0.7,22.3c0,3.9,6,3.9,6,0c0-4.6-0.4-9.2-0.6-13.9
		c-0.3-5.6,0.5-11,0.6-16.6c0.2-13.3-8.5-23.8-21.1-27.5C58.3,20.8,42.7,19.1,33,28c-5.1,4.7-6.7,10.9-9.3,17
		c-3,7-0.8,15.3-6.4,21.2C14.7,69,19,73.3,21.6,70.5L21.6,70.5z"/>
	<path d="M65.9,70c0.3-0.1,0.6-0.1,0.9,0c0,0,0.1,0.1,0.1,0.2c0.2,0.4,0.2,0.8,0.1,1.2c0,0.2-0.1,0.5-0.2,0.7
		c-0.1,0.1-0.2,0.2-0.3,0.3c0,0-0.1,0-0.2,0c-0.3-0.1-0.7-0.3-0.9-0.6c-0.6-0.6-1.6-0.6-2.1,0c-0.1,0.1-0.2,0.2-0.2,0.3
		c-0.3,0.4-0.7,1.1-1.1,1.2c0.1,0-0.1,0-0.2-0.1c-0.1-0.1-0.3-0.2-0.4-0.3c-0.3-0.3-0.4-0.7-0.5-1.2c0,0.1,0-0.1,0-0.1
		c-0.1-0.2,0,0,0,0s0.2-0.2-0.1,0c-0.1,0-0.3,0.2,0,0.1c1.8-0.8,0.2-3.4-1.5-2.6c-2.3,1.1-1.3,4.4,0,5.9c0.7,0.9,1.8,1.4,3,1.4
		c1.6-0.1,2.7-1.4,3.5-2.7l-2.3,0.3c1.2,1,2.6,1.8,4.2,1.3c1.2-0.5,2.1-1.5,2.4-2.8c0.7-2.7-1-5.7-4-5.4c-0.8,0-1.5,0.7-1.5,1.5
		C64.4,69.3,65.1,70,65.9,70L65.9,70z"/>
	<path class="st0" d="M60.9,35.9c-4.5-1.1-10-1.8-10-7.5c-0.1-6.2,2.9-12.6,9-14.6c5.1-1.7,13.4,0.7,16.6,5.1
		c3.4,4.8,0.9,11.9-3.6,14.9C72.9,33.8,67.3,37.5,60.9,35.9z"/>
	<path d="M61.7,33c-1.8-0.4-4.3-0.7-6-1.7c-2.6-1.8-2-5.3-1.1-8c2-5.8,7.1-8,12.8-6.5c5.5,1.4,9.8,6,6.3,11.7
		C71.3,32.5,66.2,33.8,61.7,33c-3.8-0.7-5.4,5.1-1.6,5.8c7.7,1.4,16.2-1.3,19.6-8.8c4.1-8.9-1.9-16.7-10.6-19s-17,1.5-20,10.1
		c-1.3,3.7-2,8.8,0.2,12.2c2.3,3.7,6.9,4.5,10.9,5.5C63.9,39.7,65.5,33.9,61.7,33z"/>
	<path d="M64,29.9c3.6,0.2,6.7-2.1,6.1-5.9c-0.4-3.1-3-4.5-5.9-4.5c-2.7-0.1-5.1,1.9-5.3,4.7c-0.3,2.9,2,4.9,4.6,5.7
		c1.8,0.6,2.6-2.3,0.8-2.9c-1-0.3-2.3-1-2.4-2.2c-0.2-1.1,0.6-2.1,1.7-2.3c0.1,0,0.3,0,0.4,0c0.2,0,1.4,0,0.7,0
		c0.9,0.1,1.7,0.2,2.2,1c1.3,2.3-0.9,3.5-2.9,3.4S62,29.8,64,29.9z"/>
	<path class="st0" d="M66.2,60.1c4.7,0,8.5,3,10.8,7c-3.1,1-9.4-1.9-12.5-1.8c-5.3,0.2-8,1.3-11.5,2.5c-0.2-3.3,3.1-6.3,6.4-7.9
		c1.8-0.8,5.7-1.9,6.8,0.6"/>
	<path d="M66.2,61.6c4.3,0.3,7.3,2.7,9.5,6.3l0.9-2.2c-4,0.8-8.1-1.8-12.1-1.8s-8.1,1.2-11.9,2.5l1.9,1.4c0.2-2.3,7.5-10.8,10.4-6.6
		c1.1,1.6,3.7,0.1,2.6-1.5c-4.8-6.8-15.5,2.1-16,8.1c0,0.8,0.7,1.5,1.5,1.5c0.1,0,0.3,0,0.4-0.1c4.5-1.5,9-3,13.8-2
		c3.4,0.7,6.6,2,10.2,1.3c0.8-0.2,1.3-1.1,1-1.9c0-0.1-0.1-0.2-0.1-0.3c-2.8-4.5-6.7-7.4-12.1-7.8C64.3,58.5,64.3,61.5,66.2,61.6
		L66.2,61.6z"/>
</g>
</svg>
