<svg xmlns="http://www.w3.org/2000/svg" viewBox="0 0 30.41 32.33"><title>checkbox-checked</title><path d="M5.05,3.81C3.74,7.31,2,21.73,4,25.19,7.34,30.9,19.13,29,25.89,28.61c.21-4.44,2.53-19.27-.38-22.76-3.49-4.2-16.35-2-21.46-2"/><path d="M2.15,3A48.63,48.63,0,0,0,.28,14.51c-.28,3.65-.74,8.26.89,11.68,4,8.47,17.42,5.85,24.72,5.42a3.08,3.08,0,0,0,3-3c.43-6.95,3.62-18.09-.79-24.27C23.31-2.39,10.89.69,4.05.81c-3.86.06-3.87,6.06,0,6,4.35-.08,17.16-3,19.46,1.74,1.28,2.63.44,7.37.25,10.17-.23,3.3-.67,6.59-.87,9.89l3-3c-4.82.29-17.75,3.1-19.6-3.08-1.48-5,0-13.1,1.65-17.93C9.17.93,3.37-.64,2.15,3Z"/></svg>