<svg xmlns="http://www.w3.org/2000/svg" viewBox="0 0 491.18 79.37"><defs><style>.cls-1{fill:#d1ccc7;}</style></defs><title>legend</title><g id="圖層_1" data-name="圖層 1"><path d="M263.66,32.88a25,25,0,0,0-1,5.89c-.14,1.86-.38,4.22.45,6,2.06,4.32,8.92,3,12.64,2.76a1.54,1.54,0,0,0,1.5-1.5c.22-3.55,1.86-9.27-.4-12.43-2.45-3.43-8.81-1.85-12.3-1.79-1.93,0-1.93,3,0,3,2.25,0,8.84-1.54,10,.92.65,1.36.22,3.78.13,5.23-.12,1.69-.35,3.38-.45,5.07l1.5-1.5c-2.49.15-9.13,1.59-10.08-1.61-.77-2.56,0-6.73.84-9.21.61-1.84-2.28-2.62-2.89-.8Z"/><path d="M314,32.88a25,25,0,0,0-1,5.89c-.14,1.86-.38,4.22.45,6,2.06,4.32,8.92,3,12.64,2.76a1.54,1.54,0,0,0,1.5-1.5c.22-3.55,1.86-9.27-.39-12.43-2.45-3.43-8.81-1.85-12.3-1.79-1.93,0-1.94,3,0,3,2.25,0,8.83-1.54,10,.92.65,1.36.23,3.78.13,5.23-.12,1.69-.34,3.38-.45,5.07l1.5-1.5c-2.49.15-9.12,1.59-10.08-1.61-.76-2.56,0-6.73.84-9.21.62-1.84-2.28-2.62-2.89-.8Z"/><path d="M288.43,32.88a24.49,24.49,0,0,0-1,5.89c-.15,1.86-.38,4.22.45,6,2.05,4.32,8.91,3,12.64,2.76a1.54,1.54,0,0,0,1.5-1.5c.22-3.55,1.86-9.27-.4-12.43-2.45-3.43-8.81-1.85-12.3-1.79-1.93,0-1.93,3,0,3,2.25,0,8.83-1.54,10,.92.66,1.36.23,3.78.13,5.23-.11,1.69-.34,3.38-.44,5.07l1.5-1.5c-2.5.15-9.13,1.59-10.09-1.61-.76-2.56,0-6.73.85-9.21.61-1.84-2.28-2.62-2.89-.8Z"/><path d="M44.37,33.28c-.67,1.8-1.57,9.19-.54,11,1.71,2.92,7.75,1.92,11.22,1.75.11-2.28,1.3-9.88-.19-11.67-1.79-2.15-8.39-1-11-1"/><path d="M42.92,32.88a25,25,0,0,0-1,5.89c-.14,1.86-.38,4.22.45,6,2.06,4.32,8.92,3,12.64,2.76a1.54,1.54,0,0,0,1.5-1.5c.22-3.55,1.86-9.27-.4-12.43-2.45-3.43-8.81-1.85-12.3-1.79-1.92,0-1.93,3,0,3,2.25,0,8.84-1.54,10,.92.65,1.36.23,3.78.13,5.23-.12,1.69-.34,3.38-.45,5.07l1.5-1.5c-2.49.15-9.13,1.59-10.08-1.61-.77-2.56,0-6.73.84-9.21.61-1.84-2.28-2.62-2.89-.8Z"/><path d="M94.71,33.28c-.67,1.8-1.57,9.19-.53,11,1.7,2.92,7.75,1.92,11.21,1.75.12-2.28,1.3-9.88-.19-11.67-1.79-2.15-8.38-1-11-1"/><path d="M93.26,32.88a25,25,0,0,0-1,5.89c-.14,1.86-.38,4.22.46,6,2,4.32,8.91,3,12.63,2.76a1.54,1.54,0,0,0,1.5-1.5c.23-3.55,1.86-9.27-.39-12.43-2.45-3.43-8.81-1.85-12.3-1.79-1.93,0-1.94,3,0,3,2.25,0,8.83-1.54,10,.92.65,1.36.23,3.78.13,5.23-.12,1.69-.34,3.38-.45,5.07l1.5-1.5c-2.49.15-9.12,1.59-10.08-1.61-.76-2.56,0-6.73.85-9.21.61-1.84-2.29-2.62-2.9-.8Z"/><path d="M69.13,33.28c-.67,1.8-1.57,9.19-.53,11,1.71,2.92,7.75,1.92,11.22,1.75.11-2.28,1.3-9.88-.19-11.67-1.79-2.15-8.39-1-11-1"/><path d="M67.69,32.88a25,25,0,0,0-1,5.89c-.14,1.86-.38,4.22.45,6,2.06,4.32,8.92,3,12.64,2.76a1.54,1.54,0,0,0,1.5-1.5c.22-3.55,1.86-9.27-.4-12.43-2.45-3.43-8.81-1.85-12.3-1.79-1.93,0-1.93,3,0,3,2.25,0,8.83-1.54,10,.92.66,1.36.23,3.78.13,5.23-.11,1.69-.34,3.38-.44,5.07l1.5-1.5c-2.49.15-9.13,1.59-10.09-1.61-.76-2.56,0-6.73.85-9.21.61-1.84-2.28-2.62-2.89-.8Z"/><path d="M139.2,32.74V34.4h-2.26V46.3c0,1.29-.63,1.94-1.86,1.94h-3l-.4-1.65c1,0,1.93.09,2.83.09.48,0,.74-.27.74-.81V34.4H123V32.74Zm-6.87,10.93h-5.68v1.48H125V36.74h7.31Zm-1.62-1.55V38.27h-4.06v3.85Z"/><path d="M145,32V43.94a36.44,36.44,0,0,0,3.71-1.82l.51,1.62a42.94,42.94,0,0,1-6.68,3l-.6-1.66c.45-.14.9-.3,1.35-.47V32Zm6.61,6.61-1.46,1a39,39,0,0,0-3.58-5.12l1.46-.88A40.11,40.11,0,0,1,151.64,38.63Zm-3.11,9.56-1.16-1.41a12.73,12.73,0,0,0,5.89-6.5,28.39,28.39,0,0,0,1.12-8.4h1.76A29.09,29.09,0,0,1,155,40.57c-.07.24-.16.47-.24.71a40.54,40.54,0,0,1,3.6,5.36L157.06,48a35.56,35.56,0,0,0-3-5.09A14.69,14.69,0,0,1,148.53,48.19Z"/><path d="M164.92,38.79,163.7,40a17.49,17.49,0,0,0-3.15-2.53l1.22-1.19A22.79,22.79,0,0,1,164.92,38.79Zm.22,3a59.3,59.3,0,0,1-2.74,6.39l-1.67-.74a50.37,50.37,0,0,0,2.93-6.23Zm.5-7.15-1.22,1.25a18.1,18.1,0,0,0-3.37-2.76l1.21-1.17A23.74,23.74,0,0,1,165.64,34.61Zm2,11.74c1.06-.2,2-.39,2.79-.61l.29,1.5a45,45,0,0,1-5,.91l-.45-1.44a1,1,0,0,0,.76-1.06V39.94h1.62V41.8h3v1.51h-3Zm7.83-14v7H166.2v-7Zm-1.62,2.79V33.75h-6.07v1.37Zm0,1.38h-6.07v1.37h6.07Zm-.67,11.62c-1.29,0-1.94-.62-1.94-1.8V40h1.62V41.9l3.56-.3v1.51l-3.56.31V46c0,.38.25.58.79.58h1.08a.69.69,0,0,0,.6-.27,4.16,4.16,0,0,0,.3-1.73l1.5.47c-.15,1.47-.38,2.37-.71,2.66a2,2,0,0,1-1.4.42Z"/><path d="M184.31,32c1.06,1.08,2.07,2.22,3,3.39l-1.06,1.13c-.4-.5-.74-1-1-1.33v1.21h-3.39v-.76c-.45.47-.92.94-1.4,1.37l-.9-1.24A21.58,21.58,0,0,0,182.82,32Zm2.18,14.26a25.83,25.83,0,0,0,1.11-8v-5.8h8.22v1.58h-6.56V37h6v1.12a13.23,13.23,0,0,1-1.84,6.12,11.4,11.4,0,0,0,2.73,2.68l-.81,1.42a11.37,11.37,0,0,1-2.89-2.72,14.48,14.48,0,0,1-3.05,2.76l-1.08-1.23a12.42,12.42,0,0,0,3.19-3,16.3,16.3,0,0,1-1.78-5.76h-.49a25.08,25.08,0,0,1-1.91,10l-1-.9-.77.34c-.13-.34-.25-.67-.36-1a40.94,40.94,0,0,1-4.68,1.22l-.45-1.28c.28-.11.43-.27.43-.48V37.35h5.71v6.7h-4.15v2.34c1-.25,1.82-.49,2.58-.72-.18-.38-.36-.72-.54-1.05l1.35-.45C185.84,44.84,186.18,45.52,186.49,46.24Zm-1.82-7.4h-2.58v1.21h2.58Zm-2.58,3.69h2.58V41.38h-2.58Zm3-7.49a19.8,19.8,0,0,0-1.44-1.6c-.42.56-.85,1.1-1.3,1.6Zm8.64,3.39h-2.54a13.86,13.86,0,0,0,1.26,4.23A12,12,0,0,0,193.78,38.43Z"/><path d="M204.2,36.54A14.73,14.73,0,0,0,207,31.7l1.6.36c-.25.66-.5,1.29-.79,1.9h6.68v1.66h-7.56a17.32,17.32,0,0,1-1.62,2.25l-1.1-1.3v10h-1.62v-1h-1.91V47H199V33.08h5.2Zm-1.62,7.4V34.7h-1.91v9.24ZM213.06,38v1.49c-1.57,1.48-2.76,2.69-3.57,3.6A21.09,21.09,0,0,0,207.91,45a2,2,0,0,0-.42,1c0,.36.24.54.71.54h3.74a1,1,0,0,0,.9-.43,8.45,8.45,0,0,0,.42-2.79l1.6.58c-.16,2-.47,3.2-.92,3.6a3,3,0,0,1-2,.61H207.8c-1.44,0-2.16-.6-2.16-1.78a2.3,2.3,0,0,1,.49-1.3,21,21,0,0,1,1.81-2.41c.74-.9,1.66-1.91,2.74-3h-4.75V38Z"/><path d="M358.34,32.58v1.67h-5.83c-.33.69-.67,1.35-1.05,2V37a38.27,38.27,0,0,1,7.33,5.34l-1.17,1.42a32.24,32.24,0,0,0-6.16-5V48.4H349.7V38.66a25.21,25.21,0,0,1-6.3,5.17l-1.14-1.49q5.94-3.36,8.32-8.09h-7.76V32.58Z"/><path d="M362,37.26l-.9-1.42A47.2,47.2,0,0,0,369,31.77h1a45.8,45.8,0,0,0,7.84,4.05l-.9,1.44-1-.47v4.79H363V36.81C362.69,37,362.35,37.1,362,37.26Zm11.05-1.91V36h-7.22v-.63c-.86.45-1.78.9-2.73,1.37h12.74Q374.36,36.06,373.08,35.35Zm2.2,13h-1.64v-.57h-8.3v.59H363.7v-6.1h11.58ZM368.71,38h-4.13v2.29h4.13Zm4.93,6.4v-.85h-8.3v.85Zm0,2V45.6h-8.3v.88Zm-6-6.57-1.13.28a10.14,10.14,0,0,0-.86-1.71l1.13-.36A10.63,10.63,0,0,1,367.64,39.91Zm1.84-6.7c-.77.5-1.6,1-2.48,1.55h5C371.07,34.22,370.24,33.71,369.48,33.21Zm4.9,4.82h-4.12v2.29h4.12Zm-1.1.4a6.69,6.69,0,0,1-.85,1.76l-1.11-.41a7.79,7.79,0,0,0,.83-1.64Z"/><path d="M382.82,42.12a21.11,21.11,0,0,1-1.46,4.29L380,45.9a19.35,19.35,0,0,0,1.46-4.16Zm.9-8.66a10,10,0,0,0-.78-1.42l1.84-.29c.22.5.45,1.08.68,1.71h3.21V35h-8.3V33.46Zm4.08,2.7v4.77h-2.5v5.66a1.42,1.42,0,0,1-1.58,1.62h-1.35L382,46.66a6.67,6.67,0,0,0,1.15.11c.32,0,.5-.2.5-.58V40.93h-2.61V36.16Zm-1.56,1.44h-3.6v1.89h3.6Zm2.12,7.4-1.37.52a25.48,25.48,0,0,0-1.17-3.45l1.39-.36A28.44,28.44,0,0,1,388.36,45Zm3.37-13.23v4.07h4.43v1.6h-4.45q-.21,7.26-3.24,10.71l-1.21-1.06q2.69-3.11,2.87-9.65h-1.64v-1.6h1.66V31.77Zm1.89,16.31c-.95,0-1.42-.52-1.42-1.57V38.37h1.56v7.82a.32.32,0,0,0,.35.36h.59c.18,0,.31-.13.4-.38a10.73,10.73,0,0,0,.21-2.5l1.5.47a8.67,8.67,0,0,1-.61,3.42,1.49,1.49,0,0,1-1.23.52Zm2.14-13.54-1.24.86a19.55,19.55,0,0,0-1.94-2.61l1.26-.79A22,22,0,0,1,395.76,34.54Z"/><path d="M399.27,41.38V39.83h16v1.55h-7v1.68h5.05v1.51h-5.05V46.5c.83.07,1.8.1,2.88.1,1.59,0,2.94,0,4-.07l-.47,1.6c-1.26,0-2.41,0-3.42,0a19.23,19.23,0,0,1-6.12-.69,5.49,5.49,0,0,1-2.36-2.16,10.31,10.31,0,0,1-2.59,3.1L399.16,47a9.47,9.47,0,0,0,3.31-5.12l1.62.27c-.18.65-.37,1.25-.59,1.82a4.85,4.85,0,0,0,2.41,2.13c.22.07.45.12.72.19V41.38Zm13.65-9.09v6.5H401.74v-6.5Zm-1.7,2.57V33.75h-7.79v1.11Zm0,1.35h-7.79v1.12h7.79Z"/><path d="M433.94,32.58v1.67h-5.83c-.33.69-.67,1.35-1.05,2V37a38.27,38.27,0,0,1,7.33,5.34l-1.17,1.42a32.24,32.24,0,0,0-6.16-5V48.4H425.3V38.66a25.21,25.21,0,0,1-6.3,5.17l-1.14-1.49q5.94-3.36,8.32-8.09h-7.76V32.58Z"/><path d="M437.63,37.26l-.9-1.42a47.2,47.2,0,0,0,7.83-4.07h1a45.43,45.43,0,0,0,7.84,4.05l-.9,1.44-1-.47v4.79H438.62V36.81C438.29,37,438,37.1,437.63,37.26Zm11.05-1.91V36h-7.22v-.63c-.86.45-1.78.9-2.73,1.37h12.74Q450,36.06,448.68,35.35Zm2.2,13h-1.64v-.57h-8.3v.59H439.3v-6.1h11.58ZM444.31,38h-4.13v2.29h4.13Zm4.93,6.4v-.85h-8.3v.85Zm0,2V45.6h-8.3v.88Zm-6-6.57-1.13.28a10.14,10.14,0,0,0-.86-1.71l1.13-.36A10.63,10.63,0,0,1,443.24,39.91Zm1.84-6.7c-.77.5-1.6,1-2.48,1.55h5C446.67,34.22,445.84,33.71,445.08,33.21ZM450,38h-4.12v2.29H450Zm-1.1.4a6.69,6.69,0,0,1-.85,1.76l-1.11-.41a7.79,7.79,0,0,0,.83-1.64Z"/><path class="cls-1" d="M2.2,78.25c13.09,2.46,26.81.11,40.13,0q15.53-.15,31.07-.2,52.59-.27,105.17-.41,64.92-.21,129.84-.38,57.75-.15,115.51-.28,31.09-.07,62.2-.13h2.06a3,3,0,0,0,3-3V3a3,3,0,0,0-3-3q-26.32,0-52.64.1Q380.33.22,325.12.37,260.27.53,195.44.74q-55.37.17-110.75.41C67,1.23,49.25.89,31.58,1.57,22.33,1.92,13,3.35,3.8,1.63A3,3,0,0,0,0,4.52V75.36c0,3.86,6,3.87,6,0V4.52L2.2,7.41c13.09,2.46,26.81.11,40.13,0q15.53-.14,31.07-.2Q126,6.93,178.57,6.79q64.92-.21,129.84-.38l115.51-.28Q455,6.06,486.12,6h2.06l-3-3V73.84l3-3q-26.32,0-52.64.1-55.21.12-110.42.27-64.85.17-129.68.36-55.37.18-110.75.41c-17.68.09-35.44-.25-53.11.42-9.25.36-18.59,1.79-27.78.07C0,71.76-1.59,77.54,2.2,78.25Z"/></g></svg>