<svg xmlns="http://www.w3.org/2000/svg" viewBox="0 0 107.75 107.45"><defs><style>.a{fill:#f3eee8;}</style></defs><title>bubble-2-head</title><path class="a" d="M53.47,3C35.92,2.25,16.69,15.43,10.53,27c-8,15.12-10.65,33.33-2.89,49.1,11.12,22.59,42,34,65.33,25.86,28.24-9.81,39-43.67,27.11-70.41C100.08,31.56,92.19,4.67,53.47,3Z"/><path d="M53.47,0c-13.6-.28-27,5.89-36.93,14.92S1.51,37.33.24,50.47C-2.39,77.61,17,99.64,42.57,105.82c23.16,5.59,47.6-3.33,58.87-25,8.7-16.7,8-36.12.37-53C93.37,9.12,72.82,1,53.47,0c-3.86-.2-3.84,5.8,0,6,16.21.85,33,6.89,41.49,21.6A54.91,54.91,0,0,1,100.33,67c-5.11,20.46-22.61,34.78-43.87,34.61-21.79-.18-44.27-13.89-49.38-36C3.89,51.78,7.45,34,16.89,23.11,25.82,12.86,39.77,5.73,53.47,6,57.34,6.09,57.34.09,53.47,0Z"/><circle cx="46.83" cy="58.59" r="2.32"/><path d="M47.6,51.39c-4.06-.51-9.11.52-9.8,5.35S41,65,45.5,65.14c4.1.15,8.33-1.08,8.55-5.65a7.68,7.68,0,0,0-6-8.05c-1.88-.43-2.68,2.46-.8,2.89a4.91,4.91,0,0,1,3.92,3.78A4.79,4.79,0,0,1,50.68,61c-.77,1-3,1-4.18,1.09-3,.22-6.6-1.71-5.61-5.22.83-3,4.25-2.78,6.71-2.47C49.51,54.62,49.5,51.62,47.6,51.39Z"/><path d="M70.7,51.39c-4.06-.51-9.12.52-9.8,5.35s3.19,8.24,7.69,8.4c4.11.15,8.34-1.08,8.56-5.65a7.7,7.7,0,0,0-6.05-8.05c-1.88-.43-2.68,2.46-.8,2.89a4.89,4.89,0,0,1,3.91,3.78A4.72,4.72,0,0,1,73.77,61c-.76,1-3,1-4.18,1.09-3,.22-6.59-1.71-5.6-5.22.83-3,4.25-2.78,6.71-2.47C72.61,54.62,72.59,51.62,70.7,51.39Z"/><circle cx="70.39" cy="58.59" r="2.32"/><path d="M48.83,46.69h.51c.31,0,.15.09,0,0-.34-.39-.63-.48-.3-1l.34-.33q.31-.1.06,0c-.34.07.3,0-.08,0H49l-.36,0s-.45,0-.22,0-.19-.06-.24-.08h0A2,2,0,0,1,48,45l.08.07c-.18-.2-.14-.11.12.28l-.09.73q-.36.33-.12.18c-.08.15-.2,0,.1,0-.31,0,.13,0,.19,0h.19q.26.08,0,0c-.14-.14-.16-.15-.06,0L48,44.77c-.07.37.35-.37.38-.41-.14.14-.09,0,.07,0s-.18-.08,0,0,.23,0,.33.15L48.11,47l.2-.08a1.54,1.54,0,0,0,1-1.84,1.51,1.51,0,0,0-1.85-1.05l-.2.07a1.52,1.52,0,0,0-.66,2.51c1.32,1.37,4.29.66,4.29-1.46S47.77,43,46.45,43.71a2.2,2.2,0,0,0-1.18,2.47A3,3,0,0,0,47.19,48a4.41,4.41,0,0,0,4-.29,2.27,2.27,0,0,0,.41-3c-.61-1-1.69-1.05-2.73-1.05a1.5,1.5,0,0,0,0,3Z"/><path d="M65.92,46.69h.51c.31,0,.15.09,0,0-.34-.39-.63-.48-.3-1l.34-.33c.21-.07.23-.08.07,0-.35.07.3,0-.09,0H66.1l-.36,0s-.45,0-.22,0-.19-.06-.24-.08h0a2,2,0,0,1-.25-.14l.08.07c-.18-.2-.14-.11.12.28l-.09.73q-.36.33-.12.18c-.08.15-.2,0,.1,0-.3,0,.13,0,.19,0h.19c.17.05.18,0,0,0s-.17-.15-.07,0l-.38-1.46c-.07.37.34-.37.37-.41-.14.14-.09,0,.07,0s-.18-.08,0,0,.23,0,.33.15L65.2,47l.2-.08a1.53,1.53,0,0,0,1-1.84,1.51,1.51,0,0,0-1.85-1.05l-.2.07a1.52,1.52,0,0,0-.66,2.51C65.06,48,68,47.29,68,45.17S64.86,43,63.54,43.71a2.18,2.18,0,0,0-1.17,2.47A3,3,0,0,0,64.28,48a4.44,4.44,0,0,0,4-.29,2.28,2.28,0,0,0,.4-3c-.61-1-1.69-1.05-2.73-1.05a1.5,1.5,0,0,0,0,3Z"/><path d="M58.17,57.79a14.58,14.58,0,0,1,.53,3.48c0,.2.09,1.06-.06,1.17-.46.36-.55-.08-.51-.41L57,63.47l.09,0c1.89-.38,1.09-3.28-.79-2.89l-.1,0A1.54,1.54,0,0,0,55.13,62c-.34,2.85,2.94,4.38,5.21,2.91s1.25-5.72.72-7.95c-.45-1.88-3.34-1.08-2.89.8Z"/><path d="M70.17,68.3c-7.81-1.92-16.83-1.44-24.88-1.44a1.5,1.5,0,0,0,0,3c7.72,0,16.55-.52,24.09,1.33,1.87.46,2.67-2.43.79-2.89Z"/><path d="M95.58,88.63c-.08-5.49-.68-11-.92-16.46-.29-6.72,1.61-13.43.7-20.16C93.17,35.83,80,26.77,64.94,23.69,51.52,21,34.58,20.22,25.28,32.32a35.41,35.41,0,0,0-5.23,8.3C19.2,42.79,18.88,45,18,47.17a32.94,32.94,0,0,0-2.19,5.41c-.84,3.52-.88,7.23-1.59,10.81-.32,1.63-.39,3.31-.7,4.92C13,71,11,72.86,9.22,74.77c-2.66,2.8,1.58,7,4.24,4.24,2.08-2.19,4.52-4.7,5.52-7.64.84-2.47.65-5.28,1.23-7.84.7-3.13.72-6.25,1.33-9.36s2.68-6.58,3.63-9.83c1.95-6.59,7-11.49,13.09-14.26,6.79-3.07,16.19-2.42,23.4-.93C69.32,30.73,75.83,32.67,81.8,38c5.8,5.15,7.91,12.41,7.69,20-.16,5.57-1,10.89-.71,16.47.27,4.74.73,9.48.8,14.23,0,3.86,6,3.87,6,0Z"/><path d="M59,76.51c1.44-.18,1.9.68,1.63,2a1.64,1.64,0,0,1-.75,1.25.52.52,0,0,1-.41,0A3.46,3.46,0,0,1,58.26,79a1.52,1.52,0,0,0-2.36.3c-.64,1.05-1.47,2.14-2.47.92a3.21,3.21,0,0,1-.68-1.47s0-.44,0-.33c0-.23-.14,0,0,0,1.75-.81.23-3.4-1.52-2.59-2.57,1.18-1.37,4.91,0,6.5a4.13,4.13,0,0,0,3.32,1.53c1.79-.11,3-1.57,3.91-3l-2.35.31c1.29,1.14,2.93,2,4.69,1.48a4.35,4.35,0,0,0,2.67-3.11c.82-3-1-6.42-4.48-6-1.9.23-1.92,3.23,0,3Z"/><path d="M83.38,47.19h-11c-2.45,0-5.5-.67-7.9-.22-3.19.6-4.21,3.09-4.23,6.1,0,3.31-.66,8.09.59,11.22,1.13,2.83,3.81,3.51,6.59,3.88A95.84,95.84,0,0,0,77.83,69c2.26,0,5.13.33,6.5-1.82s1.25-5.95,1.39-8.42a55.07,55.07,0,0,0,0-10.11c-.25-1.89-3.26-1.92-3,0a56.1,56.1,0,0,1-.16,13c-.28,2.57-.07,4.21-2.85,4.41a52.34,52.34,0,0,1-8.39-.47c-2.17-.21-5.83,0-7.25-1.81s-.6-5.58-.66-7.84c0-2-.73-4,1-5.29,1.54-1.15,3.13-.56,4.94-.48,4.67.22,9.38,0,14,0a1.5,1.5,0,0,0,0-3Z"/><path d="M53.74,49.08c0,3.31-.07,6.62,0,9.93.07,3.46.25,6.71-4.42,6.94-2.18.11-4.41-.36-6.6-.39-3.63-.06-7.25.38-10.88.36l1.5,1.5c-.21-4.07-.37-8.14-.43-12.22,0-1.22-.46-4,.19-5.18.9-1.57,2.87-1.31,4.37-1.42,4.63-.34,12.81-1.34,16.32,2.32,1.33,1.39,3.45-.73,2.12-2.12C51.35,44,40.52,44.72,34.59,45.86c-2.53.48-4,1.54-4.53,4.11-1.17,5.35,0,12,.28,17.45a1.52,1.52,0,0,0,1.5,1.5c4.55,0,9.08-.53,13.62-.21,2.79.2,6.41.88,9-.62,2-1.16,2.41-3.08,2.46-5.26.11-4.56-.17-9.18-.17-13.75a1.5,1.5,0,0,0-3,0Z"/><path d="M60.33,53.88a18.09,18.09,0,0,0-5.87-.44,1.5,1.5,0,0,0,0,3,15.4,15.4,0,0,1,5.07.34c1.83.62,2.62-2.28.8-2.9Z"/></svg>