<svg xmlns="http://www.w3.org/2000/svg" viewBox="0 0 107.75 107.45"><defs><style>.a{fill:#f3eee8;}</style></defs><title>bubble-1-head</title><path class="a" d="M53.47,3C35.92,2.25,16.69,15.43,10.53,27c-8,15.12-10.65,33.33-2.89,49.1,11.12,22.59,42,34,65.33,25.86,28.24-9.81,39-43.67,27.11-70.41C100.08,31.56,92.19,4.67,53.47,3Z"/><path d="M53.47,0c-13.6-.28-27,5.89-36.93,14.92S1.51,37.33.24,50.47C-2.39,77.61,17,99.64,42.57,105.82c23.16,5.59,47.6-3.33,58.87-25,8.7-16.7,8-36.12.37-53C93.37,9.12,72.82,1,53.47,0c-3.86-.2-3.84,5.8,0,6,16.21.85,33,6.89,41.49,21.6A54.91,54.91,0,0,1,100.33,67c-5.11,20.46-22.61,34.78-43.87,34.61-21.79-.18-44.27-13.89-49.38-36C3.89,51.78,7.45,34,16.89,23.11,25.82,12.86,39.77,5.73,53.47,6,57.34,6.09,57.34.09,53.47,0Z"/><circle cx="50.72" cy="60.57" r="2.27"/><path d="M51.47,53.69c-4-.5-9,.53-9.63,5.29s3.13,8.1,7.57,8.26c4,.14,8.2-1.08,8.41-5.57a7.56,7.56,0,0,0-6-7.92c-1.88-.44-2.68,2.46-.8,2.89a4.75,4.75,0,0,1,3.81,3.68,4.62,4.62,0,0,1-.42,2.8c-.74.94-3,1-4.08,1.06-2.9.21-6.42-1.67-5.45-5.09.81-2.87,4.15-2.7,6.54-2.4C53.38,56.93,53.36,53.93,51.47,53.69Z"/><path d="M74.1,53.69c-4-.5-9,.53-9.64,5.29s3.14,8.1,7.58,8.26c4,.14,8.19-1.08,8.41-5.57a7.56,7.56,0,0,0-6-7.92c-1.88-.44-2.69,2.46-.8,2.89a4.75,4.75,0,0,1,3.81,3.68,4.62,4.62,0,0,1-.42,2.8c-.74.94-3,1-4.08,1.06-2.9.21-6.42-1.67-5.46-5.09.81-2.87,4.15-2.7,6.55-2.4C76,56.93,76,53.93,74.1,53.69Z"/><circle cx="73.79" cy="60.57" r="2.27"/><path d="M52.68,49.14h.49c.31,0,.14.08,0,0-.35-.39-.63-.51-.31-1.05l.35-.33c.21-.07.23-.08.07,0-.34.07.3,0-.07,0-.13,0-.26,0-.38,0H52.5s-.45,0-.22,0-.17-.06-.23-.08-.08,0,0,0l-.25-.14.09.07c-.18-.2-.14-.1.12.28l-.09.75q-.36.33-.12.18c-.1.16-.2,0,.09,0-.32,0,.11,0,.18,0h.29l-.12,0c.18.05.17,0,0,0s-.17-.16-.07,0l-.38-1.46c-.07.37.35-.39.38-.42-.14.13-.07,0,.08,0s-.14-.06,0,0,.23,0,.33.15L52,49.47l.2-.08a1.53,1.53,0,0,0,1-1.84,1.52,1.52,0,0,0-1.85-1l-.2.07a1.53,1.53,0,0,0-.66,2.51c1.32,1.36,4.26.65,4.26-1.45s-3.13-2.18-4.45-1.46a2.19,2.19,0,0,0-1.16,2.46,3,3,0,0,0,1.9,1.79A4.4,4.4,0,0,0,55,50.14a2.26,2.26,0,0,0,.4-3c-.59-1-1.66-1-2.69-1a1.5,1.5,0,0,0,0,3Z"/><path d="M69.42,49.14h.5c.31,0,.14.08,0,0-.36-.39-.64-.51-.31-1.05l.34-.33c.21-.07.23-.08.07,0-.34.07.3,0-.07,0-.12,0-.25,0-.37,0h-.36s-.45,0-.21,0-.18-.06-.23-.08-.09,0,0,0l-.24-.14.09.07c-.18-.2-.14-.1.12.28l-.1.75q-.36.33-.12.18c-.09.16-.2,0,.09,0-.31,0,.11,0,.18,0h.29l-.11,0c.17.05.17,0,0,0s-.17-.16-.06,0l-.39-1.46c-.07.37.35-.39.38-.42-.13.13-.07,0,.08,0s-.14-.06,0,0,.24,0,.34.15l-.66,2.51.19-.08a1.53,1.53,0,0,0,1-1.84,1.51,1.51,0,0,0-1.84-1l-.2.07a1.52,1.52,0,0,0-.66,2.51c1.31,1.36,4.26.65,4.26-1.45s-3.14-2.18-4.45-1.46a2.2,2.2,0,0,0-1.17,2.46,2.94,2.94,0,0,0,1.91,1.79,4.38,4.38,0,0,0,3.9-.28,2.27,2.27,0,0,0,.41-3c-.6-1-1.67-1-2.7-1a1.5,1.5,0,0,0,0,3Z"/><path d="M61.79,60a14.51,14.51,0,0,1,.53,3.41c0,.16.07,1,0,1.11-.45.36-.5-.07-.47-.37l-1.1,1.44.1,0c1.89-.39,1.09-3.28-.8-2.89l-.09,0a1.55,1.55,0,0,0-1.11,1.45C58.48,67,61.72,68.49,64,67s1.24-5.63.72-7.83c-.44-1.88-3.33-1.08-2.89.8Z"/><path d="M10.89,78.91c2-2.16,4.44-4.61,5.42-7.51s.92-6.27,1.58-9.29.44-6.27,1.45-9.2c.61-1.79,1.69-3.39,2.29-5.2.67-2,.91-3.88,1.9-5.77,4-7.65,11.47-12.8,20.21-12.8,7.53,0,14.36.46,21.66,2.57,7.55,2.17,15.07,7.36,18,14.88,2.72,7,1.73,13.62,1.08,20.81-.76,8.42.8,17.09.88,25.53,0,3.86,6,3.87,6,0,0-5.17-.44-10.35-.69-15.51a143.71,143.71,0,0,1,.49-15.94c.48-7.9-.4-15.91-5.06-22.61-4-5.81-10.87-10.26-17.51-12.46C55,21.91,35.48,19.62,24.34,30.73,18.72,36.33,16.05,44,13.55,51.32c-1.31,3.85-1.27,8.23-2.06,12.22-.32,1.6-.39,3.26-.69,4.84-.5,2.63-2.39,4.43-4.15,6.29-2.65,2.8,1.58,7,4.24,4.24Z"/><path d="M62.65,78.38c1.41-.17,1.84.65,1.58,2a1.57,1.57,0,0,1-.73,1.2.44.44,0,0,1-.38,0,3.6,3.6,0,0,1-1.19-.74,1.51,1.51,0,0,0-2.35.31c-.63,1-1.41,2.07-2.38.9a3.2,3.2,0,0,1-.65-1.44s-.06-.44,0-.31c0-.22-.14,0,0,0,1.75-.81.23-3.39-1.52-2.59-2.53,1.17-1.36,4.85,0,6.42a4.07,4.07,0,0,0,3.27,1.51c1.77-.11,3-1.54,3.87-3l-2.36.3c1.27,1.12,2.89,2,4.63,1.47a4.31,4.31,0,0,0,2.64-3.08c.81-3-1-6.33-4.43-5.92-1.89.23-1.91,3.24,0,3Z"/><path class="a" d="M56.93,39.07C51.72,37.8,45.36,37,45.25,30.35c-.13-7.26,3.38-14.62,10.51-17,5.87-2,15.6.81,19.25,5.9,4,5.59,1.07,13.77-4.22,17.34C70.79,36.59,64.31,40.86,56.93,39.07Z"/><path d="M57.72,36.18c-2.42-.58-5.53-.94-7.6-2.43-2.81-2-2-6.39-1-9.28,2.23-6.77,8.2-9.84,15-8.25s12.35,6.88,8.41,14c-2.87,5.19-9.24,7-14.82,5.95-3.77-.7-5.39,5.08-1.59,5.78,9,1.66,18.85-1.66,22.48-10.61,4.15-10.23-3.07-18.59-12.88-20.92-10-2.38-19.3,2.44-22.43,12.44-1.31,4.19-1.9,9.64.81,13.39s7.75,4.69,12,5.7C59.88,42.85,61.49,37.06,57.72,36.18Z"/><path d="M60.43,31.81c4,.27,7.51-2.32,6.9-6.61-.5-3.49-3.32-5.08-6.6-5a5.61,5.61,0,0,0-5.83,5.19c-.3,3.26,2.21,5.5,5.13,6.39,1.85.57,2.64-2.33.8-2.89-1.29-.39-2.85-1.28-3-2.75a2.6,2.6,0,0,1,2.65-2.93c.22,0,1.5.05.87,0,1.12.09,2.06.25,2.65,1.3,1.6,2.86-1.07,4.5-3.59,4.33C58.5,28.68,58.51,31.68,60.43,31.81Z"/><path class="a" d="M63.11,67.21c5.4,0,9.89,3.45,12.53,8.15-3.6,1.14-10.89-2.2-14.5-2.06-6.18.25-9.35,1.53-13.35,2.86-.17-3.89,3.56-7.3,7.47-9.17,2.07-1,6.58-2.2,7.85.67"/><path d="M63.11,68.71c5.09.32,8.65,3.17,11.24,7.4l.89-2.2c-4.53,1-9.13-1.93-13.66-2.09-4.86-.18-9.64,1.37-14.18,2.89l1.89,1.45c.21-3.22,9.22-12.73,12.53-7.74,1.06,1.6,3.66.1,2.59-1.52-5.2-7.84-17.69,2.59-18.12,9.26a1.52,1.52,0,0,0,1.9,1.45c5.2-1.75,10.62-3.53,16.13-2.37,3.86.82,7.74,2.4,11.72,1.56a1.51,1.51,0,0,0,.9-2.2c-3.19-5.2-7.64-8.5-13.83-8.89-1.93-.12-1.92,2.88,0,3Z"/></svg>