<svg xmlns="http://www.w3.org/2000/svg" viewBox="0 0 778 90"><title>bubble-2-top</title><path d="M775.28,90.34a89.19,89.19,0,0,0-4.29-26c-.38-1.13-.76-2.28-1.14-3.44C763.81,42.63,757,22,731.63,16.75,715.06,13.35,697,13,679.5,12.68c-5.38-.1-10.94-.21-16.26-.4-26.86-1-54.2-2.1-80.64-3.18C521.19,6.59,457.69,4,395.12,3c-20.59-.34-41.52.28-61.75.88-29.57.88-60.15,1.79-90.16-.29C223,2.18,199.76,2,172.09,2.92c-11.08.37-22,1-32.52,1.69-15.65.95-31.84,1.95-48.31,1.95-37.06,0-62,3.06-64.06,3.32C1.57,21,2,57.42,2.36,84c0,2.18.05,4.3.07,6.33h-2c0-2,0-4.14-.07-6.31C0,56.84-.45,19.61,26.54,8l.26-.07c.25,0,25.8-3.36,64.46-3.36,16.41,0,31.85-.94,48.19-1.94C150,2,160.91,1.3,172,.92c27.75-.94,51.08-.73,71.33.65,29.91,2.07,60.44,1.16,90,.29,20.26-.6,41.2-1.23,61.85-.89,62.58,1,126.1,3.63,187.52,6.14,26.44,1.08,53.78,2.2,80.64,3.18,5.3.19,10.85.3,16.21.4,17.58.33,35.76.67,52.5,4.1,26.46,5.44,33.51,26.7,39.72,45.46.38,1.15.76,2.3,1.14,3.43a91.39,91.39,0,0,1,4.39,26.63Z"/></svg>