<svg xmlns="http://www.w3.org/2000/svg" viewBox="0 0 788 190"><defs><style>.a{fill:#d1ccc7;}</style></defs><title>bubble-border</title><path class="a" d="M786,121.74A161.68,161.68,0,0,0,784.8,101h0V90h0c0-9.17.07-18.21-2.95-27.36-6.55-19.77-9.62-42.78-37.15-48.52-21.88-4.56-46.28-3.73-68.58-4.56-89.23-3.3-178.7-8-268.29-9.47C402.88,0,394.94,0,390,0H380c-46,.14-91.77,5.19-137.44,2C219.42.45,195.63-.51,172.12.29,144.33,1.24,117.61,5,90.1,5,50.94,5,25.58,8.38,25.58,8.38-3,20.69,1.06,62.91,1.2,90v11h0c0,3.89-.05,7.46-.28,10.54C-1.76,146.44-1.37,183,42.51,187c31.38,2.91,88.72.56,120-1.41,42.23-2.65,80.64,1.6,122.75,3,31.64,1,63.19,1.15,94.75,1.37h10c57.87-1.76,115.66-5.42,173.49-5.52,47.93-.08,97.69.73,145.49-2.32,16.57-1.06,33.17-1.09,49.69-2.39,13.64-1.07,20.91,1.26,25.86-8.13C791.37,158.68,786,135.71,786,121.74Z"/></svg>