<svg xmlns="http://www.w3.org/2000/svg" viewBox="0 0 227 72"><defs><style>.a{fill:#fff;}</style></defs><title>button-2-hover</title><path d="M221.39,20.3c-3.74-6.51-6.2-11.65-13.39-14.69C199.42,2,192-.1,182.6.05c-5.71.1-11.48-.21-17.17.07-4.63.23-9,1.65-13.68,1.69-11.73.1-23.49-.21-35.23-.21C105.17,1.6,94.2,1.32,83,3.14S60,3.05,48.79,3a2,2,0,0,0-.36,0c-5.23.39-9.77,2.87-14.76,4.14-3.82,1-7.71.39-11.53,1.7a24.61,24.61,0,0,0-9.33,5.84,36.67,36.67,0,0,0-6.64,9.75c-1.84,3.6-4.16,7.07-5.12,11-1.42,5.82-1.54,13.36.52,19,1.57,4.3,4.88,7.82,8.66,10.65a14.72,14.72,0,0,0,2.48,3,12.39,12.39,0,0,0,3.27,2,3.32,3.32,0,0,0,.59.24A29.93,29.93,0,0,0,26.1,72,153.62,153.62,0,0,0,42,71.34c10.43,0,20.85,0,31.28,0,9.65,0,19.91,1.07,29.49-.06q3.46-.41,6.94-.75c11.89.11,23.83.56,35.64-1,12.62-1.63,25.36.19,37.95-1.64,2.86-.41,6-.55,9.08-1,.57,0,1.14-.05,1.71-.11a33.87,33.87,0,0,0,10.31-3.3c1.92-.88,3.72-2,5.61-2.89,2.45-1.2,5.08-1.37,7.58-2.34C232,52.71,227,30.14,221.39,20.3Zm-.34,6.11a2.89,2.89,0,0,0-2.16-.25,26.61,26.61,0,0,0-.39-2.68,2.55,2.55,0,0,0-.67-1.27c0-.67.07-1.34.1-2,.29.54.58,1.08.87,1.59A39.64,39.64,0,0,1,221.05,26.41ZM208.65,9.09c-.43-.08-.86-.13-1.3-.18a3.16,3.16,0,0,0-.17-.52C207.68,8.61,208.17,8.84,208.65,9.09ZM4.18,52.12c-.06-.18-.12-.35-.18-.54l.22.18C4.2,51.88,4.19,52,4.18,52.12ZM82.63,13.53,85,13.47a2.88,2.88,0,0,0-.34.27,22.1,22.1,0,0,0-2.27,2.45A9.44,9.44,0,0,0,82.63,13.53Zm-5.9,51.76h-.36a1.17,1.17,0,0,0,0-.11A1.92,1.92,0,0,0,76.73,65.29Zm-5.81,0h-.77c.16-.35.32-.71.49-1.06A2.47,2.47,0,0,0,70.92,65.28ZM60,14l.83-.18,2.34-.18c-1.06,1.61-2,3.26-3.07,4.9a11.07,11.07,0,0,0,.42-2.84A2.77,2.77,0,0,0,60,14Zm.22,48.74a3.06,3.06,0,0,0,3.68,1.87,3.2,3.2,0,0,0,0,.61c-1.77,0-3.55,0-5.33,0a1.45,1.45,0,0,0,.17-.18A23.11,23.11,0,0,0,60.26,62.76Zm-6.7,2.44c-1.21,0-2.42,0-3.63,0l.15-.2v0l.06-.11c.26-.34.52-.7.77-1a3.55,3.55,0,0,0,2.18-.16A2.39,2.39,0,0,0,53.56,65.2Zm-8.25,0c-1.05,0-2.09.08-3.13.15h0c.7-1.26,1.36-2.53,2-3.81a3,3,0,0,0,.73.44h0A3.16,3.16,0,0,0,45.31,65.24Zm-5.09-53c0,.05,0,.11.05.16a3.14,3.14,0,0,0,.4.66l-.11.18A3.31,3.31,0,0,0,37.43,13l.09-.1a2.91,2.91,0,0,0,.23-3.77l1-.36A3.37,3.37,0,0,0,40.22,12.25Zm-4.41,2.49-.08.21a.21.21,0,0,0,0-.06Zm-10-3.17a3.28,3.28,0,0,0-.38-.27c1.9-.31,3.83-.42,5.85-.67L31,11a3.21,3.21,0,0,0-1,.06,8.89,8.89,0,0,0-2.91,1.35A3.85,3.85,0,0,0,25.86,11.57ZM16.52,61.15c-.3.49-.62,1-.92,1.52A29.18,29.18,0,0,1,11.29,57a7,7,0,0,0,.84-.48,2.85,2.85,0,0,0,0,.29A3,3,0,0,0,15,59a3.27,3.27,0,0,0,1.08,1.14A3.43,3.43,0,0,0,16.52,61.15Zm3.36-48.06c.35-.18.69-.35,1-.5-.21.24-.44.48-.65.73ZM95,14l.21-.7h1.12c-.25.43-.48.87-.7,1.33A3.69,3.69,0,0,0,95,14ZM98.16,64.9a1.24,1.24,0,0,0,.14-.18c.06-.08.1-.16.16-.24a3.68,3.68,0,0,0,.39.4Zm4.67-50.16.39-.92c0-.12.08-.24.12-.36l.16.13c-.2.35-.39.7-.6,1Zm14.41,37.6c2.21-4.86,4.52-9.68,7.12-14.35,2.48-4.44,5.13-9.09,8.14-13.47l0,.06c-2.29,5.33-4.44,10.72-6.83,16-2.13,4.74-4.37,9.43-6.44,14.2-1.27,2.92-3.19,5.77-2.6,9a3.26,3.26,0,0,0,.29.85l-4.14,0H111.5C113.86,60.82,115.39,56.43,117.24,52.34ZM113,4.55l2.54,0a2.47,2.47,0,0,0-1.35,1.2A3.44,3.44,0,0,0,113,4.55Zm4.92.08,3.09,0a2.62,2.62,0,0,0-1.62,1l-.08.1A2.88,2.88,0,0,0,117.92,4.63Zm9.16,10.8a15.5,15.5,0,0,0,.88-3.18l1.16-.05C128.41,13.25,127.73,14.33,127.08,15.43Zm-1.44,49.28c-1.28,0-2.55,0-3.83,0l0,0a2.73,2.73,0,0,0,1.72-.86h0a3.44,3.44,0,0,0,2,.61A2.62,2.62,0,0,0,125.64,64.71Zm7.46-.15c.17-.23.34-.45.5-.69a2.87,2.87,0,0,0,2.51.08,3.11,3.11,0,0,0,.1.46C135.18,64.47,134.14,64.52,133.1,64.56Zm21.84-53.32-.13.2,0-.2ZM157.76,54c-.54,1.8-1,3.63-1.71,5.39a2.5,2.5,0,0,0,1.78,3.43c-1.59,0-3.17,0-4.76.11C154.71,60,156.26,57,157.76,54Zm11.33,8.9c-3.08,0-6.17-.07-9.26-.09a3,3,0,0,0,2-1.84l.81-2.1a2.88,2.88,0,0,0,3.43.66A3.78,3.78,0,0,0,167.77,61,3.25,3.25,0,0,0,169.09,62.88ZM169,15c.18-.57.36-1.15.56-1.71l.93-2.09,1.09-.1a40.58,40.58,0,0,0-1.92,4.05A3,3,0,0,0,169,15Zm8.88,47.6-1.42.1a16.28,16.28,0,0,0,1-1.89v0A2.49,2.49,0,0,0,177.92,62.61Zm-3.78-35.7c1.76-5.32,3.45-10.65,5-16l2.49-.28Q177.77,18.7,174.14,26.91ZM196.89,59.6a2.61,2.61,0,0,0,.17-.28c.13-.28.25-.57.37-.85a3,3,0,0,0,.85.34C197.82,59.1,197.35,59.37,196.89,59.6Zm10.29-7.47-.27.17L207,52A.67.67,0,0,0,207.18,52.13Zm-31-49c9.31,0,17.32-.07,26.12,3.38l.72.28a2.18,2.18,0,0,0-.62.52L201.87,7a2.47,2.47,0,0,0-.8-.55c-4.46-2-8.62-2.95-13.5-2.23a2.37,2.37,0,0,0-1.08.48c-.62.11-1.24.24-1.85.38A9.76,9.76,0,0,0,182,4.39a2,2,0,0,0-.5-.16c-4.7-1-9.6-.19-14.37-.09-3.66.09-7.29.25-10.91.58a2.6,2.6,0,0,0-.4-.1,51.67,51.67,0,0,0,6.47-1.08C166.7,2.59,171.66,3.11,176.16,3.09ZM152,4.78q-5.11.32-10.23.53h-4.4a3.05,3.05,0,0,0-1.17.22h-.39c-3.85.15-8.11,0-12.09.51a3.31,3.31,0,0,0-2-1.37C131.86,4.84,142,5,152,4.78ZM99.11,4.46c3.59,0,7.17,0,10.76.06a12.69,12.69,0,0,0-1.13.93c-5.76.12-11.5.57-17.25,1h-.06c-2.72.07-5.44.22-8.13.48a3.49,3.49,0,0,0-.42-1C88.27,5.39,93.62,4.47,99.11,4.46ZM6.77,29.5A86.48,86.48,0,0,0,4.2,38.38c-.31,1.35-.71,2.81-1,4.29a29.76,29.76,0,0,1,.76-6.37A29.53,29.53,0,0,1,6.77,29.5ZM223.51,45.82c-1.17,5.24-4.18,8.92-9.36,10.32a31.23,31.23,0,0,0-3.65,1.23l3.08-2.16a2.48,2.48,0,0,0,1.07-.41,8.62,8.62,0,0,0,1.7-1.62A25.51,25.51,0,0,0,224,39.75,24.74,24.74,0,0,1,223.51,45.82Z"/><path class="a" d="M177.17,30.1a1.5,1.5,0,0,0-2.74,1.14v0a.74.74,0,0,0,0,.26c0,1.1.09,2.17.07,3.24H161.24a1.48,1.48,0,0,0,0,3h12.88a12.05,12.05,0,0,0-.05,3.23c.11.85.88,1.82,1.89,1.43a9.23,9.23,0,0,0,3.39-2.72,31.84,31.84,0,0,0,2.15-2.35,1.62,1.62,0,0,0,.28-.42,4,4,0,0,0,.23-.47C183.07,33.53,178.25,32,177.17,30.1Z"/></svg>