<svg xmlns="http://www.w3.org/2000/svg" viewBox="0 0 227 72"><title>button-2</title><path d="M48.79,6c8.13,0,16.22.55,24.34.69,8.78.15,17.2-2.2,26-2.22,18.13,0,36.33.73,54.44.3a43.61,43.61,0,0,0,8.75-1.22c4.4-1,9.36-.43,13.86-.45,9.31,0,17.32-.07,26.12,3.39,3.69,1.45,7.86,2.69,10.63,5.66,2.54,2.74,4.06,6.5,5.89,9.71,3.84,6.7,6.42,16.34,4.71,24.09-1.17,5.25-4.18,8.94-9.36,10.34a45.85,45.85,0,0,0-9,3.78c-4.29,2.19-8.63,3.9-13.5,4.07-4.38.15-8.81-.45-13.19-.1-3.68.3-7,1.7-10.74,1.63-4.75-.08-9.5-.08-14.26-.08-8.74,0-17.52-.31-26.22.66-8.92,1-18,1.94-27,2.45-8.57.48-17.36-.14-25.95-.14h-28c-4,0-8,0-11.92.11-4.44.17-9.44.76-13.71-.7C11.89,65,4,57.3,3.32,48A38.12,38.12,0,0,1,3.93,36.4c1-4.15,3.55-7.93,5.49-11.72a27.22,27.22,0,0,1,9.53-11c4.56-2.89,9-2.41,14-3.24C38.38,9.52,43.16,6.31,48.79,6c1.91-.11,1.92-3.09,0-3-5.39.3-10,2.89-15.12,4.19-3.82,1-7.71.39-11.53,1.7a24.78,24.78,0,0,0-9.33,5.86,36.83,36.83,0,0,0-6.64,9.78C4.33,28.15,2,31.64,1.05,35.61-.37,41.44-.49,49,1.57,54.7c2.41,6.63,9,11.44,15,14.67,7.27,3.9,16,2.19,23.91,2.17,10.95,0,21.9,0,32.85,0,9.65,0,19.91,1.07,29.49-.06a451.42,451.42,0,0,1,63.05-2.89c4.61.1,8.11-1.1,12.58-1.57,5.2-.55,10.49.53,15.69,0a33.6,33.6,0,0,0,10.31-3.3c1.92-.88,3.72-2,5.61-2.9,2.45-1.21,5.08-1.37,7.58-2.35,14.34-5.59,9.43-28.23,3.78-38.1-3.74-6.52-6.2-11.68-13.39-14.73C199.42,2,192-.1,182.6.05c-5.71.1-11.48-.21-17.17.07-4.63.23-9,1.66-13.68,1.7-11.73.1-23.49-.21-35.23-.21C105.17,1.61,94.2,1.32,83,3.14S60,3.05,48.79,3A1.49,1.49,0,0,0,48.79,6Z"/><path d="M177.17,30.18a1.51,1.51,0,0,0-2.74,1.15v0a.69.69,0,0,0,0,.25c0,1.11.09,2.18.07,3.25H161.24a1.49,1.49,0,0,0,0,3h12.88a12.12,12.12,0,0,0-.05,3.24c.11.84.88,1.82,1.89,1.43a9.16,9.16,0,0,0,3.39-2.73,30.17,30.17,0,0,0,2.15-2.36,1.34,1.34,0,0,0,.28-.42,3.39,3.39,0,0,0,.23-.47C183.07,33.62,178.25,32.08,177.17,30.18Z"/></svg>