<svg xmlns="http://www.w3.org/2000/svg" viewBox="0 0 411.43 89.13"><defs><style>.cls-1{fill:#d1ccc7;}</style></defs><title>button-3-hover</title><g id="Layer_2" data-name="Layer 2"><g id="bg"><path d="M87.53,7c14.38,0,28.71.59,43.08.84,14.62.25,28.89-2.44,43.47-2.7,30.72-.55,61.56-.1,92.29.31,7.42.1,15.09.5,22.46-.5a155.19,155.19,0,0,1,21.24-1.54c15.12,0,31.13-1.64,46.07,1.22,7.21,1.38,14.36,3.56,21.4,5.61,6,1.76,10.92,4.07,15.1,8.83,4,4.59,8.89,9.72,11.81,15.06,1.77,3.24,2.24,6.79,2.92,10.37.75,3.91,1.86,8,.73,12-2.07,7.28-8.7,12.27-15.86,13.61-3.41.64-6.8.92-10.14,1.94-3.74,1.15-7.33,2.73-11.05,3.92C364.17,78.14,357.22,80,350,80.23c-8.56.24-17.15-.61-25.7-.11-6.06.35-11.79,2.13-17.92,2.07-8-.07-15.94-.15-23.92-.15-15.61,0-31.25-.39-46.84.5-7.78.44-15.5,1.41-23.29,1.63s-15.38.33-23.08,1.17c-14.8,1.63-30.15.41-45,.41-31.32,0-62.64.26-94,.37-9.42,0-17.49-1.41-26-5.45-6.45-3-13.91-6.15-18-12.29-3.89-5.77-3.85-14.56-2.3-21.13s6.86-11.5,10.71-16.75A42.73,42.73,0,0,1,36.51,15.18c7.75-2.38,15.39-1.52,23.2-2.8C69,10.86,78,7.27,87.53,7c1.93,0,1.93-3,0-3-8.32.2-16.59,2.59-24.63,4.55C55.66,10.36,48.13,9.52,40.8,11a49.23,49.23,0,0,0-19.2,8.33c-5.48,4-9,9.07-13.12,14.29C4.85,38.21,1.58,42.5.6,48.4c-1.81,11,.23,21.36,9.58,28.1A67.34,67.34,0,0,0,49.31,89.13c17.07,0,34.15-.37,51.22-.37h52.59c8.16,0,16.31.2,24.47.21,8.41,0,16.7-1.35,25.1-1.6,17.17-.49,34.24-2.23,51.43-2.37,16.83-.13,33.71-.23,50.53.15,7.37.16,14.28-1.91,21.59-2.08,8.8-.21,17.68.67,26.46,0,7.39-.54,14.65-2.69,21.63-5.08,3.39-1.16,6.68-2.66,10.16-3.57,3.93-1,8.07-1.06,12-2.25,5.15-1.57,9.34-5.39,12.17-9.89,3.25-5.16,3.27-10.28,2.13-16.13-1.29-6.59-2.28-12.13-6.47-17.57-3.67-4.77-7.56-10.14-12-14.23-4-3.67-8.81-5.53-13.94-7-7.89-2.28-16-4.84-24.1-6.05-15.7-2.34-32.15-.85-48-.87-7.75,0-15.06,1.65-22.74,1.95-8.57.33-17.17.08-25.74,0-17.14-.24-34.29-.07-51.43-.07-16.58,0-33.43-1.07-49.92,1.06-15.94,2.05-31.55,1.2-47.56.86C101.76,4,94.64,4,87.53,4A1.5,1.5,0,0,0,87.53,7Z"/><path class="cls-1" d="M92.27,13.26c4.83,0,10.62.08,15.46.08,15.41,0,32.94,1.62,48-.33,14-1.81,28.67-1.16,43.07-1.16h48.64c11.51,0,23.24.45,34.73,0,5.12-.19,9.16-1.55,14.53-1.52,7.31,0,14.63,0,21.94,0,12,0,23.86-.75,35.23,1.67,6.51,1.38,12.43,2.73,18.86,4.28,8.64,2.1,11.8,5.1,16.59,10.3,3.6,3.91,8.6,7.73,10,12.33.76,2.43,1.24,5.42,1.91,7.92.6,2.26.91,5.35.08,7.61-1.43,3.89-5.94,8.81-11.38,10.68-3.62,1.24-7.69,1.29-11.51,2-4.14.72-8,2.31-12,3.39-7,1.9-14.68,3.86-22.26,3.92-8.2.06-16.47-.29-24.67-.09-3.91.1-7,1-10.79,1.42-4.12.48-8.66.13-12.87.13H275.7c-17.62,0-35.08-.4-52.51,1.16-11.21,1-22.17.22-33.29,1.49-7.83.9-16.22.33-24.18.33H74.28c-8.66,0-18,.62-26.62.07S32.16,75.18,25.1,72.3c-6.77-2.76-12.61-6.5-14.43-12.05C9.26,56,9.4,47.79,11.58,43.8S18,36.4,21,32.7c3.88-4.87,11.35-9.56,18.77-11.94a68.09,68.09,0,0,1,21.59-2.93c4.32.05,6.05-.72,9.86-1.38C71.2,16.45,85.75,13.27,92.27,13.26Z"/><path d="M92.27,14.76c13.51,0,27,.43,40.51.66,13.95.23,27.64-1.89,41.56-2.14,28.84-.52,57.81-.17,86.65.19,7.06.09,14.18.31,21.23-.09s13.55-1.51,20.51-1.5c14,0,28.2-.93,42.12.33,7,.64,13.84,2.35,20.67,3.93,6.15,1.42,12.65,2.5,17.71,6.55,3.72,3,7.14,6.87,10.38,10.35a18.71,18.71,0,0,1,4.76,7.83c1.22,4.12,3,9.7,1.29,13.85-2.73,6.52-9.7,9.38-16.18,10.25A125.6,125.6,0,0,0,366,69.06c-7.14,2-14.42,3.69-21.86,3.87s-15.18-.29-22.77-.13c-6.12.13-12,1.68-18.16,1.71-7.35,0-14.71-.13-22.06-.13-14.16,0-28.34-.26-42.5.23-7.16.25-14.27,1-21.42,1.32-7.82.36-15.65.13-23.46.73-14.66,1.13-29.3.7-44,.7-29.31,0-58.65-.36-87.95.22-15,.3-29.82-1.71-42.76-9.95-6.85-4.36-8.82-11-7.52-18.8,1.12-6.67,7.72-12.53,12.35-17.15C29.2,26.42,36.43,23,43.58,21.23c7.56-1.9,15.1-1.08,22.66-2.27,8.69-1.37,17.17-4,26-4.2,1.93,0,1.93-3,0-3-7.73.16-15.44,2-23,3.52-6.72,1.37-13.52.85-20.3,1.84a53.07,53.07,0,0,0-19.26,6.5c-5.52,3.23-9.29,7.68-13.64,12.25C12.19,40,9.21,43.67,8.5,49.41c-1.36,10.91,3.21,18.27,13,22.95a98.29,98.29,0,0,0,18,6.77c6.72,1.69,13.7,1.61,20.59,1.5,16-.26,32-.26,48-.26h49.69c7.94,0,15.9.29,23.84.15s15.93-1.17,23.93-1.32c16.26-.29,32.43-1.79,48.7-1.86,15.71-.06,31.44-.08,47.15.14,7.4.1,14.53-1.65,21.92-1.71,7.89-.06,15.85.54,23.72,0a99.41,99.41,0,0,0,21.52-4.35,98.71,98.71,0,0,1,10.33-2.9c3.56-.65,7.24-.67,10.73-1.73a21.54,21.54,0,0,0,11.45-8.56c3.07-4.56,2.3-9.09,1.13-14.17-1.38-6-3.17-9.87-7.52-14.28-3.51-3.55-6.83-7.62-10.94-10.5C379,16.06,373.47,14.92,368,13.64A190.28,190.28,0,0,0,347.58,9.5c-15.73-1.9-32-.58-47.85-.62-7.19,0-14.17,1.46-21.36,1.62-8.05.17-16.11,0-24.16-.1-16.19-.17-32.38,0-48.57,0-15.67,0-31.52-.84-47.13.84-15,1.6-29.69,1-44.7.72-7.18-.15-14.37-.15-21.55-.15A1.5,1.5,0,0,0,92.27,14.76Z"/></g></g></svg>