<svg xmlns="http://www.w3.org/2000/svg" viewBox="0 0 228 72"><defs><style>.a{fill:none;}</style></defs><title>button-1</title><path d="M49,6c8.17,0,16.29.55,24.45.69,8.82.15,17.28-2.2,26.1-2.22,18.21,0,36.48.73,54.68.3A43.8,43.8,0,0,0,163,3.55c4.42-1,9.41-.43,13.92-.45,9.36,0,17.41-.07,26.24,3.39,3.71,1.45,7.89,2.69,10.67,5.66,2.56,2.74,4.08,6.5,5.93,9.71,3.85,6.7,6.45,16.34,4.72,24.09-1.17,5.25-4.19,8.94-9.4,10.34A46.11,46.11,0,0,0,206,60.07c-4.32,2.19-8.68,3.9-13.56,4.07-4.41.15-8.85-.45-13.26-.1-3.69.3-7,1.7-10.78,1.63-4.78-.08-9.55-.08-14.32-.08-8.78,0-17.6-.31-26.34.66-9,1-18.12,1.94-27.11,2.45-8.6.48-17.43-.14-26.06-.14H46.45c-4,0-8,0-12,.11-4.45.17-9.48.76-13.77-.7C11.94,65,4,57.3,3.33,48A38.13,38.13,0,0,1,4,36.4c1-4.15,3.57-7.93,5.51-11.72a27.4,27.4,0,0,1,9.57-11c4.59-2.89,9-2.41,14.07-3.24C38.55,9.52,43.35,6.31,49,6c1.92-.11,1.94-3.09,0-3-5.41.3-10,2.89-15.18,4.19-3.84,1-7.75.39-11.58,1.7a24.85,24.85,0,0,0-9.37,5.86A36.69,36.69,0,0,0,6.2,24.55C4.34,28.15,2,31.64,1.05,35.61-.38,41.44-.49,49,1.58,54.7c2.41,6.63,9,11.44,15,14.67,7.3,3.9,16.06,2.19,24,2.17,11,0,22,0,33,0,9.69,0,20,1.07,29.62-.06a455.5,455.5,0,0,1,63.33-2.89c4.63.1,8.15-1.1,12.63-1.57,5.23-.55,10.54.53,15.77,0a33.83,33.83,0,0,0,10.35-3.3c1.93-.88,3.73-2,5.63-2.9,2.47-1.21,5.11-1.37,7.62-2.35,14.4-5.59,9.47-28.23,3.79-38.1-3.75-6.52-6.22-11.68-13.44-14.73C200.3,2,192.82-.1,183.4.05c-5.73.1-11.52-.21-17.24.07-4.66.23-9,1.66-13.74,1.7-11.79.1-23.6-.21-35.39-.21-11.4,0-22.41-.29-33.68,1.53S60.25,3.05,49,3A1.49,1.49,0,0,0,49,6Z"/><path class="a" d="M53.76,13.06c2.57,0,5.64.06,8.21.06,8.19,0,17.5,1.18,25.51-.24,7.44-1.32,15.23-.85,22.88-.85h25.83c6.11,0,12.34.33,18.44,0,2.72-.14,4.86-1.13,7.71-1.11,3.89,0,7.77,0,11.65,0,6.38,0,12.67-.54,18.71,1.22,3.46,1,6.61,2,10,3.11,4.59,1.53,6.26,3.71,8.81,7.49,1.91,2.84,4.56,5.62,5.32,9,.41,1.77.66,3.94,1,5.76a13.61,13.61,0,0,1,0,5.54c-.76,2.82-3.16,6.41-6,7.77-1.92.9-4.08.94-6.11,1.42a58.63,58.63,0,0,0-6.4,2.47c-3.74,1.38-7.79,2.81-11.81,2.85-4.36.05-8.75-.21-13.1-.07a43.62,43.62,0,0,0-5.74,1,43.19,43.19,0,0,1-6.83.1h-10.7c-9.36,0-18.63-.3-27.89.84-6,.73-11.77.16-17.68,1.08-4.15.65-8.61.24-12.84.24H44.21c-4.6,0-9.55.45-14.14.05s-8.23-2.73-12-4.82c-3.59-2-6.69-4.73-7.66-8.76-.75-3.1-.67-9.06.48-12s3.43-5.37,5-8.07a22.89,22.89,0,0,1,10-8.68,27.09,27.09,0,0,1,11.46-2.13c2.29,0,3.22-.53,5.24-1C42.58,15.37,50.3,13.07,53.76,13.06Z"/><path d="M53.76,14.55c6.73,0,13.44.24,20.16.44,7.8.23,15.25-1.26,23-1.5,16.11-.51,32.36,0,48.48.16,7.05.08,13.83-1.2,20.82-1.2,8.59,0,17.68-1,26.08,1.15a97.42,97.42,0,0,1,10,3.12c3.77,1.43,5.62,3.63,7.91,6.8,4.05,5.62,9,14.23,5.35,21.29-2.31,4.49-5.92,4.85-10.23,6-3.33.86-6.4,2.57-9.67,3.62-7.73,2.5-15.3.61-23.13,1.77-14.39,2.13-29.16.24-43.71,1.25-15.33,1.06-30.42,1.84-45.79,1.84-15.9,0-31.8.12-47.7.22-7.49,0-18.92-3.11-22.68-10.51s.39-15,4.54-21a22,22,0,0,1,12.21-9.12c3.67-1.06,7.37-.57,11-1.32,4.47-.9,8.68-2.74,13.3-2.95,1.93-.09,1.94-3.07,0-3-4.45.21-8.63,1.71-12.93,2.73C33.54,16,27,15.09,20.63,19.92,12,26.45,3.82,41.22,10.75,51.6,14,56.44,21,60.05,26.42,61.62c7.61,2.19,16.76.63,24.59.63H80.14c9.08,0,18.21.47,27.23-.48,18-1.89,36.4-1.91,54.5-1.69a49.05,49.05,0,0,0,10.07-.75c4.81-.89,9.8-.22,14.66-.3,8.05-.13,15-4.25,22.65-5.93a13.14,13.14,0,0,0,10.38-11.4c.7-6.82-2.11-13.11-5.95-18.46S207,15.08,200.6,13C191.8,10.2,184.18,9.38,175,9.46c-4.74,0-9.73-.42-14.44.12a115.3,115.3,0,0,1-15.1,1.09c-10.69-.13-21.38-.12-32.07-.12-5.15,0-10.31-.17-15.46-.06S87.69,11.6,82.54,12c-9.52.66-19.24-.37-28.78-.39A1.49,1.49,0,0,0,53.76,14.55Z"/></svg>