<?xml version="1.0" encoding="utf-8"?>
<!-- Generator: Adobe Illustrator 21.1.0, SVG Export Plug-In . SVG Version: 6.00 Build 0)  -->
<svg version="1.1" id="圖層_1" xmlns="http://www.w3.org/2000/svg" xmlns:xlink="http://www.w3.org/1999/xlink" x="0px" y="0px"
	 viewBox="0 0 411.4 89.1" style="enable-background:new 0 0 411.4 89.1;" xml:space="preserve">
<title>button-3</title>
<g id="Layer_2">
	<g id="圖層_1_1_">
		<path d="M87.5,7c14.4,0,28.7,0.6,43.1,0.8c14.6,0.2,28.9-2.4,43.5-2.7c30.7-0.6,61.6-0.1,92.3,0.3c7.4,0.1,15.1,0.5,22.5-0.5
			c7-1,14.1-1.5,21.2-1.5c15.1,0,31.1-1.6,46.1,1.2c7.2,1.4,14.4,3.6,21.4,5.6c6,1.8,10.9,4.1,15.1,8.8c4,4.6,8.9,9.7,11.8,15.1
			c1.8,3.2,2.2,6.8,2.9,10.4c0.8,3.9,1.9,8,0.7,12c-2.1,7.3-8.7,12.3-15.9,13.6c-3.4,0.6-6.8,0.9-10.1,1.9c-3.7,1.2-7.3,2.7-11,3.9
			c-6.9,2.2-13.8,4-21.1,4.3c-8.6,0.2-17.1-0.6-25.7-0.1c-6.1,0.3-11.8,2.1-17.9,2.1c-8-0.1-15.9-0.2-23.9-0.2
			c-15.6,0-31.2-0.4-46.8,0.5c-7.8,0.4-15.5,1.4-23.3,1.6s-15.4,0.3-23.1,1.2c-14.8,1.6-30.1,0.4-45,0.4c-31.3,0-62.6,0.3-94,0.4
			c-9.4,0-17.5-1.4-26-5.4c-6.5-3-13.9-6.2-18-12.3c-3.9-5.8-3.8-14.6-2.3-21.1s6.9-11.5,10.7-16.7c5.5-7.3,13.1-12.7,21.9-15.3
			c7.8-2.4,15.4-1.5,23.2-2.8C69,10.9,78,7.3,87.5,7c1.9,0,1.9-3,0-3c-8.3,0.2-16.6,2.6-24.6,4.6c-7.2,1.8-14.8,1-22.1,2.4
			c-6.9,1.4-13.5,4.2-19.2,8.3c-5.5,4-9,9.1-13.1,14.3c-3.6,4.6-6.9,8.9-7.9,14.8c-1.8,11,0.2,21.4,9.6,28.1
			c11.4,8.2,25.1,12.6,39.1,12.6c17.1,0,34.2-0.4,51.2-0.4h52.6c8.2,0,16.3,0.2,24.5,0.2c8.4,0,16.7-1.3,25.1-1.6
			c17.2-0.5,34.2-2.2,51.4-2.4c16.8-0.1,33.7-0.2,50.5,0.2c7.4,0.2,14.3-1.9,21.6-2.1c8.8-0.2,17.7,0.7,26.5,0
			c7.4-0.5,14.6-2.7,21.6-5.1c3.4-1.2,6.7-2.7,10.2-3.6c3.9-1,8.1-1.1,12-2.2c5.1-1.6,9.3-5.4,12.2-9.9c3.2-5.2,3.3-10.3,2.1-16.1
			c-1.3-6.6-2.3-12.1-6.5-17.6c-3.7-4.8-7.6-10.1-12-14.2c-4-3.7-8.8-5.5-13.9-7c-7.9-2.3-16-4.8-24.1-6.1
			c-15.7-2.3-32.1-0.9-48-0.9c-7.8,0-15.1,1.6-22.7,1.9c-8.6,0.3-17.2,0.1-25.7,0c-17.1-0.2-34.3-0.1-51.4-0.1
			c-16.6,0-33.4-1.1-49.9,1.1c-15.9,2.1-31.6,1.2-47.6,0.9C101.8,4,94.6,4,87.5,4C86.7,4,86,4.7,86,5.5S86.7,7,87.5,7z"/>
		<path d="M92.3,14.8c13.5,0,27,0.4,40.5,0.7c13.9,0.2,27.6-1.9,41.6-2.1c28.8-0.5,57.8-0.2,86.6,0.2c7.1,0.1,14.2,0.3,21.2-0.1
			s13.5-1.5,20.5-1.5c14,0,28.2-0.9,42.1,0.3c7,0.6,13.8,2.4,20.7,3.9c6.1,1.4,12.6,2.5,17.7,6.5c3.7,3,7.1,6.9,10.4,10.4
			c2.2,2.2,3.8,4.9,4.8,7.8c1.2,4.1,3,9.7,1.3,13.8c-2.7,6.5-9.7,9.4-16.2,10.2c-5.9,0.9-11.8,2.3-17.5,4.1
			c-7.1,2-14.4,3.7-21.9,3.9s-15.2-0.3-22.8-0.1c-6.1,0.1-12,1.7-18.2,1.7c-7.4,0-14.7-0.1-22.1-0.1c-14.2,0-28.3-0.3-42.5,0.2
			c-7.2,0.2-14.3,1-21.4,1.3c-7.8,0.4-15.6,0.1-23.5,0.7c-14.7,1.1-29.3,0.7-44,0.7c-29.3,0-58.7-0.4-87.9,0.2
			c-15,0.3-29.8-1.7-42.8-9.9c-6.9-4.4-8.8-11-7.5-18.8c1.1-6.7,7.7-12.5,12.4-17.1c5.3-5.3,12.5-8.7,19.7-10.5
			c7.6-1.9,15.1-1.1,22.7-2.3C74.9,17.6,83.4,15,92.3,14.8c1.9,0,1.9-3,0-3c-7.7,0.2-15.4,2-23,3.5c-6.7,1.4-13.5,0.9-20.3,1.8
			c-6.8,0.9-13.3,3.1-19.3,6.5c-5.5,3.2-9.3,7.7-13.6,12.2c-3.9,4.1-6.8,7.8-7.5,13.5c-1.4,10.9,3.2,18.3,13,23
			c5.8,2.8,11.8,5.1,18,6.8c6.7,1.7,13.7,1.6,20.6,1.5c16-0.3,32-0.3,48-0.3h49.7c7.9,0,15.9,0.3,23.8,0.2s15.9-1.2,23.9-1.3
			c16.3-0.3,32.4-1.8,48.7-1.9c15.7-0.1,31.4-0.1,47.2,0.1c7.4,0.1,14.5-1.7,21.9-1.7c7.9-0.1,15.9,0.5,23.7,0
			c7.3-0.7,14.5-2.1,21.5-4.3c3.4-1.2,6.8-2.1,10.3-2.9c3.6-0.7,7.2-0.7,10.7-1.7c4.7-1.5,8.7-4.5,11.5-8.6
			c3.1-4.6,2.3-9.1,1.1-14.2c-1.4-6-3.2-9.9-7.5-14.3c-3.5-3.5-6.8-7.6-10.9-10.5c-4.7-3.2-10.3-4.4-15.7-5.6
			c-6.7-1.8-13.5-3.1-20.4-4.1c-15.7-1.9-32-0.6-47.9-0.6c-7.2,0-14.2,1.5-21.4,1.6c-8,0.2-16.1,0-24.2-0.1c-16.2-0.2-32.4,0-48.6,0
			c-15.7,0-31.5-0.8-47.1,0.8c-15,1.6-29.7,1-44.7,0.7c-7.2-0.1-14.4-0.1-21.6-0.1c-0.8,0.2-1.3,0.9-1.2,1.8
			C91.2,14.2,91.7,14.6,92.3,14.8z"/>
	</g>
</g>
<path d="M360.6,36.7c-0.5-0.7-1.4-0.9-2.1-0.4c-0.5,0.3-0.8,1-0.7,1.6l0,0c0,0.1,0,0.2,0,0.2c0,1.1,0.1,2.2,0.1,3.3h-13.3
	c-0.8,0-1.5,0.7-1.5,1.5s0.7,1.5,1.5,1.5l0,0h12.9c-0.2,1.1-0.2,2.2-0.1,3.2c0.1,0.8,0.9,1.8,1.9,1.4c1.3-0.6,2.5-1.6,3.4-2.7
	c0.8-0.7,1.5-1.5,2.1-2.4c0.1-0.1,0.2-0.3,0.3-0.4c0.1-0.2,0.2-0.3,0.2-0.5C366.5,40.2,361.6,38.6,360.6,36.7z"/>
</svg>
