<?xml version="1.0" encoding="utf-8"?>
<!-- Generator: Adobe Illustrator 21.1.0, SVG Export Plug-In . SVG Version: 6.00 Build 0)  -->
<svg version="1.1" id="圖層_1" xmlns="http://www.w3.org/2000/svg" xmlns:xlink="http://www.w3.org/1999/xlink" x="0px" y="0px"
	 viewBox="0 0 259.9 76.8" style="enable-background:new 0 0 259.9 76.8;" xml:space="preserve">
<style type="text/css">
	.st0{fill:#F3EEE8;}
</style>
<title>timeline-4</title>
<path d="M234.4,32.4c0,0.3,0,0.7,0,1c-0.1,0.4-0.2,0.6-0.3,1c-0.1,0.8,0,1.6,0,2.4v2.9c0,0.5-0.2,1.5,0.2,1.8
	c0.3,0.2,0.5,0.3,0.8,0.4c0.5,0.3,0.8,0.7,1.3,1c0.9,0.3,1.9,0.7,2.7,1.1c0.5,0.3,1.3,1.5,0.3,1.8c-0.7,0.1-1.3,0.1-2-0.1
	c-0.8-0.2-1.5-0.3-2.3-0.5c-0.6,0-1.2,0-1.8,0c-0.4,0-0.9,0-1.3-0.1c-0.3-0.1-1.1-0.2-1.2-0.4c-0.3-0.4,0-2.1,0-2.6
	c0-1.7-0.2-3.2-0.2-4.9c0-0.8,0-1.7,0-2.5c0-0.4,0-0.8-0.1-1.3c-0.1-0.5-0.3-0.9-0.2-1.5c0.6-0.1,1.3-0.1,1.9,0
	c0.5-0.1,1.1-0.1,1.6,0v0.2"/>
<path d="M219.6,32.4c0,0.3,0,0.7,0,1c-0.1,0.3-0.2,0.7-0.3,1c-0.1,0.8,0,1.6,0,2.4v2.9c0,0.5-0.2,1.5,0.2,1.8
	c0.2,0.2,0.6,0.3,0.8,0.4c0.5,0.3,0.8,0.7,1.3,1c0.9,0.3,1.8,0.7,2.7,1.1c0.6,0.3,1.3,1.5,0.3,1.8c-0.7,0.1-1.3,0.1-2-0.1
	c-0.8-0.2-1.5-0.3-2.3-0.5c-0.6,0-1.2,0-1.8,0c-0.4,0-0.9,0-1.3-0.1c-0.3-0.1-1.1-0.2-1.2-0.4c-0.3-0.4,0-2.1,0-2.6
	c0-1.7-0.3-3.2-0.3-4.9v-2.5c0-0.4,0-0.8-0.1-1.3c-0.2-0.5-0.2-1-0.2-1.5c0.6-0.1,1.3-0.1,1.9,0c0.5-0.1,1.1-0.1,1.6,0v0.2"/>
<path class="st0" d="M226.1,1.5c-6.7-0.3-14.3,5.1-16.6,9.3c-3.1,5.5-4.1,12-1.1,17.7c4.3,8.1,16.1,12.2,25.1,9.3
	c10.9-3.5,15-15.7,10.4-25.4C243.9,12.5,241,2.1,226.1,1.5z"/>
<path d="M226.1,0c-13.4,0.2-24.9,14.1-19.9,27.4c4.1,10.9,18.9,15.7,29.3,11.3c10.6-4.5,14.1-16.6,9.8-26.8
	C241.9,4,234.4,0.5,226.1,0c-1.9-0.1-1.9,2.9,0,3c6.7,0.4,13.1,3,16.1,9.3c3.3,6.9,2.5,15.2-3.2,20.6c-7.3,6.9-20.4,5.2-27-1.9
	c-10.3-11,0.8-27.8,14.1-28C228,3,228,0,226.1,0z"/>
<path d="M226.3,2.2c-0.1,5.7-0.6,11.4-1.4,17c-0.2,0.8,0.3,1.6,1.1,1.8c0.6,0.1,1.2-0.1,1.6-0.7l0.1-0.1l-1.3,0.7h0.2
	c1.9-0.1,1.9-3.1,0-3c-0.6,0-1.2,0.3-1.5,0.9l2.7,1.2c0.9-5.9,1.4-11.8,1.6-17.8C229.3,0.3,226.3,0.3,226.3,2.2L226.3,2.2z"/>
<path d="M225.3,20.6c2.8,2.2,5.4,4.6,8.2,6.7c2.3,1.8,4.3,4.2,6.7,5.7c1.7,1,3.2-1.6,1.5-2.6c-2.5-1.5-4.6-4-6.9-5.8
	c-2.6-2-4.9-4.1-7.4-6.2C225.9,17.3,223.8,19.4,225.3,20.6z"/>
<path d="M225.6,18.5c-3.4,1.3-6.9,2.9-10.3,4.5c-2.4,1.1-5.5,2.4-7.4,4.3c-1.4,1.4,0.8,3.5,2.1,2.1c1.7-1.7,4.6-2.9,6.8-3.8
	c3.1-1.4,6.4-3,9.6-4.2C228.2,20.7,227.4,17.8,225.6,18.5z"/>
<path d="M227.5,6.3c-2.5-0.9-4.9-2-7.3-3.2c-1.7-0.8-3.3,1.8-1.5,2.6c2.6,1.3,5.3,2.4,8,3.5C228.6,9.8,229.4,6.9,227.5,6.3
	L227.5,6.3z"/>
<path d="M226.6,9.3c-1.7-0.4-3.4-1-5-1.8c-1.5-0.6-3-1-4.4-1.7c-1.7-0.8-3.3,1.8-1.5,2.6c1.8,0.8,3.7,1.4,5.5,2.2
	c1.7,0.9,3.5,1.4,5.4,1.7C228.5,12.5,228.5,9.5,226.6,9.3L226.6,9.3z"/>
<path d="M226.3,12.4c-4.3-1.6-8.8-2.7-13.1-4.2l1.1,1.4V9.5c-0.2-1.9-3.2-1.9-3,0v0.1c0,0.7,0.5,1.2,1.1,1.4
	c4.3,1.5,8.8,2.6,13.1,4.2C227.3,16,228.1,13.1,226.3,12.4L226.3,12.4z"/>
<path d="M225.6,15.5c-5.9,0-11.7-2.8-17.7-3.2v3c0.1,0,0.2,0,0.3,0c0.8,0,1.5-0.7,1.5-1.5s-0.7-1.5-1.5-1.5c-0.1,0-0.2,0-0.3,0
	c-1.9,0-1.9,2.9,0,3c6,0.4,11.7,3.1,17.7,3.2c0.8,0,1.5-0.7,1.5-1.5S226.4,15.5,225.6,15.5z"/>
<path d="M222.8,19.9c-5.1-1.6-10.2-2.5-15.4-3.8c-1.9-0.5-2.7,2.4-0.8,2.9c5.1,1.3,10.3,2.2,15.4,3.8
	C223.9,23.4,224.7,20.5,222.8,19.9z"/>
<path d="M215.7,22.2c-1.8-0.2-3.5-0.4-5.3-0.6l-1.4-0.1c-0.2,0-0.5-0.1-0.8-0.1s-0.6-0.3-0.1,0.1c-1.4-1.3-3.6,0.8-2.1,2.1
	c0.9,0.9,2.4,0.8,3.6,0.9c2.1,0.2,4.1,0.4,6.1,0.7S217.6,22.4,215.7,22.2z"/>
<path d="M224,30.6c-0.4-0.4-0.8-0.7-1.3-0.9c-1.8-0.5-4.1,1.1-3.1,3c0.6,1,1.6,1.7,2.7,1.8c1.1,0.2,2.2-0.4,2.7-1.5
	C225.2,32.1,224.8,31.1,224,30.6z"/>
<path d="M233.9,30.6c-0.4-0.4-0.8-0.7-1.3-0.9c-1.8-0.5-4,1.1-3.1,3c0.5,1,1.6,1.7,2.7,1.8c1.1,0.2,2.2-0.4,2.7-1.5
	C235.1,32.1,234.7,31.1,233.9,30.6z"/>
<path d="M226,25.2c-0.2-0.2-0.4-0.4-0.7-0.5c-1-0.3-2.2,0.6-1.7,1.6c0.3,0.6,0.8,0.9,1.5,1c0.6,0.1,1.2-0.2,1.4-0.8
	C226.7,26.1,226.5,25.5,226,25.2z"/>
<path d="M216.7,29.6c-0.2-0.2-0.4-0.4-0.7-0.5c-1-0.3-2.2,0.6-1.7,1.6c0.3,0.6,0.8,0.9,1.4,1c0.6,0.1,1.2-0.2,1.4-0.8
	C217.3,30.5,217.1,29.9,216.7,29.6z"/>
<path d="M92.9,59c-9.2-0.4-17.9-0.6-26.8-0.4v13.7c19.3-0.6,38.7-0.7,58.1-0.7h5.9V59.4C117.7,59.5,105.2,59.5,92.9,59z"/>
<path d="M92.9,57.5C84,57.2,75.1,57,66.1,57.1c-0.8,0-1.5,0.7-1.5,1.5v13.7c0,0.8,0.7,1.5,1.5,1.5c21.3-0.6,42.7-0.7,64-0.6
	c0.8,0,1.5-0.7,1.5-1.5V59.4c0-0.8-0.7-1.5-1.5-1.5C117.7,58,105.3,58,92.9,57.5c-1.9-0.1-1.9,2.9,0,3c12.4,0.5,24.8,0.5,37.2,0.4
	l-1.5-1.5v12.2l1.5-1.5c-21.3-0.1-42.7,0-64,0.6l1.5,1.5V58.6l-1.5,1.5c8.9-0.1,17.8,0,26.8,0.4C94.8,60.6,94.8,57.6,92.9,57.5z"/>
<path d="M49.8,59.3c-10.2,0.7-20.6,0.4-30.9,0.7C15.9,60,8,59.6,5.4,60.3c-3.6,1-3.2,3-3.8,4.6c0,0-0.2,9,0.8,9.6
	c13-0.9,26.6-0.5,39.9-1.3c8-0.4,16-0.8,23.9-1V58.6C60.8,58.7,55.4,58.9,49.8,59.3z"/>
<path d="M49.8,57.8C36.6,58.6,23.3,58,10,58.4c-3,0.1-6.8,0.1-8.7,2.9C-0.2,63.4,0,66.1,0,68.5c0,1.9-0.4,5.8,1.4,7.2
	c1.4,1.1,4.9,0.1,6.5,0c3.8-0.2,7.6-0.3,11.4-0.3c15.6-0.3,31.2-1.2,46.8-1.6c0.8,0,1.5-0.7,1.5-1.5V58.6c0-0.8-0.7-1.5-1.5-1.5
	C60.6,57.2,55.2,57.4,49.8,57.8c-1.9,0.1-2,3.1,0,3c5.4-0.3,10.9-0.6,16.3-0.7l-1.5-1.5v13.7l1.5-1.5c-11.8,0.4-23.6,1.2-35.3,1.4
	c-5.7,0.1-11.5,0.2-17.2,0.3c-2.5,0.1-7.1,1.1-9.4,0.4c-1.1-0.3-0.2,1-1-0.5C3,71.6,3,70.8,3.1,70c-0.1-2.7-0.6-5.2,1.5-7.2
	c2.8-2.5,8.3-1.5,11.9-1.4c11.1,0.1,22.3,0,33.3-0.7C51.7,60.7,51.8,57.7,49.8,57.8z"/>
<path d="M154.3,59.3c-8,0-16.1,0.1-24.2,0.2v12.2c21.4,0.1,42.7,0.4,64,0.7V59.6C180.9,59.4,167.6,59.3,154.3,59.3z"/>
<path d="M154.3,57.8c-8,0-16.1,0.1-24.2,0.2c-0.8,0-1.5,0.7-1.5,1.5v12.2c0,0.8,0.7,1.5,1.5,1.5c21.3,0.1,42.7,0.4,64,0.7
	c0.8,0,1.5-0.7,1.5-1.5V59.6c0-0.8-0.7-1.5-1.5-1.5C180.8,57.9,167.6,57.8,154.3,57.8c-0.8,0-1.5,0.7-1.5,1.5s0.7,1.5,1.5,1.5
	c13.3,0,26.6,0.1,39.8,0.3l-1.5-1.5v12.7l1.5-1.5c-21.3-0.3-42.7-0.7-64-0.7l1.5,1.5V59.4l-1.5,1.5c8.1-0.1,16.1-0.2,24.2-0.2
	c0.8,0,1.5-0.7,1.5-1.5C155.8,58.4,155.1,57.8,154.3,57.8z"/>
<path d="M258,63.8c-0.3-2.5,0.9-2.5-3.5-3.3c-2.8-0.5-8.1,0-11.3,0c-16.9,0-33.3-0.4-50-0.8v12.7c5.8,0,11.5,0.1,17.3,0.1
	c14.4,0,32.3-1,46.2,1C259.4,71.1,258.3,66.6,258,63.8z"/>
<path d="M259.5,63.8c-0.2-2.7-0.4-3.8-3.2-4.5c-5.1-1.3-10.8-0.3-16-0.3c-15.7,0-31.4-0.5-47.1-0.8c-0.8,0-1.5,0.7-1.5,1.5v12.7
	c0,0.8,0.7,1.5,1.5,1.5c15,0.1,30-0.4,45-0.2c3.5,0.1,6.9,0.2,10.4,0.4c2.1,0.1,6.7,1.5,8.5,0.8C261,73.2,259.9,67,259.5,63.8
	c-0.3-1.9-3.3-1.9-3,0c0.3,2.3,1.4,6.6-1.3,7.9c-1.5,0.7-6.4-0.6-8.2-0.7c-5.9-0.3-11.7-0.3-17.6-0.3c-12,0.1-24.1,0.2-36.1,0.2
	l1.5,1.5V59.7l-1.5,1.5c12.5,0.2,24.9,0.5,37.4,0.7c5.4,0.1,10.9,0.2,16.3,0c2.4-0.2,4.8-0.2,7.2,0.1c2,0.3,2.3,0.1,2.4,1.9
	C256.5,65.7,259.6,65.8,259.5,63.8z"/>
</svg>
