<svg xmlns="http://www.w3.org/2000/svg" viewBox="0 0 388.25 77.77"><defs><style>.cls-1{fill:#f3eee8;}</style></defs><title>timeline-3</title><g id="圖層_1" data-name="圖層 1"><path d="M169.89,32.39a7,7,0,0,1,0,1,6.82,6.82,0,0,0-.27,1c-.06.79,0,1.61,0,2.4v2.94c0,.55-.21,1.45.18,1.85.2.21.57.27.83.42.47.27.84.74,1.34,1a23.73,23.73,0,0,1,2.73,1.12c.55.35,1.31,1.53.26,1.75a6.23,6.23,0,0,1-2-.08,20.74,20.74,0,0,0-2.3-.45c-.59,0-1.19,0-1.78,0a5.5,5.5,0,0,1-1.28-.06c-.29-.06-1.06-.17-1.24-.41-.29-.4,0-2.09,0-2.59,0-1.67-.26-3.2-.26-4.87V34.87a7.51,7.51,0,0,0,0-1.26,2.77,2.77,0,0,1-.18-1.45,7.88,7.88,0,0,1,1.88,0,6.17,6.17,0,0,1,1.61,0l0,.21"/><path d="M155.14,32.39a7,7,0,0,1,0,1,8.35,8.35,0,0,0-.28,1c0,.79,0,1.61,0,2.4v2.94c0,.55-.22,1.45.18,1.85.2.21.57.27.82.42.48.27.85.74,1.34,1A23.16,23.16,0,0,1,160,44.13c.55.35,1.3,1.53.26,1.75a6.23,6.23,0,0,1-2-.08,20.74,20.74,0,0,0-2.3-.45c-.59,0-1.19,0-1.78,0a5.5,5.5,0,0,1-1.28-.06c-.29-.06-1.06-.17-1.24-.41-.29-.4,0-2.09,0-2.59,0-1.67-.25-3.2-.25-4.87V34.87a6.57,6.57,0,0,0-.06-1.26c-.09-.5-.34-.92-.17-1.45a7.87,7.87,0,0,1,1.88,0,6.17,6.17,0,0,1,1.61,0l0,.21"/><path class="cls-1" d="M161.6,1.5c-6.74-.27-14.29,5.14-16.65,9.32-3.09,5.45-4.1,12-1.11,17.7,4.27,8.15,16.15,12.24,25.1,9.32,10.86-3.53,15-15.74,10.42-25.38C179.36,12.46,176.48,2.1,161.6,1.5Z"/><path d="M161.6,0c-13.42.24-24.92,14.13-19.92,27.35C145.81,38.29,160.63,43,171,38.67,181.55,34.22,185,22,180.76,11.91,177.41,4,170,.55,161.6,0c-1.93-.12-1.92,2.88,0,3,6.69.44,13.11,3,16.11,9.28,3.26,6.87,2.47,15.25-3.2,20.61-7.32,6.94-20.41,5.23-27-1.87-10.26-11,.76-27.78,14.12-28C163.53,3,163.54,0,161.6,0Z"/><path d="M161.77,2.18a129.11,129.11,0,0,1-1.45,17,1.51,1.51,0,0,0,2.74,1.15l.07-.1-1.3.74H162c1.92-.1,1.93-3.11,0-3a1.75,1.75,0,0,0-1.53.85L163.21,20a136.19,136.19,0,0,0,1.56-17.8c0-1.93-3-1.93-3,0Z"/><path d="M160.81,20.65c2.77,2.21,5.41,4.55,8.19,6.74,2.27,1.8,4.27,4.2,6.73,5.7,1.65,1,3.16-1.59,1.51-2.59-2.49-1.52-4.55-4-6.87-5.81-2.56-2-4.92-4.15-7.44-6.16-1.49-1.19-3.63.92-2.12,2.12Z"/><path d="M161.09,18.53c-3.44,1.29-6.91,2.92-10.27,4.46-2.45,1.13-5.46,2.39-7.42,4.31-1.38,1.36.74,3.48,2.12,2.12,1.74-1.7,4.63-2.86,6.82-3.84,3.09-1.38,6.39-3,9.55-4.16,1.79-.67,1-3.57-.8-2.89Z"/><path d="M163,6.33a76.56,76.56,0,0,1-7.26-3.16C154,2.4,152.49,5,154.25,5.76a86.75,86.75,0,0,0,8,3.46c1.84.6,2.62-2.3.79-2.89Z"/><path d="M162.13,9.32a19,19,0,0,1-5-1.8c-1.46-.62-3-1-4.44-1.68C151,5,149.45,7.63,151.2,8.43s3.71,1.35,5.52,2.15a18.51,18.51,0,0,0,5.41,1.74c1.91.23,1.89-2.77,0-3Z"/><path d="M161.76,12.43c-4.29-1.61-8.75-2.7-13.07-4.2l1.1,1.45,0-.13c-.23-1.89-3.23-1.91-3,0l0,.13a1.58,1.58,0,0,0,1.1,1.44c4.32,1.5,8.78,2.59,13.07,4.2,1.82.68,2.6-2.22.8-2.89Z"/><path d="M161.11,15.55c-5.94,0-11.73-2.77-17.69-3.18v3a1.31,1.31,0,0,0,.28,0,1.5,1.5,0,0,0,0-3,1.31,1.31,0,0,1-.28,0c-1.95,0-1.91,2.87,0,3,6,.41,11.71,3.14,17.69,3.18a1.5,1.5,0,0,0,0-3Z"/><path d="M158.33,19.93c-5.05-1.56-10.26-2.51-15.38-3.82-1.87-.48-2.67,2.42-.79,2.9,5.11,1.3,10.32,2.25,15.37,3.81,1.85.57,2.64-2.33.8-2.89Z"/><path d="M151.2,22.16c-1.75-.23-3.51-.42-5.26-.6-.48,0-1-.08-1.45-.12-.24,0-.5-.07-.75-.07s-.6-.34-.12.09c-1.43-1.3-3.56.81-2.13,2.12.95.86,2.36.8,3.56.9,2,.17,4.11.41,6.15.68s1.89-2.75,0-3Z"/><path d="M159.45,30.59a3.1,3.1,0,0,0-1.34-.89c-1.79-.54-4,1.12-3.09,3.05a3.48,3.48,0,0,0,2.69,1.8,2.47,2.47,0,0,0,2.67-1.5A2.26,2.26,0,0,0,159.45,30.59Z"/><path d="M169.39,30.59a3,3,0,0,0-1.33-.89c-1.79-.54-4.05,1.12-3.1,3.05a3.5,3.5,0,0,0,2.7,1.8,2.45,2.45,0,0,0,2.66-1.5A2.24,2.24,0,0,0,169.39,30.59Z"/><path d="M161.45,25.25a1.66,1.66,0,0,0-.72-.48c-1-.29-2.19.61-1.67,1.65a1.85,1.85,0,0,0,1.45,1,1.32,1.32,0,0,0,1.44-.81A1.21,1.21,0,0,0,161.45,25.25Z"/><path d="M152.18,29.64a1.66,1.66,0,0,0-.72-.48c-1-.29-2.19.61-1.68,1.65a1.88,1.88,0,0,0,1.46,1,1.32,1.32,0,0,0,1.44-.81A1.21,1.21,0,0,0,152.18,29.64Z"/><path d="M119.73,60c-18.49-.39-35.94-.57-53.61-.42V73.26c38.7-.58,77.5-.66,116.39-.66,3.94,0,7.86,0,11.79,0V60.43C169.36,60.52,144.41,60.55,119.73,60Z"/><path d="M92.89,58.53C84,58.16,75.05,58,66.12,58.11a1.52,1.52,0,0,0-1.5,1.5V73.26a1.51,1.51,0,0,0,1.5,1.5c21.33-.62,42.67-.72,64-.63a1.52,1.52,0,0,0,1.5-1.5V60.43a1.52,1.52,0,0,0-1.5-1.5c-12.42.09-24.83.09-37.24-.4-1.93-.08-1.92,2.92,0,3,12.41.49,24.82.49,37.24.4l-1.5-1.5v12.2l1.5-1.5c-21.34-.09-42.68,0-64,.63l1.5,1.5V59.61l-1.5,1.5c8.93-.13,17.85,0,26.77.42C94.82,61.61,94.82,58.61,92.89,58.53Z"/><path d="M49.82,60.28c-10.16.67-20.57.42-30.91.66-3,.07-10.92-.34-13.53.4-3.56,1-3.17,3-3.84,4.6,0,0-.24,9,.77,9.61,13-.9,26.65-.54,39.88-1.28,8-.45,16-.77,23.93-1V59.61C60.78,59.7,55.39,59.91,49.82,60.28Z"/><path d="M49.82,58.78c-13.25.8-26.53.24-39.79.63-3,.09-6.8.13-8.74,2.91C-.16,64.39,0,67.15,0,69.54c0,1.87-.4,5.83,1.37,7.19,1.4,1.07,4.86.08,6.51,0,3.79-.17,7.58-.26,11.37-.33,15.63-.3,31.22-1.15,46.84-1.64a1.52,1.52,0,0,0,1.5-1.5V59.61a1.51,1.51,0,0,0-1.5-1.5q-8.16.16-16.3.67c-1.91.12-1.93,3.12,0,3q8.15-.51,16.3-.67l-1.5-1.5V73.26l1.5-1.5c-11.79.37-23.56,1.16-35.35,1.43-5.73.13-11.47.18-17.2.34-2.48.07-7.07,1.13-9.4.4-1.06-.33-.24,1-1-.54A7.49,7.49,0,0,1,3.06,71C3,68.29,2.47,65.78,4.6,63.85c2.75-2.5,8.33-1.45,11.88-1.42,11.09.09,22.28,0,33.34-.65C51.74,61.66,51.76,58.66,49.82,58.78Z"/><path d="M242.83,59.77c-16.24-.18-32.47-.46-48.7-.68a1.52,1.52,0,0,0-1.5,1.5V73.34a1.52,1.52,0,0,0,1.5,1.5c21.33.35,42.67.71,64,.86a1.52,1.52,0,0,0,1.5-1.5V61.51a1.52,1.52,0,0,0-1.5-1.5q-7.65-.15-15.3-.24a1.5,1.5,0,0,0,0,3q7.65.09,15.3.24l-1.5-1.5V74.2l1.5-1.5c-21.33-.15-42.67-.51-64-.86l1.5,1.5V60.59l-1.5,1.5c16.23.22,32.46.5,48.7.68A1.5,1.5,0,0,0,242.83,59.77Z"/><path d="M154.29,58.77c-8,0-16.11.09-24.16.16a1.52,1.52,0,0,0-1.5,1.5v12.2a1.52,1.52,0,0,0,1.5,1.5c21.33.06,42.67.36,64,.71a1.52,1.52,0,0,0,1.5-1.5V60.59a1.52,1.52,0,0,0-1.5-1.5c-13.28-.18-26.56-.31-39.84-.32a1.5,1.5,0,0,0,0,3c13.28,0,26.56.14,39.84.32l-1.5-1.5V73.34l1.5-1.5c-21.33-.35-42.67-.65-64-.71l1.5,1.5V60.43l-1.5,1.5c8.05-.07,16.11-.15,24.16-.16A1.5,1.5,0,0,0,154.29,58.77Z"/><path d="M387.77,66.47c-.17-2.7-.37-3.77-3.2-4.51-5.09-1.34-10.79-.33-16-.34-15.69,0-31.38-.45-47.06-.76a1.52,1.52,0,0,0-1.5,1.5v12.7a1.52,1.52,0,0,0,1.5,1.5c15,.09,30-.38,45-.18,3.46.05,6.92.15,10.38.39,2.11.14,6.69,1.55,8.47.77,3.94-1.73,2.79-7.87,2.37-11.07-.25-1.88-3.25-1.91-3,0,.3,2.28,1.39,6.63-1.33,7.91-1.52.72-6.42-.62-8.2-.72-5.85-.33-11.72-.33-17.57-.27-12.05.11-24.09.24-36.14.17l1.5,1.5V62.36l-1.5,1.5c12.46.24,24.92.55,37.38.69,5.43.06,10.87.16,16.29,0a39.24,39.24,0,0,1,7.19.07c2,.3,2.27.08,2.38,1.9S387.89,68.4,387.77,66.47Z"/><path d="M306.83,60.75c-16.23-.19-32.47-.46-48.7-.68a1.51,1.51,0,0,0-1.5,1.5V74.32a1.52,1.52,0,0,0,1.5,1.5c21.33.35,42.67.71,64,.86a1.52,1.52,0,0,0,1.5-1.5V62.49a1.51,1.51,0,0,0-1.5-1.5q-7.65-.15-15.3-.24c-1.93,0-1.93,3,0,3q7.65.09,15.3.24l-1.5-1.5V75.18l1.5-1.5c-21.33-.15-42.67-.51-64-.86l1.5,1.5V61.57l-1.5,1.5c16.23.22,32.47.49,48.7.68A1.5,1.5,0,0,0,306.83,60.75Z"/></g></svg>