<?xml version="1.0" encoding="utf-8"?>
<!-- Generator: Adobe Illustrator 21.1.0, SVG Export Plug-In . SVG Version: 6.00 Build 0)  -->
<svg version="1.1" id="圖層_1" xmlns="http://www.w3.org/2000/svg" xmlns:xlink="http://www.w3.org/1999/xlink" x="0px" y="0px"
	 viewBox="0 0 259.9 77.6" style="enable-background:new 0 0 259.9 77.6;" xml:space="preserve">
<style type="text/css">
	.st0{fill:#F3EEE8;}
</style>
<title>timeline-1</title>
<path d="M92.9,58.4C84,58,75.1,57.8,66.1,58c-0.8,0-1.5,0.7-1.5,1.5v13.6c0,0.8,0.7,1.5,1.5,1.5c21.3-0.6,42.7-0.7,64-0.6
	c0.8,0,1.5-0.7,1.5-1.5V60.3c0-0.8-0.7-1.5-1.5-1.5C117.7,58.9,105.3,58.9,92.9,58.4c-1.9-0.1-1.9,2.9,0,3
	c12.4,0.5,24.8,0.5,37.2,0.4l-1.5-1.5v12.2l1.5-1.5c-21.3-0.1-42.7,0-64,0.6l1.5,1.5V59.4L66.1,61c8.9-0.1,17.8,0.1,26.8,0.4
	C94.8,61.4,94.8,58.4,92.9,58.4z"/>
<path d="M49.8,60.1c-10.2,0.7-20.6,0.4-30.9,0.7c-3,0.1-10.9-0.3-13.5,0.4c-3.6,1-3.2,3-3.8,4.6c0,0-0.2,9,0.8,9.6
	c13-0.9,26.6-0.5,39.9-1.3c8-0.4,16-0.8,23.9-1V59.4C60.8,59.5,55.4,59.8,49.8,60.1z"/>
<path d="M49.8,58.6c-13.2,0.8-26.5,0.2-39.8,0.6c-3,0.1-6.8,0.1-8.7,2.9C-0.2,64.2,0,67,0,69.4c0,1.9-0.4,5.8,1.4,7.2
	c1.4,1.1,4.9,0.1,6.5,0c3.8-0.2,7.6-0.3,11.4-0.3c15.6-0.3,31.2-1.2,46.8-1.6c0.8,0,1.5-0.7,1.5-1.5V59.4c0-0.8-0.7-1.5-1.5-1.5
	C60.6,58.1,55.2,58.3,49.8,58.6c-1.9,0.1-2,3.1,0,3c5.5-0.3,10.9-0.5,16.3-0.6l-1.5-1.5v13.6l1.5-1.5C54.3,72,42.6,72.8,30.8,73
	c-5.7,0.1-11.5,0.2-17.2,0.3c-2.5,0.1-7.1,1.1-9.4,0.4c-1.1-0.3-0.2,1-1-0.5C3,72.4,2.9,71.6,3,70.8c0-2.7-0.5-5.2,1.6-7.1
	c2.8-2.5,8.3-1.4,11.9-1.4c11.1,0.1,22.3,0,33.3-0.7C51.7,61.5,51.8,58.5,49.8,58.6z"/>
<path d="M154.3,58.6c-8,0-16.1,0.1-24.2,0.2c-0.8,0-1.5,0.7-1.5,1.5v12.2c0,0.8,0.7,1.5,1.5,1.5c21.3,0.1,42.7,0.4,64,0.7
	c0.8,0,1.5-0.7,1.5-1.5V60.4c0-0.8-0.7-1.5-1.5-1.5C180.8,58.7,167.6,58.6,154.3,58.6c-0.8,0-1.5,0.7-1.5,1.5s0.7,1.5,1.5,1.5
	c13.3,0,26.6,0.1,39.8,0.3l-1.5-1.5v12.8l1.5-1.5c-21.3-0.3-42.7-0.7-64-0.7l1.5,1.5V60.3l-1.5,1.5c8.1-0.1,16.1-0.2,24.2-0.2
	c0.8,0,1.5-0.7,1.5-1.5S155.1,58.6,154.3,58.6z"/>
<path d="M42.6,30.6c0.1,0.3,0.2,0.7,0.2,1c-0.1,0.3-0.1,0.7-0.1,1c0.1,0.8,0.3,1.6,0.4,2.4c0.2,1,0.3,1.9,0.5,2.9
	c0.1,0.5,0,1.5,0.5,1.8c0.3,0.1,0.6,0.2,0.9,0.3c0.5,0.2,1,0.6,1.5,0.7c1,0.1,1.9,0.3,2.9,0.6c0.6,0.2,1.6,1.3,0.6,1.7
	c-0.6,0.2-1.3,0.3-2,0.3c-0.8,0-1.6,0-2.3,0c-0.6,0.1-1.2,0.2-1.7,0.3c-0.4,0.1-0.8,0.2-1.3,0.2c-0.3,0-1.1,0-1.3-0.2
	s-0.4-2-0.5-2.5c-0.3-1.6-0.8-3.1-1.1-4.8l-0.5-2.5c-0.1-0.4-0.2-0.9-0.3-1.3c-0.2-0.5-0.5-0.8-0.4-1.4c0.6-0.2,1.2-0.3,1.8-0.4
	c0.5-0.2,1-0.2,1.6-0.2l0.1,0.2"/>
<path d="M28.1,33.2c0.1,0.3,0.2,0.7,0.2,1c0,0.3-0.1,0.7-0.1,1c0.1,0.8,0.3,1.6,0.4,2.4c0.2,1,0.4,1.9,0.5,2.9
	c0.1,0.5,0,1.5,0.5,1.8c0.3,0.1,0.6,0.2,0.9,0.3c0.5,0.2,1,0.6,1.5,0.7c1,0.1,1.9,0.4,2.9,0.6c0.6,0.2,1.5,1.3,0.6,1.7
	c-0.6,0.2-1.3,0.3-2,0.3c-0.8,0-1.6,0-2.4,0c-0.6,0.1-1.2,0.2-1.7,0.3c-0.4,0.1-0.8,0.2-1.3,0.2c-0.3,0-1.1,0-1.3-0.2
	s-0.4-2-0.5-2.5c-0.3-1.6-0.8-3.1-1.1-4.8l-0.5-2.5c0-0.4-0.1-0.8-0.3-1.2c-0.2-0.5-0.5-0.8-0.4-1.4c0.6-0.2,1.2-0.3,1.8-0.3
	c0.5-0.2,1.1-0.2,1.6-0.2l0.1,0.2"/>
<path class="st0" d="M29,1.7c-6.7,0.9-13.1,7.6-14.7,12.1c-2.1,5.9-1.9,12.6,2,17.6c5.7,7.3,18.1,9.2,26.4,4.7
	c10.1-5.4,12-18.2,5.8-26.8C48.4,9.3,43.8-0.3,29,1.7z"/>
<path d="M28.6,0.3c-12.2,2.4-20.5,16-15.9,27.9c4.6,11.5,20.4,14.9,30.7,9.3C54.1,31.7,56,18.3,49.7,8.6C45.1,1.4,37.2-0.7,29,0.2
	c-1.9,0.2-1.9,3.2,0,3c6.8-0.8,13.8,0.5,17.9,6.4c4.7,6.8,5,16.2-1.1,22.4c-7.1,7.1-20.8,6.7-27.6-0.7c-9.2-10-0.7-25.9,11.2-28.2
	C31.3,2.8,30.5-0.1,28.6,0.3z"/>
<path d="M29.3,2.5c0.9,5.6,1.4,11.3,1.5,17c0,1.4,2.2,2.2,2.8,0.8L33,20.8c1.9-0.4,1.1-3.3-0.8-2.9c-0.5,0.1-0.9,0.4-1.1,0.8
	l2.8,0.8c-0.2-6-0.7-11.9-1.7-17.8C31.9-0.2,29,0.6,29.3,2.5z"/>
<path d="M31.7,20.7c3.2,1.7,6.3,3.6,9.5,5.3c2.5,1.3,4.8,3.2,7.4,4.2c1.8,0.7,2.6-2.2,0.8-2.9c-2.7-1-5.1-3.1-7.6-4.5
	c-2.9-1.5-5.7-3.3-8.5-4.8C31.5,17.2,30,19.8,31.7,20.7z"/>
<path d="M31.4,18.6c-1.5,0.8-2.7,2-4.1,2.9c-1.6,1.1-3.3,2-4.9,3.1c-2.4,1.6-5.2,3.5-6.8,5.8c-1.1,1.6,1.5,3.1,2.6,1.5
	c1.7-2.4,5.1-4.4,7.5-5.9s4.7-3.5,7.2-4.9c0.7-0.4,0.9-1.4,0.5-2.1C33,18.5,32.1,18.2,31.4,18.6z"/>
<path d="M31.5,6.2c-2.7-0.5-5.4-1.1-8.1-1.9c-1.9-0.5-2.7,2.4-0.8,2.9c2.7,0.7,5.3,1.5,8.1,1.9C32.6,9.4,33.4,6.5,31.5,6.2z"/>
<path d="M31.2,9.3c-1.8,0-3.7-0.3-5.4-0.9c-1.6-0.4-3.3-0.5-4.9-0.9C19,7,18.2,9.9,20.1,10.4s3.7,0.6,5.5,1.1
	c1.8,0.6,3.7,0.8,5.6,0.8C33.1,12.2,33.1,9.2,31.2,9.3z"/>
<path d="M31.4,12.5c-4.5-0.8-9.1-1.1-13.6-1.8l1,1.1v-0.1c-0.6-1.8-3.5-1.1-2.9,0.8v0.1c0.1,0.5,0.5,0.9,1,1.1
	c4.5,0.7,9.1,1,13.6,1.8c1.9,0.3,2.7-2.6,0.8-2.9L31.4,12.5z"/>
<path d="M30.9,15.6c-5.7,1-11.8-0.7-17.6-0.1l0.4,2.9H14c1.9-0.4,1.1-3.3-0.8-2.9l-0.3,0.1c-1.6,0.3-1.3,3.1,0.4,3
	c6.1-0.7,12.3,1,18.4-0.1C33.6,18.3,32.8,15.4,30.9,15.6L30.9,15.6z"/>
<path d="M28.9,20.4c-5.2-0.6-10.5-0.6-15.8-1c-1.9-0.1-1.9,2.9,0,3c5.3,0.4,10.6,0.4,15.8,1C30.8,23.6,30.8,20.6,28.9,20.4z"/>
<path d="M22.7,23.8c-1.8,0.1-3.5,0.2-5.3,0.4c-0.9,0.2-1.8,0.2-2.7,0.3c-1.6-1-3.1,1.6-1.5,2.6c1,0.6,2.4,0.3,3.5,0.2
	c2-0.2,4-0.3,6-0.4S24.6,23.8,22.7,23.8L22.7,23.8z"/>
<path d="M32,30.7c-0.4-0.3-0.9-0.6-1.5-0.6c-1.9-0.2-3.8,1.8-2.5,3.5c0.7,0.9,1.8,1.4,3,1.3c1.2,0,2.1-0.9,2.4-2
	C33.4,32,32.9,31.1,32,30.7z"/>
<path d="M41.8,29c-0.4-0.3-0.9-0.6-1.5-0.6c-1.9-0.2-3.8,1.8-2.5,3.5c0.7,0.9,1.8,1.4,3,1.3c1.1,0,2.1-0.8,2.4-1.9
	C43.3,30.3,42.7,29.4,41.8,29z"/>
<path d="M33.1,25.1c-0.2-0.2-0.5-0.3-0.8-0.3c-1-0.1-2,1-1.4,1.9c0.4,0.5,1,0.7,1.6,0.7c0.6,0,1.1-0.5,1.3-1.1
	C33.8,25.8,33.5,25.3,33.1,25.1z"/>
<path d="M24.7,31.1c-0.2-0.2-0.5-0.3-0.8-0.4c-1-0.1-2,1-1.4,1.9c0.4,0.5,1,0.7,1.6,0.7c0.6,0,1.1-0.5,1.3-1
	C25.5,31.8,25.2,31.3,24.7,31.1z"/>
<path d="M259.5,64.7c-0.2-2.7-0.4-3.8-3.2-4.5c-5.1-1.3-10.8-0.3-16-0.3c-15.7,0-31.4-0.5-47.1-0.8c-0.8,0-1.5,0.7-1.5,1.5v12.7
	c0,0.8,0.7,1.5,1.5,1.5c15,0.1,30-0.4,45-0.2c3.5,0.1,6.9,0.2,10.4,0.4c2.1,0.1,6.7,1.5,8.5,0.8C261,74.1,259.9,67.9,259.5,64.7
	c-0.3-1.9-3.3-1.9-3,0c0.3,2.3,1.4,6.6-1.3,7.9c-1.5,0.7-6.4-0.6-8.2-0.7c-5.9-0.3-11.7-0.3-17.6-0.3c-12,0.1-24.1,0.2-36.1,0.2
	l1.5,1.5V60.6l-1.5,1.5c12.5,0.2,24.9,0.5,37.4,0.7c5.4,0.1,10.9,0.2,16.3,0c2.4-0.2,4.8-0.2,7.2,0.1c2,0.3,2.3,0.1,2.4,1.9
	C256.5,66.6,259.6,66.7,259.5,64.7z"/>
</svg>
