<svg xmlns="http://www.w3.org/2000/svg" viewBox="0 0 388.25 76.77"><defs><style>.cls-1{fill:#f3eee8;}</style></defs><title>timeline-5</title><g id="圖層_1" data-name="圖層 1"><path d="M291.81,32.39a5.79,5.79,0,0,1,0,1c-.06.37-.24.62-.27,1-.05.79,0,1.61,0,2.4v2.94c0,.55-.22,1.45.18,1.85.2.21.57.27.82.42.48.27.84.74,1.34,1a23.16,23.16,0,0,1,2.74,1.12c.55.35,1.3,1.53.26,1.75a6.3,6.3,0,0,1-2-.08,19.88,19.88,0,0,0-2.3-.45c-.58,0-1.18,0-1.77,0a5.45,5.45,0,0,1-1.28-.06c-.3-.06-1.06-.17-1.24-.41-.29-.4,0-2.09,0-2.59,0-1.67-.25-3.2-.25-4.87V34.87a6.57,6.57,0,0,0-.06-1.26c-.09-.5-.34-.92-.17-1.45a7.86,7.86,0,0,1,1.88,0,6.17,6.17,0,0,1,1.61,0l0,.21"/><path d="M277.07,32.39a5.79,5.79,0,0,1,0,1c-.06.37-.24.62-.27,1-.06.79,0,1.61,0,2.4,0,1,0,2,0,2.94,0,.55-.22,1.45.17,1.85a3.8,3.8,0,0,0,.83.42c.47.27.84.74,1.34,1a23.88,23.88,0,0,1,2.74,1.12c.54.35,1.3,1.53.26,1.75a6.3,6.3,0,0,1-2-.08,20.74,20.74,0,0,0-2.3-.45c-.58,0-1.19,0-1.77,0a5.56,5.56,0,0,1-1.29-.06c-.29-.06-1-.17-1.23-.41-.29-.4,0-2.09,0-2.59,0-1.67-.25-3.2-.25-4.87,0-.85,0-1.7,0-2.55a6.57,6.57,0,0,0-.06-1.26c-.09-.5-.34-.92-.17-1.45a7.86,7.86,0,0,1,1.88,0,6.18,6.18,0,0,1,1.61,0l0,.21"/><path class="cls-1" d="M283.53,1.5c-6.75-.27-14.29,5.14-16.66,9.32-3.09,5.45-4.09,12-1.11,17.7,4.28,8.15,16.15,12.24,25.11,9.32,10.86-3.53,15-15.74,10.42-25.38C301.29,12.46,298.41,2.1,283.53,1.5Z"/><path d="M283.53,0c-13.42.24-24.92,14.13-19.93,27.35,4.13,10.94,18.95,15.68,29.3,11.32C303.47,34.22,307,22,302.69,11.91,299.33,4,291.87.55,283.53,0c-1.93-.12-1.92,2.88,0,3,6.69.44,13.11,3,16.11,9.28,3.26,6.87,2.47,15.25-3.2,20.61-7.33,6.94-20.41,5.23-27-1.87-10.27-11,.75-27.78,14.12-28C285.46,3,285.46,0,283.53,0Z"/><path d="M283.7,2.18a130.85,130.85,0,0,1-1.46,17A1.51,1.51,0,0,0,285,20.33l.08-.1-1.3.74h.16c1.93-.1,1.94-3.11,0-3a1.76,1.76,0,0,0-1.53.85L285.14,20a136.19,136.19,0,0,0,1.56-17.8c0-1.93-3-1.93-3,0Z"/><path d="M282.74,20.65c2.76,2.21,5.41,4.55,8.19,6.74,2.26,1.8,4.26,4.2,6.73,5.7,1.65,1,3.16-1.59,1.51-2.59-2.49-1.52-4.55-4-6.87-5.81-2.56-2-4.92-4.15-7.44-6.16-1.5-1.19-3.63.92-2.12,2.12Z"/><path d="M283,18.53c-3.45,1.29-6.91,2.92-10.27,4.46-2.46,1.13-5.47,2.39-7.42,4.31-1.38,1.36.74,3.48,2.12,2.12,1.74-1.7,4.63-2.86,6.81-3.84,3.09-1.38,6.4-3,9.56-4.16,1.79-.67,1-3.57-.8-2.89Z"/><path d="M285,6.33a77.88,77.88,0,0,1-7.27-3.16c-1.75-.77-3.28,1.82-1.51,2.59a86.57,86.57,0,0,0,8,3.46c1.84.6,2.63-2.3.8-2.89Z"/><path d="M284.05,9.32a18.92,18.92,0,0,1-5-1.8c-1.46-.62-3-1-4.45-1.68-1.74-.8-3.27,1.79-1.51,2.59s3.7,1.35,5.51,2.15a18.51,18.51,0,0,0,5.41,1.74c1.92.23,1.9-2.77,0-3Z"/><path d="M283.69,12.43c-4.29-1.61-8.76-2.7-13.08-4.2l1.1,1.45V9.55c-.23-1.89-3.23-1.91-3,0v.13a1.6,1.6,0,0,0,1.11,1.44c4.31,1.5,8.78,2.59,13.07,4.2,1.81.68,2.59-2.22.8-2.89Z"/><path d="M283,15.55c-5.94,0-11.74-2.77-17.69-3.18v3a1.22,1.22,0,0,0,.27,0,1.5,1.5,0,0,0,0-3,1.22,1.22,0,0,1-.27,0c-2,0-1.91,2.87,0,3,6,.41,11.7,3.14,17.69,3.18a1.5,1.5,0,0,0,0-3Z"/><path d="M280.26,19.93c-5.06-1.56-10.26-2.51-15.38-3.82-1.87-.48-2.67,2.42-.8,2.9,5.12,1.3,10.33,2.25,15.38,3.81,1.85.57,2.64-2.33.8-2.89Z"/><path d="M273.12,22.16c-1.75-.23-3.5-.42-5.26-.6l-1.44-.12c-.24,0-.51-.07-.75-.07s-.6-.34-.13.09c-1.42-1.3-3.55.81-2.12,2.12.95.86,2.35.8,3.56.9,2,.17,4.1.41,6.14.68s1.89-2.75,0-3Z"/><path d="M281.37,30.59A3,3,0,0,0,280,29.7c-1.79-.54-4,1.12-3.09,3.05a3.48,3.48,0,0,0,2.69,1.8,2.45,2.45,0,0,0,2.66-1.5A2.24,2.24,0,0,0,281.37,30.59Z"/><path d="M291.32,30.59A3.1,3.1,0,0,0,290,29.7c-1.79-.54-4,1.12-3.09,3.05a3.48,3.48,0,0,0,2.69,1.8,2.47,2.47,0,0,0,2.67-1.5A2.26,2.26,0,0,0,291.32,30.59Z"/><path d="M283.38,25.25a1.69,1.69,0,0,0-.73-.48c-1-.29-2.18.61-1.67,1.65a1.88,1.88,0,0,0,1.46,1,1.33,1.33,0,0,0,1.44-.81A1.21,1.21,0,0,0,283.38,25.25Z"/><path d="M274.1,29.64a1.61,1.61,0,0,0-.72-.48c-1-.29-2.18.61-1.67,1.65a1.88,1.88,0,0,0,1.46,1,1.33,1.33,0,0,0,1.44-.81A1.22,1.22,0,0,0,274.1,29.64Z"/><path d="M92.89,59c-9.23-.39-17.94-.58-26.77-.42V72.26c19.32-.58,38.7-.66,58.12-.66l5.89,0V59.42C117.68,59.52,105.21,59.55,92.89,59Z"/><path d="M92.89,57.53C84,57.16,75.05,57,66.12,57.11a1.52,1.52,0,0,0-1.5,1.5V72.26a1.52,1.52,0,0,0,1.5,1.5c21.33-.62,42.67-.72,64-.64a1.52,1.52,0,0,0,1.5-1.5V59.42a1.53,1.53,0,0,0-1.5-1.5c-12.42.1-24.83.1-37.24-.39-1.93-.08-1.92,2.92,0,3,12.41.49,24.82.49,37.24.39l-1.5-1.5v12.2l1.5-1.5c-21.34-.08-42.68,0-64,.64l1.5,1.5V58.61l-1.5,1.5c8.93-.13,17.85,0,26.77.42C94.82,60.6,94.82,57.6,92.89,57.53Z"/><path d="M49.82,59.28c-10.16.66-20.57.41-30.91.66-3,.06-10.92-.34-13.53.4-3.56,1-3.17,3-3.84,4.59,0,0-.24,9,.77,9.62,13-.91,26.65-.54,39.88-1.28,8-.45,16-.77,23.93-1V58.61C60.78,58.7,55.39,58.91,49.82,59.28Z"/><path d="M49.82,57.78c-13.25.79-26.53.24-39.79.63-3,.08-6.8.12-8.74,2.91C-.16,63.39,0,66.15,0,68.54c0,1.86-.4,5.83,1.37,7.19,1.4,1.07,4.86.08,6.51,0,3.79-.17,7.58-.26,11.37-.33,15.63-.31,31.22-1.16,46.84-1.64a1.52,1.52,0,0,0,1.5-1.5V58.61a1.51,1.51,0,0,0-1.5-1.5q-8.16.15-16.3.67c-1.91.12-1.93,3.12,0,3q8.15-.51,16.3-.67l-1.5-1.5V72.26l1.5-1.5c-11.79.37-23.56,1.16-35.35,1.43-5.73.13-11.47.18-17.2.34-2.48.07-7.07,1.13-9.4.4-1.06-.33-.24,1-1-.54A7.51,7.51,0,0,1,3.06,70C3,67.29,2.47,64.78,4.6,62.85c2.75-2.51,8.33-1.45,11.88-1.42,11.09.09,22.28,0,33.34-.65C51.74,60.66,51.76,57.66,49.82,57.78Z"/><path d="M242.83,60.27c-16.21-.18-32.44-.46-48.7-.68V72.34c21.33.35,42.64.72,64,.86V60.51C253.05,60.41,248,60.32,242.83,60.27Z"/><path d="M242.83,58.77c-16.24-.18-32.47-.46-48.7-.68a1.52,1.52,0,0,0-1.5,1.5V72.34a1.52,1.52,0,0,0,1.5,1.5c21.33.35,42.67.71,64,.86a1.52,1.52,0,0,0,1.5-1.5V60.51a1.52,1.52,0,0,0-1.5-1.5q-7.65-.15-15.3-.24a1.5,1.5,0,0,0,0,3q7.65.09,15.3.24l-1.5-1.5V73.2l1.5-1.5c-21.33-.15-42.67-.51-64-.86l1.5,1.5V59.59l-1.5,1.5c16.23.22,32.46.5,48.7.68A1.5,1.5,0,0,0,242.83,58.77Z"/><path d="M154.29,59.27c-8,0-16.09.09-24.16.15v12.2c21.39.06,42.71.37,64,.72V59.59C180.87,59.41,167.6,59.27,154.29,59.27Z"/><path d="M154.29,57.77c-8,0-16.11.09-24.16.15a1.53,1.53,0,0,0-1.5,1.5v12.2a1.51,1.51,0,0,0,1.5,1.5c21.33.06,42.67.37,64,.72a1.52,1.52,0,0,0,1.5-1.5V59.59a1.52,1.52,0,0,0-1.5-1.5c-13.28-.18-26.56-.32-39.84-.32a1.5,1.5,0,0,0,0,3c13.28,0,26.56.14,39.84.32l-1.5-1.5V72.34l1.5-1.5c-21.33-.35-42.67-.66-64-.72l1.5,1.5V59.42l-1.5,1.5c8.05-.06,16.11-.15,24.16-.15A1.5,1.5,0,0,0,154.29,57.77Z"/><path d="M387.77,65.47c-.17-2.7-.37-3.77-3.2-4.51-5.09-1.34-10.79-.33-16-.34-15.69,0-31.38-.46-47.06-.76a1.52,1.52,0,0,0-1.5,1.5V74.05a1.51,1.51,0,0,0,1.5,1.5c15,.1,30-.37,45-.17,3.46.05,6.92.15,10.38.39,2.11.14,6.69,1.54,8.47.76,3.94-1.72,2.79-7.86,2.37-11.06-.25-1.89-3.25-1.91-3,0,.3,2.28,1.39,6.63-1.33,7.91-1.52.71-6.42-.62-8.2-.72-5.85-.33-11.72-.33-17.57-.28-12.05.12-24.09.25-36.14.17l1.5,1.5V61.36l-1.5,1.5c12.46.24,24.92.55,37.38.69,5.43.06,10.87.16,16.29,0a38.37,38.37,0,0,1,7.19.07c2,.3,2.27.08,2.38,1.9S387.89,67.4,387.77,65.47Z"/><path d="M306.83,61.25c-16.21-.18-32.44-.47-48.7-.69V73.32c21.33.35,42.65.72,64,.86V61.48C317.05,61.39,312,61.3,306.83,61.25Z"/><path d="M306.83,59.75c-16.23-.19-32.47-.46-48.7-.69a1.52,1.52,0,0,0-1.5,1.5V73.32a1.53,1.53,0,0,0,1.5,1.5c21.33.35,42.67.71,64,.86a1.52,1.52,0,0,0,1.5-1.5V61.48a1.52,1.52,0,0,0-1.5-1.5c-5.1-.09-10.2-.18-15.3-.23-1.93,0-1.93,3,0,3,5.1,0,10.2.14,15.3.23l-1.5-1.5v12.7l1.5-1.5c-21.33-.15-42.67-.51-64-.86l1.5,1.5V60.56l-1.5,1.5c16.23.23,32.47.5,48.7.69A1.5,1.5,0,0,0,306.83,59.75Z"/></g></svg>