<?xml version="1.0" encoding="utf-8"?>
<!-- Generator: Adobe Illustrator 21.1.0, SVG Export Plug-In . SVG Version: 6.00 Build 0)  -->
<svg version="1.1" id="圖層_1" xmlns="http://www.w3.org/2000/svg" xmlns:xlink="http://www.w3.org/1999/xlink" x="0px" y="0px"
	 viewBox="0 0 259.9 77.8" style="enable-background:new 0 0 259.9 77.8;" xml:space="preserve">
<style type="text/css">
	.st0{fill:#F3EEE8;}
</style>
<title>timeline-3</title>
<path d="M169.9,32.4c0,0.3,0,0.7,0,1c-0.1,0.3-0.2,0.7-0.3,1c-0.1,0.8,0,1.6,0,2.4v2.9c0,0.5-0.2,1.5,0.2,1.8
	c0.2,0.2,0.6,0.3,0.8,0.4c0.5,0.3,0.8,0.7,1.3,1c0.9,0.3,1.8,0.7,2.7,1.1c0.6,0.3,1.3,1.5,0.3,1.8c-0.7,0.1-1.3,0.1-2-0.1
	c-0.8-0.2-1.5-0.3-2.3-0.5c-0.6,0-1.2,0-1.8,0c-0.4,0-0.9,0-1.3-0.1c-0.3-0.1-1.1-0.2-1.2-0.4c-0.3-0.4,0-2.1,0-2.6
	c0-1.7-0.3-3.2-0.3-4.9v-2.5c0-0.4,0-0.8,0-1.3c-0.2-0.5-0.3-1-0.2-1.5c0.6-0.1,1.3-0.1,1.9,0c0.5-0.1,1.1-0.1,1.6,0v0.2"/>
<path d="M155.1,32.4c0,0.3,0,0.7,0,1c-0.1,0.3-0.2,0.7-0.3,1c0,0.8,0,1.6,0,2.4v2.9c0,0.5-0.2,1.5,0.2,1.8c0.2,0.2,0.6,0.3,0.8,0.4
	c0.5,0.3,0.9,0.7,1.3,1c1,0.3,1.9,0.7,2.8,1.1c0.6,0.3,1.3,1.5,0.3,1.8c-0.7,0.1-1.3,0.1-2-0.1c-0.8-0.2-1.5-0.3-2.3-0.5
	c-0.6,0-1.2,0-1.8,0c-0.4,0-0.9,0-1.3-0.1c-0.3-0.1-1.1-0.2-1.2-0.4c-0.3-0.4,0-2.1,0-2.6c0-1.7-0.2-3.2-0.2-4.9v-2.5
	c0-0.4,0-0.8-0.1-1.3c-0.1-0.5-0.3-0.9-0.2-1.5c0.6-0.1,1.3-0.1,1.9,0c0.5-0.1,1.1-0.1,1.6,0v0.2"/>
<path class="st0" d="M161.6,1.5c-6.7-0.3-14.3,5.1-16.6,9.3c-3.1,5.5-4.1,12-1.1,17.7c4.3,8.1,16.1,12.2,25.1,9.3
	c10.9-3.5,15-15.7,10.4-25.4C179.4,12.5,176.5,2.1,161.6,1.5z"/>
<path d="M161.6,0c-13.4,0.2-24.9,14.1-19.9,27.4c4.1,10.9,18.9,15.6,29.3,11.3c10.6-4.4,14-16.7,9.8-26.8C177.4,4,170,0.5,161.6,0
	c-1.9-0.1-1.9,2.9,0,3c6.7,0.4,13.1,3,16.1,9.3c3.3,6.9,2.5,15.2-3.2,20.6c-7.3,6.9-20.4,5.2-27-1.9c-10.3-11,0.8-27.8,14.1-28
	C163.5,3,163.5,0,161.6,0z"/>
<path d="M161.8,2.2c-0.1,5.7-0.6,11.4-1.4,17c-0.2,0.8,0.3,1.6,1.1,1.8c0.6,0.1,1.2-0.1,1.6-0.7l0.1-0.1l-1.3,0.7h0.2
	c1.9-0.1,1.9-3.1,0-3c-0.6,0-1.2,0.3-1.5,0.9l2.7,1.2c0.9-5.9,1.4-11.8,1.6-17.8C164.8,0.3,161.8,0.3,161.8,2.2L161.8,2.2z"/>
<path d="M160.8,20.6c2.8,2.2,5.4,4.6,8.2,6.7c2.3,1.8,4.3,4.2,6.7,5.7c1.6,1,3.2-1.6,1.5-2.6c-2.5-1.5-4.6-4-6.9-5.8
	c-2.6-2-4.9-4.1-7.4-6.2C161.4,17.3,159.3,19.4,160.8,20.6z"/>
<path d="M161.1,18.5c-3.4,1.3-6.9,2.9-10.3,4.5c-2.4,1.1-5.5,2.4-7.4,4.3c-1.4,1.4,0.7,3.5,2.1,2.1c1.7-1.7,4.6-2.9,6.8-3.8
	c3.1-1.4,6.4-3,9.6-4.2C163.7,20.7,162.9,17.8,161.1,18.5z"/>
<path d="M163,6.3c-2.5-0.9-4.9-2-7.3-3.2c-1.7-0.8-3.2,1.8-1.5,2.6c2.6,1.3,5.3,2.4,8,3.5C164.1,9.8,164.9,6.9,163,6.3L163,6.3z"/>
<path d="M162.1,9.3c-1.7-0.4-3.4-1-5-1.8c-1.5-0.6-3-1-4.4-1.7c-1.7-0.8-3.2,1.8-1.5,2.6s3.7,1.4,5.5,2.1c1.7,0.9,3.5,1.4,5.4,1.7
	C164,12.5,164,9.5,162.1,9.3z"/>
<path d="M161.8,12.4c-4.3-1.6-8.8-2.7-13.1-4.2l1.1,1.4V9.5c-0.2-1.9-3.2-1.9-3,0v0.1c0,0.7,0.5,1.2,1.1,1.4
	c4.3,1.5,8.8,2.6,13.1,4.2C162.8,16,163.6,13.1,161.8,12.4L161.8,12.4z"/>
<path d="M161.1,15.5c-5.9,0-11.7-2.8-17.7-3.2v3c0.1,0,0.2,0,0.3,0c0.8,0,1.5-0.7,1.5-1.5s-0.7-1.5-1.5-1.5c-0.1,0-0.2,0-0.3,0
	c-1.9,0-1.9,2.9,0,3c6,0.4,11.7,3.1,17.7,3.2c0.8,0,1.5-0.7,1.5-1.5S161.9,15.5,161.1,15.5z"/>
<path d="M158.3,19.9c-5.1-1.6-10.3-2.5-15.4-3.8c-1.9-0.5-2.7,2.4-0.8,2.9c5.1,1.3,10.3,2.2,15.4,3.8
	C159.4,23.4,160.2,20.5,158.3,19.9z"/>
<path d="M151.2,22.2c-1.8-0.2-3.5-0.4-5.3-0.6c-0.5,0-1-0.1-1.4-0.1c-0.2,0-0.5-0.1-0.8-0.1s-0.6-0.3-0.1,0.1
	c-1.4-1.3-3.6,0.8-2.1,2.1c0.9,0.9,2.4,0.8,3.6,0.9c2,0.2,4.1,0.4,6.1,0.7S153.1,22.4,151.2,22.2z"/>
<path d="M159.4,30.6c-0.4-0.4-0.8-0.7-1.3-0.9c-1.8-0.5-4,1.1-3.1,3c0.5,1,1.6,1.7,2.7,1.8c1.1,0.2,2.2-0.4,2.7-1.5
	C160.6,32.1,160.3,31.1,159.4,30.6z"/>
<path d="M169.4,30.6c-0.4-0.4-0.8-0.7-1.3-0.9c-1.8-0.5-4.1,1.1-3.1,3c0.6,1,1.6,1.7,2.7,1.8c1.1,0.2,2.2-0.4,2.7-1.5
	C170.6,32.1,170.2,31.1,169.4,30.6z"/>
<path d="M161.4,25.2c-0.2-0.2-0.4-0.4-0.7-0.5c-1-0.3-2.2,0.6-1.7,1.6c0.3,0.6,0.8,0.9,1.4,1c0.6,0.1,1.2-0.2,1.4-0.8
	C162.1,26.1,161.9,25.5,161.4,25.2z"/>
<path d="M152.2,29.6c-0.2-0.2-0.4-0.4-0.7-0.5c-1-0.3-2.2,0.6-1.7,1.6c0.3,0.6,0.8,0.9,1.5,1c0.6,0.1,1.2-0.2,1.4-0.8
	C152.8,30.5,152.6,29.9,152.2,29.6z"/>
<path d="M119.7,60c-18.5-0.4-35.9-0.6-53.6-0.4v13.7c38.7-0.6,77.5-0.7,116.4-0.7c3.9,0,7.9,0,11.8,0V60.4
	C169.4,60.5,144.4,60.5,119.7,60z"/>
<path d="M92.9,58.5C84,58.2,75.1,58,66.1,58.1c-0.8,0-1.5,0.7-1.5,1.5v13.7c0,0.8,0.7,1.5,1.5,1.5c21.3-0.6,42.7-0.7,64-0.6
	c0.8,0,1.5-0.7,1.5-1.5V60.4c0-0.8-0.7-1.5-1.5-1.5C117.7,59,105.3,59,92.9,58.5c-1.9-0.1-1.9,2.9,0,3c12.4,0.5,24.8,0.5,37.2,0.4
	l-1.5-1.5v12.2l1.5-1.5c-21.3-0.1-42.7,0-64,0.6l1.5,1.5V59.6l-1.5,1.5c8.9-0.1,17.8,0,26.8,0.4C94.8,61.6,94.8,58.6,92.9,58.5z"/>
<path d="M49.8,60.3c-10.2,0.7-20.6,0.4-30.9,0.7C15.9,61,8,60.6,5.4,61.3c-3.6,1-3.2,3-3.8,4.6c0,0-0.2,9,0.8,9.6
	c13-0.9,26.6-0.5,39.9-1.3c8-0.4,16-0.8,23.9-1V59.6C60.8,59.7,55.4,59.9,49.8,60.3z"/>
<path d="M49.8,58.8C36.6,59.6,23.3,59,10,59.4c-3,0.1-6.8,0.1-8.7,2.9C-0.2,64.4,0,67.1,0,69.5c0,1.9-0.4,5.8,1.4,7.2
	c1.4,1.1,4.9,0.1,6.5,0c3.8-0.2,7.6-0.3,11.4-0.3c15.6-0.3,31.2-1.2,46.8-1.6c0.8,0,1.5-0.7,1.5-1.5V59.6c0-0.8-0.7-1.5-1.5-1.5
	C60.6,58.2,55.2,58.4,49.8,58.8c-1.9,0.1-2,3.1,0,3c5.4-0.3,10.9-0.6,16.3-0.7l-1.5-1.5v13.7l1.5-1.5c-11.8,0.4-23.6,1.2-35.3,1.4
	c-5.7,0.1-11.5,0.2-17.2,0.3c-2.5,0.1-7.1,1.1-9.4,0.4c-1.1-0.3-0.2,1-1-0.5C3,72.6,3,71.8,3.1,71c-0.1-2.7-0.6-5.2,1.5-7.2
	c2.8-2.5,8.3-1.5,11.9-1.4c11.1,0.1,22.3,0,33.3-0.7C51.7,61.7,51.8,58.7,49.8,58.8z"/>
<path d="M154.3,58.8c-8,0-16.1,0.1-24.2,0.2c-0.8,0-1.5,0.7-1.5,1.5v12.2c0,0.8,0.7,1.5,1.5,1.5c21.3,0.1,42.7,0.4,64,0.7
	c0.8,0,1.5-0.7,1.5-1.5V60.6c0-0.8-0.7-1.5-1.5-1.5C180.8,58.9,167.6,58.8,154.3,58.8c-0.8,0-1.5,0.7-1.5,1.5s0.7,1.5,1.5,1.5
	c13.3,0,26.6,0.1,39.8,0.3l-1.5-1.5v12.7l1.5-1.5c-21.3-0.3-42.7-0.7-64-0.7l1.5,1.5V60.4l-1.5,1.5c8.1-0.1,16.1-0.2,24.2-0.2
	c0.8,0,1.5-0.7,1.5-1.5S155.1,58.8,154.3,58.8z"/>
<path d="M259.5,64.7c-0.2-2.7-0.4-3.8-3.2-4.5c-5.1-1.3-10.8-0.3-16-0.3c-15.7,0-31.4-0.5-47.1-0.8c-0.8,0-1.5,0.7-1.5,1.5v12.7
	c0,0.8,0.7,1.5,1.5,1.5c15,0.1,30-0.4,45-0.2c3.5,0.1,6.9,0.2,10.4,0.4c2.1,0.1,6.7,1.5,8.5,0.8C261,74.1,259.9,67.9,259.5,64.7
	c-0.3-1.9-3.3-1.9-3,0c0.3,2.3,1.4,6.6-1.3,7.9c-1.5,0.7-6.4-0.6-8.2-0.7c-5.9-0.3-11.7-0.3-17.6-0.3c-12,0.1-24.1,0.2-36.1,0.2
	l1.5,1.5V60.6l-1.5,1.5c12.5,0.2,24.9,0.5,37.4,0.7c5.4,0.1,10.9,0.2,16.3,0c2.4-0.2,4.8-0.2,7.2,0.1c2,0.3,2.3,0.1,2.4,1.9
	C256.5,66.6,259.6,66.7,259.5,64.7z"/>
</svg>
