<svg xmlns="http://www.w3.org/2000/svg" viewBox="0 0 778.39 128.94"><defs><style>.cls-1{fill:#d1ccc7;}</style></defs><title>bubble</title><g id="Layer_2" data-name="Layer 2"><g id="圖層_1" data-name="圖層 1"><path class="cls-1" d="M90.93,3.59c27.44,0,54.11-2.7,81.84-3.38C196.23-.37,220,.32,243,1.46,293.53,4,344.16.43,395,1c89.6,1,179.07,4.36,268.3,6.69,22.3.58,46.71,0,68.59,3.22C759.41,15,762.49,31.22,769,45.17a77.47,77.47,0,0,1,7.38,34.17c0,10,5.35,26.48-1.49,35.77-5,6.73-12.23,5.06-25.88,5.83-16.52.93-33.14.95-49.72,1.71-47.82,2.19-97.61,1.61-145.56,1.67-89.42.11-178.73,6.31-268.42,4.18-42.13-1-80.51-4.58-122.76-2.68-31.29,1.41-88.66,3.09-120,1C-1.37,123.91-1.76,97.74.92,72.74,2.8,55.17-6.47,16.21,26.56,6,26.56,6,51.87,3.59,90.93,3.59Z"/></g></g></svg>