<svg xmlns="http://www.w3.org/2000/svg" viewBox="0 0 173.57 173.03"><defs><style>.cls-1{fill:#f3eee8;}</style></defs><title>confidence</title><g id="Layer_2" data-name="Layer 2"><g id="圖層_1" data-name="圖層 1"><path class="cls-1" d="M87.52,3C116.38,1.79,148,23.45,158.15,42.5c13.22,24.87,17.51,54.81,4.74,80.76-18.28,37.14-69.11,55.82-107.43,42.51C9,149.65-8.75,94,10.87,50,10.87,50,23.84,5.77,87.52,3Z"/><path d="M87.52,6c20.91-.61,41.82,9.49,56.75,23.73s22.33,35.86,23.2,56A72.81,72.81,0,0,1,145.31,142c-12.77,12.26-29.44,20.2-46.77,23.48C80.86,168.84,62,167,46.06,158.41a75,75,0,0,1-33-36.37C2.58,98,4.41,69.68,15.42,46.66,28.54,19.24,58.68,7.44,87.52,6c3.84-.19,3.87-6.19,0-6C57.79,1.48,27.11,13.14,12,40.3a97.22,97.22,0,0,0-7.09,77c12.36,36.43,47,58.8,85.26,55.34,40.24-3.64,78-31.79,82.87-73.61,2.76-23.65-4.41-51.79-20.65-69.64C136.33,11.82,111.58-.68,87.52,0,83.66.14,83.65,6.14,87.52,6Z"/><circle cx="98.44" cy="94.44" r="3.81"/><path d="M97.17,86.56c4-.5,9.37-.76,11.58,3.43,3.57,6.76-4.12,11.58-9.89,11.14-2-.15-4.51-.29-6.19-1.37-1.92-1.23-2.41-3.27-2.23-5.54a8.79,8.79,0,0,1,7.13-7.72c1.88-.43,1.08-3.32-.8-2.89a11.67,11.67,0,0,0-9.24,12.31c.33,7,6.93,8.52,13.1,8.33,6.85-.21,12.85-5.69,11.69-12.85-1.19-7.38-9-8.61-15.15-7.84C95.28,83.79,95.26,86.79,97.17,86.56Z"/><path d="M59.19,86.56c4-.5,9.37-.76,11.58,3.43,3.57,6.76-4.12,11.58-9.89,11.14-2-.15-4.51-.29-6.19-1.37-1.92-1.23-2.41-3.27-2.23-5.54a8.79,8.79,0,0,1,7.13-7.72c1.88-.43,1.08-3.32-.8-2.89a11.67,11.67,0,0,0-9.24,12.31c.33,7,6.93,8.52,13.1,8.33C69.5,104,75.5,98.56,74.34,91.4c-1.19-7.38-9-8.61-15.15-7.84C57.3,83.79,57.27,86.79,59.19,86.56Z"/><circle cx="59.7" cy="94.44" r="3.81"/><path d="M94,71.41c-1,.53-2.14,1-2.5,2.25A2.94,2.94,0,0,0,92.74,77c1.72.94,4.24-.51,5.51-1.72,1.52-1.45,2.47-4.44-.14-5.34-1.88-.65-5,.64-5.64,2.58-.55,1.63,1.14,2.73,2.59,2.64a3.35,3.35,0,0,0,3.07-2.29,1.51,1.51,0,0,0-1.45-1.9l-.35,0a1.55,1.55,0,0,0-1.5,1.5,1.51,1.51,0,0,0,1.5,1.5l.35,0L95.23,72c.06-.22,0,0-.14.05s-.3.09-.3.05.52.51.34.26l.15,1.16c0-.2,0-.05,0,0s.08-.07.08-.07c.18-.08.39-.26.59-.37a3.74,3.74,0,0,1,.66-.26c.2-.06.42,0,.46-.08s.06.11,0,0c0,.09-.58-1-.31-.43-.07-.14-.08-.12,0,0-.06-.09,0-.17,0,0,.06-.13-.19.33-.26.43a4.26,4.26,0,0,1-.36.39,2.24,2.24,0,0,1-.23.2c.12-.08.06-.06,0,0l-.6.36c-.42.24-.81.39-1.2.57s-.08-.07,0,0,.34.19.26.17c.11,0,.14.25.08,0s0,.07-.05.11L95.5,74c1.72-.88.2-3.47-1.51-2.59Z"/><path d="M68.36,71c-1.22-.73-2.55-1.51-3.95-.68a2.79,2.79,0,0,0-1.35,3.15c.53,1.71,3,3,4.69,3.22,2,.32,4.62-.54,4-3-.47-2-3.23-3.94-5.26-3.4-1.56.42-1.61,2.3-.88,3.46a3.39,3.39,0,0,0,3.63,1.51,1.52,1.52,0,0,0,.66-2.51l-.22-.28a1.51,1.51,0,0,0-2.12,0,1.53,1.53,0,0,0,0,2.12l.22.28.66-2.51a.47.47,0,0,1-.17-.09c-.38-.32-.07-.18-.11-.08l-1,1q.35-.1,0-.05l.22.05c.16.1.38.16.56.26.32.18.58.5.88.67.14.08.07.17.09.17s.27-.75.38-.6a4.59,4.59,0,0,1-.88,0A4.85,4.85,0,0,1,66.52,73c-.16-.09-.31-.21-.46-.3-.44-.29,0-.2-.16.15s0,.27.06.1q-.32,0,0,.13l.93.56A1.5,1.5,0,0,0,68.36,71Z"/><path d="M76,92.06a28.56,28.56,0,0,0-1,7.14c0,1.81.08,3.73,1.76,4.84,3.15,2.09,7.58,0,7.11-4a1.55,1.55,0,0,0-1.1-1.45l-.16,0c-1.88-.39-2.69,2.5-.8,2.89l.16,0-1.1-1.45a1.48,1.48,0,0,1-2.07,1.61c-1.11-.52-.81-1.87-.81-2.85a25.1,25.1,0,0,1,.92-6c.44-1.88-2.45-2.68-2.89-.8Z"/><path d="M61.11,114.23c4-1,8-1,12.13-1.37,5.15-.43,10.42-.82,15.59-.88,6.82-.07,16.67,1.76,21.58-4.55,1.17-1.51-.94-3.64-2.12-2.12-5,6.4-17,3.35-23.86,3.84-7.93.57-16.43.3-24.11,2.18-1.87.46-1.08,3.35.8,2.89Z"/><path d="M26.21,143.85c.1-11.38,2.48-23,1.54-34.35-.76-9.19-2.83-18.79-.67-27.94,2.3-9.74,6.4-17.38,14.12-23.83C49.26,51,58.11,47.39,68.31,45.21c4.15-.89,8.57-2.25,12.78-2.66,5.26-.51,10.82,0,16.11,0,5.11,0,9.31,0,14.07,2.21,4,1.85,8.31,3.8,11.81,6.46,7.24,5.5,11.27,14.46,13.72,22.82,1.41,4.79,4.54,8.9,5.27,13.9.67,4.58.93,8.83,1.9,13.38s.63,9.71,2.3,14,5.24,8,8.42,11.34c2.67,2.8,6.91-1.45,4.24-4.24-4.19-4.38-7.11-7.87-7.62-14-.37-4.54-2-8.82-2.8-13.25-.89-4.84-.23-9.19-2.13-13.91-.78-1.95-1.77-3.79-2.62-5.7-1.26-2.8-1.63-5.75-2.57-8.63A46.92,46.92,0,0,0,126.74,46.5c-6.64-5.07-16-9.8-24.4-10-19.51-.36-41.58.39-58.44,11.66C36,53.46,28.93,59.88,25,68.65a55.88,55.88,0,0,0-4.62,26.12c.39,9,1.58,17.54,1.05,26.52-.44,7.51-1.2,15-1.26,22.56,0,3.86,6,3.87,6,0Z"/><path d="M78.4,119.94c-5-.61-7.65,4.19-6.45,8.65A6.25,6.25,0,0,0,75.67,133c2.54.85,4.93-.57,6.78-2.2l-2.36-.3c2.41,3.93,6.82,6.32,10.38,2.22,1.9-2.18,3.86-7.51.26-9.18-1.74-.8-3.27,1.78-1.51,2.59,1.46.67-.24,3.69-.87,4.47-2.12,2.62-4.25.68-5.66-1.61a1.52,1.52,0,0,0-2.36-.3c-2.25,2-4.86,2.13-5.56-1.23-.56-2.7.71-4.9,3.63-4.55,1.91.23,1.9-2.77,0-3Z"/></g></g></svg>