<svg xmlns="http://www.w3.org/2000/svg" viewBox="0 0 388.25 77.77"><defs><style>.cls-1{fill:#f3eee8;}</style></defs><title>step-2</title><g id="Layer_2" data-name="Layer 2"><g id="圖層_1" data-name="圖層 1"><path d="M102.27,32.39a6.31,6.31,0,0,1,0,1,8.85,8.85,0,0,0-.27,1c-.05.79,0,1.6,0,2.39q0,1.47,0,2.94c0,.55-.21,1.45.18,1.85.2.21.57.27.82.41.47.28.84.74,1.34,1a25.59,25.59,0,0,1,2.74,1.11c.55.36,1.3,1.53.26,1.75a6.24,6.24,0,0,1-2-.07,19.37,19.37,0,0,0-2.3-.46c-.58,0-1.19,0-1.77,0a5.71,5.71,0,0,1-1.28-.06c-.29-.06-1.06-.18-1.24-.42s0-2.09,0-2.58c0-1.67-.25-3.2-.25-4.88,0-.85,0-1.7,0-2.55a6.58,6.58,0,0,0-.06-1.26c-.09-.5-.34-.92-.17-1.45a7.63,7.63,0,0,1,1.88,0,6.21,6.21,0,0,1,1.61,0l0,.21"/><path d="M87.53,32.39a6.31,6.31,0,0,1,0,1,8.85,8.85,0,0,0-.27,1c-.05.79,0,1.6,0,2.39q0,1.47,0,2.94c0,.55-.21,1.45.18,1.85.2.21.57.27.82.41.47.28.84.74,1.34,1a25.59,25.59,0,0,1,2.74,1.11c.55.36,1.3,1.53.26,1.75a6.24,6.24,0,0,1-2-.07,19.37,19.37,0,0,0-2.3-.46c-.58,0-1.19,0-1.77,0a5.71,5.71,0,0,1-1.28-.06c-.29-.06-1.06-.18-1.24-.42s0-2.09,0-2.58c0-1.67-.25-3.2-.25-4.88,0-.85,0-1.7,0-2.55a6.58,6.58,0,0,0-.06-1.26c-.09-.5-.34-.92-.17-1.45a7.63,7.63,0,0,1,1.88,0,6.21,6.21,0,0,1,1.61,0l0,.21"/><path class="cls-1" d="M94,1.5c-6.75-.27-14.29,5.14-16.66,9.31-3.09,5.45-4.09,12-1.11,17.71,4.27,8.14,16.15,12.24,25.11,9.32,10.86-3.54,15-15.75,10.42-25.38C111.75,12.46,108.87,2.1,94,1.5Z"/><path d="M94,0C80.56.24,69.06,14.13,74.06,27.35,78.19,38.29,93,43,103.36,38.67c10.57-4.45,14.06-16.66,9.79-26.76C109.79,4,102.33.55,94,0c-1.93-.13-1.92,2.88,0,3,6.69.44,13.11,3,16.11,9.28,3.26,6.87,2.47,15.24-3.2,20.61-7.33,6.93-20.41,5.22-27-1.87C69.6,20,80.62,3.24,94,3,95.91,3,95.92,0,94,0Z"/><path d="M94.15,2.18a129.6,129.6,0,0,1-1.45,17,1.51,1.51,0,0,0,2.74,1.16l.07-.1-1.3.74h.16c1.92-.1,1.93-3.1,0-3a1.77,1.77,0,0,0-1.53.85L95.59,20A135.69,135.69,0,0,0,97.15,2.18c0-1.93-3-1.93-3,0Z"/><path d="M93.19,20.65c2.77,2.2,5.41,4.55,8.19,6.74,2.27,1.79,4.27,4.19,6.73,5.69,1.65,1,3.16-1.59,1.51-2.59-2.49-1.52-4.55-4-6.87-5.81-2.56-2-4.92-4.15-7.44-6.15-1.5-1.19-3.63.92-2.12,2.12Z"/><path d="M93.48,18.53C90,19.82,86.57,21.45,83.2,23c-2.46,1.12-5.46,2.39-7.42,4.31-1.38,1.35.74,3.48,2.12,2.12,1.74-1.71,4.63-2.86,6.81-3.84,3.09-1.38,6.4-3,9.55-4.16,1.79-.67,1-3.57-.8-2.89Z"/><path d="M95.42,6.33a78.47,78.47,0,0,1-7.27-3.15C86.4,2.4,84.87,5,86.64,5.76a86.2,86.2,0,0,0,8,3.46c1.84.6,2.63-2.3.8-2.89Z"/><path d="M94.51,9.32a18.8,18.8,0,0,1-5-1.8c-1.46-.62-3-1-4.45-1.68-1.74-.8-3.27,1.78-1.51,2.59s3.71,1.35,5.51,2.15a18.55,18.55,0,0,0,5.41,1.74c1.91.23,1.9-2.78,0-3Z"/><path d="M94.15,12.43c-4.29-1.61-8.76-2.7-13.07-4.2l1.1,1.45V9.55c-.23-1.89-3.23-1.92-3,0v.12a1.59,1.59,0,0,0,1.1,1.45c4.32,1.5,8.78,2.59,13.07,4.2,1.81.68,2.59-2.22.8-2.89Z"/><path d="M93.49,15.55c-5.94,0-11.73-2.77-17.69-3.18v3h.28a1.5,1.5,0,0,0,0-3H75.8c-1.95,0-1.91,2.87,0,3,6,.41,11.71,3.13,17.69,3.18a1.5,1.5,0,0,0,0-3Z"/><path d="M90.71,19.93c-5.05-1.56-10.26-2.5-15.38-3.81-1.87-.48-2.67,2.41-.8,2.89,5.12,1.31,10.32,2.25,15.38,3.81,1.85.57,2.64-2.32.8-2.89Z"/><path d="M83.58,22.16c-1.75-.23-3.5-.42-5.26-.6l-1.44-.12c-.25,0-.51-.07-.75-.07s-.6-.34-.13.09c-1.42-1.3-3.55.82-2.12,2.12.95.86,2.35.81,3.56.9,2,.17,4.1.41,6.14.68s1.89-2.75,0-3Z"/><path d="M91.83,30.59a3,3,0,0,0-1.33-.89c-1.79-.54-4,1.13-3.09,3a3.49,3.49,0,0,0,2.69,1.81,2.47,2.47,0,0,0,2.67-1.5A2.25,2.25,0,0,0,91.83,30.59Z"/><path d="M101.77,30.59a3,3,0,0,0-1.33-.89c-1.79-.54-4,1.13-3.09,3A3.49,3.49,0,0,0,100,34.55a2.47,2.47,0,0,0,2.67-1.5A2.25,2.25,0,0,0,101.77,30.59Z"/><path d="M93.83,25.25a1.65,1.65,0,0,0-.72-.48c-1-.29-2.18.61-1.67,1.65a1.89,1.89,0,0,0,1.46,1,1.33,1.33,0,0,0,1.44-.81A1.21,1.21,0,0,0,93.83,25.25Z"/><path d="M84.56,29.64a1.65,1.65,0,0,0-.72-.48c-1-.29-2.18.61-1.67,1.65a1.89,1.89,0,0,0,1.46,1A1.33,1.33,0,0,0,85.06,31,1.21,1.21,0,0,0,84.56,29.64Z"/><path d="M92.89,60c-9.23-.39-17.95-.57-26.77-.42V73.26c19.32-.58,38.7-.66,58.12-.66l5.88,0V60.43C117.68,60.52,105.21,60.55,92.89,60Z"/><path d="M92.89,58.53C84,58.16,75.05,58,66.12,58.11a1.52,1.52,0,0,0-1.5,1.5V73.26a1.52,1.52,0,0,0,1.5,1.5c21.33-.62,42.67-.72,64-.64a1.52,1.52,0,0,0,1.5-1.5V60.43a1.52,1.52,0,0,0-1.5-1.5c-12.41.09-24.83.1-37.23-.4-1.93-.08-1.93,2.92,0,3,12.41.49,24.82.49,37.23.4l-1.5-1.5v12.2l1.5-1.5c-21.33-.09-42.68,0-64,.64l1.5,1.5V59.61l-1.5,1.5c8.93-.13,17.85.06,26.77.42C94.82,61.61,94.82,58.61,92.89,58.53Z"/><path d="M49.82,60.28c-10.16.67-20.57.42-30.92.66-3,.07-10.92-.34-13.53.4-3.56,1-3.17,3-3.84,4.6,0,0-.24,9,.77,9.61,13-.91,26.65-.54,39.88-1.28,8-.45,15.94-.77,23.93-1V59.61C60.78,59.7,55.39,59.91,49.82,60.28Z"/><path d="M49.82,58.78c-13.26.8-26.53.25-39.79.63-3,.09-6.8.13-8.74,2.91C-.16,64.39,0,67.15,0,69.54c0,1.87-.4,5.83,1.37,7.19,1.4,1.07,4.86.08,6.51,0,3.79-.17,7.58-.26,11.38-.33,15.63-.3,31.22-1.15,46.84-1.64a1.53,1.53,0,0,0,1.5-1.5V59.61a1.52,1.52,0,0,0-1.5-1.5q-8.16.16-16.3.67c-1.92.12-1.93,3.12,0,3q8.14-.51,16.3-.67l-1.5-1.5V73.26l1.5-1.5c-11.79.36-23.57,1.15-35.36,1.43-5.73.13-11.46.18-17.19.34-2.49.07-7.07,1.13-9.41.4-1.06-.33-.23,1-1-.54A7.32,7.32,0,0,1,3.06,71c-.11-2.73-.6-5.24,1.53-7.18,2.75-2.5,8.34-1.44,11.89-1.42,11.09.09,22.27,0,33.34-.65C51.74,61.66,51.76,58.66,49.82,58.78Z"/><path d="M242.83,59.77c-16.23-.18-32.47-.46-48.7-.68a1.52,1.52,0,0,0-1.5,1.5V73.34a1.52,1.52,0,0,0,1.5,1.5c21.33.35,42.67.71,64,.86a1.52,1.52,0,0,0,1.5-1.5V61.51a1.52,1.52,0,0,0-1.5-1.5q-7.65-.14-15.3-.24a1.5,1.5,0,0,0,0,3q7.65.09,15.3.24l-1.5-1.5V74.2l1.5-1.5c-21.34-.15-42.67-.51-64-.86l1.5,1.5V60.59l-1.5,1.5c16.23.22,32.47.5,48.7.68A1.5,1.5,0,0,0,242.83,59.77Z"/><path d="M154.29,58.77c-8.05,0-16.11.09-24.16.16a1.52,1.52,0,0,0-1.5,1.5v12.2a1.52,1.52,0,0,0,1.5,1.5c21.34.06,42.67.37,64,.72a1.52,1.52,0,0,0,1.5-1.5V60.59a1.52,1.52,0,0,0-1.5-1.5c-13.28-.18-26.56-.31-39.84-.32a1.5,1.5,0,0,0,0,3c13.28,0,26.56.14,39.84.32l-1.5-1.5V73.34l1.5-1.5c-21.33-.35-42.67-.66-64-.72l1.5,1.5V60.43l-1.5,1.5c8.05-.07,16.11-.15,24.16-.16A1.5,1.5,0,0,0,154.29,58.77Z"/><path d="M387.77,66.47c-.17-2.7-.37-3.77-3.2-4.51-5.09-1.34-10.79-.33-16-.34-15.69,0-31.37-.45-47.06-.75a1.52,1.52,0,0,0-1.5,1.5V75.06a1.52,1.52,0,0,0,1.5,1.5c15,.1,30-.38,45-.17,3.46,0,6.92.15,10.37.38,2.11.14,6.69,1.55,8.47.77,3.94-1.73,2.79-7.86,2.37-11.06-.25-1.89-3.25-1.91-3,0,.3,2.28,1.39,6.63-1.33,7.91-1.52.72-6.43-.62-8.2-.72-5.85-.33-11.72-.34-17.57-.28-12.05.12-24.09.25-36.14.17l1.5,1.5V62.36l-1.5,1.5c12.46.24,24.92.55,37.39.69,5.43.06,10.86.16,16.29,0a38.67,38.67,0,0,1,7.18.07c2,.3,2.27.08,2.38,1.9S387.89,68.4,387.77,66.47Z"/><path d="M306.83,60.75c-16.23-.18-32.47-.46-48.7-.68a1.52,1.52,0,0,0-1.5,1.5V74.32a1.52,1.52,0,0,0,1.5,1.5c21.33.35,42.67.71,64,.86a1.52,1.52,0,0,0,1.5-1.5V62.49a1.52,1.52,0,0,0-1.5-1.5q-7.65-.14-15.3-.24a1.5,1.5,0,0,0,0,3q7.65.09,15.3.24l-1.5-1.5V75.18l1.5-1.5c-21.34-.15-42.67-.51-64-.86l1.5,1.5V61.57l-1.5,1.5c16.23.22,32.47.5,48.7.68A1.5,1.5,0,0,0,306.83,60.75Z"/></g></g></svg>