<svg xmlns="http://www.w3.org/2000/svg" viewBox="0 0 531.31 79.41"><defs><style>.cls-1{fill:#f3eee8;}.cls-2{fill:#d1ccc7;}.cls-3{fill:#aaa9a9;}</style></defs><title>工作區域 69</title><g id="圖層_1" data-name="圖層 1"><path class="cls-1" d="M21.91,73.85c27.62,3.1,57,1.79,85,2,11.06.07,403.51,2.46,412.9-3,8.68-5.07,13.52-67.29.19-69.55C510.29,1.61,17.62,9.23,6.69,11,6.69,11-7.2,70.58,21.91,73.85Z"/><path d="M21.91,76.85c29.52,3.2,59.3,1.83,88.93,2q15.45.11,30.9.17,60.94.28,121.88.37,72.24.09,144.47-.32c33.19-.25,66.51-.09,99.65-1.93a88.28,88.28,0,0,0,10.66-.93c4-.7,5.92-3.53,7.43-7.24,4-9.88,4.89-21.45,5.29-32,.37-9.81.69-21.76-3.85-30.78C523.67-1,517.08.07,510.35,0c-11.06,0-22.11,0-33.17.12Q419.55.59,361.91,1.44q-72.39,1-144.79,2.14Q151.33,4.64,85.53,5.91c-24.79.49-49.61.74-74.38,1.83a46.19,46.19,0,0,0-5.26.39,2.92,2.92,0,0,0-2.1,2.09C-.77,29.92-6.56,73.05,21.91,76.85c3.82.51,3.78-5.5,0-6C7.55,68.93,6.26,50.2,6.38,38.92a127.42,127.42,0,0,1,3.2-27.1l-2.1,2.09c-1.38.22.42,0,1,0l3.36-.16c3.61-.15,7.23-.26,10.85-.37,12.56-.36,25.13-.64,37.69-.91q59.34-1.27,118.7-2.22Q250.76,9,322.46,8q63-.89,126.06-1.58c22.75-.22,45.57-.84,68.32-.3.82,0,1.65,0,2.47.09.59.06.62.29-.17-.05a4.44,4.44,0,0,1,2.4,2.05c5.08,8,4,21.33,3.51,30.33-.45,9.34-.79,21.55-5.54,29.93a7.61,7.61,0,0,1-1.33,1.8c.74-.55.38-.16-.25,0a10.6,10.6,0,0,1-2.59.35c-27.67,2.62-55.86,2-83.61,2.27-46.26.48-92.52.55-138.78.55q-64.89,0-129.78-.3c-25.36-.1-50.72-.41-76.07-.24-21.75.14-43.53.33-65.19-2C18.08,70.43,18.11,76.44,21.91,76.85Z"/><path class="cls-2" d="M200.59,30.9c-1,2.61-2.28,13.35-.77,15.93,2.48,4.25,11.26,2.8,16.29,2.54.16-3.3,1.88-14.35-.28-16.95-2.6-3.12-12.17-1.52-16-1.52"/><path d="M41.4,30.5A35.88,35.88,0,0,0,40,38.87c-.2,2.57-.57,5.91.56,8.33,2.81,6,12.7,4,17.77,3.67a1.53,1.53,0,0,0,1.5-1.5c.2-3.22.67-6.41.77-9.64.08-2.47.32-5.93-1.25-8.06C56,27,46.87,29.32,42.1,29.4c-1.93,0-1.93,3,0,3,3.59-.06,13.48-2.35,15.2,1.84.89,2.17.37,5.49.21,7.76-.17,2.46-.49,4.91-.65,7.37l1.5-1.5c-4,.24-13.85,2.38-15.3-2.83-1.08-3.91,0-10,1.23-13.74.62-1.84-2.28-2.62-2.89-.8Z"/><path d="M88.19,33.81a6.76,6.76,0,0,1-.23.72,8.38,8.38,0,0,0,4.84,2.15l-.7,1.4a8.31,8.31,0,0,1-1.39-.32v7.38H87.15a38.18,38.18,0,0,1,5.56,1.3l-.56,1.35a35.32,35.32,0,0,0-6-1.57l.55-1.08H82.55l.74,1a19.46,19.46,0,0,1-5.72,1.68l-.78-1.32a24.37,24.37,0,0,0,5.33-1.31H78.81V37.7h4.34l-.69-1c2.42-.43,3.84-1.48,4.29-3.13ZM82,35.22v1.46h-5.2V35.22ZM81.64,32v1.44H77.17V32ZM89,39.85V39H80.48v.85Zm0,1.92V41H80.48v.79Zm0,1.12H80.48v.88H89Zm-6.18-7.55-.94-1.24a6.64,6.64,0,0,0,2.6-3.17l1.56.18c-.11.29-.21.58-.34.85h6.32v1.19a10.38,10.38,0,0,1-1.55,2.36l-1.17-.92a7.51,7.51,0,0,0,.94-1.23H84.91A9.2,9.2,0,0,1,82.86,35.34Zm7.69,2.36a8.74,8.74,0,0,1-3.26-2,6.18,6.18,0,0,1-3.28,2Z"/><path d="M97.91,33.2a17.53,17.53,0,0,0-.74-1.76L98.81,31a15.3,15.3,0,0,1,.7,2.21h2.2v1.59H95.48V33.2Zm3.29,14.17H99.63V46.6H97.51v.92H95.94V41.07h5.26ZM101,35.88v1.5H96.11v-1.5Zm0,2.51V39.9H96.11V38.39Zm-1.41,6.66V42.62H97.51v2.43ZM104,38.3V33.38h-1.94V31.74h7.65v5.82a36,36,0,0,0,.45,7.08c.12.55.25.84.36.84a2.29,2.29,0,0,0,.16-.74c0-.5,0-1.09,0-1.8l1.34.65a10.18,10.18,0,0,1-.49,3.33.8.8,0,0,1-.68.52,2,2,0,0,1-1.68-1.22c-.79-1.42-1.19-4.3-1.19-8.66V33.38h-2.37V38.3h2v1.64h-2v7.63H104V39.94h-2V38.3Z"/><path d="M120.84,39.54c-.11.31-.22.59-.32.88h2.77v1.41a8.53,8.53,0,0,1-1.24,3.07c1.06.62,2.88.94,5.43.94,1.16,0,2.24,0,3.24-.05l-.28,1.62H128.6c-3.28,0-5.55-.34-6.79-1a6.31,6.31,0,0,1-.66-.43A8,8,0,0,1,118,47.71l-.94-1.42a8.25,8.25,0,0,0,2.84-1.44,11.4,11.4,0,0,1-1-1.31,10.74,10.74,0,0,1-.8.93l-1.15-1a18.1,18.1,0,0,1-1.28,4.2l-1.44-1.26a18.09,18.09,0,0,0,1.46-7.53V33.81h5.48V31h1.71v.72h5.56v1.42h-5.56v.72h7.43v.74a17.08,17.08,0,0,1-.7,3L128,37.09a12.19,12.19,0,0,0,.56-1.84h-5.65v.89l4.12-.29.22,1.37-4.34.3v.36c0,.26.21.4.66.4h5.57v1.39H123c-1.22,0-1.83-.49-1.83-1.43v-.59l-2.78.2-.2-1.37,3-.22v-1h-3.82v3.62A26.67,26.67,0,0,1,117,43.3,10.41,10.41,0,0,0,119.38,39Zm1,2.34h-2c-.08.14-.15.29-.22.41a8.09,8.09,0,0,0,1.17,1.59A7.23,7.23,0,0,0,121.85,41.88Zm6.57-1.53v3c0,.22.07.34.23.34h.27c.17,0,.27,0,.31-.08a6.2,6.2,0,0,0,.31-1.45l1.33.45a6.52,6.52,0,0,1-.47,2.09,1.31,1.31,0,0,1-1.15.42h-.79a1.37,1.37,0,0,1-1.54-1.57V41.75h-1.09a7.08,7.08,0,0,1-.18,1.7,4.69,4.69,0,0,1-1.28,1.91l-1.24-1.1a3.87,3.87,0,0,0,1.09-1.75,13.84,13.84,0,0,0,.15-2.16Z"/><path d="M135.35,37.58V33.72h-2.06V32.1h5.82v1.62h-2v3.86h1.81v1.64h-1.81v3.6c.61-.22,1.2-.44,1.78-.69v1.66a39.79,39.79,0,0,1-5.31,1.65l-.42-1.63c.76-.13,1.5-.29,2.22-.47V39.22h-1.79V37.58Zm13.54-5.93v8.61H145.2v1.8h3.92v1.59H145.2v1.87h4.55v1.64H138.86V45.52h4.64V43.65h-3.94V42.06h3.94v-1.8h-3.72V31.65Zm-5.39,3.57v-2h-2.08v2Zm0,1.47h-2.08v2.06h2.08Zm1.7-1.47h2.05v-2H145.2Zm2.05,1.47H145.2v2.06h2.05Z"/><path d="M199.15,30.5a34.86,34.86,0,0,0-1.37,8.37c-.2,2.57-.58,5.91.56,8.33,2.81,6,12.69,4,17.77,3.67a1.53,1.53,0,0,0,1.5-1.5c.2-3.22.67-6.41.77-9.64.08-2.47.32-5.93-1.25-8.06-3.41-4.64-12.52-2.35-17.28-2.27-1.93,0-1.93,3,0,3,3.59-.06,13.48-2.35,15.2,1.84.89,2.17.37,5.49.21,7.76-.17,2.46-.5,4.91-.65,7.37l1.5-1.5c-4,.24-13.85,2.38-15.3-2.83-1.08-3.91,0-10,1.23-13.74.61-1.84-2.28-2.62-2.89-.8Z"/><path d="M241.67,46.18h-4.9v1.21h-1.64V39.67h2.43V36.3h-3.11V34.64h3.11V31.28h1.64v3.36h2.92V36.3H239.2v3.37h2.47ZM240,44.64V41.2h-3.24v3.44Zm3-6.29c-.29.43-.58.81-.87,1.17l-1-1.29A15.53,15.53,0,0,0,244.05,31l1.6.29A25.6,25.6,0,0,1,245,34h5.51v1.65h-1.26a15.33,15.33,0,0,1-2.25,7.8,13.39,13.39,0,0,0,3.76,3l-1,1.35A14.28,14.28,0,0,1,246,44.78a13.6,13.6,0,0,1-3.49,2.86l-.9-1.42A11,11,0,0,0,245,43.48,12.4,12.4,0,0,1,243,38.35Zm.14-.2,1.28-.37A10.71,10.71,0,0,0,246,42a14,14,0,0,0,1.68-6.41h-3.21A15.6,15.6,0,0,1,243.18,38.15Z"/><path d="M260.55,34.28v-.9h-6.91V31.92h6.91V31h1.69v.93h6.92v1.46h-6.92v.9h5.33V38h-5.33v.9h5.59v2.36h1.81v1.39h-1.81V45h-5.59v.92c0,1.12-.59,1.68-1.78,1.68h-2.21L257.89,46a19.67,19.67,0,0,0,2,.12c.43,0,.66-.19.66-.57V45h-5.78V43.63h5.78v-1h-7.4V41.25h7.4v-1h-5.76V38.89h5.76V38h-5.33V34.28Zm0,1.26h-3.63v1.17h3.63Zm5.33,0h-3.64v1.17h3.64Zm-3.64,5.71h3.95v-1h-3.95Zm0,1.39v1h3.95v-1Z"/><path d="M279.61,33.94a12.85,12.85,0,0,0-1.73-2.45l1.71-.63a17.15,17.15,0,0,1,1.82,3.08h6.83v1.69h-2.76a18,18,0,0,1-3.83,6.88,23.87,23.87,0,0,0,7,3.82l-.95,1.44a24,24,0,0,1-7.22-4.05,19.25,19.25,0,0,1-7.51,4L272,46.2a17.69,17.69,0,0,0,7.22-3.58,16.15,16.15,0,0,1-4.14-7h-2.75V33.94Zm.83,7.51a15.45,15.45,0,0,0,3.28-5.82h-7A14.57,14.57,0,0,0,280.44,41.45Z"/><path d="M298.37,41.65v-1.3h1.73v1.3H307v1.47H300.1v4.56h-1.73V43.12h-6.93V41.65Zm-1.51,2.79a17.13,17.13,0,0,1-4.38,2.91l-1-1.35a16.89,16.89,0,0,0,4.28-2.55Zm2.57-10c-.27.32-.52.64-.75.93h7.74v1.37h-2.94a10.06,10.06,0,0,1-1.76,1.8c1.48.36,3,.79,4.57,1.3l-1,1.29c-1.74-.61-3.49-1.17-5.26-1.64a18.51,18.51,0,0,1-7.34,1.37l-.94-1.4a25.64,25.64,0,0,0,6-.56c-1.12-.27-2.25-.5-3.38-.72.45-.48.88-1,1.31-1.44H292V35.36h4.79c.38-.47.74-.93,1.1-1.4Zm7.1.63h-1.59V33.78H293.45v1.28h-1.58v-2.7h6.46a10.85,10.85,0,0,0-.7-1.14l1.78-.29c.22.43.42.9.63,1.43h6.49Zm-4.95,1.67H297.5c-.25.27-.46.52-.68.74,1,.16,2,.36,3,.59A8.19,8.19,0,0,0,301.58,36.73Zm5.2,9.45-1.19,1.19a23.1,23.1,0,0,0-4-2.92l1-1A29.42,29.42,0,0,1,306.78,46.18Z"/><path class="cls-3" d="M361.44,30.9c-1,2.61-2.28,13.35-.78,15.93,2.48,4.25,11.26,2.8,16.29,2.54.17-3.3,1.89-14.35-.27-16.95-2.61-3.12-12.18-1.52-16-1.52"/><path d="M360,30.5a35.88,35.88,0,0,0-1.37,8.37c-.19,2.57-.57,5.91.57,8.33,2.8,6,12.69,4,17.76,3.67a1.53,1.53,0,0,0,1.5-1.5c.2-3.22.67-6.41.77-9.64.08-2.47.32-5.93-1.25-8.06-3.41-4.64-12.51-2.35-17.28-2.27-1.92,0-1.93,3,0,3,3.59-.06,13.48-2.35,15.2,1.84.89,2.17.37,5.49.21,7.76-.17,2.46-.49,4.91-.65,7.37l1.5-1.5c-4,.24-13.85,2.38-15.29-2.83-1.09-3.91,0-10,1.22-13.74.62-1.84-2.28-2.62-2.89-.8Z"/><path d="M395.54,42.49,395,40.71A16.68,16.68,0,0,0,399.25,35H395.4V33.4h2.27a20.15,20.15,0,0,0-.78-2l1.62-.47a23.65,23.65,0,0,1,.76,2.52H401v1.44a15.15,15.15,0,0,1-1.93,3.8,14.41,14.41,0,0,1,2.32,1.82l-.93,1.42a12.28,12.28,0,0,0-1.39-1.4v7.13h-1.69V40.73A23,23,0,0,1,395.54,42.49Zm14.82-10.87V41.88h-2v3.46a.44.44,0,0,0,.41.5h.87c.28,0,.45-.27.48-.72a19.18,19.18,0,0,0,.09-2.14l1.5.56a7.7,7.7,0,0,1-.4,3.2c-.23.36-.77.56-1.6.63h-1c-1.32,0-2-.57-2-1.71V41.88h-1.64a6.78,6.78,0,0,1-3.95,5.73l-.9-1.43a5.18,5.18,0,0,0,3.25-4.3h-1.81V31.62Zm-1.67,2.91V33.08h-5.33v1.45Zm0,3V35.9h-5.33v1.59Zm0,1.35h-5.33v1.6h5.33Z"/><path d="M427.59,39v6h-2.81v.72a.36.36,0,0,0,.39.4H428a.77.77,0,0,0,.61-.26,4,4,0,0,0,.29-1.56l1.4.45a4.13,4.13,0,0,1-.66,2.32,2.23,2.23,0,0,1-1.35.34h-3.57c-1,0-1.51-.47-1.51-1.39V45h-1.73c-.92,1.48-3.08,2.41-6.48,2.81l-.79-1.23c2.71-.25,4.55-.79,5.52-1.58h-2.93V39Zm-10.53-3.69h2.5v1h-2.41l.05.79h10.12l.05-.79h-2.46v-1h2.53l.06-.68H425V33.54h2.61l.05-.75h-2.73V31.58h4.17l-.32,5.51H430V40h-1.51V38.28H416V40h-1.51V37.09h1.27l-.37-5.17a17,17,0,0,0,3.78-.81l.48,1.19a18.36,18.36,0,0,1-2.81.61l.06.63h2.63v1.05H417Zm9,5.35V39.9h-7.65v.72Zm0,1.6v-.68h-7.65v.68Zm0,.9h-7.65v.76H426Zm-3.55-11a8.39,8.39,0,0,0,.94-.85l.92.58c-.31.32-.6.59-.89.84.4.24.76.49,1.1.74l-.77.76a13.31,13.31,0,0,0-1.24-.85,14.49,14.49,0,0,1-1.93.95l-.58-.95a8.07,8.07,0,0,0,1.48-.61c-.4-.22-.81-.43-1.24-.65l.77-.72C421.56,31.58,422,31.83,422.49,32.09Zm-.07,2.84a6.75,6.75,0,0,0,.92-.86l.86.54a8.38,8.38,0,0,1-.88.9c.42.27.79.54,1.14.81l-.76.75a12,12,0,0,0-1.23-1,12.87,12.87,0,0,1-1.78,1l-.56-.9a8.54,8.54,0,0,0,1.44-.65c-.36-.21-.73-.45-1.13-.66l.7-.67C421.59,34.44,422,34.68,422.42,34.93Z"/><path d="M442.17,40.64c-.06.36-.13.68-.2,1h6.7v1.58h-7.28a6.83,6.83,0,0,1-1.62,2.07c-1.19,1.05-3.27,1.87-6.28,2.49l-.7-1.66a13.5,13.5,0,0,0,5.6-2,5.9,5.9,0,0,0,.93-.94h-5.69V41.65h6.57a9,9,0,0,0,.29-1.19Zm-4.52-7.91a9.47,9.47,0,0,0-.76-1.45l1.78-.29a16,16,0,0,1,.72,1.74H443a10,10,0,0,0,.61-1.8l1.78.24a6.58,6.58,0,0,1-.64,1.56h3.76v1.55H442v1.39h5.52v1.44H442v1.4h7.07V40.1H433.22V38.51h7.07v-1.4h-5.47V35.67h5.47V34.28h-6.48V32.73ZM449.5,46.31l-1,1.49a34.77,34.77,0,0,0-6.6-2.82l.9-1.33A38.92,38.92,0,0,1,449.5,46.31Z"/><path d="M458.65,31.64a19.77,19.77,0,0,1-2.37,4.19V47.7h-1.7V37.83a29.16,29.16,0,0,1-2.35,2.2l-.56-1.79a19.43,19.43,0,0,0,5.38-7.34Zm8.83,6.1-5.69.32V45c0,.5.27.75.83.75h2.71a1.07,1.07,0,0,0,.91-.41,8.25,8.25,0,0,0,.34-2.88l1.58.52c-.12,2.07-.36,3.33-.68,3.76a2.24,2.24,0,0,1-1.86.65h-3.4a1.9,1.9,0,0,1-2.14-2.16v-14h1.71v5.27l5.69-.34Z"/></g></svg>