<svg xmlns="http://www.w3.org/2000/svg" viewBox="0 0 184.87 184.91"><defs><style>.cls-1{fill:#f3eee8;}.cls-2{fill:#d1ccc7;}.cls-3{fill:#aaa9a9;}</style></defs><title>工作區域 58</title><g id="圖層_1" data-name="圖層 1"><path class="cls-1" d="M3.1,127.36c.75,19.64-5.12,46.2,24,50,27.63,3.65,57,2.32,85,2.67,11.06.14,49,4.79,58.4-1.37,8.65-5.69,7-32.4,8-40.18,2.84-23.51-.6-47.41,1.27-71,1.32-16.65,1.62-32.83,1.93-49.61.18-9.79,2-11.78-11.34-14.4C160.67,1.64,22.5,7.8,11.57,9.77,11.57,9.77,2.41,109.08,3.1,127.36Z"/><path d="M.1,127.36c.51,15.58-3.3,36.42,11.07,47.24,9.46,7.11,23.36,6.87,34.59,7.57,16.13,1,32.31.87,48.46.84,10.73,0,21.32.16,32,.88,10.16.69,20.42,1.4,30.61.79,6.73-.4,14.89-1,18.87-7.24,4.69-7.37,4.84-17.7,5.2-26.12.47-11,1.63-21.91,1.73-32.89.15-16.33-1.12-32.66,0-49s1.72-32.38,2-48.62c.13-7.24,1.86-15.11-6.27-18.3-9-3.53-19.55-2.41-29-2.24-15.94.29-31.87.87-47.8,1.5-29,1.13-58.21,1.67-87.06,4.61-1.25.13-2.5.26-3.73.47A3.05,3.05,0,0,0,8.57,9.77C5.64,41.63,2.8,73.52.87,105.45c-.43,7.27-1,14.62-.77,21.91.13,3.85,6.13,3.87,6,0C5.57,111.54,7.47,95.44,8.66,79.7Q10.84,51,13.45,22.27,14,16,14.57,9.77l-2.2,2.9c6.46-1.12,16.68-1.36,24.36-1.8q23.06-1.33,46.14-2.3c27.33-1.19,54.87-2.94,82.24-2.35,4.41.1,7.56-.09,11.73,2.15,2.85,1.53,2,4.5,1.91,7.37-.24,7.12-.28,14.24-.48,21.36-.41,14.63-1.91,29.23-2.09,43.85-.19,15.37,1,30.74.23,46.11-.42,9-1.13,18.07-1.64,27.1-.35,6.24-.16,19.16-6.85,22.55S151,179,143.8,178.8c-8.89-.23-17.74-1-26.62-1.51-13.63-.8-27.38-.21-41-.27-16.74-.07-34.54.35-51-3-22.92-4.6-18.44-29-19-46.69C6,123.51,0,123.49.1,127.36Z"/><path class="cls-2" d="M35.2,78.63c-1,2.61-2.28,13.35-.78,15.93,2.48,4.25,11.26,2.8,16.29,2.54.17-3.3,1.89-14.35-.27-16.95-2.6-3.12-12.18-1.52-16-1.52"/><path d="M33.75,43.76a35.88,35.88,0,0,0-1.37,8.37c-.19,2.57-.57,5.91.57,8.33,2.8,6,12.69,4,17.77,3.67a1.55,1.55,0,0,0,1.5-1.5c.2-3.22.66-6.42.77-9.64.08-2.48.31-5.93-1.26-8.06-3.41-4.64-12.51-2.35-17.27-2.27-1.93,0-1.94,3,0,3,3.59-.06,13.47-2.35,15.19,1.84.89,2.17.37,5.49.21,7.76-.17,2.46-.49,4.91-.64,7.37l1.5-1.5c-4,.24-13.86,2.38-15.3-2.83-1.09-3.91,0-10,1.23-13.74.61-1.84-2.29-2.62-2.9-.8Z"/><path d="M80.54,47.45c-.07.25-.14.48-.23.72a8.36,8.36,0,0,0,4.84,2.14l-.7,1.41a8.31,8.31,0,0,1-1.39-.33v7.38H79.5a39.52,39.52,0,0,1,5.56,1.3l-.56,1.35a37.29,37.29,0,0,0-6-1.57l.56-1.08H74.91l.73,1a19.49,19.49,0,0,1-5.72,1.67l-.78-1.31a23.73,23.73,0,0,0,5.33-1.32H71.16V51.34H75.5l-.68-1.05c2.41-.43,3.83-1.47,4.28-3.13Zm-6.17,1.4v1.46H69.16V48.85ZM74,45.61v1.44H69.52V45.61Zm7.4,7.87v-.84H72.83v.84Zm0,1.93v-.79H72.83v.79Zm0,1.11H72.83v.89h8.56ZM75.21,49l-.93-1.24a6.66,6.66,0,0,0,2.59-3.17l1.56.18a8.86,8.86,0,0,1-.34.85h6.32v1.18a10,10,0,0,1-1.55,2.36l-1.17-.92A6.91,6.91,0,0,0,82.63,47H77.26A9.21,9.21,0,0,1,75.21,49Zm7.69,2.36a8.64,8.64,0,0,1-3.26-2,6.19,6.19,0,0,1-3.28,2Z"/><path d="M90.26,46.84a17.72,17.72,0,0,0-.74-1.77l1.64-.45a13.91,13.91,0,0,1,.7,2.22h2.2v1.58H87.83V46.84ZM93.55,61H92v-.78H89.86v.92H88.3V54.71h5.25Zm-.16-11.49V51H88.46V49.52Zm0,2.5v1.51H88.46V52ZM92,58.68V56.25H89.86v2.43Zm4.37-6.75V47H94.42V45.38h7.65v5.81a36,36,0,0,0,.45,7.08c.13.56.25.85.36.85s.09-.26.16-.74.06-1.1.06-1.8l1.33.65a10,10,0,0,1-.49,3.33.8.8,0,0,1-.68.52,2,2,0,0,1-1.68-1.23c-.79-1.42-1.18-4.3-1.18-8.66V47H98v4.91h2v1.64H98v7.64H96.36V53.57h-2V51.93Z"/><path d="M113.19,53.18c-.11.3-.21.59-.32.88h2.77v1.4a8.58,8.58,0,0,1-1.24,3.08,11.62,11.62,0,0,0,5.44.94q1.72,0,3.24-.06L122.79,61H121q-4.92,0-6.79-1a5.8,5.8,0,0,1-.66-.43,8.14,8.14,0,0,1-3.15,1.75l-.94-1.42a8.39,8.39,0,0,0,2.85-1.44,9.87,9.87,0,0,1-1-1.32,10.59,10.59,0,0,1-.79.94l-1.16-1A18,18,0,0,1,108,61.31l-1.44-1.26A18.24,18.24,0,0,0,108,52.53V47.45h5.48V44.59h1.71v.72h5.56v1.42h-5.56v.72h7.43v.74a16.42,16.42,0,0,1-.7,3l-1.64-.45a12.55,12.55,0,0,0,.56-1.84h-5.65v.88l4.12-.29.22,1.37-4.34.31v.36c0,.25.21.39.66.39h5.57V53.3h-6.11c-1.22,0-1.83-.49-1.83-1.42v-.6l-2.78.2-.19-1.37,3-.21v-1h-3.82v3.62a26.76,26.76,0,0,1-.36,4.43,10.54,10.54,0,0,0,2.41-4.32Zm1,2.34h-2l-.22.41a8.76,8.76,0,0,0,1.17,1.58A6.91,6.91,0,0,0,114.2,55.52ZM120.77,54V57c0,.21.07.34.24.34h.27c.16,0,.27,0,.3-.09a5.87,5.87,0,0,0,.31-1.44l1.33.45a6.6,6.6,0,0,1-.47,2.09,1.3,1.3,0,0,1-1.15.41h-.79a1.36,1.36,0,0,1-1.53-1.56V55.39h-1.1a6.46,6.46,0,0,1-.18,1.69A4.57,4.57,0,0,1,116.72,59l-1.24-1.1a3.91,3.91,0,0,0,1.1-1.74,15.8,15.8,0,0,0,.14-2.17Z"/><path d="M127.7,51.21V47.36h-2V45.74h5.81v1.62h-2v3.85h1.82v1.64h-1.82v3.6c.61-.21,1.2-.43,1.78-.68v1.65a39.79,39.79,0,0,1-5.31,1.66l-.42-1.64c.76-.12,1.5-.29,2.22-.47V52.85h-1.78V51.21Zm13.54-5.92v8.6h-3.69V55.7h3.92v1.58h-3.92v1.87h4.55v1.64H131.21V59.15h4.64V57.28h-3.94V55.7h3.94V53.89h-3.72v-8.6Zm-5.39,3.56V46.8h-2.08v2.05Zm0,1.48h-2.08v2.05h2.08Zm1.7-1.48h2V46.8h-2Zm2,1.48h-2v2.05h2Z"/><path d="M33.75,78.23a35.88,35.88,0,0,0-1.37,8.37c-.19,2.57-.57,5.91.57,8.33,2.8,6,12.69,4,17.76,3.67a1.53,1.53,0,0,0,1.5-1.5c.21-3.22.67-6.41.78-9.64.08-2.47.31-5.93-1.26-8.06-3.41-4.64-12.51-2.35-17.27-2.27-1.93,0-1.94,3,0,3,3.59-.06,13.47-2.35,15.19,1.84.89,2.17.37,5.49.21,7.76-.17,2.46-.49,4.91-.65,7.37l1.5-1.5c-4,.24-13.85,2.38-15.29-2.83-1.09-3.91,0-10,1.22-13.74.62-1.84-2.28-2.62-2.89-.8Z"/><path d="M76.27,95.82H71.38V97H69.74V89.3h2.43V85.93H69.05V84.28h3.12V80.91h1.64v3.37h2.91v1.65H73.81V89.3h2.46Zm-1.65-1.55V90.83H71.38v3.44Zm3-6.28c-.29.43-.57.81-.86,1.17l-1-1.3a15.34,15.34,0,0,0,2.92-7.2l1.6.29a26,26,0,0,1-.63,2.66h5.51v1.66H83.87a15.17,15.17,0,0,1-2.25,7.79,13.23,13.23,0,0,0,3.76,3l-1,1.35a14,14,0,0,1-3.75-3,13.67,13.67,0,0,1-3.49,2.87l-.9-1.43a11,11,0,0,0,3.38-2.73A12.8,12.8,0,0,1,77.64,88Zm.15-.2,1.27-.38a10.76,10.76,0,0,0,1.53,4.27,14,14,0,0,0,1.68-6.41H79.06A16,16,0,0,1,77.79,87.79Z"/><path d="M95.16,83.92V83H88.24V81.56h6.92v-.94h1.69v.94h6.91V83H96.85v.9h5.33v3.71H96.85v.9h5.58v2.35h1.82v1.39h-1.82v2.36H96.85v.92c0,1.12-.6,1.67-1.78,1.67H92.85l-.36-1.62a17.2,17.2,0,0,0,2,.13c.43,0,.67-.2.67-.58v-.52H89.38V93.26h5.78v-1h-7.4V90.88h7.4v-1H89.39V88.53h5.77v-.9H89.83V83.92Zm0,1.26H91.52v1.17h3.64Zm5.33,0H96.85v1.17h3.64Zm-3.64,5.7h3.94v-1H96.85Zm0,1.39v1h3.94v-1Z"/><path d="M114.22,83.58a13.12,13.12,0,0,0-1.73-2.45l1.71-.63A17.39,17.39,0,0,1,116,83.58h6.82v1.69h-2.75a18.34,18.34,0,0,1-3.84,6.88,23.91,23.91,0,0,0,7,3.81l-1,1.44a24,24,0,0,1-7.22-4.05,19.28,19.28,0,0,1-7.5,4l-.92-1.51a17.77,17.77,0,0,0,7.22-3.59,16.08,16.08,0,0,1-4.14-7H107V83.58Zm.83,7.5a15.53,15.53,0,0,0,3.27-5.81h-7A14.56,14.56,0,0,0,115.05,91.08Z"/><path d="M133,91.28V90h1.73v1.3h6.88v1.48H134.7v4.55H133V92.76H126V91.28Zm-1.51,2.79A17.27,17.27,0,0,1,127.09,97l-1-1.35a17.16,17.16,0,0,0,4.29-2.56Zm2.58-10c-.27.32-.53.65-.76.94H141v1.37h-2.93a9.77,9.77,0,0,1-1.77,1.8c1.48.36,3,.79,4.58,1.29l-1,1.3c-1.75-.61-3.5-1.17-5.26-1.64a19,19,0,0,1-7.35,1.37l-.93-1.4a25.64,25.64,0,0,0,6-.56c-1.12-.27-2.26-.51-3.39-.72.45-.49.88-1,1.32-1.44h-3.64V85h4.79c.38-.47.74-.94,1.1-1.41Zm7.09.63h-1.58V83.41H128.06v1.28h-1.59V82h6.47c-.22-.39-.45-.77-.7-1.13l1.78-.29c.21.43.41.9.63,1.42h6.48Zm-4.95,1.68h-4.07c-.25.27-.47.52-.68.73,1,.16,2,.36,3,.6A8.9,8.9,0,0,0,136.18,86.37Zm5.2,9.45L140.19,97a23,23,0,0,0-4-2.92l1-1A29.7,29.7,0,0,1,141.38,95.82Z"/><path class="cls-3" d="M35.2,117.59c-1,2.61-2.28,13.35-.78,15.93,2.48,4.25,11.26,2.8,16.29,2.55.17-3.31,1.89-14.35-.27-16.95-2.6-3.13-12.18-1.53-16-1.53"/><path d="M33.75,117.19a36,36,0,0,0-1.37,8.38c-.19,2.56-.57,5.9.57,8.32,2.8,6,12.69,4,17.76,3.68a1.54,1.54,0,0,0,1.5-1.5c.21-3.22.67-6.42.78-9.65.08-2.47.31-5.93-1.26-8.06-3.41-4.63-12.51-2.35-17.28-2.27-1.92,0-1.93,3,0,3,3.59-.06,13.48-2.35,15.2,1.84.89,2.17.37,5.49.21,7.77-.17,2.46-.49,4.9-.65,7.37l1.5-1.5c-4,.23-13.85,2.37-15.29-2.84-1.09-3.91,0-10,1.22-13.74.62-1.83-2.28-2.62-2.89-.8Z"/><path d="M69.31,128.13l-.55-1.78A16.7,16.7,0,0,0,73,120.67H69.16V119h2.27c-.22-.7-.49-1.38-.77-2l1.62-.47c.32.92.57,1.77.75,2.52h1.68v1.45a15.26,15.26,0,0,1-1.93,3.79,15.62,15.62,0,0,1,2.32,1.82l-.93,1.42a14.16,14.16,0,0,0-1.39-1.4v7.13H71.09v-6.88A24.81,24.81,0,0,1,69.31,128.13Zm14.81-10.88v10.26h-2V131a.46.46,0,0,0,.41.51h.87c.29,0,.45-.27.48-.72a19.38,19.38,0,0,0,.09-2.15l1.5.56a7.79,7.79,0,0,1-.4,3.21c-.23.36-.77.55-1.6.63h-1c-1.32,0-2-.58-2-1.71v-3.79H78.85a6.76,6.76,0,0,1-3.95,5.73l-.9-1.42a5.21,5.21,0,0,0,3.25-4.31h-1.8V117.25Zm-1.67,2.92v-1.46H77.12v1.46Zm0,3v-1.58H77.12v1.58Zm0,1.35H77.12v1.61h5.33Z"/><path d="M101.35,124.6v6H98.54v.72a.35.35,0,0,0,.4.4h2.86a.77.77,0,0,0,.61-.25,4,4,0,0,0,.29-1.57l1.4.45a4.17,4.17,0,0,1-.66,2.33,2.3,2.3,0,0,1-1.35.34H98.52c-1,0-1.51-.47-1.51-1.39v-1H95.28q-1.38,2.22-6.48,2.81L88,132.18c2.72-.25,4.55-.79,5.52-1.59H90.6v-6Zm-10.53-3.69h2.5v1H90.91l0,.8h10.12l0-.8H98.67v-1h2.53l.06-.69H98.72v-1h2.61l0-.76H98.65v-1.2h4.18l-.33,5.51h1.23v3h-1.52v-1.77H89.79v1.77H88.28v-3h1.28l-.38-5.17a18.24,18.24,0,0,0,3.78-.81l.48,1.19a21.35,21.35,0,0,1-2.8.61l0,.63h2.63v1H90.76Zm9,5.35v-.73H92.15v.73Zm0,1.6v-.69H92.15v.69Zm0,.9H92.15v.75H99.8Zm-3.55-11a7.52,7.52,0,0,0,.94-.85l.92.58c-.31.32-.6.59-.88.85a12.91,12.91,0,0,1,1.09.73l-.77.76a12.1,12.1,0,0,0-1.24-.85,14.42,14.42,0,0,1-1.93,1l-.58-1a7.43,7.43,0,0,0,1.48-.61L94,117.68l.77-.72C95.32,117.22,95.8,117.47,96.25,117.72Zm-.07,2.85a7.53,7.53,0,0,0,.92-.87l.86.54a7.54,7.54,0,0,1-.88.9c.42.27.79.54,1.14.81l-.76.76a13,13,0,0,0-1.22-1,13.6,13.6,0,0,1-1.79,1l-.56-.9a10,10,0,0,0,1.45-.65c-.36-.22-.74-.45-1.14-.67l.7-.66C95.35,120.08,95.79,120.31,96.18,120.57Z"/><path d="M115.93,126.27c-.06.36-.13.69-.2,1h6.7v1.58h-7.28a6.87,6.87,0,0,1-1.62,2.08c-1.19,1-3.27,1.87-6.28,2.48l-.7-1.66a13.36,13.36,0,0,0,5.6-2,5.51,5.51,0,0,0,.93-.94h-5.69v-1.58H114a10.24,10.24,0,0,0,.28-1.19Zm-4.52-7.9a9.58,9.58,0,0,0-.76-1.46l1.78-.29a15.45,15.45,0,0,1,.72,1.75h3.57a10.6,10.6,0,0,0,.61-1.8l1.78.23a6.82,6.82,0,0,1-.64,1.57h3.76v1.55h-6.48v1.38h5.53v1.44h-5.53v1.41h7.07v1.58H107v-1.58h7.07v-1.41h-5.47V121.3h5.47v-1.38h-6.48v-1.55Zm11.85,13.57-1,1.5a34.81,34.81,0,0,0-6.6-2.83l.9-1.33A39.75,39.75,0,0,1,123.26,131.94Z"/><path d="M132.42,117.27a20.33,20.33,0,0,1-2.38,4.2v11.86h-1.69v-9.87a27.62,27.62,0,0,1-2.36,2.2l-.56-1.78a19.54,19.54,0,0,0,5.38-7.35Zm8.82,6.1-5.69.33v6.91c0,.51.27.76.83.76h2.72a1.07,1.07,0,0,0,.9-.42,8.2,8.2,0,0,0,.34-2.88l1.58.53c-.12,2.07-.36,3.33-.68,3.76a2.26,2.26,0,0,1-1.86.65H136a1.9,1.9,0,0,1-2.14-2.16v-14h1.71v5.28l5.69-.34Z"/></g></svg>