<svg id="圖層_1" data-name="圖層 1" xmlns="http://www.w3.org/2000/svg" viewBox="0 0 180.3 157.84"><title>工作區域 25</title><path d="M26.11,127.69c23.11,24.15,61.44,34.74,94,28.3s55.14-34.42,59.48-66.57C183.91,57,169.37,23.56,139,9.36,109.32-4.55,70.46-3,42.45,14.34A83.84,83.84,0,0,0,7.16,58.71c-6,17.65-8.68,41.66,8.41,54L15,108C8.75,113.24,3,118.65.13,126.45a3,3,0,0,0,2.1,3.69c8.5,2.06,17.46,0,25.38-3.26,3.51-1.46,2-7.26-1.6-5.78-6.87,2.85-14.76,5.05-22.18,3.26l2.09,3.69c2.42-6.7,8-11.34,13.29-15.79,1.61-1.36.82-3.68-.61-4.71C4,97,8,74.88,13,60.3A76.84,76.84,0,0,1,41.86,21.89c24.89-17.24,59.42-20.13,87.65-10,29.15,10.46,45.83,38.17,44.8,68.71-1,29.67-19.13,58.85-48.34,67.74-32.06,9.76-72.45-.67-95.62-24.88-2.67-2.8-6.91,1.45-4.24,4.24Z"/><path d="M46.53,60.32c.08-.58.14-1.16.2-1.74l1.94.26c-.06.52-.12,1-.18,1.48H56V62.1H48.21c-.1.46-.2.9-.28,1.34h5.64V75h2.86v1.74H38.57V75h2.76V63.44H46c.1-.46.2-.9.28-1.34H39V60.32Zm5.16,6.18V65.12H43.21V66.5Zm0,2.82V68H43.21v1.32Zm0,2.84V70.82H43.21v1.34Zm0,2.86V73.68H43.21V75Z"/><path d="M60,76.94l-.42-1.84a13.52,13.52,0,0,0,1.52.1c.48,0,.74-.24.74-.68V70.18c-.74.28-1.48.56-2.24.8l-.48-1.9a25.09,25.09,0,0,0,2.72-.82v-4.1H59.53V62.34h2.32V58.68h1.84v3.66h1.54v1.82H63.69v3.32c.52-.24,1-.5,1.52-.78v1.94l-1.52.74V75a1.71,1.71,0,0,1-1.92,1.94Zm11.48-9.76c-.16.46-.34.9-.52,1.32h6.62v1.84h-2a8,8,0,0,1-1.68,3.38c1.32.6,2.58,1.26,3.8,2l-1,1.5A38.16,38.16,0,0,0,72.49,75a17.19,17.19,0,0,1-6.2,2.18l-.72-1.7a20.1,20.1,0,0,0,4.88-1.4c-1.14-.5-2.36-1-3.66-1.54.5-.76.94-1.5,1.32-2.18H65.73V68.5H69c.24-.52.44-1,.62-1.54Zm1-6.88h4.4V62h-1.4a23.89,23.89,0,0,1-1.06,2.82h2.82v1.82H66V64.84h2.82a19.56,19.56,0,0,0-1-2.82H66.45V60.3h4.16a13,13,0,0,0-.68-1.5l2-.32C72.11,59,72.31,59.64,72.51,60.3Zm-2.5,10c-.28.48-.58,1-.9,1.42,1,.36,2,.76,3,1.2a6,6,0,0,0,1.62-2.62ZM73.67,62h-4a29.27,29.27,0,0,1,.92,2.82h2.08C73,63.92,73.37,63,73.67,62Z"/><path d="M87.09,68.32c-.68.36-1.38.68-2.08,1V75a1.75,1.75,0,0,1-2,2h-1.8l-.44-1.84a14.89,14.89,0,0,0,1.58.1.65.65,0,0,0,.74-.72V70.14q-1.2.45-2.4.84l-.48-1.92a28.09,28.09,0,0,0,2.88-.86V64H80.53V62.18h2.58V58.72H85v3.46h2.06V64H85v3.44c.7-.32,1.4-.68,2.08-1Zm6,6.16a73.92,73.92,0,0,0,2.3-9.88l1.82.46A69.91,69.91,0,0,1,95,74.48h3.64v1.86H87V74.48ZM91.91,61.72q-.42-1.44-.9-2.7l1.92-.32c.3.88.58,1.9.86,3h4.4v1.82H87.51V61.72ZM91.75,73.4,90,73.86c-.44-2.94-1-5.78-1.6-8.52l1.74-.56C90.73,67.3,91.27,70.16,91.75,73.4Z"/><path d="M115.09,58.72v3.64h4q0,10.08-.28,12.42a2.31,2.31,0,0,1-2.64,2.16c-.36,0-1,0-1.92-.08l-.46-1.68c.8.06,1.52.1,2.12.1s1-.44,1.16-1.32.2-4.28.24-9.86h-2.18v.74c-.06,5.56-1.26,9.64-3.62,12.2l-1.14-1c-2.6.32-5.56.6-8.86.8l-.24-1.68c1.44-.08,2.8-.18,4.1-.26V73.5h-3.44V71.94h3.44V70.88h-3.5V64.5h3.5v-1h-3.92V62h3.92v-1c-1,.06-2.16.1-3.34.1l-.5-1.5a39,39,0,0,0,8.48-.8l.84,1.44a24.67,24.67,0,0,1-3.68.62V62H111v1.56h-3.82v1h3.52v6.38h-3.52v1.06h3.46V73.5h-3.46v1.24l3.44-.36v.94c1.8-2.32,2.7-5.82,2.74-10.48V64.1h-1.8V62.36h1.8V58.72ZM105.45,67V65.88h-1.9V67Zm0,1.28h-1.9v1.16h1.9ZM107,67h1.92V65.88H107Zm1.92,1.28H107v1.16h1.92Z"/><path d="M129.59,70.64l-1.52.38-.16-.82a27.82,27.82,0,0,1-5,1.14l-.5-1.72a2.86,2.86,0,0,0,.86-.54,17,17,0,0,0,2.14-3c-.84.16-1.72.3-2.64.44l-.46-1.72a2,2,0,0,0,.78-.7,32.93,32.93,0,0,0,2.24-5.42l1.8.72a31.13,31.13,0,0,1-2.68,5.26c.64-.08,1.3-.18,1.94-.3L127.65,62l1.74.64a47.42,47.42,0,0,1-4.24,6.7c.8-.16,1.6-.34,2.4-.56-.14-.52-.28-1-.44-1.5l1.46-.48A30.91,30.91,0,0,1,129.59,70.64Zm-4.88,1.68a20.31,20.31,0,0,1-.74,4.6l-1.62-.5a17.51,17.51,0,0,0,.8-4.3Zm2.64,3.56-1.64.4c-.12-1.56-.24-3-.4-4.16l1.44-.3C127,73.06,127.17,74.42,127.35,75.88ZM129.71,74l-1.36.62c-.3-1.08-.62-2-.94-2.88l1.34-.44A23.69,23.69,0,0,1,129.71,74Zm3.72-4.68v1.3a9.71,9.71,0,0,1-3.36,5.86l-1-1.38a8,8,0,0,0,2.74-4.22h-2V69.34Zm-.24-9a8.39,8.39,0,0,0,.52-1.66l1.92.26a8.6,8.6,0,0,1-.58,1.4h4.32V67.8H136v1.36a11,11,0,0,0,.72,1.46,17.09,17.09,0,0,0,2.76-2.06l1.08,1.28a17.84,17.84,0,0,1-3,2,16.05,16.05,0,0,0,3.28,3.18l-1.14,1.42A18.77,18.77,0,0,1,136,72V75.2a1.66,1.66,0,0,1-1.84,1.9h-1.48l-.4-1.68a9.44,9.44,0,0,0,1.28.1c.42,0,.64-.26.64-.74v-7h-3.88V60.32Zm4.44,3V62H132v1.3Zm0,1.56H132v1.3h5.6Z"/><path d="M149.05,59.4a25.63,25.63,0,0,1-1.8,4.3V77.14h-1.82V66.54c-.54.72-1.12,1.4-1.72,2.06l-.64-2a22.57,22.57,0,0,0,4.26-8Zm1.24,2.86V73.54h-1.76V62.26Zm4.1,10a18.5,18.5,0,0,1-2.34,4.18l-1.5-1.08a15.64,15.64,0,0,0,2.36-3.82Zm1.08-13.4c-.14.46-.3.9-.46,1.3h6v1.72h-1.48a7.34,7.34,0,0,1-1.78,3.24,21,21,0,0,0,4.06,1.1l-.7,1.7a19.73,19.73,0,0,1-4.82-1.58,13.49,13.49,0,0,1-4.62,1.7l-.72-1.58a14,14,0,0,0,3.74-1.14,6.25,6.25,0,0,1-1.68-2,11.53,11.53,0,0,1-1.24,1.18L150.61,63a8.89,8.89,0,0,0,3-4.38Zm-.14,10.08V67.58h1.82V68.9h4v1.78h-4v6.4h-1.82v-6.4h-3.94V68.9Zm2.44-7.06h-3.68A11.69,11.69,0,0,1,153,63.22l1.36-.56a5.61,5.61,0,0,0,1.76,1.64A5.74,5.74,0,0,0,157.77,61.84Zm3.78,13.36-1.48,1a34.55,34.55,0,0,0-2.2-4l1.36-.86A32,32,0,0,1,161.55,75.2Z"/><path d="M46.19,101.6l.26,1.74a54.83,54.83,0,0,1-7.14,2.8l-.54-1.64a1.19,1.19,0,0,0,.7-1.24V96h4.38v-4.3H38.57V89.92h7.14V97.8h-4.4v5.82A50.67,50.67,0,0,0,46.19,101.6Zm5.22-1.54A15.39,15.39,0,0,0,53,93.3H49.57a17,17,0,0,1-2.5,4.94l-1.16-1.46a18.91,18.91,0,0,0,2.8-8.12l1.86.32c-.16.9-.32,1.74-.5,2.52h6.2v1.8H54.85a17.47,17.47,0,0,1-2.34,8.52,12.11,12.11,0,0,0,4.38,3.76l-1.08,1.6a12.57,12.57,0,0,1-4.4-3.82,14.7,14.7,0,0,1-5,3.78l-1.16-1.56a12.44,12.44,0,0,0,5.1-3.86,22.68,22.68,0,0,1-2-4.84l1.42-.82A20.88,20.88,0,0,0,51.41,100.06Z"/><path d="M61.53,96.76a16,16,0,0,1-.6,2.82l-1.32-.46a11.54,11.54,0,0,0,.68-2.66Zm4.24-1-1.24.32-.2-.7a35,35,0,0,1-4.22.64l-.34-1.22a1.81,1.81,0,0,0,.6-.38,13.1,13.1,0,0,0,1.74-1.76l-1.9.22-.36-1.28a1.43,1.43,0,0,0,.62-.54A12.39,12.39,0,0,0,62,88.78l1.42.54a15.69,15.69,0,0,1-1.86,2.32c.5,0,1-.1,1.48-.18.26-.36.54-.76.84-1.16l1.38.52a28.41,28.41,0,0,1-3.4,3.86c.68-.1,1.38-.24,2.06-.4-.14-.36-.28-.68-.42-1l1.24-.4A17.74,17.74,0,0,1,65.77,95.8Zm3,8.18A9.63,9.63,0,0,0,72,101.8H64.13a9.92,9.92,0,0,1-3,2.3L60,102.76A7.61,7.61,0,0,0,63.89,99l1.8.32a7.1,7.1,0,0,1-.42.88H76v1.62H74a10.65,10.65,0,0,1-2.9,2.78,53.05,53.05,0,0,0,6.32.94l-.66,1.66A42.57,42.57,0,0,1,69,105.7a21.74,21.74,0,0,1-8.3,1.42l-.62-1.66a26.43,26.43,0,0,0,6.44-.7,9,9,0,0,1-2.68-1.8l1.52-.74A9.73,9.73,0,0,0,68.79,104Zm-5.3-5-1.3.14c0-1.08-.08-1.9-.14-2.48l1.18-.12A16,16,0,0,1,63.49,99Zm2.14-.68-1.14.44q-.27-1.14-.6-2.16l1.1-.32C65.27,97,65.47,97.72,65.63,98.32Zm2-8.3a9.17,9.17,0,0,0-.5-1.16l1.76-.3c.16.42.34.9.5,1.46h1.88v1.34H65.69V90Zm3.26,5.64V99H66.13V95.66Zm-.12-3.6v1.12H66.23V92.06Zm0,1.76v1.1H66.23v-1.1Zm-1.28,2.9h-2v1.14h2Zm3.7-.12a14.15,14.15,0,0,1-.58,2.68l-1.32-.44A10.78,10.78,0,0,0,72,96.3Zm4.2-.86-1.26.3c0-.2-.1-.36-.14-.52-1.48.2-2.9.32-4.24.4l-.34-1.22a1.81,1.81,0,0,0,.6-.38,11,11,0,0,0,1.64-1.56l-2,.2-.34-1.28a1.51,1.51,0,0,0,.6-.54,12.82,12.82,0,0,0,1.7-2.38L75,89.3a13.68,13.68,0,0,1-2,2.38c.52,0,1.06-.1,1.58-.16.28-.36.58-.76.9-1.16l1.32.5a30.72,30.72,0,0,1-3.38,3.76c.72-.08,1.42-.18,2.14-.3-.14-.4-.28-.78-.44-1.14l1.24-.42A20.93,20.93,0,0,1,77.39,95.74ZM75.17,99l-1.32.14c0-1.12-.08-2-.14-2.6l1.18-.14A20.6,20.6,0,0,1,75.17,99Zm2.3-.36-1.2.44c-.24-.88-.5-1.72-.8-2.54l1.16-.34A21,21,0,0,1,77.47,98.68Z"/><path d="M83.57,104.52c1.68-.4,3.34-.86,5-1.4l.48,1.78c-2.28.72-4.74,1.36-7.36,1.92L81.11,105a1.27,1.27,0,0,0,.56-1.12V89h1.9V94.3h5v1.86h-5Zm8.4,2c-1.44,0-2.14-.76-2.14-2.28V88.9h1.9v5.58l6-.38v1.84l-6,.4v7.6a.7.7,0,0,0,.78.8h2.84a1.13,1.13,0,0,0,.8-.36c.28-.28.46-1.44.54-3.44l1.82.6c-.22,2.44-.52,3.9-.92,4.34a2.46,2.46,0,0,1-1.76.68Z"/><path d="M101.71,98.6l-.62-2a24,24,0,0,0,3.68-8.08l1.8.84a25.26,25.26,0,0,1-1.68,4.36v13.46H103V96.88C102.59,97.48,102.15,98,101.71,98.6Zm11.72-8.9v1.82H110c-.1.84-.22,1.66-.36,2.42h3.54v1.64c-.64,5.52-2.66,9.36-6,11.52l-.94-1.68a10.32,10.32,0,0,0,3.6-4.2,15.28,15.28,0,0,0-2.14-1.78,16.69,16.69,0,0,1-1.22,1.8l-1-1.86a15.38,15.38,0,0,0,2.7-7.86h-1.38V89.7Zm-2.92,9.74a22.07,22.07,0,0,0,.88-3.76h-2.22q-.36,1.17-.78,2.22A16.41,16.41,0,0,1,110.51,99.44Zm5.3-8.92v12.36h-1.74V90.52Zm-1,16.46-.44-1.82a17,17,0,0,0,2,.12.67.67,0,0,0,.76-.74V88.72H119V105a1.76,1.76,0,0,1-2,2Z"/></svg>