<svg xmlns="http://www.w3.org/2000/svg" viewBox="0 0 103.74 91.1"><title>bubble-2</title><g id="圖層_1" data-name="圖層 1"><path d="M42.14,45c-.69.36-1.39.68-2.09,1V51.7a1.75,1.75,0,0,1-2,2h-1.8l-.44-1.84a14.89,14.89,0,0,0,1.58.1.65.65,0,0,0,.74-.72V46.85q-1.2.45-2.4.84l-.48-1.92a28.09,28.09,0,0,0,2.88-.86v-4.2H35.57V38.89h2.58V35.43h1.9v3.46h2.06v1.82H40.05v3.44c.7-.32,1.4-.68,2.09-1Zm6,6.17a74.11,74.11,0,0,0,2.3-9.89l1.82.46a70.44,70.44,0,0,1-2.2,9.43H53.7v1.86H42V51.2ZM47,38.43q-.42-1.44-.9-2.7L48,35.41c.3.88.58,1.9.86,3h4.4v1.82H42.56V38.43ZM46.8,50.12,45,50.58c-.44-2.94-1-5.79-1.61-8.53l1.75-.56C45.78,44,46.32,46.87,46.8,50.12Z"/><path d="M65.76,46.45c-1.08.36-2.22.69-3.43,1v4.19a1.76,1.76,0,0,1-2,1.94H58.07l-.42-1.82a17.55,17.55,0,0,0,2,.12c.5,0,.76-.24.76-.72V47.89c-1.2.26-2.42.5-3.7.7l-.26-1.9q2.07-.33,4-.72V42.39h-4V40.57h4V38.45c-1,.2-2,.36-3.08.52l-.4-1.8a27.52,27.52,0,0,0,7.45-1.76L65,37.19c-.86.3-1.77.58-2.71.84v2.54h4.33q-.18-2.34-.18-5.16H68.4q0,2.94.18,5.16h6v1.82H68.74a19.54,19.54,0,0,0,.54,3.3c.08.38.18.72.28,1a17.55,17.55,0,0,0,2.26-3.54l1.64.86a19.38,19.38,0,0,1-3.2,4.75,9.42,9.42,0,0,0,.7,1.36c.6.9,1.06,1.36,1.38,1.36s.52-1,.78-3.13l1.68.88c-.5,2.85-1.24,4.29-2.2,4.29s-1.76-.6-2.7-1.78a8.35,8.35,0,0,1-1-1.66,16.07,16.07,0,0,1-4.65,2.74l-1.05-1.64a14.55,14.55,0,0,0,4.92-2.95,20.65,20.65,0,0,1-.62-2.06,27.29,27.29,0,0,1-.66-3.82H62.33v3.14c1.21-.32,2.35-.66,3.43-1Zm8.46-8.16-1.38,1.36a21.28,21.28,0,0,0-3.52-2.84l1.28-1.22A27,27,0,0,1,74.22,38.29Z"/><path d="M15,73.82C28.52,87.71,50.5,93.85,69.35,90s31.89-20.63,34.07-39.41C105.64,31.4,96.3,12.43,78.3,4.69,61-2.74,38.84-1.39,23.09,9.1A48.4,48.4,0,0,0,3.5,35.71C.42,46.13-.07,58.46,9.41,65.64L8.8,60.93C5.05,64.1,2,67.23.15,71.84a3,3,0,0,0,2.09,3.7c5.12,1.07,10.12.1,14.93-1.83,3.54-1.42,2-7.23-1.6-5.79S7.86,70.6,3.84,69.75l2.09,3.69c1.39-3.5,4.31-5.91,7.11-8.27,1.63-1.38.79-3.65-.61-4.71-7.69-5.82-5.08-18.05-2.29-25.78a41.79,41.79,0,0,1,16-20.4c13.56-9.09,32.21-10.55,47.44-5C89.46,15,98.39,30.13,97.73,46.77c-.64,16-10.49,31.71-26.25,36.46-17.6,5.3-39.44-.5-52.19-13.65C16.59,66.8,12.35,71,15,73.82Z"/></g></svg>