<svg xmlns="http://www.w3.org/2000/svg" viewBox="0 0 103.74 91.1"><title>click-me</title><g id="圖層_1" data-name="圖層 1"><path d="M37.43,49.85a18.79,18.79,0,0,1-.62,4l-1.54-.46a13.37,13.37,0,0,0,.7-3.69Zm1.72-5.32v-1.1H35.81V36h8.33v7.42H40.81v1.1h3V46h-3v1.16h3.51v1.69H35.61V47.19h3.54V46H36.07v-1.5Zm.12-7.08H37.33V42h1.94Zm-.16,3.68-1,.26q-.3-1.5-.72-2.88l1-.3A20.78,20.78,0,0,1,39.11,41.13Zm.62,12.31-1.54.18c0-1.56-.08-2.79-.14-3.65l1.38-.18A32.85,32.85,0,0,1,39.73,53.44Zm2.5-.4-1.52.34c-.15-1.28-.34-2.42-.54-3.41l1.36-.27C41.8,50.71,42,51.83,42.23,53Zm.41-15.59h-2V42h2Zm-.24.84a19.56,19.56,0,0,1-.59,3.12l-1-.34A23.14,23.14,0,0,0,41.36,38Zm2.1,14.27-1.38.5a29.5,29.5,0,0,0-.81-3.24l1.35-.39A30.92,30.92,0,0,1,44.5,52.56Zm5.14-17.09V39h4.1v1.74h-4.1V44h3.3v9.89H51.16v-1h-4.3v1h-1.8V44H47.8V35.47Zm1.52,15.67V45.67h-4.3v5.47Z"/><path d="M65.76,46.45c-1.08.36-2.22.68-3.43,1v4.19a1.76,1.76,0,0,1-2,1.94H58.07l-.42-1.82c.7.07,1.36.12,2,.12s.76-.24.76-.72V47.89c-1.2.26-2.42.5-3.7.7l-.26-1.9q2.07-.33,4-.72V42.39h-4V40.57h4V38.45c-1,.2-2,.36-3.08.52l-.4-1.8a27.52,27.52,0,0,0,7.45-1.76L65,37.19c-.86.3-1.77.58-2.71.84v2.54h4.33q-.18-2.34-.18-5.16H68.4q0,2.94.18,5.16h6v1.82H68.74a19.54,19.54,0,0,0,.54,3.3c.08.38.18.72.28,1a17.55,17.55,0,0,0,2.26-3.54l1.64.86a19.12,19.12,0,0,1-3.2,4.74,10.16,10.16,0,0,0,.7,1.37c.6.9,1.06,1.36,1.38,1.36s.52-1,.78-3.13l1.68.88c-.5,2.85-1.24,4.29-2.2,4.29s-1.76-.6-2.7-1.78a9,9,0,0,1-1-1.66,16.07,16.07,0,0,1-4.65,2.74l-1.05-1.65a14.37,14.37,0,0,0,4.92-2.94,20.65,20.65,0,0,1-.62-2.06,27.29,27.29,0,0,1-.66-3.82H62.33v3.14c1.21-.32,2.35-.66,3.43-1Zm8.46-8.16-1.38,1.36a21.28,21.28,0,0,0-3.52-2.84l1.28-1.22A27,27,0,0,1,74.22,38.29Z"/><path d="M15,73.82C28.52,87.71,50.5,93.85,69.35,90s31.89-20.63,34.07-39.41C105.64,31.4,96.3,12.43,78.3,4.69,61-2.74,38.84-1.39,23.09,9.1A48.4,48.4,0,0,0,3.5,35.71C.42,46.13-.07,58.46,9.41,65.64L8.8,60.93C5.05,64.1,2,67.23.15,71.84a3,3,0,0,0,2.09,3.7c5.12,1.07,10.12.1,14.93-1.83,3.54-1.42,2-7.23-1.6-5.79S7.86,70.6,3.84,69.75l2.09,3.69c1.39-3.5,4.31-5.91,7.11-8.27,1.63-1.38.79-3.65-.61-4.71-7.69-5.82-5.08-18.05-2.29-25.78a41.79,41.79,0,0,1,16-20.4c13.56-9.09,32.21-10.55,47.44-5C89.46,15,98.39,30.13,97.73,46.77c-.64,16-10.49,31.71-26.25,36.46-17.6,5.3-39.44-.5-52.19-13.65C16.59,66.8,12.35,71,15,73.82Z"/></g></svg>