<svg xmlns="http://www.w3.org/2000/svg" viewBox="0 0 388.25 77.61"><defs><style>.cls-1{fill:#f3eee8;}</style></defs><title>step-1</title><g id="Layer_2" data-name="Layer 2"><g id="圖層_1" data-name="圖層 1"><path d="M92.89,58.37C84,58,75.05,57.82,66.12,58a1.52,1.52,0,0,0-1.5,1.5V73.11a1.52,1.52,0,0,0,1.5,1.5c21.33-.62,42.67-.72,64-.64a1.52,1.52,0,0,0,1.5-1.5V60.27a1.52,1.52,0,0,0-1.5-1.5c-12.41.09-24.83.1-37.23-.4-1.93-.08-1.93,2.92,0,3,12.41.49,24.82.49,37.23.4l-1.5-1.5v12.2l1.5-1.5c-21.33-.09-42.68,0-64,.64l1.5,1.5V59.45L66.12,61c8.93-.13,17.85.06,26.77.42C94.82,61.45,94.82,58.45,92.89,58.37Z"/><path d="M49.82,60.12c-10.16.67-20.57.42-30.92.66-3,.07-10.92-.34-13.53.4-3.56,1-3.17,3-3.84,4.6,0,0-.24,9,.77,9.61,13-.91,26.65-.54,39.88-1.28,8-.45,15.94-.77,23.93-1V59.45C60.78,59.54,55.39,59.76,49.82,60.12Z"/><path d="M49.82,58.62c-13.26.8-26.53.25-39.79.63-3,.09-6.8.13-8.74,2.91C-.16,64.23,0,67,0,69.38c0,1.87-.4,5.83,1.37,7.19,1.4,1.07,4.86.08,6.51,0,3.79-.17,7.58-.26,11.38-.33,15.63-.3,31.22-1.15,46.84-1.64a1.53,1.53,0,0,0,1.5-1.5V59.45a1.52,1.52,0,0,0-1.5-1.5q-8.16.16-16.3.67c-1.92.12-1.93,3.12,0,3Q58,61.11,66.12,61l-1.5-1.5V73.11l1.5-1.5C54.33,72,42.56,72.76,30.77,73c-5.73.13-11.46.18-17.19.34-2.49.07-7.07,1.13-9.41.4-1.06-.33-.23,1-1-.54a7.32,7.32,0,0,1-.15-2.37c-.11-2.73-.6-5.24,1.53-7.18,2.75-2.5,8.34-1.44,11.89-1.42,11.09.09,22.27,0,33.34-.65C51.74,61.51,51.76,58.51,49.82,58.62Z"/><path d="M242.83,59.61c-16.23-.18-32.47-.46-48.7-.68a1.52,1.52,0,0,0-1.5,1.5V73.19a1.52,1.52,0,0,0,1.5,1.5c21.33.35,42.67.71,64,.86a1.52,1.52,0,0,0,1.5-1.5V61.35a1.52,1.52,0,0,0-1.5-1.5q-7.65-.14-15.3-.24a1.5,1.5,0,0,0,0,3q7.65.09,15.3.24l-1.5-1.5V74l1.5-1.5c-21.34-.15-42.67-.51-64-.86l1.5,1.5V60.43l-1.5,1.5c16.23.22,32.47.5,48.7.68A1.5,1.5,0,0,0,242.83,59.61Z"/><path d="M154.29,58.61c-8.05,0-16.11.09-24.16.16a1.52,1.52,0,0,0-1.5,1.5v12.2a1.52,1.52,0,0,0,1.5,1.5c21.34.06,42.67.37,64,.72a1.52,1.52,0,0,0,1.5-1.5V60.43a1.52,1.52,0,0,0-1.5-1.5c-13.28-.18-26.56-.31-39.84-.32a1.5,1.5,0,0,0,0,3c13.28,0,26.56.14,39.84.32l-1.5-1.5V73.19l1.5-1.5c-21.33-.35-42.67-.66-64-.72l1.5,1.5V60.27l-1.5,1.5c8.05-.07,16.11-.15,24.16-.16A1.5,1.5,0,0,0,154.29,58.61Z"/><path d="M387.77,66.32c-.17-2.7-.37-3.77-3.2-4.51-5.09-1.34-10.79-.33-16-.34-15.69,0-31.37-.45-47.06-.75a1.52,1.52,0,0,0-1.5,1.5V74.9a1.52,1.52,0,0,0,1.5,1.5c15,.1,30-.38,45-.17,3.46,0,6.92.15,10.37.38,2.11.14,6.69,1.55,8.47.77,3.94-1.73,2.79-7.86,2.37-11.06-.25-1.89-3.25-1.91-3,0,.3,2.28,1.39,6.63-1.33,7.91-1.52.72-6.43-.62-8.2-.72-5.85-.33-11.72-.34-17.57-.28-12.05.12-24.09.25-36.14.17l1.5,1.5V62.21l-1.5,1.5c12.46.24,24.92.55,37.39.69,5.43.06,10.86.16,16.29,0a38.67,38.67,0,0,1,7.18.07c2,.3,2.27.08,2.38,1.9S387.89,68.25,387.77,66.32Z"/><path d="M306.83,60.59c-16.23-.18-32.47-.46-48.7-.68a1.52,1.52,0,0,0-1.5,1.5V74.16a1.52,1.52,0,0,0,1.5,1.5c21.33.35,42.67.71,64,.86a1.52,1.52,0,0,0,1.5-1.5V62.33a1.52,1.52,0,0,0-1.5-1.5q-7.65-.14-15.3-.24a1.5,1.5,0,0,0,0,3q7.65.09,15.3.24l-1.5-1.5V75l1.5-1.5c-21.34-.15-42.67-.51-64-.86l1.5,1.5V61.41l-1.5,1.5c16.23.22,32.47.5,48.7.68A1.5,1.5,0,0,0,306.83,60.59Z"/><path d="M42.62,30.63a6.31,6.31,0,0,1,.19,1,8.85,8.85,0,0,0-.09,1c.09.79.29,1.58.43,2.36l.52,2.9c.1.54,0,1.46.5,1.79a3.73,3.73,0,0,0,.89.26c.52.19,1,.58,1.49.73a25.59,25.59,0,0,1,2.89.61c.6.25,1.55,1.28.57,1.68a6.24,6.24,0,0,1-2,.29,19.37,19.37,0,0,0-2.35,0c-.58.07-1.17.21-1.74.32a5.71,5.71,0,0,1-1.27.17c-.3,0-1.07,0-1.29-.19s-.39-2-.48-2.54c-.3-1.64-.82-3.1-1.11-4.75-.15-.84-.3-1.67-.45-2.51A6.58,6.58,0,0,0,39,32.52c-.18-.48-.5-.84-.43-1.4a7.63,7.63,0,0,1,1.85-.36A6.21,6.21,0,0,1,42,30.52l.08.2"/><path d="M28.12,33.24a6.31,6.31,0,0,1,.19,1,8.85,8.85,0,0,0-.09,1c.09.79.29,1.58.43,2.36l.52,2.9c.1.54,0,1.46.5,1.79a3.73,3.73,0,0,0,.89.26c.52.19,1,.58,1.49.73a25.59,25.59,0,0,1,2.89.61c.6.25,1.55,1.28.57,1.68a6.24,6.24,0,0,1-2,.29,19.37,19.37,0,0,0-2.35,0c-.58.07-1.17.21-1.74.32a5.71,5.71,0,0,1-1.27.17c-.3,0-1.07,0-1.29-.19s-.39-2-.48-2.54c-.3-1.64-.82-3.1-1.11-4.75-.15-.84-.3-1.67-.45-2.51a6.58,6.58,0,0,0-.28-1.23c-.18-.48-.5-.84-.43-1.4a7.63,7.63,0,0,1,1.85-.36,6.21,6.21,0,0,1,1.59-.24l.08.2"/><path class="cls-1" d="M29,1.7c-6.69.93-13.15,7.59-14.74,12.12-2.08,5.91-1.9,12.55,2,17.62C22,38.7,34.37,40.63,42.66,36.17c10.06-5.4,12-18.15,5.76-26.83C48.42,9.34,43.75-.34,29,1.7Z"/><path d="M28.6.26c-12.25,2.38-20.55,16-15.87,27.88C17.28,39.64,33.16,43,43.42,37.46,54.09,31.7,56,18.29,49.72,8.58,45.07,1.44,37.25-.73,29,.2c-1.9.21-1.92,3.22,0,3,6.84-.77,13.77.51,17.87,6.45,4.71,6.81,5.06,16.21-1.07,22.35-7.1,7.11-20.83,6.7-27.63-.66-9.24-10-.72-25.86,11.22-28.19C31.29,2.78,30.49-.11,28.6.26Z"/><path d="M29.32,2.47a129.57,129.57,0,0,1,1.54,17c0,1.37,2.14,2.19,2.8.76l-.68.54c1.88-.44,1.08-3.33-.8-2.89a1.56,1.56,0,0,0-1.11.84l2.8.76A135.59,135.59,0,0,0,32.21,1.68c-.31-1.9-3.2-1.09-2.89.8Z"/><path d="M31.71,20.75c3.2,1.73,6.34,3.59,9.53,5.34,2.45,1.34,4.77,3.23,7.37,4.23,1.8.7,2.58-2.2.8-2.89-2.65-1-5.1-3.13-7.63-4.46-2.91-1.52-5.67-3.25-8.55-4.81-1.7-.92-3.21,1.67-1.51,2.59Z"/><path d="M31.41,18.61c-1.47.82-2.66,2-4.05,2.94-1.61,1.07-3.34,2-4.94,3.06-2.34,1.61-5.16,3.46-6.82,5.81-1.12,1.58,1.48,3.08,2.59,1.51,1.7-2.4,5.06-4.36,7.52-5.88s4.74-3.46,7.22-4.86c1.68-.95.17-3.54-1.51-2.59Z"/><path d="M31.53,6.25a82.63,82.63,0,0,1-8.09-1.9c-1.88-.45-2.68,2.44-.8,2.89a82.63,82.63,0,0,0,8.09,1.9c1.89.26,2.7-2.63.8-2.89Z"/><path d="M31.17,9.28a19.27,19.27,0,0,1-5.4-.87c-1.61-.36-3.26-.49-4.86-.91a1.5,1.5,0,0,0-.8,2.89c1.8.47,3.67.62,5.49,1.06a18.79,18.79,0,0,0,5.57.82c1.92-.12,1.93-3.12,0-3Z"/><path d="M31.36,12.47c-4.51-.82-9.09-1.11-13.61-1.82l1,1,0-.12c-.57-1.84-3.46-1.05-2.89.8l0,.12a1.48,1.48,0,0,0,1,1c4.52.71,9.1,1,13.61,1.82,1.89.34,2.7-2.55.8-2.89Z"/><path d="M30.87,15.65c-5.72,1-11.78-.69-17.57,0l.4,2.95.27,0c1.89-.36,1.09-3.25-.8-2.89l-.27,0c-1.65.27-1.29,3.13.4,2.95,6.09-.67,12.33,1,18.37-.06,1.9-.33,1.09-3.22-.8-2.89Z"/><path d="M28.91,20.41c-5.25-.64-10.54-.65-15.81-1-1.93-.14-1.92,2.86,0,3,5.27.38,10.56.39,15.81,1,1.91.23,1.9-2.77,0-3Z"/><path d="M22.69,23.85c-1.76.08-3.52.21-5.28.34a16.86,16.86,0,0,1-2.67.27c-1.64-1-3.15,1.56-1.51,2.59,1,.63,2.36.31,3.46.2,2-.19,4-.31,6-.4s1.93-3.09,0-3Z"/><path d="M32,30.71a3,3,0,0,0-1.47-.64c-1.86-.21-3.78,1.82-2.5,3.55a3.49,3.49,0,0,0,3,1.3,2.47,2.47,0,0,0,2.36-2A2.25,2.25,0,0,0,32,30.71Z"/><path d="M41.82,29a3,3,0,0,0-1.47-.64c-1.86-.21-3.78,1.82-2.5,3.55a3.49,3.49,0,0,0,3,1.3,2.47,2.47,0,0,0,2.36-2A2.25,2.25,0,0,0,41.82,29Z"/><path d="M33.06,25.1a1.65,1.65,0,0,0-.8-.35c-1-.11-2,1-1.35,1.92a1.89,1.89,0,0,0,1.61.7,1.33,1.33,0,0,0,1.27-1.05A1.21,1.21,0,0,0,33.06,25.1Z"/><path d="M24.71,31.07a1.65,1.65,0,0,0-.8-.35c-1-.11-2,1-1.35,1.92a1.89,1.89,0,0,0,1.61.7,1.33,1.33,0,0,0,1.27-1.05A1.21,1.21,0,0,0,24.71,31.07Z"/></g></g></svg>