<svg id="圖層_1" data-name="圖層 1" xmlns="http://www.w3.org/2000/svg" viewBox="0 0 821 473"><defs><style>.cls-1{fill:#d1ccc7;}.cls-2{fill:#f3eee8;}.cls-3{fill:none;}</style></defs><title>ㄢ323-clock-2</title><g id="圖層_1-2" data-name="圖層 1"><path d="M730.17,58.44c1.09-2,3-3.52,4.47-5.27.92-1.11,3-5,4.24-5.32,2.67-.8,10.27,4.86,12.71,6.51,5.26,3.56,6.94,4.86,3.72,10.59-1,1.74-2,6.28-4.13,6.56-1.12.15-4.4-1.85-5.67-2.24-5.6-1.73-11-5.53-13.54-10.17"/><path d="M732.76,60c1.42-2.16,3.42-3.82,4.93-5.91.56-.78,1.08-2.3,1.87-2.8.4-.25.08-.18,1.19-.09,3.22.28,8,4.73,10.56,6.61,2.93,2.16,2.62,2.87,1.23,6-.67,1.53-1.16,4.18-2.62,4.18s-6.08-2.5-7.38-3.17a19.92,19.92,0,0,1-8-7.23c-2-3.3-7.21-.28-5.18,3a26,26,0,0,0,10.93,9.8c2.85,1.39,7.65,4.3,10.93,4.15,3.52-.15,4.86-3.82,6-6.52,1.38-3.11,3.6-6.43,2.29-10-1.14-3.08-4.4-4.89-7-6.65-3-2.09-6.07-4.37-9.52-5.74-2.86-1.14-5.27-1.21-7.51,1.1a44.46,44.46,0,0,0-3,4.29c-1.58,2-3.5,3.72-4.94,5.9-2.13,3.23,3.06,6.24,5.19,3Z"/><path class="cls-1" d="M358,432.38c-21.75-7.29-104.3,11.08-85.75,28.38,6,5.58,26.72,5.89,35.53,6.62,19.65,1.65,40,2.37,59.85,2.22,39.31-.31,82-.1,120.33-6.48,17.61-3,64.77-22,40.56-35.94-29.7-17.11-83.6-6.3-118-4.18-13.72.84-48.13-.49-55.41,8.75"/><path class="cls-1" d="M358.83,429.47c-13.17-4.19-29.27-1.28-42.52,1.11-14.26,2.57-30.9,6-42.89,14.74-3.42,2.47-6.95,6-6.81,10.53.19,6.12,6.31,9.5,11.47,11,9,2.65,18.72,2.72,28,3.38,14.73,1.06,29.43,2,44.21,2.27,30.59.55,61.43.24,92-1.55,22.69-1.33,46.22-2.69,67.5-11.34,9.15-3.73,32.77-13.23,28-27-2.52-7.22-12.07-10.65-18.59-12.86-10.28-3.48-21.31-4.64-32.11-5-26.22-.81-52,4.06-78.15,5.3-10.33.5-20.68.35-31,1.37-8,.79-19.25,1.58-24.93,8.18-2.5,2.91,1.72,7.17,4.25,4.24,4.53-5.28,14.29-5.79,20.68-6.42,8.75-.87,17.55-1,26.33-1.2,19.12-.53,38.11-3.55,57.19-4.83,20-1.35,42.53-2.36,61.26,6.12,4.84,2.19,12.47,5.91,8.17,12-3.84,5.45-11,8.9-16.8,11.69-17.44,8.36-35.91,10.8-55,12.51-26.72,2.38-53.58,2.6-80.39,2.78-25.66.18-51.05-.92-76.65-2.54-4.2-.26-36.36-1.48-27.84-11.43,3.81-4.45,10.56-6.89,15.87-8.85a160.47,160.47,0,0,1,23.67-6.53,171.63,171.63,0,0,1,24.72-3.28c6.2-.32,12.83-.54,18.82,1.37,3.69,1.17,5.27-4.62,1.59-5.79Z"/><path class="cls-1" d="M375.48,385.35a25.38,25.38,0,0,0-.05,3.8c.24,1.39.91,2.32,1,3.78.2,2.92,0,6,0,8.91v10.94c0,2,.8,5.4-.66,6.9-.76.76-2.12,1-3.07,1.54-1.77,1-3.14,2.74-5,3.66-3.22,1.61-7.08,2.13-10.18,4.14-2,1.32-4.85,5.69-1,6.52a23.49,23.49,0,0,0,7.53-.28c2.79-.51,5.77-1.55,8.56-1.7,2.17-.12,4.42,0,6.6,0a22.35,22.35,0,0,0,4.77-.21c1.09-.24,3.94-.66,4.61-1.56,1.08-1.45.09-7.76.09-9.61,0-6.2.95-11.9.95-18.14v-9.47a24.36,24.36,0,0,1,.21-4.68c.35-1.88,1.26-3.41.64-5.39-2-.58-4.88-.1-7-.1-1.85,0-4.22-.36-6,.16l-.16.78"/><path d="M372.48,385.35c-.17,3.62.95,6.68,1,10.24.11,4.5-.1,9-.1,13.54,0,3,1.06,7.07-1.2,9a32.62,32.62,0,0,1-9.7,5.51c-4.43,1.59-10.33,3.7-10.83,9.25-.54,6,6.43,6.07,10.63,5.61,4-.46,7.87-1.85,12-2,3.53-.15,7,.35,10.53-.25,5-.88,7.34-2.75,7.31-7.93-.05-6.91.11-13.65.44-20.58.21-4.38.08-8.78.1-13.16,0-3.73,1.3-7.17.74-10.87a2.87,2.87,0,0,0-2.1-2.1,45.37,45.37,0,0,0-14.57.07,2.91,2.91,0,0,0-2.09,2.09l-.16.79c-.78,3.76,5,5.38,5.78,1.59l.16-.78-2.13,2.1a39.81,39.81,0,0,1,11.38-.06l-2.1-2.1c.41,2.7-.95,6.43-.95,9.28,0,3.45.05,6.94,0,10.4-.12,6.26-1.22,12.51-.84,18.77.07,1.18,1,4.95.36,5.84-.9,1.36-5.36,1-6.93,1a55.22,55.22,0,0,0-9.09.27c-3.08.49-6,1.54-9.15,1.8a22.2,22.2,0,0,1-3.65,0c0,.35,3.25-1.91,3.06-1.81,2.52-1.37,5.51-1.79,8.1-3s4.72-3.18,7.12-4.6c1.67-1,2.86-1.7,3.58-3.61s.32-4.19.24-6.24c-.12-3.22,0-6.45,0-9.67,0-3.55.4-7.21,0-10.74-.29-2.69-1.1-4.79-1-7.57.18-3.86-5.82-3.85-6,0Z"/><path class="cls-1" d="M430.29,385.35a24.1,24.1,0,0,0,0,3.8c.25,1.39.92,2.32,1,3.78.2,2.92,0,6,0,8.91v10.94c0,2,.8,5.4-.67,6.9-.76.76-2.12,1-3.07,1.54-1.76,1-3.13,2.74-5,3.66-3.23,1.61-7.09,2.13-10.18,4.14-2,1.32-4.85,5.69-1,6.52a23.55,23.55,0,0,0,7.54-.28c2.78-.51,5.76-1.55,8.55-1.7,2.18-.12,4.42,0,6.6,0a22.47,22.47,0,0,0,4.78-.21c1.08-.24,3.93-.66,4.6-1.56,1.08-1.45.1-7.76.1-9.61,0-6.2.94-11.9.94-18.14v-9.47a26.12,26.12,0,0,1,.21-4.68c.35-1.88,1.27-3.41.64-5.39-2-.58-4.88-.1-7-.1-1.86,0-4.23-.36-6,.16l-.16.78"/><path d="M427.29,385.35c-.17,3.62,1,6.68,1,10.24.11,4.5-.1,9-.1,13.54,0,3,1.06,7.07-1.2,9a32.89,32.89,0,0,1-9.71,5.51c-4.43,1.59-10.32,3.7-10.83,9.25-.54,6,6.43,6.07,10.63,5.61s7.88-1.85,12-2c3.52-.15,7,.35,10.52-.25,5-.88,7.34-2.75,7.31-7.93,0-6.91.11-13.65.44-20.58.21-4.38.09-8.78.1-13.16,0-3.73,1.3-7.17.74-10.87a2.89,2.89,0,0,0-2.09-2.1,45.37,45.37,0,0,0-14.57.07,2.89,2.89,0,0,0-2.1,2.09l-.16.79c-.78,3.76,5,5.38,5.78,1.59l.17-.78-2.1,2.09a39.81,39.81,0,0,1,11.38-.06l-2.09-2.1c.41,2.7-1,6.43-1,9.28,0,3.46.05,6.94,0,10.4-.11,6.26-1.22,12.52-.84,18.78.07,1.17,1,4.94.36,5.84-.9,1.36-5.35,1-6.93,1a53.1,53.1,0,0,0-9.09.27c-3.08.48-6,1.54-9.15,1.79-.22,0-3.64.21-3.65,0,0,.35,3.25-1.91,3.06-1.81,2.52-1.36,5.51-1.79,8.1-3s4.72-3.17,7.13-4.6c1.67-1,2.86-1.7,3.57-3.6s.32-4.19.24-6.24c-.12-3.22,0-6.46,0-9.68,0-3.54.39-7.2,0-10.73-.29-2.69-1.1-4.8-1-7.57.18-3.86-5.82-3.86-6,0Z"/><path class="cls-2" d="M408.51,394.59c-5.9,0-11.13,3.81-17,3.87-7.1.07-12.88-2.18-19.91-2-7.75.17-16.41-1.8-23.88-3.84-9-2.47-18.28-4.61-27.4-6.59-5.37-1.18-9.2-4.4-13.86-7.12-5.29-3.1-11.07-5.61-16.58-8.32-8.71-4.28-14.65-7.24-21.74-14.18-5.44-5.34-10.53-11-16.38-15.92-4.14-3.49-8.71-6.37-12.23-10.55-8-9.47-15.11-21.95-21.12-32.78-4.14-7.44-7.56-19.31-8.36-27.75-.47-4.88-2.11-9.16-2.2-14.11a64.76,64.76,0,0,0-1.62-13c-2.2-10.84-1.26-24.63-.69-35.62s4.75-22.94,7.82-33.44A298.37,298.37,0,0,1,230.49,129c5.35-11,8.59-22.58,14.48-33.53,7-12.93,16.22-20.9,26.63-30.83a66.5,66.5,0,0,1,15.18-11c5.25-2.83,9.06-7.27,14-10.61,9.38-6.4,19.48-12.82,29.86-17.31,8.74-3.78,17.55-6.32,26.52-9.45,9.88-3.45,20.1-3.52,30.31-5.27,17.15-3,35.73-2.18,53.28-1.87,15.66.28,30.45,5.52,45.39,9.31,14.74,3.73,30.33,7.21,44.33,13.29A44,44,0,0,1,545,42.49c5.73,6.07,12,12,17.52,18.19C569.14,68,574.68,77,580.72,84.83c11.73,15.26,19.4,35.22,23.76,54.09,2,8.55,6.22,17.78,6.88,26.49.91,11.83,2.09,23.2,2.17,35.19.13,20.17-7.13,41.88-14.44,60.68-2.78,7.12-4.76,14.79-8.3,21.66-2.61,5.06-6.12,9.19-8.31,14.46-4.57,11-13.72,23.48-22.44,31.51-9,8.33-17.21,16.61-27.39,23.94-7.9,5.68-17.17,8.92-25.6,13.74A222.6,222.6,0,0,1,475.74,382a132,132,0,0,1-16.45,4.83c-4.57,1.08-9.17.21-13.57,1.21-7.13,1.6-14.72,2.17-21.84,4a77.44,77.44,0,0,1-13.12,2.09c-4.51.41-7.76,3.89-12.08,4.32"/><path d="M408.51,391.59c-4.37.25-8.2,1.82-12.36,3-5.45,1.57-10.79.35-16.27-.47-4.47-.68-8.9-.52-13.4-.86a96.08,96.08,0,0,1-16.38-3.14c-10.07-2.65-20.67-4.3-30.58-7.44-4.52-1.43-8.31-4.53-12.37-6.86-4.84-2.77-10-5-15-7.45-8.59-4.18-16.37-8.59-23.21-15.36a275.92,275.92,0,0,0-21.48-19.69c-7.66-6.17-13-14.71-18.08-23s-10.09-16.64-13.09-25.91a85.55,85.55,0,0,1-3.07-13c-.78-5.35-2.05-10.72-2.43-16.09-.68-9.44-2.88-18.62-3-28.12-.13-10.32.05-21.15,2.25-31.26,2.24-10.28,5.58-20.46,8.89-30.45,6.52-19.63,15.59-38.34,23.49-57.43a88.63,88.63,0,0,1,16.66-26.9c6.45-7,13.53-14.26,21.2-19.88,3.42-2.49,7.24-4.28,10.72-6.67,3.95-2.71,7.33-6.15,11.23-8.92a174.16,174.16,0,0,1,27.41-16.21A210.58,210.58,0,0,1,361.4,18.15c9.78-2.71,20.33-3.35,30.37-4.75,10.71-1.49,21.57-1.61,32.36-1.5,11.16.12,22.31,0,33.29,2.31,10.55,2.17,20.84,5.44,31.28,8,9.82,2.45,19.69,4.82,29.31,8,5,1.66,10.06,3.36,14.6,6s8.36,6.46,12.07,10.31c7.5,7.8,15.36,15.21,21.86,23.89,12.29,16.41,23.54,32.55,30.15,52.15,3.18,9.42,5.25,19.15,8.24,28.63,3.2,10.13,3.93,20.25,4.7,30.8.75,10.25,1.36,20.59.09,30.82-1.35,10.83-4.32,21.45-7.79,31.77-3.31,9.83-6.95,19.6-10.56,29.32-3.41,9.16-9.1,17.41-13.46,26.14-9,18.1-24.76,32.26-40.14,45-8.09,6.69-16.89,11.11-26.23,15.74-9.18,4.55-17.87,10-27.19,14.27-9.48,4.36-20.49,9-31,9.33-10,.32-20.44,2.43-30.21,4.72-4.37,1-8.71,1.37-13.12,2.09s-7.78,3.56-12.08,4.32c-3.79.68-2.18,6.46,1.6,5.8,4.62-.83,8.28-3.84,13-4.4,5.37-.63,10.51-1.76,15.8-2.87s10.39-1.64,15.55-2.63c5.41-1,10.89-.64,16.27-1.75,21.52-4.45,39.61-16.54,59.09-26a114.54,114.54,0,0,0,25.59-16.78c8.22-7.1,16.71-14.51,23.86-22.7a97.89,97.89,0,0,0,15.77-24c4.24-9.38,10.19-17.48,13.65-27.3,7.24-20.59,15.81-40.85,18-62.79,1.09-11.19.09-22.53-.81-33.7-.41-5-.57-10.19-1.41-15.19a111.82,111.82,0,0,0-4.14-15c-3.16-10-5.22-20.29-8.9-30.16a133.3,133.3,0,0,0-13.63-27.42,329.85,329.85,0,0,0-41.3-49.5C531.19,24.39,508.07,20.92,488.61,16c-10.76-2.71-21.32-6.15-32.32-8.15s-22-1.9-33.09-2a218.1,218.1,0,0,0-33,1.73c-10.63,1.52-21.82,2.11-32.13,5.25-21.53,6.57-42,15.12-60.16,28.56-3.84,2.84-7.2,6.34-11.26,8.87s-8.07,4.7-11.8,7.64a171.78,171.78,0,0,0-21.56,20.74,92.46,92.46,0,0,0-15.75,25.74c-4.44,10.51-8.8,21-13.45,31.42a306.37,306.37,0,0,0-11.46,29.78c-3.52,10.84-7.34,21.94-9.2,33.2a162.37,162.37,0,0,0-1.55,30.13,90.94,90.94,0,0,0,1.41,14.15c1,5.41,1.1,10.81,1.88,16.21,1.39,9.71,2.88,19.74,6.11,29,3.1,8.9,8.06,17,12.94,25,5.31,8.71,11,17.77,19,24.24s15.27,13.72,22.77,21c6.81,6.56,14.72,11,23.17,15.06,5,2.43,10.12,4.68,15,7.45,4.09,2.34,7.87,5.3,12.32,7,5,1.87,10.64,2.59,15.86,3.83,5.71,1.35,11.36,2.88,17,4.35A111.94,111.94,0,0,0,363,399c5.91.75,11.79.49,17.69,1.41,4.34.68,8.77,1.54,13.17.94,5-.68,9.53-3.36,14.64-3.66,3.83-.23,3.86-6.23,0-6Z"/><path class="cls-2" d="M409.18,388.88c-5.61,0-11.23,0-16.84.06-6.75.07-12.25-2.07-18.93-1.93-7.38.17-15.61-1.7-22.72-3.64-8.6-2.36-17.39-4.4-26.06-6.27-5.1-1.11-8.75-4.19-13.18-6.78-5-2.94-10.54-5.33-15.77-7.9-8.28-4.07-13.94-6.89-20.68-13.5-5.18-5.08-10-10.46-15.58-15.14-3.94-3.31-8.29-6-11.63-10-7.59-9-14.38-20.88-20.09-31.18-3.94-7.08-7.19-18.36-8-26.39-.44-4.65-2-8.71-2.09-13.43a61.29,61.29,0,0,0-1.53-12.37c-2.1-10.31-1.2-23.42-.66-33.87s4.5-21.8,7.46-31.76a282.67,282.67,0,0,1,16.3-42c5.11-10.54,8.21-21.54,13.81-32,6.62-12.28,15.43-19.88,25.3-29.32A63.7,63.7,0,0,1,292.73,61c5-2.7,8.61-6.91,13.28-10.1,8.92-6.08,18.54-12.18,28.41-16.46,8.31-3.59,16.69-6,25.22-9,9.39-3.28,19.12-3.34,28.83-5,16.31-2.8,34-2.06,50.68-1.78,14.89.27,29,5.25,43.17,8.85,14,3.55,28.84,6.87,42.17,12.66a41.79,41.79,0,0,1,13.8,10.2c5.45,5.77,11.37,11.39,16.67,17.28,6.29,7,11.56,15.5,17.31,23,11.16,14.52,18.45,33.5,22.6,51.45,1.87,8.14,5.91,16.91,6.54,25.19.86,11.25,2,22.08,2.06,33.47.13,19.18-6.77,39.84-13.73,57.71-2.64,6.78-4.52,14.08-7.89,20.6-2.49,4.83-5.83,8.74-7.91,13.77-4.34,10.48-13.05,22.34-21.34,30-8.61,7.92-16.37,15.79-26.05,22.76-7.52,5.4-16.34,8.49-24.35,13.08a211.62,211.62,0,0,1-29.75,14.56,127.69,127.69,0,0,1-15.58,4.6c-4.34,1-8.72.2-12.9,1.14-6.78,1.53-14,2.06-20.78,3.83a72,72,0,0,1-12.47,2c-4.3.39-7.39,3.7-11.49,4.13"/><path d="M409.18,385.88h-15c-5.16,0-10.05-.92-15.15-1.56-4.21-.51-8.44-.22-12.65-.72a120.58,120.58,0,0,1-16.77-3.67q-6.93-1.86-14-3.47c-5.23-1.22-10.9-1.85-15.67-4.43-4-2.15-7.65-4.79-11.68-6.87s-8.46-4-12.66-6.13a77.93,77.93,0,0,1-21.75-15.48c-3.39-3.44-6.73-6.93-10.33-10.15s-7.77-6-11.32-9.33c-6.68-6.35-11.58-15-16.21-22.88s-8.9-15.69-11.3-24.65a151.2,151.2,0,0,1-4.26-27.07c-.65-8.77-2.74-17.12-2.7-26,.05-9.9.36-20,2.69-29.6s5.31-18.89,8.43-28.12a280,280,0,0,1,12.08-29.87c4.18-8.82,7.35-18,11.34-26.93A81.54,81.54,0,0,1,268.1,85.47C274.35,79,281,72,288.55,66.94c3.33-2.23,6.95-3.94,10.14-6.38,4-3,7.62-6.34,11.8-9.12,8.52-5.7,17.33-11.1,26.83-15s20-7.91,30.18-10a284.59,284.59,0,0,1,30.19-4.2,263.14,263.14,0,0,1,30.24-.79c10.68.2,20.95.63,31.39,3.08,9.82,2.32,19.51,5.21,29.3,7.65a275.11,275.11,0,0,1,28.32,8.18c4.52,1.66,9,3.45,12.87,6.32,4.06,3,7.37,6.87,10.88,10.45C548,64.6,555.14,72,561.27,80.49c5.34,7.43,11.13,14.65,15.69,22.58a132.81,132.81,0,0,1,11.33,26.24c2.75,8.63,4.77,17.45,7.45,26.11,3.06,9.87,3.47,20.13,4.15,30.38.68,10.07,1,20.1-.61,30.09a172.39,172.39,0,0,1-7.75,29.2c-3.13,9-6.33,18.09-9.79,27a67.61,67.61,0,0,1-6.13,11.63,130.18,130.18,0,0,0-6.14,11.78c-8.55,17-23.29,30.26-37.72,42.29-7.7,6.41-16,10.66-24.91,15.06-8.68,4.3-16.9,9.43-25.7,13.51-9.48,4.4-20.22,8.79-30.79,9.12-9.23.29-19,2.38-28,4.47-4.57,1.07-9.35,1.11-13.87,2.22-3.56.88-6.46,3.24-10.1,3.89s-2.18,6.46,1.6,5.79c4-.72,7.29-3.36,11.32-4,5.11-.87,10.12-1.56,15.2-2.67,4.89-1.07,9.87-1.62,14.79-2.53,5.43-1,10.95-.73,16.33-1.83,20.7-4.25,38.18-15.95,56.89-25a107.83,107.83,0,0,0,24.2-16.1c7.75-6.73,15.76-13.71,22.49-21.48a93.61,93.61,0,0,0,14.73-22.46c3.81-8.41,9.26-15.69,12.44-24.45,6.9-19,14.74-38,17.29-58.14,1.38-10.92.64-21.92-.21-32.85-.78-10.06-1.7-19.34-4.77-29-5.92-18.62-9.86-37.2-20.28-54.09-10.86-17.6-24.46-32.8-38.73-47.61a55.94,55.94,0,0,0-21.38-14.4C510,31.3,499.19,28.65,488.48,26c-10.09-2.53-20-5.63-30.21-7.83C447.9,15.9,437.6,15.62,427,15.45c-11-.18-22-.14-33,1.21-9.84,1.21-20.13,2.09-29.79,4.39a177.69,177.69,0,0,0-58.17,26.28c-3.84,2.61-7.21,5.75-10.91,8.55-4,3-8.67,5.15-12.72,8.24A162.52,162.52,0,0,0,262.29,83c-14,15.15-19.61,34.93-28,53.27-8.66,18.85-16.18,39.27-20.34,59.64-2,9.53-2.18,19.63-2.1,29.35s2.24,18.84,2.9,28.36c.33,4.7,1.58,9.26,2.2,13.92a85.83,85.83,0,0,0,2.74,13c2.53,8.53,6.75,16.09,11.24,23.73,4.89,8.32,10.11,17.36,17.15,24.1,3.31,3.17,7.2,5.7,10.65,8.73,4.08,3.58,7.81,7.54,11.63,11.39A79.23,79.23,0,0,0,292,363.87c4.44,2.21,9,4.24,13.39,6.5s8.58,5.4,13.11,7.62c4.05,2,8.53,2.64,12.88,3.63q8.88,2,17.68,4.37a132.71,132.71,0,0,0,14.86,3.3c5.23.77,10.5.41,15.72,1.13,10,1.38,19.56,1.48,29.63,1.45,3.86,0,3.87-6,0-6Z"/><circle cx="434.14" cy="196.65" r="4.74"/><path d="M432.56,186.49c6.17-.78,15.06-.25,15.66,7.83.57,7.66-6.91,11.64-13.6,11-2.43-.22-5.44-.33-7.6-1.4-2.77-1.4-3.4-4.66-3.2-7.56.35-5.12,4.34-8.85,9.14-10,1.88-.44,1.09-3.33-.79-2.9a14.15,14.15,0,0,0-11.24,15c.42,8.37,8.4,10.23,15.82,10,7.84-.24,14.89-5.94,14.47-14.2-.5-9.87-10.7-11.82-18.66-10.83C430.67,183.71,430.65,186.73,432.56,186.49Z"/><path d="M385.29,186.49c6.17-.78,15.06-.25,15.66,7.83.57,7.66-6.91,11.64-13.6,11-2.43-.22-5.44-.33-7.6-1.4-2.77-1.4-3.4-4.66-3.2-7.56.35-5.12,4.34-8.85,9.14-10,1.88-.44,1.09-3.33-.79-2.9a14.15,14.15,0,0,0-11.24,15c.42,8.37,8.4,10.23,15.82,10,7.84-.24,14.89-5.94,14.47-14.2-.5-9.87-10.7-11.82-18.66-10.83C383.4,183.71,383.38,186.73,385.29,186.49Z"/><circle cx="385.93" cy="196.65" r="4.74"/><path d="M430,167.73c-1.32,0-2.77-.13-3.8.87a3.35,3.35,0,0,0-.63,3.82c1.13,2,4.39,1.78,6.31,1.38,2.31-.49,5.52-3.06,3.22-5.48-1.59-1.67-5.71-2.09-7.34-.26-1.18,1.33,0,3.05,1.35,3.66a3.83,3.83,0,0,0,4.26-.64,1.54,1.54,0,0,0-.06-2.17,1.38,1.38,0,0,0-.6-.34l-.42-.15c-1.81-.68-2.59,2.22-.8,2.89l.42.15-.66-2.5c-.18.18-.4.14-.65.12a1,1,0,0,1-.33-.12c-.21-.1,0,.3-.06-.16l-.39,1.46c.57-.7,2-.19,2.76-.11.52,0,0,.41.3-.09.07-.14-.26.21-.31.23a6.22,6.22,0,0,1-1.53.62c-.92.14-1.87-.08-2.77,0-.53.05-.08-.24-.11,0s.19-.12.07-.11c.59-.05,1.17-.07,1.77-.07a1.5,1.5,0,0,0,0-3Z"/><path d="M395.06,167.73c-1.32,0-2.77-.13-3.8.87a3.35,3.35,0,0,0-.63,3.82c1.13,2,4.39,1.78,6.31,1.38,2.31-.49,5.52-3.06,3.22-5.48-1.59-1.67-5.71-2.09-7.34-.26-1.18,1.33,0,3.05,1.35,3.66a3.83,3.83,0,0,0,4.26-.64,1.54,1.54,0,0,0-.06-2.17,1.38,1.38,0,0,0-.6-.34l-.42-.15c-1.81-.68-2.59,2.22-.79,2.89l.41.15-.66-2.5c-.18.18-.39.14-.65.12a1,1,0,0,1-.33-.12c-.2-.1,0,.3-.06-.16l-.39,1.46c.57-.7,2-.19,2.76-.11.52,0,0,.41.3-.09.07-.14-.26.21-.31.23a6.22,6.22,0,0,1-1.53.62c-.92.14-1.87-.08-2.77,0-.53.05-.08-.24-.11,0s.19-.12.07-.11c.59-.05,1.17-.07,1.77-.07a1.5,1.5,0,0,0,0-3Z"/><path d="M616.75,204.24c.5-10.92.53-20.81-1.48-31.59-1.86-10-2.62-20.16-4.84-30.13a137.41,137.41,0,0,0-9.38-28.28,325.68,325.68,0,0,0-15.86-29c-5.57-9.34-12.59-17.77-19.12-26.43C553.5,42.1,532.22,35.6,513.44,28.35c-10.4-4-20.57-8.7-31.14-12.26-10.27-3.44-20.83-4.85-31.52-6.33-11.49-1.63-23-3-34.67-2.86-10.67.09-21.86-.58-32.44,1a197.35,197.35,0,0,0-61.85,19.62c-4.42,2.28-8.39,5.21-12.71,7.64-4.57,2.58-9.6,4.17-14.15,6.84a168.54,168.54,0,0,0-23.67,17.4C255,73.33,246.63,93.15,235.59,111c-11.44,18.5-22,38.83-28.88,59.5-3.12,9.3-4.58,19.33-5.78,29-1.31,10.58-.44,21.13-.84,31.73-.18,4.65.5,9.3.53,13.95a89.76,89.76,0,0,0,1.18,14c1.57,9.4,5.09,18,8.86,26.68,4,9.22,8.26,19.33,14.78,27.1,3.35,4,7.33,7.4,10.74,11.36,3.83,4.43,7.24,9.2,10.86,13.8,5.71,7.27,12.4,12.72,20.09,17.79,4.2,2.77,8.51,5.37,12.66,8.22,4.59,3.15,8.6,7.2,13.38,10,4.35,2.58,9.44,3.88,14.16,5.61,5.52,2,11,4.17,16.44,6.37A127.44,127.44,0,0,0,337.55,391c5,1.4,10.16,1.74,15.19,3,4.87,1.17,9.51,2.88,14.5,3.58,5.84.83,30.95-2.16,36.28-2.67s10.84-.42,16.25-.75c5.7-.35,11.33.68,17,.23,22-1.75,41.42-11.57,61.94-18.48a115.12,115.12,0,0,0,28.23-14.06c8.59-5.8,17.48-11.8,25.26-18.68A98.52,98.52,0,0,0,571.1,321c5.21-8.51,12-15.57,16.49-24.57,9.62-19.12,20.36-37.9,25.48-58.87C615.69,226.71,616.29,215.41,616.75,204.24Zm-21.46,29.69c-4.5,19-14.14,35.69-22.7,53a76.44,76.44,0,0,1-6.84,11.82c-2.71,3.7-5.83,7-8.24,10.89A94.91,94.91,0,0,1,540.71,330c-6.82,6.23-14.69,11.51-22.28,16.76a103.51,103.51,0,0,1-25.54,13.41c-19.09,6.56-37.39,15.52-57.75,17.46-5.26.51-10.45-.5-15.74-.15-4.77.32-9.57.24-14.35.63s-15.84,4.75-18.14,4.47c-5.33-.64-10.69-1.2-16-1.94-4.53-.63-8.77-2.17-13.19-3.23-5.07-1.22-10.22-1.62-15.25-3.11a133.38,133.38,0,0,1-12.92-4.76q-8.08-3.27-16.26-6.26c-4.07-1.48-8.12-2.71-11.7-5.18-3.74-2.58-7-5.72-10.8-8.27s-7.92-5.09-11.84-7.69a73.38,73.38,0,0,1-17.8-15.86c-3.39-4.31-6.59-8.78-10.2-12.93-3.08-3.53-6.69-6.57-9.66-10.21-5.89-7.2-9.78-16.44-13.44-24.92-3.36-7.78-6.47-15.46-7.87-23.86a82.19,82.19,0,0,1-1.07-12.72c0-4.2-.65-8.4-.5-12.59.34-9.15-.44-18.3.57-27.42,1-8.76,2.29-17.86,4.88-26.3,2.85-9.24,7.15-18.11,11.2-26.86a278.92,278.92,0,0,1,14.16-26.69c5.39-9,10.56-18,15.78-27a84.71,84.71,0,0,1,17.18-21.59,156.6,156.6,0,0,1,21.75-16.28c3.8-2.33,7.84-3.85,11.84-5.75,4.34-2.06,8.11-5.13,12.34-7.39,17.85-9.53,36.56-15,56.43-18.38,9.9-1.7,20.41-1,30.41-1.13a205.34,205.34,0,0,1,30.34,2.28c9.81,1.33,19.62,2.52,29.08,5.55,10,3.2,19.57,7.67,29.36,11.46,16.92,6.54,36.66,12.39,48.09,27.39,6.07,8,12.54,15.82,17.72,24.43,4.78,8,9.46,16.27,13.6,24.58a120.64,120.64,0,0,1,9,25.57c2.21,9.17,2.93,18.48,4.58,27.74.94,5.24,2.13,10.45,2.28,15.79.13,4.61-.27,9.25-.47,13.87C598.11,213.24,597.69,223.79,595.29,233.93Z"/><path d="M668.37,171c1.41-2.41,2.84-4.83,4.25-7.23,1-1.73,2.86-6.59,4.46-7.76,1.15-.84-.85-.61.57-.35.63.12,1.64,1.09,2.25,1.43,2.17,1.21,4.48,2.08,6.36,3.75l-.77-2.92c-2,5.58-6.41,10.92-9.37,16.07-2.74,4.76-6.43,8.63-9.08,13.56a129.66,129.66,0,0,1-9.7,15c-3.1,4.27-4.73,10.5-8.44,14.17h4.24c-1.15-.92-1-3.46-1.69-4.78-1-1.89-3-3.19-4.67-4.48l.77,2.92c1.76-5.06,5.75-10,9-14.21.69-.9,4.7-6.87,1.21-5.29-1.58.72-3.64,5.81-4.39,7-1.76,2.85,2.44,6.24,4.71,3.64,2.52-2.9,5.33-5.44,7.43-8.69l-5.18-3c-2.22,3.79-4.4,7.6-6.63,11.37-1.79,3-4.37,5.46-6.06,8.5-1.89,3.36,3.22,6.36,5.18,3,2.71-4.62,5.95-8.89,8.94-13.34,1.88-2.81-2.46-6.2-4.71-3.64a98,98,0,0,0-9.88,12.86l5.18,3,6.52-11.16c2-3.34-3.23-6.36-5.18-3l-6.52,11.14c-2,3.36,3.15,6.31,5.18,3A88.86,88.86,0,0,1,661.29,200l-4.71-3.64c-3,4.44-6.23,8.72-8.94,13.35l5.18,3c1.67-3,4.28-5.49,6.06-8.49,2.23-3.78,4.41-7.58,6.63-11.37,2-3.35-3.1-6.26-5.18-3-1.81,2.8-4.31,5-6.49,7.47l4.71,3.64c1.83-3,6.13-7.71,6-11.38s-4.12-5.39-7.19-3.9c-3.23,1.56-5.58,6.78-7.65,9.62-3,4.11-6.22,8.67-7.9,13.5a2.9,2.9,0,0,0,.77,2.92c2.27,1.78,3.43,2.83,4.19,5.51a6.73,6.73,0,0,0,2.17,3.75,3.08,3.08,0,0,0,4.24,0c3.83-3.8,5.54-9.72,8.53-14.18,3.63-5.39,7.42-10.42,10.55-16.19,2.89-5.34,6.81-9.64,9.82-14.87s7.21-10.46,9.21-16.21a2.93,2.93,0,0,0-.78-2.92c-2.62-2.31-5.73-3.5-8.68-5.29-2-1.24-3.5-2.88-6-2.19-2.81.76-3.76,3.69-5,6-2.42,4.34-5,8.58-7.54,12.86-2,3.34,3.22,6.37,5.18,3Z"/><path d="M681.37,160l.33-.56-5.19-3c-1.86,3.2-3.63,6.48-5.66,9.57-1.44,2.18-3,4.3-3.6,6.91a3,3,0,0,0,2.11,3.69,3,3,0,0,0,2.3-.31c6-3.16,5.75-11.55,10.58-15.66l-5.12-2.13c.19,1.88-1.67,5.26-2.48,6.78-1.24,2.33-2.69,4.58-4,6.87l5.18,3c1-1.84,1.87-3.76,2.85-5.61.59-1.1,1.18-2.2,1.86-3.25.49-.75,1.94-1.94,1-1.91l-2.89-2.2c.42,1.09-2,3.66-2.59,4.58-1.48,2.29-2.72,4.73-4.2,7s1.65,5.9,4.11,4.11,3.63-4,5.32-6.4c.93-1.34,2.17-2.4,3.17-3.67.68-.86,1.15-2.39,2.15-2.86l-4.4-3.39-.34.61c-3.7,1.08-2.13,6.86,1.59,5.79a6,6,0,0,0,4.53-4.81,3,3,0,0,0-4.41-3.39c-2.34,1.11-3.24,3.66-4.89,5.51-2,2.24-3.37,5.68-5.75,7.42l4.1,4.11c1.9-2.94,3.61-6,5.51-8.93,1.36-2.09,2.88-4.76,1.88-7.29a3.11,3.11,0,0,0-2.89-2.21c-5.85.23-8.5,9.54-10.84,13.74-1.88,3.37,3.23,6.37,5.18,3a84.78,84.78,0,0,0,5-8.8c1-2.32,2.62-5.3,2.36-7.88a3,3,0,0,0-5.12-2.12c-2.34,2-3.43,5-4.81,7.62-1.18,2.27-2.19,5.87-4.56,7.11l4.41,3.39c.48-2.33,2.2-4.21,3.45-6.17,1.84-2.89,3.48-5.92,5.21-8.87,2-3.34-3.24-6.36-5.19-3l-.32.56c-2,3.34,3.23,6.36,5.18,3Z"/><path class="cls-2" d="M660.29,14l76.8,44.85q11.29,6.62,22.59,13.2c3.81,2.22,7.91,4.28,11.6,6.68,3,2,5,4.59,7.87,6.59,5.82,4,12.94,6.54,18.63,10.69,2.66,1.94,4.51,4.25,7.15,6.17s6.64,3,9.11,5.06c7.26,6.15-3.35,17.42-6.18,22.26l-6.25,10.76c-1.3,2.22-2.5,4.53-3.87,6.72-2.18,3.47-5.33,5.83-7.76,9.08-2.59,3.44-3.84,7.63-6.75,10.88a66.11,66.11,0,0,0-8.4,11.33c-3.4,5.8-6.86,11.57-10.18,17.42a28.11,28.11,0,0,1-3.75,5.56c-1.24,1.35-3.44,4.39-4.8,5.44-3.52,2.73-6.19.38-10.65-2.3-10.64-6.4-21.47-12.53-32.2-18.8l-56.66-33.1c-18.24-10.65-36.94-20.85-54.86-32a124.84,124.84,0,0,1-10.44-7.9c-2.16-1.71-3.75-3.89-6-5.47-1.44-1-5.38-2-6.09-3.69-1.6-3.75,4.69-7.81,6.66-9.9,4.33-4.61,8-8.75,11.14-14.19,10.07-17.4,20.35-34.72,30.44-52.08a46.3,46.3,0,0,1,6.85-8.72c2.48-2.66,3.52-7.85,7.83-8.79C642.12,9.73,649.77,7.82,660.29,14Z"/><path d="M658.81,16.57,719.39,52l29.13,17c9.1,5.3,18.51,10,26.52,16.85,7.35,6.3,17,8.83,24.23,15.38a43.91,43.91,0,0,0,10.19,6.7c5,2.61,4.58,6,2.16,10.48-3.62,6.7-8.31,13-12.15,19.58-2.35,4-4.43,8.06-7.64,11.5a51.08,51.08,0,0,0-7.7,10.58c-2.18,4-5.28,7.17-8,10.8a144.77,144.77,0,0,0-8.1,13c-2.57,4.35-4.87,9-7.7,13.19a54,54,0,0,1-3.93,4.9c-2.43,2.87-4.72,2.71-7.86.82-19.72-11.82-39.7-23.23-59.55-34.82s-40-23.28-60.12-34.84c-9.5-5.46-19.44-10.69-28.35-17.07a128.37,128.37,0,0,1-11.23-9.47,18.53,18.53,0,0,0-4.2-2.91c-2.67-1.37-3.35-2.08-.94-4.53C591.15,92,597,85.3,602,76.63c6.36-11,12.79-21.86,19.18-32.78,3.22-5.5,6.18-11.24,9.69-16.56,2.55-3.85,6-6.87,8.35-10.85,1.52-2.54,2.83-3.94,5.76-4,4.91-.1,9.59,1.79,13.81,4.12,3.38,1.87,6.41-3.31,3-5.18C656,8.16,648.4,5.24,641.57,6.78a10.71,10.71,0,0,0-6.28,4.71c-2.47,3.57-5,6.78-7.7,10.24-7.55,9.85-13.11,21.83-19.4,32.53s-11.85,22.68-20,32.2c-2.71,3.2-5.84,5.82-8.71,8.83-2.24,2.35-4.42,5.52-3.18,8.92s4.87,3.79,7.43,5.53c4.39,3,8.14,7.27,12.46,10.49,10,7.44,21.4,13.3,32.17,19.48,11.21,6.43,22.43,12.84,33.59,19.36q34.23,20,68.46,39.92c5.07,2.94,10.09,5.94,15.12,8.94,3.68,2.22,7.35,4.14,11.45,1.72,3-1.8,5.54-5.44,7.61-8.22,3.68-5,6.44-10.81,9.57-16.14,2.82-4.78,5.53-9.55,9.08-13.83s5.84-9.08,9.11-13.53c2.76-3.78,6.34-6.73,8.78-10.78,2.9-4.83,5.6-9.77,8.45-14.61,3.5-5.93,9.36-11.71,9.92-18.92.74-9.69-10.22-11.44-16-16.66a64.88,64.88,0,0,0-14.21-9.34,64.44,64.44,0,0,1-8.62-4.91c-2.53-1.86-4.6-4.25-7.16-6.08-5.34-3.82-11.48-6.71-17.15-10L738.63,56.24,661.84,11.39C658.5,9.44,655.47,14.62,658.81,16.57Z"/><path d="M220.53,151.62c-6.38-4-13.15-7.39-19.6-11.29-3.79-2.3-6.52-5.27-9.93-8.09-5.19-4.31-11-7.84-16.48-11.65-8.33-5.74-18,.84-20.83,9.61-1.2,3.72-1,8.09,3,9.87,5.08,2.27,10.21-.58,13.84-4.06,2.79-2.68-1.46-6.92-4.25-4.25a11.2,11.2,0,0,1-2.74,2.25c-1.09.5-4,1-4.53-.66-.47-1.39,1.83-4.18,2.59-5.17,3.15-4,6.33-4.85,10.44-1.94,3.78,2.67,7.72,5.08,11.46,7.83,3.41,2.5,6.22,5.44,9.43,8.14,7.2,6.06,16.61,9.59,24.54,14.58,3.28,2.08,6.29-3.11,3-5.17Z"/><path d="M160.93,166.45c5.9,1.21,11.88,2,17.79,3.22,5.55,1.11,10.3,5.6,15,8.64,2.58,1.67,5.34,3.09,7.89,4.79,3,2,5.45,4.57,8.49,6.46l2.32-5.48-.42-.14c-3.66-1.26-5.23,4.54-1.59,5.78l.41.14c3.3,1.14,5.12-3.73,2.31-5.48-3-1.88-5.53-4.49-8.49-6.46s-5.91-3.76-8.83-5.63c-4.67-3-9.25-7-14.73-8.23-6.15-1.32-12.41-2.13-18.57-3.39-3.77-.77-5.38,5-1.59,5.78Z"/><path class="cls-1" d="M675.11,136.24c-3.85-1.17-7.64-1.72-11.55-2.56a45.94,45.94,0,0,1-13.86-6c-8.1-5.07-13.83-15.92-15.22-25.23-1.49-10,4.34-20.69,11-27.83,7.08-7.55,17.39-12,27-15.2a32.64,32.64,0,0,1,25,1.63c7.51,3.7,14.17,11.1,16.63,19.21s4.76,18,3.2,26.27a51.16,51.16,0,0,1-3.22,10.36c-1.15,2.68-3.41,4.54-5.42,6.56-3,3.06-6.14,4.94-9.77,7.22-3.47,2.18-8.12,3-12,4.19-2.56.79-5.12.59-7.78.59-1.83,0-5.93.74-7.2-.8"/><path class="cls-1" d="M551.47,222c-1.52-.47-3-.68-4.56-1a18.49,18.49,0,0,1-5.47-2.37c-3.2-2-5.46-6.28-6-10-.59-4,1.71-8.17,4.35-11,2.8-3,6.87-4.73,10.67-6a13,13,0,0,1,9.83.65,13.14,13.14,0,0,1,6.57,7.58c1,3.14,1.88,7.09,1.26,10.37a20,20,0,0,1-1.27,4.09,8.5,8.5,0,0,1-2.14,2.59,16.28,16.28,0,0,1-8.61,4.5,9.89,9.89,0,0,1-3.07.23c-.72,0-2.34.3-2.84-.31"/><path class="cls-1" d="M265.29,222c-1.52-.47-3-.68-4.56-1a18.49,18.49,0,0,1-5.47-2.37c-3.2-2-5.46-6.28-6-10-.59-4,1.71-8.17,4.35-11,2.8-3,6.87-4.73,10.67-6a12.93,12.93,0,0,1,9.86.64,13.13,13.13,0,0,1,6.57,7.59c1,3.14,1.88,7.08,1.26,10.36a20,20,0,0,1-1.27,4.09,8.36,8.36,0,0,1-2.14,2.59,16.28,16.28,0,0,1-8.61,4.5,9.89,9.89,0,0,1-3.07.23c-.72,0-2.34.3-2.84-.31"/><path class="cls-1" d="M408.77,361.28c-1.52-.46-3-.68-4.56-1a18.15,18.15,0,0,1-5.48-2.37c-3.19-2-5.46-6.29-6-10-.59-4,1.71-8.17,4.35-11,2.79-3,6.86-4.73,10.67-6a12.89,12.89,0,0,1,9.86.65,13.13,13.13,0,0,1,6.57,7.59c.95,3.14,1.87,7.09,1.26,10.36a20.75,20.75,0,0,1-1.27,4.08,8.82,8.82,0,0,1-2.14,2.6,19.9,19.9,0,0,1-3.86,2.84,19,19,0,0,1-4.75,1.66,10.21,10.21,0,0,1-3.07.24c-.73,0-2.35.29-2.85-.31"/><path class="cls-1" d="M408.77,78.92c-1.52-.45-3-.67-4.56-1a17.83,17.83,0,0,1-5.48-2.38c-3.19-2-5.46-6.28-6-10-.59-4,1.71-8.16,4.35-11,2.79-3,6.86-4.73,10.67-6a12.93,12.93,0,0,1,9.86.64,13.17,13.17,0,0,1,6.57,7.58c.95,3.16,1.87,7.09,1.26,10.38a21.36,21.36,0,0,1-1.27,4.1A8.86,8.86,0,0,1,422,73.82a19.26,19.26,0,0,1-3.86,2.85,19.84,19.84,0,0,1-4.75,1.66,10.21,10.21,0,0,1-3.07.24c-.73,0-2.35.29-2.85-.32"/><path d="M395,58.64v-2.7a15.18,15.18,0,0,0,2.61-.25,3.66,3.66,0,0,0,1.93-1,3.49,3.49,0,0,0,.8-1.41,2.76,2.76,0,0,0,.15-.8h3.3v20h-4.05V58.64Z"/><path d="M410.57,68.54a11,11,0,0,1,4-4.25,29.93,29.93,0,0,0,3.53-2.8,4.12,4.12,0,0,0,1.19-2.89,3.11,3.11,0,0,0-.7-2.11,2.49,2.49,0,0,0-2-.84A2.45,2.45,0,0,0,414.14,57a7,7,0,0,0-.44,2.45h-3.84a10,10,0,0,1,.93-4.13c1.06-2,2.94-3,5.62-3a7.11,7.11,0,0,1,5.07,1.75,6.09,6.09,0,0,1,1.89,4.68,6.28,6.28,0,0,1-1.33,4,13,13,0,0,1-2.88,2.5l-1.58,1.12a19.06,19.06,0,0,0-2,1.53,4.36,4.36,0,0,0-.92,1.08h8.76v3.49H409.64A9.64,9.64,0,0,1,410.57,68.54Z"/><path d="M411.29,342a2,2,0,0,0-.37-1.07A2.17,2.17,0,0,0,409,340a2.85,2.85,0,0,0-2.74,2.17,13.46,13.46,0,0,0-.61,3.51,4.66,4.66,0,0,1,1.7-1.28,6.27,6.27,0,0,1,6.6,1.41,6.49,6.49,0,0,1,1.71,4.65,7.84,7.84,0,0,1-1.67,5,6.24,6.24,0,0,1-5.21,2.15,6,6,0,0,1-5.6-3.18,13,13,0,0,1-1.39-6.4,31.07,31.07,0,0,1,.19-3.73,11.65,11.65,0,0,1,1.34-4.27,7,7,0,0,1,2.25-2.34,6.07,6.07,0,0,1,3.34-.88,6.51,6.51,0,0,1,4.39,1.42,5.4,5.4,0,0,1,1.87,3.82Zm-4.7,11.31a2.81,2.81,0,0,0,2.21,1,2.5,2.5,0,0,0,2.08-1,4.06,4.06,0,0,0,.75-2.56,3.86,3.86,0,0,0-.86-2.71,2.7,2.7,0,0,0-2.1-.92,2.79,2.79,0,0,0-1.79.6,3.45,3.45,0,0,0-1.16,2.9A4.08,4.08,0,0,0,406.59,353.34Z"/><path d="M260.52,198.88a6.91,6.91,0,0,1,9.75,0,6.83,6.83,0,0,1,1.38,2,15.65,15.65,0,0,1,1,6.05,17,17,0,0,1-.93,6.08c-1.18,3.11-3.35,4.64-6.51,4.64a6.61,6.61,0,0,1-4.06-1.33,5.29,5.29,0,0,1-2.06-3.89H263a2.44,2.44,0,0,0,.75,1.44,2.38,2.38,0,0,0,1.62.55,2.82,2.82,0,0,0,2.74-2.16,12.08,12.08,0,0,0,.54-3.47,4,4,0,0,1-1.15,1,5.14,5.14,0,0,1-2.72.67,6.26,6.26,0,0,1-4.26-1.67,6.1,6.1,0,0,1-1.85-4.77A7.41,7.41,0,0,1,260.52,198.88Zm6.64,8a3.24,3.24,0,0,0,1.34-3,4.17,4.17,0,0,0-.79-2.7,2.65,2.65,0,0,0-2.18-1,2.76,2.76,0,0,0-1.74.58,3.61,3.61,0,0,0-1.13,3,4.15,4.15,0,0,0,.73,2.67,2.68,2.68,0,0,0,2.23.9,2.72,2.72,0,0,0,1.54-.48Z"/><path d="M548.55,211a4.55,4.55,0,0,0,.39,2,2.68,2.68,0,0,0,2.61,1.47,2.85,2.85,0,0,0,2-.81,2.91,2.91,0,0,0,.87-2.28,2.59,2.59,0,0,0-1.6-2.65,8.24,8.24,0,0,0-2.88-.37V205.5a7.84,7.84,0,0,0,2.68-.38,2.3,2.3,0,0,0,1.31-2.36,2.57,2.57,0,0,0-.67-1.86,2.82,2.82,0,0,0-3.93.16,3.74,3.74,0,0,0-.63,2.37H545a10.11,10.11,0,0,1,.52-2.84,6.27,6.27,0,0,1,1.52-2.17,5.2,5.2,0,0,1,1.84-1.08,7.51,7.51,0,0,1,2.61-.38,6.93,6.93,0,0,1,4.64,1.49,5,5,0,0,1,1.77,4,4.41,4.41,0,0,1-1,3,3.78,3.78,0,0,1-1.39,1,2.74,2.74,0,0,1,1.55.93,4.89,4.89,0,0,1,1.51,3.82,6.41,6.41,0,0,1-1.76,4.48,6.71,6.71,0,0,1-5.23,1.92c-2.84,0-4.81-.92-5.92-2.78a8.45,8.45,0,0,1-1-3.88Z"/><circle class="cls-3" cx="408.76" cy="206.57" r="174.88"/><path d="M408.22,39.4a3.31,3.31,0,0,0-3.77,2.11c-.93,3,2.33,3.48,4.51,3.32,6.68-.51,1.57-9.18-1.92-5.21"/><path d="M492,61.58a3.31,3.31,0,0,0-4.32-.07c-2.31,2.14.26,4.2,2.24,5.14,6,2.89,5.95-7.16.94-5.47"/><path d="M553.43,122.72a3.31,3.31,0,0,0-3.71-2.21c-3.07.7-1.86,3.77-.63,5.57,3.78,5.54,8.73-3.2,3.55-4.26"/><path d="M576,206.43a3.3,3.3,0,0,0-2.11-3.78c-3-.93-3.49,2.32-3.33,4.5.5,6.68,9.17,1.59,5.21-1.91"/><path d="M553.59,290.16a3.3,3.3,0,0,0,.06-4.32c-2.12-2.31-4.18.25-5.14,2.23-2.91,6,7.14,6,5.47.95"/><path d="M492.29,351.43a3.3,3.3,0,0,0,2.22-3.71c-.69-3.07-3.75-1.87-5.57-.65-5.54,3.77,3.19,8.74,4.25,3.56"/><path d="M408.53,373.75a3.29,3.29,0,0,0,3.78-2.1c.94-3-2.31-3.5-4.5-3.34-6.68.48-1.61,9.16,1.9,5.21"/><path d="M324.85,351.16a3.33,3.33,0,0,0,4.32.07c2.32-2.12-.24-4.18-2.22-5.14-6-2.93-6,7.12-1,5.45"/><path d="M263.74,289.69a3.32,3.32,0,0,0,3.7,2.23c3.07-.68,1.88-3.74.65-5.56-3.75-5.56-8.74,3.17-3.56,4.24"/><path d="M241.62,205.88a3.3,3.3,0,0,0,2.09,3.78c3,1,3.5-2.3,3.35-4.49-.47-6.68-9.16-1.64-5.22,1.89"/><path d="M264.43,122.24a3.32,3.32,0,0,0-.08,4.33c2.11,2.32,4.18-.24,5.15-2.21,2.94-6-7.11-6-5.46-1"/><path d="M326.06,61.31A3.29,3.29,0,0,0,323.82,65c.66,3.07,3.74,1.89,5.56.67,5.56-3.73-3.15-8.75-4.24-3.59"/><path d="M605,233.91c2.81-2.39,8.67-3.22,12.07-4.46a129.32,129.32,0,0,0,14-6c4.27-2.15,8.43-4.51,12.56-6.92,1.82-1.06,5.28-3.48,6.6-3.75,3.78-.8,2.18-6.58-1.59-5.79-2.39.5-4.89,2.52-6.95,3.72-4.49,2.62-9,5.22-13.65,7.56a123.8,123.8,0,0,1-16.77,6.93c-3.62,1.23-7.51,2-10.48,4.53s1.32,6.72,4.24,4.24Z"/><path d="M644.72,24.89c-5.07,4.31-8.28,11.08-11.58,16.75-4.54,7.77-8.74,15.73-13.21,23.54-4.27,7.46-8.54,15-13.17,22.21-1.64,2.55-5.5,6.32-5.49,9.54a1.5,1.5,0,1,0,3,0c0-1.47,2.51-4.18,3.25-5.28,1.26-1.89,2.48-3.78,3.66-5.73q6.3-10.38,12.31-20.92c3.81-6.7,7.43-13.51,11.28-20.19,3.4-5.91,6.81-13.32,12.07-17.8C648.32,25.75,646.18,23.65,644.72,24.89Z"/><path d="M794.75,126.15c-5.07,4.33-8.28,11.09-11.58,16.75-4.54,7.78-8.74,15.73-13.21,23.54-4.27,7.46-8.54,15-13.17,22.21-1.64,2.59-5.5,6.33-5.5,9.59a1.5,1.5,0,0,0,3,0c0-1.48,2.51-4.18,3.25-5.28,1.26-1.89,2.48-3.79,3.66-5.73q6.3-10.38,12.31-20.92c3.81-6.7,7.43-13.51,11.28-20.19,3.4-5.9,6.81-13.33,12.07-17.8,1.47-1.25-.66-3.36-2.12-2.13Z"/><path class="cls-2" d="M609.7,182.1c-.77-.72,12.16-4.53,13.69-4.86,5.69-1.19,11.33-2.47,17-3.64,4.49-.95,7.12-1.34,11-4.09s8.37-5.38,13.33-3.67c3.91,1.35,8.18,5.92,3.91,9.36,2.23,2.57,3.8,3.33,3.54,7-.22,3.2-1,5.48-4.06,6.57-5,1.78-10.52-1.9-15-.74"/><path d="M612.59,181.31v-.12l-.77,2.92c1-1.09,6-2.12,8-2.73,4.25-1.28,8.57-2.13,12.91-3.07,5.53-1.2,11.66-1.81,16.83-4.24,2.65-1.25,4.84-3.26,7.47-4.56,2.28-1.11,4.9-1.72,7.35-.58,1.56.72,4,2.22,2.13,4.14a3.09,3.09,0,0,0,0,4.25c1.47,1.61,2.71,2.58,2.66,4.92-.07,3.9-3.19,4.31-6.42,3.86-3.64-.53-6.69-1.5-10.39-.92s-2.18,6.39,1.6,5.79c6.56-1,14.64,4.62,19.56-2.68,3.69-5.47,1.07-11-2.77-15.22v4.25C676,172,671.94,165,665.52,163A14.91,14.91,0,0,0,654,164.34c-2.39,1.23-4.42,3.07-6.83,4.25a28.59,28.59,0,0,1-6.74,2c-7.9,1.66-15.89,3.08-23.6,5.49-3.25,1-10.73,2.15-10,6.87.59,3.81,6.38,2.19,5.79-1.59Z"/><path d="M654.94,212.74c11.93,2.17,28,.72,31.31-13.39a21,21,0,0,0-2.91-16.45c-2.1-3.39-5.88-8-10.26-5.36-3.29,2-.28,7.2,3,5.18-.55.34-.83-.27,0,.53a10.9,10.9,0,0,1,1.43,1.76,20.52,20.52,0,0,1,2.31,4.11A14.28,14.28,0,0,1,678.61,202c-4.53,6.65-15.19,6.18-22.13,4.92-3.78-.69-5.4,5.09-1.6,5.78Z"/><path d="M724.88,127.86c-1.1,4.74-2.57,8.35-4.37,10.85l-2-1.75a25.79,25.79,0,0,0,4.08-10Zm.12,15-.55-2.37c1.15.09,2.21.17,3.22.17a1.27,1.27,0,0,0,1.4-1.09,1.22,1.22,0,0,0,0-.33v-17.9h2.37V139.9c0,2-1,3-2.9,3Zm16.06-5.49L739,138.83q-1.5-5-4-11.18l2.09-1.3c1.7,4.22,3,7.89,4,11.08Z"/><path d="M751.91,140.66h-2.16v-1.52H747v2.1h-2.18V122.68h7.13Zm-2.16-10.88v-5H747v5Zm0,7.27v-5.2H747v5.2Zm10.75-15.88v2.25H766v2.09H760.5v2.26h4.58v2.11H753.61v-2.11h4.68v-2.26h-5.62v-2.09h5.62v-2.25Zm.5,11.18v-1.67h2.21v1.67H766v2.14h-2.78v6c0,1.7-.82,2.58-2.4,2.58h-2.93l-.48-2.17c.91.09,1.8.17,2.64.17.63,0,1-.39,1-1.13v-5.4h-7.85V132.4Zm-2.81,6.36-1.8,1.25a29.33,29.33,0,0,0-2.93-3.75l1.78-1.1A30.68,30.68,0,0,1,758.19,138.71Z"/><path d="M156.71,93.29c-3.9,12-7.73,24.13-11.61,36.19q-2.73,8.46-5.51,16.94c-1.58,4.78-4,9.89-4.87,14.86-1.72,10.38,16.15,11.61,22.87,9,10.88-4.17,10.24-19.12,11.88-28.77.63-3.78-5.15-5.4-5.79-1.61-.85,5-1.69,10.06-2.55,15.09s-2.32,9.5-8.22,10.28a20.24,20.24,0,0,1-9.62-1.25c-2.65-1.06-2.82-1.53-1.92-4.2,1.24-3.7,2.51-7.39,3.74-11.1,5.92-17.91,11.55-35.91,17.35-53.85,1.19-3.68-4.6-5.26-5.78-1.59Z"/><path d="M191.83,89.86a10.71,10.71,0,0,1,7.27,3l-.81-2.93a91.38,91.38,0,0,1-7,21.56l3.39-1.38-9.31-2.29c-3.75-.91-5.35,4.87-1.6,5.79l9.32,2.28a3,3,0,0,0,3.38-1.38,100.75,100.75,0,0,0,4.43-10.75c1.21-3.55,3.19-8.44,3.2-12.23,0-5.49-7.89-7.49-12.29-7.66-3.87-.16-3.86,5.84,0,6Z"/><path d="M63.1,114.32c19.15-6.44,39-12.11,59.41-11.74s39.86,7.39,58,16.54a3.05,3.05,0,0,0,4.16-1.19,2.63,2.63,0,0,0,.25-.6,93.52,93.52,0,0,0,7.37-36.57,3,3,0,0,0-2.2-2.88c-19.5-6-37.49-15.23-52.57-29.13S110.29,18,98,1.7C96.75.07,93.89-.54,92.8,1.7,76,36.1,62.76,73.08,59.29,111.43c-.34,3.84,5.66,3.82,6,0C68.65,74.24,81.66,38.1,98,4.73H92.8c12.85,17,25.46,34.71,41.35,49.09C149.82,68,168.37,77.43,188.47,83.65l-2.18-2.89a89.15,89.15,0,0,1-7.12,35l4.41-1.8C164.89,104.54,145.06,97.3,124,96.63c-21.38-.67-42.34,5.18-62.41,11.93-3.64,1.22-2.08,7,1.59,5.78Z"/><path d="M162.29,70.44a110.11,110.11,0,0,0-9,33.64,32,32,0,0,1,11.13,3.16.83.83,0,0,0,.65.12c.25-.1.33-.42.38-.68l5.19-29.83a1.61,1.61,0,0,0-.1-1.2c-.32-.44-1-.44-1.5-.44a8.86,8.86,0,0,1-6-2.47"/><path d="M159.72,68.93a120.2,120.2,0,0,0-9.43,35.15c-.2,1.74,1.54,2.82,3,3,4,.49,7.19,2.46,11,3.17a3.1,3.1,0,0,0,3.39-1.37c1.94-3.49,1.95-8.69,2.63-12.59l2.27-13c.43-2.48,2-6.62.57-9.1-1.62-2.73-5.72-1.62-8-3.52-3-2.45-7.22,1.78-4.25,4.25A14.67,14.67,0,0,0,165,77.48c1.1.41,3.15.3,4,.81l-1.48-2.59C168,80.51,166,86.28,165.15,91l-1.3,7.46c-.36,2.11-.33,5.54-1.37,7.42l3.39-1.38c-4.28-.79-8.14-2.85-12.58-3.38l3,3A110.48,110.48,0,0,1,164.9,72c1.54-3.5-3.63-6.56-5.18-3Z"/><path d="M171,114.31,170.2,121c-.2,1.61,1.52,3,3,3a3.09,3.09,0,0,0,3-3l.81-6.65c.19-1.62-1.52-3-3-3A3.09,3.09,0,0,0,171,114.31Z"/><path d="M91.87,9.69c8.19,19.36,7.28,41.05,1.42,60.93C90.56,80,86.94,89.44,81.77,97.72c-3.43,5.49-10.4,13.81-18,11.17-3.58-1.27-5.15,4.54-1.48,5.79,7.23,2.56,15.18-2.25,19.85-7.44,7.5-8.31,11.91-19.7,15.43-30.17,7.72-22.83,9-47.83-.52-70.41-1.5-3.55-6.67-.49-5.18,3Z"/><path d="M100.75,51.24c-2.44-3-7-3.48-10.37-1.91-4.41,2-6.67,7-7.41,11.59s.86,9.36,5.21,11.48A8.35,8.35,0,0,0,99,69.4c2-3.3-3.15-6.31-5.18-3-1.1,1.77-3.47.67-4.35-.64-1.37-2-.54-4.92.3-7,1-2.38,4.23-6.39,6.75-3.28S103.16,54.24,100.75,51.24Z"/></g></svg>