<svg id="圖層_1" data-name="圖層 1" xmlns="http://www.w3.org/2000/svg" viewBox="0 0 821 473"><defs><style>.cls-1{fill:#d1ccc7;}.cls-2{fill:#f3eee8;}.cls-3{fill:none;}</style></defs><title>ㄢ323-clock-1</title><g id="圖層_1-2" data-name="圖層 1"><path d="M730.2,58.45c1.1-2,3-3.54,4.47-5.28.92-1.12,3-5,4.24-5.33,2.68-.79,10.28,4.86,12.71,6.51,5.26,3.57,6.94,4.86,3.72,10.6-1,1.73-2,6.27-4.13,6.56-1.11.15-4.4-1.86-5.67-2.25-5.59-1.72-11-5.53-13.54-10.17"/><path d="M732.78,60c1.42-2.15,3.42-3.81,4.93-5.9.56-.78,1.09-2.31,1.87-2.8.4-.25.08-.18,1.19-.09,3.22.28,8,4.72,10.57,6.62,2.93,2.14,2.61,2.87,1.22,6-.67,1.51-1.15,4.16-2.62,4.18s-6.08-2.51-7.37-3.18a19.8,19.8,0,0,1-8-7.24c-2-3.29-7.21-.28-5.18,3a25.93,25.93,0,0,0,10.87,9.75c2.85,1.38,7.65,4.29,10.93,4.15,3.52-.16,4.86-3.83,6.06-6.53,1.38-3.1,3.59-6.42,2.29-9.94-1.15-3.09-4.41-4.89-7-6.66-3-2.09-6.07-4.37-9.51-5.74-2.87-1.14-5.28-1.2-7.52,1.11a46.94,46.94,0,0,0-3,4.28c-1.58,2.05-3.49,3.72-4.93,5.9-2.14,3.23,3.06,6.24,5.18,3Z"/><path class="cls-1" d="M358.07,432.37c-21.76-7.28-104.3,11.09-85.74,28.4,6,5.57,26.73,5.87,35.53,6.61,19.66,1.65,40.05,2.38,59.86,2.22,39.3-.3,82-.09,120.32-6.49,17.62-2.94,64.77-22,40.56-35.94-29.7-17.09-83.6-6.29-118-4.18-13.72.85-48.12-.48-55.4,8.75"/><path class="cls-1" d="M358.87,429.48c-13.18-4.19-29.28-1.29-42.53,1.1-14.26,2.58-30.89,6.05-42.89,14.74-3.41,2.47-6.95,6-6.81,10.54.2,6.11,6.32,9.49,11.47,11,9,2.64,18.72,2.71,28,3.38,14.73,1,29.44,2,44.21,2.26,30.6.55,61.43.24,92-1.54,22.69-1.33,46.22-2.7,67.5-11.35,9.16-3.72,32.78-13.23,27.95-27-2.52-7.22-12.06-10.65-18.59-12.86-10.28-3.47-21.31-4.63-32.1-5-26.23-.8-52,4.06-78.15,5.31-10.34.49-20.69.34-31,1.36-8,.8-19.26,1.58-24.93,8.18-2.51,2.91,1.72,7.18,4.24,4.24,4.54-5.27,14.29-5.78,20.69-6.42,8.74-.86,17.54-1,26.32-1.2,19.13-.53,38.11-3.54,57.19-4.83,20-1.35,42.53-2.36,61.27,6.12,4.83,2.19,12.47,5.91,8.16,12-3.84,5.45-11,8.9-16.8,11.7-17.44,8.35-35.91,10.79-55,12.5-26.73,2.39-53.59,2.6-80.4,2.78-25.66.18-51-.91-76.64-2.53-4.21-.27-36.37-1.49-27.85-11.44,3.81-4.45,10.56-6.88,15.87-8.85a161.46,161.46,0,0,1,23.73-6.5,170,170,0,0,1,24.72-3.27c6.2-.33,12.83-.54,18.82,1.36,3.69,1.18,5.27-4.61,1.6-5.78Z"/><path class="cls-1" d="M375.51,385.36a25.13,25.13,0,0,0-.05,3.78c.25,1.4.92,2.33,1,3.78.2,2.94,0,6,0,8.91v10.95c0,2,.8,5.39-.67,6.89-.76.77-2.12,1-3.07,1.54-1.76,1-3.13,2.75-5,3.67-3.23,1.6-7.09,2.12-10.19,4.13-2,1.32-4.85,5.69-1,6.52a22.72,22.72,0,0,0,7.54-.28c2.78-.5,5.76-1.55,8.55-1.7,2.18-.12,4.42,0,6.6,0a20.66,20.66,0,0,0,4.78-.21c1.08-.24,3.93-.65,4.6-1.56,1.08-1.45.1-7.76.1-9.6,0-6.21.94-11.9.94-18.14v-9.48a26.16,26.16,0,0,1,.21-4.68c.35-1.87,1.27-3.41.64-5.39-2-.58-4.88-.1-7-.1-1.86,0-4.23-.35-6,.16l-.16.79"/><path d="M372.51,385.36c-.17,3.61,1,6.67,1,10.23.11,4.5-.1,9-.1,13.54,0,2.95,1.06,7.06-1.2,9a32.42,32.42,0,0,1-9.71,5.5c-4.43,1.6-10.32,3.7-10.83,9.26-.54,6,6.43,6.07,10.63,5.6s7.88-1.85,12-2c3.52-.13,7,.37,10.52-.25,5-.88,7.34-2.75,7.31-7.93,0-6.9.11-13.65.44-20.58.21-4.38.08-8.77.1-13.16,0-3.73,1.3-7.17.74-10.87a2.88,2.88,0,0,0-2.09-2.09,45.65,45.65,0,0,0-14.57.06,2.94,2.94,0,0,0-2.1,2.1l-.16.78c-.78,3.77,5,5.38,5.78,1.6l.17-.79-2.1,2.1a40.55,40.55,0,0,1,11.38-.07l-2.09-2.09c.4,2.69-1,6.43-1,9.27V405c-.12,6.25-1.22,12.52-.84,18.78.07,1.16,1,4.93.36,5.84-.9,1.36-5.35,1-6.93,1a55.22,55.22,0,0,0-9.09.27c-3.08.49-6,1.55-9.15,1.81a22.2,22.2,0,0,1-3.65,0c0,.35,3.25-1.92,3.06-1.81,2.52-1.38,5.51-1.8,8.1-3.05s4.72-3.18,7.13-4.6c1.67-1,2.86-1.69,3.57-3.6s.32-4.2.24-6.25c-.12-3.21,0-6.45,0-9.67,0-3.55.39-7.21,0-10.74-.29-2.69-1.1-4.8-1-7.56.18-3.86-5.82-3.85-6,0Z"/><path class="cls-1" d="M430.34,385.36a23.85,23.85,0,0,0,0,3.78c.24,1.4.91,2.33,1,3.78.2,2.94,0,6,0,8.91v10.95c0,2,.8,5.39-.67,6.89-.75.77-2.12,1-3.07,1.54-1.76,1-3.13,2.75-5,3.67-3.23,1.6-7.08,2.12-10.18,4.13-2,1.32-4.85,5.69-1,6.52a22.66,22.66,0,0,0,7.53-.28c2.78-.5,5.76-1.55,8.56-1.7,2.17-.12,4.42,0,6.59,0a20.13,20.13,0,0,0,4.78-.21c1.09-.24,3.93-.65,4.61-1.56,1.07-1.45.09-7.76.09-9.6,0-6.21.94-11.9.94-18.14v-9.48a25.27,25.27,0,0,1,.22-4.68c.34-1.87,1.26-3.41.63-5.39-2-.58-4.88-.1-7-.1-1.86,0-4.22-.35-6,.16l-.17.79"/><path d="M427.34,385.36c-.17,3.61,1,6.67,1.05,10.23.11,4.5-.1,9-.1,13.54,0,2.95,1.06,7.06-1.2,9a32.37,32.37,0,0,1-9.7,5.5c-4.43,1.6-10.33,3.7-10.83,9.26-.55,6,6.42,6.07,10.62,5.6s7.88-1.85,12-2c3.52-.13,7,.37,10.53-.25,5-.88,7.34-2.75,7.3-7.93,0-6.9.12-13.65.45-20.58.21-4.38.08-8.77.09-13.16,0-3.73,1.31-7.17.75-10.87a2.89,2.89,0,0,0-2.1-2.09,45.65,45.65,0,0,0-14.57.06,2.94,2.94,0,0,0-2.1,2.1l-.16.78c-.77,3.77,5,5.38,5.79,1.6l.16-.79-2.1,2.1a40.62,40.62,0,0,1,11.39-.07l-2.1-2.09c.41,2.69-.95,6.43-1,9.27,0,3.47.05,6.94,0,10.41-.11,6.25-1.21,12.52-.84,18.78.07,1.16,1,4.93.37,5.84-.9,1.36-5.36,1-6.94,1a55.22,55.22,0,0,0-9.09.27c-3.08.49-6,1.55-9.14,1.81a22.32,22.32,0,0,1-3.66,0c0,.35,3.25-1.92,3.06-1.81,2.53-1.38,5.51-1.8,8.11-3.05s4.71-3.18,7.12-4.6c1.67-1,2.86-1.69,3.57-3.6s.32-4.2.25-6.25c-.12-3.21,0-6.45,0-9.67,0-3.55.4-7.21,0-10.74-.28-2.69-1.1-4.8-1-7.56.18-3.86-5.82-3.85-6,0Z"/><path class="cls-2" d="M408.54,394.58c-5.9,0-11.13,3.82-17,3.88-7.1.07-12.88-2.19-19.91-2-7.75.17-16.4-1.79-23.88-3.84-9-2.47-18.28-4.61-27.4-6.59-5.36-1.17-9.2-4.4-13.85-7.12-5.3-3.1-11.08-5.61-16.59-8.31-8.7-4.28-14.65-7.24-21.74-14.19-5.44-5.34-10.52-11-16.38-15.92-4.14-3.48-8.71-6.36-12.23-10.54-8-9.46-15.11-21.95-21.12-32.78-4.13-7.44-7.55-19.3-8.36-27.74-.47-4.89-2.11-9.16-2.2-14.12a64,64,0,0,0-1.62-13c-2.2-10.84-1.25-24.62-.69-35.61s4.73-22.92,7.85-33.39a298.17,298.17,0,0,1,17.14-44.2c5.34-11,8.59-22.57,14.48-33.52,7-12.93,16.21-20.91,26.62-30.83a67.45,67.45,0,0,1,15.12-11.09c5.25-2.83,9.06-7.26,14-10.61,9.38-6.39,19.49-12.82,29.86-17.3,8.74-3.78,17.56-6.33,26.52-9.46,9.88-3.46,20.1-3.46,30.31-5.27,17.15-2.95,35.73-2.19,53.31-1.86,15.65.27,30.44,5.52,45.38,9.3,14.74,3.73,30.33,7.21,44.34,13.29A44.42,44.42,0,0,1,545,42.49c5.73,6.07,12,12,17.52,18.18C569.14,68,574.68,77,580.78,84.84c11.73,15.26,19.4,35.23,23.75,54.09,2,8.56,6.22,17.79,6.89,26.49.9,11.83,2.08,23.21,2.16,35.2.13,20.16-7.12,41.88-14.44,60.67-2.78,7.13-4.75,14.8-8.29,21.66-2.62,5.06-6.13,9.19-8.32,14.47-4.57,11-13.72,23.48-22.44,31.5-9,8.33-17.21,16.62-27.39,23.94-7.9,5.68-17.17,8.93-25.6,13.74C497,372.41,486.76,377.8,475.79,382a130.17,130.17,0,0,1-16.43,4.87c-4.57,1.07-9.17.2-13.57,1.19-7.13,1.61-14.72,2.17-21.84,4a74.55,74.55,0,0,1-13.12,2.09c-4.51.41-7.76,3.9-12.07,4.34"/><path d="M408.54,391.58c-4.37.26-8.2,1.82-12.36,3-5.45,1.58-10.79.34-16.27-.48-4.47-.67-8.9-.51-13.39-.86a93.23,93.23,0,0,1-16.38-3.13c-10.07-2.64-20.68-4.31-30.59-7.44-4.51-1.43-8.3-4.54-12.37-6.87-4.84-2.76-9.95-5-15-7.45-8.59-4.18-16.37-8.58-23.21-15.36A281.84,281.84,0,0,0,247.5,333.3c-7.66-6.17-13-14.71-18.09-23s-10.15-16.64-13.09-25.91a83.86,83.86,0,0,1-3.08-13c-.78-5.34-2.05-10.71-2.43-16.09-.67-9.44-2.87-18.62-3-28.12-.13-10.32,0-21.14,2.24-31.25,2.24-10.29,5.58-20.47,8.9-30.45,6.51-19.63,15.59-38.35,23.48-57.44A88.85,88.85,0,0,1,259.1,81.15c6.44-7,13.52-14.27,21.2-19.88,3.41-2.5,7.24-4.29,10.71-6.67,4-2.71,7.33-6.16,11.24-8.93a174.88,174.88,0,0,1,27.41-16.2,211.61,211.61,0,0,1,31.75-11.34c9.78-2.7,20.33-3.34,30.38-4.74,10.75-1.55,21.61-1.64,32.4-1.55,11.17.11,22.31,0,33.29,2.31,10.55,2.17,20.84,5.43,31.28,8,9.83,2.46,19.69,4.83,29.31,8,5,1.65,10.07,3.35,14.6,6,4.68,2.71,8.36,6.46,12.07,10.32,7.5,7.79,15.36,15.2,21.87,23.89,12.28,16.48,23.53,32.64,30.17,52.23C600,132,602,141.74,605,151.23c3.2,10.13,3.93,20.25,4.7,30.79.75,10.25,1.37,20.59.09,30.83-1.35,10.83-4.32,21.44-7.79,31.76-3.3,9.83-7,19.61-10.56,29.33-3.41,9.15-9.1,17.41-13.46,26.13-9,18.1-24.76,32.26-40.14,45-8.09,6.7-16.89,11.11-26.23,15.74-9.18,4.55-17.87,10-27.19,14.27-9.48,4.36-20.48,9-31.05,9.33-10,.33-20.44,2.43-30.21,4.72-4.37,1-8.71,1.38-13.11,2.09s-7.79,3.57-12.08,4.33c-3.8.68-2.19,6.47,1.59,5.79,4.62-.83,8.28-3.83,13-4.39,5.38-.63,10.51-1.76,15.8-2.86s10.39-1.64,15.55-2.64c5.41-1,10.89-.64,16.27-1.75,21.53-4.45,39.61-16.55,59.09-26a113.74,113.74,0,0,0,25.59-16.78c8.22-7.1,16.71-14.51,23.86-22.69a97.93,97.93,0,0,0,15.78-24c4.24-9.39,10.19-17.49,13.64-27.3,7.24-20.59,15.81-40.85,18-62.8,1.09-11.19.09-22.52-.81-33.69-.4-5-.57-10.19-1.41-15.19a113.38,113.38,0,0,0-4.14-15c-3.16-10-5.22-20.29-8.9-30.17a133,133,0,0,0-13.67-27.36c-12-18.1-25.89-34.19-41.22-49.56C531.22,24.39,508.1,20.91,488.65,16c-10.76-2.72-21.37-6.17-32.3-8.17s-22-1.89-33.09-2a219.33,219.33,0,0,0-33,1.72c-10.65,1.54-21.84,2.13-32.15,5.28C336.58,19.4,316.17,28,298,41.41c-3.84,2.83-7.19,6.32-11.25,8.86s-8.08,4.7-11.81,7.65a170.51,170.51,0,0,0-21.58,20.73,92.49,92.49,0,0,0-15.76,25.73c-4.44,10.52-8.8,21-13.45,31.42a308.55,308.55,0,0,0-11.46,29.79c-3.52,10.83-7.34,21.93-9.19,33.19-1.62,9.81-1.82,20.21-1.56,30.14a92,92,0,0,0,1.45,14.15c1,5.41,1.1,10.8,1.88,16.22,1.39,9.7,2.88,19.73,6.11,29,3.1,8.89,8.06,17,12.94,25,5.31,8.7,11,17.76,19,24.23s15.23,13.7,22.73,20.93c6.81,6.56,14.73,11,23.18,15.06,5,2.43,10.11,4.69,15,7.45,4.09,2.34,7.87,5.3,12.32,7,5,1.87,10.64,2.58,15.87,3.82,5.7,1.35,11.35,2.88,17,4.35a108.26,108.26,0,0,0,13.68,2.75c5.9.76,11.78.49,17.68,1.42,4.34.68,8.77,1.54,13.17.94,5-.69,9.53-3.37,14.64-3.67,3.84-.22,3.86-6.23,0-6Z"/><path class="cls-2" d="M409.21,388.84c-5.61,0-11.22,0-16.84.06-6.75.07-12.25-2.08-18.93-1.93-7.38.17-15.61-1.7-22.72-3.65-8.6-2.35-17.38-4.39-26.06-6.27-5.1-1.11-8.75-4.18-13.18-6.77-5-3-10.53-5.33-15.77-7.91-8.28-4.07-13.93-6.88-20.68-13.49-5.18-5.08-10-10.46-15.58-15.15-3.93-3.31-8.29-6.05-11.63-10-7.59-9-14.37-20.88-20.09-31.18-3.93-7.07-7.18-18.36-7.95-26.39-.45-4.64-2-8.71-2.1-13.42a61.56,61.56,0,0,0-1.53-12.38c-2.1-10.31-1.2-23.42-.66-33.87s4.5-21.8,7.47-31.76a283.47,283.47,0,0,1,16.29-42c5.09-10.47,8.17-21.48,13.78-31.89,6.61-12.3,15.42-19.89,25.32-29.32A63.51,63.51,0,0,1,292.78,61c5-2.69,8.62-6.91,13.29-10.1,8.92-6.08,18.53-12.19,28.4-16.45,8.31-3.6,16.7-6,25.22-9,9.4-3.28,19.12-3.35,28.83-5,16.32-2.8,34-2.07,50.68-1.77,14.89.26,29,5.25,43.17,8.85,14,3.55,28.85,6.86,42.17,12.64a42.11,42.11,0,0,1,13.81,10.2c5.43,5.77,11.43,11.39,16.68,17.29,6.29,7,11.56,15.49,17.31,23,11.16,14.51,18.46,33.5,22.6,51.45,1.88,8.13,5.92,16.91,6.55,25.19.86,11.25,2,22.07,2,33.48.13,19.18-6.77,39.83-13.73,57.7-2.64,6.78-4.52,14.08-7.89,20.61-2.49,4.81-5.83,8.74-7.91,13.76-4.34,10.48-13.05,22.33-21.34,30-8.61,7.93-16.37,15.81-26,22.77-7.51,5.41-16.33,8.49-24.35,13.07a209.28,209.28,0,0,1-29.74,14.55,123.6,123.6,0,0,1-15.57,4.6c-4.35,1-8.72.19-12.91,1.14-6.78,1.53-14,2.06-20.77,3.82a70.76,70.76,0,0,1-12.45,2c-4.29.39-7.38,3.7-11.49,4.12"/><path d="M409.21,385.84h-15c-5.16,0-10-.92-15.15-1.56-4.2-.52-8.43-.21-12.64-.72a120.4,120.4,0,0,1-16.78-3.67q-6.93-1.84-13.95-3.47c-5.24-1.22-10.91-1.85-15.68-4.43-4-2.15-7.65-4.79-11.68-6.86s-8.46-4.06-12.66-6.14a77.72,77.72,0,0,1-21.75-15.48c-3.39-3.44-6.72-6.93-10.32-10.15s-7.78-6-11.33-9.32c-6.67-6.36-11.57-15-16.21-22.89s-8.9-15.7-11.29-24.65a149.26,149.26,0,0,1-4.26-27.08c-.66-8.77-2.75-17.12-2.71-26,0-9.89.36-19.95,2.7-29.59,2.29-9.48,5.3-18.89,8.43-28.12A279.78,279.78,0,0,1,241,135.83c4.17-8.82,7.34-18,11.33-26.92a81.86,81.86,0,0,1,15.83-23.49c6.26-6.51,12.94-13.48,20.45-18.52,3.33-2.24,7-3.94,10.15-6.39,4-3,7.62-6.33,11.79-9.12,8.53-5.69,17.33-11.09,26.83-15s20-7.91,30.18-10a288.54,288.54,0,0,1,30.12-4.2,267.74,267.74,0,0,1,30.24-.77c10.68.18,20.95.61,31.4,3.07,9.82,2.32,19.5,5.21,29.29,7.66a275.11,275.11,0,0,1,28.32,8.18c4.52,1.65,9,3.45,12.87,6.31,4.06,3,7.37,6.87,10.89,10.45,7.33,7.47,14.44,14.84,20.57,23.36C566.61,87.87,572.4,95.09,577,103a134,134,0,0,1,11.33,26.25c2.75,8.62,4.78,17.45,7.45,26.11,3.06,9.87,3.47,20.12,4.16,30.38.67,10.06,1,20.09-.61,30.08a173.22,173.22,0,0,1-7.76,29.21c-3.13,9-6.33,18.09-9.79,27a66.79,66.79,0,0,1-6.13,11.62q-3.36,5.74-6.14,11.78c-8.55,17-23.28,30.28-37.72,42.3-7.69,6.4-16,10.65-24.9,15.06-8.68,4.29-16.91,9.42-25.7,13.5-9.49,4.4-20.22,8.8-30.8,9.12-9.23.29-19,2.38-28,4.48-4.57,1.06-9.35,1.1-13.87,2.21-3.55.88-6.46,3.25-10.09,3.9-3.8.67-2.19,6.46,1.59,5.78,4-.72,7.3-3.36,11.32-4,5.11-.86,10.13-1.56,15.21-2.67,4.89-1.07,9.87-1.62,14.78-2.53,5.43-1,11-.73,16.34-1.83,20.69-4.24,38.17-15.95,56.88-25a107.35,107.35,0,0,0,24.26-16.14c7.74-6.73,15.75-13.71,22.48-21.47A93.51,93.51,0,0,0,576,295.71c3.81-8.42,9.27-15.69,12.45-24.45,6.89-19,14.73-38,17.28-58.15,1.38-10.92.64-21.91-.21-32.85-.78-10-1.7-19.33-4.76-29-5.92-18.63-9.87-37.21-20.29-54.09C569.63,79.59,556,64.38,541.78,49.57a56.27,56.27,0,0,0-21.5-14.36C510,31.27,499.18,28.62,488.47,26c-10.09-2.52-20.05-5.62-30.21-7.83-10.37-2.28-20.67-2.52-31.24-2.69-11-.17-22.06-.14-33,1.2-9.85,1.21-20.14,2.09-29.8,4.4A177.83,177.83,0,0,0,306.06,47.3c-3.85,2.62-7.22,5.76-10.92,8.55-4,3-8.67,5.17-12.71,8.25A162.26,162.26,0,0,0,262.34,83c-14,15.16-19.63,34.93-28.07,53.31-8.66,18.84-16.17,39.27-20.34,59.63-2,9.54-2.18,19.63-2.1,29.35s2.24,18.84,2.9,28.37c.33,4.69,1.58,9.26,2.2,13.92a85.83,85.83,0,0,0,2.74,13c2.54,8.53,6.76,16.09,11.24,23.72,4.9,8.33,10.11,17.37,17.15,24.11,3.32,3.17,7.2,5.7,10.65,8.72,4.08,3.58,7.81,7.54,11.64,11.4a79,79,0,0,0,21.59,15.41c4.44,2.21,9,4.24,13.39,6.5s8.58,5.39,13.12,7.62c4,2,8.52,2.64,12.87,3.63,5.92,1.35,11.82,2.79,17.68,4.37a128.38,128.38,0,0,0,14.86,3.29c5.24.77,10.5.42,15.72,1.14,10,1.37,19.56,1.47,29.63,1.44,3.86,0,3.87-6,0-6Z"/><circle cx="434.17" cy="196.66" r="4.74"/><path d="M432.6,186.48c6.16-.76,15-.24,15.65,7.84.57,7.66-6.9,11.63-13.6,11-2.42-.22-5.44-.31-7.6-1.4-2.77-1.4-3.4-4.66-3.2-7.55.35-5.12,4.35-8.86,9.15-10,1.88-.43,1.08-3.33-.8-2.89a14.16,14.16,0,0,0-11.24,15c.42,8.38,8.4,10.23,15.83,10,7.83-.24,14.88-5.94,14.46-14.19-.5-9.88-10.7-11.83-18.65-10.84C430.71,183.72,430.68,186.72,432.6,186.48Z"/><path d="M385.33,186.48c6.16-.76,15.05-.24,15.65,7.84.57,7.66-6.9,11.63-13.6,11-2.42-.22-5.44-.31-7.6-1.4-2.77-1.4-3.4-4.66-3.2-7.55.35-5.12,4.35-8.86,9.15-10,1.88-.43,1.08-3.33-.8-2.89a14.16,14.16,0,0,0-11.24,15c.42,8.38,8.4,10.23,15.83,10,7.83-.24,14.88-5.94,14.46-14.19-.5-9.88-10.7-11.83-18.65-10.84C383.44,183.72,383.41,186.72,385.33,186.48Z"/><circle cx="385.96" cy="196.66" r="4.74"/><path d="M430.08,167.73c-1.32,0-2.78-.13-3.81.87a3.36,3.36,0,0,0-.63,3.82c1.13,2,4.4,1.77,6.31,1.37,2.31-.48,5.53-3.06,3.22-5.48-1.59-1.67-5.71-2.08-7.33-.26-1.19,1.34,0,3,1.34,3.67a3.76,3.76,0,0,0,4.26-.65,1.5,1.5,0,0,0,0-2.13,1.55,1.55,0,0,0-.63-.37l-.41-.16c-1.82-.68-2.6,2.22-.8,2.89l.41.16-.66-2.51c-.18.18-.39.14-.64.12a.85.85,0,0,1-.34-.11c-.2-.11,0,.3-.06-.16l-.39,1.45c.57-.69,2-.18,2.76-.11.52,0,0,.42.3-.09.08-.13-.26.21-.31.23a4.92,4.92,0,0,1-1.52.62c-.93.15-1.88-.08-2.77,0-.54,0-.09-.25-.12,0s.19-.12.07-.11c.59,0,1.17-.06,1.78-.06a1.5,1.5,0,0,0,0-3Z"/><path d="M395.1,167.73c-1.32,0-2.78-.13-3.81.87a3.36,3.36,0,0,0-.63,3.82c1.13,2,4.4,1.77,6.31,1.37,2.31-.48,5.53-3.06,3.22-5.48-1.59-1.67-5.71-2.08-7.33-.26-1.19,1.34,0,3,1.35,3.67a3.74,3.74,0,0,0,4.25-.65,1.5,1.5,0,0,0,0-2.13,1.55,1.55,0,0,0-.63-.37l-.41-.16c-1.82-.68-2.6,2.22-.8,2.89l.41.16-.66-2.51c-.18.18-.39.14-.64.12a.85.85,0,0,1-.34-.11c-.2-.11,0,.3-.06-.16l-.39,1.45c.57-.69,2-.18,2.76-.11.52,0,0,.42.3-.09.08-.13-.26.21-.31.23a4.92,4.92,0,0,1-1.52.62c-.93.15-1.88-.08-2.77,0-.54,0-.09-.25-.12,0s.19-.12.07-.11c.59,0,1.17-.06,1.78-.06a1.5,1.5,0,0,0,0-3Z"/><path d="M616.78,204.23c.5-10.91.53-20.82-1.47-31.59-1.87-10-2.63-20.16-4.85-30.12a138,138,0,0,0-9.37-28.33,328.59,328.59,0,0,0-15.87-29c-5.57-9.34-12.58-17.76-19.11-26.43-12.58-16.7-33.85-23.2-52.64-30.45-10.4-4-20.56-8.71-31.14-12.25-10.27-3.44-20.83-4.85-31.55-6.34-11.45-1.6-23-2.94-34.63-2.83-10.68.1-21.86-.58-32.45,1a197.86,197.86,0,0,0-61.85,19.62c-4.42,2.28-8.38,5.22-12.7,7.65-4.58,2.57-9.61,4.17-14.16,6.83A170.37,170.37,0,0,0,271.28,59.4C255,73.33,246.63,93.15,235.58,111c-11.43,18.51-21.94,38.83-28.87,59.5-3.12,9.31-4.59,19.33-5.79,29-1.31,10.57-.44,21.12-.84,31.72-.18,4.65.51,9.3.54,14a88.56,88.56,0,0,0,1.17,14c1.57,9.4,5.09,18,8.86,26.69,4,9.21,8.26,19.33,14.78,27.09,3.35,4,7.34,7.41,10.74,11.36,3.83,4.44,7.24,9.2,10.86,13.81,5.71,7.27,12.41,12.72,20.09,17.78,4.21,2.77,8.52,5.38,12.67,8.23,4.58,3.14,8.6,7.19,13.38,10,4.34,2.58,9.43,3.88,14.15,5.62,5.52,2,11,4.16,16.44,6.37a129.62,129.62,0,0,0,13.78,4.89c5,1.4,10.16,1.73,15.19,2.94,4.87,1.18,9.51,2.89,14.5,3.59,5.84.82,31-2.17,36.29-2.67s10.83-.42,16.25-.76c5.7-.35,11.32.68,17,.23,22-1.75,41.42-11.56,61.94-18.48a115,115,0,0,0,28.22-14.09c8.6-5.81,17.49-11.8,25.26-18.69A98.83,98.83,0,0,0,571.1,321c5.2-8.5,12-15.57,16.48-24.57,9.62-19.12,20.37-37.89,25.48-58.86C615.72,226.71,616.27,215.41,616.78,204.23Zm-21.46,29.7c-4.49,18.95-14.14,35.69-22.69,53a76.74,76.74,0,0,1-6.85,11.81c-2.71,3.68-5.83,7-8.24,10.88a94.36,94.36,0,0,1-16.8,20.3c-6.81,6.25-14.68,11.53-22.27,16.77a103.75,103.75,0,0,1-25.55,13.41c-19.08,6.56-37.38,15.51-57.74,17.47-5.27.5-10.46-.51-15.74-.16-4.78.32-9.58.24-14.35.64s-15.85,4.74-18.15,4.46c-5.33-.64-10.69-1.2-16-1.94-4.53-.62-8.76-2.17-13.19-3.24-5.07-1.22-10.22-1.62-15.25-3.11a129.69,129.69,0,0,1-12.91-4.76c-5.4-2.18-10.84-4.23-16.3-6.21-4.07-1.47-8.12-2.7-11.71-5.18s-7-5.71-10.8-8.27-7.91-5.09-11.84-7.68a73.06,73.06,0,0,1-17.74-15.9c-3.39-4.32-6.59-8.79-10.21-12.93-3.07-3.53-6.69-6.58-9.65-10.2-5.9-7.22-9.78-16.44-13.45-24.93-3.36-7.79-6.46-15.46-7.86-23.87A79.61,79.61,0,0,1,219,241.57c0-4.19-.65-8.4-.5-12.59.34-9.14-.43-18.3.58-27.42,1-8.75,2.28-17.86,4.88-26.29,2.84-9.23,7.14-18.11,11.19-26.87a283.64,283.64,0,0,1,14.16-26.69c5.39-9,10.56-18,15.78-27a84.89,84.89,0,0,1,17.18-21.6A158.86,158.86,0,0,1,304,56.84c3.82-2.36,7.82-3.88,11.82-5.78,4.33-2,8.1-5.13,12.33-7.38,17.85-9.53,36.57-15,56.43-18.39,9.9-1.7,20.41-1,30.41-1.12a209.81,209.81,0,0,1,30.36,2.32c9.81,1.34,19.63,2.52,29.08,5.55,10,3.21,19.57,7.68,29.36,11.46,16.93,6.54,36.67,12.4,48.09,27.4,6.08,8,12.54,15.82,17.72,24.42,4.79,8,9.46,16.27,13.6,24.59a119.73,119.73,0,0,1,9,25.57c2.22,9.17,2.93,18.48,4.59,27.73.93,5.24,2.12,10.46,2.27,15.8.13,4.61-.27,9.26-.47,13.86C598.14,213.25,597.72,223.84,595.32,233.93Z"/><path d="M668.4,171c1.41-2.42,2.84-4.82,4.26-7.23,1-1.74,2.85-6.6,4.45-7.76,1.15-.84-.85-.62.57-.35.63.12,1.64,1.09,2.25,1.43,2.17,1.2,4.48,2.08,6.36,3.74l-.77-2.92c-2,5.58-6.41,10.92-9.37,16.07-2.74,4.77-6.43,8.63-9.08,13.56a129.19,129.19,0,0,1-9.69,15c-3.1,4.26-4.73,10.49-8.45,14.17h4.24c-1.15-.92-1-3.47-1.69-4.79-1-1.88-3-3.18-4.67-4.47l.77,2.92c1.77-5.07,5.75-10,9-14.21.68-.9,4.7-6.88,1.2-5.3-1.58.72-3.64,5.82-4.39,7-1.76,2.85,2.44,6.24,4.71,3.64,2.53-2.89,5.34-5.44,7.43-8.69l-5.18-3c-2.21,3.78-4.39,7.59-6.63,11.36-1.79,3-4.37,5.47-6.06,8.5-1.88,3.37,3.22,6.36,5.18,3,2.72-4.63,6-8.9,8.94-13.35,1.89-2.8-2.46-6.19-4.71-3.63a99.32,99.32,0,0,0-9.88,12.86l5.19,3,6.51-11.16c2-3.34-3.23-6.37-5.18-3l-6.52,11.16c-2,3.34,3.15,6.3,5.19,3a89.26,89.26,0,0,1,8.93-11.65l-4.71-3.64c-3,4.45-6.22,8.72-8.94,13.35l5.18,3c1.67-3,4.29-5.5,6.06-8.5,2.24-3.77,4.42-7.58,6.63-11.37,2-3.35-3.09-6.26-5.18-3-1.81,2.8-4.31,5-6.49,7.47l4.71,3.63c1.83-3,6.13-7.7,6-11.38s-4.13-5.38-7.2-3.9c-3.23,1.57-5.58,6.78-7.65,9.62-3,4.12-6.22,8.68-7.9,13.51a2.94,2.94,0,0,0,.77,2.92c2.28,1.78,3.43,2.82,4.19,5.51a6.67,6.67,0,0,0,2.17,3.75,3.08,3.08,0,0,0,4.24,0c3.84-3.8,5.54-9.71,8.54-14.17,3.63-5.41,7.41-10.43,10.54-16.21,2.89-5.34,6.81-9.62,9.82-14.87s7.2-10.46,9.24-16.19a3,3,0,0,0-.77-2.92c-2.63-2.32-5.73-3.5-8.69-5.3-2-1.23-3.5-2.87-6-2.18-2.81.75-3.75,3.68-5,6-2.42,4.34-5,8.58-7.54,12.87-2,3.34,3.23,6.36,5.18,3Z"/><path d="M681.4,160l.33-.56-5.18-3c-1.87,3.19-3.63,6.47-5.67,9.56-1.43,2.18-3,4.31-3.6,6.91a3,3,0,0,0,2.09,3.7,3,3,0,0,0,2.32-.31c6-3.17,5.75-11.57,10.59-15.67l-5.13-2.12c.19,1.87-1.66,5.26-2.47,6.77-1.25,2.34-2.69,4.59-4,6.87l5.18,3c1-1.83,1.87-3.76,2.85-5.61.59-1.1,1.19-2.2,1.86-3.24.49-.75,1.94-2,1-1.91l-2.89-2.2c.42,1.08-2,3.65-2.58,4.58-1.49,2.28-2.73,4.72-4.21,7s1.66,5.91,4.11,4.11,3.64-4,5.33-6.4c.92-1.34,2.16-2.4,3.16-3.67.68-.86,1.15-2.39,2.15-2.86l-4.4-3.39-.34.62c-3.7,1.07-2.13,6.86,1.6,5.78a6,6,0,0,0,4.52-4.8,3,3,0,0,0-4.4-3.39c-2.35,1.1-3.25,3.65-4.9,5.51-2,2.24-3.37,5.67-5.75,7.42l4.1,4.1c1.9-2.94,3.61-6,5.52-8.92,1.35-2.09,2.87-4.76,1.87-7.3a3.09,3.09,0,0,0-2.89-2.2c-5.84.22-8.5,9.54-10.84,13.73-1.88,3.38,3.23,6.37,5.18,3a83.61,83.61,0,0,0,5-8.79c1-2.32,2.62-5.3,2.36-7.88a3,3,0,0,0-5.12-2.12c-2.34,2-3.42,5-4.81,7.61-1.18,2.27-2.18,5.87-4.56,7.12l4.41,3.38c.49-2.32,2.2-4.2,3.46-6.17,1.83-2.88,3.47-5.91,5.2-8.87,1.95-3.34-3.23-6.36-5.18-3l-.33.55c-2,3.34,3.23,6.37,5.18,3Z"/><path class="cls-2" d="M660.36,14l76.79,44.87L759.78,72c3.8,2.23,7.9,4.28,11.59,6.68,3,2,5,4.59,7.88,6.59,5.81,4,12.93,6.54,18.63,10.7,2.65,1.94,4.51,4.24,7.15,6.16s6.63,3,9.1,5.07c7.26,6.15-3.35,17.41-6.18,22.25l-6.28,10.76c-1.3,2.22-2.5,4.53-3.87,6.71-2.18,3.48-5.32,5.84-7.76,9.08-2.59,3.45-3.84,7.64-6.75,10.89a67.77,67.77,0,0,0-8.4,11.32c-3.39,5.81-6.86,11.58-10.18,17.42a27.33,27.33,0,0,1-3.75,5.57c-1.24,1.34-3.44,4.38-4.79,5.44-3.53,2.73-6.2.38-10.66-2.3-10.64-6.41-21.47-12.54-32.19-18.8l-56.66-33.1c-18.24-10.66-37-20.86-54.86-32a121,121,0,0,1-10.45-7.87c-2.16-1.7-3.74-3.89-6-5.47-1.44-1-5.38-2-6.08-3.69-1.61-3.75,4.69-7.81,6.65-9.9,4.34-4.6,8-8.75,11.14-14.18,10.09-17.42,20.37-34.72,30.45-52.14a47,47,0,0,1,6.85-8.68c2.48-2.66,3.52-7.84,7.83-8.79C642.15,9.72,649.78,7.84,660.36,14Z"/><path d="M658.84,16.57,719.42,52l29.13,17c9.1,5.32,18.51,10,26.52,16.86,7.35,6.3,17,8.83,24.24,15.39a43.5,43.5,0,0,0,10.18,6.69c5.06,2.6,4.59,6,2.17,10.47-3.63,6.71-8.32,13-12.16,19.58-2.35,4-4.43,8.06-7.63,11.51a50.92,50.92,0,0,0-7.7,10.57c-2.19,4-5.29,7.17-8,10.81a147.65,147.65,0,0,0-8.1,13c-2.56,4.36-4.87,9-7.7,13.2a55.93,55.93,0,0,1-3.92,4.89c-2.44,2.87-4.73,2.71-7.87.83-19.72-11.82-39.69-23.23-59.54-34.83s-40-23.29-60.13-34.83c-9.5-5.47-19.44-10.69-28.35-17.08a128.77,128.77,0,0,1-11.26-9.47,18.8,18.8,0,0,0-4.2-2.92c-2.67-1.37-3.35-2.08-.93-4.52C591.17,92,597,85.29,602,76.62q9.57-16.4,19.2-32.78c3.21-5.49,6.18-11.24,9.69-16.55,2.54-3.86,6-6.88,8.34-10.85,1.52-2.54,2.84-4,5.76-4,4.91-.1,9.59,1.79,13.81,4.13,3.38,1.87,6.41-3.31,3-5.19-5.84-3.23-13.43-6.2-20.27-4.6a10.71,10.71,0,0,0-6.33,4.71c-2.47,3.57-5,6.78-7.7,10.23-7.55,9.86-13.11,21.83-19.39,32.55S596.29,77,588.2,86.47c-2.72,3.19-5.85,5.81-8.72,8.82-2.24,2.35-4.41,5.53-3.18,8.92s4.88,3.8,7.43,5.54c4.39,3,8.14,7.26,12.46,10.48,10,7.45,21.4,13.3,32.18,19.49,11.2,6.43,22.42,12.83,33.58,19.35q34.21,20,68.47,39.91,7.59,4.44,15.11,9c3.68,2.2,7.36,4.14,11.45,1.71,3-1.79,5.54-5.43,7.61-8.23,3.68-5,6.44-10.81,9.58-16.13,2.82-4.78,5.53-9.55,9.08-13.83s5.83-9.08,9.1-13.54c2.77-3.77,6.34-6.72,8.78-10.78,2.9-4.81,5.6-9.76,8.46-14.61,3.49-5.93,9.36-11.71,9.91-18.9.75-9.7-10.22-11.45-16-16.66a65.22,65.22,0,0,0-14.2-9.35,63,63,0,0,1-8.52-5c-2.53-1.85-4.6-4.24-7.16-6.07-5.34-3.82-11.48-6.72-17.15-10l-17.81-10.4L661.87,11.38C658.53,9.43,655.51,14.62,658.84,16.57Z"/><path d="M220.56,151.62c-6.37-4-13.15-7.4-19.6-11.3-3.79-2.3-6.52-5.26-9.93-8.09-5.18-4.3-10.95-7.84-16.48-11.64-8.33-5.74-18,.84-20.82,9.61-1.21,3.71-1,8.08,3,9.86,5.09,2.27,10.21-.58,13.84-4.06,2.79-2.68-1.46-6.92-4.24-4.24a11,11,0,0,1-2.75,2.24c-1.08.5-4,1-4.53-.66-.47-1.38,1.84-4.18,2.6-5.16,3.14-4,6.32-4.85,10.44-1.94,3.78,2.67,7.72,5.08,11.46,7.82,3.4,2.5,6.22,5.46,9.42,8.15,7.21,6.06,16.61,9.59,24.54,14.59,3.28,2.06,6.29-3.13,3-5.18Z"/><path d="M176.53,169.17c3.08.72,5.58,1.14,8.16,3.08,2.79,2.09,5.86,3.9,8.77,5.82,2.45,1.61,5,3,7.5,4.56,3.24,2.07,5.91,4.89,9.19,6.93l2.31-5.49-.42-.14c-3.66-1.25-5.23,4.54-1.59,5.79l.41.14c3.31,1.13,5.12-3.74,2.31-5.49-3.25-2-5.94-4.85-9.18-6.92s-6.43-3.86-9.57-5.85c-2.85-1.81-5.45-4.11-8.32-5.83-2.43-1.45-5.26-1.75-8-2.38-3.76-.88-5.36,4.91-1.6,5.78Z"/><path class="cls-1" d="M675.14,136.2c-3.85-1.15-7.63-1.71-11.55-2.56a45.45,45.45,0,0,1-13.86-6c-8.09-5.08-13.83-15.92-15.21-25.23-1.49-10,4.33-20.7,11-27.83,7.07-7.55,17.38-12,27-15.2a32.69,32.69,0,0,1,25,1.62c7.52,3.71,14.17,11.1,16.64,19.22s4.75,18,3.2,26.27a52.77,52.77,0,0,1-3.2,10.35c-1.15,2.68-3.41,4.55-5.42,6.57-3,3-6.15,4.93-9.78,7.21-3.47,2.18-8.12,3-12,4.2-2.56.78-5.12.58-7.79.58-1.83,0-5.93.75-7.19-.8"/><path class="cls-1" d="M551.5,222c-1.52-.45-3-.67-4.56-1a17.51,17.51,0,0,1-5.47-2.37c-3.19-2-5.46-6.28-6-10-.58-4,1.71-8.17,4.35-11,2.8-3,6.87-4.74,10.68-6a12.9,12.9,0,0,1,9.85.64,13.14,13.14,0,0,1,6.57,7.58c1,3.15,1.88,7.09,1.26,10.37a19.4,19.4,0,0,1-1.27,4.09,8.36,8.36,0,0,1-2.14,2.59,18.88,18.88,0,0,1-3.86,2.85,19.84,19.84,0,0,1-4.75,1.66,9.89,9.89,0,0,1-3.07.23c-.72,0-2.34.29-2.84-.32"/><path class="cls-1" d="M265.36,222c-1.52-.45-3-.67-4.56-1a17.51,17.51,0,0,1-5.47-2.37c-3.19-2-5.46-6.28-6-10-.59-4,1.71-8.17,4.35-11,2.79-3,6.86-4.74,10.67-6a12.9,12.9,0,0,1,9.85.64,13.14,13.14,0,0,1,6.58,7.62c1,3.15,1.88,7.09,1.27,10.37a20,20,0,0,1-1.28,4.09,8.36,8.36,0,0,1-2.14,2.59,19.2,19.2,0,0,1-3.85,2.85A20.07,20.07,0,0,1,270,221.4a9.89,9.89,0,0,1-3.07.23c-.72,0-2.34.29-2.84-.32"/><path class="cls-1" d="M408.78,361.28c-1.52-.46-3-.67-4.56-1a18,18,0,0,1-5.47-2.37c-3.2-2-5.46-6.28-6-10-.59-4,1.71-8.17,4.35-11,2.8-3,6.87-4.73,10.67-6a13,13,0,0,1,9.86.64,13.19,13.19,0,0,1,6.57,7.59c.95,3.14,1.88,7.09,1.26,10.37a20,20,0,0,1-1.27,4.09,8.5,8.5,0,0,1-2.14,2.59,16.28,16.28,0,0,1-8.61,4.5,9.89,9.89,0,0,1-3.07.23c-.72,0-2.34.3-2.84-.31"/><path class="cls-1" d="M408.78,78.92c-1.52-.46-3-.68-4.56-1a18.1,18.1,0,0,1-5.44-2.38c-3.2-2-5.46-6.29-6-10-.59-4,1.71-8.17,4.35-11,2.8-3,6.87-4.73,10.67-6a12.93,12.93,0,0,1,9.86.64,13.16,13.16,0,0,1,6.55,7.66c1,3.14,1.88,7.09,1.26,10.37a20,20,0,0,1-1.27,4.09,8.73,8.73,0,0,1-2.14,2.54,19.9,19.9,0,0,1-3.86,2.84,19,19,0,0,1-4.75,1.66,9.89,9.89,0,0,1-3.07.23c-.72,0-2.34.3-2.84-.31"/><path d="M40.46,87.63c2.1-1.56,4.67-2.12,7-3.14a65,65,0,0,0,7.37-4.26A138.42,138.42,0,0,1,74.2,70.35c6-2.35,12-4.63,17.91-7.16,3.75-1.61,7.68-2.67,11.43-4.25,3.34-1.41,5.64-3.7,8.91-1.41a124.62,124.62,0,0,1,15.09,13.19c4.91,4.84,8.59,10.44,12.94,15.75,2.33,2.84,4.81,5.55,7.13,8.39s3.91,6.22,6.1,9.2c1.71,2.33,3.72,4.09,5.25,6.6a48.53,48.53,0,0,1,4.44,9.66c1,3,6.15,2.76,5.89-.8v-.45c-.28-3.83-6.28-3.86-6,0v.45l5.9-.8a52.86,52.86,0,0,0-9.9-17.31c-2.26-2.71-3.73-6-5.88-8.85-2.34-3.09-5-5.93-7.51-8.91-5-6-9.14-12.28-14.72-17.77a107.66,107.66,0,0,0-8.94-8c-2.65-2.07-5.06-4.74-7.8-6.62-5.32-3.7-12.61,2-17.66,3.81-7.34,2.57-14.42,5.77-21.67,8.54a141.12,141.12,0,0,0-20,9.57c-3.39,2-6.77,4.48-10.37,6-2.48,1-5.12,1.67-7.31,3.28-3.07,2.28-.08,7.49,3,5.19Z"/><path d="M36.83,87.16c7.18,5.58,12.78,12.7,18,20.06,5.9,8.25,12.36,16.09,18.75,24,6.7,8.24,11.87,16.44,15.54,26.45,3.36,9.16,6.21,18.53,9.29,27.78,3,9,4.43,18.37,6.85,27.5,2.19,8.28,10.34,1.55,15.36-.19,9-3.13,18.2-5.88,27.19-9.16,4.82-1.76,9.86-2.71,14.79-4.1,3.22-.91,8.45-1.42,11-3.79,2.8-2.56,1.65-7.29,2.11-10.59A84.91,84.91,0,0,0,176.79,172c-.14-9.75,1.34-20.16-1.51-29.62-1.11-3.69-6.9-2.12-5.78,1.59,2.36,7.88,1.22,16.6,1.25,24.72a92.77,92.77,0,0,1-.55,11.55c-.19,1.67-.42,3.36-.6,5s.58,4.83-.69,6.15c-.91,1-4,1.2-5.32,1.58-2,.57-4,1.19-6.09,1.72-4.68,1.21-9.2,2.4-13.76,4-8.48,3-17.1,5.56-25.57,8.56a48.39,48.39,0,0,0-4.75,1.89,10.25,10.25,0,0,0-2.38,1.32c-.93,1.21.66,2.75,0,.88-1.57-4.28-1.9-9.21-3.11-13.61-2.3-8.36-4.68-16.54-7.41-24.78-2.65-8-5-16.07-8.36-23.79A88.29,88.29,0,0,0,79,128.37c-6.84-8.44-13.78-16.81-20-25.69-5.17-7.28-10.91-14.28-18-19.77C38.06,80.57,33.78,84.84,36.83,87.16Z"/><path d="M69.05,69.91C70,58,65.35,46.6,66,34.72l-2.21,2.9c16.81-4.81,34.28-6.43,51.72-6.2,8.19.11,16.36.64,24.5,1.53,5.81.63,13,.72,18,4.12,6.16,4.18,6.32,14.92,7.45,21.58q2.28,13.2,3.4,26.59c.51,6.08.82,12.16,1.36,18.24.31,3.52,2.1,11.63-.24,14.71s2.88,6.07,5.18,3c2.11-2.77,1.68-7.38,1.56-10.64-.18-4.64-.79-9.24-1.11-13.87a386.65,386.65,0,0,0-5.28-45c-1-5.56-1.6-11.86-5.37-16.37-3-3.65-7.48-5.53-12-6.55-12.9-2.89-26.93-3.3-40.09-3.33-17,0-34.21,1.74-50.63,6.43A3.12,3.12,0,0,0,60,34.75c-.64,11.89,4,23.31,3.06,35.19-.3,3.85,5.7,3.83,6,0Z"/><path d="M75.88,94.48c3.61-4.08,8.88-6.73,13.76-9,5.21-2.39,11-4.73,16.82-5.09l-.76-2.79c.62-.31-.46-.21-.62-.21a1.5,1.5,0,0,0,0,3,4.44,4.44,0,0,0,2.14-.2,1.51,1.51,0,0,0,.47-2.09,1.54,1.54,0,0,0-1.23-.71c-5.93.45-11.68,2.6-17.09,5s-11.53,5.39-15.59,10c-1.27,1.45.84,3.58,2.12,2.13Z"/><path d="M82.31,104.08c3.61-4.07,8.88-6.72,13.75-9,5.21-2.4,11-4.73,16.82-5.09l-.75-2.8c.61-.3-.47-.2-.63-.21a1.5,1.5,0,0,0,0,3,4.32,4.32,0,0,0,2.14-.2,1.51,1.51,0,0,0-.76-2.79c-5.92.37-11.7,2.56-17.09,4.94s-11.53,5.39-15.6,10c-1.28,1.44.83,3.57,2.12,2.12Z"/><path d="M88.54,111.31c8.88-7.59,20.42-10.2,30.58-15.53,1.71-.89.19-3.48-1.52-2.59-10.43,5.47-22,8.2-31.18,16-1.47,1.26.66,3.37,2.12,2.13Z"/><path d="M92.13,119.18c8.88-7.58,20.42-10.19,30.58-15.52,1.71-.89.19-3.48-1.52-2.59-10.43,5.47-22,8.19-31.18,16-1.47,1.26.66,3.37,2.12,2.12Z"/><path d="M94.78,128.08c12.08-3.89,22.67-11.19,33.76-17.17,1.7-.92.19-3.51-1.51-2.59-10.85,5.85-21.23,13.06-33,16.87C92.15,125.77,93,128.67,94.78,128.08Z"/><path d="M102.63,135.26c7.84,8.8,9.55,20.74,13.61,31.42a1.52,1.52,0,0,0,1.84,1c6.6-2.23,12.84-5.37,19.45-7.54a46,46,0,0,1,10.67-2.28c1.8-.14,4,.56,5-1.22a1.52,1.52,0,0,0-.56-2.07,1.92,1.92,0,0,0-.33-.14l-.59-.14c-1.75-.78-3.28,1.81-1.52,2.59a5.21,5.21,0,0,0,1.31.45l-.9-2.21c.15-.25-7,.32-7.74.47a56.72,56.72,0,0,0-8.36,2.44c-5.8,2.12-11.37,4.78-17.22,6.75l1.84,1c-4.26-11.14-6.13-23.38-14.35-32.64-1.28-1.44-3.4.68-2.12,2.12Z"/><path d="M119.69,163.84a40.6,40.6,0,0,1,.54-10.78c.58-3,1.94-4.07,5.3-3.85,2.32.15,4,1.06,6.43.93a1.55,1.55,0,0,0,1.5-1.5c.84-6.74,3.48-13.22,2.61-20.09-.23-1.89-3.24-1.91-3,0,.87,6.8-1.78,13.39-2.61,20.09l1.5-1.5c-4.81.27-10.94-4-13.79,2.06-1.93,4.11-1.86,10.23-1.48,14.64.16,1.91,3.16,1.93,3,0Z"/><path d="M395,58.63V55.94a16.24,16.24,0,0,0,2.61-.24,3.59,3.59,0,0,0,1.94-1.06,3.31,3.31,0,0,0,.77-1.44,2.64,2.64,0,0,0,.15-.8h3.33V72.48h-4V58.63Z"/><path d="M410.6,68.53a11.41,11.41,0,0,1,4-4.25,26.47,26.47,0,0,0,3.53-2.8,4.05,4.05,0,0,0,1.24-2.88,3.17,3.17,0,0,0-.71-2.12,2.52,2.52,0,0,0-2-.84A2.48,2.48,0,0,0,414.21,57a7,7,0,0,0-.45,2.47h-3.83a9.74,9.74,0,0,1,.93-4.14q1.58-3,5.61-3a7.12,7.12,0,0,1,5.07,1.77,6.06,6.06,0,0,1,1.89,4.67,6.28,6.28,0,0,1-1.33,4,13,13,0,0,1-2.87,2.56l-1.59,1.13a22.47,22.47,0,0,0-2,1.52,5,5,0,0,0-.92,1.09h8.77v3.48H409.68A9.41,9.41,0,0,1,410.6,68.53Z"/><path d="M411.3,342a1.92,1.92,0,0,0-.37-1.07A2.21,2.21,0,0,0,409,340a2.86,2.86,0,0,0-2.74,2.16,14.12,14.12,0,0,0-.61,3.52,4.56,4.56,0,0,1,1.71-1.27,6.19,6.19,0,0,1,6.6,1.41,6.53,6.53,0,0,1,1.71,4.64,7.79,7.79,0,0,1-1.68,5,6.16,6.16,0,0,1-5.21,2.14,6,6,0,0,1-5.59-3.17,12.89,12.89,0,0,1-1.4-6.4,31.34,31.34,0,0,1,.19-3.74,11.3,11.3,0,0,1,1.35-4.26,6.9,6.9,0,0,1,2.25-2.34,6.1,6.1,0,0,1,3.33-.89,6.65,6.65,0,0,1,4.46,1.43,5.5,5.5,0,0,1,1.87,3.82Zm-4.68,11.31a2.77,2.77,0,0,0,2.22,1,2.43,2.43,0,0,0,2.07-1,4.13,4.13,0,0,0,.75-2.57,3.78,3.78,0,0,0-.86-2.69,2.74,2.74,0,0,0-2.1-.94,2.89,2.89,0,0,0-1.79.61,3.5,3.5,0,0,0-1.16,2.91A3.93,3.93,0,0,0,406.62,353.33Z"/><path d="M260.55,198.84a6.37,6.37,0,0,1,4.84-2,6.25,6.25,0,0,1,6.29,4.06,15.65,15.65,0,0,1,1,6,17,17,0,0,1-.93,6.08c-1.18,3.1-3.35,4.64-6.51,4.64a6.53,6.53,0,0,1-4.05-1.34,5.3,5.3,0,0,1-2.07-3.9h3.94a2.42,2.42,0,0,0,.74,1.44,2.3,2.3,0,0,0,1.62.56,2.81,2.81,0,0,0,2.75-2.16,12.82,12.82,0,0,0,.54-3.48,4.23,4.23,0,0,1-1.15,1,5.1,5.1,0,0,1-2.73.66,6.12,6.12,0,0,1-4.25-1.65,6,6,0,0,1-1.86-4.77A7.42,7.42,0,0,1,260.55,198.84Zm6.64,8a3.23,3.23,0,0,0,1.35-3,4.23,4.23,0,0,0-.8-2.7,2.65,2.65,0,0,0-2.18-1,2.78,2.78,0,0,0-1.73.56,3.61,3.61,0,0,0-1.14,3,4.3,4.3,0,0,0,.73,2.68,3.13,3.13,0,0,0,3.77.46Z"/><path d="M548.58,211a4.55,4.55,0,0,0,.39,2,2.65,2.65,0,0,0,2.61,1.45,2.85,2.85,0,0,0,2-.79,2.93,2.93,0,0,0,.86-2.3,2.56,2.56,0,0,0-1.6-2.64,8.4,8.4,0,0,0-2.87-.38v-2.82a7.11,7.11,0,0,0,2.67-.37,2.31,2.31,0,0,0,1.32-2.36,2.65,2.65,0,0,0-.67-1.87,2.45,2.45,0,0,0-1.89-.72,2.42,2.42,0,0,0-2,.89,3.78,3.78,0,0,0-.63,2.37h-3.68a9.87,9.87,0,0,1,.51-2.84,6.6,6.6,0,0,1,1.52-2.18,5.69,5.69,0,0,1,1.84-1.08,8.28,8.28,0,0,1,2.61-.37,7,7,0,0,1,4.65,1.49,5,5,0,0,1,1.76,4,4.36,4.36,0,0,1-1,3,3.38,3.38,0,0,1-1.39,1,2.86,2.86,0,0,1,1.55.93,4.91,4.91,0,0,1,1.51,3.82,6.36,6.36,0,0,1-1.76,4.48,6.68,6.68,0,0,1-5.22,1.93c-2.84,0-4.82-.92-5.92-2.78a8.18,8.18,0,0,1-1-3.88Z"/><circle class="cls-3" cx="408.79" cy="206.57" r="174.88"/><path d="M408.25,39.39a3.33,3.33,0,0,0-3.77,2.12c-.93,3,2.33,3.49,4.52,3.32,6.68-.52,1.56-9.17-1.93-5.2"/><path d="M492,61.57a3.33,3.33,0,0,0-4.32,0c-2.31,2.13.27,4.18,2.25,5.13,6,2.9,5.94-7.15.93-5.47"/><path d="M553.47,122.73a3.32,3.32,0,0,0-3.72-2.21c-3.06.69-1.86,3.75-.62,5.56,3.77,5.54,8.73-3.21,3.54-4.26"/><path d="M576,206.42a3.29,3.29,0,0,0-2.11-3.77c-3-.94-3.49,2.31-3.33,4.5.5,6.68,9.17,1.59,5.21-1.91"/><path d="M553.62,290.16a3.32,3.32,0,0,0,.07-4.33c-2.13-2.31-4.19.26-5.14,2.23-2.92,6,7.13,6,5.46.95"/><path d="M492.31,351.42a3.29,3.29,0,0,0,2.22-3.71c-.68-3.06-3.75-1.87-5.57-.64-5.54,3.77,3.2,8.74,4.26,3.56"/><path d="M408.56,373.76a3.31,3.31,0,0,0,3.78-2.1c.94-3-2.31-3.5-4.5-3.34-6.68.48-1.61,9.16,1.9,5.21"/><path d="M324.88,351.15a3.3,3.3,0,0,0,4.32.08c2.32-2.12-.24-4.19-2.22-5.15-6-2.93-6,7.13-1,5.46"/><path d="M263.78,289.68a3.3,3.3,0,0,0,3.7,2.23c3.07-.67,1.89-3.74.66-5.56-3.75-5.55-8.75,3.17-3.57,4.24"/><path d="M241.65,205.84a3.31,3.31,0,0,0,2.09,3.78c3,1,3.5-2.3,3.35-4.49-.46-6.68-9.16-1.63-5.21,1.89"/><path d="M264.47,122.26a3.32,3.32,0,0,0-.09,4.32c2.11,2.32,4.18-.24,5.15-2.21,2.94-6-7.11-6-5.46-1"/><path d="M326.09,61.3a3.34,3.34,0,0,0-2.24,3.7c.67,3.07,3.74,1.89,5.56.67,5.56-3.74-3.15-8.76-4.23-3.58"/><path d="M605.06,233.91c2.81-2.39,8.66-3.21,12.06-4.46a129,129,0,0,0,14-6c4.27-2.16,8.43-4.52,12.57-6.93,1.82-1.06,5.27-3.47,6.6-3.75,3.77-.79,2.17-6.58-1.6-5.79-2.39.51-4.88,2.53-6.94,3.73-4.5,2.62-9,5.21-13.66,7.56a126.54,126.54,0,0,1-16.84,6.93c-3.62,1.21-7.51,2-10.48,4.51s1.32,6.73,4.25,4.24Z"/><path d="M644.78,24.89C639.71,29.2,636.5,36,633.2,41.64c-4.53,7.77-8.74,15.72-13.2,23.53-4.27,7.46-8.55,15-13.18,22.22-1.63,2.55-5.5,6.31-5.49,9.53a1.5,1.5,0,0,0,3,0c0-1.46,2.52-4.17,3.25-5.28,1.26-1.89,2.48-3.78,3.66-5.73q6.3-10.38,12.31-20.91c3.78-6.71,7.4-13.51,11.23-20.16,3.4-5.9,6.81-13.32,12.08-17.8,1.47-1.25-.66-3.37-2.13-2.12Z"/><path d="M794.78,126.16c-5.07,4.31-8.28,11.09-11.58,16.74-4.54,7.77-8.74,15.73-13.2,23.54-4.28,7.46-8.55,15-13.18,22.22-1.63,2.55-5.5,6.31-5.49,9.53a1.5,1.5,0,0,0,3,0c0-1.46,2.52-4.17,3.25-5.28,1.26-1.89,2.48-3.78,3.66-5.73q6.28-10.38,12.31-20.91c3.81-6.71,7.43-13.52,11.28-20.19,3.4-5.91,6.81-13.33,12.07-17.8C798.38,127,796.25,124.91,794.78,126.16Z"/><path class="cls-2" d="M609.78,182.1c-.77-.71,12.17-4.54,13.7-4.86,5.69-1.19,11.32-2.47,17-3.65,4.49-.93,7.11-1.33,11-4.07s8.37-5.39,13.33-3.68c3.91,1.34,8.19,5.93,3.91,9.36,2.23,2.56,3.8,3.33,3.54,7-.22,3.21-1,5.48-4.06,6.57-5,1.78-10.52-1.9-15-.73"/><path d="M612.62,181.3v-.12l-.77,2.92c1-1.09,6-2.11,8-2.72,4.25-1.29,8.57-2.13,12.91-3.08,5.54-1.2,11.67-1.81,16.83-4.24,2.66-1.25,4.84-3.26,7.47-4.54,2.28-1.12,4.91-1.72,7.35-.6,1.56.72,4,2.23,2.13,4.15a3.09,3.09,0,0,0,0,4.25c1.47,1.61,2.71,2.57,2.66,4.92-.07,3.91-3.19,4.32-6.42,3.85-3.63-.52-6.68-1.49-10.38-.91s-2.19,6.39,1.59,5.79c6.57-1,14.64,4.62,19.56-2.68,3.69-5.47,1.07-11-2.77-15.22v4.25c5.26-5.38,1.19-12.29-5.23-14.38a15,15,0,0,0-11.52,1.4c-2.39,1.23-4.42,3.07-6.83,4.25a27.68,27.68,0,0,1-6.74,1.94c-7.9,1.66-15.89,3.08-23.6,5.49-3.24,1-10.72,2.15-10,6.88.59,3.8,6.37,2.19,5.78-1.6Z"/><path d="M655,212.74c11.93,2.17,28,.73,31.31-13.4a21,21,0,0,0-2.9-16.45c-2.11-3.37-5.89-8-10.27-5.35-3.28,2-.27,7.2,3,5.18-.55.34-.83-.27,0,.54a10.83,10.83,0,0,1,1.43,1.75,20.48,20.48,0,0,1,2.3,4.11,14.3,14.3,0,0,1-1.2,12.93c-4.54,6.64-15.2,6.17-22.14,4.91-3.78-.69-5.4,5.1-1.6,5.78Z"/><path d="M724.91,127.84c-1.1,4.73-2.57,8.35-4.37,10.85l-2-1.76a25.57,25.57,0,0,0,4.08-10Zm.12,15-.55-2.38c1.15.1,2.21.17,3.22.17a1.25,1.25,0,0,0,1.4-1.08,1.29,1.29,0,0,0,0-.34v-17.9h2.38v18.5c0,2-1,3-2.91,3Zm16.06-5.5L739,138.84c-1-3.34-2.36-7.06-4-11.19l2.09-1.3c1.66,4.23,3,7.9,4,11.07Z"/><path d="M751.94,140.66h-2.16v-1.51H747v2.09h-2.21V122.68h7.13Zm-2.16-10.82v-5H747v5Zm0,7.27v-5.27H747v5.21Zm10.75-15.89v2.26H766v2.08h-5.5v2.26h4.58v2H753.64v-2.11h4.68v-2.26h-5.61v-2.08h5.61v-2.26Zm.5,11.19v-1.69h2.21v1.69H766v2.13h-2.79v6c0,1.71-.81,2.57-2.4,2.57h-2.93l-.48-2.16a21.27,21.27,0,0,0,2.64.17c.63,0,1-.38,1-1.13v-5.4h-7.84v-2.13Zm-2.8,6.36-1.8,1.24a32.79,32.79,0,0,0-2.93-3.74l1.77-1.1a30.27,30.27,0,0,1,3,3.55Z"/></g></svg>