<?xml version="1.0" encoding="utf-8"?>
<!-- Generator: Adobe Illustrator 22.0.1, SVG Export Plug-In . SVG Version: 6.00 Build 0)  -->
<!DOCTYPE svg PUBLIC "-//W3C//DTD SVG 1.1//EN" "http://www.w3.org/Graphics/SVG/1.1/DTD/svg11.dtd">
<svg version="1.1" id="圖層_1" xmlns="http://www.w3.org/2000/svg" xmlns:xlink="http://www.w3.org/1999/xlink" x="0px" y="0px"
	 viewBox="0 0 821 473" style="enable-background:new 0 0 821 473;" xml:space="preserve">
<style type="text/css">
	.st0{fill:#F3EEE8;}
</style>
<title>ㄢ323-clock-1</title>
<path class="st0" d="M448.3,194.3c0.6,7.7-6.9,11.6-13.6,11c-2.4-0.2-5.4-0.3-7.6-1.4c-2.8-1.4-3.4-4.7-3.2-7.6
	c0.3-5,4.1-8.6,8.7-9.9h0C438.8,185.7,447.6,186.2,448.3,194.3z"/>
<circle cx="434.2" cy="196.7" r="4.7"/>
<path d="M432.6,186.5c6.2-0.8,15-0.2,15.6,7.8c0.6,7.7-6.9,11.6-13.6,11c-2.4-0.2-5.4-0.3-7.6-1.4c-2.8-1.4-3.4-4.7-3.2-7.6
	c0.4-5.1,4.4-8.9,9.1-10c1.9-0.4,1.1-3.3-0.8-2.9c-7,1.4-11.8,7.9-11.2,15c0.4,8.4,8.4,10.2,15.8,10c7.8-0.2,14.9-5.9,14.5-14.2
	c-0.5-9.9-10.7-11.8-18.6-10.8C430.7,183.7,430.7,186.7,432.6,186.5z"/>
<path class="st0" d="M401,194.3c-0.6-8.1-9.5-8.6-15.6-7.8h0c-4.6,1.3-8.4,4.9-8.7,9.9c-0.2,2.9,0.4,6.2,3.2,7.5
	c2.2,1.1,5.2,1.2,7.6,1.4C394.1,206,401.5,202,401,194.3z"/>
<circle cx="386" cy="196.7" r="4.7"/>
<path d="M385.4,183.4c1.5,0.1,2,2.5,0.3,2.9c-0.1,0-0.3,0.1-0.4,0.1h0C383.4,186.7,383.4,183.7,385.4,183.4
	C385.4,183.4,385.4,183.4,385.4,183.4z"/>
<path d="M404,194.3c0.4,8.3-6.6,14-14.5,14.2c-7.4,0.2-15.4-1.6-15.8-10c-0.6-7.1,4.3-13.6,11.2-15c0.2,0,0.3-0.1,0.5,0
	c0,0-0.1,0-0.1,0c-1.9,0.3-1.9,3.3,0,3c-4.6,1.3-8.4,4.9-8.7,9.9c-0.2,2.9,0.4,6.2,3.2,7.6c2.2,1.1,5.2,1.2,7.6,1.4
	c6.7,0.6,14.2-3.3,13.6-11c-0.6-8.1-9.5-8.6-15.7-7.8c0.1,0,0.3-0.1,0.4-0.1c1.7-0.4,1.2-2.8-0.3-2.9
	C393.4,182.5,403.5,184.4,404,194.3z"/>
<path d="M430.1,167.7c-1.3,0-2.8-0.1-3.8,0.9c-1,1-1.2,2.5-0.6,3.8c1.1,2,4.4,1.8,6.3,1.4c2.3-0.5,5.5-3.1,3.2-5.5
	c-1.6-1.7-5.7-2.1-7.3-0.3c-1.2,1.3,0,3,1.3,3.7c1.4,0.7,3.1,0.4,4.3-0.6c0.6-0.6,0.6-1.5,0-2.1c0,0,0,0,0,0
	c-0.2-0.2-0.4-0.3-0.6-0.4l-0.4-0.2c-1.8-0.7-2.6,2.2-0.8,2.9l0.4,0.2l-0.7-2.5c-0.2,0.2-0.4,0.1-0.6,0.1c-0.1,0-0.2,0-0.3-0.1
	c-0.2-0.1,0,0.3-0.1-0.2l-0.4,1.4c0.6-0.7,2-0.2,2.8-0.1c0.5,0,0,0.4,0.3-0.1c0.1-0.1-0.3,0.2-0.3,0.2c-0.5,0.3-1,0.5-1.5,0.6
	c-0.9,0.1-1.9-0.1-2.8,0c-0.5,0-0.1-0.3-0.1,0s0.2-0.1,0.1-0.1c0.6,0,1.2-0.1,1.8-0.1c0.8,0,1.5-0.7,1.5-1.5
	S430.9,167.7,430.1,167.7L430.1,167.7z"/>
<path d="M395.1,167.7c-1.3,0-2.8-0.1-3.8,0.9c-1,1-1.2,2.5-0.6,3.8c1.1,2,4.4,1.8,6.3,1.4c2.3-0.5,5.5-3.1,3.2-5.5
	c-1.6-1.7-5.7-2.1-7.3-0.3c-1.2,1.3,0,3,1.4,3.7c1.4,0.7,3.1,0.4,4.3-0.6c0.6-0.6,0.6-1.5,0-2.1c0,0,0,0,0,0
	c-0.2-0.2-0.4-0.3-0.6-0.4l-0.4-0.2c-1.8-0.7-2.6,2.2-0.8,2.9l0.4,0.2l-0.7-2.5c-0.2,0.2-0.4,0.1-0.6,0.1c-0.1,0-0.2,0-0.3-0.1
	c-0.2-0.1,0,0.3-0.1-0.2l-0.4,1.4c0.6-0.7,2-0.2,2.8-0.1c0.5,0,0,0.4,0.3-0.1c0.1-0.1-0.3,0.2-0.3,0.2c-0.5,0.3-1,0.5-1.5,0.6
	c-0.9,0.1-1.9-0.1-2.8,0c-0.5,0-0.1-0.3-0.1,0s0.2-0.1,0.1-0.1c0.6,0,1.2-0.1,1.8-0.1c0.8,0,1.5-0.7,1.5-1.5S396,167.7,395.1,167.7
	L395.1,167.7z"/>
</svg>
