<svg xmlns="http://www.w3.org/2000/svg" viewBox="0 0 581.29 466.92"><defs><style>.cls-1{fill:#d1ccc7;}.cls-2{fill:#f3eee8;}.cls-3{fill:none;}</style></defs><title>clock-1</title><g id="圖層_1" data-name="圖層 1"><path class="cls-1" d="M322.29,426.53c-21.76-7.28-104.3,11.09-85.74,28.4,6,5.57,26.73,5.87,35.53,6.61,19.66,1.65,40.05,2.38,59.86,2.22,39.3-.3,82-.09,120.32-6.49,17.62-2.94,64.77-22,40.56-35.94-29.7-17.09-83.6-6.29-118-4.18-13.72.85-48.12-.48-55.4,8.75"/><path class="cls-1" d="M323.09,423.64c-13.18-4.19-29.28-1.29-42.53,1.1-14.26,2.58-30.89,6.05-42.89,14.74-3.41,2.47-6.95,6-6.81,10.54.2,6.11,6.32,9.49,11.47,11,9,2.64,18.72,2.71,28,3.38,14.73,1,29.44,2,44.21,2.26,30.6.55,61.43.24,92-1.54,22.69-1.33,46.22-2.7,67.5-11.35,9.16-3.72,32.78-13.23,27.95-27-2.52-7.22-12.06-10.65-18.59-12.86-10.28-3.47-21.31-4.63-32.1-5-26.23-.8-52,4.06-78.15,5.31-10.34.49-20.69.34-31,1.36-8,.8-19.26,1.58-24.93,8.18-2.51,2.91,1.72,7.18,4.24,4.24,4.54-5.27,14.29-5.78,20.69-6.42,8.74-.86,17.54-1,26.32-1.2,19.13-.53,38.11-3.54,57.19-4.83,20-1.35,42.53-2.36,61.27,6.12,4.83,2.19,12.47,5.91,8.16,12-3.84,5.45-11,8.9-16.8,11.7-17.44,8.35-35.91,10.79-55,12.5-26.73,2.39-53.59,2.6-80.4,2.78-25.66.18-51-.91-76.64-2.53-4.21-.27-36.37-1.49-27.85-11.44,3.81-4.45,10.56-6.88,15.87-8.85A160.14,160.14,0,0,1,278,431.33a168.67,168.67,0,0,1,24.72-3.27c6.2-.33,12.83-.54,18.82,1.36,3.69,1.18,5.27-4.61,1.6-5.78Z"/><path class="cls-1" d="M339.73,379.52a23.89,23.89,0,0,0-.05,3.78c.25,1.4.92,2.33,1,3.78.2,2.94,0,6,0,8.91v10.95c0,2,.8,5.39-.67,6.89-.76.77-2.12,1-3.07,1.54-1.76,1-3.13,2.75-5,3.67-3.23,1.6-7.09,2.12-10.19,4.13-2,1.32-4.85,5.69-1,6.52a23,23,0,0,0,7.54-.28c2.78-.5,5.76-1.55,8.55-1.7,2.18-.12,4.42,0,6.6,0a21.23,21.23,0,0,0,4.78-.21c1.08-.24,3.93-.65,4.6-1.56,1.08-1.45.1-7.76.1-9.6,0-6.21.94-11.9.94-18.14,0-3.16,0-6.32,0-9.48a25.19,25.19,0,0,1,.21-4.68c.35-1.87,1.27-3.41.64-5.39-2-.58-4.88-.1-7-.1-1.86,0-4.23-.35-6,.16l-.16.79"/><path d="M336.73,379.52c-.17,3.61,1,6.67,1,10.23.11,4.5-.1,9-.1,13.54,0,2.95,1.06,7.06-1.2,9a32.73,32.73,0,0,1-9.71,5.5c-4.43,1.6-10.32,3.7-10.83,9.26-.54,6,6.43,6.07,10.63,5.6s7.88-1.85,12-2c3.52-.13,7,.37,10.52-.25,5-.88,7.34-2.75,7.31-7.93,0-6.9.11-13.65.44-20.58.21-4.38.08-8.77.1-13.16,0-3.73,1.3-7.17.74-10.87a2.88,2.88,0,0,0-2.09-2.09,45.37,45.37,0,0,0-14.57.06,2.9,2.9,0,0,0-2.1,2.1l-.16.78c-.78,3.77,5,5.38,5.78,1.6l.17-.79-2.1,2.1a40.17,40.17,0,0,1,11.38-.07l-2.09-2.09c.4,2.69-1,6.43-1,9.27,0,3.47,0,6.94,0,10.41-.12,6.25-1.22,12.52-.84,18.78.07,1.16,1,4.93.36,5.84-.9,1.36-5.35,1-6.93,1a55.19,55.19,0,0,0-9.09.27c-3.08.49-6,1.55-9.15,1.81-.22,0-3.64.2-3.65,0,0,.35,3.25-1.92,3.06-1.81,2.52-1.38,5.51-1.8,8.1-3.05s4.72-3.18,7.13-4.6c1.67-1,2.86-1.69,3.57-3.6s.32-4.2.24-6.25c-.12-3.21,0-6.45,0-9.67,0-3.55.39-7.21,0-10.74-.29-2.69-1.1-4.8-1-7.56.18-3.86-5.82-3.85-6,0Z"/><path class="cls-1" d="M394.56,379.52a22.75,22.75,0,0,0,0,3.78c.24,1.4.91,2.33,1,3.78.2,2.94,0,6,0,8.91v10.95c0,2,.8,5.39-.67,6.89-.75.77-2.12,1-3.07,1.54-1.76,1-3.13,2.75-5,3.67-3.23,1.6-7.08,2.12-10.18,4.13-2,1.32-4.85,5.69-1,6.52a23,23,0,0,0,7.53-.28c2.78-.5,5.76-1.55,8.56-1.7,2.17-.12,4.42,0,6.59,0a21.18,21.18,0,0,0,4.78-.21c1.09-.24,3.93-.65,4.61-1.56,1.07-1.45.09-7.76.09-9.6,0-6.21.94-11.9.94-18.14,0-3.16,0-6.32,0-9.48a24.36,24.36,0,0,1,.22-4.68c.34-1.87,1.26-3.41.63-5.39-2-.58-4.88-.1-7-.1-1.86,0-4.22-.35-6,.16l-.17.79"/><path d="M391.56,379.52c-.17,3.61,1,6.67,1.05,10.23.11,4.5-.1,9-.1,13.54,0,2.95,1.06,7.06-1.2,9a32.68,32.68,0,0,1-9.7,5.5c-4.43,1.6-10.33,3.7-10.83,9.26-.55,6,6.42,6.07,10.62,5.6s7.88-1.85,12-2c3.52-.13,7,.37,10.53-.25,5-.88,7.34-2.75,7.3-7.93,0-6.9.12-13.65.45-20.58.21-4.38.08-8.77.09-13.16,0-3.73,1.31-7.17.75-10.87a2.89,2.89,0,0,0-2.1-2.09,45.37,45.37,0,0,0-14.57.06,2.92,2.92,0,0,0-2.1,2.1l-.16.78c-.77,3.77,5,5.38,5.79,1.6l.16-.79-2.1,2.1a40.24,40.24,0,0,1,11.39-.07l-2.1-2.09c.41,2.69-.95,6.43-1,9.27,0,3.47.05,6.94,0,10.41-.11,6.25-1.21,12.52-.84,18.78.07,1.16,1,4.93.37,5.84-.9,1.36-5.36,1-6.94,1a55.19,55.19,0,0,0-9.09.27c-3.08.49-6,1.55-9.14,1.81-.23,0-3.64.2-3.66,0,0,.35,3.25-1.92,3.06-1.81,2.53-1.38,5.51-1.8,8.11-3.05s4.71-3.18,7.12-4.6c1.67-1,2.86-1.69,3.57-3.6s.32-4.2.25-6.25c-.12-3.21,0-6.45,0-9.67,0-3.55.4-7.21,0-10.74-.28-2.69-1.1-4.8-1-7.56.18-3.86-5.82-3.85-6,0Z"/><path class="cls-2" d="M372.76,388.74c-5.9,0-11.13,3.82-17,3.88-7.1.07-12.88-2.19-19.91-2-7.75.17-16.4-1.79-23.88-3.84-9-2.47-18.28-4.61-27.4-6.59-5.36-1.17-9.2-4.4-13.85-7.12-5.3-3.1-11.08-5.61-16.59-8.31-8.7-4.28-14.65-7.24-21.74-14.19-5.44-5.34-10.52-11-16.38-15.92-4.14-3.48-8.71-6.36-12.23-10.54-8-9.46-15.11-21.95-21.12-32.78-4.13-7.44-7.55-19.3-8.36-27.74-.47-4.89-2.11-9.16-2.2-14.12a64.59,64.59,0,0,0-1.62-13c-2.2-10.84-1.25-24.62-.69-35.61s4.73-22.92,7.85-33.39a296.69,296.69,0,0,1,17.14-44.2c5.34-11,8.59-22.57,14.48-33.52,7-12.93,16.21-20.91,26.62-30.83A66.79,66.79,0,0,1,251,47.83c5.25-2.83,9.06-7.26,14-10.61,9.38-6.39,19.49-12.82,29.86-17.3,8.74-3.78,17.56-6.33,26.52-9.46C331.26,7,341.48,7,351.69,5.19,368.84,2.24,387.42,3,405,3.33c15.65.27,30.44,5.52,45.38,9.3,14.74,3.73,30.33,7.21,44.34,13.29a44.34,44.34,0,0,1,14.52,10.73c5.73,6.07,11.95,12,17.52,18.18C533.36,62.19,538.9,71.12,545,79c11.73,15.26,19.4,35.23,23.75,54.09,2,8.56,6.22,17.79,6.89,26.49.9,11.83,2.08,23.21,2.16,35.2.13,20.16-7.12,41.88-14.44,60.67-2.78,7.13-4.75,14.8-8.29,21.66-2.62,5.06-6.13,9.19-8.32,14.47-4.57,11-13.72,23.48-22.44,31.5-9,8.33-17.21,16.62-27.39,23.94-7.9,5.68-17.17,8.93-25.6,13.74-10.15,5.81-20.34,11.2-31.31,15.37A132.73,132.73,0,0,1,423.58,381c-4.57,1.07-9.17.2-13.57,1.19-7.13,1.61-14.72,2.17-21.84,4a75.56,75.56,0,0,1-13.12,2.09c-4.51.41-7.76,3.9-12.07,4.34"/><path d="M372.76,385.74c-4.37.26-8.2,1.82-12.36,3-5.45,1.58-10.79.34-16.27-.48-4.47-.67-8.9-.51-13.39-.86a94,94,0,0,1-16.38-3.13c-10.07-2.64-20.68-4.31-30.59-7.44-4.51-1.43-8.3-4.54-12.37-6.87-4.84-2.76-9.95-5-15-7.45-8.59-4.18-16.37-8.58-23.21-15.36a281.67,281.67,0,0,0-21.47-19.69c-7.66-6.17-13-14.71-18.09-23s-10.15-16.64-13.09-25.91a83.09,83.09,0,0,1-3.08-13c-.78-5.34-2.05-10.71-2.43-16.09-.67-9.44-2.87-18.62-3-28.12-.13-10.32,0-21.14,2.24-31.25,2.24-10.29,5.58-20.47,8.9-30.45,6.51-19.63,15.59-38.35,23.48-57.44a88.69,88.69,0,0,1,16.67-26.89c6.44-7,13.52-14.27,21.2-19.88,3.41-2.5,7.24-4.29,10.71-6.67,4-2.71,7.33-6.16,11.24-8.93a173.66,173.66,0,0,1,27.41-16.2,210.43,210.43,0,0,1,31.75-11.34c9.78-2.7,20.33-3.34,30.38-4.74C366.76,6,377.62,5.91,388.41,6c11.17.11,22.31,0,33.29,2.31,10.55,2.17,20.84,5.43,31.28,8,9.83,2.46,19.69,4.83,29.31,8,5,1.65,10.07,3.35,14.6,6,4.68,2.71,8.36,6.46,12.07,10.32,7.5,7.79,15.36,15.2,21.87,23.89C543.11,81,554.36,97.16,561,116.75c3.18,9.42,5.25,19.15,8.24,28.64,3.2,10.13,3.93,20.25,4.7,30.79.75,10.25,1.37,20.59.09,30.83-1.35,10.83-4.32,21.44-7.79,31.76-3.3,9.83-7,19.61-10.56,29.33-3.41,9.15-9.1,17.41-13.46,26.13-9,18.1-24.76,32.26-40.14,45-8.09,6.7-16.89,11.11-26.23,15.74-9.18,4.55-17.87,10-27.19,14.27-9.48,4.36-20.48,9-31.05,9.33-10,.33-20.44,2.43-30.21,4.72-4.37,1-8.71,1.38-13.11,2.09s-7.79,3.57-12.08,4.33c-3.8.68-2.19,6.47,1.59,5.79,4.62-.83,8.28-3.83,13-4.39,5.38-.63,10.51-1.76,15.8-2.86s10.39-1.64,15.55-2.64c5.41-1,10.89-.64,16.27-1.75,21.53-4.45,39.61-16.55,59.09-26a114.19,114.19,0,0,0,25.59-16.78c8.22-7.1,16.71-14.51,23.86-22.69a98.33,98.33,0,0,0,15.78-24c4.24-9.39,10.19-17.49,13.64-27.3,7.24-20.59,15.81-40.85,17.95-62.8,1.09-11.19.09-22.52-.81-33.69-.4-5-.57-10.19-1.41-15.19s-2.58-10.07-4.14-15c-3.16-10-5.22-20.29-8.9-30.17A133.23,133.23,0,0,0,551.4,82.88c-12-18.1-25.89-34.19-41.22-49.56-14.74-14.77-37.86-18.25-57.31-23.15C442.11,7.45,431.5,4,420.57,2s-22-1.89-33.09-2a218.22,218.22,0,0,0-33,1.72C343.83,3.26,332.64,3.85,322.33,7c-21.53,6.56-41.94,15.12-60.16,28.57-3.84,2.83-7.19,6.32-11.25,8.86s-8.08,4.7-11.81,7.65a169.79,169.79,0,0,0-21.58,20.73,92.2,92.2,0,0,0-15.76,25.73c-4.44,10.52-8.8,21-13.45,31.42a305,305,0,0,0-11.46,29.79c-3.52,10.83-7.34,21.93-9.19,33.19-1.62,9.81-1.82,20.21-1.56,30.14a90.87,90.87,0,0,0,1.45,14.15c1,5.41,1.1,10.8,1.88,16.22,1.39,9.7,2.88,19.73,6.11,29,3.1,8.89,8.06,17,12.94,25,5.31,8.7,11,17.76,19,24.23s15.23,13.7,22.73,20.93c6.81,6.56,14.73,11,23.18,15.06,5,2.43,10.11,4.69,15,7.45,4.09,2.34,7.87,5.3,12.32,7,5,1.87,10.64,2.58,15.87,3.82,5.7,1.35,11.35,2.88,17,4.35a109.69,109.69,0,0,0,13.68,2.75c5.9.76,11.78.49,17.68,1.42,4.34.68,8.77,1.54,13.17.94,5-.69,9.53-3.37,14.64-3.67,3.84-.22,3.86-6.23,0-6Z"/><path class="cls-2" d="M373.43,383c-5.61,0-11.22,0-16.84.06-6.75.07-12.25-2.08-18.93-1.93-7.38.17-15.61-1.7-22.72-3.65-8.6-2.35-17.38-4.39-26.06-6.27-5.1-1.11-8.75-4.18-13.18-6.77-5-3-10.53-5.33-15.77-7.91-8.28-4.07-13.93-6.88-20.68-13.49-5.18-5.08-10-10.46-15.58-15.15-3.93-3.31-8.29-6.05-11.63-10-7.59-9-14.37-20.88-20.09-31.18-3.93-7.07-7.18-18.36-7.95-26.39-.45-4.64-2-8.71-2.1-13.42a61.93,61.93,0,0,0-1.53-12.38c-2.1-10.31-1.2-23.42-.66-33.87s4.5-21.8,7.47-31.76a282.34,282.34,0,0,1,16.29-42c5.09-10.47,8.17-21.48,13.78-31.89,6.61-12.3,15.42-19.89,25.32-29.32A63.22,63.22,0,0,1,257,55.16c5-2.69,8.62-6.91,13.29-10.1,8.92-6.08,18.53-12.19,28.4-16.45,8.31-3.6,16.7-6,25.22-9,9.4-3.28,19.12-3.35,28.83-5,16.32-2.8,34-2.07,50.68-1.77,14.89.26,29,5.25,43.17,8.85,14,3.55,28.85,6.86,42.17,12.64a42.18,42.18,0,0,1,13.81,10.2C508,50.3,514,55.92,519.25,61.82c6.29,7,11.56,15.49,17.31,23,11.16,14.51,18.46,33.5,22.6,51.45,1.88,8.13,5.92,16.91,6.55,25.19.86,11.25,2,22.07,2,33.48.13,19.18-6.77,39.83-13.73,57.7-2.64,6.78-4.52,14.08-7.89,20.61-2.49,4.81-5.83,8.74-7.91,13.76-4.34,10.48-13.05,22.33-21.34,30-8.61,7.93-16.37,15.81-26.05,22.77-7.51,5.41-16.33,8.49-24.35,13.07A210.79,210.79,0,0,1,436.7,367.4,125.33,125.33,0,0,1,421.13,372c-4.35,1-8.72.19-12.91,1.14-6.78,1.53-14,2.06-20.77,3.82A72,72,0,0,1,375,379c-4.29.39-7.38,3.7-11.49,4.12"/><path d="M373.43,380l-15,0c-5.16,0-10-.92-15.15-1.56-4.2-.52-8.43-.21-12.64-.72a121.85,121.85,0,0,1-16.78-3.67q-6.94-1.85-13.95-3.47c-5.24-1.22-10.91-1.85-15.68-4.43-4-2.15-7.65-4.79-11.68-6.86s-8.46-4.06-12.66-6.14a77.78,77.78,0,0,1-21.75-15.48c-3.39-3.44-6.72-6.93-10.32-10.15s-7.78-6-11.33-9.32c-6.67-6.36-11.57-15-16.21-22.89s-8.9-15.7-11.29-24.65a148.8,148.8,0,0,1-4.26-27.08c-.66-8.77-2.75-17.12-2.71-26,0-9.89.36-19.95,2.7-29.59,2.29-9.48,5.3-18.89,8.43-28.12a278.94,278.94,0,0,1,12.08-29.88c4.17-8.82,7.34-18,11.33-26.92a81.52,81.52,0,0,1,15.83-23.49c6.26-6.51,12.94-13.48,20.45-18.52,3.33-2.24,7-3.94,10.15-6.39,4-3,7.62-6.33,11.79-9.12,8.53-5.69,17.33-11.09,26.83-15s20-7.91,30.18-10a285.17,285.17,0,0,1,30.12-4.2,265.3,265.3,0,0,1,30.24-.77c10.68.18,20.95.61,31.4,3.07,9.82,2.32,19.5,5.21,29.29,7.66a275.11,275.11,0,0,1,28.32,8.18c4.52,1.65,9,3.45,12.87,6.31,4.06,3,7.37,6.87,10.89,10.45,7.33,7.47,14.44,14.84,20.57,23.36,5.34,7.42,11.13,14.64,15.7,22.58a134.09,134.09,0,0,1,11.33,26.25c2.75,8.62,4.78,17.45,7.45,26.11,3.06,9.87,3.47,20.12,4.16,30.38.67,10.06,1,20.09-.61,30.08a174.68,174.68,0,0,1-7.76,29.21c-3.13,9-6.33,18.09-9.79,27a67.85,67.85,0,0,1-6.13,11.62,131.63,131.63,0,0,0-6.14,11.78c-8.55,17-23.28,30.28-37.72,42.3-7.69,6.4-16,10.65-24.9,15.06-8.68,4.29-16.91,9.42-25.7,13.5-9.49,4.4-20.22,8.8-30.8,9.12-9.23.29-19,2.38-28,4.48-4.57,1.06-9.35,1.1-13.87,2.21-3.55.88-6.46,3.25-10.09,3.9-3.8.67-2.19,6.46,1.59,5.78,4-.72,7.3-3.36,11.32-4,5.11-.86,10.13-1.56,15.21-2.67,4.89-1.07,9.87-1.62,14.78-2.53,5.43-1,11-.73,16.34-1.83,20.69-4.24,38.17-15.95,56.88-25A108,108,0,0,0,503,333.8c7.74-6.73,15.75-13.71,22.48-21.47a93.91,93.91,0,0,0,14.73-22.46c3.81-8.42,9.27-15.69,12.45-24.45,6.89-19,14.73-38,17.28-58.15,1.38-10.92.64-21.91-.21-32.85-.78-10-1.7-19.33-4.76-29-5.92-18.63-9.87-37.21-20.29-54.09C533.85,73.75,520.24,58.54,506,43.73A56.24,56.24,0,0,0,484.5,29.37c-10.33-3.94-21.1-6.59-31.81-9.26-10.09-2.52-20.05-5.62-30.21-7.83C412.11,10,401.81,9.76,391.24,9.59c-11-.17-22.06-.14-33,1.2-9.85,1.21-20.14,2.09-29.8,4.4-20.82,5-40.54,14.27-58.16,26.27-3.85,2.62-7.22,5.76-10.92,8.55-4,3.05-8.67,5.17-12.71,8.25a160.76,160.76,0,0,0-20.09,18.87c-14,15.16-19.63,34.93-28.07,53.31-8.66,18.84-16.17,39.27-20.34,59.63-2,9.54-2.18,19.63-2.1,29.35s2.24,18.84,2.9,28.37c.33,4.69,1.58,9.26,2.2,13.92a84.63,84.63,0,0,0,2.74,13c2.54,8.53,6.76,16.09,11.24,23.72,4.9,8.33,10.11,17.37,17.15,24.11,3.32,3.17,7.2,5.7,10.65,8.72,4.08,3.58,7.81,7.54,11.64,11.4a78.88,78.88,0,0,0,21.59,15.41c4.44,2.21,9,4.24,13.39,6.5s8.58,5.39,13.12,7.62c4,2,8.52,2.64,12.87,3.63,5.92,1.35,11.82,2.79,17.68,4.37a130.49,130.49,0,0,0,14.86,3.29c5.24.77,10.5.42,15.72,1.14,10,1.37,19.56,1.47,29.63,1.44,3.86,0,3.87-6,0-6Z"/><circle cx="398.39" cy="190.82" r="4.74"/><path d="M396.82,180.64c6.16-.76,15.05-.24,15.65,7.84.57,7.66-6.9,11.63-13.6,11-2.42-.22-5.44-.31-7.6-1.4-2.77-1.4-3.4-4.66-3.2-7.55.35-5.12,4.35-8.86,9.15-10,1.88-.43,1.08-3.33-.8-2.89a14.15,14.15,0,0,0-11.24,15c.42,8.38,8.4,10.23,15.83,10,7.83-.24,14.88-5.94,14.46-14.19-.5-9.88-10.7-11.83-18.65-10.84C394.93,177.88,394.9,180.88,396.82,180.64Z"/><path d="M349.55,180.64c6.16-.76,15.05-.24,15.65,7.84.57,7.66-6.9,11.63-13.6,11-2.42-.22-5.44-.31-7.6-1.4-2.77-1.4-3.4-4.66-3.2-7.55.35-5.12,4.35-8.86,9.15-10,1.88-.43,1.08-3.33-.8-2.89a14.15,14.15,0,0,0-11.24,15c.42,8.38,8.4,10.23,15.83,10,7.83-.24,14.88-5.94,14.46-14.19-.5-9.88-10.7-11.83-18.65-10.84C347.66,177.88,347.63,180.88,349.55,180.64Z"/><circle cx="350.18" cy="190.82" r="4.74"/><path d="M394.3,161.89c-1.32,0-2.78-.13-3.81.87a3.35,3.35,0,0,0-.63,3.82c1.13,2,4.4,1.77,6.31,1.37,2.31-.48,5.53-3.06,3.22-5.48-1.59-1.67-5.71-2.08-7.33-.26-1.19,1.34,0,3,1.34,3.67a3.78,3.78,0,0,0,4.26-.65,1.51,1.51,0,0,0-.66-2.5l-.41-.16c-1.82-.68-2.6,2.22-.8,2.89l.41.16-.66-2.51c-.18.18-.39.14-.64.12a1,1,0,0,1-.34-.11c-.2-.11,0,.3-.06-.16l-.39,1.45c.57-.69,2-.18,2.76-.11.52,0,0,.42.3-.09.08-.13-.26.21-.31.23a5.46,5.46,0,0,1-1.52.62c-.93.15-1.88-.08-2.77,0-.54,0-.09-.25-.12,0s.19-.12.07-.11c.59,0,1.17-.06,1.78-.06a1.5,1.5,0,0,0,0-3Z"/><path d="M359.32,161.89c-1.32,0-2.78-.13-3.81.87a3.35,3.35,0,0,0-.63,3.82c1.13,2,4.4,1.77,6.31,1.37,2.31-.48,5.53-3.06,3.22-5.48-1.59-1.67-5.71-2.08-7.33-.26-1.19,1.34,0,3,1.35,3.67a3.77,3.77,0,0,0,4.25-.65,1.51,1.51,0,0,0-.66-2.5l-.41-.16c-1.82-.68-2.6,2.22-.8,2.89l.41.16-.66-2.51c-.18.18-.39.14-.64.12a1,1,0,0,1-.34-.11c-.2-.11,0,.3-.06-.16l-.39,1.45c.57-.69,2-.18,2.76-.11.52,0,0,.42.3-.09.08-.13-.26.21-.31.23a5.46,5.46,0,0,1-1.52.62c-.93.15-1.88-.08-2.77,0-.54,0-.09-.25-.12,0s.19-.12.07-.11c.59,0,1.17-.06,1.78-.06a1.5,1.5,0,0,0,0-3Z"/><path d="M581,198.39c.5-10.91.53-20.82-1.47-31.59-1.87-10-2.63-20.16-4.85-30.12a138.22,138.22,0,0,0-9.37-28.33,329.77,329.77,0,0,0-15.87-29c-5.57-9.34-12.58-17.76-19.11-26.43-12.58-16.7-33.85-23.2-52.64-30.45-10.4-4-20.56-8.71-31.14-12.25C436.28,6.78,425.72,5.37,415,3.88,403.55,2.28,392,.94,380.37,1.05c-10.68.1-21.86-.58-32.45,1a197.71,197.71,0,0,0-61.85,19.62c-4.42,2.28-8.38,5.22-12.7,7.65-4.58,2.57-9.61,4.17-14.16,6.83A169.35,169.35,0,0,0,235.5,53.56c-16.25,13.93-24.65,33.75-35.7,51.62-11.43,18.51-21.94,38.83-28.87,59.5-3.12,9.31-4.59,19.33-5.79,29-1.31,10.57-.44,21.12-.84,31.72-.18,4.65.51,9.3.54,14a88.15,88.15,0,0,0,1.17,14c1.57,9.4,5.09,18,8.86,26.69,4,9.21,8.26,19.33,14.78,27.09,3.35,4,7.34,7.41,10.74,11.36,3.83,4.44,7.24,9.2,10.86,13.81,5.71,7.27,12.41,12.72,20.09,17.78,4.21,2.77,8.52,5.38,12.67,8.23,4.58,3.14,8.6,7.19,13.38,10,4.34,2.58,9.43,3.88,14.15,5.62,5.52,2,11,4.16,16.44,6.37a131.87,131.87,0,0,0,13.78,4.89c5,1.4,10.16,1.73,15.19,2.94,4.87,1.18,9.51,2.89,14.5,3.59,5.84.82,31-2.17,36.29-2.67s10.83-.42,16.25-.76c5.7-.35,11.32.68,17,.23,21.95-1.75,41.42-11.56,61.94-18.48A115.27,115.27,0,0,0,491.15,356c8.6-5.81,17.49-11.8,25.26-18.69a99,99,0,0,0,18.91-22.12c5.2-8.5,12-15.57,16.48-24.57,9.62-19.12,20.37-37.89,25.48-58.86C579.94,220.87,580.49,209.57,581,198.39Zm-21.46,29.7c-4.49,18.95-14.14,35.69-22.69,53A78.25,78.25,0,0,1,530,292.9c-2.71,3.68-5.83,7-8.24,10.88a94.9,94.9,0,0,1-16.8,20.3c-6.81,6.25-14.68,11.53-22.27,16.77a104.1,104.1,0,0,1-25.55,13.41c-19.08,6.56-37.38,15.51-57.74,17.47-5.27.5-10.46-.51-15.74-.16-4.78.32-9.58.24-14.35.64s-15.85,4.74-18.15,4.46c-5.33-.64-10.69-1.2-16-1.94-4.53-.62-8.76-2.17-13.19-3.24-5.07-1.22-10.22-1.62-15.25-3.11-4.41-1.3-8.66-3-12.91-4.76-5.4-2.18-10.84-4.23-16.3-6.21-4.07-1.47-8.12-2.7-11.71-5.18s-7-5.71-10.8-8.27-7.91-5.09-11.84-7.68a73.1,73.1,0,0,1-17.74-15.9c-3.39-4.32-6.59-8.79-10.21-12.93-3.07-3.53-6.69-6.58-9.65-10.2-5.9-7.22-9.78-16.44-13.45-24.93-3.36-7.79-6.46-15.46-7.86-23.87a79.8,79.8,0,0,1-1.08-12.72c0-4.19-.65-8.4-.5-12.59.34-9.14-.43-18.3.58-27.42,1-8.75,2.28-17.86,4.88-26.29,2.84-9.23,7.14-18.11,11.19-26.87a281.33,281.33,0,0,1,14.16-26.69c5.39-9,10.56-18,15.78-27a84.59,84.59,0,0,1,17.18-21.6A158.21,158.21,0,0,1,268.18,51C272,48.64,276,47.12,280,45.22c4.33-2,8.1-5.13,12.33-7.38,17.85-9.53,36.57-15,56.43-18.39,9.9-1.7,20.41-1,30.41-1.12a208.41,208.41,0,0,1,30.36,2.32c9.81,1.34,19.63,2.52,29.08,5.55,10,3.21,19.57,7.68,29.36,11.46,16.93,6.54,36.67,12.4,48.09,27.4,6.08,8,12.54,15.82,17.72,24.42,4.79,8,9.46,16.27,13.6,24.59a120.5,120.5,0,0,1,9,25.57c2.22,9.17,2.93,18.48,4.59,27.73.93,5.24,2.12,10.46,2.27,15.8.13,4.61-.27,9.26-.47,13.86C562.36,207.41,561.94,218,559.54,228.09Z"/><path d="M184.78,145.78c-6.37-4-13.15-7.4-19.6-11.3-3.79-2.3-6.52-5.26-9.93-8.09-5.18-4.3-10.95-7.84-16.48-11.64-8.33-5.74-18,.84-20.82,9.61-1.21,3.71-1,8.08,3,9.86,5.09,2.27,10.21-.58,13.84-4.06,2.79-2.68-1.46-6.92-4.24-4.24a11.36,11.36,0,0,1-2.75,2.24c-1.08.5-4,1-4.53-.66-.47-1.38,1.84-4.18,2.6-5.16,3.14-4,6.32-4.85,10.44-1.94,3.78,2.67,7.72,5.08,11.46,7.82,3.4,2.5,6.22,5.46,9.42,8.15,7.21,6.06,16.61,9.59,24.54,14.59,3.28,2.06,6.29-3.13,3-5.18Z"/><path d="M140.75,163.33c3.08.72,5.58,1.14,8.16,3.08,2.79,2.09,5.86,3.9,8.77,5.82,2.45,1.61,5,3,7.5,4.56,3.24,2.07,5.91,4.89,9.19,6.93l2.31-5.49-.42-.14c-3.66-1.25-5.23,4.54-1.59,5.79l.41.14c3.31,1.13,5.12-3.74,2.31-5.49-3.25-2-5.94-4.85-9.18-6.92s-6.43-3.86-9.57-5.85c-2.85-1.81-5.45-4.11-8.32-5.83-2.43-1.45-5.26-1.75-8-2.38-3.76-.88-5.36,4.91-1.6,5.78Z"/><path class="cls-1" d="M515.72,216.11c-1.52-.45-3-.67-4.56-1a17.75,17.75,0,0,1-5.47-2.37c-3.19-2-5.46-6.28-6-10-.58-4,1.71-8.17,4.35-11,2.8-3,6.87-4.74,10.68-6a12.85,12.85,0,0,1,9.85.64,13.15,13.15,0,0,1,6.57,7.58c1,3.15,1.88,7.09,1.26,10.37a20.19,20.19,0,0,1-1.27,4.09,8.72,8.72,0,0,1-2.14,2.59,19.65,19.65,0,0,1-3.86,2.85,20.26,20.26,0,0,1-4.75,1.66,10.18,10.18,0,0,1-3.07.23c-.72,0-2.34.29-2.84-.32"/><path class="cls-1" d="M229.58,216.11c-1.52-.45-3-.67-4.56-1a17.85,17.85,0,0,1-5.47-2.37c-3.19-2-5.46-6.28-6-10-.59-4,1.71-8.17,4.35-11,2.79-3,6.86-4.74,10.67-6a12.85,12.85,0,0,1,9.85.64A13.15,13.15,0,0,1,245,194c1,3.15,1.88,7.09,1.27,10.37a20.87,20.87,0,0,1-1.28,4.09,8.72,8.72,0,0,1-2.14,2.59,19.89,19.89,0,0,1-3.85,2.85,20.34,20.34,0,0,1-4.76,1.66,10.18,10.18,0,0,1-3.07.23c-.72,0-2.34.29-2.84-.32"/><path class="cls-1" d="M373,355.44c-1.52-.46-3-.67-4.56-1a18,18,0,0,1-5.47-2.37c-3.2-2-5.46-6.28-6-10-.59-4,1.71-8.17,4.35-11,2.8-3,6.87-4.73,10.67-6a13,13,0,0,1,9.86.64,13.23,13.23,0,0,1,6.57,7.59c.95,3.14,1.88,7.09,1.26,10.37a20.84,20.84,0,0,1-1.27,4.09,8.88,8.88,0,0,1-2.14,2.59,16.35,16.35,0,0,1-8.61,4.5,10.18,10.18,0,0,1-3.07.23c-.72,0-2.34.3-2.84-.31"/><path class="cls-1" d="M373,73.08c-1.52-.46-3-.68-4.56-1A18.24,18.24,0,0,1,363,69.7c-3.2-2-5.46-6.29-6-10-.59-4,1.71-8.17,4.35-11,2.8-3,6.87-4.73,10.67-6a12.87,12.87,0,0,1,9.86.64A13.17,13.17,0,0,1,388.43,51c.95,3.14,1.88,7.09,1.26,10.37a21.05,21.05,0,0,1-1.27,4.09A9,9,0,0,1,386.28,68a20.33,20.33,0,0,1-3.86,2.84,19.39,19.39,0,0,1-4.75,1.66,10.18,10.18,0,0,1-3.07.23c-.72,0-2.34.3-2.84-.31"/><path d="M4.68,81.79c2.1-1.56,4.67-2.12,7-3.14a68.4,68.4,0,0,0,7.37-4.26,137.35,137.35,0,0,1,19.37-9.88c6-2.35,12-4.63,17.91-7.16,3.75-1.61,7.68-2.67,11.43-4.25,3.34-1.41,5.64-3.7,8.91-1.41A124.12,124.12,0,0,1,91.76,64.88c4.91,4.84,8.59,10.44,12.94,15.75,2.33,2.84,4.81,5.55,7.13,8.39s3.91,6.22,6.1,9.2c1.71,2.33,3.72,4.09,5.25,6.6a48.83,48.83,0,0,1,4.44,9.66c1,3,6.15,2.76,5.89-.8l0-.45c-.28-3.83-6.28-3.86-6,0l0,.45,5.9-.8a52.88,52.88,0,0,0-9.9-17.31c-2.26-2.71-3.73-6-5.88-8.85-2.34-3.09-5-5.93-7.51-8.91-5-6-9.14-12.28-14.72-17.77a108.26,108.26,0,0,0-8.94-8c-2.65-2.07-5.06-4.74-7.8-6.62C73.34,41.72,66.05,47.45,61,49.23,53.66,51.8,46.58,55,39.33,57.77a139.52,139.52,0,0,0-20,9.57c-3.39,2-6.77,4.48-10.37,6-2.48,1-5.12,1.67-7.31,3.28-3.07,2.28-.08,7.49,3,5.19Z"/><path d="M1.05,81.32c7.18,5.58,12.78,12.7,18,20.06,5.9,8.25,12.36,16.09,18.75,24,6.7,8.24,11.87,16.44,15.54,26.45,3.36,9.16,6.21,18.53,9.29,27.78,3,9,4.43,18.37,6.85,27.5,2.19,8.28,10.34,1.55,15.36-.19,9-3.13,18.2-5.88,27.19-9.16,4.82-1.76,9.86-2.71,14.79-4.1,3.22-.91,8.45-1.42,11-3.79,2.8-2.56,1.65-7.29,2.11-10.59a86.47,86.47,0,0,0,1.08-13.14c-.14-9.75,1.34-20.16-1.51-29.62-1.11-3.69-6.9-2.12-5.78,1.59,2.36,7.88,1.22,16.6,1.25,24.72a94.73,94.73,0,0,1-.55,11.55c-.19,1.67-.42,3.36-.6,5s.58,4.83-.69,6.15c-.91,1-4,1.2-5.32,1.58-2,.57-4,1.19-6.09,1.72-4.68,1.21-9.2,2.4-13.76,4-8.48,3-17.1,5.56-25.57,8.56a45.14,45.14,0,0,0-4.75,1.89,9.85,9.85,0,0,0-2.38,1.32c-.93,1.21.66,2.75,0,.88-1.57-4.28-1.9-9.21-3.11-13.61-2.3-8.36-4.68-16.54-7.41-24.78-2.65-8-5-16.07-8.36-23.79S48.53,129,43.25,122.53c-6.84-8.44-13.78-16.81-20-25.69C18.08,89.56,12.34,82.56,5.29,77.07,2.28,74.73-2,79,1.05,81.32Z"/><path d="M33.27,64.07c.93-11.89-3.7-23.31-3.06-35.19L28,31.78c16.81-4.81,34.28-6.43,51.72-6.2,8.19.11,16.36.64,24.5,1.53,5.81.63,13,.72,18,4.12,6.16,4.18,6.32,14.92,7.45,21.58Q131.94,66,133.07,79.4c.51,6.08.82,12.16,1.36,18.24.31,3.52,2.1,11.63-.24,14.71s2.88,6.07,5.18,3c2.11-2.77,1.68-7.38,1.56-10.64-.18-4.64-.79-9.24-1.11-13.87a389.68,389.68,0,0,0-5.28-45c-1-5.56-1.6-11.86-5.37-16.37-3-3.65-7.48-5.53-12-6.55-12.9-2.89-26.93-3.3-40.09-3.33-17,0-34.21,1.74-50.63,6.43a3.1,3.1,0,0,0-2.21,2.89c-.64,11.89,4,23.31,3.06,35.19-.3,3.85,5.7,3.83,6,0Z"/><path d="M40.1,88.64c3.61-4.08,8.88-6.73,13.76-9,5.21-2.39,11-4.73,16.82-5.09l-.76-2.79c.62-.31-.46-.21-.62-.21-1.94,0-1.94,3,0,3a4.55,4.55,0,0,0,2.14-.2,1.52,1.52,0,0,0-.76-2.8C64.75,72,59,74.15,53.59,76.52,48.06,79,42.06,81.91,38,86.51c-1.27,1.45.84,3.58,2.12,2.13Z"/><path d="M46.53,98.24c3.61-4.07,8.88-6.72,13.75-9,5.21-2.4,11-4.73,16.82-5.09l-.75-2.8c.61-.3-.47-.2-.63-.21-1.93,0-1.93,3,0,3a4.43,4.43,0,0,0,2.14-.2,1.51,1.51,0,0,0-.76-2.79c-5.92.37-11.7,2.56-17.09,4.94s-11.53,5.39-15.6,10c-1.28,1.44.83,3.57,2.12,2.12Z"/><path d="M52.76,105.47c8.88-7.59,20.42-10.2,30.58-15.53,1.71-.89.19-3.48-1.52-2.59-10.43,5.47-22,8.2-31.18,16-1.47,1.26.66,3.37,2.12,2.13Z"/><path d="M56.35,113.34c8.88-7.58,20.42-10.19,30.58-15.52,1.71-.89.19-3.48-1.52-2.59-10.43,5.47-22,8.19-31.18,16-1.47,1.26.66,3.37,2.12,2.12Z"/><path d="M59,122.24c12.08-3.89,22.67-11.19,33.76-17.17,1.7-.92.19-3.51-1.51-2.59-10.85,5.85-21.23,13.06-33.05,16.87-1.83.58-1,3.48.8,2.89Z"/><path d="M66.85,129.42c7.84,8.8,9.55,20.74,13.61,31.42a1.52,1.52,0,0,0,1.84,1c6.6-2.23,12.84-5.37,19.45-7.54a45.22,45.22,0,0,1,10.67-2.28c1.8-.14,4,.56,5-1.22a1.52,1.52,0,0,0-.89-2.21l-.59-.14c-1.75-.78-3.28,1.81-1.52,2.59a5.64,5.64,0,0,0,1.31.45l-.9-2.21c.15-.25-7,.32-7.74.47a55.19,55.19,0,0,0-8.36,2.44c-5.8,2.12-11.37,4.78-17.22,6.75l1.84,1C79.09,148.8,77.22,136.56,69,127.3c-1.28-1.44-3.4.68-2.12,2.12Z"/><path d="M83.91,158a40.16,40.16,0,0,1,.54-10.78c.58-3,1.94-4.07,5.3-3.85,2.32.15,4,1.06,6.43.93a1.56,1.56,0,0,0,1.5-1.5c.84-6.74,3.48-13.22,2.61-20.09-.23-1.89-3.24-1.91-3,0,.87,6.8-1.78,13.39-2.61,20.09l1.5-1.5c-4.81.27-10.94-4-13.79,2.06-1.93,4.11-1.86,10.23-1.48,14.64.16,1.91,3.16,1.93,3,0Z"/><path d="M359.2,52.79V50.1a16.91,16.91,0,0,0,2.61-.24,3.73,3.73,0,0,0,1.94-1.06,3.42,3.42,0,0,0,.77-1.44,3.38,3.38,0,0,0,.15-.8H368V66.64h-4.05V52.79Z"/><path d="M374.82,62.69a11.29,11.29,0,0,1,4-4.25,27.75,27.75,0,0,0,3.53-2.8,4.12,4.12,0,0,0,1.24-2.88,3.21,3.21,0,0,0-.71-2.12,2.5,2.5,0,0,0-2-.84,2.47,2.47,0,0,0-2.45,1.34,6.73,6.73,0,0,0-.45,2.47h-3.83a9.68,9.68,0,0,1,.92-4.14q1.59-3,5.62-3a7.09,7.09,0,0,1,5.07,1.77,6.07,6.07,0,0,1,1.89,4.67,6.35,6.35,0,0,1-1.33,4,13.18,13.18,0,0,1-2.88,2.56l-1.58,1.13c-1,.7-1.66,1.21-2,1.52a4.59,4.59,0,0,0-.92,1.09h8.77v3.48H373.9A9.36,9.36,0,0,1,374.82,62.69Z"/><path d="M375.52,336.18a2,2,0,0,0-.37-1.07,2.2,2.2,0,0,0-1.93-.94,2.85,2.85,0,0,0-2.74,2.16,13.68,13.68,0,0,0-.61,3.52,4.36,4.36,0,0,1,1.71-1.27,5.66,5.66,0,0,1,2.21-.41,5.76,5.76,0,0,1,4.38,1.82,6.48,6.48,0,0,1,1.71,4.64,7.84,7.84,0,0,1-1.67,5,6.2,6.2,0,0,1-5.21,2.14,6,6,0,0,1-5.59-3.17,12.83,12.83,0,0,1-1.4-6.4,29.1,29.1,0,0,1,.19-3.74,11.25,11.25,0,0,1,1.35-4.26,6.82,6.82,0,0,1,2.25-2.34,6,6,0,0,1,3.33-.89,6.63,6.63,0,0,1,4.46,1.43,5.45,5.45,0,0,1,1.86,3.82Zm-4.68,11.31a2.77,2.77,0,0,0,2.22,1,2.48,2.48,0,0,0,2.07-1,4.15,4.15,0,0,0,.75-2.57,3.8,3.8,0,0,0-.86-2.69,2.72,2.72,0,0,0-2.1-.94,2.81,2.81,0,0,0-1.79.61,3.46,3.46,0,0,0-1.16,2.91A3.93,3.93,0,0,0,370.84,347.49Z"/><path d="M224.77,193a6.34,6.34,0,0,1,4.84-2,6.24,6.24,0,0,1,6.29,4.06,15.71,15.71,0,0,1,1,6.05,17.2,17.2,0,0,1-.93,6.08q-1.77,4.64-6.51,4.64a6.63,6.63,0,0,1-4.05-1.34,5.29,5.29,0,0,1-2.07-3.9h3.94a2.39,2.39,0,0,0,.74,1.44,2.33,2.33,0,0,0,1.62.56,2.83,2.83,0,0,0,2.75-2.16,13.2,13.2,0,0,0,.54-3.48,4.41,4.41,0,0,1-1.15,1,5.26,5.26,0,0,1-2.73.66,6.19,6.19,0,0,1-4.25-1.65,6,6,0,0,1-1.86-4.77A7.37,7.37,0,0,1,224.77,193Zm6.64,8a3.26,3.26,0,0,0,1.35-3,4.23,4.23,0,0,0-.8-2.7,2.65,2.65,0,0,0-2.18-1,2.7,2.7,0,0,0-1.73.56,3.6,3.6,0,0,0-1.14,3,4.22,4.22,0,0,0,.73,2.68,2.73,2.73,0,0,0,2.24.89A2.78,2.78,0,0,0,231.41,201Z"/><path d="M512.8,205.12a4.51,4.51,0,0,0,.39,2,2.65,2.65,0,0,0,2.61,1.45,2.9,2.9,0,0,0,2-.79,3,3,0,0,0,.86-2.3,2.57,2.57,0,0,0-1.6-2.64,8.09,8.09,0,0,0-2.87-.38v-2.82a7.42,7.42,0,0,0,2.67-.37,2.31,2.31,0,0,0,1.31-2.36,2.65,2.65,0,0,0-.66-1.87,2.46,2.46,0,0,0-1.89-.72,2.39,2.39,0,0,0-2,.89,3.74,3.74,0,0,0-.63,2.37h-3.68a9.46,9.46,0,0,1,.51-2.84,6.39,6.39,0,0,1,1.52-2.18,5.36,5.36,0,0,1,1.84-1.08,7.93,7.93,0,0,1,2.61-.37,6.94,6.94,0,0,1,4.65,1.49,5,5,0,0,1,1.76,4,4.42,4.42,0,0,1-1,3,3.59,3.59,0,0,1-1.39,1,2.83,2.83,0,0,1,1.55.93,4.94,4.94,0,0,1,1.51,3.82,6.47,6.47,0,0,1-1.76,4.48,6.72,6.72,0,0,1-5.22,1.93c-2.84,0-4.82-.92-5.92-2.78a8.12,8.12,0,0,1-1-3.88Z"/><circle class="cls-3" cx="373.01" cy="200.73" r="174.88"/><path d="M372.47,33.55a3.31,3.31,0,0,0-3.77,2.12c-.93,3,2.33,3.49,4.52,3.32,6.68-.52,1.56-9.17-1.93-5.2"/><path d="M456.26,55.73a3.31,3.31,0,0,0-4.32,0c-2.31,2.13.27,4.18,2.25,5.13,6,2.9,5.94-7.15.93-5.47"/><path d="M517.69,116.89a3.31,3.31,0,0,0-3.72-2.21c-3.06.69-1.86,3.75-.62,5.56,3.77,5.54,8.73-3.21,3.54-4.26"/><path d="M540.23,200.58a3.29,3.29,0,0,0-2.11-3.77c-3-.94-3.49,2.31-3.33,4.5.5,6.68,9.17,1.59,5.21-1.91"/><path d="M517.84,284.32a3.33,3.33,0,0,0,.07-4.33c-2.13-2.31-4.19.26-5.14,2.23-2.92,6,7.13,6,5.46.95"/><path d="M456.53,345.58a3.31,3.31,0,0,0,2.22-3.71c-.68-3.06-3.75-1.87-5.57-.64-5.54,3.77,3.2,8.74,4.26,3.56"/><path d="M372.78,367.92a3.33,3.33,0,0,0,3.78-2.1c.94-3-2.31-3.5-4.5-3.34-6.68.48-1.61,9.16,1.9,5.21"/><path d="M289.1,345.31a3.31,3.31,0,0,0,4.32.08c2.32-2.12-.24-4.19-2.22-5.15-6-2.93-6,7.13-1,5.46"/><path d="M228,283.84a3.3,3.3,0,0,0,3.7,2.23c3.07-.67,1.89-3.74.66-5.56-3.75-5.55-8.75,3.17-3.57,4.24"/><path d="M205.87,200a3.31,3.31,0,0,0,2.09,3.78c3,1,3.5-2.3,3.35-4.49-.46-6.68-9.16-1.63-5.21,1.89"/><path d="M228.69,116.42a3.31,3.31,0,0,0-.09,4.32c2.11,2.32,4.18-.24,5.15-2.21,2.94-6-7.11-6-5.46-1"/><path d="M290.31,55.46a3.32,3.32,0,0,0-2.24,3.7c.67,3.07,3.74,1.89,5.56.67,5.56-3.74-3.15-8.76-4.23-3.58"/></g></svg>