<svg xmlns="http://www.w3.org/2000/svg" viewBox="0 0 557.74 472.53"><defs><style>.cls-1{fill:#d1ccc7;}.cls-2{fill:#f3eee8;}.cls-3{fill:none;}</style></defs><title>clock-2</title><g id="圖層_1" data-name="圖層 1"><path class="cls-1" d="M298.75,432.14C277,424.86,194.45,443.22,213,460.53c6,5.58,26.72,5.88,35.53,6.62,19.65,1.65,40,2.37,59.85,2.22,39.31-.31,82-.1,120.33-6.49,17.61-2.95,64.77-22,40.56-35.94-29.7-17.1-83.6-6.29-118-4.18-13.72.84-48.13-.49-55.41,8.75"/><path class="cls-1" d="M299.54,429.24c-13.17-4.19-29.27-1.28-42.52,1.11-14.26,2.57-30.9,6-42.89,14.74-3.42,2.47-6.95,6-6.81,10.53.19,6.12,6.31,9.5,11.47,11,9,2.65,18.72,2.72,28,3.38,14.73,1.06,29.43,2,44.21,2.27,30.59.55,61.43.24,92-1.55,22.69-1.33,46.22-2.69,67.5-11.34,9.15-3.73,32.77-13.23,28-27-2.52-7.22-12.07-10.65-18.59-12.86-10.28-3.48-21.31-4.64-32.11-5-26.22-.81-52,4.06-78.15,5.3-10.33.5-20.68.35-31,1.37-8,.79-19.25,1.58-24.93,8.18-2.5,2.91,1.72,7.17,4.25,4.24,4.53-5.28,14.29-5.79,20.68-6.42,8.75-.87,17.55-1,26.33-1.2,19.12-.53,38.11-3.55,57.19-4.83,20-1.35,42.53-2.36,61.26,6.12,4.84,2.19,12.47,5.91,8.17,12-3.84,5.45-11,8.9-16.8,11.69-17.44,8.36-35.91,10.8-55,12.51-26.72,2.38-53.58,2.6-80.39,2.78-25.66.18-51.05-.92-76.65-2.54-4.2-.26-36.36-1.48-27.84-11.43,3.81-4.45,10.56-6.89,15.87-8.85a158.92,158.92,0,0,1,23.67-6.53,170.06,170.06,0,0,1,24.72-3.28c6.2-.32,12.83-.54,18.82,1.37,3.69,1.17,5.27-4.62,1.59-5.79Z"/><path class="cls-1" d="M316.19,385.12a24,24,0,0,0-.05,3.79c.24,1.39.91,2.32,1,3.78.2,2.93,0,6,0,8.91,0,3.65,0,7.29,0,10.94,0,2,.8,5.4-.66,6.9-.76.77-2.12,1-3.07,1.54-1.77,1-3.14,2.74-5,3.66-3.22,1.61-7.08,2.13-10.18,4.14-2,1.32-4.85,5.69-1,6.52a23.22,23.22,0,0,0,7.53-.28c2.79-.51,5.77-1.55,8.56-1.7,2.17-.12,4.42,0,6.6,0a21.72,21.72,0,0,0,4.77-.21c1.09-.24,3.94-.66,4.61-1.56,1.08-1.45.09-7.76.09-9.61,0-6.2.95-11.9.95-18.14,0-3.15,0-6.31,0-9.47a24.28,24.28,0,0,1,.21-4.68c.35-1.88,1.26-3.41.64-5.39-2-.58-4.88-.1-7-.1-1.85,0-4.22-.36-6,.16l-.16.78"/><path d="M313.19,385.12c-.17,3.62.95,6.67,1,10.23.11,4.5-.1,9-.1,13.54,0,3,1.06,7.07-1.2,9a32.58,32.58,0,0,1-9.7,5.51c-4.43,1.59-10.33,3.7-10.83,9.25-.54,6,6.43,6.07,10.63,5.61,4-.45,7.87-1.85,12-2,3.53-.14,7,.36,10.53-.25,5-.88,7.34-2.75,7.31-7.93-.05-6.91.11-13.65.44-20.58.21-4.38.08-8.78.1-13.16,0-3.73,1.3-7.17.74-10.87a2.9,2.9,0,0,0-2.1-2.1,45.66,45.66,0,0,0-14.57.07,2.89,2.89,0,0,0-2.09,2.09l-.16.79c-.78,3.76,5,5.38,5.78,1.59l.16-.78L319,387.23a40.17,40.17,0,0,1,11.38-.06l-2.1-2.1c.41,2.7-.95,6.43-.95,9.28,0,3.46.05,6.94,0,10.4-.12,6.26-1.22,12.52-.84,18.78.07,1.17,1,4.94.36,5.84-.9,1.36-5.36,1-6.93,1a54.08,54.08,0,0,0-9.09.27c-3.08.49-6,1.54-9.15,1.8-.22,0-3.64.2-3.65,0,0,.35,3.25-1.91,3.06-1.81,2.52-1.37,5.51-1.79,8.1-3s4.72-3.18,7.12-4.6c1.67-1,2.86-1.7,3.58-3.61s.32-4.19.24-6.24c-.12-3.22,0-6.46,0-9.68,0-3.54.4-7.2,0-10.73-.29-2.69-1.1-4.8-1-7.57.18-3.86-5.82-3.85-6,0Z"/><path class="cls-1" d="M371,385.12a24,24,0,0,0,0,3.79c.25,1.39.92,2.32,1,3.78.2,2.93,0,6,0,8.91v10.94c0,2,.8,5.4-.67,6.9-.76.77-2.12,1-3.07,1.54-1.76,1-3.13,2.74-5,3.66-3.23,1.61-7.09,2.13-10.18,4.14-2,1.32-4.85,5.69-1,6.52a23.29,23.29,0,0,0,7.54-.28c2.78-.51,5.76-1.55,8.55-1.7,2.18-.12,4.42,0,6.6,0a21.81,21.81,0,0,0,4.78-.21c1.08-.24,3.93-.66,4.6-1.56,1.08-1.45.1-7.76.1-9.61,0-6.2.94-11.9.94-18.14,0-3.15,0-6.31,0-9.47a25.11,25.11,0,0,1,.21-4.68c.35-1.88,1.27-3.41.64-5.39-2-.58-4.88-.1-7-.1-1.86,0-4.23-.36-6,.16l-.16.78"/><path d="M368,385.12c-.17,3.62,1,6.67,1.05,10.23.11,4.5-.1,9-.1,13.54,0,3,1.06,7.07-1.2,9a32.76,32.76,0,0,1-9.71,5.51c-4.43,1.59-10.32,3.7-10.83,9.25-.54,6,6.43,6.07,10.63,5.61s7.88-1.85,12-2c3.52-.14,7,.36,10.52-.25,5-.88,7.34-2.75,7.31-7.93,0-6.91.11-13.65.44-20.58.21-4.38.09-8.78.1-13.16,0-3.73,1.3-7.17.74-10.87a2.91,2.91,0,0,0-2.09-2.1,45.65,45.65,0,0,0-14.57.07,2.89,2.89,0,0,0-2.1,2.09l-.16.79c-.78,3.76,5,5.38,5.78,1.59l.17-.78-2.1,2.09a40.17,40.17,0,0,1,11.38-.06l-2.09-2.1c.41,2.7-1,6.43-1,9.28,0,3.46.05,6.94,0,10.4-.11,6.26-1.22,12.52-.84,18.78.07,1.17,1,4.94.36,5.84-.9,1.36-5.35,1-6.93,1a54.11,54.11,0,0,0-9.09.27c-3.08.49-6,1.54-9.15,1.8-.22,0-3.64.2-3.65,0,0,.35,3.25-1.91,3.06-1.81,2.52-1.37,5.51-1.79,8.1-3s4.72-3.18,7.13-4.6c1.67-1,2.86-1.7,3.57-3.61s.32-4.19.24-6.24c-.12-3.22,0-6.46,0-9.68,0-3.54.39-7.2,0-10.73-.29-2.69-1.1-4.8-1-7.57.18-3.86-5.82-3.85-6,0Z"/><path class="cls-2" d="M349.22,394.35c-5.9,0-11.13,3.81-17,3.87-7.1.08-12.88-2.18-19.91-2-7.75.17-16.41-1.79-23.88-3.84-9-2.47-18.28-4.61-27.4-6.59-5.37-1.17-9.2-4.4-13.86-7.12-5.29-3.1-11.07-5.61-16.58-8.32-8.71-4.28-14.65-7.23-21.74-14.18-5.44-5.34-10.53-11-16.38-15.92-4.14-3.48-8.71-6.37-12.23-10.54-8-9.47-15.11-21.95-21.12-32.78-4.14-7.44-7.56-19.31-8.36-27.75-.47-4.88-2.11-9.16-2.2-14.11a65.87,65.87,0,0,0-1.62-13c-2.2-10.84-1.26-24.63-.69-35.62S151,183.5,154.07,173a297.32,297.32,0,0,1,17.13-44.2c5.35-11,8.59-22.58,14.48-33.53,7-12.93,16.22-20.9,26.63-30.83a66.45,66.45,0,0,1,15.18-11c5.25-2.83,9.06-7.27,14-10.61,9.38-6.4,19.48-12.82,29.86-17.31,8.74-3.78,17.55-6.32,26.52-9.45,9.88-3.45,20.1-3.52,30.31-5.27,17.15-3,35.73-2.18,53.28-1.87,15.66.28,30.45,5.52,45.39,9.31,14.74,3.73,30.33,7.21,44.33,13.29a44.25,44.25,0,0,1,14.53,10.72c5.73,6.07,11.95,12,17.52,18.19,6.62,7.35,12.16,16.29,18.2,24.15,11.73,15.26,19.4,35.22,23.76,54.09,2,8.55,6.22,17.78,6.88,26.49.91,11.83,2.09,23.2,2.17,35.19.13,20.17-7.13,41.88-14.44,60.68-2.78,7.12-4.76,14.8-8.3,21.66-2.61,5.06-6.12,9.19-8.31,14.46-4.57,11-13.72,23.49-22.44,31.51-9.05,8.33-17.21,16.61-27.39,23.94-7.9,5.68-17.17,8.92-25.6,13.74a222.6,222.6,0,0,1-31.31,15.37A133.2,133.2,0,0,1,400,386.56c-4.57,1.07-9.17.21-13.57,1.2-7.13,1.61-14.72,2.17-21.84,4a75.71,75.71,0,0,1-13.12,2.09c-4.51.41-7.76,3.89-12.08,4.33"/><path d="M349.22,391.35c-4.37.25-8.2,1.82-12.36,3-5.45,1.58-10.79.35-16.27-.47-4.47-.67-8.9-.51-13.4-.86a94.35,94.35,0,0,1-16.38-3.14c-10.07-2.64-20.67-4.3-30.58-7.44-4.52-1.43-8.31-4.53-12.37-6.86-4.84-2.77-10-5-15-7.45-8.59-4.18-16.37-8.59-23.21-15.36a277.74,277.74,0,0,0-21.48-19.69c-7.66-6.17-13-14.71-18.08-23S160,293.44,157,284.17a84.47,84.47,0,0,1-3.07-13c-.78-5.35-2.05-10.72-2.43-16.09-.68-9.44-2.88-18.62-3-28.12-.13-10.32.05-21.15,2.25-31.26,2.24-10.28,5.58-20.46,8.89-30.45,6.52-19.63,15.59-38.34,23.49-57.43a88.63,88.63,0,0,1,16.66-26.9c6.45-7,13.53-14.26,21.2-19.88,3.42-2.49,7.24-4.28,10.72-6.67,3.95-2.71,7.33-6.15,11.23-8.92a174.62,174.62,0,0,1,27.41-16.21,210.9,210.9,0,0,1,31.76-11.33c9.78-2.71,20.33-3.35,30.37-4.75,10.71-1.49,21.57-1.61,32.36-1.5,11.16.12,22.31,0,33.29,2.31,10.55,2.17,20.84,5.44,31.28,8,9.82,2.45,19.69,4.82,29.31,8,4.95,1.66,10.06,3.36,14.6,6s8.36,6.46,12.07,10.31c7.5,7.8,15.36,15.21,21.86,23.89,12.29,16.41,23.54,32.55,30.15,52.15,3.18,9.42,5.25,19.15,8.24,28.63,3.2,10.13,3.93,20.25,4.7,30.8.75,10.25,1.36,20.59.09,30.82-1.35,10.83-4.32,21.45-7.79,31.77-3.31,9.83-6.95,19.6-10.56,29.32-3.41,9.16-9.1,17.41-13.46,26.14-9,18.1-24.76,32.26-40.14,45-8.09,6.69-16.89,11.11-26.23,15.74-9.18,4.55-17.87,10-27.19,14.27-9.48,4.36-20.49,9-31,9.33-10,.32-20.44,2.43-30.21,4.72-4.37,1-8.71,1.37-13.12,2.09s-7.78,3.56-12.08,4.33c-3.79.68-2.18,6.46,1.6,5.79,4.62-.83,8.28-3.84,13-4.39,5.37-.63,10.51-1.76,15.8-2.87s10.39-1.64,15.55-2.63c5.41-1,10.89-.64,16.27-1.75,21.52-4.46,39.61-16.55,59.09-25.95a114.88,114.88,0,0,0,25.59-16.78c8.22-7.1,16.71-14.51,23.86-22.7a98.39,98.39,0,0,0,15.77-24c4.24-9.38,10.19-17.48,13.65-27.3,7.24-20.59,15.81-40.85,18-62.79,1.09-11.19.09-22.53-.81-33.7-.41-5-.57-10.19-1.41-15.19a112.1,112.1,0,0,0-4.14-15c-3.16-10-5.22-20.29-8.9-30.16a133.81,133.81,0,0,0-13.63-27.42C515.81,70.38,502,54.3,486.64,38.93c-14.74-14.78-37.86-18.25-57.32-23.16C418.56,13.06,408,9.62,397,7.62s-22-1.9-33.09-2a219.46,219.46,0,0,0-33,1.73c-10.63,1.52-21.82,2.11-32.13,5.25-21.53,6.57-42,15.12-60.16,28.57-3.84,2.84-7.2,6.33-11.26,8.87s-8.07,4.7-11.8,7.64A171.24,171.24,0,0,0,194,78.41a92.46,92.46,0,0,0-15.75,25.74c-4.44,10.51-8.8,21-13.45,31.42a304.8,304.8,0,0,0-11.46,29.78c-3.52,10.84-7.34,21.94-9.2,33.2a161.47,161.47,0,0,0-1.55,30.13A89.56,89.56,0,0,0,144,242.83c1,5.41,1.1,10.81,1.88,16.22,1.39,9.7,2.88,19.74,6.11,29,3.1,8.89,8.06,17,12.94,25,5.31,8.71,11,17.77,19,24.24S199.2,351,206.7,358.27c6.81,6.56,14.72,11,23.17,15.06,5,2.43,10.12,4.68,15,7.45,4.09,2.34,7.87,5.3,12.32,7,5,1.87,10.64,2.59,15.86,3.82,5.71,1.36,11.36,2.88,17,4.35a110.09,110.09,0,0,0,13.68,2.76c5.91.75,11.79.49,17.69,1.41,4.34.68,8.77,1.54,13.17.94,5-.68,9.53-3.36,14.64-3.66,3.83-.23,3.86-6.23,0-6Z"/><path class="cls-2" d="M349.89,388.65c-5.61,0-11.23,0-16.84.06-6.75.07-12.25-2.08-18.93-1.93-7.38.16-15.61-1.71-22.72-3.65-8.6-2.35-17.39-4.39-26.06-6.27-5.1-1.11-8.75-4.19-13.18-6.78-5-2.94-10.54-5.33-15.77-7.9-8.28-4.07-13.94-6.89-20.68-13.5-5.18-5.08-10-10.46-15.58-15.14-3.94-3.31-8.29-6.05-11.63-10-7.59-9-14.38-20.88-20.09-31.18-3.94-7.08-7.19-18.36-8-26.39-.44-4.65-2-8.71-2.09-13.43a62.57,62.57,0,0,0-1.53-12.37c-2.1-10.31-1.2-23.42-.66-33.87s4.5-21.8,7.46-31.76a283.18,283.18,0,0,1,16.3-42C185,122,188.1,111,193.7,100.59,200.32,88.3,209.13,80.71,219,71.27a63,63,0,0,1,14.44-10.5c5-2.7,8.61-6.91,13.28-10.1,8.92-6.08,18.54-12.19,28.41-16.46,8.31-3.59,16.69-6,25.22-9,9.39-3.28,19.12-3.34,28.83-5,16.31-2.81,34-2.07,50.68-1.78,14.89.27,28.95,5.25,43.17,8.85,14,3.55,28.84,6.86,42.17,12.65A42.14,42.14,0,0,1,479,50.13c5.45,5.77,11.37,11.4,16.67,17.29,6.29,7,11.56,15.5,17.31,23,11.16,14.51,18.45,33.5,22.6,51.44,1.87,8.14,5.91,16.92,6.54,25.2.86,11.25,2,22.07,2.06,33.47.13,19.18-6.77,39.84-13.73,57.71-2.64,6.78-4.52,14.08-7.89,20.6-2.49,4.82-5.83,8.74-7.91,13.76-4.34,10.49-13.05,22.34-21.34,30-8.61,7.92-16.37,15.8-26.05,22.77-7.52,5.4-16.34,8.49-24.35,13.07A211.88,211.88,0,0,1,413.16,373a127.16,127.16,0,0,1-15.58,4.6c-4.34,1-8.72.2-12.9,1.14-6.78,1.53-14,2.06-20.78,3.83a71.88,71.88,0,0,1-12.47,2c-4.3.39-7.39,3.71-11.49,4.13"/><path d="M349.89,385.65l-15,0c-5.16,0-10.05-.93-15.15-1.56-4.21-.52-8.44-.22-12.65-.72a122,122,0,0,1-16.77-3.67q-6.94-1.86-14-3.47c-5.23-1.22-10.9-1.85-15.67-4.43-4-2.15-7.65-4.8-11.68-6.87s-8.46-4.05-12.66-6.13a78,78,0,0,1-21.75-15.48c-3.39-3.44-6.73-6.93-10.33-10.15s-7.77-6-11.32-9.33c-6.68-6.35-11.58-15-16.21-22.89s-8.9-15.69-11.3-24.65a150.31,150.31,0,0,1-4.26-27.07c-.65-8.77-2.74-17.12-2.7-26,.05-9.9.36-20,2.69-29.6,2.3-9.47,5.31-18.89,8.43-28.12a279.62,279.62,0,0,1,12.08-29.87c4.18-8.82,7.35-18,11.34-26.93a81.47,81.47,0,0,1,15.83-23.48c6.25-6.51,12.94-13.48,20.45-18.53,3.33-2.23,6.95-3.94,10.14-6.38,4-3,7.62-6.34,11.8-9.12,8.52-5.7,17.33-11.1,26.83-15s20-7.91,30.18-10A287.77,287.77,0,0,1,338.4,22a263,263,0,0,1,30.24-.78c10.68.19,20.95.62,31.39,3.08,9.82,2.32,19.51,5.21,29.3,7.65a275.11,275.11,0,0,1,28.32,8.18c4.52,1.66,9,3.45,12.87,6.32,4.06,3,7.37,6.87,10.88,10.45,7.33,7.47,14.45,14.83,20.58,23.35,5.34,7.43,11.13,14.65,15.69,22.59A133.18,133.18,0,0,1,529,129.07c2.75,8.63,4.77,17.46,7.45,26.11,3.06,9.87,3.47,20.13,4.15,30.38.68,10.07,1,20.1-.61,30.09a173.33,173.33,0,0,1-7.75,29.2c-3.13,9-6.33,18.09-9.79,27a67.94,67.94,0,0,1-6.13,11.63,127.78,127.78,0,0,0-6.14,11.78c-8.55,17-23.29,30.27-37.72,42.29-7.7,6.41-16,10.66-24.91,15.06-8.68,4.3-16.9,9.43-25.7,13.51-9.48,4.4-20.22,8.79-30.79,9.12-9.23.29-19,2.38-28,4.47-4.57,1.07-9.35,1.11-13.87,2.22-3.56.88-6.46,3.24-10.1,3.89s-2.18,6.46,1.6,5.79c4-.72,7.29-3.36,11.32-4,5.11-.87,10.12-1.56,15.2-2.67,4.89-1.07,9.87-1.62,14.79-2.53,5.43-1,10.95-.73,16.33-1.83,20.7-4.25,38.18-15.95,56.89-25a107.71,107.71,0,0,0,24.2-16.1c7.75-6.73,15.76-13.71,22.49-21.48a93.71,93.71,0,0,0,14.73-22.46c3.81-8.41,9.26-15.69,12.44-24.45,6.9-19,14.74-38,17.29-58.14,1.38-10.92.64-21.92-.21-32.85-.78-10.06-1.7-19.34-4.77-29-5.92-18.62-9.86-37.2-20.28-54.09-10.86-17.6-24.46-32.8-38.73-47.61A56.13,56.13,0,0,0,461,35c-10.34-3.94-21.1-6.59-31.81-9.26-10.09-2.52-20-5.63-30.21-7.83-10.37-2.25-20.67-2.52-31.25-2.69-11-.18-22.05-.15-33,1.2-9.84,1.21-20.13,2.09-29.79,4.39-20.82,5-40.55,14.27-58.17,26.28-3.84,2.62-7.21,5.76-10.91,8.55-4,3.05-8.67,5.16-12.72,8.25A160.72,160.72,0,0,0,203,82.74C189,97.89,183.39,117.66,175,136c-8.66,18.85-16.18,39.28-20.34,59.64-2,9.54-2.18,19.63-2.1,29.35s2.24,18.84,2.9,28.36c.33,4.7,1.58,9.27,2.2,13.93a84.63,84.63,0,0,0,2.74,13c2.53,8.53,6.75,16.09,11.24,23.72,4.89,8.33,10.11,17.37,17.15,24.1,3.31,3.18,7.2,5.7,10.65,8.73,4.08,3.58,7.81,7.54,11.63,11.39a78.87,78.87,0,0,0,21.6,15.41c4.44,2.21,9,4.24,13.39,6.5s8.58,5.4,13.11,7.62c4.05,2,8.53,2.64,12.88,3.63q8.88,2,17.68,4.37a130.53,130.53,0,0,0,14.86,3.3c5.23.77,10.5.41,15.72,1.13,10,1.38,19.56,1.48,29.63,1.45,3.86,0,3.87-6,0-6Z"/><circle cx="374.85" cy="196.42" r="4.74"/><path d="M373.27,186.25c6.17-.77,15.06-.25,15.66,7.83.57,7.66-6.91,11.64-13.6,11-2.43-.22-5.44-.32-7.6-1.4-2.77-1.4-3.4-4.66-3.2-7.56.35-5.12,4.34-8.85,9.14-10,1.88-.44,1.09-3.33-.79-2.9a14.15,14.15,0,0,0-11.24,15c.42,8.37,8.4,10.23,15.82,10,7.84-.24,14.89-5.94,14.47-14.2-.5-9.87-10.7-11.82-18.66-10.83C371.38,183.48,371.36,186.49,373.27,186.25Z"/><path d="M326,186.25c6.17-.77,15.06-.25,15.66,7.83.57,7.66-6.91,11.64-13.6,11-2.43-.22-5.44-.32-7.6-1.4-2.77-1.4-3.4-4.66-3.2-7.56.35-5.12,4.34-8.85,9.14-10,1.88-.44,1.09-3.33-.79-2.9a14.15,14.15,0,0,0-11.24,15c.42,8.37,8.4,10.23,15.82,10,7.84-.24,14.89-5.94,14.47-14.2-.5-9.87-10.7-11.82-18.66-10.83C324.11,183.48,324.09,186.49,326,186.25Z"/><circle cx="326.64" cy="196.42" r="4.74"/><path d="M370.75,167.49c-1.32,0-2.77-.13-3.8.87a3.34,3.34,0,0,0-.63,3.82c1.13,2,4.39,1.78,6.31,1.38,2.31-.49,5.52-3.06,3.22-5.48-1.59-1.67-5.71-2.09-7.34-.26-1.18,1.33,0,3.05,1.35,3.66a3.8,3.8,0,0,0,4.26-.64,1.53,1.53,0,0,0-.66-2.51l-.42-.15c-1.81-.68-2.59,2.22-.8,2.89l.42.15-.66-2.5c-.18.18-.4.14-.65.12a.77.77,0,0,1-.33-.12c-.21-.1,0,.3-.06-.16l-.39,1.46c.57-.7,2-.19,2.76-.11.52.05,0,.41.3-.09.07-.14-.26.21-.31.23a5.85,5.85,0,0,1-1.53.62c-.92.14-1.87-.08-2.77,0-.53.05-.08-.24-.11,0s.19-.12.07-.11c.59-.05,1.17-.07,1.77-.07a1.5,1.5,0,0,0,0-3Z"/><path d="M335.77,167.49c-1.32,0-2.77-.13-3.8.87a3.34,3.34,0,0,0-.63,3.82c1.13,2,4.39,1.78,6.31,1.38,2.31-.49,5.52-3.06,3.22-5.48-1.59-1.67-5.71-2.09-7.34-.26-1.18,1.33,0,3.05,1.35,3.66a3.8,3.8,0,0,0,4.26-.64,1.53,1.53,0,0,0-.66-2.51l-.42-.15c-1.81-.68-2.59,2.22-.79,2.89l.41.15-.66-2.5c-.18.18-.39.14-.65.12a.77.77,0,0,1-.33-.12c-.2-.1,0,.3-.06-.16l-.39,1.46c.57-.7,2-.19,2.76-.11.52.05,0,.41.3-.09.07-.14-.26.21-.31.23a5.85,5.85,0,0,1-1.53.62c-.92.14-1.87-.08-2.77,0-.53.05-.08-.24-.11,0s.19-.12.07-.11c.59-.05,1.17-.07,1.77-.07a1.5,1.5,0,0,0,0-3Z"/><path d="M557.46,204c.5-10.91.53-20.81-1.48-31.58-1.86-10-2.62-20.17-4.84-30.13A137.85,137.85,0,0,0,541.76,114,328.32,328.32,0,0,0,525.9,85c-5.57-9.34-12.59-17.76-19.12-26.43-12.57-16.7-33.85-23.2-52.63-30.45-10.4-4-20.57-8.71-31.14-12.26-10.27-3.44-20.83-4.85-31.52-6.33C380,7.89,368.44,6.55,356.82,6.66c-10.67.09-21.86-.58-32.44,1a197.37,197.37,0,0,0-61.85,19.62c-4.42,2.28-8.39,5.21-12.71,7.64-4.57,2.58-9.6,4.17-14.15,6.84A168,168,0,0,0,212,59.17c-16.26,13.93-24.66,33.74-35.7,51.62-11.44,18.5-21.95,38.83-28.88,59.5-3.12,9.3-4.58,19.33-5.78,29-1.31,10.58-.44,21.13-.84,31.73-.18,4.65.5,9.3.53,13.95a88.26,88.26,0,0,0,1.18,14c1.57,9.4,5.09,18,8.86,26.68,4,9.22,8.26,19.33,14.78,27.1,3.35,4,7.33,7.4,10.74,11.36,3.83,4.43,7.24,9.2,10.86,13.8,5.71,7.27,12.4,12.72,20.09,17.79,4.2,2.77,8.51,5.37,12.66,8.22,4.59,3.15,8.6,7.2,13.38,10,4.35,2.58,9.44,3.88,14.16,5.61,5.52,2,11,4.17,16.44,6.37a129.62,129.62,0,0,0,13.78,4.89c5,1.4,10.16,1.74,15.19,2.95,4.87,1.17,9.51,2.88,14.5,3.58,5.84.83,30.95-2.16,36.28-2.67s10.84-.42,16.25-.75c5.7-.35,11.33.68,17,.23,21.95-1.75,41.42-11.57,61.94-18.48a115.3,115.3,0,0,0,28.23-14.06c8.59-5.8,17.48-11.8,25.26-18.68a99,99,0,0,0,18.9-22.12c5.21-8.51,12-15.57,16.49-24.57,9.62-19.12,20.36-37.9,25.48-58.87C556.4,226.48,557,215.18,557.46,204ZM536,233.7c-4.5,19-14.14,35.68-22.7,53a77.71,77.71,0,0,1-6.84,11.83c-2.71,3.69-5.83,7-8.24,10.88a95,95,0,0,1-16.8,20.31c-6.82,6.24-14.69,11.52-22.28,16.77a104,104,0,0,1-25.54,13.41c-19.09,6.56-37.39,15.51-57.75,17.46-5.26.51-10.45-.5-15.74-.15-4.77.32-9.57.24-14.35.63s-15.84,4.75-18.14,4.47c-5.33-.65-10.69-1.2-16-1.94-4.53-.63-8.77-2.17-13.19-3.24-5.07-1.22-10.22-1.62-15.25-3.11-4.41-1.31-8.66-3-12.92-4.76Q262.17,366,254,363c-4.07-1.47-8.12-2.71-11.7-5.18-3.74-2.58-7-5.72-10.8-8.27s-7.92-5.09-11.84-7.69A72.94,72.94,0,0,1,201.86,326c-3.39-4.31-6.59-8.78-10.2-12.92-3.08-3.53-6.69-6.58-9.66-10.21-5.89-7.21-9.78-16.44-13.44-24.93-3.36-7.78-6.47-15.46-7.87-23.86a81,81,0,0,1-1.07-12.72c0-4.2-.65-8.4-.5-12.59.34-9.15-.44-18.3.57-27.42,1-8.76,2.29-17.86,4.88-26.29,2.85-9.24,7.15-18.11,11.2-26.87a276.69,276.69,0,0,1,14.16-26.69c5.39-9,10.56-18,15.78-27a84.71,84.71,0,0,1,17.18-21.59,157.4,157.4,0,0,1,21.75-16.28c3.8-2.33,7.84-3.85,11.84-5.75,4.34-2.06,8.11-5.13,12.34-7.39,17.85-9.53,36.56-15,56.43-18.38,9.9-1.7,20.41-1,30.41-1.13A207.14,207.14,0,0,1,386,26.26c9.81,1.33,19.62,2.52,29.08,5.55,10,3.2,19.57,7.67,29.36,11.46,16.92,6.54,36.66,12.4,48.09,27.39,6.07,8,12.54,15.82,17.72,24.43,4.78,8,9.46,16.27,13.6,24.58a121.25,121.25,0,0,1,9,25.57c2.21,9.17,2.93,18.48,4.58,27.74.94,5.24,2.13,10.45,2.28,15.79.13,4.61-.27,9.26-.47,13.87C538.82,213,538.4,223.55,536,233.7Z"/><path d="M161.24,151.38c-6.38-4-13.15-7.39-19.6-11.29-3.79-2.3-6.52-5.27-9.93-8.09-5.19-4.31-11-7.84-16.48-11.65-8.33-5.74-18,.84-20.83,9.61-1.2,3.72-1,8.09,3,9.87,5.08,2.27,10.21-.58,13.84-4.06,2.79-2.68-1.46-6.92-4.25-4.24a11.35,11.35,0,0,1-2.74,2.24c-1.09.5-4,1-4.53-.66-.47-1.38,1.83-4.18,2.59-5.16,3.15-4,6.33-4.85,10.44-1.94,3.78,2.67,7.72,5.07,11.46,7.82,3.41,2.5,6.22,5.45,9.43,8.15,7.2,6.06,16.61,9.59,24.54,14.58,3.28,2.07,6.29-3.12,3-5.18Z"/><path d="M101.64,166.21c5.9,1.21,11.88,2,17.79,3.22,5.55,1.11,10.3,5.6,15,8.64,2.58,1.67,5.34,3.09,7.89,4.79,3,2,5.45,4.57,8.49,6.46l2.32-5.48-.42-.14c-3.66-1.26-5.23,4.54-1.59,5.78l.41.14c3.3,1.14,5.12-3.73,2.31-5.48-3-1.88-5.53-4.49-8.49-6.46s-5.91-3.76-8.83-5.63c-4.67-3-9.25-7-14.73-8.23-6.15-1.32-12.41-2.13-18.57-3.39-3.77-.77-5.38,5-1.59,5.78Z"/><path class="cls-1" d="M492.18,221.72c-1.52-.46-3-.68-4.56-1a18,18,0,0,1-5.47-2.37c-3.2-2-5.46-6.28-6-10-.59-4,1.71-8.17,4.35-11,2.8-3,6.87-4.73,10.67-6A13,13,0,0,1,501,192a13.23,13.23,0,0,1,6.57,7.59c1,3.14,1.88,7.09,1.26,10.37a20.84,20.84,0,0,1-1.27,4.09,8.88,8.88,0,0,1-2.14,2.59,16.35,16.35,0,0,1-8.61,4.5,10.18,10.18,0,0,1-3.07.23c-.72,0-2.34.3-2.84-.31"/><path class="cls-1" d="M206,221.72c-1.52-.46-3-.68-4.56-1a18,18,0,0,1-5.47-2.37c-3.2-2-5.46-6.28-6-10-.59-4,1.71-8.17,4.35-11,2.8-3,6.87-4.73,10.67-6a13,13,0,0,1,9.86.64,13.23,13.23,0,0,1,6.57,7.59c1,3.14,1.88,7.09,1.26,10.37a20.84,20.84,0,0,1-1.27,4.09,8.72,8.72,0,0,1-2.14,2.59,16.35,16.35,0,0,1-8.61,4.5,10.18,10.18,0,0,1-3.07.23c-.72,0-2.34.3-2.84-.31"/><path class="cls-1" d="M349.48,361.05c-1.52-.46-3-.68-4.56-1a18.29,18.29,0,0,1-5.48-2.37c-3.19-2-5.46-6.29-6-10-.59-4,1.71-8.17,4.35-11,2.79-3,6.86-4.73,10.67-6a12.88,12.88,0,0,1,9.86.64,13.21,13.21,0,0,1,6.57,7.59c.95,3.14,1.87,7.09,1.26,10.37a21.44,21.44,0,0,1-1.27,4.08,9.08,9.08,0,0,1-2.14,2.6,20.33,20.33,0,0,1-3.86,2.84,19.54,19.54,0,0,1-4.75,1.66,10.18,10.18,0,0,1-3.07.23c-.73,0-2.35.29-2.85-.31"/><path class="cls-1" d="M349.48,78.68c-1.52-.45-3-.67-4.56-1a17.8,17.8,0,0,1-5.48-2.37c-3.19-2-5.46-6.28-6-10-.59-4,1.71-8.17,4.35-11,2.79-3,6.86-4.74,10.67-6a12.88,12.88,0,0,1,9.86.64,13.22,13.22,0,0,1,6.57,7.58c.95,3.15,1.87,7.09,1.26,10.37A21.54,21.54,0,0,1,364.88,71a9,9,0,0,1-2.14,2.59,20,20,0,0,1-3.86,2.85,20.42,20.42,0,0,1-4.75,1.66,10.18,10.18,0,0,1-3.07.23c-.73,0-2.35.29-2.85-.32"/><path d="M335.66,58.4V55.71a16.85,16.85,0,0,0,2.61-.25,3.65,3.65,0,0,0,1.93-1.05A3.54,3.54,0,0,0,341,53a3.38,3.38,0,0,0,.15-.8h3.3V72.25h-4.05V58.4Z"/><path d="M351.28,68.3a11.06,11.06,0,0,1,4-4.25,29.56,29.56,0,0,0,3.53-2.8A4.15,4.15,0,0,0,360,58.37a3.19,3.19,0,0,0-.7-2.12,2.51,2.51,0,0,0-2-.84,2.46,2.46,0,0,0-2.45,1.34,6.75,6.75,0,0,0-.44,2.46h-3.84a9.89,9.89,0,0,1,.93-4.14q1.59-3,5.62-3a7.16,7.16,0,0,1,5.07,1.76,6.11,6.11,0,0,1,1.89,4.68,6.34,6.34,0,0,1-1.34,4A13.08,13.08,0,0,1,359.87,65l-1.58,1.12c-1,.7-1.67,1.21-2,1.53a4.2,4.2,0,0,0-.92,1.09h8.76v3.48H350.35A9.52,9.52,0,0,1,351.28,68.3Z"/><path d="M352,341.79a2.08,2.08,0,0,0-.37-1.07,2.17,2.17,0,0,0-1.93-.94,2.84,2.84,0,0,0-2.74,2.16,13.1,13.1,0,0,0-.61,3.52,4.43,4.43,0,0,1,1.7-1.28,6.25,6.25,0,0,1,6.6,1.41,6.5,6.5,0,0,1,1.71,4.64,7.86,7.86,0,0,1-1.67,5,6.22,6.22,0,0,1-5.21,2.15,6,6,0,0,1-5.6-3.17,13,13,0,0,1-1.39-6.4,29.1,29.1,0,0,1,.19-3.74,11.55,11.55,0,0,1,1.34-4.27,7,7,0,0,1,2.25-2.34,6.08,6.08,0,0,1,3.33-.88A6.57,6.57,0,0,1,354,338a5.46,5.46,0,0,1,1.87,3.82ZM347.3,353.1a2.78,2.78,0,0,0,2.21,1,2.48,2.48,0,0,0,2.08-1,4.12,4.12,0,0,0,.75-2.56,3.87,3.87,0,0,0-.86-2.7,2.74,2.74,0,0,0-2.1-.93,2.79,2.79,0,0,0-1.79.61,3.43,3.43,0,0,0-1.16,2.9A4,4,0,0,0,347.3,353.1Z"/><path d="M201.23,198.65a6.89,6.89,0,0,1,11.13,2,15.94,15.94,0,0,1,1,6.05,17.16,17.16,0,0,1-.93,6.08c-1.18,3.1-3.35,4.64-6.51,4.64a6.65,6.65,0,0,1-4.06-1.33,5.25,5.25,0,0,1-2.06-3.9h3.93a2.35,2.35,0,0,0,.75,1.44,2.32,2.32,0,0,0,1.62.55,2.81,2.81,0,0,0,2.74-2.16,12.27,12.27,0,0,0,.54-3.47,4.05,4.05,0,0,1-1.15,1,5.13,5.13,0,0,1-2.72.67,6.2,6.2,0,0,1-4.26-1.66,6.07,6.07,0,0,1-1.85-4.77A7.35,7.35,0,0,1,201.23,198.65Zm6.64,8a3.26,3.26,0,0,0,1.34-3,4.19,4.19,0,0,0-.79-2.7,2.63,2.63,0,0,0-2.18-1,2.69,2.69,0,0,0-1.73.57,3.57,3.57,0,0,0-1.14,3,4.14,4.14,0,0,0,.73,2.68,2.69,2.69,0,0,0,2.23.9A2.79,2.79,0,0,0,207.87,206.62Z"/><path d="M489.26,210.73a4.46,4.46,0,0,0,.39,2,2.65,2.65,0,0,0,2.61,1.46,2.88,2.88,0,0,0,2-.8,2.94,2.94,0,0,0,.87-2.29,2.6,2.6,0,0,0-1.61-2.65,8.3,8.3,0,0,0-2.87-.37v-2.82a7.47,7.47,0,0,0,2.68-.38,2.31,2.31,0,0,0,1.31-2.35,2.62,2.62,0,0,0-.67-1.87,2.43,2.43,0,0,0-1.88-.72,2.37,2.37,0,0,0-2.05.88,3.74,3.74,0,0,0-.63,2.37h-3.69a9.85,9.85,0,0,1,.52-2.84,6.35,6.35,0,0,1,1.52-2.17,5.27,5.27,0,0,1,1.84-1.08,7.91,7.91,0,0,1,2.61-.38,7,7,0,0,1,4.64,1.49,5,5,0,0,1,1.77,4,4.38,4.38,0,0,1-1.06,3,3.6,3.6,0,0,1-1.38,1,2.83,2.83,0,0,1,1.55.93,4.93,4.93,0,0,1,1.51,3.82,6.47,6.47,0,0,1-1.76,4.48,6.73,6.73,0,0,1-5.23,1.93q-4.26,0-5.92-2.78a8.35,8.35,0,0,1-1-3.88Z"/><circle class="cls-3" cx="349.47" cy="206.34" r="174.88"/><path d="M348.93,39.16a3.31,3.31,0,0,0-3.77,2.12c-.93,3,2.33,3.48,4.51,3.31,6.68-.51,1.57-9.17-1.92-5.2"/><path d="M432.72,61.34a3.31,3.31,0,0,0-4.32-.06c-2.31,2.14.26,4.19,2.24,5.14,6,2.89,5.95-7.16.94-5.47"/><path d="M494.14,122.49a3.31,3.31,0,0,0-3.71-2.21c-3.07.69-1.86,3.76-.63,5.57,3.78,5.53,8.73-3.21,3.55-4.26"/><path d="M516.69,206.19a3.32,3.32,0,0,0-2.11-3.78c-3-.93-3.49,2.32-3.33,4.51.5,6.68,9.17,1.59,5.21-1.92"/><path d="M494.3,289.92a3.31,3.31,0,0,0,.06-4.32c-2.12-2.31-4.18.25-5.14,2.23-2.91,6,7.14,6,5.47.95"/><path d="M433,351.19a3.31,3.31,0,0,0,2.22-3.71c-.69-3.07-3.75-1.87-5.57-.64-5.54,3.76,3.19,8.74,4.25,3.56"/><path d="M349.24,373.52a3.31,3.31,0,0,0,3.78-2.1c.94-3-2.31-3.5-4.5-3.34-6.68.48-1.61,9.16,1.9,5.21"/><path d="M265.56,350.92a3.31,3.31,0,0,0,4.32.07c2.32-2.12-.24-4.18-2.22-5.14-6-2.93-6,7.12-1,5.46"/><path d="M204.45,289.45a3.3,3.3,0,0,0,3.7,2.23c3.07-.68,1.88-3.74.65-5.56-3.75-5.56-8.74,3.17-3.56,4.24"/><path d="M182.33,205.64a3.3,3.3,0,0,0,2.09,3.79c3,.95,3.5-2.3,3.35-4.49-.47-6.68-9.16-1.64-5.22,1.89"/><path d="M205.14,122a3.31,3.31,0,0,0-.08,4.33c2.11,2.32,4.18-.24,5.15-2.21,2.94-6-7.11-6-5.46-1"/><path d="M266.77,61.07a3.29,3.29,0,0,0-2.24,3.7c.66,3.07,3.74,1.89,5.56.66,5.56-3.73-3.15-8.75-4.24-3.58"/><path d="M97.42,93.05c-3.9,12-7.73,24.13-11.61,36.19q-2.73,8.47-5.51,16.94c-1.58,4.78-4,9.89-4.87,14.86-1.72,10.38,16.15,11.61,22.87,9,10.88-4.17,10.24-19.12,11.88-28.77.63-3.78-5.15-5.4-5.79-1.6-.85,5-1.69,10.06-2.55,15.08s-2.32,9.51-8.22,10.29A20.26,20.26,0,0,1,84,163.79c-2.65-1.06-2.82-1.53-1.92-4.2,1.24-3.7,2.51-7.39,3.74-11.1,5.92-17.91,11.55-35.91,17.35-53.85,1.19-3.68-4.6-5.26-5.78-1.59Z"/><path d="M132.54,89.63a10.67,10.67,0,0,1,7.27,3L139,89.7a91.35,91.35,0,0,1-7,21.55l3.39-1.37-9.31-2.29c-3.75-.91-5.35,4.87-1.6,5.79l9.32,2.28a3,3,0,0,0,3.38-1.38,103.77,103.77,0,0,0,4.43-10.75c1.21-3.55,3.19-8.44,3.2-12.24,0-5.48-7.89-7.48-12.29-7.66-3.87-.16-3.86,5.84,0,6Z"/><path d="M3.81,114.09c19.15-6.44,39-12.11,59.41-11.74s39.86,7.39,58,16.54a3.06,3.06,0,0,0,4.41-1.79A93.73,93.73,0,0,0,133,80.53a3.06,3.06,0,0,0-2.2-2.89c-19.5-6-37.49-15.22-52.57-29.12S51,17.77,38.69,1.46c-1.23-1.63-4.09-2.24-5.18,0C16.69,35.86,3.47,72.85,0,111.2c-.34,3.84,5.66,3.82,6,0C9.36,74,22.37,37.87,38.69,4.49H33.51c12.85,17,25.46,34.72,41.35,49.1,15.67,14.17,34.22,23.61,54.32,29.83L127,80.53a89.48,89.48,0,0,1-7.12,35l4.41-1.8c-18.69-9.42-38.52-16.66-59.63-17.33-21.38-.67-42.34,5.18-62.41,11.93-3.64,1.22-2.08,7,1.59,5.78Z"/><path d="M103,70.21a109.78,109.78,0,0,0-9,33.64A32.06,32.06,0,0,1,105.13,107a.81.81,0,0,0,.65.12c.25-.1.33-.41.38-.68l5.19-29.83a1.64,1.64,0,0,0-.1-1.2c-.32-.44-1-.44-1.5-.44a8.8,8.8,0,0,1-6-2.47"/><path d="M100.43,68.7A119.72,119.72,0,0,0,91,103.85c-.2,1.74,1.54,2.82,3,3,4,.48,7.19,2.46,11,3.17a3.11,3.11,0,0,0,3.39-1.38c1.94-3.49,1.95-8.68,2.63-12.59l2.27-13c.43-2.48,2-6.62.57-9.1-1.62-2.73-5.72-1.62-8-3.52-3-2.45-7.22,1.78-4.25,4.25a14.39,14.39,0,0,0,4.12,2.56c1.1.41,3.15.3,4,.81l-1.48-2.59c.43,4.81-1.56,10.58-2.39,15.32l-1.3,7.46c-.36,2.11-.33,5.54-1.37,7.42l3.39-1.38c-4.28-.79-8.14-2.85-12.58-3.38l3,3a110.34,110.34,0,0,1,8.61-32.13c1.54-3.5-3.63-6.56-5.18-3Z"/><path d="M111.72,114.07l-.81,6.65c-.2,1.61,1.52,3,3,3a3.08,3.08,0,0,0,3-3l.81-6.65c.19-1.61-1.52-3-3-3a3.08,3.08,0,0,0-3,3Z"/><path d="M32.58,9.45C40.77,28.81,39.86,50.51,34,70.39c-2.73,9.34-6.35,18.82-11.52,27.1-3.43,5.49-10.4,13.8-18,11.17C.9,107.39-.67,113.19,3,114.45,10.23,117,18.18,112.2,22.85,107c7.5-8.3,11.91-19.7,15.43-30.16C46,54,47.3,29,37.76,6.42c-1.5-3.55-6.67-.49-5.18,3Z"/><path d="M41.46,51c-2.44-3-7-3.48-10.37-1.91-4.41,2-6.67,7-7.41,11.59s.86,9.36,5.21,11.48a8.35,8.35,0,0,0,10.81-3c2-3.3-3.15-6.31-5.18-3-1.1,1.77-3.47.67-4.35-.64-1.37-2-.54-4.92.3-7,1-2.38,4.23-6.39,6.75-3.28S43.87,54,41.46,51Z"/></g></svg>