<svg xmlns="http://www.w3.org/2000/svg" viewBox="0 0 19.79 116.32"><title>long hand</title><g id="圖層_1" data-name="圖層 1"><path d="M3.37,6.33V88.58c0,6.22-1.39,14.16,1.18,19.91,1.17,2.6,3.21,6,6.64,4.34,3.84-1.88,3.53-6.56,3.52-10.07a58.14,58.14,0,0,1,.87-10.48c.91-5.19-.51-10.76.16-16,1.66-13,.86-26.52.86-39.7,0-7.88-.08-15.76,0-23.64,0-5-1.91-7.9-6.66-9.47-3.62-1.2-7.08-1.13-6.57,3.8"/><path d="M.37,6.33V69.12C.37,78.73.16,88.31,0,97.91c-.09,5.65.6,14.46,6.36,17.56s10.46-2.68,11.16-7.79c.45-3.37.08-6.81.38-10.19a110.36,110.36,0,0,0,.74-15c-.22-4.92.56-9.73.85-14.64.31-5.36.32-10.74.27-16.11-.1-10.31-.2-20.61-.2-30.92,0-7.5,1.1-15.74-6.89-19.48C6.85-1.37.16-.26.37,7.28c.11,3.85,6.11,3.87,6,0-.07-2.62,3.21-.93,4.37-.21a5.62,5.62,0,0,1,2.82,4.57c.64,4.13,0,9,0,13.13,0,9.63.16,19.25.22,28.88.05,9.32-1.46,18.69-1.19,28,.24,8-.44,15.94-.9,23.94-.1,1.76-.1,5.54-3.51,3.44-1.4-.86-1.88-4.95-2-6.31-.43-3.68,0-7.44.14-11.12.34-9,.08-18.06.08-27.07V6.33c0-3.86-6-3.86-6,0Z"/></g></svg>