<svg xmlns="http://www.w3.org/2000/svg" viewBox="0 0 43.35 43.33"><title>down</title><g id="圖層_1" data-name="圖層 1"><path d="M13.76,19.39c2.85,1.68,5.13,4.37,7.16,6.94a1.51,1.51,0,0,0,1.82.23c3-1.74,4.85-4.65,7.21-7.11,1.34-1.39-.78-3.52-2.12-2.12C25.67,19.58,24,22.39,21.22,24l1.82.23a29.78,29.78,0,0,0-7.77-7.41,1.5,1.5,0,0,0-1.51,2.59Z"/><path d="M21.52,0A21.8,21.8,0,0,0,.22,19C-1.35,30,5.57,39.31,16,42.36c18.94,5.56,33.09-13.87,25.11-31C37.49,3.72,29.57.54,21.52,0c-1.93-.13-1.92,2.87,0,3,7,.46,13.8,3.14,16.9,9.76,3.45,7.36,2.53,16.83-3.35,22.7-7.83,7.83-21.75,5.7-28.45-2.56C-3,21.06,7,3.18,21.52,3A1.5,1.5,0,0,0,21.52,0Z"/></g></svg>