<svg xmlns="http://www.w3.org/2000/svg" viewBox="0 0 194.6 88.62"><defs><style>.cls-1{fill:#d1ccc7;}.cls-2{fill:#f3eee8;}</style></defs><title>legs</title><g id="圖層_1" data-name="圖層 1"><path class="cls-1" d="M66.66,49.61C51.78,42-7.67,54,4.29,70.39c3.86,5.26,18.48,6.6,24.65,7.72A373.35,373.35,0,0,0,71,83.2c27.76,1.77,57.9,4.18,85.34.49,12.63-1.7,47.16-16.19,31-29.83-19.84-16.74-58.59-9.94-83-9.85-9.74,0-33.94-2.94-39.68,4.89"/><path class="cls-1" d="M68.17,47c-9.18-4.42-21.12-3-30.83-1.51C26.7,47.08,14.58,49.7,5.79,56.27c-7.1,5.3-8.38,14.47.18,19.27C12.1,79,19.62,79.62,26.43,80.72c10.38,1.67,20.71,3.33,31.17,4.38A651.91,651.91,0,0,0,126,88.61c16.4-.1,32.88-.65,48.07-7.34,8.22-3.62,23.28-11.46,20-22.81-1.65-5.78-7.94-9.68-13-12.15-7-3.43-14.65-5.06-22.36-5.94-18.44-2.12-36.81.82-55.26.64-7.47-.08-14.92-.79-22.39-.4-6.24.32-14.35,1-18.63,6.17-2.43,3,1.79,7.23,4.24,4.24,3.35-4.07,10.16-4.22,15-4.44,6.06-.27,12.11.09,18.17.32,13,.5,26-1.06,39-1.29,13.75-.25,29.07.07,41.36,7,3.81,2.16,10,5.91,7.68,11.09-2,4.48-7.36,7.48-11.45,9.7C165,79.71,153,81.49,140,82.2c-19.33,1.07-38.7,0-58-1.29-18.85-1.22-37.3-3.4-56-6.29C21.77,74,.51,71.67,6.9,63.31,12.59,55.88,26.29,53.55,34.8,52c8.93-1.65,21.74-3.92,30.35.22,3.46,1.67,6.51-3.5,3-5.18Z"/><path class="cls-2" d="M62,4.35a30.14,30.14,0,0,0-.07,4.84c.32,1.79,1.18,3,1.3,4.84.26,3.76,0,.69,0,4.46v14c0,2.61,1,6.9-.86,8.82-1,1-2.71,1.27-3.93,2-2.25,1.31-4,3.51-6.37,4.69-4.13,2-9.07,2.72-13,5.29-2.61,1.7-6.21,7.29-1.24,8.35,2.67.57,7,.12,9.64-.36,3.56-.65,7.38-2,11-2.18,2.78-.15,5.65,0,8.44,0a27.71,27.71,0,0,0,6.11-.27c1.39-.31,5-.84,5.9-2,1.38-1.85.12-9.93.12-12.29,0-7.94,1.21-15.23,1.21-23.22,0-4,0-1.14,0-5.19a30.69,30.69,0,0,1,.27-6c.44-2.39,1.62-4.36.81-6.9-2.58-.73-6.24-.12-9-.12-2.38,0-5.4-.46-7.66.21l-.2,1"/><path d="M59,4.35c-.17,3.59.44,5.82,1.13,9.19.88,4.32.09,2.33.08,6.7,0,4.08-.13,8.19,0,12.26.09,3,1.18,5.75-1.59,7.44s-5.3,4-8.09,5.46c-3.21,1.72-7,2.3-10.26,3.82-3.83,1.77-8.25,5.42-8,10.15.34,5.52,6.9,5.73,11.05,5.42a60.72,60.72,0,0,0,9.54-1.69,47.86,47.86,0,0,1,12.24-1c4.49.08,12.39.65,15.81-3.12,2.85-3.16,1.29-9.22,1.07-13-.51-8.77,1.12-17.62,1.14-26.4,0-4.22-.08-1.5,0-5.72.06-4,1.72-7.4,1-11.42A2.92,2.92,0,0,0,82,.37C79-.22,76.08.06,73,.12s-6.06-.26-9.16.33a2.92,2.92,0,0,0-2.1,2.1l-.21,1c-.77,3.77,5,5.38,5.79,1.6l.21-1-2.1,2.1c2.5-.48,5-.07,7.57-.12s5-.44,7.45,0l-2.1-2.1c.37,2-.61,4.12-.92,6.1a37.5,37.5,0,0,0-.27,6c0,4.05,0,1.15,0,5.19C77.05,29.55,75.51,37.82,76,46c.14,2.31,1.11,5.51.44,7.71-.78,2.62-5.57,2.4-8.1,2.43-4.11.05-8.23-.39-12.33.2-3.78.54-7.41,1.84-11.21,2.3-2.17.27-8.59,1.53-5-2.11,2.87-2.93,8-3.51,11.65-5,3.33-1.37,5.44-3.9,8.5-5.63,2.13-1.21,4.29-1.58,5.58-3.88,1.44-2.56.86-5.69.73-8.46-.19-3.84,0-7.71,0-11.56,0-4.32.29-1.75.11-6.07-.17-4-1.51-7.5-1.32-11.57.18-3.86-5.82-3.85-6,0Z"/><path class="cls-2" d="M132.18,4.35a29,29,0,0,0-.07,4.84c.32,1.79,1.17,3,1.3,4.84.26,3.76,0,.69,0,4.46v14c0,2.61,1,6.9-.86,8.82-1,1-2.71,1.27-3.93,2-2.25,1.31-4,3.51-6.38,4.69-4.12,2-9.06,2.72-13,5.29C106.58,55,103,60.57,108,61.63c2.67.57,7,.12,9.64-.36,3.56-.65,7.38-2,10.95-2.18,2.78-.15,5.66,0,8.45,0a27.71,27.71,0,0,0,6.11-.27c1.39-.31,5-.84,5.9-2,1.37-1.85.12-9.93.12-12.29,0-7.94,1.21-15.23,1.21-23.22,0-4,0-1.14,0-5.19a30.69,30.69,0,0,1,.27-6c.44-2.39,1.62-4.36.81-6.9-2.58-.73-6.24-.12-8.95-.12-2.38,0-5.4-.46-7.66.21l-.2,1"/><path d="M129.18,4.35c-.17,3.59.44,5.82,1.13,9.19.88,4.32.08,2.33.08,6.7,0,4.08-.13,8.19,0,12.26.09,3,1.18,5.75-1.59,7.44s-5.3,4-8.09,5.46c-3.21,1.72-7,2.3-10.27,3.82-3.82,1.77-8.24,5.42-8,10.15.34,5.52,6.9,5.73,11,5.42a60.72,60.72,0,0,0,9.54-1.69,47.86,47.86,0,0,1,12.24-1c4.49.08,12.39.65,15.81-3.12,2.85-3.16,1.29-9.22,1.07-13-.51-8.77,1.12-17.62,1.14-26.4,0-4.22-.08-1.5,0-5.72.06-4,1.72-7.4,1-11.42a2.92,2.92,0,0,0-2.1-2.1c-3.06-.59-5.94-.31-9-.25s-6.06-.26-9.17.33a2.92,2.92,0,0,0-2.09,2.1l-.21,1c-.77,3.77,5,5.38,5.79,1.6l.21-1-2.1,2.1c2.5-.48,5.05-.07,7.57-.12s5-.44,7.45,0l-2.1-2.1c.37,2-.61,4.12-.92,6.1a36.37,36.37,0,0,0-.27,6c0,4.05,0,1.15,0,5.19-.09,8.21-1.63,16.48-1.14,24.67.14,2.31,1.11,5.51.44,7.71-.78,2.62-5.57,2.4-8.1,2.43-4.11.05-8.23-.39-12.33.2-3.78.54-7.41,1.84-11.21,2.3-2.17.27-8.59,1.53-5-2.11,2.87-2.93,8-3.51,11.65-5,3.33-1.37,5.44-3.9,8.5-5.63,2.13-1.21,4.29-1.58,5.58-3.88,1.44-2.56.86-5.69.73-8.46-.19-3.84,0-7.71,0-11.56,0-4.32.29-1.75.11-6.07-.17-4-1.52-7.5-1.32-11.57.18-3.86-5.82-3.85-6,0Z"/></g></svg>