<svg xmlns="http://www.w3.org/2000/svg" viewBox="0 0 773.5 22.84"><title>line</title><g id="圖層_3" data-name="圖層 3"><path d="M2.86,6.35c25.25,2.87,50.86,0,76.23-.11q24-.12,48.09-.13Q207.74,6,288.32,6,388,6,487.67,6l179,.1,100.16.06h3.82c3.87,0,3.87-6,0-6Q727.31.2,684,.15L511.46.05q-100,0-200,0Q227,0,142.62.08c-33,.05-66.07-.2-99.08,1C30,1.55,16.37,1.89,2.86.35c-3.83-.44-3.8,5.57,0,6Z"/><path d="M2.86,21.56c25.25,2.87,50.86,0,76.23-.11q24-.12,48.09-.13,80.56-.13,161.14-.11,99.68,0,199.35,0l179,.1,100.16.06h3.82c3.87,0,3.87-6,0-6q-43.29,0-86.6-.05l-172.54-.1q-100,0-200,0-84.42,0-168.84.09c-33,0-66.07-.21-99.08,1-13.56.49-27.17.82-40.68-.72-3.83-.43-3.8,5.57,0,6Z"/></g></svg>