<svg xmlns="http://www.w3.org/2000/svg" viewBox="0 0 344.31 86.34"><defs><style>.cls-1{fill:#f3eee8;}.cls-2{fill:#040000;}</style></defs><title>工作區域 69</title><g id="圖層_3" data-name="圖層 3"><path class="cls-1" d="M36.23,15.58C24.34,15.07,11.31,24,7.13,31.84,1.68,42.09-.08,54.42,5.18,65.11c7.53,15.3,28.47,23,44.26,17.52C68.58,76,75.89,53,67.81,34.93,67.81,34.93,62.46,16.71,36.23,15.58Z"/><path d="M36.23,13.55c-9.21-.19-18.27,4-25,10.11S1,38.84.16,47.74C-1.62,66.13,11.5,81.06,28.84,85.24,44.53,89,61.1,83,68.73,68.33,74.62,57,74.15,43.85,69,32.4,63.26,19.72,49.34,14.24,36.23,13.55c-2.61-.14-2.61,3.93,0,4.06,11,.58,22.36,4.67,28.11,14.64A37.21,37.21,0,0,1,68,58.91C64.52,72.78,52.66,82.48,38.25,82.36,23.49,82.24,8.26,73,4.8,58c-2.17-9.36.25-21.44,6.65-28.79,6-6.94,15.5-11.78,24.78-11.59C38.85,17.67,38.85,13.6,36.23,13.55Z"/><circle cx="34.36" cy="54.58" r="1.54"/><path d="M34.87,49.92c-2.71-.34-6.07.36-6.52,3.58s2.12,5.49,5.13,5.6c2.73.1,5.55-.73,5.7-3.77a5.12,5.12,0,0,0-4-5.37c-1.27-.29-1.81,1.66-.54,2a3.23,3.23,0,0,1,2.59,2.49,3.16,3.16,0,0,1-.29,1.9c-.5.64-2,.66-2.76.72-2,.14-4.35-1.13-3.7-3.45.55-1.95,2.81-1.83,4.43-1.63C36.17,52.12,36.16,50.08,34.87,49.92Z"/><path d="M50.2,49.92c-2.7-.34-6.07.36-6.52,3.58S45.8,59,48.81,59.1c2.73.1,5.55-.73,5.7-3.77a5.12,5.12,0,0,0-4-5.37c-1.27-.29-1.81,1.66-.54,2a3.23,3.23,0,0,1,2.59,2.49,3.16,3.16,0,0,1-.29,1.9c-.5.64-2,.66-2.76.72-2,.14-4.35-1.13-3.7-3.45.55-1.95,2.81-1.83,4.43-1.63C51.5,52.12,51.49,50.08,50.2,49.92Z"/><circle cx="50" cy="54.58" r="1.54"/><path d="M35.69,46.84H36c.21,0,.09,0,0,0-.24-.26-.43-.34-.21-.71l.23-.22c.15-.05.16-.06,0,0s.21,0,0,0h-.49s-.3,0-.15,0-.12,0-.15-.05-.06,0,0,0l-.16-.09.06,0c-.13-.14-.1-.07.08.19l-.06.51c-.17.14-.2.19-.09.12-.06.11-.13,0,.06,0-.21,0,.08,0,.12,0h.12c.12,0,.12,0,0,0s-.11-.11,0,0l-.27-1c0,.25.24-.26.26-.28s0,0,.06,0-.1,0,0,0a.52.52,0,0,1,.23.1l-.45,1.7.14-.05a1.05,1.05,0,0,0,.71-1.25,1,1,0,0,0-1.25-.71l-.14.05a1,1,0,0,0-.44,1.7c.89.92,2.88.44,2.88-1s-2.12-1.47-3-1a1.48,1.48,0,0,0-.79,1.67A2,2,0,0,0,34.6,47.7a2.89,2.89,0,0,0,2.64-.19,1.53,1.53,0,0,0,.28-2,1.9,1.9,0,0,0-1.83-.71,1,1,0,0,0,0,2Z"/><path d="M47,46.84h.33c.21,0,.1,0,0,0-.25-.26-.44-.34-.21-.71l.23-.22.05,0c-.23,0,.2,0-.05,0h-.5s-.3,0-.14,0-.12,0-.16-.05,0,0,0,0a.91.91,0,0,1-.17-.09l.06,0c-.12-.14-.09-.07.08.19l-.06.51c-.16.14-.19.19-.08.12-.07.11-.14,0,.06,0-.22,0,.07,0,.12,0h.12c.12,0,.12,0,0,0s-.12-.11-.05,0l-.26-1c-.05.25.24-.26.26-.28s0,0,.05,0-.09,0,0,0a.52.52,0,0,1,.23.1l-.45,1.7.13-.05a1,1,0,0,0,.71-1.25,1,1,0,0,0-1.25-.71L46,45.1a1,1,0,0,0-.45,1.7c.89.92,2.89.44,2.89-1s-2.13-1.47-3-1a1.5,1.5,0,0,0-.79,1.67,2,2,0,0,0,1.29,1.21,2.91,2.91,0,0,0,2.65-.19,1.52,1.52,0,0,0,.27-2A1.88,1.88,0,0,0,47,44.81a1,1,0,0,0,0,2Z"/><path d="M41.87,54.2a9.5,9.5,0,0,1,.35,2.31c0,.11.06.69,0,.76-.31.24-.34-.05-.32-.26l-.74,1h.06c1.28-.27.74-2.23-.54-2H40.6a1,1,0,0,0-.75,1,2.21,2.21,0,0,0,3.49,2c1.61-1,.84-3.81.49-5.3-.3-1.27-2.27-.73-2,.54Z"/><path d="M7.38,67c1.39-1.47,3-3.13,3.67-5.09s.63-4.25,1.07-6.29.3-4.25,1-6.24c.42-1.21,1.15-2.3,1.56-3.52A24.82,24.82,0,0,1,15.94,42a15.49,15.49,0,0,1,13.69-8.67A50.85,50.85,0,0,1,44.31,35c5.11,1.47,10.21,5,12.2,10.08,1.84,4.71,1.17,9.22.73,14.1-.51,5.7.54,11.58.6,17.3,0,2.61,4.09,2.62,4.06,0,0-3.51-.3-7-.47-10.51a97.27,97.27,0,0,1,.34-10.8c.32-5.36-.28-10.78-3.43-15.32a23.94,23.94,0,0,0-11.87-8.44c-9.22-3.05-22.43-4.61-30,2.92-3.81,3.8-5.61,9-7.31,14-.89,2.61-.86,5.58-1.4,8.29-.21,1.08-.26,2.2-.46,3.27-.34,1.79-1.62,3-2.81,4.26C2.71,66,5.58,68.91,7.38,67Z"/><path d="M42.45,66.65c1-.12,1.24.44,1.07,1.32a1.1,1.1,0,0,1-.49.82.39.39,0,0,1-.26,0,2.29,2.29,0,0,1-.81-.5,1,1,0,0,0-1.59.21c-.43.69-1,1.4-1.61.61a2.22,2.22,0,0,1-.45-1s0-.3,0-.21c0-.15-.09,0,0,0,1.19-.55.16-2.3-1-1.76-1.72.79-.92,3.29,0,4.35a2.72,2.72,0,0,0,2.21,1,3.54,3.54,0,0,0,2.62-2l-1.6.21a3.28,3.28,0,0,0,3.14,1,2.92,2.92,0,0,0,1.79-2.08c.55-2-.7-4.29-3-4-1.28.15-1.3,2.19,0,2Z"/><path class="cls-1" d="M38.57,40c-3.53-.85-7.84-1.43-7.91-5.9-.09-4.92,2.29-9.91,7.12-11.52,4-1.33,10.57.55,13,4,2.71,3.78.73,9.32-2.86,11.74A13.09,13.09,0,0,1,38.57,40Z"/><path d="M39.11,38.05c-1.64-.38-3.75-.63-5.15-1.64-1.9-1.36-1.35-4.33-.7-6.29,1.51-4.58,5.56-6.67,10.19-5.59s8.37,4.66,5.7,9.5c-1.94,3.51-6.26,4.72-10,4C36.55,37.58,35.46,41.5,38,42c6.08,1.12,12.77-1.12,15.23-7.19,2.81-6.93-2.08-12.6-8.73-14.17S31.46,22.26,29.34,29c-.89,2.84-1.29,6.53.55,9.07S35.14,41.29,38,42C40.57,42.57,41.66,38.65,39.11,38.05Z"/><path d="M40.94,35.09c2.72.19,5.09-1.56,4.68-4.48-.34-2.36-2.25-3.44-4.47-3.4a3.81,3.81,0,0,0-4,3.52c-.19,2.2,1.5,3.72,3.48,4.33a1,1,0,0,0,.54-2c-.87-.27-1.93-.87-2-1.86a1.77,1.77,0,0,1,1.8-2c.15,0,1,0,.59,0a1.92,1.92,0,0,1,1.8.88c1.08,1.93-.73,3.05-2.44,2.93C39.64,33,39.64,35,40.94,35.09Z"/><path class="cls-1" d="M42.76,59.08c3.66,0,6.7,2.33,8.49,5.52-2.44.77-7.38-1.49-9.83-1.39a28.06,28.06,0,0,0-9,1.93c-.12-2.63,2.41-4.94,5.06-6.21,1.4-.67,4.46-1.49,5.32.45"/><path d="M42.76,60.1c3.45.21,5.86,2.15,7.61,5L51,63.62c-3.07.65-6.19-1.31-9.25-1.42-3.3-.12-6.54.93-9.62,2l1.29,1c.14-2.18,6.25-8.62,8.48-5.24.72,1.08,2.48.07,1.76-1-3.52-5.31-12,1.76-12.27,6.27a1,1,0,0,0,1.28,1c3.52-1.18,7.19-2.39,10.93-1.6,2.62.55,5.24,1.63,7.94,1.06a1,1,0,0,0,.61-1.49c-2.16-3.53-5.17-5.76-9.37-6-1.3-.08-1.3,1.95,0,2Z"/><path d="M170.9,4.59c16.92-.83,33.45-.18,50.4-1.06a344.12,344.12,0,0,1,60.87,1.71c8.16,1,16.67,1.58,24.72,2.29,7.86.68,16.23-2.08,22.72,4.7,6.19,6.47,8.2,16.71,9.6,26,1.1,7.24,3.67,20.79.54,27.26-5,10.3-20.27,6.87-28.14,6.39-9.26-.56-19.18-1.14-28.51.12-20.32,2.75-40.57,2.32-61,1.24-18.6-1-36.93,2-55.44,2.9-16.13.79-32.63,4.8-47.4-4.16-13-7.86-15-48.33-6.56-62.06C112.69,9.89,152.44,5.5,170.9,4.59Z"/><path d="M170.9,7.59c19.08-.88,38.21-.66,57.3-1.37A396.64,396.64,0,0,1,286,8.68c8.5.92,17.27,2.1,25.83,1.94,3.58-.06,7.4-.47,10.87.67,4.32,1.42,7.09,5.36,9,9.31,3.2,6.79,4.1,14.5,5.24,21.85,1,6.32,3,15.07.41,21.24s-10.12,6.29-15.78,6c-6.45-.31-12.85-1.1-19.31-1.35-9.8-.37-19.19.85-28.91,1.71a282.29,282.29,0,0,1-28.5,1c-9.81-.11-19.6-.92-29.4-1-9.26,0-18.5.7-27.71,1.5s-18.47,1.29-27.7,2.06c-8.12.68-16.35,1.7-24.49.71-7.11-.87-15.12-3.18-18.91-9.7-3-5.13-4.33-11.3-5.14-17.12-1.58-11.25-2.1-25.9,3.86-36.07l-2.59,1.49c19.35-2.14,38.77-4.3,58.21-5.3,3.84-.2,3.86-6.2,0-6-15.77.81-31.51,2.49-47.22,4.13-3.52.36-7.54.28-11,1.17-5,1.3-6.3,10.59-7,15-2.27,13.93-1.63,30.32,4.44,43.29C118,82.07,139.9,81.32,155.77,80c24.72-2.15,49.42-4.41,74.22-3.36a344.37,344.37,0,0,0,39.35-.22c13-.93,25.44-2.47,38.53-1.74,12.76.71,33.19,5,36-12.75,1.36-8.55-.65-17.59-2-26-1.5-9.38-3.77-20.28-11.29-26.84-7.7-6.71-19.93-4.18-29.32-5C287,2.88,272.86.92,258.59.27s-28.74,0-43.14.5c-14.85.51-29.71.14-44.55.82C167.05,1.77,167,7.77,170.9,7.59Z"/><path d="M111.71,51.52C109.63,59,98.83,63.63,93.18,68.36c8.59,0,17.65,1.44,24.39-5.26,6.18-6.16.65-9-5.94-11"/><path class="cls-2" d="M110.26,51.13c-2.63,7.81-12.13,11.34-18.14,16.17-1.06.86-.14,2.55,1.06,2.56,9.09.11,19.31,1.14,26-6.34,6.11-6.8-.85-10.82-7.17-12.88-1.84-.6-2.63,2.29-.8,2.89,3.1,1,7.5,2,7,6.37-.35,3-6.72,5.64-9.15,6.28-5.15,1.35-10.65.75-15.91.68l1.06,2.56c6.61-5.31,16-8.84,18.91-17.5.62-1.83-2.28-2.62-2.89-.79Z"/><path class="cls-1" d="M173.66,27c.58,0,.87.22.87.68q0,2.37.33,6.21h3.39a15.74,15.74,0,0,0-2.4-4.54c-.37-.46-.3-.81.19-1.07l1.56-.82a.66.66,0,0,1,.87.11A16.67,16.67,0,0,1,181,32.18c.22.49.11.83-.33,1l-1.64.69h2.73c.44,0,.66.27.66.82v1.8c0,.44-.18.66-.66.66h-6.56a25.82,25.82,0,0,0,1.2,5.47,30.32,30.32,0,0,0,2.79-3.39.67.67,0,0,1,1.07-.17l1.37,1.29a.92.92,0,0,1,.08,1.2c-1.39,1.73-2.68,3.25-3.89,4.57a4,4,0,0,0,.77,1.14c.51.33.88.11,1.09-.65q.22-.85,1-.69l1.53.69a.94.94,0,0,1,.44,1.31c-1.39,3.39-2.77,4.87-4.16,4.43a6.13,6.13,0,0,1-2.1-1.57,16.69,16.69,0,0,1-1.62-2.37,16.62,16.62,0,0,1-5.93,3.48c-.64.25-1.08.22-1.31-.09L166.44,50c-.26-.54-.16-.91.3-1.09a22,22,0,0,0,6.81-3.72,31.06,31.06,0,0,1-1.75-8h-6.13v4a28.78,28.78,0,0,0,3.5-.76c.51-.15.81,0,.88.33l.44,1.86a.82.82,0,0,1-.66,1.09c-1.39.33-2.77.62-4.16.87V50c0,1.13-.8,1.9-2.29,2.3a14,14,0,0,1-2.41.44c-.62.05-1-.09-1.2-.44l-.88-2.08c-.16-.43.06-.69.66-.76,1.11-.15,1.84-.27,2.2-.36s.53-.37.53-.85V45.14c-1.42.22-2.84.4-4.26.55a.61.61,0,0,1-.77-.44l-.54-2a.57.57,0,0,1,.54-.76c1.79-.19,3.47-.4,5-.66v-4.7H157.8c-.51,0-.77-.22-.77-.66V34.7c0-.57.22-.85.66-.85l4.7,0V32l-2.95.54c-.55.09-.88,0-1-.38l-.44-2c-.11-.44.07-.7.54-.77l9.08-1.75c.44-.07.73.15.88.66l.44,1.75c.1.47-.11.76-.66.87l-2.52.44v2.52h5.69c-.14-2.56-.22-4.63-.22-6.21,0-.46.29-.68.88-.68Z"/><path class="cls-1" d="M189.64,28.05c0-.45.24-.68.77-.68H213.3c.58,0,.88.23.9.68v2c0,.38-.34.61-1,.68h-6.68V32h4.6a1.12,1.12,0,0,1,1.23,1.25v6a1,1,0,0,1-1,1h-8.39a.47.47,0,0,1-.09.57l-.3.47h10.72c.35,0,.52.16.52.43v2.05c0,.44-.17.66-.52.66h-4.76a14.59,14.59,0,0,1-2.89,2.54,44.17,44.17,0,0,1,7.13,2.24c.46.13.5.48.14,1l-.93,1.78a.74.74,0,0,1-1,.25,45.56,45.56,0,0,0-8.83-3,30.67,30.67,0,0,1-10.67,3.15.64.64,0,0,1-.68-.22l-.87-2.11c-.22-.41-.12-.69.3-.82a34.79,34.79,0,0,0,7.19-1.23l-2.76-.71a.78.78,0,0,1-.63-.76,1.1,1.1,0,0,1,.46-.91c.48-.45.92-.86,1.34-1.23h-5.47c-.31,0-.46-.27-.46-.71V41.94c0-.34.16-.53.49-.54h8.15l.85-1h-6.59a.9.9,0,0,1-1-1v-6A1.12,1.12,0,0,1,193,32h4.38V30.7h-6.78c-.61-.05-.91-.28-.91-.68Zm7.69,7.14h-2.41v2.19h2.41Zm2.59,9.4a11.79,11.79,0,0,1-1.17,1.13c1.06.21,2.09.39,3.09.52a8.11,8.11,0,0,0,2.38-1.65Zm.58-13.89V32h2.84V30.7Zm0,4.49v2.19h2.84V35.19Zm8.64,0h-2.63v2.19h2.63Z"/><path class="cls-1" d="M234.67,27.31c.34,0,.53.2.54.66V34.2h8.1c.45,0,.67.27.65.85v1.89c0,.44-.2.65-.65.65h-8.1V48.75h11c.31,0,.46.2.44.66v2.18c0,.48-.17.7-.55.66H221.87c-.35,0-.53-.18-.55-.66V49.41c0-.46.2-.68.55-.66h9.73V28c0-.46.21-.67.55-.66Z"/><path class="cls-1" d="M254.29,34.2a.68.68,0,0,1-.77-.76V31.91a.68.68,0,0,1,.77-.77h8.86c.44,0,.66.26.66.77v1.53c0,.51-.22.76-.66.76Zm7.55-3.71H255.6c-.58,0-.87-.26-.87-.77V28.41q0-1,.87-1h6.24q.9,0,.87,1v1.31C262.73,30.23,262.44,30.49,261.84,30.49Zm0,7.32H255.6c-.58,0-.87-.25-.87-.76V35.63c0-.61.29-.9.87-.88h6.24c.6,0,.89.24.87.77v1.53C262.73,37.56,262.44,37.81,261.84,37.81Zm0,3.72h-6.35a.67.67,0,0,1-.76-.76V39.34c0-.65.29-1,.87-1h6.24c.6,0,.89.29.87.88v1.53C262.73,41.28,262.44,41.53,261.84,41.53Zm.87,9.19q0,1.53-1.2,1.53h-5.58q-1.2,0-1.2-1.53V43.61c0-1,.4-1.42,1.2-1.42h5.58c.8,0,1.2.47,1.2,1.42Zm-4.92-5.25v3.39h2V45.47Zm8-18.16h11.05c.58,0,.88.22.88.66V38.25c0,.78-.28,1.19-.88,1.2h-4.05v1h5.58a.66.66,0,0,1,.66.76v1.64c0,.51-.22.77-.66.77H275a15.82,15.82,0,0,0,3.45,4.65c.52.42.64.81.35,1.17l-1.64,1.34a1.07,1.07,0,0,1-1.39-.24,17.39,17.39,0,0,1-3-4.19v5.47c0,.51-.29.77-.87.77h-1.31c-.66,0-1-.26-1-.77V46.34c-.36,1.39-1.67,3.07-3.91,5a.94.94,0,0,1-1.31,0L263,50c-.37-.4-.2-.85.49-1.34a14.81,14.81,0,0,0,4-5.06h-3.39c-.43,0-.65-.26-.65-.77V41.29c0-.57.22-.85.65-.85h5.47v-1h-3.83c-.65,0-1-.4-1-1.2V28C264.79,27.53,265.12,27.31,265.77,27.31Zm2.19,4.6h1.64V30.38H268Zm0,4.37h1.64V34.75H268Zm4.81-4.37h1.75V30.38h-1.75Zm0,4.37h1.86V34.75h-1.86Z"/></g></svg>