<svg xmlns="http://www.w3.org/2000/svg" xmlns:xlink="http://www.w3.org/1999/xlink" viewBox="0 0 900 675.51"><defs><style>.cls-1{fill:none;}.cls-2{clip-path:url(#clip-path);}.cls-3{fill:#f3eee8;}.cls-4{fill:#d1ccc7;}.cls-5{clip-path:url(#clip-path-2);}.cls-6{clip-path:url(#clip-path-3);}</style><clipPath id="clip-path"><path class="cls-1" d="M447.48,8.74C409,7.09,366.74,36,353.22,61.42c-17.65,33.19-23.37,73.14-6.33,107.77,24.4,49.56,92.22,74.49,143.36,56.74,62-21.52,85.68-95.84,59.5-154.51C549.76,71.41,532.45,12.4,447.48,8.74Z"/></clipPath><clipPath id="clip-path-2"><path class="cls-1" d="M114.73,446.16C76.21,444.51,34,473.41,20.48,498.84,2.83,532-2.89,572,14.15,606.61c24.4,49.56,92.22,74.49,143.36,56.74,62-21.52,85.68-95.84,59.5-154.51C217,508.83,199.7,449.82,114.73,446.16Z"/></clipPath><clipPath id="clip-path-3"><path class="cls-1" d="M753.15,446.16c-38.52-1.66-80.73,27.25-94.26,52.68C641.24,532,635.52,572,652.57,606.61c24.4,49.56,92.22,74.49,143.36,56.74,62-21.52,85.68-95.84,59.5-154.51C855.43,508.83,838.12,449.82,753.15,446.16Z"/></clipPath></defs><title>pyramid</title><g id="圖層_1" data-name="圖層 1"><g class="cls-2"><path class="cls-3" d="M447.48,8.74C409,7.09,366.74,36,353.22,61.42c-17.65,33.19-23.37,73.14-6.33,107.77,24.4,49.56,92.22,74.49,143.36,56.74,62-21.52,85.68-95.84,59.5-154.51C549.76,71.41,532.45,12.4,447.48,8.74Z"/><circle cx="455.89" cy="95.87" r="2.25"/><path d="M455.14,91.82c2.13-.27,5.1-.53,6.31,1.72,1.91,3.52-2.37,5.87-5.23,5.67a7.92,7.92,0,0,1-3.44-.72,2.69,2.69,0,0,1-1-2.76,4.58,4.58,0,0,1,3.76-4c1.88-.43,1.08-3.32-.8-2.89a7.51,7.51,0,0,0-5.91,7.87c.21,4.49,4.34,5.65,8.36,5.54,4.41-.12,8.17-3.65,7.53-8.21-.67-4.72-5.6-5.74-9.57-5.25C453.25,89.06,453.23,92.06,455.14,91.82Z"/><path d="M432.69,91.82c2.13-.27,5.1-.53,6.31,1.72,1.91,3.52-2.37,5.87-5.23,5.67a7.92,7.92,0,0,1-3.44-.72,2.69,2.69,0,0,1-1-2.76,4.58,4.58,0,0,1,3.76-4c1.88-.43,1.08-3.32-.8-2.89a7.51,7.51,0,0,0-5.91,7.87c.21,4.49,4.34,5.65,8.36,5.54,4.41-.12,8.17-3.65,7.53-8.21-.67-4.72-5.6-5.74-9.57-5.25C430.8,89.06,430.77,92.06,432.69,91.82Z"/><circle cx="432.99" cy="95.87" r="2.25"/><path d="M453.94,81.34a3.11,3.11,0,0,0-2.37.64,2.39,2.39,0,0,0-.42,2.77c.74,1.29,2.6,1.28,3.88,1,1.71-.36,3.41-2.33,1.88-3.92a3.55,3.55,0,0,0-4.6-.12c-1,1-.27,2.45.8,3a2.6,2.6,0,0,0,3-.43,1.52,1.52,0,0,0-.66-2.51l-.2-.07a1.51,1.51,0,0,0-1.85,1,1.53,1.53,0,0,0,1,1.85l.2.07L454,82.15a1.15,1.15,0,0,1,.27-.15l.15,0q-.23,0-.06,0c.05,0,.25.12.13,0s.41.78.33.39l-.39,1.46q.15-.17-.07,0t-.07.05q.16,0-.06,0h.22c.06,0,.57,0,.25,0l.13,0q.26.08,0,0,.17.11,0-.07a.8.8,0,0,1-.2-.86q.38-.56.17-.33t0,0c-.06,0-.38.2-.14.1,0,0-.53.14-.29.1s-.11,0-.16,0l-.41,0h-.37c-.32,0,.25.05-.07,0q-.2-.06,0,0a.78.78,0,0,1,.18,1.39c-.13.08-.38.05-.12.07h.56a1.5,1.5,0,0,0,0-3Z"/><path d="M437.33,81.34A3.11,3.11,0,0,0,435,82a2.39,2.39,0,0,0-.42,2.77c.74,1.29,2.6,1.28,3.88,1,1.71-.36,3.41-2.33,1.88-3.92a3.55,3.55,0,0,0-4.6-.12c-1,1-.27,2.45.8,3a2.6,2.6,0,0,0,3-.43,1.52,1.52,0,0,0-.66-2.51l-.2-.07a1.51,1.51,0,0,0-1.85,1,1.53,1.53,0,0,0,1,1.85l.2.07-.66-2.51a1.15,1.15,0,0,1,.27-.15l.15,0q-.23,0-.06,0c.05,0,.25.12.13,0s.41.78.33.39l-.39,1.46q.15-.17-.07,0t-.07.05q.16,0-.06,0h.22c.06,0,.57,0,.25,0l.13,0q.26.08,0,0,.17.11,0-.07a.8.8,0,0,1-.2-.86q.38-.56.17-.33t0,0c-.06,0-.38.2-.14.1,0,0-.53.14-.29.1s-.11,0-.16,0l-.41,0h-.37c-.32,0,.25.05-.07,0q-.2-.06,0,0a.78.78,0,0,1,.18,1.39c-.13.08-.38.05-.12.07h.56a1.5,1.5,0,0,0,0-3Z"/><path d="M442,94.3c-.52,2.2-1.65,6.23.72,7.78s5.46-.07,5.13-2.87a1.55,1.55,0,0,0-1.1-1.45l-.09,0c-1.88-.39-2.69,2.5-.8,2.89l.09,0-1.1-1.45c0,.3,0,.72-.45.36a4,4,0,0,1,0-1.09,14.12,14.12,0,0,1,.52-3.38c.44-1.88-2.45-2.68-2.89-.8Z"/><path d="M434,108.16c7.32-1.8,15.91-1.29,23.4-1.29a1.5,1.5,0,0,0,0-3c-7.82,0-16.6-.46-24.2,1.4-1.87.46-1.08,3.35.8,2.89Z"/><path d="M415.37,116.64c0-6.15-.38-12.06-.76-18.16s0-12,3-17.48c6.17-11.06,21.48-14.59,33.15-14.56,2.71,0,5.72-.38,8.4,0,3.34.48,7.51,2.68,10.24,4.7,5.18,3.82,6.44,9.56,8.73,15.09s3.25,11.4,4.11,17.27c.78,5.34,2.18,8.23,6,12.27,2.66,2.81,6.9-1.44,4.24-4.24-3.1-3.27-3.74-5.43-4.47-9.62-.57-3.25-1.23-6.33-1.52-9.6-.33-3.65-2.25-6.36-3.36-9.75-.94-2.88-1.52-5.37-3.16-8-3.73-5.94-8-9.35-14.34-12.29-5.81-2.71-13.71-2.45-20-1.87-12.07,1.11-26.19,6-32.81,16.89a32.48,32.48,0,0,0-4.31,17.92c.21,7.18.9,14.2.87,21.41,0,3.86,6,3.87,6,0Z"/><path d="M409.78,115.89c-4,7.23-12.3,10-18.61,14.71-6.54,4.92-13.36,9.67-17.51,16.91-8.28,14.43-6.8,33.67-4.69,49.45,2.64,19.73,6.47,39.32,8.71,59.08,1,8.74,1.86,17.69,3.77,26.28a73.82,73.82,0,0,0,3.26,12c.89,2.16,1.58,5.67,3.45,7.14,2.17,1.71,5.56,1.62,8.11,2.06,3,.52,6.2,1.45,9.31.51a8.69,8.69,0,0,0,5.75-6c1.15-3.83-.18-5.6-2.19-8.61l-4.71,3.64c3.3,3,8.7,3.16,11.4-.84,3.29-4.88-1-8.88-4.37-12-2.82-2.63-7.08,1.6-4.24,4.24.7.66,1.46,1.26,2.14,1.94a6,6,0,0,1,1,1q1.65,1.35-1.65,1.42c-2.41-2.16-6.7.66-4.71,3.64,1.19,1.78,3,4.34,0,5.83-1.48.75-3.78-.15-5.23-.39a29.09,29.09,0,0,0-5.33-.78l-1.54-.45q.86,1.47.45-.09c-4.07-8.57-5.91-18.15-7-27.54-2.24-19.66-6.05-39-8.8-58.55-1.32-9.43-3.1-19.35-3-28.86.1-9.93,0-20.45,4.5-29.6,4.13-8.46,13.61-15,21.41-19.85,6-3.78,11.95-6.8,15.53-13.28,1.87-3.38-3.31-6.41-5.18-3Z"/><path class="cls-3" d="M399.45,163l-.63.07c-.71,2.47-.13,5.82-.13,8.41a114.8,114.8,0,0,0,1.14,16.15c.45,3.24.63,6.53,1.11,9.76.4,2.66,1.29,5.14,1.85,7.76,1.31,6.1,1.81,12.34,2.88,18.47.49,2.83,1.5,5.53,2,8.36s.71,5.59,1.1,8.38c.77,5.59,1.9,11,2.87,16.58.84,4.78,1.46,9.61,2.26,14.4.68,4.08,2,7.89,2.85,11.92,1.29,6.36,3,12.62,4.77,18.81,1.73,6,2.49,12.29,4.14,18.28,1.07,3.89,3.44,7.49,4.24,11.4.15.73-.07,1.48.11,2.24.25,1.06,1,2,1.22,3.08a35.53,35.53,0,0,1,.89,6.74,26.74,26.74,0,0,0,1.95,8.06,8.77,8.77,0,0,1,.36,3.48c0,1.48-.12,1.59-1.5,2.24-2.77,1.33-3.74,3.87-5.8,6.08s-4.38,3.94-3.28,7.49c3.21.52,6.28,1.39,9.6.71a58.17,58.17,0,0,1,12-1.35c1.95,0,4.19-.34,6.08.06a17.73,17.73,0,0,0,4.46.69c2.68,0,6.13.63,8.69-.07a17.67,17.67,0,0,0,.11-4.46,26.36,26.36,0,0,1,.59-5.17c.58-3.25.17-6.93.17-10.23q0-5.9,0-11.8c0-5-1.27-9.73-1.55-14.64a32.91,32.91,0,0,0-.35-5.7c-.39-1.72-.76-3.48-1.07-5.22-.52-2.89-.35-5.91-.89-8.81-1.31-7-1.57-14.25-3-21.28"/><path d="M399.45,160l-.63.07a3.1,3.1,0,0,0-2.89,2.2c-1.24,6.27-.33,13.64.27,20,.68,7.16,1.34,14.41,3.13,21.38,1.9,7.39,2.13,15.06,3.81,22.48s2.59,14.93,3.93,22.45c2.74,15.42,5.26,30.74,9.24,45.91,2,7.68,3.8,15.32,5.56,23.05a65.18,65.18,0,0,0,3.6,10.48c1.29,3.13,1.93,6.6,2.87,9.86,1.1,3.79.69,7.84,1.78,11.66.4,1.42,1.89,4.78,1.31,5.65-.12.18-2.33,1.4-2.89,2-4,4.05-8.75,8.78-7.57,14.81a2.91,2.91,0,0,0,2.1,2.1c3.18.56,6.32,1.24,9.56.93,4.34-.42,8.48-1.3,12.86-1.47,6.7-.25,13.33,1.82,20,.58a3.07,3.07,0,0,0,2.2-2.89c1-7.18.9-14.58.88-21.84,0-3.89.15-7.81-.06-11.7s-1.13-7.89-1.42-11.86a390,390,0,0,0-5.47-42.73c-.71-3.79-6.49-2.19-5.79,1.6,2.64,14.14,3.87,28.72,5.44,43s2.34,29.27.42,43.57l2.2-2.89c-6,1.11-12.36-1-18.43-.79-7.15.24-13.7,2-20.82.75l2.1,2.1c-.55-2.81,5.72-8.78,7.7-10.18s2.81-2.28,3-4.84c.29-4.38-1.95-8.86-2.42-13.23a83.37,83.37,0,0,0-2.22-11.16c-1.13-4.56-3.55-8.64-4.71-13.2-1.08-4.24-1.73-8.58-2.74-12.84-2.31-9.76-4.94-19.5-7.41-29.22-2.37-9.37-3.4-19.2-5.09-28.72-.78-4.42-1.31-8.86-1.93-13.31-.6-4.29-1.94-8.4-2.65-12.67-.82-4.92-1.25-9.9-2.21-14.8s-2.23-9.62-2.78-14.65c-.53-4.88-1.23-9.72-1.46-14.63-.19-4.1-.91-9-.11-13l-2.89,2.2.63-.07c3.79-.44,3.84-6.44,0-6Z"/><path d="M439,283.06c3.09.16,5.82,1.45,8.76,2.26a39.89,39.89,0,0,0,7.62,1c2.59.21,5,1.07,7.55,1.34a83.71,83.71,0,0,0,8.85,0c5.4,0,10.58-.55,15.88-.74a38,38,0,0,0,14.17-3.51c2.64-1.27,1.41-5.83-1.51-5.59l-.52,0c-3.82.31-3.86,6.31,0,6l.52,0-1.51-5.59c-4.75,2.28-10,2-15,2.63a137.82,137.82,0,0,1-15.77.8c-4.79,0-9.41-1-14.19-1.41-5.12-.48-9.72-2.89-14.86-3.15-3.86-.2-3.85,5.8,0,6Z"/><path class="cls-3" d="M500.54,281.58c0,1.51-.1,3.05,0,4.56a10,10,0,0,0,.61,2.26c.34,1.33,0,2.66.32,4,.28,1.2,1,2.28,1.2,3.49.41,2,.4,4.21.74,6.28.64,3.91.89,7.86,1.7,11.74,1.39,6.63,2.89,13.33,3.74,20,.28,2.23-.09,4.38.45,6.55a20.3,20.3,0,0,1,.38,5.08c0,1.77,0,3.55,0,5.32,0,1.19.21,2.22-.41,3.26a15.74,15.74,0,0,1-2.61,2.65c-.91.89-1.93,1.47-2.91,2.26-1.2,1-1.17,1.6-1.84,2.89-1,2-3.92,3.1-2.85,5.83,1.42,3.62,8.21,1.7,11,1.08,5-1.1,9.85-.14,14.87-.63a38.72,38.72,0,0,0,6.4-1.47c.85-.24,2.29-.19,3-.81s.49-1.78.47-2.92a24.93,24.93,0,0,1,.59-5.68c.46-2.25.17-4.73.17-7a175.07,175.07,0,0,0-3.23-31.59c-1.18-6.46-1.73-13-2.69-19.52-1.13-7.7-1-15.51-2.28-23.22a41.91,41.91,0,0,1-.13-5.3c-.07-1.74-.73-3.37-.84-5.09-.26-4.05-.34-8.07-.79-12.11-.93-8.37-1.79-16.78-3.38-25.12a61.69,61.69,0,0,1-1.09-10.75c0-4.05-1.49-8-1.56-12-.13-6.94-1.53-13.71-2.85-20.54-.45-2.34-.09-4.77-.14-7.14,0-2-.72-3.85-.83-5.84a23.05,23.05,0,0,0-.33-4.18c-.27-1.18-.74-2.4-1-3.6-.29-1.46.11-2.94-.11-4.37a15.77,15.77,0,0,0-1.57-3.82,14.35,14.35,0,0,0-2.31-3.4c-.89-1.05-1.34-2.45-2.26-3.42"/><path d="M497.54,281.58a47,47,0,0,0,1.86,13.94c1.76,6.09,1.6,12.94,2.8,19.19,1.16,6.06,2.75,12.08,3.5,18.22.39,3.19.53,6.45.83,9.65.25,2.74,1.1,7.91-.15,10.41-.82,1.66-3.49,2.74-4.77,4s-2.16,3.1-3.27,4.67c-2.21,3.11-3.93,6.65-.3,9.68,2.78,2.32,6.84,1.69,10.1,1.08,5.9-1.12,11.66-.47,17.56-1.23,3.21-.42,10-1,11.64-4.48.74-1.59.34-3.38.42-5.08.16-3.21.82-6.24.78-9.48-.19-14.32-2.74-28-4.57-42.09-3.54-27.44-4.42-55.06-8.91-82.39-.65-3.93-.72-7.74-1.08-11.69-.31-3.47-1.19-6.84-1.47-10.31-.64-8-2.82-16.14-3.07-24.1-.1-3.24-.42-6.21-.75-9.42s-1.11-6.16-1.41-9.24c-.27-2.67-.21-4.54-1.38-7a50.79,50.79,0,0,0-5.17-8.06c-2.27-3.08-7.48-.09-5.18,3,1.31,1.78,2.73,3.72,3.91,5.6,1.6,2.56,1.58,5,1.93,7.9.63,5.14,2.05,10.17,2.12,15.41s1.16,10.21,2,15.45c1,6.44,1.42,13,2.29,19.43.74,5.52.88,11,1.85,16.53,1.18,6.78,2,13.62,2.7,20.46,1.3,12,2.3,24,3.17,36,1.74,24.22,8.73,48.21,6.37,72.55-.08.79.23,2.76-.1,3.41-.44.86.41-.17-1.27.28a37.57,37.57,0,0,1-9.35,1.51,88.23,88.23,0,0,0-14.61,1.19c-1.79.32-4.07,1.13-3.57-1.15.27-1.24,2.36-3.56,3.25-4.51,2.71-2.91,5.89-4,6.44-8.34.72-5.8-.39-12-.77-17.8-.42-6.36-2-12.74-3.33-19s-1.74-12.51-2.72-18.78c-.83-5.28-2.38-10-2.3-15.48.06-3.86-5.94-3.86-6,0Z"/><path d="M489.9,107.56h-.5v6a47.7,47.7,0,0,1,22.65,5.52c7,3.51,10.12,9.93,13.43,16.59,4,8.08,6.8,15.34,7,24.51.08,3.81.69,7.52.82,11.3s-.12,7.68.35,11.58c.44,3.72.12,7.42.55,11.13.53,4.66,1.41,9.18,1.31,13.89a66.85,66.85,0,0,0,.31,10.62c.59,4.35.12,8.73.8,13.06,1.2,7.7,1.21,15.81,1.21,23.63a117.06,117.06,0,0,1-.65,12.31c-.14,1.35.06,2.78-.16,4.11-.26,1.6-3.11,6.88-5,2.91-1.65-3.49-6.83-.45-5.18,3,2.18,4.6,7.31,5.25,11.53,2.84,5.34-3,4.66-10.09,5.29-15.33a91.17,91.17,0,0,0,.17-10.79c0-4,.39-8.27-.24-12.26-1.19-7.53-.67-15.25-1.62-22.84-1-8-.5-15.95-1.58-24-1.14-8.49-.46-17.19-1.18-25.7-.65-7.68-.3-15.91-2.61-23.35a91.15,91.15,0,0,0-8.47-19.29c-8.22-13.7-23.24-19.58-38.73-19.51-3.86,0-3.87,6,0,6h.5c3.86,0,3.87-6,0-6Z"/><path d="M444,110.33c-3.38-.41-5.21,2.91-4.4,5.89a4.3,4.3,0,0,0,2.63,3.06c1.73.56,3.34-.34,4.6-1.46l-2.36-.3c.86,1.4,2.08,2.83,3.84,2.93a4.05,4.05,0,0,0,3.26-1.5c1.38-1.57,2.55-5.22,0-6.39-1.74-.8-3.27,1.78-1.51,2.59.27.13,0-.17,0-.06a1.66,1.66,0,0,1,0,.39,3.2,3.2,0,0,1-.66,1.41c-1,1.15-1.72.12-2.33-.89a1.52,1.52,0,0,0-2.36-.3,3.23,3.23,0,0,1-1.08.7,3.56,3.56,0,0,1-.4.07c-.46-.16-.67-.65-.79-1.23-.25-1.27.15-2.08,1.55-1.91,1.91.23,1.9-2.77,0-3Z"/><path class="cls-4" d="M417.48,158.89c-.55,10.66,2.57,21.64,4.21,32.11,1.89,12,3.24,24.05,5.81,36,.56,2.6,1.42,6.19,2.87,8.49,1.66,2.64,3.86,1.95,6.87,1.58,6-.73,12-.34,18-.62,7-.33,13.81-2,20.77-2.62a149.34,149.34,0,0,0,16.72-2.53c3.6-.74,5.14-.12,5.47-4,.87-10.37-.46-21.28-.6-31.7-.16-12-2.57-23.85-2.36-35.81,0-2,.68-6.94-.87-8.54s-7.58-1-9.63-1.31c-14.57-2-30-.83-44.4,1.71a91.28,91.28,0,0,0-17,4.91c-1.43.54-7.35,1.7-6,3.63"/><path d="M414.48,158.89c-.41,12.41,3.08,24.52,4.9,36.7,1.8,12,2.58,24.92,6.33,36.55,1.08,3.34,2.6,7.08,6.32,8.07,1.71.46,3.5,0,5.22-.16a104.15,104.15,0,0,1,10.82-.49c12.42-.1,24.93-2,37.19-3.89,3.71-.57,9.64-.68,13-2.63,3.72-2.16,3.19-7.65,3.27-11.31a341,341,0,0,0-1.64-38.43c-.56-6-1.28-11.91-1.52-17.89-.17-4.32,1.08-10.12-.57-14.26-1.19-3-3.87-3.68-6.82-4-4.77-.48-9.68-.8-14.47-1.08a143.9,143.9,0,0,0-41.34,3.55,156,156,0,0,0-15.69,4.94c-2.75,1-6.26,2.84-4.94,6.37s7.15,2,5.79-1.6c1,2.57-1.21.94.74,1a9.31,9.31,0,0,0,1.81-.56c1.57-.52,3.11-1.09,4.68-1.63a89.42,89.42,0,0,1,13.62-3.68,153.22,153.22,0,0,1,30.68-2.6c4.59.1,9.08.73,13.65,1.06,1.43.1,2.87,0,4.3.13,2.46.19,2.24.07,2.64,2.24.68,3.69-.2,8.18,0,12,.29,5.35.93,10.67,1.43,16,.93,10,1.14,20,1.52,30,.08,2.18.14,4.37.14,6.56,0,1.56.63,6.74-.37,7.86-.38.42-2.6.55-3.19.66-2.77.5-5.53,1.08-8.32,1.5-10.16,1.54-20.82,3.4-31.08,3.63-4.51.1-9-.06-13.53.35-1.19.11-4.08,1-5.25.55-2.07-.76-2.84-5.71-3.26-7.54C428,215.73,426.73,204.33,425,193s-4.93-22.59-4.54-34.16c.13-3.86-5.87-3.86-6,0Z"/><path d="M448.57,358.75A8.64,8.64,0,0,0,444,371c2,3.33,7.14.31,5.18-3a2.6,2.6,0,0,1-.15-1.91,2.21,2.21,0,0,1,1.15-1.53,3.08,3.08,0,0,0,2.1-3.69,3,3,0,0,0-3.69-2.1Z"/><path d="M436.91,370.51a5.38,5.38,0,0,1,1.81-4,3.1,3.1,0,0,0,1.08-4.1c-.74-1.27-2.8-2.06-4.1-1.08a11.39,11.39,0,0,0-4.78,9.18c.07,3.86,6.07,3.87,6,0Z"/><path d="M523.81,355.71A8.64,8.64,0,0,0,519.23,368c2,3.33,7.14.31,5.18-3a2.6,2.6,0,0,1-.15-1.91,2.21,2.21,0,0,1,1.15-1.53,3.08,3.08,0,0,0,2.1-3.69,3,3,0,0,0-3.69-2.1Z"/><path d="M512.16,367.47a5.38,5.38,0,0,1,1.81-4,3.1,3.1,0,0,0,1.08-4.1c-.74-1.27-2.8-2.06-4.1-1.08a11.39,11.39,0,0,0-4.78,9.18c.07,3.86,6.07,3.87,6,0Z"/><path d="M420.35,87.74c4.39,0,8.83.18,13.22,0,1.24,0,3-.59,4.19-.28,2.74.72,2.11,3.15,2,5.27s.74,5.63-.22,7.6c-1.14,2.33-5.2,2.07-7.44,2.29a64.49,64.49,0,0,1-7.72.46c-2.85-.07-2.79-1.14-3.11-3.82a53.75,53.75,0,0,1-.2-13c.25-1.91-2.75-1.89-3,0a53.12,53.12,0,0,0-.06,9.83c.14,2.4,0,6.07,1.36,8.2s3.77,1.82,5.9,1.8a84,84,0,0,0,10.61-.85c2.57-.36,5.16-.93,6.33-3.51,1.38-3.06.72-8,.7-11.22,0-3-1-5.39-4.16-6-2.15-.4-4.67.18-6.85.21-3.85,0-7.71,0-11.56,0a1.5,1.5,0,0,0,0,3Z"/><path d="M446.22,86.62c0,4.26-.08,8.52-.14,12.78,0,2.33.21,4.47,2.39,5.74,2.36,1.38,5.58.84,8.16.66,4.62-.33,9.21.18,13.84.16a1.53,1.53,0,0,0,1.5-1.5c.28-5.33,1.4-11.72.27-17-.54-2.51-2-3.56-4.44-4-5.79-1.1-16.3-1.77-20.75,2.87-1.34,1.39.78,3.52,2.12,2.12,3.4-3.54,11.37-2.57,15.83-2.24,4.18.31,4.44,1.69,4.4,5.53,0,4.24-.21,8.49-.43,12.72l1.5-1.5c-3.53,0-7-.4-10.57-.35-2.12,0-4.31.53-6.42.38a4.74,4.74,0,0,1-4.41-3c-.27-.72.15-2.95.17-3.71.07-3.22,0-6.44,0-9.66a1.5,1.5,0,0,0-3,0Z"/><path d="M443.56,94.15a15,15,0,0,1,4.92-.33,1.5,1.5,0,0,0,0-3,17.48,17.48,0,0,0-5.72.43c-1.82.61-1,3.51.8,2.89Z"/><path d="M436.7,217.31c10.13-.11,20.08-2,30.13-3.1,7.91-.88,16.24-1.36,23.88-3.72,3.68-1.13,2.11-6.93-1.6-5.79-7.57,2.33-15.75,2.77-23.59,3.65-9.61,1.07-19.13,2.85-28.83,3-3.86,0-3.87,6,0,6Z"/><path d="M450.76,212.41c.58-3.1-2-10.3-2.8-15.14-3,.21-5.9.45-8.07,2.9.89,4.37,1.27,9.72,2.9,13.77C442.78,213.93,450.59,213.29,450.76,212.41Z"/><path d="M452.26,212.41c.63-5.1-1.92-10.59-2.86-15.54a1.5,1.5,0,0,0-1.45-1.1c-2.67.2-8.83.7-9.55,4.2-.36,1.77.72,4.7,1,6.5a41.91,41.91,0,0,0,1.91,7.87,1.54,1.54,0,0,0,1.45,1.1c2.46-.21,7.75,0,9.28-2.26,1.07-1.61-1.53-3.12-2.59-1.51.4-.6-.76,0-1.24.09-.82.17-1.66.27-2.48.38-1,.12-2,.22-3,.31l1.45,1.1c-1.64-4.43-2-9.16-2.9-13.77l-.39,1.46c2-2,4.32-2.25,7-2.46l-1.45-1.1c.89,4.69,3.34,9.92,2.75,14.74C449,214.33,452,214.31,452.26,212.41Z"/><path d="M467.06,210.53c0-9.35-2.8-20.62-4.3-26.11-2.25-.13-5.4,1.69-7.67,2.09-.74,8.13,2.64,16.81,2.64,25.14C457.72,211.65,467.06,211.46,467.06,210.53Z"/><path d="M468.56,210.53c-.14-9-2-17.86-4.35-26.51a1.52,1.52,0,0,0-1.45-1.1c-2.86.2-5.32,1.45-8.07,2.14a1.54,1.54,0,0,0-1.1,1.45c-.48,8.51,2.4,16.67,2.64,25.14a1.52,1.52,0,0,0,1.5,1.5c2.63-.06,8.92.67,10.63-1.86,1.08-1.6-1.52-3.11-2.59-1.51-.36.53-6.77.35-8,.38l1.5,1.5c-.23-8.46-3.11-16.64-2.64-25.14l-1.1,1.45c2.43-.62,4.74-1.86,7.27-2l-1.45-1.1c2.27,8.4,4.11,17,4.25,25.71C465.59,212.46,468.59,212.47,468.56,210.53Z"/><path d="M481.45,209.93c2-1.18-2.16-22.76-3.76-33.84-1.56.64-7.24,1.9-8.2,3.27-1.1,1.57.42,6.58.75,8.19,1.53,7.48,3.47,15.61,3.24,23.36C473.48,210.91,478.41,211.69,481.45,209.93Z"/><path d="M482.52,211c2.58-2.49.55-9.68.16-12.61-1-7.59-2.42-15.11-3.53-22.68a1.51,1.51,0,0,0-1.85-1c-4.51,1.62-10.08,1.83-9.61,7.77.77,9.63,4.38,18.64,4.3,28.49a1.51,1.51,0,0,0,1.1,1.45,16.16,16.16,0,0,0,9.13-1.13c1.76-.79.23-3.38-1.51-2.59a12.56,12.56,0,0,1-6.82.83l1.1,1.45c.07-7.47-1.41-14.74-2.94-22-.41-2-2.15-6-1.45-7.81.9-2.34,5.36-2.77,7.49-3.54l-1.85-1c.89,6,2,12,2.87,18.06.45,3,.9,6,1.18,9,.08.87.82,4.58.11,5.27C479,210.21,481.12,212.33,482.52,211Z"/><path d="M426.89,166.7a22.61,22.61,0,0,1,.24,3.62,1.52,1.52,0,0,0,1.5,1.5c2.52-.17,4.84-1.14,7.32-1.53a29.22,29.22,0,0,0,6.35-1.21c3.18-1.26,4.47-3.83,2.31-7-2.51-3.64-7-.52-10.2.11-2.93.57-7.34,1.5-6.27,5.43a1.51,1.51,0,0,0,2.51.66q.51-.57,1-1.14l-2.51-1.46a14.52,14.52,0,0,1-.69,2.69l2.89.8a8.36,8.36,0,0,1,1.3-2.79l-2.8-.76-.77,1.85,2.74,1.16a3.48,3.48,0,0,1,1.54-2.2l-2.05-.54-.21.73,2.51,1.46c.32-1.4,1.39-1.88,2.66-2.05l-1.85-1.85a3.53,3.53,0,0,1-1.72,2.25l1.82,2.36a7,7,0,0,1,3.34-1.93l-1.69-2.2a4.36,4.36,0,0,1-1.92,1.48l2.2,1.69c.29-1.32,1.92-1.74,3-1.6l-1.3-2.26a2.94,2.94,0,0,1-1.88,1l1.85,1.85a2.76,2.76,0,0,1,2-1.47l-1.85-1-.12.81,2.51,1.46.64-1.22h-2.59l.29,1.25c.25,1.71,2.93,1.24,2.95-.4l.5-1.42-2.74-.36a5.91,5.91,0,0,1,.31,1.47c.24,1.69,3,1.26,2.95-.4q0-1,0-1.92l-2.95.4a11.62,11.62,0,0,1,.55,1.83l2.51-1.46-.54-.63c-1.26-1.47-3.37.66-2.12,2.12l.54.63c1,1.18,2.86-.09,2.51-1.46a11.62,11.62,0,0,0-.55-1.83,1.51,1.51,0,0,0-2.95.4q0,1,0,1.92l2.95-.4a5.91,5.91,0,0,0-.31-1.47,1.52,1.52,0,0,0-2.74-.36,4.58,4.58,0,0,0-.91,2.94l2.95-.4a6.22,6.22,0,0,0-.6-2c-.47-1.09-2.06-.86-2.59,0a10.6,10.6,0,0,0-.95,1.94c-.55,1.38,1.58,2.58,2.51,1.46a3.62,3.62,0,0,0,.89-3.73,1.51,1.51,0,0,0-1.85-1c-1.94.64-3.49,1.53-4.1,3.57a1.51,1.51,0,0,0,1.85,1.85,5.64,5.64,0,0,0,3.67-2.37c.72-1-.28-2.14-1.3-2.26-2.45-.29-5.37,1.31-5.93,3.81a1.52,1.52,0,0,0,2.2,1.69,7.31,7.31,0,0,0,3-2.55c.77-1.12-.5-2.51-1.69-2.2a10.79,10.79,0,0,0-4.66,2.7c-1.25,1.12.42,3.36,1.82,2.36a7,7,0,0,0,3.1-4,1.52,1.52,0,0,0-1.85-1.85,5.42,5.42,0,0,0-4.76,4.15,1.51,1.51,0,0,0,2.51,1.46c1.46-1.25,1.53-2.73.68-4.37a1.51,1.51,0,0,0-2.05-.54,7,7,0,0,0-2.92,4c-.59,1.71,1.81,2.45,2.74,1.16a6.19,6.19,0,0,0,1.18-3.36c.16-1.62-2-1.85-2.8-.76a10.54,10.54,0,0,0-1.6,3.5,1.5,1.5,0,0,0,2.89.8,14.52,14.52,0,0,0,.69-2.69c.21-1.32-1.42-2.72-2.51-1.46q-.49.58-1,1.14l2.51.66c-.37-1.37,5.86-2,6.46-2.17a27.24,27.24,0,0,1,2.62-1c1.2-.21,3,.93,2.42,2-.9,1.51-5.34,1.47-6.81,1.69-2.4.36-4.68,1.35-7.1,1.51l1.5,1.5a27.55,27.55,0,0,0-.35-4.41c-.36-1.89-3.25-1.09-2.89.8Z"/></g><path d="M447.48,5.74C418.69,4.8,390,18.43,369,37.45c-21.7,19.6-32.84,49.4-35,78.16-2.18,29.26,7.34,58.2,27.51,79.63,17.31,18.4,40.86,30.82,65.42,36.26s50.49,4,73.51-6.43c22-10,39.71-27.9,50.35-49.48,17.38-35.26,15.49-75.78-.54-111.07-14.54-32-47.8-50.9-81.39-56.54a180.24,180.24,0,0,0-21.37-2.23c-3.86-.18-3.85,5.82,0,6,36.83,1.75,74.92,15.89,94.16,49.2,15.41,26.66,19.67,61.25,11.56,91.3-5.9,21.88-18.34,42-36.35,56C498,222.82,474.4,229.41,450.7,228.56c-50.05-1.8-100.11-34.82-109.45-86.12-2.77-15.23-1.82-31,1.79-46.05,3.28-13.64,8.42-27.83,16.44-39.44,15-21.75,41.34-37.53,66.86-43.21a84.15,84.15,0,0,1,21.14-2C451.34,11.87,451.34,5.87,447.48,5.74Z"/><path d="M519.44,80.18c0,6-1.57,8.33-1.24,14.24,4.28-2.59,8.31-3.71,11.8-7,1.3,5.89,13.91,9.38,19,10.57,12,2.79,24.12-3.81,30.42-13.91,8.76-14,2.12-35.09-9.44-45.46-9.74-8.73-23.25-12.14-36.14-11.45-20,1.07-33.58,10.58-31.58,34.87.49,5.9,11.9,20.84,17.15,18.12"/><path d="M517.94,80.18c-.14,4.8-1.37,9.42-1.24,14.24a1.52,1.52,0,0,0,2.26,1.3c4.12-2.37,8.47-4.09,12.1-7.22l-2.51-.66c2.06,6.5,10.62,9,16.46,10.69,8.55,2.43,17,1.95,24.71-2.75,16.51-10,18.56-30.06,10.3-46.27-8.92-17.52-28.5-25.08-47.4-23.73-14.3,1-27.72,7.58-31.09,22.58-1.81,8.06-1.47,15.77,3.15,22.7,2.75,4.12,9.11,12.92,15.15,10.58,1.78-.69,1-3.59-.8-2.89-4.57,1.78-10.45-7.07-12.36-10.12-3.52-5.61-3.69-11.86-2.49-18.3,2.32-12.47,12-19.2,24-21.06C543.9,26.83,562,30.79,572.5,43.42c9.75,11.74,13.69,30.71,3.26,43.23-6.43,7.72-16.37,11.94-26.33,9.91-5.46-1.11-16.08-3.51-18-9.52a1.52,1.52,0,0,0-2.51-.66c-3.42,2.94-7.62,4.52-11.5,6.75l2.26,1.3c-.13-4.81,1.1-9.44,1.24-14.24.06-1.93-2.94-1.93-3,0Z"/><path class="cls-3" d="M537.38,57.2c-.08.26-.16.52-.24.76a9.33,9.33,0,0,0,5.3,2.26L541.61,62a12.82,12.82,0,0,1-1.44-.32v8.16h-3.38a46,46,0,0,1,5.56,1.26l-.68,1.66A41.92,41.92,0,0,0,535,71l.62-1.22h-4.5l.8,1.06a23,23,0,0,1-6.36,1.86l-.94-1.62a28.2,28.2,0,0,0,5.6-1.3h-3.38V61.43h4.88l-.76-1.2c2.64-.46,4.2-1.58,4.68-3.38Zm-6.92,1.44v1.78h-5.82V58.64ZM530,55V56.8h-5V55Zm8.08,8.78V63h-9.26v.84Zm0,2.14v-.8h-9.26V66Zm0,1.32h-9.26v.88h9.26Zm-6.68-8.38-1.14-1.5a7,7,0,0,0,2.84-3.5l1.92.24c-.12.32-.22.6-.34.88h6.94v1.44a11.83,11.83,0,0,1-1.72,2.64L538.54,58a8.65,8.65,0,0,0,1-1.22h-5.8A11.09,11.09,0,0,1,531.44,58.91Zm8.1,2.52a9.42,9.42,0,0,1-3.2-2.08,6.6,6.6,0,0,1-3.26,2.08Z"/><path class="cls-3" d="M549,56.36c-.24-.62-.48-1.22-.76-1.82l2-.54a22.2,22.2,0,0,1,.74,2.36h2.4v1.92h-7V56.36Zm3.84,15.88h-1.9v-.82h-2.12v1h-1.92V65.15h5.94Zm-.16-12.88v1.82h-5.58V59.36Zm0,2.8V64h-5.58V62.17Zm-1.74,7.38V67h-2.12v2.52Zm4.9-7.48V56.78h-2.08v-2h8.56v6.54a43.48,43.48,0,0,0,.44,7.68c.12.6.24.92.36.92a2.79,2.79,0,0,0,.14-.86c0-.54,0-1.14,0-1.82l1.62.78a11.13,11.13,0,0,1-.56,3.74.9.9,0,0,1-.78.58A2.32,2.32,0,0,1,561.6,71c-.9-1.52-1.36-4.74-1.36-9.64V56.78h-2.42v5.28h2.12v2h-2.12v8.42h-2V64h-2.14v-2Z"/><g class="cls-5"><path class="cls-3" d="M114.73,446.16C76.21,444.51,34,473.41,20.48,498.84,2.83,532-2.89,572,14.15,606.61c24.4,49.56,92.22,74.49,143.36,56.74,62-21.52,85.68-95.84,59.5-154.51C217,508.83,199.7,449.82,114.73,446.16Z"/><path d="M122.46,503.41c-3.47-3.23-8-9.23-.94-11,3.64-.91,7.81-.28,11.4.55,8,1.85,16.73,6,21.28,13.19a20.53,20.53,0,0,1,2.93,10c.1,3.36-1,4.77-4.62,3.75a47.83,47.83,0,0,1-7.75-3.34c-4-2-7.77-4.34-11.73-6.37-2.92-1.5-8.36-3.49-9.29-7-1-3.73-6.78-2.15-5.79,1.6,1.47,5.49,7.42,8.2,12.05,10.58,6.84,3.52,13.44,8.18,20.91,10.32,15.22,4.36,13.49-14.89,8.13-23.07-6.73-10.29-20.44-16.06-32.41-16.56-4.89-.21-11.43.66-14.08,5.41-3.3,5.91,1.48,12.27,5.66,16.16,2.82,2.63,7.08-1.6,4.24-4.24Z"/><path d="M117.71,490.24c-3.16,3.71-2.24,11.81.77,15.38,1.52,1.8,4.4.68,5-1.32,1-3.41.5-6.65.35-10.15-.17-3.85-5.87-3.87-6,0s-.27,7.71,1.37,11.35c1.09,2.43,4.86,1.6,5.48-.72,1.21-4.46.17-8.87.2-13.4l-5.59,1.51c2.26,3.62,2.25,8.44,3,12.55.52,3,5.06,2.69,5.79,0,1.27-4.7-2-9.57-.21-14l-5.48.72c2.9,3.86,1.93,10.24,1.83,14.8h6c-.15-5-1-9.91.77-14.7l-5.48.72c1.21,1.91.71,4.64.76,6.8.07,2.77.47,5.5.48,8.28h6c-.09-4.45-.83-9,.44-13.31l-5,1.32c2.25,2.36.86,9.62.91,12.7,0,3.26,5.23,4.23,5.89.8,1-5.35-.58-10.73.51-16h-5.79c1.55,5.55,1.39,11.29,1.61,17,.15,3.84,6,3.88,6,0,0-5.57-2.35-12.89-.57-18.25l-5.48.72c3.17,6,2.65,13.81,2.61,20.42h6c-.71-6.11-2.51-13.72.39-19.49H135c1.61,2.5,1.27,6,1.39,8.86.15,3.54.37,7.06.43,10.6l5.89-.8c-1.15-5.53-2-11.68-.54-17.22l-5.48.72c1.38,2.12,1.25,5.09,1.45,7.52.27,3.34.66,6.66.7,10l5.89-.8c-.89-4.18-2.54-10.59-.49-14.63h-5.18c2,4.26,3.86,10.39,2.81,15.09l5.48-.72a18.66,18.66,0,0,1-.64-13.65l-5,1.32c2.74,3.08,3,10.85,1.75,14.57l5-1.32c-1.48-1.92-2.12-8.66-.28-10.45H144c2.73,3.07,2.47,10.38,1.93,14.23l5.48-.72c-2.21-3.32-2.26-9.79-.62-13.38l-4.71.61c3,2.63,2.13,11.08,1.9,14.72l5.12-2.12c-3.48-4.33-5.78-11.86-4.52-17.36l-3.69,2.1c2.43.42,5.65,11.07,4.24,13.08l4.71-.61c-1.37-1.59-2.21-4.13-2.89-6.06-.33-.93-.51-2-.89-2.93a7.9,7.9,0,0,1-.28-1.75q-2.69-.07-1.46.88c-.19.94,2,5,2.23,6.38.3,1.61,1,4.76.15,6.31l4.71-.61c-2.38-2.73-3-8.74-.89-11.7l-4.1,1.08c2.53,1.37,2.22,10,1.81,12.46H158c-.35-1.58-1.11-4.26.1-5.7l-3.64.47c.56.42.4,2.78.84,3.55q-.41,2.66,3.13.43a2.91,2.91,0,0,1-.23-1.68l-4.41,1.79q2.9,1.07,2.23-1l-4.71.61q1.35-1,2.82.9c.54-3.78-5.24-5.41-5.79-1.6-1.79,12.45,15.51,3,7.21-3.55-1.43-1.13-3.73-1.27-4.71.61-2,3.79.21,11.48,5.65,9.85,4.6-1.38,4.54-9.17.34-11-1.7-.73-3.9-.28-4.41,1.79-.88,3.64,2.09,12.21,7.05,8.37,4.06-3.14,1.42-11.69-2-14.25a3,3,0,0,0-3.64.47c-2.86,3.4-2.55,7.39-1.64,11.54.61,2.78,5.29,2.94,5.79,0,.9-5.35,1-16.21-4.57-19.24a3.09,3.09,0,0,0-4.1,1.08c-3.77,5.24-2.21,14.32,1.83,19a3,3,0,0,0,4.71-.61c3-5.29.52-21.31-7.05-21.92-10.14-.82-2.22,16.86.76,20.32,1.36,1.57,3.69.86,4.71-.61,3.51-5-1.35-20.78-7.83-21.89a3.06,3.06,0,0,0-3.69,2.1c-1.79,7.79,1.15,17.07,6.06,23.2,1.77,2.2,5,.2,5.12-2.12.35-5.48.95-15-3.66-19-1.31-1.14-3.86-1.27-4.71.61-2.53,5.56-2.88,14.18.62,19.43,1.26,1.89,5.09,2.05,5.48-.72.88-6.2.95-15.1-3.47-20.07a3,3,0,0,0-4.24,0c-4.49,4.38-3.25,14.37.28,18.93,1.48,1.91,4.39.58,5-1.32,1.94-5.91.93-15.66-3.29-20.4-1.61-1.81-4.31-.66-5,1.32-2.09,5.85-1.32,12.71,1.25,18.27,1.08,2.34,4.95,1.69,5.48-.72,1.43-6.43-.63-13.91-3.42-19.71a3,3,0,0,0-5.18,0c-2.92,5.74-1.4,13.24-.12,19.25.71,3.33,5.93,2.55,5.89-.8-.05-4.13-.5-8.29-.89-12.4-.27-2.79-.52-5.76-2.08-8.17a3,3,0,0,0-5.48.72c-1.77,6.62-.83,13.79.54,20.41.69,3.34,5.95,2.55,5.89-.8-.07-4.33-.3-8.65-.52-13-.16-3.23-.33-6.72-2.13-9.51-1.15-1.78-4.12-2.11-5.18,0-3.54,7-2.08,15-1.21,22.52.43,3.74,6,4,6,0,0-7.8.3-16.36-3.43-23.45-1.27-2.41-4.71-1.6-5.48.72-2,6.08.38,13.59.36,19.84h6c-.24-6.25-.12-12.53-1.82-18.6-.76-2.72-5.17-3-5.79,0-1.1,5.36.51,10.71-.51,16l5.89.8c-.07-5.2,1.29-12.8-2.67-16.94a3,3,0,0,0-5,1.32c-1.44,4.9-.76,9.88-.66,14.91.08,3.85,6,3.87,6,0,0-3.55-.39-7.09-.48-10.65-.07-2.6-.16-5.2-1.58-7.46a3,3,0,0,0-5.48.72c-1.91,5.33-1.15,10.76-1,16.29.12,3.86,5.91,3.87,6,0,.12-5.64,1-13-2.65-17.83a3.05,3.05,0,0,0-5.48.72c-1.92,4.85,1.48,9.31.21,14H128c-.81-4.72-1-9.81-3.56-14a3,3,0,0,0-5.59,1.51c0,3.92,1.05,8,0,11.8l5.48-.72c-1.1-2.45-.63-5.71-.55-8.32h-6c.13,2.89.73,5.74-.13,8.56l5-1.32c-.7-.83-1.48-6.07-.77-6.89,2.49-2.92-1.73-7.19-4.24-4.24Z"/><path d="M144.51,498c1.5-4.17,7.06-6.24,10.78-7.83,1.5-.64,1.81-2.82,1.08-4.1a3.08,3.08,0,0,0-4.1-1.08c-5.54,2.37-11.38,5.41-13.54,11.42-1.31,3.64,4.49,5.21,5.79,1.6Z"/><circle cx="123.14" cy="533.29" r="2.25"/><path d="M122.39,529.24c2.13-.27,5.1-.53,6.31,1.72,1.91,3.52-2.37,5.87-5.23,5.67a7.92,7.92,0,0,1-3.44-.72,2.69,2.69,0,0,1-1-2.76,4.58,4.58,0,0,1,3.76-4c1.88-.43,1.08-3.32-.8-2.89a7.51,7.51,0,0,0-5.91,7.87c.21,4.49,4.34,5.65,8.36,5.54,4.41-.12,8.17-3.65,7.53-8.21-.67-4.72-5.6-5.74-9.57-5.25C120.5,526.48,120.48,529.48,122.39,529.24Z"/><path d="M99.94,529.24c2.13-.27,5.1-.53,6.31,1.72,1.91,3.52-2.37,5.87-5.23,5.67a7.92,7.92,0,0,1-3.44-.72,2.69,2.69,0,0,1-1-2.76,4.58,4.58,0,0,1,3.76-4c1.88-.43,1.08-3.32-.8-2.89a7.51,7.51,0,0,0-5.91,7.87c.21,4.49,4.34,5.65,8.36,5.54,4.41-.12,8.17-3.65,7.53-8.21-.67-4.72-5.6-5.74-9.57-5.25C98.05,526.48,98,529.48,99.94,529.24Z"/><circle cx="100.24" cy="533.29" r="2.25"/><path d="M121.2,518.76a3.11,3.11,0,0,0-2.37.64,2.39,2.39,0,0,0-.42,2.77c.74,1.29,2.6,1.28,3.88,1,1.71-.36,3.41-2.33,1.88-3.92a3.55,3.55,0,0,0-4.6-.12c-1,1-.27,2.45.8,3a2.6,2.6,0,0,0,3-.43,1.52,1.52,0,0,0-.66-2.51l-.2-.07a1.51,1.51,0,0,0-1.85,1,1.53,1.53,0,0,0,1,1.85l.2.07-.66-2.51a1.15,1.15,0,0,1,.27-.15l.15,0q-.23,0-.06,0c.05,0,.25.12.13,0s.41.78.33.39l-.39,1.46q.15-.17-.07,0t-.07.05q.16,0-.06,0h.22c.06,0,.57,0,.25,0l.13,0q.26.08,0,0,.17.11,0-.07a.8.8,0,0,1-.2-.86q.38-.56.17-.33t0,0c-.06,0-.38.2-.14.1,0,0-.53.14-.29.1s-.11,0-.16,0l-.41,0h-.37c-.32,0,.25.05-.07,0q-.2-.06,0,0a.78.78,0,0,1,.18,1.39c-.13.08-.38.05-.12.07h.56a1.5,1.5,0,0,0,0-3Z"/><path d="M104.58,518.76a3.11,3.11,0,0,0-2.37.64,2.39,2.39,0,0,0-.42,2.77c.74,1.29,2.6,1.28,3.88,1,1.71-.36,3.41-2.33,1.88-3.92a3.55,3.55,0,0,0-4.6-.12c-1,1-.27,2.45.8,3a2.6,2.6,0,0,0,3-.43,1.52,1.52,0,0,0-.66-2.51l-.2-.07a1.51,1.51,0,0,0-1.85,1,1.53,1.53,0,0,0,1,1.85l.2.07-.66-2.51a1.15,1.15,0,0,1,.27-.15l.15,0q-.23,0-.06,0c.05,0,.25.12.13,0s.41.78.33.39l-.39,1.46q.15-.17-.07,0t-.07.05q.16,0-.06,0h.22c.06,0,.57,0,.25,0l.13,0q.26.08,0,0,.17.11,0-.07a.8.8,0,0,1-.2-.86q.38-.56.17-.33t0,0c-.06,0-.38.2-.14.1,0,0-.53.14-.29.1s-.11,0-.16,0l-.41,0H104c-.32,0,.25.05-.07,0q-.2-.06,0,0a.78.78,0,0,1,.18,1.39c-.13.08-.38.05-.12.07h.56a1.5,1.5,0,0,0,0-3Z"/><path d="M109.27,531.72c-.52,2.2-1.65,6.23.72,7.78s5.46-.07,5.13-2.87a1.55,1.55,0,0,0-1.1-1.45l-.09,0c-1.88-.39-2.69,2.5-.8,2.89l.09,0-1.1-1.45c0,.3,0,.72-.45.36a4,4,0,0,1,0-1.09,14.12,14.12,0,0,1,.52-3.38c.44-1.88-2.45-2.68-2.89-.8Z"/><path d="M101.24,545.58c7.32-1.8,15.91-1.29,23.4-1.29a1.5,1.5,0,0,0,0-3c-7.82,0-16.6-.46-24.2,1.4-1.87.46-1.08,3.35.8,2.89Z"/><path d="M82.63,554.06c0-6.15-.38-12.06-.76-18.16s0-12,3-17.48c6.17-11.06,21.48-14.59,33.15-14.56,2.71,0,5.72-.38,8.4,0,3.34.48,7.51,2.68,10.24,4.7,5.18,3.82,6.44,9.56,8.73,15.09s3.25,11.4,4.11,17.27c.78,5.34,2.18,8.23,6,12.27,2.66,2.81,6.9-1.44,4.24-4.24-3.1-3.27-3.74-5.43-4.47-9.62-.57-3.25-1.23-6.33-1.52-9.6-.33-3.65-2.25-6.36-3.36-9.75-.94-2.88-1.52-5.37-3.16-8-3.73-5.94-8-9.35-14.34-12.29-5.81-2.71-13.71-2.45-20-1.87-12.07,1.11-26.19,6-32.81,16.89a32.48,32.48,0,0,0-4.31,17.92c.21,7.18.9,14.2.87,21.41,0,3.86,6,3.87,6,0Z"/><path d="M77,553.31c-4,7.23-12.3,10-18.61,14.71-6.54,4.92-13.36,9.67-17.51,16.91-8.28,14.43-6.8,33.67-4.69,49.45,2.64,19.73,6.47,39.32,8.71,59.08,1,8.74,1.86,17.69,3.77,26.28a73.82,73.82,0,0,0,3.26,12c.89,2.16,1.58,5.67,3.45,7.14,2.17,1.71,5.56,1.62,8.11,2.06,3,.52,6.2,1.45,9.31.51a8.69,8.69,0,0,0,5.75-6c1.15-3.83-.18-5.6-2.19-8.61l-4.71,3.64c3.3,3,8.7,3.16,11.4-.84,3.29-4.88-1-8.88-4.37-12-2.82-2.63-7.08,1.6-4.24,4.24.7.66,1.46,1.26,2.14,1.94a6,6,0,0,1,1,1q1.65,1.35-1.65,1.42c-2.41-2.16-6.7.66-4.71,3.64,1.19,1.78,3,4.34,0,5.83-1.48.75-3.78-.15-5.23-.39a29.09,29.09,0,0,0-5.33-.78l-1.54-.45q.86,1.47.45-.09c-4.07-8.57-5.91-18.15-7-27.54-2.24-19.66-6.05-39-8.8-58.55-1.32-9.43-3.1-19.35-3-28.86.1-9.93,0-20.45,4.5-29.6,4.13-8.46,13.61-15,21.41-19.85,6-3.78,11.95-6.8,15.53-13.28,1.87-3.38-3.31-6.41-5.18-3Z"/><path class="cls-3" d="M66.71,600.43l-.63.07c-.71,2.47-.13,5.82-.13,8.41a114.8,114.8,0,0,0,1.14,16.15c.45,3.24.63,6.53,1.11,9.76.4,2.66,1.29,5.14,1.85,7.76,1.31,6.1,1.81,12.34,2.88,18.47.49,2.83,1.5,5.53,2,8.36s.71,5.59,1.1,8.38c.77,5.59,1.9,11,2.87,16.58.84,4.78,1.46,9.61,2.26,14.4.68,4.08,2,7.89,2.85,11.92,1.29,6.36,3,12.62,4.77,18.81,1.73,6,2.49,12.29,4.14,18.28,1.07,3.89,3.44,7.49,4.24,11.4.15.73-.07,1.48.11,2.24.25,1.06,1,2,1.22,3.08a35.53,35.53,0,0,1,.89,6.74,26.74,26.74,0,0,0,1.95,8.06,8.77,8.77,0,0,1,.36,3.48c0,1.48-.12,1.59-1.5,2.24-2.77,1.33-3.74,3.87-5.8,6.08S90,805,91.1,808.57c3.21.52,6.28,1.39,9.6.71a58.17,58.17,0,0,1,12-1.35c1.95,0,4.19-.34,6.08.06a17.73,17.73,0,0,0,4.46.69c2.68,0,6.13.63,8.69-.07a17.67,17.67,0,0,0,.11-4.46,26.36,26.36,0,0,1,.59-5.17c.58-3.25.17-6.93.17-10.23q0-5.9,0-11.8c0-5-1.27-9.73-1.55-14.64a32.91,32.91,0,0,0-.35-5.7c-.39-1.72-.76-3.48-1.07-5.22-.52-2.89-.35-5.91-.89-8.81-1.31-7-1.57-14.25-3-21.28"/><path d="M66.71,597.43l-.63.07a3.1,3.1,0,0,0-2.89,2.2c-1.24,6.27-.33,13.64.27,20,.68,7.16,1.34,14.41,3.13,21.38,1.9,7.39,2.13,15.06,3.81,22.48S73,678.45,74.32,686c2.74,15.42,5.26,30.74,9.24,45.91,2,7.68,3.8,15.32,5.56,23.05a65.18,65.18,0,0,0,3.6,10.48c1.29,3.13,1.93,6.6,2.87,9.86,1.1,3.79.69,7.84,1.78,11.66.4,1.42,1.89,4.78,1.31,5.65-.12.18-2.33,1.4-2.89,2-4,4.05-8.75,8.78-7.57,14.81a2.91,2.91,0,0,0,2.1,2.1c3.18.56,6.32,1.24,9.56.93,4.34-.42,8.48-1.3,12.86-1.47,6.7-.25,13.33,1.82,20,.58a3.07,3.07,0,0,0,2.2-2.89c1-7.18.9-14.58.88-21.84,0-3.89.15-7.81-.06-11.7s-1.13-7.89-1.42-11.86a390,390,0,0,0-5.47-42.73c-.71-3.79-6.49-2.19-5.79,1.6,2.64,14.14,3.87,28.72,5.44,43s2.34,29.27.42,43.57l2.2-2.89c-6,1.11-12.36-1-18.43-.79-7.15.24-13.7,2-20.82.75l2.1,2.1c-.55-2.81,5.72-8.78,7.7-10.18s2.81-2.28,3-4.84c.29-4.38-1.95-8.86-2.42-13.23A83.37,83.37,0,0,0,100,768.37c-1.13-4.56-3.55-8.64-4.71-13.2-1.08-4.24-1.73-8.58-2.74-12.84-2.31-9.76-4.94-19.5-7.41-29.22-2.37-9.37-3.4-19.2-5.09-28.72-.78-4.42-1.31-8.86-1.93-13.31-.6-4.29-1.94-8.4-2.65-12.67-.82-4.92-1.25-9.9-2.21-14.8S71.08,634,70.53,629c-.53-4.88-1.23-9.72-1.46-14.63-.19-4.1-.91-9-.11-13l-2.89,2.2.63-.07c3.79-.44,3.84-6.44,0-6Z"/><path class="cls-3" d="M167.8,719c0,1.51-.1,3.05,0,4.56a10,10,0,0,0,.61,2.26c.34,1.33,0,2.66.32,4,.28,1.2,1,2.28,1.2,3.49.41,2,.4,4.21.74,6.28.64,3.91.89,7.86,1.7,11.74,1.39,6.63,2.89,13.33,3.74,20,.28,2.23-.09,4.38.45,6.55a20.3,20.3,0,0,1,.38,5.08c0,1.77,0,3.55,0,5.32,0,1.19.21,2.22-.41,3.26a15.74,15.74,0,0,1-2.61,2.65c-.91.89-1.93,1.47-2.91,2.26-1.2,1-1.17,1.6-1.84,2.89-1,2-3.92,3.1-2.85,5.83,1.42,3.62,8.21,1.7,11,1.08,5-1.1,9.85-.14,14.87-.63a38.72,38.72,0,0,0,6.4-1.47c.85-.24,2.29-.19,3-.81s.49-1.78.47-2.92a24.93,24.93,0,0,1,.59-5.68c.46-2.25.17-4.73.17-7a175.07,175.07,0,0,0-3.23-31.59c-1.18-6.47-1.73-13-2.69-19.52-1.13-7.7-1-15.51-2.28-23.22a41.91,41.91,0,0,1-.13-5.3c-.07-1.74-.73-3.37-.84-5.09-.26-4.05-.34-8.07-.79-12.11-.93-8.37-1.79-16.78-3.38-25.12a61.69,61.69,0,0,1-1.09-10.75c0-4.05-1.49-8-1.56-12-.13-6.94-1.53-13.71-2.85-20.54-.45-2.34-.09-4.77-.14-7.14,0-2-.72-3.85-.83-5.84a23.05,23.05,0,0,0-.33-4.18c-.27-1.18-.74-2.4-1-3.6-.29-1.46.11-2.94-.11-4.37a15.77,15.77,0,0,0-1.57-3.82,14.35,14.35,0,0,0-2.31-3.4c-.89-1.05-1.34-2.45-2.26-3.42"/><path d="M164.8,719a47,47,0,0,0,1.86,13.94c1.76,6.09,1.6,12.94,2.8,19.19,1.16,6.06,2.75,12.08,3.5,18.22.39,3.19.53,6.45.83,9.65.25,2.74,1.1,7.91-.15,10.41-.82,1.66-3.49,2.74-4.77,4s-2.16,3.1-3.27,4.67c-2.21,3.11-3.93,6.65-.3,9.68,2.78,2.32,6.84,1.69,10.1,1.08,5.9-1.12,11.66-.47,17.56-1.23,3.21-.42,10-1,11.64-4.48.74-1.59.34-3.38.42-5.08.16-3.21.82-6.24.78-9.48-.19-14.32-2.74-28-4.57-42.09-3.54-27.44-4.42-55.06-8.91-82.39-.65-3.93-.72-7.74-1.08-11.69-.31-3.47-1.19-6.84-1.47-10.31-.64-8-2.82-16.14-3.07-24.1-.1-3.24-.42-6.21-.75-9.42s-1.11-6.16-1.41-9.24c-.27-2.67-.21-4.54-1.38-7a50.79,50.79,0,0,0-5.17-8.06c-2.27-3.08-7.48-.09-5.18,3,1.31,1.78,2.73,3.72,3.91,5.6,1.6,2.56,1.58,5,1.93,7.9.63,5.14,2.05,10.17,2.12,15.41s1.16,10.21,2,15.45c1,6.44,1.42,13,2.29,19.43.74,5.52.88,11,1.85,16.53,1.18,6.78,2,13.62,2.7,20.46,1.3,12,2.3,24,3.17,36,1.74,24.22,8.73,48.21,6.37,72.55-.08.79.23,2.76-.1,3.41-.44.86.41-.17-1.27.28a37.57,37.57,0,0,1-9.35,1.51A88.23,88.23,0,0,0,173.8,804c-1.79.32-4.07,1.13-3.57-1.15.27-1.24,2.36-3.56,3.25-4.51,2.71-2.91,5.89-4,6.44-8.34.72-5.8-.39-12-.77-17.8-.42-6.36-2-12.74-3.33-19s-1.74-12.51-2.72-18.78c-.83-5.28-2.38-10-2.3-15.48.06-3.86-5.94-3.86-6,0Z"/><path d="M157.15,545h-.5v6a47.7,47.7,0,0,1,22.65,5.52c7,3.51,10.12,9.93,13.43,16.59,4,8.08,6.8,15.34,7,24.51.08,3.81.69,7.52.82,11.3s-.12,7.68.35,11.58c.44,3.72.12,7.42.55,11.13.53,4.66,1.41,9.18,1.31,13.89a66.85,66.85,0,0,0,.31,10.62c.59,4.35.12,8.73.8,13.06,1.2,7.7,1.21,15.81,1.21,23.63a117.06,117.06,0,0,1-.65,12.31c-.14,1.35.06,2.78-.16,4.11-.26,1.6-3.11,6.88-5,2.91-1.65-3.49-6.83-.45-5.18,3,2.18,4.6,7.31,5.25,11.53,2.84,5.34-3,4.66-10.09,5.29-15.33a91.17,91.17,0,0,0,.17-10.79c0-4,.39-8.27-.24-12.26-1.19-7.53-.67-15.25-1.62-22.84-1-8-.5-15.95-1.58-24-1.14-8.49-.46-17.19-1.18-25.7-.65-7.68-.3-15.91-2.61-23.35a91.15,91.15,0,0,0-8.47-19.29c-8.22-13.7-23.24-19.58-38.73-19.51-3.86,0-3.87,6,0,6h.5c3.86,0,3.87-6,0-6Z"/><path d="M111.3,547.75c-3.38-.41-5.21,2.91-4.4,5.89a4.3,4.3,0,0,0,2.63,3.06c1.73.56,3.34-.34,4.6-1.46l-2.36-.3c.86,1.4,2.08,2.83,3.84,2.93a4.05,4.05,0,0,0,3.26-1.5c1.38-1.57,2.55-5.22,0-6.39-1.74-.8-3.27,1.78-1.51,2.59.27.13,0-.17,0-.06a1.66,1.66,0,0,1,0,.39,3.2,3.2,0,0,1-.66,1.41c-1,1.15-1.72.12-2.33-.89a1.52,1.52,0,0,0-2.36-.3,3.23,3.23,0,0,1-1.08.7,3.56,3.56,0,0,1-.4.07c-.46-.16-.67-.65-.79-1.23-.25-1.27.15-2.08,1.55-1.91,1.91.23,1.9-2.77,0-3Z"/><path class="cls-4" d="M84.73,596.31c-.55,10.66,2.57,21.64,4.21,32.11,1.89,12,3.24,24.05,5.81,36,.56,2.6,1.42,6.19,2.87,8.49,1.66,2.64,3.86,1.95,6.87,1.58,6-.73,12-.34,18-.62,7-.33,13.81-2,20.77-2.62A149.34,149.34,0,0,0,160,668.69c3.6-.74,5.14-.12,5.47-4,.87-10.37-.46-21.28-.6-31.7-.16-12-2.57-23.85-2.36-35.81,0-2,.68-6.94-.87-8.54s-7.58-1-9.63-1.31c-14.57-2-30-.83-44.4,1.71a91.28,91.28,0,0,0-17,4.91c-1.43.54-7.35,1.7-6,3.63"/><path d="M81.73,596.31c-.41,12.41,3.08,24.52,4.9,36.7,1.8,12,2.58,24.92,6.33,36.55,1.08,3.34,2.6,7.08,6.32,8.07,1.71.46,3.5,0,5.22-.16a104.15,104.15,0,0,1,10.82-.49c12.42-.1,24.93-2,37.19-3.89,3.71-.57,9.64-.68,13-2.63,3.72-2.16,3.19-7.65,3.27-11.31a341,341,0,0,0-1.64-38.43c-.56-6-1.28-11.91-1.52-17.89-.17-4.32,1.08-10.12-.57-14.26-1.19-3-3.87-3.68-6.82-4-4.77-.48-9.68-.8-14.47-1.08a143.9,143.9,0,0,0-41.34,3.55A156,156,0,0,0,86.73,592c-2.75,1-6.26,2.84-4.94,6.37s7.15,2,5.79-1.6c1,2.57-1.21.94.74,1a9.31,9.31,0,0,0,1.81-.56c1.57-.52,3.11-1.09,4.68-1.63a89.42,89.42,0,0,1,13.62-3.68,153.22,153.22,0,0,1,30.68-2.6c4.59.1,9.08.73,13.65,1.06,1.43.1,2.87,0,4.3.13,2.46.19,2.24.07,2.64,2.24.68,3.69-.2,8.18,0,12,.29,5.35.93,10.67,1.43,16,.93,10,1.14,20,1.52,30,.08,2.18.14,4.37.14,6.56,0,1.56.63,6.74-.37,7.86-.38.42-2.6.55-3.19.66-2.77.5-5.53,1.08-8.32,1.5-10.16,1.54-20.82,3.4-31.08,3.63-4.51.1-9-.06-13.53.35-1.19.11-4.08,1-5.25.55-2.07-.76-2.84-5.71-3.26-7.54-2.54-11.14-3.81-22.54-5.52-33.83s-4.93-22.59-4.54-34.16c.13-3.86-5.87-3.86-6,0Z"/><path d="M140.63,600.95c-4.53,7.89-10.13,14.89-15.55,22.18-2.35,3.16-5.49,7.27-5.29,11.48s3.71,6.23,6.71,8.39c1.41,1,3.22.13,4.1-1.08,6-8.24,12.32-16.27,18.32-24.52,2.55-3.51,6.8-8.07,5.86-12.84-.77-3.92-4.68-6.13-7.83-8a3.07,3.07,0,0,0-4.1,1.08c-1.15,1.64-2.24,3.31-3.33,5-2.12,3.24,3.08,6.25,5.18,3,1.09-1.68,2.19-3.35,3.33-5l-4.1,1.08c1.27.75,3.9,1.81,4.56,3.2,1.07,2.24-1.42,4.67-2.6,6.38-3,4.3-6.24,8.35-9.47,12.44-3.86,4.9-7.32,10.07-11,15.1l4.1-1.08c-2.15-1.54-3.78-2-3.44-4.85.22-1.81,2.21-4.11,3.24-5.55,2.06-2.9,4.27-5.7,6.4-8.55A149.1,149.1,0,0,0,145.81,604c1.93-3.35-3.26-6.38-5.18-3Z"/><path d="M124.66,631l6.79,4.43c1.62,1.06,3.13-1.54,1.51-2.59l-6.79-4.43c-1.62-1.06-3.13,1.54-1.51,2.59Z"/><path d="M127,626.48l6.37,4.15c1.62,1.06,3.13-1.54,1.51-2.59l-6.37-4.15c-1.62-1.06-3.13,1.54-1.51,2.59Z"/><path d="M122.6,633.34c-10.08.66-14.78,10.67-16,19.57-.35,2.49,1.92,4.77,4.41,3.39,5-2.81,11.11-1.29,15.35-6a11.14,11.14,0,0,0,2.79-7c0-3.24-2.16-4.4-3.11-7.09-1.29-3.61-7.09-2.06-5.79,1.6.6,1.67,2,2.75,2.6,4.3,1.11,2.7-1.38,5.09-3.7,6-3.7,1.44-7.58,1.07-11.16,3.07l4.41,3.39c.81-5.73,3.22-14.71,10.25-15.17,3.83-.25,3.86-6.25,0-6Z"/><path d="M114.12,644.61c1.5.28,1.71,2.23.88,3.28a6.11,6.11,0,0,1-3.81,2.07l1.46,2.51c1.38-1.43,3-2.67,3.84-4.55s.07-2.75,0-4.47l-2.8.76c.72,1.33-1.73,4-2.47,4.95l2.74,1.16c.3-1.84,1.34-3.42,2-5.16s-2.22-2.58-2.89-.8a8.51,8.51,0,0,1-1.12,2.4l2.51,1.46a9.81,9.81,0,0,1,1.63-3.7l-2.74-1.16q-.07.34-.12.67c-.31,1.89,2.58,2.7,2.89.8q0-.34.12-.67a1.51,1.51,0,0,0-2.74-1.16,12,12,0,0,0-1.94,4.42c-.3,1.33,1.5,2.71,2.51,1.46a13,13,0,0,0,1.89-3.72l-2.89-.8c-.63,1.75-1.66,3.3-2,5.16a1.51,1.51,0,0,0,2.74,1.16c1.66-2.18,4-5.15,2.47-8a1.51,1.51,0,0,0-2.8.76c.07,1.08.73,2.26.3,3.27-.63,1.47-2.13,2.5-3.21,3.62a1.51,1.51,0,0,0,1.46,2.51c2.55-.39,5.58-2.31,6.35-4.91s-.76-5.73-3.42-6.23c-1.89-.35-2.7,2.54-.8,2.89Z"/><path d="M120.14,601.49c.34-3.65-.73-7.59-4.63-8.35-4.78-.92-7.51,3-8.25,7.18-3.65-1.07-7.79-.42-9.67,3.32-2,4,.23,6.8,3.45,8.3-2.39,3-3.38,7.31-1.72,10.57,3.56,7,10.93,3.06,14.38-1.84,3,1.92,6.65,3,8.72-.87a9.31,9.31,0,0,0,.91-5.29C127.71,612.06,126.09,602,120.14,601.49Z"/><path class="cls-3" d="M114.56,607.65c-1.86-1.27-5.15-.48-5.11,2.16a2.74,2.74,0,0,0,.4,1.39,2.61,2.61,0,0,0,.82,1,3.4,3.4,0,0,0,2.79.5A2.79,2.79,0,0,0,114.56,607.65Zm-2.74,2.2a2.06,2.06,0,0,0,.29.41.85.85,0,0,1-.28-.26A.46.46,0,0,1,111.82,609.85Z"/><path d="M155.6,642.51a4.42,4.42,0,0,0-4.53-1.59,3.78,3.78,0,0,0-2.68-2.53c-2.73-.64-3.72,1.45-4.41,3.54-1.9-2.54-6.7-1.87-9,.09-3.62,3.06-1.41,5.47,1.6,6.55-2.21,2-3.37,5.23-1,7.56a7.65,7.65,0,0,0,8.06,1.39c1.43,3.86,7.78,4.73,10.68,1.52,2.17-2.41,3-7.16,1-9.37A6.23,6.23,0,0,0,155.6,642.51Z"/><path class="cls-3" d="M148.3,648.85a1.54,1.54,0,0,0-1.55-1.42c-1.68-.09-3.3,2.53-1.47,3.5A2.12,2.12,0,0,0,148.3,648.85Z"/></g><path d="M114.73,443.16c-28.79-.94-57.47,12.69-78.52,31.7-21.7,19.6-32.84,49.4-35,78.16-2.18,29.26,7.34,58.2,27.51,79.63,17.31,18.4,40.86,30.82,65.42,36.26s50.49,4,73.51-6.43c22-10,39.71-27.9,50.35-49.48,17.38-35.26,15.49-75.78-.54-111.07-14.54-32-47.8-50.9-81.39-56.54a180.24,180.24,0,0,0-21.37-2.23c-3.86-.18-3.85,5.82,0,6,36.83,1.75,74.92,15.89,94.16,49.2,15.41,26.66,19.67,61.25,11.56,91.3-5.9,21.88-18.34,42-36.35,56C165.24,660.24,141.65,666.83,118,666,67.9,664.18,17.85,631.16,8.51,579.86c-2.77-15.23-1.82-31,1.79-46.05,3.28-13.64,8.42-27.83,16.44-39.44,15-21.75,41.34-37.53,66.86-43.21a84.15,84.15,0,0,1,21.14-2C118.59,449.29,118.59,443.29,114.73,443.16Z"/><path d="M186.69,517.6c0,6-1.57,8.33-1.24,14.24,4.28-2.59,8.31-3.71,11.8-7,1.3,5.89,13.91,9.38,19,10.57,12,2.79,24.12-3.81,30.42-13.91,8.76-14,2.12-35.09-9.44-45.46-9.74-8.73-23.25-12.14-36.14-11.45-20,1.07-33.58,10.58-31.58,34.87.49,5.9,11.9,20.84,17.15,18.12"/><path d="M185.19,517.6c-.14,4.8-1.37,9.42-1.24,14.24a1.52,1.52,0,0,0,2.26,1.3c4.12-2.37,8.47-4.09,12.1-7.22l-2.51-.66c2.06,6.5,10.62,9,16.46,10.69,8.55,2.43,17,1.95,24.71-2.75,16.51-10,18.56-30.06,10.3-46.27-8.92-17.52-28.5-25.08-47.4-23.73-14.3,1-27.72,7.58-31.09,22.58-1.81,8.06-1.47,15.77,3.15,22.7,2.75,4.12,9.11,12.92,15.15,10.58,1.78-.69,1-3.59-.8-2.89-4.57,1.78-10.45-7.07-12.36-10.12-3.52-5.61-3.69-11.86-2.49-18.3,2.32-12.47,12-19.2,24-21.06,15.67-2.42,33.78,1.54,44.27,14.16,9.75,11.74,13.69,30.71,3.26,43.23-6.43,7.72-16.37,11.94-26.33,9.91-5.46-1.11-16.08-3.51-18-9.52a1.52,1.52,0,0,0-2.51-.66c-3.42,2.94-7.62,4.52-11.5,6.75l2.26,1.3c-.13-4.81,1.1-9.44,1.24-14.24.06-1.93-2.94-1.93-3,0Z"/><path class="cls-3" d="M198.84,496.74l-.7-1.1a43.31,43.31,0,0,1-3.76,6.18c.72-.14,1.44-.3,2.2-.5-.2-.56-.38-1.08-.58-1.54l1.46-.6a31.31,31.31,0,0,1,1.4,3.86l-1.56.68c-.08-.32-.16-.6-.24-.86a30.94,30.94,0,0,1-5,1l-.5-1.8a2.64,2.64,0,0,0,.88-.56,17.24,17.24,0,0,0,2-3l-2.6.42-.5-1.82a1.83,1.83,0,0,0,.84-.74,36.43,36.43,0,0,0,2-4.94l1.9.76a27.72,27.72,0,0,1-2.5,4.8q.9-.12,1.8-.3c.34-.68.7-1.4,1.08-2.18L198,495a13.42,13.42,0,0,0,5.14-3.6h1.56a12.82,12.82,0,0,0,5.46,3.7l-1,1.64a16.45,16.45,0,0,1-2.52-1.3v.72H201.2v-.7A15.62,15.62,0,0,1,198.84,496.74Zm-5.06,8.18a38.43,38.43,0,0,1-.46,4.78l-1.78-.56a22.86,22.86,0,0,0,.62-4.44Zm2.52,3.92-1.76.22c0-1.86-.08-3.3-.18-4.3l1.56-.2A36.29,36.29,0,0,1,196.3,508.85Zm2.6-1-1.56.7q-.39-2.31-.84-4l1.36-.56A35.32,35.32,0,0,1,198.9,507.81Zm9.9-10.94v5.66h-9.86v-5.66Zm-.54,13.1h-2v-.74H201.5V510h-2v-6.74h8.74ZM203.1,498.3h-2.42V501h2.42Zm-.28,2.22-1.14.3A16.4,16.4,0,0,0,201,499l1.12-.38A14.65,14.65,0,0,1,202.82,500.53Zm3.44,5v-.84H201.5v.84Zm0,2.22v-.88H201.5v.88Zm-2.38-14.56a13,13,0,0,1-1.52,1.46h3A9.32,9.32,0,0,1,203.88,493.18Zm3.18,5.12h-2.4V501h2.4Zm-.32.66a8.61,8.61,0,0,1-.64,1.88l-1.12-.42a8.74,8.74,0,0,0,.62-1.78Z"/><path class="cls-3" d="M231.2,510h-1.92v-.72h-13v.78h-1.92V492.12H231.2Zm-1.92-2.4V493.88h-13v13.72Zm-2.2-13v3.22h-3.5l-.24.72h5.36v1.36H216.84v-1.36h4.66l.24-.72h-3.28V494.6Zm.86,5.9v6.42H217.62v-6.42Zm-1.74,1.18h-6.84v4h6.84Zm-.88-5.9h-5.1v.9h5.1Zm0,6.6V505h-5v-2.64Zm-1.46.86h-2.08v.9h2.08Z"/><g class="cls-6"><path class="cls-3" d="M753.15,446.16c-38.52-1.66-80.73,27.25-94.26,52.68C641.24,532,635.52,572,652.57,606.61c24.4,49.56,92.22,74.49,143.36,56.74,62-21.52,85.68-95.84,59.5-154.51C855.43,508.83,838.12,449.82,753.15,446.16Z"/><circle cx="761.56" cy="533.29" r="2.25"/><path d="M760.81,529.24c2.13-.27,5.1-.53,6.31,1.72,1.91,3.52-2.37,5.87-5.23,5.67a7.92,7.92,0,0,1-3.44-.72,2.69,2.69,0,0,1-1-2.76,4.58,4.58,0,0,1,3.76-4c1.88-.43,1.08-3.32-.8-2.89a7.51,7.51,0,0,0-5.91,7.87c.21,4.49,4.34,5.65,8.36,5.54,4.41-.12,8.17-3.65,7.53-8.21-.67-4.72-5.6-5.74-9.57-5.25C758.92,526.48,758.89,529.48,760.81,529.24Z"/><path d="M738.36,529.24c2.13-.27,5.1-.53,6.31,1.72,1.91,3.52-2.37,5.87-5.23,5.67a7.92,7.92,0,0,1-3.44-.72,2.69,2.69,0,0,1-1-2.76,4.58,4.58,0,0,1,3.76-4c1.88-.43,1.08-3.32-.8-2.89a7.51,7.51,0,0,0-5.91,7.87c.21,4.49,4.34,5.65,8.36,5.54,4.41-.12,8.17-3.65,7.53-8.21-.67-4.72-5.6-5.74-9.57-5.25C736.46,526.48,736.44,529.48,738.36,529.24Z"/><circle cx="738.66" cy="533.29" r="2.25"/><path d="M759.61,518.76a3.11,3.11,0,0,0-2.37.64,2.39,2.39,0,0,0-.42,2.77c.74,1.29,2.6,1.28,3.88,1,1.71-.36,3.41-2.33,1.88-3.92a3.55,3.55,0,0,0-4.6-.12c-1,1-.27,2.45.8,3a2.6,2.6,0,0,0,3-.43,1.52,1.52,0,0,0-.66-2.51l-.2-.07a1.51,1.51,0,0,0-1.85,1,1.53,1.53,0,0,0,1,1.85l.2.07-.66-2.51a1.15,1.15,0,0,1,.27-.15l.15,0q-.23,0-.06,0c.05,0,.25.12.13,0s.41.78.33.39l-.39,1.46q.15-.17-.07,0t-.07.05q.16,0-.06,0h.22c.06,0,.57,0,.25,0l.13,0q.26.08,0,0,.17.11,0-.07a.8.8,0,0,1-.2-.86q.38-.56.17-.33t0,0c-.06,0-.38.2-.14.1,0,0-.53.14-.29.1s-.11,0-.16,0l-.41,0h-.37c-.32,0,.25.05-.07,0q-.2-.06,0,0a.78.78,0,0,1,.18,1.39c-.13.08-.38.05-.12.07h.56a1.5,1.5,0,0,0,0-3Z"/><path d="M743,518.76a3.11,3.11,0,0,0-2.37.64,2.39,2.39,0,0,0-.42,2.77c.74,1.29,2.6,1.28,3.88,1,1.71-.36,3.41-2.33,1.88-3.92a3.55,3.55,0,0,0-4.6-.12c-1,1-.27,2.45.8,3a2.6,2.6,0,0,0,3-.43,1.52,1.52,0,0,0-.66-2.51l-.2-.07a1.51,1.51,0,0,0-1.85,1,1.53,1.53,0,0,0,1,1.85l.2.07-.66-2.51a1.15,1.15,0,0,1,.27-.15l.15,0q-.23,0-.06,0c.05,0,.25.12.13,0s.41.78.33.39l-.39,1.46q.15-.17-.07,0t-.07.05q.16,0-.06,0h.22c.06,0,.57,0,.25,0l.13,0q.26.08,0,0,.17.11,0-.07a.8.8,0,0,1-.2-.86q.38-.56.17-.33t0,0c-.06,0-.38.2-.14.1,0,0-.53.14-.29.1s-.11,0-.16,0l-.41,0h-.37c-.32,0,.25.05-.07,0q-.2-.06,0,0a.78.78,0,0,1,.18,1.39c-.13.08-.38.05-.12.07H743a1.5,1.5,0,0,0,0-3Z"/><path d="M747.69,531.72c-.52,2.2-1.65,6.23.72,7.78s5.46-.07,5.13-2.87a1.55,1.55,0,0,0-1.1-1.45l-.09,0c-1.88-.39-2.69,2.5-.8,2.89l.09,0-1.1-1.45c0,.3,0,.72-.45.36a4,4,0,0,1,0-1.09,14.12,14.12,0,0,1,.52-3.38c.44-1.88-2.45-2.68-2.89-.8Z"/><path d="M739.65,545.58c7.32-1.8,15.91-1.29,23.4-1.29a1.5,1.5,0,0,0,0-3c-7.82,0-16.6-.46-24.2,1.4-1.87.46-1.08,3.35.8,2.89Z"/><path d="M721,554.06c0-6.15-.38-12.06-.76-18.16s0-12,3-17.48c6.17-11.06,21.48-14.59,33.15-14.56,2.71,0,5.72-.38,8.4,0,3.34.48,7.51,2.68,10.24,4.7,5.18,3.82,6.44,9.56,8.73,15.09s3.25,11.4,4.11,17.27c.78,5.34,2.18,8.23,6,12.27,2.66,2.81,6.9-1.44,4.24-4.24-3.1-3.27-3.74-5.43-4.47-9.62-.57-3.25-1.23-6.33-1.52-9.6-.33-3.65-2.25-6.36-3.36-9.75-.94-2.88-1.52-5.37-3.16-8-3.73-5.94-8-9.35-14.34-12.29-5.81-2.71-13.71-2.45-20-1.87-12.07,1.11-26.19,6-32.81,16.89a32.48,32.48,0,0,0-4.31,17.92c.21,7.18.9,14.2.87,21.41,0,3.86,6,3.87,6,0Z"/><path d="M715.45,553.31c-4,7.23-12.3,10-18.61,14.71-6.54,4.92-13.36,9.67-17.51,16.91-8.28,14.43-6.8,33.67-4.69,49.45,2.64,19.73,6.47,39.32,8.71,59.08,1,8.74,1.86,17.69,3.77,26.28a73.82,73.82,0,0,0,3.26,12c.89,2.16,1.58,5.67,3.45,7.14,2.17,1.71,5.56,1.62,8.11,2.06,3,.52,6.2,1.45,9.31.51a8.69,8.69,0,0,0,5.75-6c1.15-3.83-.18-5.6-2.19-8.61l-4.71,3.64c3.3,3,8.7,3.16,11.4-.84,3.29-4.88-1-8.88-4.37-12-2.82-2.63-7.08,1.6-4.24,4.24.7.66,1.46,1.26,2.14,1.94a6,6,0,0,1,1,1q1.65,1.35-1.65,1.42c-2.41-2.16-6.7.66-4.71,3.64,1.19,1.78,3,4.34,0,5.83-1.48.75-3.78-.15-5.23-.39a29.09,29.09,0,0,0-5.33-.78l-1.54-.45q.86,1.47.45-.09c-4.07-8.57-5.91-18.15-7-27.54-2.24-19.66-6.05-39-8.8-58.55-1.32-9.43-3.1-19.35-3-28.86.1-9.93,0-20.45,4.5-29.6,4.13-8.46,13.61-15,21.41-19.85,6-3.78,11.95-6.8,15.53-13.28,1.87-3.38-3.31-6.41-5.18-3Z"/><path class="cls-3" d="M705.12,600.43l-.63.07c-.71,2.47-.13,5.82-.13,8.41a114.8,114.8,0,0,0,1.14,16.15c.45,3.24.63,6.53,1.11,9.76.4,2.66,1.29,5.14,1.85,7.76,1.31,6.1,1.81,12.34,2.88,18.47.49,2.83,1.5,5.53,2,8.36s.71,5.59,1.1,8.38c.77,5.59,1.9,11,2.87,16.58.84,4.78,1.46,9.61,2.26,14.4.68,4.08,2,7.89,2.85,11.92,1.29,6.36,3,12.62,4.77,18.81,1.73,6,2.49,12.29,4.14,18.28,1.07,3.89,3.44,7.49,4.24,11.4.15.73-.07,1.48.11,2.24.25,1.06,1,2,1.22,3.08a35.53,35.53,0,0,1,.89,6.74,26.74,26.74,0,0,0,1.95,8.06,8.77,8.77,0,0,1,.36,3.48c0,1.48-.12,1.59-1.5,2.24-2.77,1.33-3.74,3.87-5.8,6.08s-4.38,3.94-3.28,7.49c3.21.52,6.28,1.39,9.6.71a58.17,58.17,0,0,1,12-1.35c1.95,0,4.19-.34,6.08.06a17.73,17.73,0,0,0,4.46.69c2.68,0,6.13.63,8.69-.07a17.67,17.67,0,0,0,.11-4.46,26.36,26.36,0,0,1,.59-5.17c.58-3.25.17-6.93.17-10.23q0-5.9,0-11.8c0-5-1.27-9.73-1.55-14.64a32.91,32.91,0,0,0-.35-5.7c-.39-1.72-.76-3.48-1.07-5.22-.52-2.89-.35-5.91-.89-8.81-1.31-7-1.57-14.25-3-21.28"/><path d="M705.12,597.43l-.63.07a3.1,3.1,0,0,0-2.89,2.2c-1.24,6.27-.33,13.64.27,20,.68,7.16,1.34,14.41,3.13,21.38,1.9,7.39,2.13,15.06,3.81,22.48s2.59,14.93,3.93,22.45c2.74,15.42,5.26,30.74,9.24,45.91,2,7.68,3.8,15.32,5.56,23.05a65.18,65.18,0,0,0,3.6,10.48c1.29,3.13,1.93,6.6,2.87,9.86,1.1,3.79.69,7.84,1.78,11.66.4,1.42,1.89,4.78,1.31,5.65-.12.18-2.33,1.4-2.89,2-4,4.05-8.75,8.78-7.57,14.81a2.91,2.91,0,0,0,2.1,2.1c3.18.56,6.32,1.24,9.56.93,4.34-.42,8.48-1.3,12.86-1.47,6.7-.25,13.33,1.82,20,.58a3.07,3.07,0,0,0,2.2-2.89c1-7.18.9-14.58.88-21.84,0-3.89.15-7.81-.06-11.7s-1.13-7.89-1.42-11.86a390,390,0,0,0-5.47-42.73c-.71-3.79-6.49-2.19-5.79,1.6,2.64,14.14,3.87,28.72,5.44,43s2.34,29.27.42,43.57l2.2-2.89c-6,1.11-12.36-1-18.43-.79-7.15.24-13.7,2-20.82.75l2.1,2.1c-.55-2.81,5.72-8.78,7.7-10.18s2.81-2.28,3-4.84c.29-4.38-1.95-8.86-2.42-13.23a83.37,83.37,0,0,0-2.22-11.16c-1.13-4.56-3.55-8.64-4.71-13.2-1.08-4.24-1.73-8.58-2.74-12.84-2.31-9.76-4.94-19.5-7.41-29.22-2.37-9.37-3.4-19.2-5.09-28.72-.78-4.42-1.31-8.86-1.93-13.31-.6-4.29-1.94-8.4-2.65-12.67-.82-4.92-1.25-9.9-2.21-14.8S709.5,634,708.95,629c-.53-4.88-1.23-9.72-1.46-14.63-.19-4.1-.91-9-.11-13l-2.89,2.2.63-.07c3.79-.44,3.84-6.44,0-6Z"/><path class="cls-3" d="M806.21,719c0,1.51-.1,3.05,0,4.56a10,10,0,0,0,.61,2.26c.34,1.33,0,2.66.32,4,.28,1.2,1,2.28,1.2,3.49.41,2,.4,4.21.74,6.28.64,3.91.89,7.86,1.7,11.74,1.39,6.63,2.89,13.33,3.74,20,.28,2.23-.09,4.38.45,6.55a20.3,20.3,0,0,1,.38,5.08c0,1.77,0,3.55,0,5.32,0,1.19.21,2.22-.41,3.26a15.74,15.74,0,0,1-2.61,2.65c-.91.89-1.93,1.47-2.91,2.26-1.2,1-1.17,1.6-1.84,2.89-1,2-3.92,3.1-2.85,5.83,1.42,3.62,8.21,1.7,11,1.08,5-1.1,9.85-.14,14.87-.63a38.72,38.72,0,0,0,6.4-1.47c.85-.24,2.29-.19,3-.81s.49-1.78.47-2.92a24.93,24.93,0,0,1,.59-5.68c.46-2.25.17-4.73.17-7a175.07,175.07,0,0,0-3.23-31.59c-1.18-6.47-1.73-13-2.69-19.52-1.13-7.7-1-15.51-2.28-23.22a41.91,41.91,0,0,1-.13-5.3c-.07-1.74-.73-3.37-.84-5.09-.26-4.05-.34-8.07-.79-12.11-.93-8.37-1.79-16.78-3.38-25.12a61.69,61.69,0,0,1-1.09-10.75c0-4.05-1.49-8-1.56-12-.13-6.94-1.53-13.71-2.85-20.54-.45-2.34-.09-4.77-.14-7.14,0-2-.72-3.85-.83-5.84a23.05,23.05,0,0,0-.33-4.18c-.27-1.18-.74-2.4-1-3.6-.29-1.46.11-2.94-.11-4.37a15.77,15.77,0,0,0-1.57-3.82,14.35,14.35,0,0,0-2.31-3.4c-.89-1.05-1.34-2.45-2.26-3.42"/><path d="M803.21,719a47,47,0,0,0,1.86,13.94c1.76,6.09,1.6,12.94,2.8,19.19,1.16,6.06,2.75,12.08,3.5,18.22.39,3.19.53,6.45.83,9.65.25,2.74,1.1,7.91-.15,10.41-.82,1.66-3.49,2.74-4.77,4s-2.16,3.1-3.27,4.67c-2.21,3.11-3.93,6.65-.3,9.68,2.78,2.32,6.84,1.69,10.1,1.08,5.9-1.12,11.66-.47,17.56-1.23,3.21-.42,10-1,11.64-4.48.74-1.59.34-3.38.42-5.08.16-3.21.82-6.24.78-9.48-.19-14.32-2.74-28-4.57-42.09-3.54-27.44-4.42-55.06-8.91-82.39-.65-3.93-.72-7.74-1.08-11.69-.31-3.47-1.19-6.84-1.47-10.31-.64-8-2.82-16.14-3.07-24.1-.1-3.24-.42-6.21-.75-9.42s-1.11-6.16-1.41-9.24c-.27-2.67-.21-4.54-1.38-7a50.79,50.79,0,0,0-5.17-8.06c-2.27-3.08-7.48-.09-5.18,3,1.31,1.78,2.73,3.72,3.91,5.6,1.6,2.56,1.58,5,1.93,7.9.63,5.14,2.05,10.17,2.12,15.41s1.16,10.21,2,15.45c1,6.44,1.42,13,2.29,19.43.74,5.52.88,11,1.85,16.53,1.18,6.78,2,13.62,2.7,20.46,1.3,12,2.3,24,3.17,36,1.74,24.22,8.73,48.21,6.37,72.55-.08.79.23,2.76-.1,3.41-.44.86.41-.17-1.27.28a37.57,37.57,0,0,1-9.35,1.51A88.23,88.23,0,0,0,812.22,804c-1.79.32-4.07,1.13-3.57-1.15.27-1.24,2.36-3.56,3.25-4.51,2.71-2.91,5.89-4,6.44-8.34.72-5.8-.39-12-.77-17.8-.42-6.36-2-12.74-3.33-19s-1.74-12.51-2.72-18.78c-.83-5.28-2.38-10-2.3-15.48.06-3.86-5.94-3.86-6,0Z"/><path d="M795.57,545h-.5v6a47.7,47.7,0,0,1,22.65,5.52c7,3.51,10.12,9.93,13.43,16.59,4,8.08,6.8,15.34,7,24.51.08,3.81.69,7.52.82,11.3s-.12,7.68.35,11.58c.44,3.72.12,7.42.55,11.13.53,4.66,1.41,9.18,1.31,13.89a66.85,66.85,0,0,0,.31,10.62c.59,4.35.12,8.73.8,13.06,1.2,7.7,1.21,15.81,1.21,23.63a117.06,117.06,0,0,1-.65,12.31c-.14,1.35.06,2.78-.16,4.11-.26,1.6-3.11,6.88-5,2.91-1.65-3.49-6.83-.45-5.18,3,2.18,4.6,7.31,5.25,11.53,2.84,5.34-3,4.66-10.09,5.29-15.33a91.17,91.17,0,0,0,.17-10.79c0-4,.39-8.27-.24-12.26-1.19-7.53-.67-15.25-1.62-22.84-1-8-.5-15.95-1.58-24-1.14-8.49-.46-17.19-1.18-25.7-.65-7.68-.3-15.91-2.61-23.35a91.15,91.15,0,0,0-8.47-19.29c-8.22-13.7-23.24-19.58-38.73-19.51-3.86,0-3.87,6,0,6h.5c3.86,0,3.87-6,0-6Z"/><path d="M749.71,547.75c-3.38-.41-5.21,2.91-4.4,5.89a4.3,4.3,0,0,0,2.63,3.06c1.73.56,3.34-.34,4.6-1.46l-2.36-.3c.86,1.4,2.08,2.83,3.84,2.93a4.05,4.05,0,0,0,3.26-1.5c1.38-1.57,2.55-5.22,0-6.39-1.74-.8-3.27,1.78-1.51,2.59.27.13,0-.17,0-.06a1.66,1.66,0,0,1,0,.39,3.2,3.2,0,0,1-.66,1.41c-1,1.15-1.72.12-2.33-.89a1.52,1.52,0,0,0-2.36-.3,3.23,3.23,0,0,1-1.08.7,3.56,3.56,0,0,1-.4.07c-.46-.16-.67-.65-.79-1.23-.25-1.27.15-2.08,1.55-1.91,1.91.23,1.9-2.77,0-3Z"/><path class="cls-4" d="M723.15,596.31c-.55,10.66,2.57,21.64,4.21,32.11,1.89,12,3.24,24.05,5.81,36,.56,2.6,1.42,6.19,2.87,8.49,1.66,2.64,3.86,1.95,6.87,1.58,6-.73,12-.34,18-.62,7-.33,13.81-2,20.77-2.62a149.34,149.34,0,0,0,16.72-2.53c3.6-.74,5.14-.12,5.47-4,.87-10.37-.46-21.28-.6-31.7-.16-12-2.57-23.85-2.36-35.81,0-2,.68-6.94-.87-8.54s-7.58-1-9.63-1.31c-14.57-2-30-.83-44.4,1.71a91.28,91.28,0,0,0-17,4.91c-1.43.54-7.35,1.7-6,3.63"/><path d="M720.15,596.31c-.41,12.41,3.08,24.52,4.9,36.7,1.8,12,2.58,24.92,6.33,36.55,1.08,3.34,2.6,7.08,6.32,8.07,1.71.46,3.5,0,5.22-.16a104.15,104.15,0,0,1,10.82-.49c12.42-.1,24.93-2,37.19-3.89,3.71-.57,9.64-.68,13-2.63,3.72-2.16,3.19-7.65,3.27-11.31a341,341,0,0,0-1.64-38.43c-.56-6-1.28-11.91-1.52-17.89-.17-4.32,1.08-10.12-.57-14.26-1.19-3-3.87-3.68-6.82-4-4.77-.48-9.68-.8-14.47-1.08a143.9,143.9,0,0,0-41.34,3.55A156,156,0,0,0,725.14,592c-2.75,1-6.26,2.84-4.94,6.37s7.15,2,5.79-1.6c1,2.57-1.21.94.74,1a9.31,9.31,0,0,0,1.81-.56c1.57-.52,3.11-1.09,4.68-1.63a89.42,89.42,0,0,1,13.62-3.68,153.22,153.22,0,0,1,30.68-2.6c4.59.1,9.08.73,13.65,1.06,1.43.1,2.87,0,4.3.13,2.46.19,2.24.07,2.64,2.24.68,3.69-.2,8.18,0,12,.29,5.35.93,10.67,1.43,16,.93,10,1.14,20,1.52,30,.08,2.18.14,4.37.14,6.56,0,1.56.63,6.74-.37,7.86-.38.42-2.6.55-3.19.66-2.77.5-5.53,1.08-8.32,1.5-10.16,1.54-20.82,3.4-31.08,3.63-4.51.1-9-.06-13.53.35-1.19.11-4.08,1-5.25.55-2.07-.76-2.84-5.71-3.26-7.54-2.54-11.14-3.81-22.54-5.52-33.83s-4.93-22.59-4.54-34.16c.13-3.86-5.87-3.86-6,0Z"/><path d="M731.25,632.14c1.45-4.44,3.47-10.75,6.42-14.34s10-6.77,13.93-2.82c6.54,6.53-1.9,17.45-4.08,23.89-.94,2.77,3.08,5.2,5,2.92.71-.83,3.1-4,4.37-3.47,1.1.5,1.23,4.08,1,5-.66,3.18-4.23,5.39-5.33,8.6-1.36,4-1.69,8.5-2.61,12.61-.55,2.47-2,6.59-.67,9l4.71-3.64-.2-.2c-2.75-2.71-7,1.53-4.24,4.24l.2.2c2.45,2.42,6.33-.65,4.71-3.64.19.35,1.22-4.11,1.27-4.35.37-1.65.83-3.28,1.15-4.94.57-2.94.56-6.08,2.08-8.72,2.36-4.1,5.31-6.06,4.9-11.27-.25-3.27-1.53-7.17-4.84-8.49-4.27-1.71-8.21,1.79-10.79,4.82l5,2.92c2.28-6.74,6.7-12.11,6.35-19.56-.24-5.08-2.15-10.18-7-12.44-5.38-2.49-11.9-.94-16.45,2.51-5.89,4.47-8.53,12.84-10.73,19.58-1.2,3.68,4.59,5.26,5.79,1.6Z"/><path d="M789.78,669.49c-.68-3.49-3.11-6.62-4.78-9.75-1.95-3.63-4-7.14-6.18-10.65s-4.66-7.31-5.85-11.33c-.34-1.16-1.79-4,1-2.85,1,.41,2.09,3.07,2.7,4a3,3,0,0,0,5.18-3c-2.37-4.83-6.53-8.51-8.18-13.7-1.89-5.93-.79-11.05,5-14,9.68-5,18.9,11.88,21.46,19,1.29,3.61,7.09,2.05,5.79-1.6-3.79-10.61-15.35-29.47-29.11-23.19-6.12,2.79-10.27,7.95-10.06,14.84.27,9,6.22,14.12,9.93,21.66l5.18-3c-2.21-3.3-4.17-7.23-8.65-7.52-4.21-.28-6.94,3.05-6.84,7.07.15,5.58,4,11.4,6.82,16,1.79,2.95,3.63,5.85,5.28,8.88,1.74,3.19,4.82,7.25,5.52,10.82.74,3.79,6.53,2.18,5.79-1.6Z"/><circle cx="743.02" cy="629.85" r="2.25" transform="translate(-91.91 1131.52) rotate(-71.29)"/><path d="M736.72,626.6c-1.73,3.57-2.65,8.53,1.5,10.9s8.77-.11,10.39-4.19c.77-1.93,1.37-4.67.78-6.73s-1.88-2.6-3.66-3.29a7.46,7.46,0,0,0-9,3.32,1.5,1.5,0,0,0,2.59,1.51,4.73,4.73,0,0,1,4-2.37,4.25,4.25,0,0,1,2.87,1.2c.86,1.09.29,2.9,0,4.16-.62,2.68-3,5.1-5.89,4-3.12-1.18-2-4.74-1-7C740.15,626.38,737.56,624.86,736.72,626.6Z"/><circle cx="783.09" cy="624.46" r="2.25" transform="translate(-158.95 284.25) rotate(-18.71)"/><path d="M786.8,622.72c1,2.08,2.11,5.27-.42,6.8-3,1.78-5.78-1.07-6.42-3.8-.24-1-.78-2.73-.34-3.73s1.89-1.49,2.85-1.59a4.65,4.65,0,0,1,4.33,2.33,1.5,1.5,0,0,0,2.59-1.51,7.5,7.5,0,0,0-8.7-3.45c-1.77.61-3.23,1.27-3.87,3.14-.73,2.14-.13,5,.68,7,1.58,4,6,6.36,10,4.36,4.47-2.21,3.65-7.35,1.85-11.06C788.55,619.47,786,621,786.8,622.72Z"/><path d="M755.54,531a9.07,9.07,0,0,0-3.43-1.83c-1.59-1-4.09-.73-5.82-.3a8.51,8.51,0,0,0-6.24,6.24c-2,7.42,6.42,9.71,11.95,7.94,2.44-.78,5-2.3,5.93-4.8C759,535.55,757.63,532.8,755.54,531Z"/></g><path d="M753.15,443.16c-28.79-.94-57.47,12.69-78.52,31.7-21.7,19.6-32.84,49.4-35,78.16-2.18,29.26,7.34,58.2,27.51,79.63,17.31,18.4,40.86,30.82,65.42,36.26s50.49,4,73.51-6.43c22-10,39.71-27.9,50.35-49.48,17.38-35.26,15.49-75.78-.54-111.07-14.54-32-47.8-50.9-81.39-56.54a180.24,180.24,0,0,0-21.37-2.23c-3.86-.18-3.85,5.82,0,6,36.83,1.75,74.92,15.89,94.16,49.2,15.41,26.66,19.67,61.25,11.56,91.3-5.9,21.88-18.34,42-36.35,56-18.86,14.62-42.46,21.21-66.15,20.35-50.05-1.8-100.11-34.82-109.45-86.12-2.77-15.23-1.82-31,1.79-46.05,3.28-13.64,8.42-27.83,16.44-39.44,15-21.75,41.34-37.53,66.86-43.21a84.15,84.15,0,0,1,21.14-2C757,449.29,757,443.29,753.15,443.16Z"/><path d="M825.1,517.6c0,6-1.57,8.33-1.24,14.24,4.28-2.59,8.31-3.71,11.8-7,1.3,5.89,13.91,9.38,19,10.57,12,2.79,24.12-3.81,30.42-13.91,8.76-14,2.12-35.09-9.44-45.46-9.74-8.73-23.25-12.14-36.14-11.45-20,1.07-33.58,10.58-31.58,34.87.49,5.9,11.9,20.84,17.15,18.12"/><path d="M823.6,517.6c-.14,4.8-1.37,9.42-1.24,14.24a1.52,1.52,0,0,0,2.26,1.3c4.12-2.37,8.47-4.09,12.1-7.22l-2.51-.66c2.06,6.5,10.62,9,16.46,10.69,8.55,2.43,17,1.95,24.71-2.75,16.51-10,18.56-30.06,10.3-46.27-8.92-17.52-28.5-25.08-47.4-23.73-14.3,1-27.72,7.58-31.09,22.58-1.81,8.06-1.47,15.77,3.15,22.7,2.75,4.12,9.11,12.92,15.15,10.58,1.78-.69,1-3.59-.8-2.89-4.57,1.78-10.45-7.07-12.36-10.12-3.52-5.61-3.69-11.86-2.49-18.3,2.32-12.47,12-19.2,24-21.06,15.67-2.42,33.78,1.54,44.27,14.16,9.75,11.74,13.69,30.71,3.26,43.23C875,531.79,865.06,536,855.09,534c-5.46-1.11-16.08-3.51-18-9.52a1.52,1.52,0,0,0-2.51-.66c-3.42,2.94-7.62,4.52-11.5,6.75l2.26,1.3c-.13-4.81,1.1-9.44,1.24-14.24.06-1.93-2.94-1.93-3,0Z"/><path class="cls-3" d="M839.73,499.85q-.45.6-.9,1.14l-1.26-1.58a16.88,16.88,0,0,0,3.24-7.94l1.94.36a28.26,28.26,0,0,1-.66,2.84h6v2h-1.32a17.12,17.12,0,0,1-2.48,8.58,14.69,14.69,0,0,0,4.1,3.14l-1.26,1.68a15.75,15.75,0,0,1-4.06-3.18,15.54,15.54,0,0,1-3.8,3.06l-1-1.62h-5.34v1.32h-2V501h2.64v-3.62h-3.38v-2h3.38v-3.68h2v3.68h3.16v2h-3.16V501h2.68v7.14a12.66,12.66,0,0,0,3.56-2.86A13.52,13.52,0,0,1,839.73,499.85Zm-3.46,6.64v-3.58h-3.36v3.58Zm3.72-7,1.44-.42a11.61,11.61,0,0,0,1.6,4.54,15.53,15.53,0,0,0,1.78-6.88h-3.42A19.83,19.83,0,0,1,840,499.47Z"/><path class="cls-3" d="M860.11,495.06v-.9h-7.6V492.4h7.6v-1h2.08v1h7.6v1.76h-7.6v.9h5.92v4.2h-5.92v.92h6.18v2.6h2v1.66h-2v2.62h-6.18V508c0,1.28-.7,1.92-2.08,1.92h-2.46l-.44-2a21.28,21.28,0,0,0,2.2.14c.46,0,.7-.2.7-.6v-.42h-6.34v-1.64h6.34v-1H852v-1.66h8.14v-1h-6.32v-1.6h6.32v-.92h-5.92v-4.2Zm0,1.54h-3.84v1.14h3.84Zm5.92,0h-3.84v1.14H866Zm-3.84,6.18h4.2v-1h-4.2Zm0,1.66v1h4.2v-1Z"/></g></svg>