<svg id="圖層_1" data-name="圖層 1" xmlns="http://www.w3.org/2000/svg" xmlns:xlink="http://www.w3.org/1999/xlink" viewBox="0 0 901.64 678.24"><defs><style>.cls-1{fill:none;}.cls-2{clip-path:url(#clip-path);}.cls-3{fill:#f3eee8;}.cls-4{fill:#d1ccc7;}.cls-5{clip-path:url(#clip-path-2);}.cls-6{clip-path:url(#clip-path-3);}</style><clipPath id="clip-path"><path class="cls-1" d="M446.54,15C408,13.32,365.81,42.23,352.29,67.66c-17.65,33.18-23.38,73.14-6.33,107.77,24.4,49.56,92.22,74.49,143.36,56.73,62-21.52,85.68-95.84,59.5-154.51C548.82,77.65,531.51,18.63,446.54,15Z"/></clipPath><clipPath id="clip-path-2"><path class="cls-1" d="M113.79,452.4c-38.52-1.66-80.73,27.25-94.25,52.67C1.89,538.26-3.83,578.22,13.21,612.85c24.4,49.56,92.23,74.49,143.37,56.73,62-21.52,85.68-95.84,59.5-154.51C216.08,515.07,198.77,456.05,113.79,452.4Z"/></clipPath><clipPath id="clip-path-3"><path class="cls-1" d="M752.21,452.4c-38.52-1.66-80.74,27.25-94.26,52.67-17.64,33.19-23.37,73.15-6.32,107.78C676,662.41,743.85,687.34,795,669.58c62-21.52,85.68-95.84,59.5-154.51C854.49,515.07,837.18,456.05,752.21,452.4Z"/></clipPath></defs><title>fianl_3people</title><g class="cls-2"><path class="cls-3" d="M446.54,15C408,13.32,365.81,42.23,352.29,67.66c-17.65,33.18-23.38,73.14-6.33,107.77,24.4,49.56,92.22,74.49,143.36,56.73,62-21.52,85.68-95.84,59.5-154.51C548.82,77.65,531.51,18.63,446.54,15Z"/><circle cx="454.95" cy="102.11" r="2.25"/><path d="M454.2,98.06c2.13-.26,5.1-.52,6.32,1.72,1.9,3.52-2.37,5.88-5.24,5.68a7.92,7.92,0,0,1-3.44-.72,2.69,2.69,0,0,1-1-2.76,4.56,4.56,0,0,1,3.76-4c1.88-.43,1.09-3.33-.8-2.89a7.5,7.5,0,0,0-5.91,7.86c.21,4.49,4.34,5.65,8.36,5.54,4.41-.13,8.17-3.65,7.52-8.21-.67-4.72-5.59-5.74-9.57-5.25C452.31,95.3,452.29,98.3,454.2,98.06Z"/><path d="M431.75,98.06c2.13-.26,5.1-.52,6.31,1.72,1.91,3.52-2.36,5.88-5.23,5.68a7.92,7.92,0,0,1-3.44-.72,2.68,2.68,0,0,1-1-2.76,4.58,4.58,0,0,1,3.77-4c1.88-.43,1.08-3.33-.8-2.89a7.5,7.5,0,0,0-5.91,7.86c.21,4.49,4.34,5.65,8.35,5.54,4.41-.13,8.18-3.65,7.53-8.21-.67-4.72-5.6-5.74-9.57-5.25C429.86,95.3,429.84,98.3,431.75,98.06Z"/><circle cx="432.05" cy="102.11" r="2.25"/><path d="M453,87.58a3.11,3.11,0,0,0-2.36.64,2.38,2.38,0,0,0-.42,2.77c.74,1.29,2.6,1.28,3.88,1,1.72-.37,3.42-2.34,1.88-3.92a3.55,3.55,0,0,0-4.6-.13c-1,1-.27,2.45.8,3a2.59,2.59,0,0,0,3-.43A1.52,1.52,0,0,0,454.5,88l-.2-.07a1.5,1.5,0,0,0-.8,2.89l.2.08L453,88.39a.89.89,0,0,1,.27-.15h.15c-.16,0-.18,0-.07,0s.25.12.14,0,.4.78.33.39l-.39,1.46c.11-.11.08-.1-.07,0s-.17.08-.06,0,.08,0-.06,0h.22c.06,0,.57,0,.24,0l.13,0c.17.05.16,0,0,0,.12.08.11,0,0-.07a.8.8,0,0,1-.2-.86c.26-.37.31-.48.17-.33s-.06.06.05,0c-.06,0-.39.2-.15.1-.05,0-.52.14-.29.1s-.11,0-.15,0l-.41,0h-.37c-.32,0,.25,0-.07,0-.13,0-.14,0,0,0a.71.71,0,0,1,.43.37.7.7,0,0,1-.25,1c-.13.08-.38,0-.12.07H453a1.5,1.5,0,0,0,0-3Z"/><path d="M436.39,87.58a3.12,3.12,0,0,0-2.37.64A2.4,2.4,0,0,0,433.6,91c.74,1.29,2.61,1.28,3.89,1,1.71-.37,3.41-2.34,1.88-3.92a3.55,3.55,0,0,0-4.6-.13c-1,1-.27,2.45.8,3a2.59,2.59,0,0,0,3-.43,1.52,1.52,0,0,0-.67-2.51l-.19-.07a1.5,1.5,0,1,0-.8,2.89l.2.08-.67-2.51a1.22,1.22,0,0,1,.27-.15h.15q-.22,0-.06,0c.05,0,.25.12.13,0s.41.78.34.39l-.39,1.46c.1-.11.08-.1-.07,0s-.18.08-.07,0,.09,0-.06,0h.22c.07,0,.58,0,.25,0l.13,0c.17.05.16,0,0,0,.11.08.11,0,0-.07a.79.79,0,0,1-.19-.86c.25-.37.31-.48.16-.33s-.05.06,0,0c-.06,0-.38.2-.14.1-.05,0-.53.14-.29.1s-.11,0-.16,0l-.4,0h-.37c-.32,0,.24,0-.07,0-.14,0-.14,0,0,0a.72.72,0,0,1,.44.37.71.71,0,0,1-.26,1c-.12.08-.37,0-.12.07h.57a1.5,1.5,0,0,0,0-3Z"/><path d="M441.08,100.54c-.52,2.2-1.65,6.23.72,7.78,2.22,1.45,5.46-.08,5.13-2.87a1.57,1.57,0,0,0-1.1-1.45l-.1,0c-1.88-.38-2.69,2.51-.8,2.9l.1,0-1.1-1.45c0,.3,0,.72-.45.36a3.9,3.9,0,0,1,0-1.09,14.25,14.25,0,0,1,.52-3.38c.45-1.88-2.45-2.68-2.89-.8Z"/><path d="M433.05,114.4c7.32-1.8,15.9-1.3,23.4-1.3a1.5,1.5,0,0,0,0-3c-7.83,0-16.6-.46-24.2,1.41-1.88.46-1.08,3.35.8,2.89Z"/><path d="M414.44,122.88c0-6.14-.39-12.06-.76-18.16s0-12,3-17.48c6.17-11.07,21.47-14.59,33.14-14.56,2.71,0,5.72-.38,8.4,0,3.35.48,7.51,2.68,10.24,4.69,5.18,3.82,6.45,9.56,8.73,15.09s3.25,11.4,4.11,17.28c.78,5.34,2.18,8.23,6,12.27,2.67,2.8,6.9-1.44,4.25-4.25-3.1-3.26-3.75-5.43-4.48-9.62-.56-3.24-1.22-6.32-1.52-9.6-.32-3.65-2.25-6.36-3.36-9.75-.94-2.88-1.53-5.37-3.16-8-3.73-5.94-8-9.35-14.34-12.29-5.82-2.71-13.71-2.45-20-1.87-12.07,1.11-26.19,6-32.81,16.89a32.43,32.43,0,0,0-4.31,17.92c.2,7.18.89,14.2.87,21.41,0,3.86,6,3.87,6,0Z"/><path d="M408.85,122.13c-4,7.23-12.31,10-18.61,14.71-6.55,4.91-13.36,9.66-17.52,16.91-8.28,14.42-6.8,33.67-4.69,49.45,2.63,19.73,6.46,39.32,8.7,59.08,1,8.74,1.87,17.69,3.77,26.29.89,4,1.7,8.27,3.26,12,.89,2.17,1.58,5.67,3.45,7.15,2.17,1.7,5.56,1.62,8.11,2.05,3.05.52,6.21,1.45,9.31.52a8.7,8.7,0,0,0,5.76-6c1.14-3.83-.19-5.6-2.19-8.6l-4.71,3.63c3.29,2.95,8.7,3.16,11.4-.84,3.29-4.88-1-8.88-4.37-12-2.83-2.63-7.08,1.6-4.25,4.24.71.65,1.46,1.26,2.14,1.94a5.51,5.51,0,0,1,1,1q1.65,1.35-1.65,1.42c-2.41-2.16-6.7.66-4.71,3.64,1.18,1.77,3,4.34,0,5.82-1.48.75-3.78-.15-5.24-.39a29.55,29.55,0,0,0-5.33-.78l-1.53-.45c.57,1,.72.95.44-.09-4.07-8.57-5.91-18.14-7-27.54-2.24-19.66-6-39-8.8-58.55-1.32-9.42-3.1-19.35-3-28.86.1-9.92,0-20.45,4.5-29.6,4.13-8.45,13.61-14.95,21.41-19.85,6-3.78,11.95-6.79,15.53-13.27,1.86-3.39-3.32-6.42-5.18-3Z"/><path class="cls-3" d="M398.51,169.25l-.63.07c-.71,2.47-.13,5.82-.13,8.4a114.77,114.77,0,0,0,1.15,16.15c.45,3.24.62,6.53,1.11,9.76.39,2.66,1.29,5.14,1.85,7.76,1.31,6.1,1.81,12.34,2.88,18.47.5,2.83,1.51,5.53,2,8.36s.71,5.6,1.09,8.38c.78,5.6,1.9,11,2.88,16.59.83,4.78,1.46,9.61,2.26,14.39.68,4.08,2,7.89,2.85,11.92,1.29,6.37,3,12.62,4.77,18.81,1.72,6,2.49,12.29,4.14,18.28,1.07,3.89,3.44,7.49,4.24,11.39.15.73-.07,1.48.11,2.24.25,1.06,1,2,1.22,3.08a35.78,35.78,0,0,1,.89,6.74,26.65,26.65,0,0,0,1.95,8.06,8.85,8.85,0,0,1,.36,3.48c-.05,1.49-.12,1.59-1.5,2.25-2.77,1.32-3.74,3.86-5.8,6.08s-4.37,3.93-3.28,7.48c3.22.53,6.29,1.39,9.6.71a58.26,58.26,0,0,1,12-1.35c2,0,4.19-.34,6.09.06a17.78,17.78,0,0,0,4.46.7c2.67,0,6.13.63,8.69-.08a18,18,0,0,0,.11-4.46,27.23,27.23,0,0,1,.59-5.18c.59-3.25.17-6.92.17-10.23v-11.8c0-5-1.27-9.73-1.55-14.65a33,33,0,0,0-.35-5.7c-.39-1.72-.76-3.48-1.07-5.22-.52-2.89-.35-5.92-.89-8.81-1.31-7-1.57-14.25-3-21.28"/><path d="M398.51,166.25l-.63.07a3.09,3.09,0,0,0-2.89,2.2c-1.24,6.27-.33,13.64.27,20,.68,7.16,1.34,14.41,3.13,21.38,1.9,7.39,2.13,15.06,3.81,22.48s2.59,14.93,3.93,22.46c2.74,15.42,5.26,30.74,9.23,45.91,2,7.68,3.8,15.32,5.57,23.05a64.18,64.18,0,0,0,3.6,10.48c1.29,3.14,1.92,6.61,2.87,9.86,1.09,3.79.68,7.84,1.77,11.66.41,1.42,1.89,4.78,1.31,5.65-.12.18-2.32,1.4-2.89,2-4,4.05-8.74,8.78-7.57,14.81a2.89,2.89,0,0,0,2.09,2.09c3.19.57,6.32,1.25,9.56.93,4.34-.42,8.48-1.3,12.86-1.46,6.7-.25,13.33,1.82,20,.57a3.07,3.07,0,0,0,2.21-2.89c1-7.18.89-14.58.87-21.84,0-3.89.16-7.81-.05-11.7S466.46,336,466.17,332a390,390,0,0,0-5.48-42.73c-.71-3.79-6.49-2.18-5.78,1.6,2.64,14.13,3.87,28.72,5.44,43s2.33,29.27.42,43.57l2.2-2.89c-6,1.11-12.36-1-18.44-.79-7.14.24-13.7,2-20.82.75l2.1,2.09c-.55-2.8,5.71-8.78,7.7-10.17s2.81-2.28,3-4.84c.28-4.38-1.95-8.86-2.42-13.23a81.61,81.61,0,0,0-2.22-11.16c-1.13-4.57-3.55-8.64-4.71-13.2-1.08-4.25-1.73-8.59-2.73-12.85-2.32-9.76-5-19.49-7.41-29.22-2.37-9.37-3.4-19.2-5.09-28.72-.78-4.42-1.31-8.86-1.93-13.31-.59-4.29-1.94-8.4-2.65-12.67-.82-4.92-1.25-9.9-2.21-14.79s-2.23-9.62-2.78-14.65c-.53-4.88-1.23-9.73-1.46-14.63-.19-4.1-.9-9-.1-13l-2.9,2.2.63-.07c3.8-.44,3.84-6.45,0-6Z"/><path d="M438,289.3c3.09.15,5.82,1.45,8.76,2.26a39.07,39.07,0,0,0,7.62,1c2.6.21,5,1.07,7.55,1.35a84.49,84.49,0,0,0,8.86,0c5.4,0,10.57-.55,15.88-.74a38.19,38.19,0,0,0,14.17-3.51c2.63-1.27,1.41-5.83-1.52-5.59l-.52,0c-3.82.31-3.85,6.31,0,6l.52,0-1.51-5.59c-4.75,2.28-10,2-15,2.63a140.07,140.07,0,0,1-15.77.8c-4.79.05-9.42-1-14.2-1.41-5.12-.49-9.72-2.89-14.86-3.15-3.86-.2-3.85,5.8,0,6Z"/><path class="cls-3" d="M499.6,287.82c0,1.51-.09,3.05,0,4.56a9.91,9.91,0,0,0,.61,2.26c.34,1.33,0,2.66.32,4s1,2.28,1.2,3.49c.41,2,.4,4.22.74,6.28.64,3.91.88,7.86,1.7,11.74,1.39,6.63,2.89,13.32,3.74,20,.28,2.22-.09,4.38.45,6.54a20.37,20.37,0,0,1,.38,5.08c0,1.78,0,3.55,0,5.32,0,1.19.21,2.23-.41,3.26a15.26,15.26,0,0,1-2.61,2.66c-.91.89-1.93,1.46-2.9,2.26-1.2,1-1.17,1.6-1.84,2.89-1,2-3.92,3.1-2.85,5.83,1.42,3.62,8.21,1.7,11,1.08,4.95-1.1,9.85-.13,14.87-.62a39.61,39.61,0,0,0,6.4-1.47c.85-.24,2.28-.19,3-.81s.49-1.78.48-2.92a24.57,24.57,0,0,1,.59-5.68c.46-2.24.17-4.72.17-7A175.31,175.31,0,0,0,531.34,325c-1.18-6.46-1.73-13-2.69-19.51-1.13-7.7-1-15.51-2.27-23.22a40.79,40.79,0,0,1-.13-5.3c-.07-1.74-.73-3.37-.84-5.09-.27-4.06-.35-8.07-.8-12.11-.93-8.38-1.78-16.78-3.37-25.12a60.66,60.66,0,0,1-1.09-10.75c0-4-1.49-8-1.56-12-.13-6.94-1.53-13.72-2.85-20.54-.45-2.34-.09-4.77-.14-7.14-.05-2-.72-3.85-.84-5.85a22.08,22.08,0,0,0-.33-4.17c-.27-1.18-.73-2.4-1-3.6-.29-1.47.11-2.94-.12-4.37a15.46,15.46,0,0,0-1.57-3.82,14.44,14.44,0,0,0-2.3-3.4c-.9-1.06-1.34-2.46-2.26-3.43"/><path d="M496.6,287.82a47.08,47.08,0,0,0,1.86,13.94c1.76,6.1,1.6,12.94,2.8,19.19,1.17,6.07,2.75,12.08,3.5,18.22.39,3.19.53,6.45.83,9.65.25,2.74,1.1,7.91-.15,10.42-.82,1.65-3.49,2.74-4.77,4s-2.16,3.1-3.27,4.67c-2.2,3.11-3.92,6.65-.3,9.67,2.78,2.32,6.85,1.7,10.11,1.08,5.89-1.12,11.66-.47,17.55-1.23,3.22-.42,10-1,11.65-4.49.74-1.58.34-3.38.42-5.07.16-3.21.82-6.24.78-9.48-.19-14.32-2.75-27.95-4.57-42.09-3.55-27.45-4.42-55.07-8.91-82.39-.64-3.94-.72-7.74-1.07-11.69-.32-3.47-1.2-6.84-1.47-10.31-.64-8-2.82-16.14-3.07-24.1-.11-3.24-.42-6.21-.76-9.43s-1.1-6.15-1.41-9.24c-.27-2.66-.21-4.54-1.38-7a50.43,50.43,0,0,0-5.17-8.06c-2.27-3.08-7.48-.09-5.19,3,1.31,1.78,2.74,3.72,3.91,5.6,1.6,2.56,1.58,5,1.94,7.9.63,5.14,2.05,10.16,2.12,15.4s1.16,10.21,2,15.45c1,6.44,1.42,13,2.28,19.44.74,5.51.89,11,1.85,16.53,1.18,6.78,2,13.62,2.7,20.46,1.3,12,2.3,24,3.17,36,1.74,24.22,8.73,48.21,6.37,72.55-.08.79.23,2.76-.1,3.41-.44.86.41-.16-1.27.29a37.73,37.73,0,0,1-9.35,1.51,88.15,88.15,0,0,0-14.61,1.18c-1.79.32-4.07,1.13-3.57-1.15.27-1.24,2.36-3.56,3.25-4.51,2.72-2.91,5.9-4,6.44-8.35.72-5.8-.4-12-.77-17.8-.42-6.35-2-12.74-3.34-18.95s-1.74-12.52-2.72-18.78c-.82-5.29-2.38-10-2.3-15.48.06-3.86-5.94-3.87-6,0Z"/><path d="M489,113.8h-.5v6a47.77,47.77,0,0,1,22.66,5.52c7,3.52,10.12,9.93,13.43,16.6,4,8.08,6.8,15.34,7,24.51.09,3.8.69,7.51.83,11.3s-.12,7.68.34,11.58c.45,3.73.13,7.42.55,11.14.53,4.65,1.41,9.18,1.31,13.88a68.53,68.53,0,0,0,.31,10.63c.6,4.35.13,8.73.8,13.06,1.2,7.7,1.21,15.81,1.21,23.63a117.75,117.75,0,0,1-.65,12.31c-.14,1.35,0,2.78-.16,4.11-.26,1.6-3.12,6.88-5,2.91-1.66-3.48-6.83-.44-5.18,3,2.18,4.6,7.3,5.25,11.53,2.84,5.34-3,4.66-10.09,5.29-15.33a92.41,92.41,0,0,0,.17-10.79c0-4,.39-8.27-.24-12.26-1.19-7.53-.67-15.25-1.62-22.83-1-8-.5-15.95-1.58-24-1.14-8.49-.46-17.19-1.18-25.7-.65-7.68-.3-15.91-2.61-23.35a91.46,91.46,0,0,0-8.47-19.3C519,119.61,504,113.73,488.46,113.8c-3.86,0-3.86,6,0,6h.5c3.86,0,3.87-6,0-6Z"/><path d="M443.11,116.57c-3.38-.41-5.21,2.9-4.41,5.89a4.31,4.31,0,0,0,2.63,3.05c1.73.56,3.34-.34,4.6-1.45l-2.35-.31c.85,1.4,2.08,2.83,3.84,2.94a4.09,4.09,0,0,0,3.26-1.5c1.38-1.57,2.55-5.23,0-6.39-1.74-.8-3.26,1.78-1.51,2.59.27.12,0-.17,0-.06a1.43,1.43,0,0,1,0,.39,3.16,3.16,0,0,1-.66,1.41c-.95,1.15-1.71.12-2.33-.89a1.53,1.53,0,0,0-2.36-.31,3.15,3.15,0,0,1-1.07.7,3.28,3.28,0,0,1-.4.08c-.46-.16-.67-.65-.79-1.23-.25-1.27.15-2.08,1.56-1.91,1.91.23,1.89-2.77,0-3Z"/><path class="cls-4" d="M416.54,165.12c-.55,10.66,2.57,21.64,4.22,32.11,1.89,12,3.24,24.05,5.8,36,.56,2.6,1.42,6.19,2.87,8.49,1.67,2.63,3.87,1.94,6.88,1.58,6-.74,12-.34,18-.63,7-.33,13.81-2,20.77-2.62a149.2,149.2,0,0,0,16.72-2.53c3.6-.75,5.14-.13,5.47-4,.87-10.37-.46-21.29-.61-31.7-.16-12-2.56-23.85-2.35-35.82,0-2,.68-6.94-.88-8.54s-7.58-1-9.63-1.3c-14.57-2-30-.83-44.4,1.71a91.2,91.2,0,0,0-17,4.91c-1.43.54-7.35,1.7-6,3.63"/><path d="M413.54,165.12c-.41,12.41,3.08,24.52,4.9,36.71,1.81,12,2.59,24.92,6.33,36.54,1.08,3.35,2.6,7.08,6.32,8.07,1.72.46,3.51,0,5.22-.15a102.85,102.85,0,0,1,10.82-.5c12.42-.1,24.92-2,37.19-3.89,3.71-.57,9.63-.68,13-2.63,3.72-2.15,3.19-7.65,3.27-11.31a339.93,339.93,0,0,0-1.64-38.42c-.55-6-1.28-11.91-1.51-17.89-.18-4.33,1.08-10.12-.58-14.26-1.18-3-3.87-3.69-6.82-4-4.77-.48-9.67-.8-14.46-1.08a143.7,143.7,0,0,0-41.34,3.55,153.45,153.45,0,0,0-15.69,4.94c-2.76,1-6.27,2.84-4.94,6.37s7.15,2,5.79-1.6c1,2.57-1.21.94.74,1a9.76,9.76,0,0,0,1.81-.56c1.57-.52,3.12-1.08,4.68-1.63a89.24,89.24,0,0,1,13.62-3.68,153.33,153.33,0,0,1,30.68-2.6c4.59.1,9.09.73,13.65,1.06,1.43.1,2.87,0,4.3.13,2.46.19,2.24.06,2.64,2.24.68,3.69-.2,8.18,0,12,.29,5.35.92,10.67,1.42,16,.94,10,1.15,20,1.52,30,.09,2.19.15,4.37.14,6.56,0,1.56.63,6.74-.37,7.86-.38.42-2.6.55-3.19.65-2.78.51-5.53,1.08-8.32,1.5-10.16,1.55-20.81,3.41-31.08,3.64-4.51.1-9-.06-13.53.35-1.18.11-4.08,1-5.25.55-2.07-.76-2.84-5.71-3.25-7.54-2.54-11.14-3.82-22.54-5.52-33.83s-4.93-22.59-4.55-34.16c.13-3.86-5.87-3.85-6,0Z"/><path d="M447.63,365a8.63,8.63,0,0,0-4.58,12.26c2,3.32,7.14.31,5.18-3a2.59,2.59,0,0,1-.15-1.91,2.21,2.21,0,0,1,1.14-1.54,3.08,3.08,0,0,0,2.1-3.69,3,3,0,0,0-3.69-2.09Z"/><path d="M436,376.75a5.38,5.38,0,0,1,1.81-4,3.1,3.1,0,0,0,1.08-4.1c-.75-1.28-2.81-2.06-4.11-1.08a11.38,11.38,0,0,0-4.78,9.18c.07,3.85,6.07,3.87,6,0Z"/><path d="M522.88,362a8.63,8.63,0,0,0-4.58,12.26c2,3.32,7.14.31,5.18-3a2.64,2.64,0,0,1-.16-1.91,2.25,2.25,0,0,1,1.15-1.54,3.08,3.08,0,0,0,2.1-3.69,3,3,0,0,0-3.69-2.09Z"/><path d="M511.22,373.71a5.34,5.34,0,0,1,1.81-4,3.1,3.1,0,0,0,1.07-4.11c-.74-1.27-2.8-2.05-4.1-1.07a11.38,11.38,0,0,0-4.78,9.18c.07,3.85,6.07,3.87,6,0Z"/><path d="M419.42,94c4.39,0,8.82.17,13.21,0,1.25,0,3-.6,4.19-.28,2.75.72,2.11,3.15,2,5.26s.74,5.64-.22,7.61c-1.14,2.33-5.2,2.07-7.45,2.29a64.24,64.24,0,0,1-7.72.46c-2.85-.07-2.79-1.14-3.11-3.82a53.51,53.51,0,0,1-.2-13c.25-1.91-2.75-1.89-3,0a52.07,52.07,0,0,0-.06,9.83c.14,2.4,0,6.08,1.36,8.21s3.77,1.81,5.9,1.79a82,82,0,0,0,10.61-.85c2.57-.35,5.16-.93,6.32-3.5,1.38-3.06.73-8,.7-11.22,0-2.95-1-5.39-4.16-6-2.14-.4-4.67.19-6.85.21-3.85,0-7.71,0-11.56,0a1.5,1.5,0,0,0,0,3Z"/><path d="M445.28,92.86c0,4.26-.09,8.52-.14,12.78,0,2.33.21,4.47,2.39,5.74,2.36,1.37,5.58.84,8.15.66,4.63-.34,9.21.18,13.84.15a1.52,1.52,0,0,0,1.5-1.5c.28-5.33,1.4-11.72.28-17-.54-2.51-2-3.55-4.45-4-5.79-1.1-16.3-1.78-20.75,2.87-1.34,1.39.78,3.52,2.12,2.12,3.4-3.54,11.37-2.57,15.83-2.24,4.18.31,4.44,1.69,4.4,5.53,0,4.24-.2,8.48-.43,12.72l1.5-1.5c-3.53,0-7-.4-10.57-.35-2.12,0-4.31.53-6.42.38a4.74,4.74,0,0,1-4.42-3c-.27-.72.15-3,.17-3.71.07-3.22,0-6.45,0-9.66a1.5,1.5,0,0,0-3,0Z"/><path d="M442.62,100.39a15,15,0,0,1,4.92-.33,1.5,1.5,0,0,0,0-3,17.43,17.43,0,0,0-5.72.43c-1.82.62-1,3.52.8,2.9Z"/><path d="M435.76,223.55c10.13-.11,20.08-2,30.12-3.1,7.92-.87,16.24-1.36,23.89-3.71,3.68-1.14,2.11-6.93-1.6-5.79-7.57,2.33-15.75,2.77-23.59,3.65-9.61,1.07-19.12,2.84-28.82,3-3.86,0-3.87,6,0,6Z"/><path d="M449.82,218.65c.57-3.1-2-10.29-2.8-15.14-3,.21-5.91.45-8.08,2.9.89,4.37,1.27,9.71,2.9,13.76C441.84,220.17,449.66,219.53,449.82,218.65Z"/><path d="M451.32,218.65c.62-5.1-1.92-10.59-2.86-15.54A1.49,1.49,0,0,0,447,202c-2.67.2-8.83.7-9.55,4.2-.37,1.77.72,4.69,1,6.49a42.23,42.23,0,0,0,1.91,7.87,1.54,1.54,0,0,0,1.45,1.1c2.45-.21,7.74.05,9.27-2.26,1.07-1.62-1.52-3.12-2.59-1.52.4-.6-.75,0-1.24.1-.82.17-1.66.27-2.49.37-1,.13-2,.23-3,.31l1.45,1.1c-1.64-4.43-2-9.15-2.9-13.76l-.39,1.46c2-2,4.32-2.26,7-2.46l-1.45-1.1c.88,4.69,3.34,9.92,2.75,14.74C448.09,220.56,451.09,220.55,451.32,218.65Z"/><path d="M466.12,216.77c0-9.35-2.8-20.62-4.3-26.11-2.25-.13-5.4,1.69-7.67,2.09-.74,8.13,2.63,16.82,2.63,25.14C456.78,217.89,466.12,217.7,466.12,216.77Z"/><path d="M467.62,216.77c-.14-9-2-17.86-4.35-26.51a1.53,1.53,0,0,0-1.45-1.1c-2.86.2-5.32,1.45-8.07,2.15a1.51,1.51,0,0,0-1.1,1.44c-.48,8.52,2.4,16.67,2.63,25.14a1.52,1.52,0,0,0,1.5,1.5c2.64-.06,8.93.67,10.63-1.86,1.09-1.61-1.51-3.11-2.59-1.52-.35.53-6.77.35-8,.38l1.5,1.5c-.23-8.46-3.11-16.64-2.63-25.14l-1.1,1.45c2.43-.62,4.74-1.86,7.27-2l-1.45-1.1c2.28,8.4,4.11,17,4.25,25.71C464.65,218.7,467.65,218.71,467.62,216.77Z"/><path d="M480.52,216.17c2-1.18-2.16-22.77-3.76-33.84-1.56.64-7.24,1.9-8.2,3.27-1.1,1.57.41,6.57.74,8.19,1.53,7.48,3.48,15.61,3.25,23.35C472.55,217.14,477.47,217.92,480.52,216.17Z"/><path d="M481.58,217.23c2.58-2.49.55-9.68.15-12.61-1-7.59-2.41-15.12-3.53-22.69a1.5,1.5,0,0,0-1.84-1.05c-4.52,1.62-10.09,1.84-9.61,7.77.77,9.64,4.38,18.64,4.3,28.49a1.5,1.5,0,0,0,1.1,1.45,16.1,16.1,0,0,0,9.12-1.13c1.76-.79.24-3.37-1.51-2.59a12.6,12.6,0,0,1-6.82.83l1.11,1.44c.06-7.47-1.41-14.73-2.94-22-.41-2-2.15-6-1.45-7.82.91-2.34,5.37-2.77,7.49-3.53l-1.84-1.05c.89,6,1.95,12,2.86,18.06.46,3,.91,6,1.18,9,.08.87.82,4.59.11,5.28C478.06,216.45,480.19,218.57,481.58,217.23Z"/><path d="M426,172.94a23,23,0,0,1,.23,3.61,1.52,1.52,0,0,0,1.5,1.5c2.53-.17,4.84-1.14,7.32-1.53a29.57,29.57,0,0,0,6.35-1.21c3.18-1.26,4.48-3.83,2.32-7-2.51-3.64-7-.52-10.21.11-2.93.58-7.33,1.5-6.26,5.43a1.5,1.5,0,0,0,2.5.66c.34-.37.67-.76,1-1.14l-2.51-1.46a14,14,0,0,1-.69,2.69l2.9.8a8.09,8.09,0,0,1,1.3-2.79l-2.8-.76-.77,1.85,2.74,1.15a3.53,3.53,0,0,1,1.54-2.2l-2.05-.53-.21.73,2.51,1.46c.32-1.4,1.39-1.88,2.66-2.06l-1.85-1.84a3.48,3.48,0,0,1-1.72,2.25l1.82,2.36a7.05,7.05,0,0,1,3.34-1.93l-1.7-2.2a4.22,4.22,0,0,1-1.92,1.47l2.21,1.7c.29-1.32,1.92-1.74,3-1.61l-1.29-2.25a3,3,0,0,1-1.88,1l1.85,1.85a2.76,2.76,0,0,1,2-1.47l-1.85-1.05-.12.81,2.51,1.46.64-1.22h-2.59l.3,1.25c.25,1.71,2.93,1.24,2.94-.4l.5-1.42-2.74-.36a5.75,5.75,0,0,1,.31,1.47c.24,1.69,3,1.27,2.95-.4,0-.63,0-1.27,0-1.91l-2.94.4a11.37,11.37,0,0,1,.55,1.83l2.51-1.46-.54-.63c-1.26-1.47-3.37.66-2.12,2.12l.53.63c1,1.18,2.86-.09,2.51-1.46a11.37,11.37,0,0,0-.55-1.83,1.51,1.51,0,0,0-2.95.4c0,.64,0,1.28,0,1.91l2.94-.39a5.74,5.74,0,0,0-.31-1.48,1.52,1.52,0,0,0-2.74-.36,4.57,4.57,0,0,0-.91,2.94L441,172a6.11,6.11,0,0,0-.6-2c-.46-1.09-2.06-.87-2.59,0a10.76,10.76,0,0,0-.94,1.93c-.55,1.38,1.57,2.59,2.5,1.46a3.61,3.61,0,0,0,.89-3.73,1.51,1.51,0,0,0-1.84-1.05c-1.94.65-3.49,1.53-4.1,3.57a1.51,1.51,0,0,0,1.84,1.85,5.68,5.68,0,0,0,3.67-2.37c.72-1-.28-2.14-1.3-2.26-2.44-.29-5.37,1.31-5.93,3.81a1.52,1.52,0,0,0,2.21,1.69,7.32,7.32,0,0,0,3-2.55c.77-1.12-.49-2.51-1.69-2.2a10.71,10.71,0,0,0-4.66,2.7c-1.24,1.12.42,3.35,1.82,2.35a7.07,7.07,0,0,0,3.1-4,1.53,1.53,0,0,0-1.85-1.85,5.41,5.41,0,0,0-4.75,4.15,1.51,1.51,0,0,0,2.5,1.46c1.46-1.25,1.53-2.74.68-4.37a1.51,1.51,0,0,0-2-.54,7.05,7.05,0,0,0-2.92,4c-.59,1.71,1.81,2.44,2.74,1.15a6.18,6.18,0,0,0,1.18-3.36c.16-1.62-2-1.85-2.79-.76a10.57,10.57,0,0,0-1.61,3.51,1.51,1.51,0,0,0,2.9.8,15,15,0,0,0,.69-2.69c.2-1.32-1.42-2.73-2.51-1.46-.33.38-.66.77-1,1.14l2.51.66c-.38-1.37,5.86-2,6.46-2.16a27.52,27.52,0,0,1,2.62-1c1.2-.21,3.05.93,2.42,2-.9,1.52-5.34,1.47-6.81,1.69-2.39.36-4.68,1.35-7.1,1.51l1.5,1.5a27.12,27.12,0,0,0-.34-4.41c-.36-1.89-3.25-1.09-2.89.8Z"/></g><path d="M446.54,12C417.76,11,389.07,24.67,368,43.68c-21.69,19.61-32.83,49.4-35,78.16-2.18,29.26,7.34,58.19,27.51,79.63,17.31,18.4,40.86,30.82,65.42,36.25s50.49,4,73.51-6.42c22-10,39.71-27.9,50.35-49.48,17.38-35.26,15.49-75.77-.54-111.07-14.55-32-47.81-50.9-81.39-56.54A180.19,180.19,0,0,0,446.54,12c-3.86-.18-3.85,5.82,0,6,36.83,1.75,74.92,15.89,94.16,49.2,15.41,26.66,19.67,61.25,11.57,91.3-5.91,21.88-18.35,42-36.35,56-18.87,14.62-42.46,21.21-66.16,20.36C399.71,233,349.66,200,340.32,148.68c-2.78-15.24-1.82-31.05,1.79-46.06,3.27-13.64,8.42-27.83,16.43-39.44,15-21.75,41.35-37.53,66.86-43.22a84.38,84.38,0,0,1,21.14-2C450.4,18.11,450.4,12.11,446.54,12Z"/><path d="M511.54,70.48c0,7.74-2,10.84-1.61,18.51,5.56-3.36,10.8-4.82,15.34-9.07C527,87.57,543.34,92.11,550,93.66c15.59,3.63,31.36-5,39.55-18.08C600.93,57.32,592.3,30,577.27,16.49,564.61,5.14,547,.7,530.29,1.6c-26,1.39-43.65,13.75-41,45.33.63,7.67,15.47,27.09,22.3,23.55"/><path d="M510,70.48c-.16,6.24-1.81,12.25-1.61,18.51a1.51,1.51,0,0,0,2.25,1.3c5.3-3.07,11-5.24,15.65-9.31l-2.51-.66c2.36,8.05,13.3,11.3,20.41,13.38,10.67,3.12,21.12,3,31.06-2.52,21.85-12.11,25.41-37.85,15.27-59C579.4,8.79,553.92-1.5,529,.18c-18,1.2-35.25,9.06-40,27.81-2.68,10.47-2.42,21,3.6,30.16,3.37,5.1,11.76,16.93,19.34,13.78,1.76-.73,1-3.63-.8-2.89-6.14,2.55-14-9.28-16.56-13.35-4.64-7.39-4.86-15.51-3.32-24,3-16.66,16.09-25.58,32.13-27.92,21.14-3.1,45.45,2.62,58.83,20.34C594.37,40.2,598.44,64.55,584,80.49,575.29,90,562.39,95,549.65,92c-7-1.64-20.6-4.55-22.94-12.52a1.51,1.51,0,0,0-2.5-.66c-4.45,3.88-10,5.91-15,8.84L511.43,89c-.2-6.24,1.46-12.28,1.61-18.51.05-1.93-2.95-1.93-3,0Z"/><path class="cls-3" d="M534.87,40.62c-.1.34-.21.67-.31,1a12.12,12.12,0,0,0,6.89,2.93l-1.09,2.27a17.51,17.51,0,0,1-1.88-.42V57h-4.39a58.35,58.35,0,0,1,7.23,1.64l-.89,2.15a54.33,54.33,0,0,0-8.68-2.21l.81-1.58h-5.85l1,1.38a30.17,30.17,0,0,1-8.27,2.41l-1.22-2.1A37.25,37.25,0,0,0,525.54,57h-4.4V46.1h6.35l-1-1.56q5.14-.88,6.08-4.39Zm-9,1.87V44.8h-7.56V42.49Zm-.54-4.68V40.1h-6.5V37.81Zm10.5,11.41V48.13h-12v1.09Zm0,2.79V51h-12v1Zm0,1.71h-12v1.15h12Zm-8.68-10.89-1.48-1.95a9.12,9.12,0,0,0,3.69-4.55l2.49.31c-.15.41-.28.78-.44,1.14h9v1.88a15.53,15.53,0,0,1-2.23,3.43l-1.82-1.48A11.41,11.41,0,0,0,537.63,40h-7.54A14.58,14.58,0,0,1,527.15,42.83Zm10.53,3.27a12,12,0,0,1-4.16-2.7,8.57,8.57,0,0,1-4.24,2.7Z"/><path class="cls-3" d="M549.92,39.53c-.31-.81-.62-1.59-1-2.37l2.61-.7a31.71,31.71,0,0,1,1,3.07h3.12V42h-9V39.53Zm5,20.64h-2.48V59.1h-2.75v1.28h-2.5V50.94h7.73Zm-.21-16.75v2.37h-7.26V43.42Zm0,3.65v2.39h-7.26V47.07Zm-2.27,9.59V53.38h-2.75v3.28Zm6.37-9.72V40.07h-2.7v-2.6h11.13V46a56.57,56.57,0,0,0,.57,10c.16.78.31,1.19.47,1.19a3.83,3.83,0,0,0,.18-1.11c0-.71,0-1.49,0-2.37l2.11,1a14.19,14.19,0,0,1-.73,4.87,1.17,1.17,0,0,1-1,.75,3,3,0,0,1-2.52-1.79c-1.17-2-1.77-6.17-1.77-12.54v-5.9h-3.15v6.87h2.76v2.57h-2.76v11h-2.63v-11H556V46.94Z"/><g class="cls-5"><path class="cls-3" d="M113.79,452.4c-38.52-1.66-80.73,27.25-94.25,52.67C1.89,538.26-3.83,578.22,13.21,612.85c24.4,49.56,92.23,74.49,143.37,56.73,62-21.52,85.68-95.84,59.5-154.51C216.08,515.07,198.77,456.05,113.79,452.4Z"/><path d="M121.52,509.65c-3.47-3.23-8-9.23-.94-11,3.64-.91,7.82-.29,11.41.54,8,1.86,16.73,6,21.27,13.19a20.49,20.49,0,0,1,2.93,10c.1,3.36-1,4.77-4.62,3.75a48.18,48.18,0,0,1-7.75-3.34c-4-2-7.77-4.34-11.73-6.37-2.92-1.5-8.35-3.49-9.29-7-1-3.72-6.78-2.14-5.78,1.6,1.46,5.48,7.42,8.2,12,10.58,6.84,3.52,13.44,8.17,20.91,10.32,15.22,4.36,13.48-14.89,8.13-23.07-6.73-10.29-20.44-16.06-32.41-16.56-4.89-.21-11.42.66-14.08,5.41-3.3,5.91,1.48,12.27,5.66,16.16,2.82,2.63,7.08-1.6,4.24-4.24Z"/><path d="M116.77,496.47c-3.16,3.71-2.24,11.82.78,15.38,1.52,1.8,4.4.68,5-1.32,1-3.41.5-6.65.35-10.15-.17-3.85-5.87-3.88-6,0s-.27,7.71,1.37,11.35c1.09,2.43,4.85,1.6,5.48-.72,1.21-4.46.17-8.87.2-13.4l-5.59,1.51c2.26,3.62,2.25,8.45,3,12.55.52,3,5,2.69,5.78,0,1.27-4.7-2-9.57-.21-14l-5.48.72c2.9,3.85,1.93,10.23,1.83,14.8h6c-.15-5-.95-9.92.76-14.7l-5.48.72c1.21,1.9.71,4.64.77,6.79.07,2.77.46,5.51.48,8.28h6c-.1-4.45-.83-9,.44-13.31l-5,1.32c2.26,2.36.87,9.62.91,12.7,0,3.26,5.24,4.22,5.9.8,1-5.35-.59-10.73.5-16h-5.78c1.55,5.55,1.38,11.29,1.6,17,.15,3.85,6,3.88,6,0,0-5.57-2.35-12.89-.57-18.25l-5.48.72c3.17,6,2.65,13.81,2.61,20.42h6c-.71-6.11-2.51-13.73.39-19.49H134.1c1.61,2.51,1.27,6,1.39,8.86.15,3.54.37,7.06.43,10.6l5.9-.8c-1.15-5.53-2-11.68-.54-17.22l-5.48.72c1.38,2.12,1.25,5.08,1.44,7.51.27,3.35.67,6.67.71,10l5.89-.79c-.89-4.18-2.53-10.6-.48-14.63h-5.18c2,4.25,3.85,10.38,2.81,15.09l5.48-.72a18.67,18.67,0,0,1-.64-13.65l-5,1.32c2.74,3.09,3,10.85,1.75,14.57l5-1.32c-1.48-1.92-2.12-8.66-.28-10.45h-4.25c2.74,3.07,2.48,10.38,1.93,14.23l5.49-.72c-2.21-3.32-2.26-9.78-.63-13.37l-4.71.6c3,2.63,2.13,11.09,1.9,14.72l5.12-2.12c-3.48-4.34-5.78-11.87-4.52-17.36l-3.69,2.1c2.44.41,5.65,11.06,4.25,13.07l4.71-.6c-1.38-1.59-2.21-4.13-2.89-6.07-.33-.93-.51-2-.89-2.93a7.42,7.42,0,0,1-.27-1.75c-1.8-.05-2.28.25-1.47.88-.18.94,2,5,2.24,6.38.29,1.61,1,4.76.15,6.3l4.71-.6c-2.38-2.74-3-8.74-.89-11.7l-4.11,1.07c2.54,1.38,2.22,10.05,1.81,12.47h5.79c-.35-1.58-1.11-4.27.1-5.7l-3.64.47c.56.42.4,2.78.84,3.55q-.42,2.65,3.13.43a2.91,2.91,0,0,1-.23-1.69l-4.41,1.79c1.93.72,2.68.37,2.23-1l-4.71.61c.9-.65,1.83-.35,2.81.9.55-3.78-5.23-5.41-5.78-1.6-1.8,12.46,15.51,3,7.21-3.55-1.43-1.12-3.73-1.27-4.71.61-2,3.79.21,11.48,5.64,9.85,4.6-1.37,4.54-9.16.34-11-1.7-.72-3.9-.27-4.41,1.8-.88,3.63,2.1,12.21,7.06,8.37,4.06-3.15,1.42-11.69-2-14.25a3,3,0,0,0-3.64.47c-2.86,3.4-2.55,7.39-1.64,11.53.61,2.79,5.29,2.94,5.79,0,.9-5.34,1-16.21-4.57-19.24a3.09,3.09,0,0,0-4.1,1.08c-3.77,5.24-2.22,14.32,1.82,19a3,3,0,0,0,4.72-.61c3-5.29.51-21.3-7.06-21.92-10.13-.82-2.22,16.86.77,20.32,1.35,1.57,3.68.86,4.71-.61,3.51-5-1.36-20.78-7.83-21.89a3.05,3.05,0,0,0-3.69,2.1c-1.79,7.78,1.15,17.07,6.06,23.19,1.77,2.2,5,.21,5.12-2.12.35-5.48.95-14.95-3.66-19-1.31-1.14-3.85-1.27-4.71.61-2.52,5.55-2.87,14.17.63,19.43,1.25,1.89,5.09,2.06,5.48-.72.88-6.2.95-15.1-3.47-20.06a3,3,0,0,0-4.25,0c-4.49,4.37-3.24,14.36.29,18.93,1.48,1.91,4.39.58,5-1.33,1.94-5.9.94-15.65-3.29-20.4-1.61-1.81-4.31-.66-5,1.33-2.1,5.85-1.33,12.7,1.24,18.27,1.08,2.34,5,1.69,5.48-.72,1.43-6.42-.63-13.9-3.41-19.71a3,3,0,0,0-5.18,0c-2.92,5.74-1.41,13.23-.12,19.25.71,3.34,5.93,2.55,5.89-.8,0-4.13-.5-8.28-.89-12.39-.27-2.79-.52-5.77-2.08-8.17a3,3,0,0,0-5.49.72c-1.76,6.62-.83,13.79.54,20.41.69,3.33,5.95,2.55,5.89-.8-.07-4.33-.29-8.66-.51-13-.17-3.23-.33-6.72-2.13-9.51-1.15-1.77-4.12-2.11-5.18,0-3.54,7-2.08,15-1.21,22.52.43,3.73,6,4,6,0,.05-7.8.3-16.36-3.43-23.45-1.27-2.41-4.71-1.6-5.48.72-2,6.08.38,13.59.35,19.84h6c-.24-6.25-.12-12.52-1.82-18.59-.76-2.73-5.17-3-5.78,0-1.1,5.35.51,10.71-.51,16l5.89.8c-.07-5.2,1.29-12.8-2.66-16.94a3,3,0,0,0-5,1.32c-1.43,4.9-.76,9.89-.65,14.91.08,3.85,6,3.87,6,0,0-3.55-.39-7.09-.48-10.65-.07-2.6-.16-5.2-1.59-7.45a3,3,0,0,0-5.48.71c-1.91,5.33-1.15,10.76-1,16.3.11,3.85,5.91,3.87,6,0,.12-5.64.95-13-2.65-17.83a3.06,3.06,0,0,0-5.49.71c-1.92,4.85,1.48,9.32.22,14h5.78c-.81-4.72-1-9.82-3.56-14a3,3,0,0,0-5.59,1.51c0,3.92,1.06,7.95,0,11.8l5.49-.71c-1.11-2.46-.64-5.71-.55-8.32h-6c.13,2.88.73,5.73-.13,8.56l5-1.33c-.7-.83-1.48-6.07-.77-6.89,2.49-2.93-1.74-7.19-4.25-4.25Z"/><path d="M143.58,504.21c1.5-4.17,7.06-6.25,10.78-7.84,1.5-.64,1.81-2.82,1.08-4.1a3.09,3.09,0,0,0-4.11-1.08c-5.54,2.37-11.38,5.41-13.54,11.42-1.31,3.64,4.49,5.21,5.79,1.6Z"/><circle cx="122.21" cy="539.52" r="2.25"/><path d="M121.46,535.48c2.13-.26,5.09-.52,6.31,1.72,1.91,3.52-2.37,5.88-5.23,5.68a8,8,0,0,1-3.45-.72,2.69,2.69,0,0,1-1-2.76,4.58,4.58,0,0,1,3.76-4c1.89-.43,1.09-3.33-.79-2.9a7.52,7.52,0,0,0-5.92,7.87c.22,4.49,4.35,5.65,8.36,5.54,4.41-.13,8.17-3.65,7.53-8.21-.67-4.72-5.6-5.74-9.57-5.25C119.57,532.72,119.54,535.72,121.46,535.48Z"/><path d="M99,535.48c2.14-.26,5.1-.52,6.32,1.72,1.9,3.52-2.37,5.88-5.24,5.68a7.92,7.92,0,0,1-3.44-.72,2.69,2.69,0,0,1-1-2.76,4.57,4.57,0,0,1,3.76-4c1.88-.43,1.09-3.33-.8-2.9a7.52,7.52,0,0,0-5.91,7.87c.21,4.49,4.34,5.65,8.36,5.54,4.41-.13,8.17-3.65,7.52-8.21C107.91,533,103,532,99,532.48,97.11,532.72,97.09,535.72,99,535.48Z"/><circle cx="99.3" cy="539.52" r="2.25"/><path d="M120.26,525a3.12,3.12,0,0,0-2.37.64,2.4,2.4,0,0,0-.42,2.77c.74,1.29,2.61,1.28,3.89,1,1.71-.36,3.41-2.33,1.88-3.91a3.55,3.55,0,0,0-4.6-.13c-1,1-.27,2.45.8,3a2.59,2.59,0,0,0,3-.43,1.52,1.52,0,0,0-.66-2.51l-.19-.07a1.5,1.5,0,1,0-.8,2.89l.19.08-.66-2.51a1.22,1.22,0,0,1,.27-.15h.09s.25.12.13,0,.41.78.33.39l-.38,1.46c.1-.11.08-.1-.07,0s-.18.08-.07,0,.08,0-.06,0h.22c.07,0,.57,0,.25,0l.13,0c.17.05.15,0,0,0,.11.08.1,0,0-.07a.79.79,0,0,1-.19-.86c.25-.37.3-.48.16-.33s-.06.06,0,0c-.06,0-.38.2-.14.1,0,0-.53.14-.29.1s-.11,0-.16,0l-.41,0h-.37c-.31,0,.25.05-.06,0-.14,0-.14,0,0,0a.68.68,0,0,1,.43.37.7.7,0,0,1-.25,1c-.13.08-.38.05-.12.07h.57a1.5,1.5,0,0,0,0-3Z"/><path d="M103.64,525a3.1,3.1,0,0,0-2.36.64,2.38,2.38,0,0,0-.42,2.77c.73,1.29,2.6,1.28,3.88,1,1.72-.36,3.42-2.33,1.88-3.91a3.55,3.55,0,0,0-4.6-.13c-1,1-.27,2.45.8,3a2.61,2.61,0,0,0,3-.43,1.53,1.53,0,0,0-.66-2.51l-.2-.07a1.5,1.5,0,0,0-.8,2.89l.2.08-.66-2.51a.89.89,0,0,1,.27-.15H104s.25.12.14,0,.4.78.33.39l-.39,1.46c.11-.11.08-.1-.07,0s-.18.08-.07,0,.09,0,0,0h.22c.06,0,.57,0,.24,0l.13,0c.17.05.16,0,0,0,.12.08.11,0,0-.07a.8.8,0,0,1-.2-.86c.25-.37.31-.48.17-.33s-.06.06,0,0-.38.2-.14.1c0,0-.52.14-.29.1s-.11,0-.15,0l-.41,0h-.37c-.32,0,.25.05-.07,0-.13,0-.14,0,0,0a.71.71,0,0,1,.43.37.7.7,0,0,1-.25,1c-.13.08-.38.05-.12.07h.56a1.5,1.5,0,0,0,0-3Z"/><path d="M108.33,538c-.52,2.2-1.65,6.23.72,7.78s5.46-.08,5.13-2.87a1.55,1.55,0,0,0-1.1-1.45l-.09,0c-1.89-.38-2.69,2.51-.8,2.9l.09,0-1.1-1.45c0,.3,0,.72-.45.36a3.9,3.9,0,0,1,0-1.09,14.27,14.27,0,0,1,.53-3.38c.44-1.88-2.45-2.68-2.9-.8Z"/><path d="M100.3,551.82c7.32-1.8,15.91-1.3,23.4-1.3a1.5,1.5,0,0,0,0-3c-7.82,0-16.6-.46-24.2,1.4-1.87.47-1.08,3.36.8,2.9Z"/><path d="M81.69,560.3c0-6.15-.38-12.06-.76-18.16s0-12,3-17.48c6.17-11.07,21.48-14.59,33.15-14.56,2.71,0,5.72-.38,8.4,0,3.34.48,7.51,2.68,10.24,4.69,5.18,3.82,6.44,9.56,8.73,15.09s3.25,11.4,4.1,17.28c.78,5.34,2.19,8.23,6,12.27,2.66,2.8,6.9-1.44,4.24-4.25-3.1-3.26-3.74-5.43-4.47-9.62-.57-3.24-1.23-6.32-1.52-9.6-.33-3.65-2.25-6.36-3.37-9.75-.94-2.88-1.52-5.37-3.16-8-3.72-5.94-8-9.35-14.34-12.29-5.81-2.72-13.71-2.45-20-1.87-12.07,1.11-26.2,6-32.82,16.89a32.51,32.51,0,0,0-4.31,17.92c.21,7.18.9,14.2.87,21.41,0,3.86,6,3.87,6,0Z"/><path d="M76.1,559.55c-4,7.23-12.3,10-18.61,14.71-6.55,4.91-13.36,9.66-17.52,16.91-8.28,14.42-6.8,33.67-4.69,49.45,2.64,19.73,6.47,39.32,8.71,59.08,1,8.74,1.86,17.69,3.77,26.29A74,74,0,0,0,51,738c.9,2.17,1.58,5.67,3.45,7.15,2.17,1.7,5.56,1.62,8.12,2.05,3,.52,6.2,1.45,9.31.52a8.69,8.69,0,0,0,5.75-6c1.14-3.83-.18-5.6-2.19-8.6l-4.71,3.63c3.3,3,8.7,3.16,11.4-.84,3.29-4.88-1-8.88-4.37-12-2.82-2.63-7.07,1.6-4.24,4.24.7.65,1.46,1.26,2.14,1.94a5.8,5.8,0,0,1,1,1q1.65,1.35-1.65,1.42c-2.41-2.16-6.7.66-4.71,3.63,1.19,1.78,3,4.35,0,5.83-1.48.75-3.78-.15-5.23-.39a29.68,29.68,0,0,0-5.33-.78l-1.54-.45q.86,1.47.45-.09c-4.08-8.57-5.91-18.15-7-27.54-2.24-19.66-6-39-8.81-58.55-1.32-9.42-3.1-19.35-3-28.86.1-9.93,0-20.45,4.49-29.6,4.14-8.45,13.62-15,21.41-19.85,6-3.78,12-6.79,15.53-13.27,1.87-3.39-3.31-6.42-5.18-3Z"/><path class="cls-3" d="M65.77,606.67l-.63.07c-.72,2.47-.13,5.82-.13,8.4a114.76,114.76,0,0,0,1.14,16.15c.45,3.24.63,6.53,1.11,9.76.4,2.66,1.29,5.14,1.85,7.76,1.31,6.1,1.82,12.34,2.89,18.47.49,2.83,1.5,5.53,2,8.36s.71,5.6,1.1,8.38c.77,5.6,1.9,11.05,2.87,16.59.84,4.78,1.46,9.6,2.26,14.39.68,4.08,2,7.89,2.85,11.92,1.29,6.37,3,12.62,4.77,18.81,1.73,6,2.49,12.29,4.14,18.28,1.07,3.89,3.44,7.49,4.24,11.39.15.73-.07,1.48.11,2.24.25,1.06,1,2,1.22,3.08a35.78,35.78,0,0,1,.89,6.74,26.65,26.65,0,0,0,1.95,8.06,8.85,8.85,0,0,1,.36,3.48c0,1.48-.12,1.59-1.49,2.25-2.78,1.32-3.75,3.86-5.8,6.08s-4.38,3.93-3.28,7.48c3.21.53,6.28,1.39,9.6.71a57.43,57.43,0,0,1,12-1.35c1.94,0,4.19-.34,6.08.06a17.33,17.33,0,0,0,4.46.69c2.68,0,6.13.64,8.69-.07a17.49,17.49,0,0,0,.11-4.46,26.45,26.45,0,0,1,.6-5.18c.58-3.25.16-6.92.16-10.23,0-3.93,0-7.87,0-11.8,0-5-1.26-9.73-1.54-14.65a33,33,0,0,0-.36-5.7c-.39-1.72-.76-3.48-1.07-5.22-.52-2.89-.35-5.92-.89-8.81-1.31-7-1.57-14.25-3-21.28"/><path d="M65.77,603.67l-.63.07a3.08,3.08,0,0,0-2.89,2.2c-1.24,6.27-.33,13.64.27,20,.67,7.16,1.33,14.41,3.13,21.38,1.9,7.39,2.13,15.06,3.8,22.48s2.59,14.93,3.93,22.46c2.74,15.42,5.26,30.74,9.24,45.91,2,7.68,3.79,15.32,5.56,23a65.48,65.48,0,0,0,3.6,10.48c1.3,3.14,1.93,6.61,2.87,9.86,1.1,3.79.69,7.84,1.78,11.66.4,1.42,1.88,4.78,1.31,5.65-.12.18-2.33,1.4-2.89,2-4,4.05-8.75,8.78-7.58,14.81a2.89,2.89,0,0,0,2.1,2.09c3.18.57,6.32,1.25,9.55.93,4.34-.42,8.48-1.3,12.87-1.46,6.7-.25,13.32,1.82,20,.57,1.41-.26,2-1.65,2.2-2.89,1-7.18.9-14.58.87-21.84,0-3.89.16-7.81,0-11.7s-1.13-7.89-1.42-11.86A390,390,0,0,0,128,726.72c-.71-3.79-6.5-2.19-5.79,1.6,2.64,14.13,3.88,28.72,5.44,43s2.34,29.27.42,43.57l2.2-2.89c-6,1.11-12.36-1-18.43-.79-7.15.24-13.71,2-20.83.75l2.1,2.09c-.55-2.8,5.72-8.78,7.7-10.17s2.81-2.28,3-4.84c.29-4.38-1.95-8.86-2.41-13.23a85.22,85.22,0,0,0-2.22-11.17C98,770,95.56,766,94.39,761.4c-1.08-4.24-1.72-8.58-2.73-12.84-2.31-9.76-4.94-19.49-7.41-29.22-2.37-9.37-3.4-19.2-5.08-28.72-.79-4.42-1.32-8.86-1.93-13.31-.6-4.29-1.94-8.4-2.65-12.67-.82-4.92-1.26-9.9-2.21-14.79s-2.23-9.62-2.78-14.65-1.23-9.73-1.46-14.63c-.2-4.11-.91-9-.11-13l-2.89,2.2.63-.07c3.79-.44,3.83-6.45,0-6Z"/><path class="cls-3" d="M166.86,725.24c0,1.51-.1,3,0,4.56a9.91,9.91,0,0,0,.61,2.26c.34,1.33,0,2.66.32,4,.28,1.2.95,2.28,1.2,3.49.41,2,.4,4.22.74,6.28.64,3.91.89,7.86,1.7,11.74,1.39,6.63,2.89,13.32,3.74,20,.28,2.22-.09,4.38.45,6.54a20.37,20.37,0,0,1,.38,5.08c0,1.78,0,3.55,0,5.32,0,1.19.2,2.23-.41,3.26a16,16,0,0,1-2.61,2.65c-.92.9-1.94,1.47-2.91,2.27-1.2,1-1.17,1.6-1.84,2.89-1,2-3.92,3.1-2.85,5.83,1.42,3.62,8.22,1.7,11,1.08,5-1.1,9.85-.13,14.87-.62a39.37,39.37,0,0,0,6.4-1.47c.85-.24,2.29-.19,3-.81s.48-1.78.47-2.92a25.13,25.13,0,0,1,.59-5.68c.47-2.24.17-4.72.17-7a174.41,174.41,0,0,0-3.23-31.59c-1.17-6.46-1.72-13-2.68-19.51-1.13-7.7-1-15.51-2.28-23.22a42.64,42.64,0,0,1-.13-5.3c-.07-1.74-.73-3.37-.84-5.1-.26-4-.34-8.06-.79-12.1-.93-8.38-1.79-16.78-3.38-25.12a62.59,62.59,0,0,1-1.09-10.75c0-4.05-1.49-8-1.56-12-.13-6.94-1.53-13.72-2.85-20.54-.45-2.34-.09-4.77-.14-7.14,0-2-.72-3.85-.83-5.85a23.87,23.87,0,0,0-.33-4.17c-.27-1.18-.74-2.4-1-3.61-.29-1.46.12-2.93-.11-4.36a15.86,15.86,0,0,0-1.57-3.82,14.44,14.44,0,0,0-2.31-3.41c-.89-1-1.34-2.45-2.26-3.42"/><path d="M163.86,725.24a47.08,47.08,0,0,0,1.86,13.94c1.76,6.1,1.6,12.94,2.8,19.19,1.16,6.07,2.75,12.08,3.49,18.22.39,3.19.54,6.45.83,9.65.25,2.74,1.1,7.91-.15,10.41-.82,1.66-3.49,2.75-4.76,4s-2.16,3.1-3.27,4.67c-2.21,3.11-3.93,6.65-.3,9.67,2.77,2.32,6.84,1.7,10.1,1.08,5.9-1.12,11.67-.47,17.56-1.23,3.21-.42,10-1.05,11.64-4.49.75-1.58.34-3.38.42-5.07.16-3.21.82-6.24.78-9.48-.18-14.32-2.74-27.95-4.57-42.09-3.54-27.45-4.42-55.07-8.91-82.39-.64-3.94-.72-7.74-1.07-11.69-.31-3.47-1.19-6.84-1.47-10.31-.64-8-2.82-16.14-3.07-24.1-.1-3.24-.42-6.21-.75-9.43s-1.11-6.15-1.42-9.24c-.26-2.67-.21-4.54-1.38-7a50.43,50.43,0,0,0-5.17-8.06c-2.27-3.08-7.48-.09-5.18,3,1.31,1.78,2.73,3.72,3.91,5.6,1.6,2.55,1.58,5,1.93,7.89.64,5.15,2.06,10.17,2.12,15.41s1.16,10.21,2,15.45c1,6.44,1.42,13,2.29,19.44.74,5.51.88,11,1.84,16.53,1.19,6.78,2,13.62,2.7,20.46,1.3,12,2.31,24,3.17,36,1.74,24.22,8.74,48.21,6.37,72.55-.07.79.23,2.76-.1,3.41-.44.86.41-.16-1.27.28a37.21,37.21,0,0,1-9.34,1.52,88,88,0,0,0-14.61,1.18c-1.8.32-4.07,1.13-3.57-1.15.27-1.24,2.35-3.56,3.25-4.51,2.71-2.91,5.89-4,6.43-8.35.72-5.8-.39-12-.77-17.8-.42-6.35-2-12.74-3.33-19s-1.74-12.52-2.72-18.78c-.83-5.29-2.38-10-2.3-15.48.06-3.87-5.94-3.87-6,0Z"/><path d="M156.22,551.22h-.5v6a47.76,47.76,0,0,1,22.65,5.52c7,3.51,10.12,9.93,13.43,16.6,4,8.08,6.8,15.34,7,24.51.08,3.8.69,7.51.82,11.3s-.11,7.68.35,11.58c.44,3.73.12,7.42.54,11.14.54,4.65,1.42,9.18,1.32,13.88a66.17,66.17,0,0,0,.31,10.63c.59,4.35.12,8.73.79,13.06,1.2,7.7,1.21,15.81,1.21,23.63a117.75,117.75,0,0,1-.65,12.31c-.14,1.35.06,2.78-.16,4.11-.26,1.6-3.11,6.88-5,2.91-1.65-3.48-6.83-.44-5.18,3,2.18,4.6,7.31,5.25,11.53,2.84,5.35-3,4.67-10.09,5.29-15.33a90.27,90.27,0,0,0,.17-10.79c0-4,.39-8.27-.24-12.26-1.18-7.53-.67-15.25-1.62-22.83-1-8-.49-15.95-1.58-24-1.14-8.49-.46-17.19-1.17-25.7-.65-7.68-.31-15.91-2.62-23.35a91.2,91.2,0,0,0-8.46-19.3c-8.22-13.7-23.24-19.58-38.73-19.51-3.86,0-3.87,6,0,6h.5c3.86,0,3.86-6,0-6Z"/><path d="M110.36,554c-3.38-.41-5.21,2.9-4.4,5.88a4.29,4.29,0,0,0,2.63,3.06c1.72.56,3.33-.34,4.6-1.45l-2.36-.31c.86,1.4,2.08,2.83,3.84,2.93a4,4,0,0,0,3.26-1.49c1.38-1.57,2.55-5.23,0-6.39-1.74-.8-3.27,1.78-1.52,2.59.27.12,0-.17,0-.06a1.43,1.43,0,0,1,0,.39,3.14,3.14,0,0,1-.65,1.41c-1,1.15-1.72.12-2.34-.89a1.52,1.52,0,0,0-2.35-.31,2.27,2.27,0,0,1-1.48.78c-.46-.16-.67-.65-.78-1.23-.26-1.27.15-2.08,1.55-1.91,1.91.23,1.89-2.77,0-3Z"/><path class="cls-4" d="M83.8,602.54c-.55,10.66,2.56,21.64,4.21,32.11,1.89,12,3.24,24.05,5.81,36,.55,2.6,1.42,6.19,2.87,8.49,1.66,2.63,3.86,1.94,6.87,1.58,6-.74,12-.34,18-.63,7-.33,13.81-2,20.77-2.62a149.38,149.38,0,0,0,16.71-2.53c3.6-.75,5.14-.13,5.47-4,.87-10.37-.46-21.29-.6-31.7-.17-12-2.57-23.85-2.36-35.82,0-2,.69-6.94-.87-8.54s-7.58-1-9.64-1.3c-14.57-2-30-.83-44.39,1.71a90.76,90.76,0,0,0-17,4.91c-1.43.54-7.34,1.7-6,3.63"/><path d="M80.8,602.54c-.41,12.41,3.07,24.52,4.9,36.71,1.8,12,2.58,24.92,6.32,36.54,1.08,3.35,2.6,7.08,6.33,8.07,1.71.46,3.5,0,5.21-.15a102.85,102.85,0,0,1,10.82-.5c12.42-.1,24.93-2,37.19-3.89,3.71-.57,9.64-.68,13-2.63,3.72-2.15,3.19-7.65,3.26-11.31A339.92,339.92,0,0,0,166.2,627c-.56-6-1.28-11.91-1.52-17.89-.17-4.33,1.08-10.12-.57-14.26-1.19-3-3.88-3.69-6.82-4-4.78-.48-9.68-.8-14.47-1.08a143.73,143.73,0,0,0-41.34,3.55,155,155,0,0,0-15.69,4.94c-2.75,1-6.27,2.84-4.94,6.37s7.16,2,5.79-1.6c1,2.57-1.21.94.74,1a9.85,9.85,0,0,0,1.82-.56c1.57-.52,3.11-1.08,4.67-1.63a89.55,89.55,0,0,1,13.62-3.68,153.37,153.37,0,0,1,30.69-2.6c4.58.1,9.08.73,13.64,1.06,1.43.1,2.87,0,4.31.13,2.46.19,2.23.06,2.63,2.24.68,3.69-.2,8.18,0,12,.3,5.35.93,10.67,1.43,16,.93,9.95,1.14,20,1.52,30,.08,2.19.14,4.37.13,6.56,0,1.56.63,6.74-.36,7.86-.38.42-2.61.55-3.2.65-2.77.5-5.52,1.08-8.31,1.5-10.16,1.55-20.82,3.41-31.08,3.64-4.51.1-9-.06-13.53.35-1.19.1-4.09,1-5.25.55-2.08-.76-2.84-5.71-3.26-7.54-2.53-11.14-3.81-22.54-5.52-33.83s-4.92-22.59-4.54-34.16c.12-3.86-5.88-3.85-6,0Z"/><path d="M139.7,607.18c-4.54,7.89-10.14,14.89-15.55,22.18-2.35,3.16-5.49,7.28-5.29,11.48s3.71,6.24,6.71,8.39c1.41,1,3.22.13,4.1-1.07,6-8.24,12.33-16.27,18.33-24.52,2.55-3.51,6.79-8.08,5.85-12.84-.77-3.92-4.68-6.13-7.82-8a3.08,3.08,0,0,0-4.11,1.08c-1.14,1.64-2.24,3.32-3.33,5-2.12,3.25,3.07,6.26,5.18,3,1.09-1.68,2.19-3.35,3.33-5L143,608c1.27.75,3.9,1.81,4.56,3.21,1.07,2.24-1.42,4.67-2.6,6.38-3,4.3-6.24,8.35-9.47,12.45-3.86,4.89-7.32,10.07-11,15.1l4.11-1.08c-2.15-1.54-3.78-2-3.44-4.85.21-1.81,2.21-4.1,3.24-5.55,2.06-2.89,4.27-5.69,6.4-8.54a150.29,150.29,0,0,0,10.08-14.9c1.92-3.35-3.26-6.38-5.18-3Z"/><path d="M123.72,637.24l6.79,4.43c1.62,1.06,3.13-1.54,1.51-2.59l-6.79-4.43c-1.62-1.06-3.12,1.54-1.51,2.59Z"/><path d="M126.06,632.72l6.37,4.15c1.62,1.06,3.13-1.54,1.51-2.59l-6.36-4.15c-1.62-1.06-3.13,1.54-1.52,2.59Z"/><path d="M121.66,639.58c-10.08.66-14.78,10.67-16,19.57-.35,2.49,1.93,4.77,4.41,3.39,5-2.82,11.11-1.29,15.35-6a11.16,11.16,0,0,0,2.79-7c0-3.24-2.16-4.4-3.12-7.09-1.29-3.61-7.08-2.06-5.78,1.59.59,1.67,2,2.75,2.59,4.3,1.11,2.69-1.38,5.09-3.7,6-3.7,1.43-7.58,1.07-11.16,3.07l4.41,3.38c.81-5.72,3.21-14.7,10.25-15.16,3.83-.25,3.86-6.26,0-6Z"/><path d="M113.18,650.85c1.5.28,1.71,2.23.88,3.28a6.13,6.13,0,0,1-3.81,2.07l1.46,2.5c1.38-1.42,3-2.67,3.84-4.54s.07-2.75,0-4.47l-2.79.76c.72,1.33-1.73,4-2.47,4.95l2.74,1.15c.3-1.84,1.34-3.42,2-5.16s-2.22-2.58-2.89-.8a8.63,8.63,0,0,1-1.12,2.4l2.5,1.46a9.93,9.93,0,0,1,1.64-3.7l-2.74-1.16c0,.23-.09.45-.13.68-.3,1.89,2.59,2.7,2.9.8,0-.23.07-.45.12-.68a1.51,1.51,0,0,0-2.74-1.15,12,12,0,0,0-1.94,4.41c-.3,1.33,1.5,2.72,2.51,1.46a12.93,12.93,0,0,0,1.89-3.72l-2.89-.8c-.63,1.75-1.67,3.31-2,5.16a1.51,1.51,0,0,0,2.74,1.16c1.66-2.18,4-5.15,2.47-8a1.52,1.52,0,0,0-2.8.76c.08,1.09.74,2.26.3,3.28-.63,1.46-2.13,2.49-3.21,3.61a1.52,1.52,0,0,0,1.46,2.51c2.56-.39,5.58-2.31,6.35-4.9s-.76-5.73-3.42-6.23c-1.89-.36-2.7,2.54-.8,2.89Z"/><path d="M119.2,607.73c.35-3.65-.73-7.59-4.62-8.35-4.78-.92-7.51,3-8.26,7.18-3.65-1.07-7.79-.42-9.67,3.33-2,4,.23,6.8,3.45,8.3-2.39,2.95-3.37,7.3-1.72,10.56,3.57,7,10.93,3.06,14.38-1.84,3,1.92,6.65,3.05,8.72-.86a9.24,9.24,0,0,0,.91-5.29C126.77,618.3,125.15,608.24,119.2,607.73Z"/><path class="cls-3" d="M113.62,613.89c-1.86-1.28-5.15-.49-5.1,2.16a2.76,2.76,0,0,0,.4,1.39,2.65,2.65,0,0,0,.82,1,3.41,3.41,0,0,0,2.79.5A2.79,2.79,0,0,0,113.62,613.89Zm-2.73,2.2a1.76,1.76,0,0,0,.28.41.88.88,0,0,1-.28-.26A.75.75,0,0,1,110.89,616.09Z"/><path d="M154.66,648.74a4.41,4.41,0,0,0-4.53-1.59,3.78,3.78,0,0,0-2.68-2.53c-2.73-.63-3.72,1.46-4.41,3.55-1.91-2.55-6.71-1.88-9,.09-3.61,3.06-1.4,5.46,1.6,6.54-2.2,2-3.37,5.23-1,7.56a7.65,7.65,0,0,0,8,1.4c1.43,3.86,7.78,4.72,10.68,1.52,2.17-2.41,3-7.16,1-9.37A6.21,6.21,0,0,0,154.66,648.74Z"/><path class="cls-3" d="M147.37,655.08a1.54,1.54,0,0,0-1.55-1.41c-1.68-.09-3.3,2.53-1.47,3.5A2.12,2.12,0,0,0,147.37,655.08Z"/></g><path d="M113.79,449.4c-28.78-.94-57.47,12.69-78.51,31.7-21.7,19.61-32.84,49.4-35,78.16-2.17,29.26,7.35,58.19,27.52,79.63,17.31,18.4,40.85,30.82,65.42,36.25s50.49,4,73.5-6.42c22-10,39.72-27.9,50.35-49.48,17.38-35.26,15.49-75.78-.54-111.07-14.55-32-47.8-50.9-81.39-56.54a180,180,0,0,0-21.37-2.23c-3.86-.18-3.85,5.82,0,6,36.83,1.75,74.92,15.89,94.17,49.2,15.4,26.66,19.67,61.25,11.56,91.3-5.91,21.88-18.34,42-36.35,56-18.86,14.62-42.45,21.21-66.15,20.36C67,670.41,16.91,637.4,7.57,586.1,4.8,570.86,5.75,555.05,9.36,540c3.28-13.64,8.42-27.83,16.44-39.44,15-21.75,41.34-37.53,66.85-43.22a84.46,84.46,0,0,1,21.14-2C117.66,455.53,117.65,449.53,113.79,449.4Z"/><path d="M178.79,507.9c0,7.74-2,10.84-1.61,18.51,5.56-3.36,10.81-4.82,15.34-9.07,1.69,7.65,18.08,12.19,24.74,13.74,15.58,3.63,31.35-5,39.54-18.08,11.39-18.26,2.76-45.62-12.28-59.09-12.66-11.35-30.22-15.79-47-14.89-26,1.39-43.65,13.75-41.05,45.33.63,7.67,15.46,27.09,22.29,23.55"/><path d="M177.29,507.9c-.15,6.24-1.81,12.25-1.61,18.51a1.52,1.52,0,0,0,2.26,1.3c5.3-3.07,11-5.24,15.64-9.31l-2.51-.67c2.36,8.06,13.3,11.31,20.41,13.39,10.67,3.12,21.13,3,31.06-2.52,21.85-12.11,25.41-37.85,15.27-59.05-11.15-23.34-36.63-33.63-61.51-32-18,1.21-35.25,9.07-40.05,27.82-2.68,10.47-2.42,21,3.6,30.16,3.37,5.1,11.76,16.93,19.34,13.78,1.76-.73,1-3.63-.8-2.89-6.14,2.55-14-9.28-16.56-13.35-4.63-7.39-4.86-15.51-3.31-24,3-16.66,16.09-25.58,32.13-27.92,21.13-3.1,45.44,2.62,58.82,20.34,12.16,16.09,16.22,40.44,1.75,56.38-8.67,9.55-21.58,14.54-34.31,11.55-7-1.65-20.61-4.55-22.94-12.52a1.52,1.52,0,0,0-2.51-.66c-4.45,3.88-10,5.91-15,8.84l2.26,1.29c-.2-6.25,1.46-12.28,1.61-18.51.05-1.93-2.95-1.93-3,0Z"/><path class="cls-3" d="M194.58,480.79l-.91-1.43a55.6,55.6,0,0,1-4.89,8c.94-.19,1.88-.39,2.86-.65-.26-.73-.49-1.41-.75-2l1.9-.78a41.25,41.25,0,0,1,1.82,5l-2,.89c-.1-.42-.21-.78-.31-1.12a39.57,39.57,0,0,1-6.45,1.32l-.65-2.34a3.41,3.41,0,0,0,1.14-.72,22.5,22.5,0,0,0,2.66-3.93l-3.38.55-.65-2.37a2.4,2.4,0,0,0,1.09-1,46.91,46.91,0,0,0,2.65-6.42l2.47,1a36.31,36.31,0,0,1-3.25,6.24q1.17-.15,2.34-.39c.44-.88.91-1.82,1.4-2.83l1.8.7a17.43,17.43,0,0,0,6.68-4.68h2c1.38,1.82,3.74,3.43,7.1,4.81l-1.36,2.13a21.15,21.15,0,0,1-3.27-1.69v.94h-7v-.91A20.28,20.28,0,0,1,194.58,480.79ZM188,491.43a49.53,49.53,0,0,1-.59,6.21l-2.32-.73a29.69,29.69,0,0,0,.81-5.77Zm3.28,5.09-2.29.29c0-2.42-.1-4.29-.23-5.59l2-.26A47.2,47.2,0,0,1,191.28,496.52Zm3.38-1.35-2,.91q-.51-3-1.09-5.23l1.77-.72A44.57,44.57,0,0,1,194.66,495.17ZM207.53,481v7.36H194.71V481Zm-.7,17h-2.6v-1H198v1h-2.57v-8.76h11.36Zm-6.71-15.16H197v3.56h3.15Zm-.36,2.89-1.49.39a20.1,20.1,0,0,0-.91-2.37l1.46-.49A18.6,18.6,0,0,1,199.76,485.71Zm4.47,6.5v-1.1H198v1.1Zm0,2.88V494H198v1.14Zm-3.1-18.93a16,16,0,0,1-2,1.9h3.9A12,12,0,0,1,201.13,476.16Zm4.14,6.66h-3.12v3.56h3.12Zm-.42.86a11.24,11.24,0,0,1-.83,2.44l-1.46-.54a10.72,10.72,0,0,0,.81-2.32Z"/><path class="cls-3" d="M236.65,498h-2.49v-.94h-17v1h-2.49V474.79h21.94Zm-2.49-3.12V477.07h-17v17.84ZM231.3,478v4.19h-4.55l-.32.93h7v1.77H218v-1.77H224l.31-.93h-4.26V478Zm1.11,7.67V494H219v-8.35Zm-2.26,1.53h-8.89v5.21h8.89ZM229,479.54h-6.63v1.17H229Zm0,8.58v3.44h-6.51v-3.44Zm-1.9,1.12h-2.71v1.17h2.71Z"/><g class="cls-6"><path class="cls-3" d="M752.21,452.4c-38.52-1.66-80.74,27.25-94.26,52.67-17.64,33.19-23.37,73.15-6.32,107.78C676,662.41,743.85,687.34,795,669.58c62-21.52,85.68-95.84,59.5-154.51C854.49,515.07,837.18,456.05,752.21,452.4Z"/><circle cx="760.62" cy="539.52" r="2.25"/><path d="M759.87,535.48c2.13-.26,5.1-.52,6.32,1.72,1.9,3.52-2.37,5.88-5.24,5.68a7.92,7.92,0,0,1-3.44-.72,2.68,2.68,0,0,1-1-2.76,4.58,4.58,0,0,1,3.77-4c1.88-.43,1.08-3.33-.8-2.9a7.52,7.52,0,0,0-5.91,7.87c.21,4.49,4.34,5.65,8.36,5.54,4.4-.13,8.17-3.65,7.52-8.21-.67-4.72-5.6-5.74-9.57-5.25C758,532.72,758,535.72,759.87,535.48Z"/><path d="M737.42,535.48c2.13-.26,5.09-.52,6.31,1.72,1.91,3.52-2.36,5.88-5.23,5.68a7.89,7.89,0,0,1-3.44-.72,2.68,2.68,0,0,1-1-2.76,4.58,4.58,0,0,1,3.77-4c1.88-.43,1.08-3.33-.8-2.9a7.52,7.52,0,0,0-5.92,7.87c.22,4.49,4.35,5.65,8.36,5.54,4.41-.13,8.18-3.65,7.53-8.21-.67-4.72-5.6-5.74-9.57-5.25C735.53,532.72,735.5,535.72,737.42,535.48Z"/><circle cx="737.72" cy="539.52" r="2.25"/><path d="M758.67,525a3.1,3.1,0,0,0-2.36.64,2.38,2.38,0,0,0-.42,2.77c.73,1.29,2.6,1.28,3.88,1,1.72-.36,3.42-2.33,1.88-3.91a3.55,3.55,0,0,0-4.6-.13c-1,1-.27,2.45.8,3a2.61,2.61,0,0,0,3-.43,1.53,1.53,0,0,0-.66-2.51l-.2-.07a1.5,1.5,0,1,0-.8,2.89l.2.08-.66-2.51a.89.89,0,0,1,.27-.15h.08c.05,0,.25.12.14,0s.4.78.33.39l-.39,1.46c.1-.11.08-.1-.07,0s-.18.08-.07,0,.09,0,0,0h.22c.06,0,.57,0,.24,0l.13,0c.17.05.16,0,0,0,.12.08.11,0,0-.07a.8.8,0,0,1-.2-.86c.25-.37.31-.48.17-.33s-.06.06,0,0-.38.2-.14.1c-.05,0-.52.14-.29.1s-.11,0-.16,0l-.4,0h-.37c-.32,0,.25.05-.07,0-.13,0-.14,0,0,0a.71.71,0,0,1,.43.37.7.7,0,0,1-.25,1c-.13.08-.38.05-.12.07h.56a1.5,1.5,0,0,0,0-3Z"/><path d="M742.06,525a3.12,3.12,0,0,0-2.37.64,2.4,2.4,0,0,0-.42,2.77c.74,1.29,2.61,1.28,3.89,1,1.71-.36,3.41-2.33,1.87-3.91a3.53,3.53,0,0,0-4.59-.13c-1,1-.27,2.45.8,3a2.59,2.59,0,0,0,3-.43,1.52,1.52,0,0,0-.66-2.51l-.19-.07a1.5,1.5,0,1,0-.8,2.89l.19.08-.66-2.51a1.22,1.22,0,0,1,.27-.15h.09s.25.12.13,0,.41.78.33.39l-.38,1.46c.1-.11.08-.1-.07,0s-.18.08-.07,0,.08,0-.06,0h.22c.06,0,.57,0,.25,0l.13,0c.17.05.15,0,0,0,.11.08.1,0,0-.07a.79.79,0,0,1-.19-.86c.25-.37.3-.48.16-.33s-.06.06,0,0c-.06,0-.38.2-.14.1,0,0-.53.14-.29.1s-.11,0-.16,0l-.41,0h-.37c-.31,0,.25.05-.06,0-.14,0-.14,0,0,0a.68.68,0,0,1,.43.37.7.7,0,0,1-.25,1c-.13.08-.38.05-.12.07h.57a1.5,1.5,0,0,0,0-3Z"/><path d="M746.75,538c-.52,2.2-1.65,6.23.72,7.78s5.46-.08,5.12-2.87a1.53,1.53,0,0,0-1.1-1.45l-.09,0c-1.88-.38-2.69,2.51-.8,2.9l.1,0-1.11-1.45c0,.3,0,.72-.44.36a3.9,3.9,0,0,1,0-1.09,13.76,13.76,0,0,1,.52-3.38c.45-1.88-2.45-2.68-2.89-.8Z"/><path d="M738.71,551.82c7.33-1.8,15.91-1.3,23.41-1.3a1.5,1.5,0,0,0,0-3c-7.83,0-16.61-.46-24.2,1.4-1.88.47-1.08,3.36.79,2.9Z"/><path d="M720.1,560.3c0-6.15-.38-12.06-.76-18.16s0-12,3-17.48c6.18-11.07,21.48-14.59,33.15-14.56,2.71,0,5.72-.38,8.4,0,3.34.48,7.51,2.68,10.24,4.69,5.18,3.82,6.45,9.56,8.73,15.09s3.25,11.4,4.11,17.28c.77,5.34,2.18,8.23,6,12.27,2.66,2.8,6.9-1.44,4.24-4.25-3.09-3.26-3.74-5.43-4.47-9.62-.56-3.24-1.22-6.32-1.52-9.6-.33-3.65-2.25-6.36-3.36-9.75-.95-2.88-1.53-5.37-3.16-8-3.73-5.94-8-9.35-14.34-12.29-5.82-2.72-13.71-2.45-20-1.87-12.07,1.11-26.19,6-32.81,16.89a32.52,32.52,0,0,0-4.32,17.92c.21,7.18.9,14.2.87,21.41,0,3.86,6,3.87,6,0Z"/><path d="M714.51,559.55c-4,7.23-12.3,10-18.61,14.71-6.54,4.91-13.35,9.66-17.51,16.91-8.28,14.42-6.8,33.67-4.69,49.45,2.63,19.73,6.46,39.32,8.7,59.08,1,8.74,1.86,17.69,3.77,26.29.89,4,1.7,8.27,3.26,12,.89,2.17,1.58,5.67,3.45,7.15,2.17,1.7,5.56,1.62,8.11,2.05,3,.52,6.2,1.45,9.31.52a8.67,8.67,0,0,0,5.75-6c1.15-3.83-.18-5.6-2.18-8.6l-4.72,3.63c3.3,3,8.7,3.16,11.4-.84,3.29-4.88-1-8.88-4.36-12-2.83-2.63-7.08,1.6-4.25,4.24.71.65,1.46,1.26,2.14,1.94a5.86,5.86,0,0,1,1,1q1.65,1.35-1.65,1.42c-2.41-2.16-6.7.66-4.72,3.63,1.19,1.78,3,4.35,0,5.83-1.48.75-3.78-.15-5.23-.39a29.68,29.68,0,0,0-5.33-.78l-1.54-.45q.87,1.47.45-.09c-4.07-8.57-5.91-18.15-7-27.54-2.24-19.66-6.05-39-8.8-58.55-1.33-9.42-3.1-19.35-3-28.86.1-9.93,0-20.45,4.5-29.6,4.13-8.45,13.61-15,21.41-19.85,6-3.78,11.94-6.79,15.52-13.27,1.87-3.39-3.31-6.42-5.18-3Z"/><path class="cls-3" d="M704.18,606.67l-.63.07c-.71,2.47-.13,5.82-.13,8.4a116.27,116.27,0,0,0,1.14,16.15c.46,3.24.63,6.53,1.11,9.76.4,2.66,1.3,5.14,1.86,7.76,1.31,6.1,1.81,12.34,2.88,18.47.5,2.83,1.51,5.53,2,8.36s.72,5.6,1.1,8.38c.78,5.6,1.9,11.05,2.87,16.59.84,4.78,1.47,9.6,2.27,14.39.68,4.08,2,7.89,2.84,11.92,1.3,6.37,3,12.62,4.78,18.81,1.72,6,2.49,12.29,4.14,18.28,1.07,3.89,3.43,7.49,4.24,11.39.15.73-.07,1.48.11,2.24.25,1.06,1,2,1.22,3.08a35.78,35.78,0,0,1,.89,6.74,26.93,26.93,0,0,0,1.94,8.06,8.67,8.67,0,0,1,.37,3.48c0,1.48-.13,1.59-1.5,2.25-2.77,1.32-3.74,3.86-5.8,6.08s-4.38,3.93-3.28,7.48c3.22.53,6.28,1.39,9.6.71a57.58,57.58,0,0,1,12-1.35c1.95,0,4.19-.34,6.08.06a17.47,17.47,0,0,0,4.46.69c2.68,0,6.14.64,8.69-.07a17.49,17.49,0,0,0,.12-4.46,26.44,26.44,0,0,1,.59-5.18c.58-3.25.17-6.92.17-10.23v-11.8c0-5-1.27-9.73-1.55-14.65a33,33,0,0,0-.35-5.7c-.39-1.72-.76-3.48-1.08-5.22-.51-2.89-.35-5.92-.89-8.81-1.31-7-1.56-14.25-3-21.28"/><path d="M704.18,603.67l-.63.07a3.09,3.09,0,0,0-2.89,2.2c-1.24,6.27-.33,13.64.27,20,.68,7.16,1.34,14.41,3.13,21.38,1.9,7.39,2.13,15.06,3.81,22.48s2.59,14.93,3.92,22.46c2.75,15.42,5.27,30.74,9.24,45.91,2,7.68,3.8,15.32,5.57,23a64.51,64.51,0,0,0,3.6,10.48c1.29,3.14,1.92,6.61,2.86,9.86,1.1,3.79.69,7.84,1.78,11.66.41,1.42,1.89,4.78,1.31,5.65-.12.18-2.33,1.4-2.89,2-4,4.05-8.75,8.78-7.57,14.81a2.89,2.89,0,0,0,2.09,2.09c3.19.57,6.32,1.25,9.56.93,4.34-.42,8.48-1.3,12.86-1.46,6.7-.25,13.33,1.82,20,.57a3.05,3.05,0,0,0,2.2-2.89c1-7.18.9-14.58.88-21.84,0-3.89.15-7.81-.06-11.7s-1.13-7.89-1.42-11.86a390,390,0,0,0-5.47-42.73c-.71-3.79-6.49-2.19-5.78,1.6,2.64,14.13,3.87,28.72,5.43,43s2.34,29.27.42,43.57l2.21-2.89c-6,1.11-12.36-1-18.44-.79-7.14.24-13.7,2-20.82.75l2.09,2.09c-.54-2.8,5.72-8.78,7.7-10.17s2.82-2.28,3-4.84c.28-4.38-1.95-8.86-2.42-13.23a83.61,83.61,0,0,0-2.22-11.17c-1.13-4.56-3.55-8.63-4.71-13.2-1.08-4.24-1.73-8.58-2.74-12.84-2.31-9.76-4.94-19.49-7.4-29.22-2.37-9.37-3.4-19.2-5.09-28.72-.78-4.42-1.31-8.86-1.93-13.31-.59-4.29-1.94-8.4-2.65-12.67-.82-4.92-1.25-9.9-2.21-14.79s-2.23-9.62-2.78-14.65-1.23-9.73-1.46-14.63c-.19-4.11-.9-9-.1-13l-2.9,2.2.63-.07c3.79-.44,3.84-6.45,0-6Z"/><path class="cls-3" d="M805.27,725.24c0,1.51-.1,3,0,4.56a10.44,10.44,0,0,0,.6,2.26c.34,1.33,0,2.66.32,4,.28,1.2,1,2.28,1.2,3.49.42,2,.4,4.22.74,6.28.65,3.91.89,7.86,1.7,11.74,1.4,6.63,2.9,13.32,3.75,20,.28,2.22-.1,4.38.44,6.54a19.91,19.91,0,0,1,.38,5.08c0,1.78,0,3.55,0,5.32,0,1.19.21,2.23-.41,3.26a15.57,15.57,0,0,1-2.61,2.65c-.91.9-1.93,1.47-2.91,2.27-1.2,1-1.16,1.6-1.83,2.89-1,2-3.92,3.1-2.85,5.83,1.42,3.62,8.21,1.7,11,1.08,5-1.1,9.85-.13,14.86-.62a39.13,39.13,0,0,0,6.4-1.47c.86-.24,2.29-.19,3-.81s.49-1.78.47-2.92a25.14,25.14,0,0,1,.6-5.68c.46-2.24.17-4.72.17-7A175.31,175.31,0,0,0,837,762.44c-1.18-6.46-1.73-13-2.69-19.51-1.13-7.7-1-15.51-2.28-23.22a42.63,42.63,0,0,1-.12-5.3c-.07-1.74-.73-3.37-.85-5.1-.26-4-.34-8.06-.79-12.1-.93-8.38-1.78-16.78-3.37-25.12a60.66,60.66,0,0,1-1.09-10.75c0-4.05-1.49-8-1.57-12-.12-6.94-1.53-13.72-2.84-20.54-.46-2.34-.1-4.77-.15-7.14,0-2-.72-3.85-.83-5.85a22.08,22.08,0,0,0-.33-4.17c-.27-1.18-.74-2.4-1-3.61-.29-1.46.11-2.93-.12-4.36a15.46,15.46,0,0,0-1.57-3.82,14.44,14.44,0,0,0-2.31-3.41c-.89-1-1.33-2.45-2.26-3.42"/><path d="M802.27,725.24a47.08,47.08,0,0,0,1.86,13.94c1.76,6.1,1.6,12.94,2.8,19.19,1.17,6.07,2.75,12.08,3.5,18.22.39,3.19.53,6.45.83,9.65.25,2.74,1.09,7.91-.15,10.41-.83,1.66-3.49,2.75-4.77,4s-2.16,3.1-3.27,4.67c-2.2,3.11-3.92,6.65-.3,9.67,2.78,2.32,6.85,1.7,10.11,1.08,5.89-1.12,11.66-.47,17.55-1.23,3.22-.42,10-1.05,11.65-4.49.74-1.58.34-3.38.42-5.07.16-3.21.82-6.24.78-9.48-.19-14.32-2.75-27.95-4.57-42.09-3.55-27.45-4.42-55.07-8.91-82.39-.65-3.94-.72-7.74-1.08-11.69-.31-3.47-1.19-6.84-1.47-10.31-.64-8-2.81-16.14-3.07-24.1-.1-3.24-.41-6.21-.75-9.43s-1.1-6.15-1.41-9.24c-.27-2.67-.21-4.54-1.38-7a49.8,49.8,0,0,0-5.18-8.06c-2.26-3.08-7.47-.09-5.18,3,1.31,1.78,2.74,3.72,3.91,5.6,1.6,2.55,1.58,5,1.94,7.89.63,5.15,2,10.17,2.11,15.41s1.17,10.21,2,15.45c1,6.44,1.41,13,2.28,19.44.74,5.51.88,11,1.85,16.53,1.18,6.78,2,13.62,2.7,20.46,1.29,12,2.3,24,3.17,36,1.74,24.22,8.73,48.21,6.37,72.55-.08.79.23,2.76-.1,3.41-.44.86.41-.16-1.27.28a37.29,37.29,0,0,1-9.35,1.52,88.15,88.15,0,0,0-14.61,1.18c-1.79.32-4.07,1.13-3.57-1.15.27-1.24,2.36-3.56,3.25-4.51,2.71-2.91,5.9-4,6.44-8.35.72-5.8-.4-12-.78-17.8-.41-6.35-2-12.74-3.33-19s-1.74-12.52-2.72-18.78c-.82-5.29-2.38-10-2.3-15.48.06-3.87-5.94-3.87-6,0Z"/><path d="M794.63,551.22h-.5v6a47.77,47.77,0,0,1,22.66,5.52c7,3.51,10.12,9.93,13.42,16.6,4,8.08,6.8,15.34,7,24.51.09,3.8.69,7.51.83,11.3s-.12,7.68.34,11.58c.44,3.73.12,7.42.55,11.14.53,4.65,1.41,9.18,1.31,13.88a68.56,68.56,0,0,0,.31,10.63c.59,4.35.12,8.73.8,13.06,1.2,7.7,1.21,15.81,1.21,23.63a115.1,115.1,0,0,1-.66,12.31c-.14,1.35.06,2.78-.15,4.11-.27,1.6-3.12,6.88-5,2.91-1.66-3.48-6.83-.44-5.18,3,2.18,4.6,7.3,5.25,11.53,2.84,5.34-3,4.66-10.09,5.28-15.33a90.26,90.26,0,0,0,.18-10.79c0-4,.39-8.27-.24-12.26-1.19-7.53-.67-15.25-1.62-22.83-1-8-.5-15.95-1.58-24-1.15-8.49-.46-17.19-1.18-25.7-.65-7.68-.3-15.91-2.61-23.35a91.23,91.23,0,0,0-8.47-19.3c-8.22-13.7-23.24-19.58-38.73-19.51-3.86,0-3.87,6,0,6h.5c3.86,0,3.87-6,0-6Z"/><path d="M748.77,554c-3.37-.41-5.21,2.9-4.4,5.88a4.29,4.29,0,0,0,2.63,3.06c1.73.56,3.34-.34,4.6-1.45l-2.35-.31c.85,1.4,2.08,2.83,3.84,2.93a4,4,0,0,0,3.25-1.49c1.39-1.57,2.56-5.23,0-6.39-1.74-.8-3.27,1.78-1.51,2.59.27.12,0-.17,0-.06a2,2,0,0,1,0,.39,3.16,3.16,0,0,1-.66,1.41c-.95,1.15-1.71.12-2.33-.89a1.53,1.53,0,0,0-2.36-.31,3.1,3.1,0,0,1-1.08.7,3,3,0,0,1-.39.08c-.46-.16-.67-.65-.79-1.23-.25-1.27.15-2.08,1.55-1.91,1.92.23,1.9-2.77,0-3Z"/><path class="cls-4" d="M722.21,602.54c-.55,10.66,2.57,21.64,4.22,32.11,1.88,12,3.24,24.05,5.8,36,.56,2.6,1.42,6.19,2.87,8.49,1.67,2.63,3.87,1.94,6.88,1.58,6-.74,12-.34,18-.63,7-.33,13.81-2,20.77-2.62a149.2,149.2,0,0,0,16.72-2.53c3.6-.75,5.14-.13,5.46-4,.88-10.37-.45-21.29-.6-31.7-.16-12-2.56-23.85-2.35-35.82,0-2,.68-6.94-.88-8.54s-7.58-1-9.63-1.3c-14.57-2-30-.83-44.4,1.71a90.45,90.45,0,0,0-17,4.91c-1.43.54-7.35,1.7-6,3.63"/><path d="M719.21,602.54c-.41,12.41,3.08,24.52,4.9,36.71,1.8,12,2.59,24.92,6.33,36.54,1.08,3.35,2.6,7.08,6.32,8.07,1.72.46,3.5,0,5.22-.15a102.78,102.78,0,0,1,10.81-.5c12.42-.1,24.93-2,37.2-3.89,3.71-.57,9.63-.68,13-2.63,3.72-2.15,3.19-7.65,3.27-11.31A339.93,339.93,0,0,0,804.61,627c-.56-6-1.28-11.91-1.52-17.89-.17-4.33,1.08-10.12-.57-14.26-1.19-3-3.87-3.69-6.82-4-4.77-.48-9.68-.8-14.46-1.08a143.7,143.7,0,0,0-41.34,3.55,154.41,154.41,0,0,0-15.7,4.94c-2.75,1-6.26,2.84-4.93,6.37s7.15,2,5.78-1.6c1,2.57-1.21.94.75,1a9.76,9.76,0,0,0,1.81-.56c1.57-.52,3.12-1.08,4.68-1.63a88.93,88.93,0,0,1,13.62-3.68,153.27,153.27,0,0,1,30.68-2.6c4.59.1,9.08.73,13.65,1.06,1.43.1,2.87,0,4.3.13,2.46.19,2.24.06,2.64,2.24.68,3.69-.2,8.18,0,12,.29,5.35.92,10.67,1.42,16,.93,9.95,1.14,20,1.52,30,.08,2.19.15,4.37.14,6.56,0,1.56.63,6.74-.37,7.86-.38.42-2.6.55-3.19.65-2.78.5-5.53,1.08-8.32,1.5-10.16,1.55-20.82,3.41-31.08,3.64-4.51.1-9-.06-13.53.35-1.19.1-4.08,1-5.25.55-2.07-.76-2.84-5.71-3.25-7.54-2.54-11.14-3.82-22.54-5.52-33.83s-4.93-22.59-4.55-34.16c.13-3.86-5.87-3.85-6,0Z"/><path d="M730.31,638.37c1.45-4.43,3.48-10.75,6.42-14.34s10-6.77,13.93-2.82c6.54,6.53-1.9,17.45-4.07,23.88-.94,2.78,3.08,5.2,5,2.92.71-.83,3.1-4,4.38-3.47,1.1.5,1.23,4.09,1,5-.66,3.18-4.23,5.38-5.33,8.6-1.36,4-1.69,8.51-2.61,12.62-.55,2.47-2,6.58-.67,9l4.72-3.63-.21-.2c-2.75-2.72-7,1.52-4.24,4.24l.2.2c2.46,2.42,6.34-.65,4.72-3.63.18.34,1.21-4.11,1.27-4.36.36-1.65.82-3.28,1.14-4.94.57-2.94.57-6.08,2.09-8.72,2.36-4.1,5.3-6.06,4.9-11.28-.25-3.27-1.53-7.17-4.84-8.49-4.27-1.71-8.22,1.79-10.79,4.82l5,2.92c2.27-6.74,6.69-12.11,6.35-19.56-.24-5.09-2.15-10.18-7-12.44-5.38-2.5-11.9-.94-16.45,2.51-5.89,4.47-8.53,12.84-10.73,19.58-1.2,3.68,4.59,5.25,5.78,1.59Z"/><path d="M788.84,675.73c-.69-3.49-3.11-6.62-4.78-9.74-1.95-3.64-4-7.14-6.18-10.66S773.22,648,772,644c-.35-1.16-1.8-4,1-2.85,1,.42,2.09,3.07,2.7,4a3,3,0,0,0,5.18-3c-2.38-4.82-6.53-8.5-8.19-13.69-1.89-5.93-.79-11.06,5-14,9.68-5,18.9,11.88,21.46,19,1.29,3.61,7.09,2.05,5.79-1.59-3.8-10.61-15.35-29.48-29.11-23.19-6.12,2.79-10.27,7.94-10.06,14.84.27,9,6.22,14.12,9.93,21.66l5.18-3c-2.22-3.3-4.17-7.22-8.66-7.52-4.21-.28-6.94,3-6.83,7.07.14,5.58,4,11.4,6.82,16,1.79,3,3.63,5.85,5.28,8.88,1.75,3.18,4.82,7.25,5.52,10.82.74,3.78,6.53,2.18,5.79-1.6Z"/><circle cx="742.09" cy="636.08" r="2.25"/><path d="M735.78,632.84c-1.73,3.57-2.65,8.53,1.5,10.9s8.77-.11,10.39-4.2c.77-1.93,1.37-4.67.78-6.73s-1.88-2.6-3.66-3.29a7.45,7.45,0,0,0-9,3.32,1.5,1.5,0,0,0,2.59,1.51,4.75,4.75,0,0,1,4-2.37,4.26,4.26,0,0,1,2.87,1.2c.86,1.09.29,2.9,0,4.16-.62,2.68-3,5.11-5.88,4-3.12-1.18-2.05-4.74-1-7C739.21,632.62,736.62,631.1,735.78,632.84Z"/><circle cx="782.15" cy="630.69" r="2.25"/><path d="M785.87,629c1,2.09,2.11,5.27-.43,6.8-3,1.78-5.77-1.07-6.42-3.81-.24-1-.77-2.72-.34-3.73s1.89-1.49,2.85-1.59a4.67,4.67,0,0,1,4.34,2.33,1.5,1.5,0,0,0,2.59-1.51,7.5,7.5,0,0,0-8.7-3.45c-1.77.61-3.24,1.27-3.87,3.14-.74,2.14-.14,5,.67,7,1.59,4,6,6.36,10,4.36,4.48-2.21,3.65-7.35,1.86-11.06C787.62,625.71,785,627.23,785.87,629Z"/><path d="M754.6,537.25a9.14,9.14,0,0,0-3.43-1.84c-1.59-1-4.09-.73-5.82-.29a8.5,8.5,0,0,0-6.23,6.24c-2,7.41,6.42,9.71,11.94,7.94,2.44-.78,5-2.3,5.93-4.8C758,541.78,756.69,539,754.6,537.25Z"/></g><path d="M752.21,449.4c-28.79-.94-57.47,12.69-78.52,31.7-21.69,19.61-32.83,49.4-35,78.16-2.18,29.26,7.34,58.19,27.51,79.63,17.31,18.4,40.86,30.82,65.42,36.25s50.49,4,73.51-6.42c22-10,39.71-27.9,50.35-49.48C872.89,584,871,543.46,855,508.17c-14.54-32-47.8-50.9-81.38-56.54a180.41,180.41,0,0,0-21.37-2.23c-3.86-.18-3.85,5.82,0,6,36.82,1.75,74.92,15.89,94.16,49.2,15.41,26.66,19.67,61.25,11.56,91.3-5.9,21.88-18.34,42-36.34,56-18.87,14.62-42.46,21.21-66.16,20.36-50-1.81-100.1-34.82-109.45-86.12-2.77-15.24-1.81-31.05,1.79-46.06,3.28-13.64,8.43-27.83,16.44-39.44,15-21.75,41.35-37.53,66.86-43.22a84.38,84.38,0,0,1,21.14-2C756.07,455.53,756.07,449.53,752.21,449.4Z"/><path d="M817.21,507.9c0,7.74-2,10.84-1.62,18.51,5.57-3.36,10.81-4.82,15.35-9.07,1.69,7.65,18.07,12.19,24.73,13.74,15.59,3.63,31.36-5,39.55-18.08,11.38-18.26,2.75-45.62-12.28-59.09-12.66-11.35-30.23-15.79-47-14.89-26,1.39-43.65,13.75-41.05,45.33.63,7.67,15.47,27.09,22.3,23.55"/><path d="M815.71,507.9c-.16,6.24-1.81,12.25-1.62,18.51a1.52,1.52,0,0,0,2.26,1.3c5.3-3.07,11-5.24,15.65-9.31l-2.51-.67c2.36,8.06,13.3,11.31,20.4,13.39,10.67,3.12,21.13,3,31.07-2.52,21.85-12.11,25.4-37.85,15.27-59.05-11.16-23.34-36.64-33.63-61.52-32-18,1.21-35.25,9.07-40,27.82-2.68,10.47-2.42,21,3.6,30.16,3.36,5.1,11.76,16.93,19.34,13.78,1.75-.73,1-3.63-.8-2.89-6.15,2.55-14-9.28-16.56-13.35-4.64-7.39-4.87-15.51-3.32-24,3-16.66,16.09-25.58,32.13-27.92,21.13-3.1,45.45,2.62,58.83,20.34C900,477.62,904.1,502,889.63,517.91c-8.67,9.55-21.57,14.54-34.31,11.55-7-1.65-20.6-4.55-22.94-12.52a1.52,1.52,0,0,0-2.51-.66c-4.44,3.88-10,5.91-15,8.84l2.25,1.29c-.19-6.25,1.46-12.28,1.62-18.51,0-1.93-3-1.93-3,0Z"/><path class="cls-3" d="M836.22,484.82c-.39.52-.78,1-1.17,1.48l-1.64-2.05a22,22,0,0,0,4.22-10.32l2.52.47a37.72,37.72,0,0,1-.86,3.69h7.8v2.65h-1.71a22.27,22.27,0,0,1-3.23,11.15,19.09,19.09,0,0,0,5.33,4.09l-1.64,2.18a20.7,20.7,0,0,1-5.28-4.13,19.86,19.86,0,0,1-4.94,4l-1.32-2.1h-6.94v1.72h-2.58V486.38h3.43v-4.7h-4.39v-2.6h4.39v-4.79h2.63v4.79H835v2.6h-4.11v4.7h3.48v9.29A16.66,16.66,0,0,0,839,492,17.74,17.74,0,0,1,836.22,484.82Zm-4.5,8.64V488.8h-4.36v4.66Zm4.84-9.13,1.87-.55a15,15,0,0,0,2.08,5.9,20.18,20.18,0,0,0,2.32-8.94h-4.45A25.63,25.63,0,0,1,836.56,484.33Z"/><path class="cls-3" d="M862.72,478.61v-1.17h-9.88v-2.29h9.88v-1.27h2.7v1.27h9.88v2.29h-9.88v1.17h7.7v5.46h-7.7v1.19h8v3.38H876v2.16h-2.55v3.41h-8v1.2c0,1.66-.91,2.49-2.7,2.49h-3.2l-.57-2.55a26.06,26.06,0,0,0,2.86.19c.59,0,.91-.27.91-.79v-.54h-8.25v-2.13h8.25V490.8H852.13v-2.16h10.59v-1.3H854.5v-2.08h8.22v-1.19H855v-5.46Zm0,2h-5v1.48h5Zm7.69,0h-5v1.48h5Zm-5,8h5.46v-1.3h-5.46Zm0,2.16v1.28h5.46V490.8Z"/></svg>