<svg xmlns="http://www.w3.org/2000/svg" viewBox="0 0 157.23 137.71"><title>bubble-1</title><g id="圖層_1" data-name="圖層 1"><path d="M22.77,111.44C43,132.54,76.53,141.79,105,136s48.11-30.56,51.68-58.77-9.48-57.23-36-69.35C94.75-3.95,61.1-2.55,36.8,12.63A73.14,73.14,0,0,0,5.92,52.16c-5,15.4-6.9,35.65,7.79,46.36l-.61-4.71C7.62,98.43,2.66,103.11.14,110a3,3,0,0,0,2.09,3.69c7.48,1.76,15.24,0,22.23-2.83,3.52-1.45,2-7.26-1.6-5.78-5.92,2.44-12.64,4.33-19,2.83l2.09,3.69c2.11-5.74,6.89-9.71,11.43-13.53,1.61-1.36.81-3.67-.61-4.71-12.37-9-9-27.83-4.81-40.26A66.08,66.08,0,0,1,36.8,19.81C58.25,4.9,87.94,2.33,112.33,11c25.31,9,39.81,32.93,38.88,59.41-.88,25.26-16.16,50.22-40.94,58.09-27.83,8.85-63.08-.24-83.26-21.27-2.68-2.79-6.91,1.46-4.24,4.25Z"/><path d="M41.11,47.48c-.28-.68-.58-1.34-.92-2L42,45a22.59,22.59,0,0,1,.95,2.48h2.12V49.2H38.49V47.48Zm3.5,14.82H40.79v.92H39v-7h5.58Zm-.2-11.82v1.6h-5.2v-1.6Zm0,2.78v1.6h-5.2v-1.6ZM42.9,60.68V57.8H40.79v2.88Zm3.44,2.86L45,62.3A6,6,0,0,0,46.66,58v-4.3h8.86v8c0,1.14-.68,1.72-2,1.72h-2.2l-.44-1.64c.76,0,1.46.08,2.1.08.48,0,.72-.28.72-.8v-.7H48.12A7.58,7.58,0,0,1,46.34,63.54ZM52,45v1.18h4.32v1.54H52v1h3.66v1.5H52v1h4.86v1.58H45.18V51.28H50.1v-1H46.42v-1.5H50.1v-1H45.72V46.22H50.1V45ZM48.44,57.92a8.14,8.14,0,0,1-.06,1H53.7v-1.1H48.44Zm5.26-2.66H48.44v1.12H53.7Z"/><path d="M67.66,46.72c.08-.58.14-1.16.2-1.74l1.94.26c-.06.52-.12,1-.18,1.48h7.54V48.5H69.34c-.1.46-.2.9-.28,1.34H74.7V61.42h2.86v1.74H59.69V61.42h2.76V49.84H67.1c.1-.46.2-.9.28-1.34H60.07V46.72Zm5.16,6.18V51.52H64.33V52.9Zm0,2.82V54.4H64.33v1.32Zm0,2.84V57.22H64.33v1.34Zm0,2.86V60.08H64.33v1.34Z"/><path d="M81.13,63.34l-.42-1.84a13.52,13.52,0,0,0,1.52.1c.48,0,.74-.24.74-.68V56.58c-.74.28-1.48.56-2.24.8l-.48-1.9A25.09,25.09,0,0,0,83,54.66v-4.1H80.65V48.74H83V45.08h1.85v3.66h1.54v1.82H84.82v3.32c.51-.24,1-.5,1.52-.78V55l-1.52.74V61.4a1.72,1.72,0,0,1-1.93,1.94Zm11.49-9.76c-.16.46-.34.9-.52,1.32h6.62v1.84h-2A8,8,0,0,1,95,60.12c1.32.6,2.58,1.26,3.8,2l-1,1.5a38.16,38.16,0,0,0-4.14-2.2,17.19,17.19,0,0,1-6.2,2.18l-.73-1.7a20.06,20.06,0,0,0,4.89-1.4c-1.14-.5-2.36-1-3.66-1.54.5-.76.94-1.5,1.32-2.18H86.86V54.9h3.3c.24-.52.44-1,.62-1.54Zm1-6.88H98v1.72h-1.4a23.89,23.89,0,0,1-1.06,2.82H98.4v1.82H87.11V51.24h2.83a19.56,19.56,0,0,0-1-2.82H87.58V46.7h4.16a13,13,0,0,0-.68-1.5l2-.32C93.24,45.44,93.44,46,93.64,46.7Zm-2.5,10c-.28.48-.58,1-.9,1.42,1,.36,2,.76,3,1.2a6,6,0,0,0,1.62-2.62Zm3.66-8.32h-4a29.27,29.27,0,0,1,.92,2.82H93.8C94.16,50.32,94.5,49.38,94.8,48.42Z"/><path d="M104.41,49.7V48.32h-2.64V46.78h2.64V45.1h1.74v1.68h2.47v1.54h-2.47V49.7h2.33v8h-2.33v1.38h2.63v1.58h-2.63v2.82h-1.74V60.64h-2.74V59.06h2.74V57.68H102v-8Zm.18,3.28V51.1h-1.12V53Zm0,1.4h-1.12v1.9h1.12ZM106,53h1.12V51.1H106Zm1.12,1.4H106v1.9h1.12ZM113.32,46v-1h1.78v1h4.12V47.5H115.1v.86h3.68v6h-.44a26.36,26.36,0,0,1,1.52,2.22l-1.18.84c-.16-.32-.34-.62-.5-.9l-.66.06v1.34h2.14v1.58h-2.14v2.28c0,1.16-.54,1.76-1.62,1.76h-2l-.36-1.68c.6.06,1.18.1,1.74.1.34,0,.52-.2.52-.6V59.46h-4.92a14.07,14.07,0,0,1,2.46,1.6l-.9,1.4a11.61,11.61,0,0,0-2.66-1.88l.78-1.12h-1.22V57.88h6.46V56.66c-1.72.1-3.82.2-6.32.28l-.22-1.44,4.12-.1V54.32h-3.72v-6h3.68V47.5h-4.06V46Zm.12,4.68V49.6h-2.22v1.1Zm0,1.26h-2.22v1.12h2.22ZM115,50.7h2.2V49.6H115ZM117.2,52H115v1.12h2.2Zm-.46,2.36h-1.66v1l2.3-.12C117.16,54.9,116.94,54.6,116.74,54.32Z"/><path d="M47.84,86.14c-1.08.36-2.22.68-3.43,1v4.18a1.75,1.75,0,0,1-2,1.94H40.15l-.42-1.82a17.59,17.59,0,0,0,2,.12q.75,0,.75-.72V87.58c-1.2.26-2.42.5-3.7.7l-.26-1.9q2.07-.33,4-.72V82.08h-4V80.26h4V78.14c-1,.2-2,.36-3.08.52l-.4-1.8a27.52,27.52,0,0,0,7.45-1.76l.66,1.78c-.86.3-1.76.58-2.71.84v2.54h4.33q-.18-2.34-.18-5.16h1.92q0,2.94.18,5.16h6v1.82H50.82a19.54,19.54,0,0,0,.54,3.3c.08.38.18.72.28,1a17.55,17.55,0,0,0,2.26-3.54l1.64.86a19.12,19.12,0,0,1-3.2,4.74,9.42,9.42,0,0,0,.7,1.36c.6.9,1.06,1.36,1.38,1.36s.52-1,.78-3.12l1.68.88c-.5,2.84-1.24,4.28-2.2,4.28s-1.76-.6-2.7-1.78a8.35,8.35,0,0,1-1-1.66,16.15,16.15,0,0,1-4.64,2.74L45.26,90.9A14.52,14.52,0,0,0,50.18,88a20.65,20.65,0,0,1-.62-2.06,27.29,27.29,0,0,1-.66-3.82H44.41v3.14c1.21-.32,2.35-.66,3.43-1ZM56.3,78l-1.38,1.36A21.28,21.28,0,0,0,51.4,76.5l1.28-1.22A27,27,0,0,1,56.3,78Z"/><path d="M66.88,92.28H65.06v-1H61.89v1.62H60.07V78.36H62A19.38,19.38,0,0,0,62.78,75l1.9.26a16.21,16.21,0,0,1-.89,3.08h3.09Zm-1.82-8.44V80.16H61.89v3.68Zm0,5.64V85.54H61.89v3.94ZM76.9,91.14c-.2,1.44-1.16,2.16-2.86,2.16-.4,0-1.12,0-2.12-.1l-.46-1.74c.88,0,1.64.08,2.28.08a1.28,1.28,0,0,0,1.38-1.26c.12-1,.18-4.36.22-10.06h-5a18,18,0,0,1-2,3.3L67.22,82a17.55,17.55,0,0,0,2.72-7l1.88.24a23.22,23.22,0,0,1-.8,3.14H77.2Q77.2,88.73,76.9,91.14Zm-3.38-3.68L72,88.52a37.69,37.69,0,0,0-3.08-4.4l1.54-1A33.31,33.31,0,0,1,73.52,87.46Z"/><path d="M87,91.42h-1.8V90.16H82.87V91.9H81.05V76.44H87Zm-1.8-9.06v-4.2H82.87v4.2Zm0,6.06V84.08H82.87v4.34Zm9-13.24v1.88h4.58V78.8H94.16v1.88H98v1.76H88.42V80.68h3.9V78.8H87.64V77.06h4.68V75.18Zm.42,9.32V83.1h1.84v1.4h2.32v1.78H96.42v5c0,1.42-.68,2.14-2,2.14H92l-.4-1.8a21.31,21.31,0,0,0,2.2.14c.52,0,.8-.32.8-.94v-4.5H88V84.5Zm-2.34,5.3-1.5,1a25.07,25.07,0,0,0-2.44-3.12l1.48-.92A25.69,25.69,0,0,1,92.24,89.8Z"/><path d="M103.21,81.44v-.92c-.32.32-.62.62-.94.92L101.21,80a27,27,0,0,0,4.15-4.82h1.21a53.78,53.78,0,0,1,3.91,4.24l-1.2,1.3-.54-.7v1.44h-1.83v1.78h2.69V85h-2.69v5.44c1-.2,2-.4,3-.64v1.82c-2.45.6-5.05,1.12-7.81,1.52l-.48-1.9q1.77-.21,3.48-.48V85h-2.9v-1.8h2.9V81.44Zm1.24,8.48-1.46.36a32.7,32.7,0,0,0-.92-3.9l1.46-.46A40.22,40.22,0,0,1,104.45,89.92Zm4.09-10.18A36.52,36.52,0,0,0,106.11,77a24.68,24.68,0,0,1-2.18,2.76Zm1.34,6.34a20,20,0,0,1-1.06,3.44L107.37,89a18.4,18.4,0,0,0,1-3.32Zm5.66-10.94V81.2h3.88V83h-3.88v10.4h-1.92V83h-3.68V81.2h3.68V75.14Z"/></g></svg>