<?xml version="1.0" encoding="utf-8"?>
<!-- Generator: Adobe Illustrator 22.0.1, SVG Export Plug-In . SVG Version: 6.00 Build 0)  -->
<!DOCTYPE svg PUBLIC "-//W3C//DTD SVG 1.1//EN" "http://www.w3.org/Graphics/SVG/1.1/DTD/svg11.dtd">
<svg version="1.1" id="Layer_1" xmlns="http://www.w3.org/2000/svg" xmlns:xlink="http://www.w3.org/1999/xlink" x="0px" y="0px"
	 viewBox="0 0 443.9 145.6" style="enable-background:new 0 0 443.9 145.6;" xml:space="preserve">
<style type="text/css">
	.st0{fill:#D1CCC7;}
</style>
<title>love</title>
<circle cx="181.4" cy="97.3" r="4.4"/>
<path d="M178.6,88.9c4.6-0.6,10.9-0.8,13.4,4c4.2,7.9-4.7,13.6-11.5,13c-2.3-0.2-5.2-0.3-7.1-1.6c-2.3-1.4-2.9-3.8-2.7-6.5
	c0.4-4.7,3.9-8,8.3-9c1.9-0.4,1.1-3.3-0.8-2.9c-6.5,1.3-10.9,7.3-10.4,13.9c0.4,7.8,7.8,9.5,14.8,9.3c7.7-0.3,14.5-6.4,13.1-14.5
	c-1.4-8.3-10.2-9.6-17.1-8.8C176.7,86.1,176.6,89.1,178.6,88.9z"/>
<path d="M135.2,88.9c4.6-0.6,10.8-0.8,13.4,4c4.2,7.9-4.7,13.6-11.5,13c-2.3-0.2-5.2-0.3-7.1-1.6c-2.3-1.4-2.9-3.8-2.7-6.5
	c0.4-4.7,3.9-8,8.3-9c1.9-0.4,1.1-3.3-0.8-2.9c-6.5,1.3-10.9,7.3-10.4,13.9c0.4,7.8,7.8,9.5,14.8,9.3c7.7-0.3,14.5-6.4,13.1-14.5
	c-1.4-8.3-10.2-9.6-17.1-8.8C133.3,86.1,133.2,89.1,135.2,88.9z"/>
<circle cx="138.3" cy="97.3" r="4.4"/>
<path d="M175,72c-1.1,0.6-2.4,1.1-2.8,2.4c-0.4,1.3,0.2,2.8,1.4,3.5c1.9,1,4.7-0.6,6-1.9c1.6-1.5,2.8-4.8-0.1-5.7
	c-2-0.7-5.5,0.7-6.2,2.8c-0.6,1.7,1.2,2.8,2.8,2.7c1.5-0.1,2.8-1,3.3-2.5c0.2-0.8-0.3-1.6-1.1-1.8c-0.1,0-0.3-0.1-0.4-0.1h-0.4
	c-0.8,0-1.5,0.7-1.5,1.5c0,0.8,0.7,1.5,1.5,1.5h0.4l-1.4-1.9c0-0.1-0.2,0.2-0.3,0.2c-0.3,0.1-0.4-0.1-0.2,0.3l0.1,1.2
	c0-0.2,0-0.1,0.2-0.2c0.2-0.2,0.5-0.3,0.7-0.4c0.3-0.1,0.5-0.2,0.8-0.3c0.2,0,0.5,0,0.6-0.1s0.4,0.3-0.1-0.3c0-0.1,0-0.1-0.1,0.1
	c-0.2,0.4-0.5,0.7-0.8,1c-0.8,0.5-1.6,1-2.4,1.3c-0.1,0.1-0.2,0.1-0.1,0s0.2,0.1,0.2,0.1c0.8-0.2-0.6,0.2,0-0.1
	c-0.2,0.1,0.1-0.3,0,0c0.2-0.3,1.1-0.6,1.4-0.7C178.2,73.6,176.7,71.1,175,72L175,72z"/>
<path d="M145.5,71.5c-1.3-0.8-2.8-1.7-4.3-0.8c-1.2,0.7-1.8,2-1.4,3.4c0.6,1.9,3.4,3.2,5.2,3.5c2.1,0.3,5-0.5,4.3-3.2
	c-0.5-2.1-3.5-4.3-5.7-3.7c-1.6,0.4-1.6,2.4-0.9,3.6c0.8,1.3,2.4,2,3.9,1.7c0.8-0.2,1.3-1.1,1-1.9c-0.1-0.2-0.2-0.4-0.4-0.6
	l-0.3-0.3c-1.2-1.5-3.3,0.6-2.1,2.1l0.3,0.3l0.7-2.5c-0.1,0-0.3,0-0.4-0.2c-0.3-0.3-0.2-0.2-0.2-0.3l-1,1.1c0.3-0.1-0.1-0.1,0.3,0
	c0.2,0.1,0.5,0.2,0.7,0.3c0.4,0.3,0.7,0.5,1.1,0.8c0,0,0.2,0.3,0.1,0.3s0.2-0.6,0.3-0.5c-0.4,0-0.7,0.1-1.1,0.1
	c-0.8-0.2-1.5-0.5-2.2-1c-0.2-0.1-0.4-0.3-0.6-0.4s-0.5-0.4-0.2,0c0.1,0.2,0,0,0.3,0.1c0.4,0.2,0.7,0.4,1.1,0.6
	c0.7,0.4,1.6,0.2,2.1-0.5C146.5,72.8,146.3,71.9,145.5,71.5L145.5,71.5z"/>
<path d="M154.5,95.4c-0.7,2.6-1.1,5.4-1.1,8.1c0,2,0.1,4.1,1.9,5.3c3.5,2.3,8.3,0,7.8-4.3c0-0.7-0.5-1.3-1.1-1.4h-0.2
	c-1.9-0.4-2.7,2.5-0.8,2.9h0.2l-1.1-1.4c0.1,1.1-0.6,2-1.7,2.1c-0.3,0-0.7,0-1-0.1c-1.4-0.7-1.1-2.2-1.1-3.5
	c0.1-2.3,0.4-4.7,1.1-6.9C157.9,94.3,155,93.5,154.5,95.4L154.5,95.4z"/>
<path d="M137.3,120.5c6.1-1.5,12.5-1.2,18.8-1.9c8.9-0.9,17.9-0.7,26.8-0.7c0.8,0,1.5-0.7,1.5-1.5s-0.7-1.5-1.5-1.5
	c-8.7,0-17.5-0.3-26.2,0.6c-6.8,0.7-13.7,0.5-20.2,2.1C134.6,118.1,135.4,121,137.3,120.5z"/>
<path d="M97.6,142.7c0.1-8.1,1.4-16.1,1.3-24.2c-0.1-9.8-2.4-19.4-1.8-29.3c1.2-20,15.7-36.6,33.9-43.7c8.7-3.4,18.2-5.1,27.3-6.9
	c4.8-0.9,10.2-0.2,15-0.2c5,0,10.6-0.7,15.6,0.3s10,4.2,14.5,6.6c4.2,2.2,7.8,5.3,10.6,9.1c2.9,3.5,5.4,7.3,7.5,11.4
	c2.1,4.4,2.5,9.3,4.6,13.8c2.4,5.2,4.2,9.6,4.4,15.4c0.1,4.9,1.5,9.4,2.5,14.2c0.8,4.2,0.5,9,2.2,13c2.1,4.8,5.8,8.7,9.4,12.5
	c2.7,2.8,6.9-1.4,4.2-4.2c-3.7-3.8-8.1-8.1-8.8-13.6c-0.5-5-1.3-9.9-2.4-14.7c-1.2-4.8-0.7-9.7-1.8-14.5c-1.2-5-4.2-9.2-5.7-14
	c-1.3-4.3-2-8.3-4.2-12.2c-2.6-4.6-5.7-9-9.2-13.1c-5.7-6.9-15.6-11.8-23.9-14.6c-4.6-1.6-9.4-1.2-14.2-1.2c-5.6,0-11.2-0.2-16.9,0
	c-4.3,0.1-8.2,1.4-12.4,2.2c-5.9,1-11.8,2.5-17.5,4.3C113.6,45.1,98.8,59,93.4,77.6c-3.2,10.8-2.7,22.4-1.1,33.6
	c1.5,10.6-0.5,21-0.6,31.6C91.6,146.7,97.6,146.7,97.6,142.7L97.6,142.7z"/>
<path d="M157.1,127.4c-5.6-0.7-8.5,4.6-7.2,9.6c0.5,2.2,2,4.1,4.1,4.9c2.8,1,5.5-0.6,7.5-2.4l-2.4-0.3c2.7,4.4,7.5,7.1,11.5,2.5
	c2.1-2.4,4.3-8.3,0.3-10.1c-1.7-0.8-3.3,1.8-1.5,2.6s-0.1,4.4-0.9,5.4c-2.5,3.1-5.1,0.9-6.8-1.9c-0.4-0.7-1.4-0.9-2.1-0.5
	c-0.1,0.1-0.2,0.1-0.3,0.2c-2.7,2.4-5.9,2.5-6.7-1.5c-0.7-3.2,0.9-5.9,4.4-5.5C159,130.7,159,127.7,157.1,127.4L157.1,127.4z"/>
<path class="st0" d="M321.4,50.7c-0.8-9.4,9.8-16.8,19.2-12.7c7.9,3.4,9,13.3,7.7,20.9C347,67.6,323,86.9,323,86.9
	c-7.9-3.5-30.9-18-32.7-27.2c-1.9-9.8,4.1-17.5,13.6-19.8c3.9-0.8,7.9-0.4,11.5,1.3C319.5,43.2,319.8,46.8,321.4,50.7"/>
<path d="M324.4,50.7c-0.3-10,13.9-15.2,19.3-6.1c3.4,5.7,2.8,13.5-0.9,18.8c-5.8,8.2-14.1,15.2-21.9,21.5l3.6-0.5
	c-10.3-4.7-21.8-11.9-28.9-20.9c-4.2-5.4-3.2-13.2,2.2-17.4c0.1-0.1,0.3-0.2,0.4-0.3c3.5-2.6,7.9-3.7,12.2-3c5.4,1,6.3,4.2,8.1,8.7
	c1.4,3.6,7.2,2,5.8-1.6c-1.7-4.5-2.9-8.8-7.4-11.3c-4.5-2.2-9.6-2.7-14.4-1.4c-9,2.4-15.9,10.2-15.5,19.8
	c0.4,8.2,6.8,13.9,12.8,18.6c6.7,5.5,14,10.2,21.8,13.9c1.2,0.6,2.6,0.4,3.6-0.5c4.9-4,9.6-8.2,14.1-12.7
	c5.6-5.6,11.7-11.7,12.4-19.9c0.9-9.9-3.1-20.9-14.1-22.5c-10-1.5-19.4,6.5-19.1,16.7C318.5,54.5,324.5,54.5,324.4,50.7L324.4,50.7z
	"/>
<path d="M267.4,96.7c17.5,18.2,46.2,26.2,70.8,21.4s41.9-26.2,45.2-50.7S375.4,17.6,352.5,7c-22.8-10.6-52.5-9.2-73.7,4.4
	c-12.5,8.1-21.8,20.3-26.2,34.6c-4.2,13.4-5.5,30.4,7.1,39.7l-0.6-4.8c-4.8,4-9,8.1-11.3,14.1c-0.4,1.6,0.5,3.2,2.1,3.7c0,0,0,0,0,0
	c6.6,1.5,13.2,0.1,19.4-2.4c3.5-1.4,2-7.3-1.6-5.8c-5.1,2.1-10.7,3.7-16.2,2.4l2.1,3.7c1.8-4.9,5.9-8.2,9.7-11.5
	c1.6-1.4,0.8-3.7-0.6-4.7c-10.6-7.8-7.4-24.3-3.6-34.9c4.1-11.7,11.9-21.7,22.2-28.5c18.4-12.2,43.6-14,64.2-6.5
	c21.3,7.8,33.4,28.3,32.5,50.6c-0.8,21.6-13.9,42.9-35,49.6c-23.9,7.5-53.9-0.3-71.2-18.2C269,89.7,264.7,93.9,267.4,96.7
	L267.4,96.7z"/>
</svg>
