<svg xmlns="http://www.w3.org/2000/svg" viewBox="0 0 173.57 173.03"><defs><style>.cls-1{fill:#f3eee8;}</style></defs><title>nervous</title><g id="Layer_2" data-name="Layer 2"><g id="圖層_1" data-name="圖層 1"><path d="M124.46,85c.93,3-.64,5.3-3.35,6.37-1.31.51-1.87.55-2.74,1.68a1.51,1.51,0,0,0,.9,2.2c3.92.85,4.71,4.83,5.36,8.22.3,1.54,2.48,1.31,2.89,0,1-3.18,2.26-6.9,5.87-7.8,1.17-.29,1.56-2.2.36-2.74-4.17-1.89-4.8-5-6.24-8.85-.67-1.79-3.57-1-2.89.8,1.76,4.71,2.6,8.37,7.62,10.65l.36-2.74c-4.71,1.18-6.62,5.64-8,9.89h2.89c-.88-4.53-2.42-9.22-7.46-10.31l.9,2.2c.41-.53,2.27-.69,2.94-1.07a7.94,7.94,0,0,0,3.46-9.28c-.58-1.84-3.47-1.05-2.89.8Z"/><path class="cls-1" d="M87.52,3C116.38,1.79,148,23.45,158.15,42.5c13.22,24.87,17.51,54.81,4.74,80.76-18.28,37.14-69.11,55.82-107.43,42.51C9,149.65-8.75,94,10.87,50,10.87,50,23.84,5.77,87.52,3Z"/><path d="M87.52,6c20.91-.61,41.82,9.49,56.75,23.73s22.33,35.86,23.2,56A72.81,72.81,0,0,1,145.31,142c-12.77,12.26-29.44,20.2-46.77,23.48C80.86,168.84,62,167,46.06,158.41a75,75,0,0,1-33-36.37C2.58,98,4.41,69.68,15.42,46.66,28.54,19.24,58.68,7.44,87.52,6c3.84-.19,3.87-6.19,0-6C57.79,1.48,27.11,13.14,12,40.3a97.22,97.22,0,0,0-7.09,77c12.36,36.43,47,58.8,85.26,55.34,40.24-3.64,78-31.79,82.87-73.61,2.76-23.65-4.41-51.79-20.65-69.64C136.33,11.82,111.58-.68,87.52,0,83.66.14,83.65,6.14,87.52,6Z"/><circle cx="98.44" cy="94.44" r="3.81"/><path d="M97.57,83.82c5.76-.94,10.69.92,11.72,7.15,1.11,6.7-3.16,13.55-10.43,12.87-2.29-.21-5.81-.9-7.21-2.68s-1.39-5.25-1.22-7.54c.3-4.17,3-8.57,7.14-9.8,1.84-.55,1.06-3.45-.8-2.89C89.93,83,87.28,90,87.53,96.58c.13,3.51.61,6.19,3.75,8.29,2.67,1.79,7.05,2.43,10.21,2.06,8-.92,12-9.34,10.79-16.66-1.33-8.11-8.22-10.53-15.5-9.34C94.87,81.24,95.68,84.13,97.57,83.82Z"/><path d="M59.59,83.82c5.76-.94,10.69.92,11.72,7.15,1.11,6.7-3.16,13.55-10.43,12.87-2.29-.21-5.81-.9-7.21-2.68s-1.39-5.25-1.22-7.54c.3-4.17,3-8.57,7.14-9.8,1.84-.55,1.06-3.45-.8-2.89C51.95,83,49.3,90,49.55,96.58c.13,3.51.61,6.19,3.75,8.29,2.67,1.79,7.05,2.43,10.21,2.06,8-.92,12-9.34,10.79-16.66-1.33-8.11-8.22-10.53-15.5-9.34C56.89,81.24,57.7,84.13,59.59,83.82Z"/><circle cx="59.7" cy="94.44" r="3.81"/><path d="M96.49,71c-1.21-.75-2.53-1.54-3.94-.72a2.79,2.79,0,0,0-1.37,3.14c.53,1.77,3.15,3.06,4.86,3.31,2,.28,4.46-.68,3.82-3.12-.49-1.88-3.15-3.84-5.13-3.37-1.59.38-1.74,2.27-1,3.47a3.4,3.4,0,0,0,3.62,1.54A1.52,1.52,0,0,0,98,72.76l-.22-.28a1.51,1.51,0,0,0-2.12,0,1.54,1.54,0,0,0,0,2.12l.22.28.66-2.51s-.12-.1-.16-.12a.37.37,0,0,1-.18-.24q0,.61.1.15l-1,1q.35-.1-.09,0l.2,0c.16.12.43.18.61.29s.6.54.87.71a.18.18,0,0,1,.07.16s.33-.7.36-.62a3,3,0,0,1-.89,0A5.21,5.21,0,0,1,94.72,73a5.53,5.53,0,0,0-.68-.45q-.19.62,0,.34-.28.06,0,.14a5.79,5.79,0,0,0,.92.57c1.64,1,3.15-1.57,1.51-2.59Z"/><path d="M66.5,71c-1.11.16-2.21.27-2.94,1.24a2.93,2.93,0,0,0,.05,3.54c1.25,1.42,3.82.94,5.4.35,2.09-.79,4.4-3.58,1.86-5.35-1.62-1.13-5.05-.89-6.17.9-.88,1.41.52,2.87,1.86,3.19a3.35,3.35,0,0,0,3.57-1.3,1.51,1.51,0,0,0-.9-2.2l-.35-.07c-1.88-.4-2.69,2.49-.8,2.89l.35.07-.9-2.2c.16-.23.12-.19-.16-.09s-.14-.16,0,.21l-.15,1.16c-.1.16.47-.12.67-.15s1.24,0,1.25,0,0-.54-.11-.57-.25.24-.32.3a2.76,2.76,0,0,1-.93.46,14.7,14.7,0,0,1-2,.29L66,74c-.13-.19.1.19-.2.12a6.4,6.4,0,0,0,1.51-.26,1.51,1.51,0,0,0,1-1.85,1.54,1.54,0,0,0-1.85-1Z"/><path d="M76,92.06a28.56,28.56,0,0,0-1,7.14c0,1.81.08,3.73,1.76,4.84,3.15,2.09,7.58,0,7.11-4a1.55,1.55,0,0,0-1.1-1.45l-.16,0c-1.88-.39-2.69,2.5-.8,2.89l.16,0-1.1-1.45a1.48,1.48,0,0,1-2.07,1.61c-1.11-.52-.81-1.87-.81-2.85a25.1,25.1,0,0,1,.92-6c.44-1.88-2.45-2.68-2.89-.8Z"/><path d="M61.11,114.23c6.67-1.64,14.11-1.52,21-1.85,7.46-.35,16.58-1.59,23.59,1.73,1.74.82,3.26-1.77,1.51-2.59-6.49-3.07-15.19-3-22.22-2.47-8.1.62-16.85.36-24.69,2.29-1.87.46-1.08,3.35.8,2.89Z"/><path d="M122.83,90.6c-.4,3.84-1.3,19.19,5.84,17.95s3.47-14.72,2.22-18.94c-.55-1.85-3.45-1.06-2.89.8a39.07,39.07,0,0,1,1.51,7.35c.08.84.92,8.76-2.26,7.32-1.06-.48-1.43-6-1.52-6.92a37.83,37.83,0,0,1,.1-7.56c.2-1.92-2.8-1.9-3,0Z"/><path d="M26.21,143.85c.1-11.38,2.48-23,1.54-34.35-.76-9.19-2.83-18.79-.67-27.94,2.3-9.74,6.4-17.38,14.12-23.83C49.26,51,58.11,47.39,68.31,45.21c4.15-.89,8.57-2.25,12.78-2.66,5.26-.51,10.82,0,16.11,0,5.11,0,9.31,0,14.07,2.21,4,1.85,8.31,3.8,11.81,6.46,7.24,5.5,11.27,14.46,13.72,22.82,1.41,4.79,4.54,8.9,5.27,13.9.67,4.58.93,8.83,1.9,13.38s.63,9.71,2.3,14,5.24,8,8.42,11.34c2.67,2.8,6.91-1.45,4.24-4.24-4.19-4.38-7.11-7.87-7.62-14-.37-4.54-2-8.82-2.8-13.25-.89-4.84-.23-9.19-2.13-13.91-.78-1.95-1.77-3.79-2.62-5.7-1.26-2.8-1.63-5.75-2.57-8.63A46.92,46.92,0,0,0,126.74,46.5c-6.64-5.07-16-9.8-24.4-10-19.51-.36-41.58.39-58.44,11.66C36,53.46,28.93,59.88,25,68.65a55.88,55.88,0,0,0-4.62,26.12c.39,9,1.58,17.54,1.05,26.52-.44,7.51-1.2,15-1.26,22.56,0,3.86,6,3.87,6,0Z"/><path d="M78.4,119.94c-5-.61-7.65,4.19-6.45,8.65A6.25,6.25,0,0,0,75.67,133c2.54.85,4.93-.57,6.78-2.2l-2.36-.3c2.41,3.93,6.82,6.32,10.38,2.22,1.9-2.18,3.86-7.51.26-9.18-1.74-.8-3.27,1.78-1.51,2.59,1.46.67-.24,3.69-.87,4.47-2.12,2.62-4.25.68-5.66-1.61a1.52,1.52,0,0,0-2.36-.3c-2.25,2-4.86,2.13-5.56-1.23-.56-2.7.71-4.9,3.63-4.55,1.91.23,1.9-2.77,0-3Z"/><path d="M59.1,113.65c.39,2.42.19,6.27,3,7.14,1.43.44,2.67-.41,4-.74,3.52-.83,7.31-.73,10.91-.84,6.51-.2,13-.16,19.52-.28,4.26-.08,7.88-1,10.83-4.26a1.52,1.52,0,0,0-1.06-2.56l-.49,0c-1.93-.1-1.92,2.9,0,3l.49,0-1.06-2.56c-3.44,3.81-7.94,3.37-12.62,3.41-4.88,0-9.76.09-14.63.22a79.66,79.66,0,0,0-11.14.67c-1.43.24-3,1.3-4.25.3-.71-.58-.5-3.25-.67-4.3-.3-1.9-3.2-1.09-2.89.8Z"/><path d="M72.27,112c.3,1.72.28,3.63,1.15,5.19s3.53.18,2.59-1.51c-.7-1.25-.6-3.09-.85-4.48-.33-1.9-3.23-1.09-2.89.8Z"/><path d="M84.38,111.58a15.43,15.43,0,0,0,.55,4.73c.6,1.83,3.49,1,2.89-.8a12.67,12.67,0,0,1-.45-3.93,1.5,1.5,0,0,0-3,0Z"/><path d="M94.25,110.66a13,13,0,0,0-.54,5.59c.07,1.92,3.07,1.93,3,0,0-1.2-.33-3,.13-4.08a1.55,1.55,0,0,0-.54-2.05,1.51,1.51,0,0,0-2.05.54Z"/><path d="M104.92,109.94c4.28-1.66,8.88-4.61,9.44-9.56.22-1.92-2.78-1.9-3,0-.38,3.37-4.42,5.57-7.24,6.67-1.78.69-1,3.59.8,2.89Z"/><path d="M45.2,102.24c2.41,4.14,7,7.87,12,7.74,1.93-.05,1.93-3.05,0-3-3.93.1-7.55-3-9.43-6.25a1.5,1.5,0,0,0-2.59,1.51Z"/><path d="M134.48,121.43c-.07,4.58-1,14.49,6.75,12.62,6-1.45,2.45-9.66,2.74-13.65.14-1.93-2.86-1.92-3,0a25.05,25.05,0,0,0,.56,5.08c.19,1.38.84,4.34-.44,5.4-2.33,1.94-3.63-1.72-3.76-3.32-.16-2,.12-4.1.15-6.14a1.5,1.5,0,0,0-3,0Z"/></g></g></svg>