<svg xmlns="http://www.w3.org/2000/svg" viewBox="0 0 270.72 77.75"><defs><style>.cls-1{fill:#f3eee8;}</style></defs><title>工作區域 63</title><g id="圖層_1" data-name="圖層 1"><rect x="23.93" y="30.05" width="246.79" height="47.69" rx="22.15" ry="22.15"/><path class="cls-1" d="M83.05,59.31c0,.55-.26.82-.8.82h-.34c1.19.26,2.26.45,3.2.58.53.09.57.46.13,1.13l-.72.86A1.24,1.24,0,0,1,83.2,63a11.78,11.78,0,0,1-3.88-1.51,3.21,3.21,0,0,1-1.17-1.3H74.84a3.57,3.57,0,0,1-1.14,1.3,10.68,10.68,0,0,1-4,1.6,1.26,1.26,0,0,1-1.3-.52l-.89-1.06c-.24-.39.09-.62,1-.69a7.23,7.23,0,0,0,2.5-.63h-.3a.76.76,0,0,1-.82-.86v-7.2a.56.56,0,0,1,.43-.62l-.47-1.34a.11.11,0,0,1,0-.11l-2,.93c-.43.2-.72.17-.84-.09l-.78-1.57c-.16-.32,0-.58.52-.78L72,46.22c-.08-.15,0-.32.35-.52a13,13,0,0,0,2.61-2.85.61.61,0,0,1,.78-.39l1.73.37q.51.12.06,1h5.21a2.62,2.62,0,0,1,.93.17l1.27.5c.4.17.52.51.35,1a6.25,6.25,0,0,1-1.34,2,.75.75,0,0,1-.91.26L81.78,47c-.23-.21-.22-.47,0-.8H79.49a5,5,0,0,0,1.68,2.11,10.45,10.45,0,0,0,4.69,1.58q.63.09.09.87l-.84,1.27c-.12.19-.37.24-.76.15S83.4,52,83,51.83a1.19,1.19,0,0,1,.08.46ZM68.62,42.8c.95.38,1.94.82,3,1.34.46.23.6.51.41.85l-.73,1.25q-.37.45-1,.06c-.87-.46-1.85-.91-2.94-1.36-.55-.23-.74-.49-.56-.77l.75-1.24C67.71,42.65,68.08,42.6,68.62,42.8Zm4.82,5c.22.32,0,.63-.67.93l-2,.93a9.65,9.65,0,0,0,4.58-1.38,4.41,4.41,0,0,0,1.64-2H75.69c-.42.39-.89.79-1.41,1.21a.88.88,0,0,1-1,.06l0,0Zm-1,5.71v.43h8v-.43Zm0,2.07V56h8v-.41Zm0,2.14v.43h8v-.43Zm5.79-8.36a9.73,9.73,0,0,1-4.49,2.07h7.86A10.23,10.23,0,0,1,78.28,49.33Z"/><path class="cls-1" d="M92.29,48.2a.53.53,0,0,1-.6-.6V46.39a.53.53,0,0,1,.6-.6h6.87c.35,0,.52.2.52.6V47.6c0,.4-.17.6-.52.6Zm5.81-2.93H93.35c-.48,0-.71-.2-.71-.61v-1c0-.51.23-.77.71-.77H98.1c.48,0,.71.26.69.77v1C98.81,45.07,98.58,45.27,98.1,45.27Zm0,5.79H93.35c-.48,0-.71-.21-.71-.61V49.33c0-.48.23-.71.71-.69H98.1q.72,0,.69.6v1.21C98.81,50.85,98.58,51.06,98.1,51.06Zm0,2.93H93.26c-.42,0-.62-.2-.62-.6V52.27c0-.52.23-.78.71-.78H98.1q.72,0,.69.69v1.21Q98.82,54,98.1,54Zm.69,7.44c0,.8-.31,1.2-1,1.2H93.61c-.65,0-1-.4-1-1.2V55.64c0-.75.32-1.13,1-1.13h4.23c.64,0,1,.38,1,1.13ZM95.1,57.1V60h1.32V57.1Zm5.51-11.49c-.46,0-.69-.08-.69-.34V43.54c0-.35.2-.52.69-.52h8.12c.52,0,.78.24.78.71v12.4a12.83,12.83,0,0,0,.08,2.31c.06.59.23.8.52.63l.35-.45c.14-.18.34-.2.6-.09l1.13,1a1.09,1.09,0,0,1-.09,1.17c-1.53,1.9-2.59,2.57-3.2,2A3.92,3.92,0,0,1,107.43,60a23.09,23.09,0,0,1-.34-4V45.61h-2.51v4.75h1.64c.46,0,.7.22.7.65v1.34a.62.62,0,0,1-.7.69h-1.64q-.21,6.23-3.09,9.62a.55.55,0,0,1-.9.06l-1.21-1a.52.52,0,0,1,0-.85C101.08,59.11,102,56.5,102,53H99.74c-.4,0-.6-.21-.6-.64V51a.54.54,0,0,1,.6-.61H102V45.61Z"/><path class="cls-1" d="M118.23,44c0-.57.24-.86.73-.86H124c.65,0,1,.28,1,.84V59.5c0,1.37-.38,2.25-1,2.64l-1.88.73a.61.61,0,0,1-.82-.36l-.36-1.37c-.12-.37,0-.62.47-.75l.52-.2a.81.81,0,0,0,.6-.88V57.1h-1.81a12.67,12.67,0,0,1-1.21,4.76c-.35.66-.75.88-1.21.67l-1-.69a.73.73,0,0,1-.11-1.15,10.92,10.92,0,0,0,1-3.24c0-.71.06-1.48,0-2.33Zm2.46,1.84V48.7h1.81V45.85Zm0,5.77v2.74h1.81V51.62ZM135.9,43.3c.73,0,1.11.4,1.12,1.23v6.63c0,1.07-.37,1.6-1.12,1.6h-7.35v6.81c0,.34.22.52.61.54h4.66c.38,0,.67-.31.87-.89l.17-.62a.83.83,0,0,1,1-.61l1.29.35c.36.15.48.48.35,1L137.11,61a2.5,2.5,0,0,1-2.68,1.77h-6.92c-1.09,0-1.64-.57-1.64-1.77V44.62c0-.88.35-1.32,1-1.32Zm-7.35,6.63h1.73V46h-1.73Zm4.24,0h1.72V46h-1.72Z"/><path class="cls-1" d="M143.43,43.82c0-.56.24-.84.73-.84h4.54c.67,0,1,.27,1,.82V59.44a5.38,5.38,0,0,1-.21,1.65,1.58,1.58,0,0,1-.87.94,15.43,15.43,0,0,1-1.92.73q-.65.14-.84-.36l-.56-1.49c-.13-.48,0-.74.49-.78a5.23,5.23,0,0,0,1-.2c.21-.07.32-.29.32-.67V56.59h-1.19q-.41,3.93-1.25,5.18c-.43.63-.84.85-1.21.65l-1-.67c-.36-.27-.39-.65-.1-1.12a11.52,11.52,0,0,0,1-3.7c.05-.69.06-1.45.05-2.29Zm2.5,1.79v2.77h1.19V45.61Zm0,5.62v2.68h1.19V51.23Zm16.44,2.94q.69,0,.69.6v1.38a.61.61,0,0,1-.69.7h-4.75V62.2c0,.51-.19.76-.61.76h-1.53c-.32,0-.49-.22-.52-.71l0-5.4h-4.67c-.34,0-.51-.22-.51-.61V54.81c0-.44.17-.66.51-.64h4.67V51.66h-3.71c-.34,0-.51-.2-.52-.6V49.59c0-.41.18-.61.52-.61h3.71V43.45a.53.53,0,0,1,.61-.6H157c.46,0,.68.2.67.6V49h4.06c.35,0,.52.2.52.61v1.47c0,.4-.17.6-.52.6h-4.06v2.51Zm-9.14-5.84c-.13.26-.38.31-.77.13l-1.34-.54a.48.48,0,0,1-.33-.71,21.11,21.11,0,0,0,1.49-3.67c.09-.36.36-.46.82-.28l1.32.43c.29.1.39.32.3.67A22,22,0,0,1,153.23,48.33Zm7.28-.06a34.42,34.42,0,0,0-2.46-3.41.48.48,0,0,1,.11-.74l1.17-.93a.54.54,0,0,1,.86.07,14.48,14.48,0,0,1,2.38,3.32.58.58,0,0,1-.13.76l-1.15.86C160.9,48.45,160.64,48.47,160.51,48.27Z"/><path class="cls-1" d="M180.12,42.5c.35,0,.52.2.52.61v1.55h6.65c.35,0,.52.22.52.65v1.43a.45.45,0,0,1-.52.51H173.64v7.44A11.72,11.72,0,0,1,171,62.31c-.35.39-.66.48-.93.26l-1.26-1c-.4-.33-.38-.74.07-1.21A7.42,7.42,0,0,0,170.53,58a5.63,5.63,0,0,0,.34-2.07l-1.55.77c-.29.12-.49.09-.61-.08L168,55.12a.6.6,0,0,1,.26-.87L171,53V51.49l-.22.34c-.14.23-.33.23-.56,0l-2.16-2a.53.53,0,0,1,0-.78l.95-.87a.53.53,0,0,1,.78,0l1.21,1V45.35a.61.61,0,0,1,.69-.69h6.4V43.11a.53.53,0,0,1,.6-.61ZM186.51,51h-4.75v2.42h4.93c.34,0,.52.22.52.67v1.4c0,.41-.18.61-.52.61h-4.93V60h5.88c.4,0,.6.21.6.64v1.6c0,.35-.2.52-.6.52H173a.45.45,0,0,1-.51-.52V60.6c0-.43.17-.64.51-.64h2V53.3c0-.52.23-.77.69-.77h1.47c.35,0,.52.25.52.77V60h1.38V51h-4.32a.53.53,0,0,1-.6-.61V49c0-.45.2-.67.6-.67h11.75c.41,0,.61.22.61.67v1.4A.54.54,0,0,1,186.51,51Z"/><path class="cls-1" d="M198.69,42.67c.33,0,.5.21.5.61v3.11h1.55c.33,0,.5.21.5.63v1.36c0,.4-.14.6-.41.6h-1.64v1.21a24.7,24.7,0,0,0,2.37,3.2.49.49,0,0,1,0,.69l-.73,1.12c-.17.25-.34.34-.5.26a4.82,4.82,0,0,1-1.14-1.21v8c0,.35-.15.52-.44.52h-1.46c-.34,0-.5-.14-.5-.43V54.34a19.41,19.41,0,0,1-1.9,3.28.48.48,0,0,1-.74.09l-1.08-.86a.6.6,0,0,1-.15-.87,24.25,24.25,0,0,0,3.29-7h-2.06c-.33,0-.49-.21-.49-.62V47c0-.4.16-.6.49-.6h2.64V43.28c0-.4.19-.61.58-.61Zm.82,6.74A20.35,20.35,0,0,0,202,46.69a21.65,21.65,0,0,0,2.37-3.84.62.62,0,0,1,.61-.43h1.79a.5.5,0,0,1,.54.43,11.14,11.14,0,0,0,2.07,3.35,15.94,15.94,0,0,0,4.2,3.39c.53.27.7.56.49.86l-1,1.21c-.23.27-.43.36-.59.26l-.71-.43V56c0,.41-.18.61-.54.61H210a1.73,1.73,0,0,1,0,.56,4.71,4.71,0,0,1-.26,1.21,7.68,7.68,0,0,1,3.15,2.53.75.75,0,0,1-.1,1l-1.13.95c-.18.12-.41,0-.67-.24a28.6,28.6,0,0,0-2.07-2.07,7.88,7.88,0,0,1-1.77,2.29.62.62,0,0,1-.74,0l-1-.75c-.26-.23-.19-.56.22-1a7.4,7.4,0,0,0,1.49-2.26,7.7,7.7,0,0,0,.71-2.25h-.8c-.36,0-.54-.2-.54-.61v-4.6c0-.36.16-.54.47-.54h3.91c-.67-.46-1.33-1-2-1.47v.44a.39.39,0,0,1-.43.43h-5.32c-.2,0-.3-.12-.3-.35V49.5c-.49.51-1,1-1.43,1.38h3.76a.48.48,0,0,1,.54.54V56c0,.41-.18.61-.54.61h-1.12a1.94,1.94,0,0,1,0,.47,4.73,4.73,0,0,1-.15,1A7.64,7.64,0,0,1,205.75,60c.23.32.13.69-.3,1.12l-.82.78c-.19.17-.4.1-.65-.24s-.68-.92-1-1.29a13.59,13.59,0,0,1-2,2.46.5.5,0,0,1-.73,0l-1.23-.93c-.26-.2-.18-.52.26-1a9.6,9.6,0,0,0,1.7-2,6.54,6.54,0,0,0,.8-2.29H201c-.36,0-.54-.2-.54-.61V51.68c-.2.18-.63-.12-1.29-.88C198.83,50.36,198.93,49.9,199.51,49.41ZM202.69,53v1.36h.9V53Zm3.17-7.49a9.35,9.35,0,0,1-1.53,2.33h3.13A9.27,9.27,0,0,1,205.86,45.53ZM208.58,53v1.36h1.08V53Z"/><path class="cls-1" d="M219.59,48.61a.61.61,0,0,1,.78-.08L223,49.78a.52.52,0,0,1,.26.71l-.78,1.13a.59.59,0,0,1-.77.37L219,50.75c-.42-.18-.54-.45-.35-.8Zm1.47,6.55q.3-.69.69-.6l1.56.43c.2.11.26.41.17.88a51,51,0,0,1-2.07,6.59c-.12.38-.41.49-.87.35l-1.64-.69c-.32-.21-.35-.53-.09-1A32,32,0,0,0,221.06,55.16ZM221,43a.6.6,0,0,1,.78-.18l2.51,1.32a.56.56,0,0,1,.26.78l-.78,1.34c-.17.24-.46.27-.86.09L220.2,45a.46.46,0,0,1-.26-.7Zm10,.43c.7,0,1.05.3,1,.91V57.6c0,.65-.34,1-1,1a4.42,4.42,0,0,0,1.81,1.8c.49.18.52.56.09,1.12l-.61.89a.83.83,0,0,1-1.12.08,7.13,7.13,0,0,1-2.42-3.26c-.14-.37-.09-.58.17-.63h-1.21a.45.45,0,0,1,.35.63,6.89,6.89,0,0,1-2.51,3.26.85.85,0,0,1-1.08,0l-.75-1c-.28-.47-.24-.81.11-1a6.48,6.48,0,0,0,1.9-1.82c-.64,0-.95-.29-.95-.88V44.32a.83.83,0,0,1,.95-.91Zm-3.55,2.53v1.83h2V45.94Zm0,4.1v1.84h2V50Zm0,4.19V56h2V54.23Zm5.1,2.62V44.14c0-.28.2-.43.61-.43h1.27c.36,0,.54.15.54.43V56.85c0,.46-.17.69-.52.69h-1.29C232.75,57.54,232.55,57.31,232.55,56.85Zm3.55,1.9V43.28c0-.29.18-.43.56-.43h1.42c.35,0,.52.14.52.43V58.92c0,1.91-.63,3-1.9,3.37l-1.6.39a.74.74,0,0,1-.91-.61l-.34-1.21c-.17-.49-.09-.76.26-.82l1.38-.17C235.89,59.78,236.1,59.41,236.1,58.75Z"/><path class="cls-1" d="M6.25,43.23c2.32,4.57,5.61,12.54,9.7,16,1.53,1.31,2.11-.93,5.27-1.59,2.13-.44,5-2,7.14-3,5.47-2.58,10.06-5.57,15.55-7.9,3.57-1.52,24.46-11.27,28-12.93,1.2-.57,6.55-2.4,7.52-3.26,3.28-2.88,0-6.38-1.18-8.64C76,17.5,73.36,13.37,71.12,9c-.85-1.66-1.8-7.61-4.49-7.9S37.51,14,34.55,15.35c-3.42,1.54-13.89,7.36-16.37,8.4,0,0-17.57,8.34-17.06,9.85S6.25,43.23,6.25,43.23Z"/><path d="M5.28,43.79C7.54,48.26,9.47,53,12.45,57c.93,1.26,2.32,3.41,4,3.72s3.26-1.5,4.8-1.92c5.42-1.47,10.53-4.61,15.45-7.27,3.58-1.93,7.25-3.59,10.94-5.27,6.77-3.08,13.51-6.23,20.25-9.38,2.36-1.1,4.69-2.2,7.12-3.14,3.35-1.29,7.88-2.81,6.77-7.38-.54-2.25-2.14-4.26-3.22-6.29-1.53-2.9-3.22-5.71-4.81-8.58a37.18,37.18,0,0,1-2.68-6.15c-.55-1.61-1.2-3.49-2.55-4.62C66.83-.65,64.91.22,63.13.9,60.2,2,57.34,3.32,54.49,4.63,48.28,7.47,42.15,10.47,36,13.43c-5.79,2.79-11.38,5.95-17.15,8.78-4.63,2.26-9.29,4.45-13.77,7-1.4.81-4.63,2.16-5,4-.24,1,.69,2.29,1.13,3.14C2,38,2.93,39.59,3.84,41.22l1.44,2.57a1.12,1.12,0,0,0,1.93-1.13c-1.29-2.26-2.56-4.54-3.78-6.84-.31-.58-.61-1.16-.9-1.75-.06-.13-.16-.55-.29-.64s-.06.39-.06.39c.38,0,1.71-1.28,2.13-1.55A132,132,0,0,1,18.5,24.83c5.48-2.57,10.68-5.72,16.16-8.31,4.46-2.1,8.88-4.28,13.34-6.4C53.5,7.5,59,4.65,64.81,2.65a7.22,7.22,0,0,1,1.71-.47c1.42.28,2.07,2.82,2.46,4,1.5,4.51,4,8.45,6.3,12.6C76.52,21,77.86,23.18,79,25.43s.46,4-1.85,5.06c-2.48,1.11-5,2-7.51,3.13q-9.09,4.26-18.19,8.46c-2.47,1.13-4.93,2.28-7.41,3.37-4.53,2-8.8,4.42-13.19,6.69-2.48,1.29-5,2.6-7.57,3.67-2,.83-3.91,1.2-5.75,2.34-.89.56-1.05.18-1.79-.6a20.75,20.75,0,0,1-2.13-2.72A57.9,57.9,0,0,1,10,48.4c-.95-1.9-1.84-3.83-2.8-5.74C6.56,41.38,4.64,42.51,5.28,43.79Z"/><path class="cls-1" d="M11.34,42.06c1.68,3.29,4,9.07,7.12,11.49,1.17.9,1.73-.79,4.3-1.41a36.89,36.89,0,0,0,5.87-2.57C33.14,47.43,37,45,41.47,43c2.94-1.28,22.86-10.52,25.76-11.9,1-.47,5.37-2.06,6.19-2.74,2.76-2.28.25-4.73-.57-6.35-1.62-3.17-3.56-6.12-5.18-9.3-.6-1.19-1.12-5.56-3.26-5.66s-26.68,12-29.12,13.09c-2.81,1.29-11.48,6.05-13.52,6.93,0,0-14.48,6.93-14.14,8S11.34,42.06,11.34,42.06Z"/><path d="M10.38,42.63c1.84,3.67,3.37,7.77,6.27,10.78,1,1,2,1.84,3.35,1.3a11.63,11.63,0,0,0,1.45-.84A30.14,30.14,0,0,1,25,52.55c4.81-2,9.3-4.74,13.95-7.07,2.3-1.15,4.66-2.16,7-3.23q8.73-4,17.43-8.07c1.73-.8,3.44-1.67,5.2-2.39,2.54-1.05,6.78-1.94,7.21-5.23.24-1.82-.9-3.26-1.76-4.74-1.39-2.4-2.73-4.86-4.09-7.28A24.17,24.17,0,0,1,68,10c-.43-1.34-1-3-2.39-3.69s-3.05.15-4.4.69c-2.46,1-4.88,2.08-7.29,3.18-10,4.59-19.93,9.46-29.74,14.54-4.57,2.37-9.27,4.46-13.74,7-1.3.74-4.23,1.94-3.79,3.85a17.87,17.87,0,0,0,2.05,4c.57,1,1.14,2,1.73,3.05A1.11,1.11,0,0,0,12.3,41.5c-1.08-1.87-2.16-3.74-3.13-5.67a3.08,3.08,0,0,0-.37-.75c-.27-.21,0,.31-.21.5.19-.15.36-.33.56-.47a27.69,27.69,0,0,1,2.65-1.63c3.52-2,7.15-3.8,10.79-5.53,4.67-2.21,9.12-4.85,13.79-7,4.06-1.92,8.1-3.9,12.16-5.82,4.61-2.17,9.22-4.45,14-6.27a8,8,0,0,1,1.65-.56c.44-.05,0-.15.4.05.71.41,1,1.54,1.23,2.27C67,14.28,69.06,17.43,71,20.85c.77,1.4,2.17,3.08,2.52,4.65.49,2.17-2.49,2.92-4,3.53-1.71.69-3.38,1.42-5.06,2.21q-7.65,3.57-15.33,7.11c-6.25,2.88-12.38,5.85-18.5,9a64.34,64.34,0,0,1-7,3.33,27.22,27.22,0,0,0-2.91,1c-.65.33-1.21,1-1.81.75s-1.66-1.8-2.06-2.38a29.83,29.83,0,0,1-1.66-2.77c-1-1.91-1.9-3.89-2.88-5.83C11.66,40.22,9.74,41.34,10.38,42.63Z"/><path d="M22.31,36.43a3.51,3.51,0,0,1,1.86-3.73q2.46-1.19,4.12,1.36a2.71,2.71,0,0,1,.32,2.29,3.15,3.15,0,0,1,1.93,1.75,3,3,0,0,1-1.44,4.4,3.86,3.86,0,0,1-4-.27c-.25-.19-.35-.37-.29-.55l.37-1.07c.07-.13.17-.15.31,0a3,3,0,0,0,2.85.29,1.47,1.47,0,0,0,.71-2.06q-.7-1.26-2.25-.45c-.18.09-.33,0-.45-.26l-.4-.78a.41.41,0,0,1,0-.55c.95-.4,1.25-1,.91-1.86a1.28,1.28,0,0,0-.83-.75,1.63,1.63,0,0,0-1.06.21,2.39,2.39,0,0,0-1.08,2.49c0,.24-.14.35-.44.32l-.78-.11A.65.65,0,0,1,22.31,36.43Z"/><path d="M34.66,28.86c.28,0,.42.26.42.7a15,15,0,0,1-1.29,4.89.64.64,0,0,1-.62.31l-1-.35c-.28-.13-.36-.37-.23-.73a14.49,14.49,0,0,0,1.19-4.24c0-.28.17-.43.48-.47ZM38,24.29c.13-.06.3,0,.52.26a11.06,11.06,0,0,0,5.32,3c.4.11.58.32.53.65l-.31,1.07a.53.53,0,0,1-.59.23,13.92,13.92,0,0,1-5.82-3l-4,2.06a.37.37,0,0,1-.55-.18l-.45-.89c-.14-.27-.09-.47.16-.59Zm-3.11,7.84,6-3.05q.86-.43,1.38.66l1.87,3.68A2,2,0,0,1,43.82,36l-.93.86c-.23.2-.44.22-.62.06l-1-.72c-.22-.24-.11-.52.34-.84l.34-.23c.47-.29.61-.61.43-.94l-1.5-2.95-2.22,1.13q1.68,4-.34,6.71c-.23.32-.48.43-.76.33l-.79-.34a.5.5,0,0,1-.16-.79,5.07,5.07,0,0,0,.34-5l-1.19.61c-.31.16-.52.13-.63-.08l-.52-1C34.48,32.49,34.58,32.29,34.89,32.13Z"/><path d="M53,28.85c.16.18.15.45,0,.81q-1.36,1.55-3.35,3.4c-.26.22-.48.24-.67.08l-.82-.82c-.16-.19-.12-.38.11-.58l.72-.62c-.11.05-.24,0-.42-.18-.47-.51-.92-1-1.35-1.37A.44.44,0,0,1,47,29l.54-.73c.13-.13.29-.12.47,0a8.68,8.68,0,0,1,1.16,1.12l-.9-1.77-1.4.71c-.21.11-.37,0-.5-.22l-.42-.82q-.19-.37.12-.54l1.39-.71-.39-.77-.67.34c-.21.1-.38,0-.52-.26-.1.3-.27.43-.52.4l-1.07-.32c-.22-.14-.26-.36-.14-.65a10.3,10.3,0,0,0,.72-3.59.8.8,0,0,1,.22-.58l.83-.43a.7.7,0,0,1,.68.06,21.45,21.45,0,0,0,2,1.09c.31.13.46.27.46.42a4.65,4.65,0,0,1-.21,1c-.06.18-.15.27-.26.26l.42.83a.36.36,0,0,1-.18.54l-.36.19.39.78L50,24.75c.21-.11.38,0,.5.21l.42.83c.13.25.09.43-.12.53l-1.13.58.66,1.31-.2-1.28c0-.2.11-.32.34-.37l.6-.11a.43.43,0,0,1,.52.39l.2,1.54.13-.13c.19-.23.4-.21.62.07ZM46.56,22c-.06.57-.12,1.13-.19,1.68l1.7-.87A9,9,0,0,1,46.56,22Zm5-5c.24-.12.43,0,.58.25l.16.31,1.91-1c.21-.1.37,0,.5.21l.37.73a.3.3,0,0,1-.15.47l-.52.27.17.71,1.19-.61c.21-.1.37,0,.5.22l.37.72c.12.25.08.42-.13.53l-6.41,3.26a.36.36,0,0,1-.55-.18l-.37-.72a.36.36,0,0,1,.17-.56l1.09-.56-.48-.55-.36.18A.35.35,0,0,1,49,20.6l-.38-.74a.37.37,0,0,1,.18-.55l1.86-.94-.15-.31a.42.42,0,0,1,.19-.64ZM49.58,30.24l-.53.75.62-.58Zm8.71-6.19q.24.48-.12.66l-1.86.95.13.26,2-1c.2-.11.37,0,.5.23l.39.76a.3.3,0,0,1-.15.47l-2,1,.16.31,2.33-1.18c.24-.12.43-.05.57.22l.34.68a.36.36,0,0,1-.17.56l-6.36,3.24a.37.37,0,0,1-.56-.19l-.34-.69c-.14-.26-.09-.46.15-.58l2.59-1.32-.16-.31-2,1c-.24.12-.41.08-.52-.13l-.38-.76a.36.36,0,0,1,.16-.57l2-1-.13-.26-1.76.9a.48.48,0,0,1-.71-.25L50.63,23.6c-.16-.31-.12-.53.13-.65l5.17-2.63c.24-.13.44,0,.6.28ZM50.77,29l.15.31.39-.4Zm.81-9.29.47.55.83-.42-.16-.71Zm.82,3.8.29.57.78-.4-.29-.57Zm.88,1.72.24.48.78-.4-.25-.48Zm1.35-2.86.29.57.72-.37L55.35,22Zm.87,1.72.25.48.72-.37-.24-.47Z"/><path class="cls-1" d="M83.05,59.31c0,.55-.26.82-.8.82h-.34c1.19.26,2.26.45,3.2.58.53.09.57.46.13,1.13l-.72.86A1.24,1.24,0,0,1,83.2,63a11.78,11.78,0,0,1-3.88-1.51,3.21,3.21,0,0,1-1.17-1.3H74.84a3.57,3.57,0,0,1-1.14,1.3,10.68,10.68,0,0,1-4,1.6,1.26,1.26,0,0,1-1.3-.52l-.89-1.06c-.24-.39.09-.62,1-.69a7.23,7.23,0,0,0,2.5-.63h-.3a.76.76,0,0,1-.82-.86v-7.2a.56.56,0,0,1,.43-.62l-.47-1.34a.11.11,0,0,1,0-.11l-2,.93c-.43.2-.72.17-.84-.09l-.78-1.57c-.16-.32,0-.58.52-.78L72,46.22c-.08-.15,0-.32.35-.52a13,13,0,0,0,2.61-2.85.61.61,0,0,1,.78-.39l1.73.37q.51.12.06,1h5.21a2.62,2.62,0,0,1,.93.17l1.27.5c.4.17.52.51.35,1a6.25,6.25,0,0,1-1.34,2,.75.75,0,0,1-.91.26L81.78,47c-.23-.21-.22-.47,0-.8H79.49a5,5,0,0,0,1.68,2.11,10.45,10.45,0,0,0,4.69,1.58q.63.09.09.87l-.84,1.27c-.12.19-.37.24-.76.15S83.4,52,83,51.83a1.19,1.19,0,0,1,.08.46ZM68.62,42.8c.95.38,1.94.82,3,1.34.46.23.6.51.41.85l-.73,1.25q-.37.45-1,.06c-.87-.46-1.85-.91-2.94-1.36-.55-.23-.74-.49-.56-.77l.75-1.24C67.71,42.65,68.08,42.6,68.62,42.8Zm4.82,5c.22.32,0,.63-.67.93l-2,.93a9.65,9.65,0,0,0,4.58-1.38,4.41,4.41,0,0,0,1.64-2H75.69c-.42.39-.89.79-1.41,1.21a.88.88,0,0,1-1,.06l0,0Zm-1,5.71v.43h8v-.43Zm0,2.07V56h8v-.41Zm0,2.14v.43h8v-.43Zm5.79-8.36a9.73,9.73,0,0,1-4.49,2.07h7.86A10.23,10.23,0,0,1,78.28,49.33Z"/><path class="cls-1" d="M92.29,48.2a.53.53,0,0,1-.6-.6V46.39a.53.53,0,0,1,.6-.6h6.87c.35,0,.52.2.52.6V47.6c0,.4-.17.6-.52.6Zm5.81-2.93H93.35c-.48,0-.71-.2-.71-.61v-1c0-.51.23-.77.71-.77H98.1c.48,0,.71.26.69.77v1C98.81,45.07,98.58,45.27,98.1,45.27Zm0,5.79H93.35c-.48,0-.71-.21-.71-.61V49.33c0-.48.23-.71.71-.69H98.1q.72,0,.69.6v1.21C98.81,50.85,98.58,51.06,98.1,51.06Zm0,2.93H93.26c-.42,0-.62-.2-.62-.6V52.27c0-.52.23-.78.71-.78H98.1q.72,0,.69.69v1.21Q98.82,54,98.1,54Zm.69,7.44c0,.8-.31,1.2-1,1.2H93.61c-.65,0-1-.4-1-1.2V55.64c0-.75.32-1.13,1-1.13h4.23c.64,0,1,.38,1,1.13ZM95.1,57.1V60h1.32V57.1Zm5.51-11.49c-.46,0-.69-.08-.69-.34V43.54c0-.35.2-.52.69-.52h8.12c.52,0,.78.24.78.71v12.4a12.83,12.83,0,0,0,.08,2.31c.06.59.23.8.52.63l.35-.45c.14-.18.34-.2.6-.09l1.13,1a1.09,1.09,0,0,1-.09,1.17c-1.53,1.9-2.59,2.57-3.2,2A3.92,3.92,0,0,1,107.43,60a23.09,23.09,0,0,1-.34-4V45.61h-2.51v4.75h1.64c.46,0,.7.22.7.65v1.34a.62.62,0,0,1-.7.69h-1.64q-.21,6.23-3.09,9.62a.55.55,0,0,1-.9.06l-1.21-1a.52.52,0,0,1,0-.85C101.08,59.11,102,56.5,102,53H99.74c-.4,0-.6-.21-.6-.64V51a.54.54,0,0,1,.6-.61H102V45.61Z"/><path class="cls-1" d="M118.23,44c0-.57.24-.86.73-.86H124c.65,0,1,.28,1,.84V59.5c0,1.37-.38,2.25-1,2.64l-1.88.73a.61.61,0,0,1-.82-.36l-.36-1.37c-.12-.37,0-.62.47-.75l.52-.2a.81.81,0,0,0,.6-.88V57.1h-1.81a12.67,12.67,0,0,1-1.21,4.76c-.35.66-.75.88-1.21.67l-1-.69a.73.73,0,0,1-.11-1.15,10.92,10.92,0,0,0,1-3.24c0-.71.06-1.48,0-2.33Zm2.46,1.84V48.7h1.81V45.85Zm0,5.77v2.74h1.81V51.62ZM135.9,43.3c.73,0,1.11.4,1.12,1.23v6.63c0,1.07-.37,1.6-1.12,1.6h-7.35v6.81c0,.34.22.52.61.54h4.66c.38,0,.67-.31.87-.89l.17-.62a.83.83,0,0,1,1-.61l1.29.35c.36.15.48.48.35,1L137.11,61a2.5,2.5,0,0,1-2.68,1.77h-6.92c-1.09,0-1.64-.57-1.64-1.77V44.62c0-.88.35-1.32,1-1.32Zm-7.35,6.63h1.73V46h-1.73Zm4.24,0h1.72V46h-1.72Z"/><path class="cls-1" d="M143.43,43.82c0-.56.24-.84.73-.84h4.54c.67,0,1,.27,1,.82V59.44a5.38,5.38,0,0,1-.21,1.65,1.58,1.58,0,0,1-.87.94,15.43,15.43,0,0,1-1.92.73q-.65.14-.84-.36l-.56-1.49c-.13-.48,0-.74.49-.78a5.23,5.23,0,0,0,1-.2c.21-.07.32-.29.32-.67V56.59h-1.19q-.41,3.93-1.25,5.18c-.43.63-.84.85-1.21.65l-1-.67c-.36-.27-.39-.65-.1-1.12a11.52,11.52,0,0,0,1-3.7c.05-.69.06-1.45.05-2.29Zm2.5,1.79v2.77h1.19V45.61Zm0,5.62v2.68h1.19V51.23Zm16.44,2.94q.69,0,.69.6v1.38a.61.61,0,0,1-.69.7h-4.75V62.2c0,.51-.19.76-.61.76h-1.53c-.32,0-.49-.22-.52-.71l0-5.4h-4.67c-.34,0-.51-.22-.51-.61V54.81c0-.44.17-.66.51-.64h4.67V51.66h-3.71c-.34,0-.51-.2-.52-.6V49.59c0-.41.18-.61.52-.61h3.71V43.45a.53.53,0,0,1,.61-.6H157c.46,0,.68.2.67.6V49h4.06c.35,0,.52.2.52.61v1.47c0,.4-.17.6-.52.6h-4.06v2.51Zm-9.14-5.84c-.13.26-.38.31-.77.13l-1.34-.54a.48.48,0,0,1-.33-.71,21.11,21.11,0,0,0,1.49-3.67c.09-.36.36-.46.82-.28l1.32.43c.29.1.39.32.3.67A22,22,0,0,1,153.23,48.33Zm7.28-.06a34.42,34.42,0,0,0-2.46-3.41.48.48,0,0,1,.11-.74l1.17-.93a.54.54,0,0,1,.86.07,14.48,14.48,0,0,1,2.38,3.32.58.58,0,0,1-.13.76l-1.15.86C160.9,48.45,160.64,48.47,160.51,48.27Z"/><path class="cls-1" d="M180.12,42.5c.35,0,.52.2.52.61v1.55h6.65c.35,0,.52.22.52.65v1.43a.45.45,0,0,1-.52.51H173.64v7.44A11.72,11.72,0,0,1,171,62.31c-.35.39-.66.48-.93.26l-1.26-1c-.4-.33-.38-.74.07-1.21A7.42,7.42,0,0,0,170.53,58a5.63,5.63,0,0,0,.34-2.07l-1.55.77c-.29.12-.49.09-.61-.08L168,55.12a.6.6,0,0,1,.26-.87L171,53V51.49l-.22.34c-.14.23-.33.23-.56,0l-2.16-2a.53.53,0,0,1,0-.78l.95-.87a.53.53,0,0,1,.78,0l1.21,1V45.35a.61.61,0,0,1,.69-.69h6.4V43.11a.53.53,0,0,1,.6-.61ZM186.51,51h-4.75v2.42h4.93c.34,0,.52.22.52.67v1.4c0,.41-.18.61-.52.61h-4.93V60h5.88c.4,0,.6.21.6.64v1.6c0,.35-.2.52-.6.52H173a.45.45,0,0,1-.51-.52V60.6c0-.43.17-.64.51-.64h2V53.3c0-.52.23-.77.69-.77h1.47c.35,0,.52.25.52.77V60h1.38V51h-4.32a.53.53,0,0,1-.6-.61V49c0-.45.2-.67.6-.67h11.75c.41,0,.61.22.61.67v1.4A.54.54,0,0,1,186.51,51Z"/><path class="cls-1" d="M198.69,42.67c.33,0,.5.21.5.61v3.11h1.55c.33,0,.5.21.5.63v1.36c0,.4-.14.6-.41.6h-1.64v1.21a24.7,24.7,0,0,0,2.37,3.2.49.49,0,0,1,0,.69l-.73,1.12c-.17.25-.34.34-.5.26a4.82,4.82,0,0,1-1.14-1.21v8c0,.35-.15.52-.44.52h-1.46c-.34,0-.5-.14-.5-.43V54.34a19.41,19.41,0,0,1-1.9,3.28.48.48,0,0,1-.74.09l-1.08-.86a.6.6,0,0,1-.15-.87,24.25,24.25,0,0,0,3.29-7h-2.06c-.33,0-.49-.21-.49-.62V47c0-.4.16-.6.49-.6h2.64V43.28c0-.4.19-.61.58-.61Zm.82,6.74A20.35,20.35,0,0,0,202,46.69a21.65,21.65,0,0,0,2.37-3.84.62.62,0,0,1,.61-.43h1.79a.5.5,0,0,1,.54.43,11.14,11.14,0,0,0,2.07,3.35,15.94,15.94,0,0,0,4.2,3.39c.53.27.7.56.49.86l-1,1.21c-.23.27-.43.36-.59.26l-.71-.43V56c0,.41-.18.61-.54.61H210a1.73,1.73,0,0,1,0,.56,4.71,4.71,0,0,1-.26,1.21,7.68,7.68,0,0,1,3.15,2.53.75.75,0,0,1-.1,1l-1.13.95c-.18.12-.41,0-.67-.24a28.6,28.6,0,0,0-2.07-2.07,7.88,7.88,0,0,1-1.77,2.29.62.62,0,0,1-.74,0l-1-.75c-.26-.23-.19-.56.22-1a7.4,7.4,0,0,0,1.49-2.26,7.7,7.7,0,0,0,.71-2.25h-.8c-.36,0-.54-.2-.54-.61v-4.6c0-.36.16-.54.47-.54h3.91c-.67-.46-1.33-1-2-1.47v.44a.39.39,0,0,1-.43.43h-5.32c-.2,0-.3-.12-.3-.35V49.5c-.49.51-1,1-1.43,1.38h3.76a.48.48,0,0,1,.54.54V56c0,.41-.18.61-.54.61h-1.12a1.94,1.94,0,0,1,0,.47,4.73,4.73,0,0,1-.15,1A7.64,7.64,0,0,1,205.75,60c.23.32.13.69-.3,1.12l-.82.78c-.19.17-.4.1-.65-.24s-.68-.92-1-1.29a13.59,13.59,0,0,1-2,2.46.5.5,0,0,1-.73,0l-1.23-.93c-.26-.2-.18-.52.26-1a9.6,9.6,0,0,0,1.7-2,6.54,6.54,0,0,0,.8-2.29H201c-.36,0-.54-.2-.54-.61V51.68c-.2.18-.63-.12-1.29-.88C198.83,50.36,198.93,49.9,199.51,49.41ZM202.69,53v1.36h.9V53Zm3.17-7.49a9.35,9.35,0,0,1-1.53,2.33h3.13A9.27,9.27,0,0,1,205.86,45.53ZM208.58,53v1.36h1.08V53Z"/><path class="cls-1" d="M219.59,48.61a.61.61,0,0,1,.78-.08L223,49.78a.52.52,0,0,1,.26.71l-.78,1.13a.59.59,0,0,1-.77.37L219,50.75c-.42-.18-.54-.45-.35-.8Zm1.47,6.55q.3-.69.69-.6l1.56.43c.2.11.26.41.17.88a51,51,0,0,1-2.07,6.59c-.12.38-.41.49-.87.35l-1.64-.69c-.32-.21-.35-.53-.09-1A32,32,0,0,0,221.06,55.16ZM221,43a.6.6,0,0,1,.78-.18l2.51,1.32a.56.56,0,0,1,.26.78l-.78,1.34c-.17.24-.46.27-.86.09L220.2,45a.46.46,0,0,1-.26-.7Zm10,.43c.7,0,1.05.3,1,.91V57.6c0,.65-.34,1-1,1a4.42,4.42,0,0,0,1.81,1.8c.49.18.52.56.09,1.12l-.61.89a.83.83,0,0,1-1.12.08,7.13,7.13,0,0,1-2.42-3.26c-.14-.37-.09-.58.17-.63h-1.21a.45.45,0,0,1,.35.63,6.89,6.89,0,0,1-2.51,3.26.85.85,0,0,1-1.08,0l-.75-1c-.28-.47-.24-.81.11-1a6.48,6.48,0,0,0,1.9-1.82c-.64,0-.95-.29-.95-.88V44.32a.83.83,0,0,1,.95-.91Zm-3.55,2.53v1.83h2V45.94Zm0,4.1v1.84h2V50Zm0,4.19V56h2V54.23Zm5.1,2.62V44.14c0-.28.2-.43.61-.43h1.27c.36,0,.54.15.54.43V56.85c0,.46-.17.69-.52.69h-1.29C232.75,57.54,232.55,57.31,232.55,56.85Zm3.55,1.9V43.28c0-.29.18-.43.56-.43h1.42c.35,0,.52.14.52.43V58.92c0,1.91-.63,3-1.9,3.37l-1.6.39a.74.74,0,0,1-.91-.61l-.34-1.21c-.17-.49-.09-.76.26-.82l1.38-.17C235.89,59.78,236.1,59.41,236.1,58.75Z"/><path class="cls-1" d="M6.25,43.23c2.32,4.57,5.61,12.54,9.7,16,1.53,1.31,2.11-.93,5.27-1.59,2.13-.44,5-2,7.14-3,5.47-2.58,10.06-5.57,15.55-7.9,3.57-1.52,24.46-11.27,28-12.93,1.2-.57,6.55-2.4,7.52-3.26,3.28-2.88,0-6.38-1.18-8.64C76,17.5,73.36,13.37,71.12,9c-.85-1.66-1.8-7.61-4.49-7.9S37.51,14,34.55,15.35c-3.42,1.54-13.89,7.36-16.37,8.4,0,0-17.57,8.34-17.06,9.85S6.25,43.23,6.25,43.23Z"/><path d="M5.28,43.79C7.54,48.26,9.47,53,12.45,57c.93,1.26,2.32,3.41,4,3.72s3.26-1.5,4.8-1.92c5.42-1.47,10.53-4.61,15.45-7.27,3.58-1.93,7.25-3.59,10.94-5.27,6.77-3.08,13.51-6.23,20.25-9.38,2.36-1.1,4.69-2.2,7.12-3.14,3.35-1.29,7.88-2.81,6.77-7.38-.54-2.25-2.14-4.26-3.22-6.29-1.53-2.9-3.22-5.71-4.81-8.58a37.18,37.18,0,0,1-2.68-6.15c-.55-1.61-1.2-3.49-2.55-4.62C66.83-.65,64.91.22,63.13.9,60.2,2,57.34,3.32,54.49,4.63,48.28,7.47,42.15,10.47,36,13.43c-5.79,2.79-11.38,5.95-17.15,8.78-4.63,2.26-9.29,4.45-13.77,7-1.4.81-4.63,2.16-5,4-.24,1,.69,2.29,1.13,3.14C2,38,2.93,39.59,3.84,41.22l1.44,2.57a1.12,1.12,0,0,0,1.93-1.13c-1.29-2.26-2.56-4.54-3.78-6.84-.31-.58-.61-1.16-.9-1.75-.06-.13-.16-.55-.29-.64s-.06.39-.06.39c.38,0,1.71-1.28,2.13-1.55A132,132,0,0,1,18.5,24.83c5.48-2.57,10.68-5.72,16.16-8.31,4.46-2.1,8.88-4.28,13.34-6.4C53.5,7.5,59,4.65,64.81,2.65a7.22,7.22,0,0,1,1.71-.47c1.42.28,2.07,2.82,2.46,4,1.5,4.51,4,8.45,6.3,12.6C76.52,21,77.86,23.18,79,25.43s.46,4-1.85,5.06c-2.48,1.11-5,2-7.51,3.13q-9.09,4.26-18.19,8.46c-2.47,1.13-4.93,2.28-7.41,3.37-4.53,2-8.8,4.42-13.19,6.69-2.48,1.29-5,2.6-7.57,3.67-2,.83-3.91,1.2-5.75,2.34-.89.56-1.05.18-1.79-.6a20.75,20.75,0,0,1-2.13-2.72A57.9,57.9,0,0,1,10,48.4c-.95-1.9-1.84-3.83-2.8-5.74C6.56,41.38,4.64,42.51,5.28,43.79Z"/><path class="cls-1" d="M11.34,42.06c1.68,3.29,4,9.07,7.12,11.49,1.17.9,1.73-.79,4.3-1.41a36.89,36.89,0,0,0,5.87-2.57C33.14,47.43,37,45,41.47,43c2.94-1.28,22.86-10.52,25.76-11.9,1-.47,5.37-2.06,6.19-2.74,2.76-2.28.25-4.73-.57-6.35-1.62-3.17-3.56-6.12-5.18-9.3-.6-1.19-1.12-5.56-3.26-5.66s-26.68,12-29.12,13.09c-2.81,1.29-11.48,6.05-13.52,6.93,0,0-14.48,6.93-14.14,8S11.34,42.06,11.34,42.06Z"/><path d="M10.38,42.63c1.84,3.67,3.37,7.77,6.27,10.78,1,1,2,1.84,3.35,1.3a11.63,11.63,0,0,0,1.45-.84A30.14,30.14,0,0,1,25,52.55c4.81-2,9.3-4.74,13.95-7.07,2.3-1.15,4.66-2.16,7-3.23q8.73-4,17.43-8.07c1.73-.8,3.44-1.67,5.2-2.39,2.54-1.05,6.78-1.94,7.21-5.23.24-1.82-.9-3.26-1.76-4.74-1.39-2.4-2.73-4.86-4.09-7.28A24.17,24.17,0,0,1,68,10c-.43-1.34-1-3-2.39-3.69s-3.05.15-4.4.69c-2.46,1-4.88,2.08-7.29,3.18-10,4.59-19.93,9.46-29.74,14.54-4.57,2.37-9.27,4.46-13.74,7-1.3.74-4.23,1.94-3.79,3.85a17.87,17.87,0,0,0,2.05,4c.57,1,1.14,2,1.73,3.05A1.11,1.11,0,0,0,12.3,41.5c-1.08-1.87-2.16-3.74-3.13-5.67a3.08,3.08,0,0,0-.37-.75c-.27-.21,0,.31-.21.5.19-.15.36-.33.56-.47a27.69,27.69,0,0,1,2.65-1.63c3.52-2,7.15-3.8,10.79-5.53,4.67-2.21,9.12-4.85,13.79-7,4.06-1.92,8.1-3.9,12.16-5.82,4.61-2.17,9.22-4.45,14-6.27a8,8,0,0,1,1.65-.56c.44-.05,0-.15.4.05.71.41,1,1.54,1.23,2.27C67,14.28,69.06,17.43,71,20.85c.77,1.4,2.17,3.08,2.52,4.65.49,2.17-2.49,2.92-4,3.53-1.71.69-3.38,1.42-5.06,2.21q-7.65,3.57-15.33,7.11c-6.25,2.88-12.38,5.85-18.5,9a64.34,64.34,0,0,1-7,3.33,27.22,27.22,0,0,0-2.91,1c-.65.33-1.21,1-1.81.75s-1.66-1.8-2.06-2.38a29.83,29.83,0,0,1-1.66-2.77c-1-1.91-1.9-3.89-2.88-5.83C11.66,40.22,9.74,41.34,10.38,42.63Z"/><path d="M22.31,36.43a3.51,3.51,0,0,1,1.86-3.73q2.46-1.19,4.12,1.36a2.71,2.71,0,0,1,.32,2.29,3.15,3.15,0,0,1,1.93,1.75,3,3,0,0,1-1.44,4.4,3.86,3.86,0,0,1-4-.27c-.25-.19-.35-.37-.29-.55l.37-1.07c.07-.13.17-.15.31,0a3,3,0,0,0,2.85.29,1.47,1.47,0,0,0,.71-2.06q-.7-1.26-2.25-.45c-.18.09-.33,0-.45-.26l-.4-.78a.41.41,0,0,1,0-.55c.95-.4,1.25-1,.91-1.86a1.28,1.28,0,0,0-.83-.75,1.63,1.63,0,0,0-1.06.21,2.39,2.39,0,0,0-1.08,2.49c0,.24-.14.35-.44.32l-.78-.11A.65.65,0,0,1,22.31,36.43Z"/><path d="M34.66,28.86c.28,0,.42.26.42.7a15,15,0,0,1-1.29,4.89.64.64,0,0,1-.62.31l-1-.35c-.28-.13-.36-.37-.23-.73a14.49,14.49,0,0,0,1.19-4.24c0-.28.17-.43.48-.47ZM38,24.29c.13-.06.3,0,.52.26a11.06,11.06,0,0,0,5.32,3c.4.11.58.32.53.65l-.31,1.07a.53.53,0,0,1-.59.23,13.92,13.92,0,0,1-5.82-3l-4,2.06a.37.37,0,0,1-.55-.18l-.45-.89c-.14-.27-.09-.47.16-.59Zm-3.11,7.84,6-3.05q.86-.43,1.38.66l1.87,3.68A2,2,0,0,1,43.82,36l-.93.86c-.23.2-.44.22-.62.06l-1-.72c-.22-.24-.11-.52.34-.84l.34-.23c.47-.29.61-.61.43-.94l-1.5-2.95-2.22,1.13q1.68,4-.34,6.71c-.23.32-.48.43-.76.33l-.79-.34a.5.5,0,0,1-.16-.79,5.07,5.07,0,0,0,.34-5l-1.19.61c-.31.16-.52.13-.63-.08l-.52-1C34.48,32.49,34.58,32.29,34.89,32.13Z"/><path d="M53,28.85c.16.18.15.45,0,.81q-1.36,1.55-3.35,3.4c-.26.22-.48.24-.67.08l-.82-.82c-.16-.19-.12-.38.11-.58l.72-.62c-.11.05-.24,0-.42-.18-.47-.51-.92-1-1.35-1.37A.44.44,0,0,1,47,29l.54-.73c.13-.13.29-.12.47,0a8.68,8.68,0,0,1,1.16,1.12l-.9-1.77-1.4.71c-.21.11-.37,0-.5-.22l-.42-.82q-.19-.37.12-.54l1.39-.71-.39-.77-.67.34c-.21.1-.38,0-.52-.26-.1.3-.27.43-.52.4l-1.07-.32c-.22-.14-.26-.36-.14-.65a10.3,10.3,0,0,0,.72-3.59.8.8,0,0,1,.22-.58l.83-.43a.7.7,0,0,1,.68.06,21.45,21.45,0,0,0,2,1.09c.31.13.46.27.46.42a4.65,4.65,0,0,1-.21,1c-.06.18-.15.27-.26.26l.42.83a.36.36,0,0,1-.18.54l-.36.19.39.78L50,24.75c.21-.11.38,0,.5.21l.42.83c.13.25.09.43-.12.53l-1.13.58.66,1.31-.2-1.28c0-.2.11-.32.34-.37l.6-.11a.43.43,0,0,1,.52.39l.2,1.54.13-.13c.19-.23.4-.21.62.07ZM46.56,22c-.06.57-.12,1.13-.19,1.68l1.7-.87A9,9,0,0,1,46.56,22Zm5-5c.24-.12.43,0,.58.25l.16.31,1.91-1c.21-.1.37,0,.5.21l.37.73a.3.3,0,0,1-.15.47l-.52.27.17.71,1.19-.61c.21-.1.37,0,.5.22l.37.72c.12.25.08.42-.13.53l-6.41,3.26a.36.36,0,0,1-.55-.18l-.37-.72a.36.36,0,0,1,.17-.56l1.09-.56-.48-.55-.36.18A.35.35,0,0,1,49,20.6l-.38-.74a.37.37,0,0,1,.18-.55l1.86-.94-.15-.31a.42.42,0,0,1,.19-.64ZM49.58,30.24l-.53.75.62-.58Zm8.71-6.19q.24.48-.12.66l-1.86.95.13.26,2-1c.2-.11.37,0,.5.23l.39.76a.3.3,0,0,1-.15.47l-2,1,.16.31,2.33-1.18c.24-.12.43-.05.57.22l.34.68a.36.36,0,0,1-.17.56l-6.36,3.24a.37.37,0,0,1-.56-.19l-.34-.69c-.14-.26-.09-.46.15-.58l2.59-1.32-.16-.31-2,1c-.24.12-.41.08-.52-.13l-.38-.76a.36.36,0,0,1,.16-.57l2-1-.13-.26-1.76.9a.48.48,0,0,1-.71-.25L50.63,23.6c-.16-.31-.12-.53.13-.65l5.17-2.63c.24-.13.44,0,.6.28ZM50.77,29l.15.31.39-.4Zm.81-9.29.47.55.83-.42-.16-.71Zm.82,3.8.29.57.78-.4-.29-.57Zm.88,1.72.24.48.78-.4-.25-.48Zm1.35-2.86.29.57.72-.37L55.35,22Zm.87,1.72.25.48.72-.37-.24-.47Z"/></g></svg>