<?xml version="1.0" standalone="no"?>
<!DOCTYPE svg PUBLIC "-//W3C//DTD SVG 20010904//EN"
 "http://www.w3.org/TR/2001/REC-SVG-20010904/DTD/svg10.dtd">
<svg version="1.0" xmlns="http://www.w3.org/2000/svg"
 width="260.000000pt" height="260.000000pt" viewBox="0 0 260.000000 260.000000"
 preserveAspectRatio="xMidYMid meet">
<metadata>
Created by potrace 1.11, written by Peter Selinger 2001-2013
</metadata>
<g transform="translate(0.000000,260.000000) scale(0.100000,-0.100000)"
fill="#000000" stroke="none">
<path d="M1086 2564 c-175 -32 -351 -105 -512 -212 -280 -188 -447 -445 -529
-812 -25 -115 -31 -374 -11 -483 46 -245 156 -450 340 -632 197 -196 433 -321
726 -382 120 -25 392 -25 510 1 448 97 771 388 909 818 78 246 82 547 11 808
-87 316 -228 521 -462 674 -276 180 -690 273 -982 220z m374 -149 c431 -66
730 -276 876 -618 166 -388 127 -857 -100 -1181 l-41 -59 -7 34 c-4 19 -7 205
-5 414 l2 380 -32 95 c-41 119 -95 202 -187 286 l-72 67 13 51 c27 99 -3 222
-73 305 -42 50 -138 109 -219 133 -225 69 -448 -22 -542 -222 -14 -30 -27 -56
-28 -58 -1 -1 -30 -7 -64 -13 -237 -38 -405 -155 -514 -358 -49 -91 -132 -312
-146 -387 -6 -33 -20 -126 -31 -207 -11 -81 -27 -162 -36 -180 l-17 -31 -18
46 c-47 120 -68 327 -50 488 41 351 182 606 446 802 135 101 340 192 489 217
82 14 253 12 356 -4z m152 -247 c143 -66 194 -178 133 -297 -63 -125 -199
-178 -372 -146 -173 32 -209 66 -201 185 10 133 90 242 208 281 47 16 175 3
232 -23z m-592 -311 c0 -44 29 -122 60 -159 64 -77 249 -134 410 -125 109 5
183 29 257 83 27 19 54 37 61 40 22 11 128 -102 167 -177 65 -125 77 -237 53
-529 -9 -119 -8 -184 4 -360 11 -154 12 -219 5 -229 -42 -52 -244 -159 -369
-195 -464 -134 -1066 79 -1325 469 l-35 54 36 44 c55 67 72 119 95 287 12 85
24 173 27 195 4 22 21 76 39 120 19 44 41 105 49 135 42 152 208 311 367 354
81 22 99 20 99 -7z"/>
<path d="M1393 2080 c-68 -41 -91 -121 -51 -180 51 -75 129 -99 205 -63 67 31
94 124 57 194 -31 61 -148 88 -211 49z m141 -82 c35 -49 5 -98 -59 -98 -46 0
-75 25 -75 64 0 44 16 56 71 56 38 0 51 -5 63 -22z"/>
<path d="M1214 1483 c-19 -14 -32 -45 -26 -65 11 -44 107 -63 142 -28 25 25
25 41 2 70 -19 23 -97 38 -118 23z"/>
<path d="M1601 1471 c-26 -26 -26 -42 -3 -71 22 -28 98 -38 126 -18 22 17 24
64 3 85 -8 8 -35 17 -60 20 -36 4 -49 1 -66 -16z"/>
<path d="M1141 1299 c-88 -17 -139 -86 -128 -171 11 -84 78 -140 173 -146 l65
-4 -46 -49 c-72 -77 -109 -180 -69 -196 8 -3 57 7 107 22 57 17 125 30 177 33
l85 5 -20 -22 c-24 -27 -11 -54 28 -59 14 -2 28 -10 31 -18 6 -17 -11 -57 -22
-52 -68 34 -63 34 -88 5 -41 -47 -71 -28 -58 38 5 27 2 35 -15 44 -48 26 -83
-29 -62 -99 22 -75 101 -112 152 -71 18 14 30 16 52 10 63 -18 112 28 112 106
0 43 -5 59 -25 81 l-25 27 25 -7 c198 -53 293 -40 254 36 -39 75 -132 152
-221 184 -29 10 -53 24 -53 31 0 22 17 23 36 1 29 -32 77 -48 146 -48 64 0
131 23 155 51 7 8 16 33 21 54 29 138 -88 243 -240 215 -63 -12 -93 -31 -119
-75 -13 -22 -26 -32 -35 -28 -8 3 -21 -1 -30 -8 -13 -11 -15 -25 -9 -79 6 -62
6 -64 -10 -42 -20 27 -51 29 -65 2 -6 -11 -17 -20 -25 -20 -11 0 -11 7 -4 35
15 53 -11 134 -55 173 -29 25 -114 56 -144 51 -4 -1 -27 -5 -51 -10z m129 -86
c39 -27 49 -45 50 -90 0 -48 -10 -57 -80 -68 -52 -8 -124 16 -140 46 -20 35
-12 86 16 108 34 27 118 29 154 4z m556 -17 c38 -38 46 -92 19 -119 -18 -18
-94 -30 -131 -21 -67 16 -104 67 -85 116 15 40 49 58 109 58 48 0 58 -4 88
-34z m-350 -237 c16 -15 38 -22 67 -24 52 -2 120 -33 167 -77 47 -44 28 -46
-97 -12 -85 23 -110 26 -188 21 -49 -3 -114 -13 -143 -22 -30 -9 -56 -15 -58
-12 -2 2 19 27 47 56 87 88 160 113 205 70z"/>
<path d="M1186 1174 c-25 -24 -20 -61 10 -81 24 -15 29 -15 53 -2 49 28 32 99
-24 99 -13 0 -31 -7 -39 -16z"/>
<path d="M1730 1169 c-17 -30 -8 -62 21 -78 24 -13 29 -13 53 2 31 21 34 56 8
80 -26 24 -69 22 -82 -4z"/>
</g>
</svg>
