<svg xmlns="http://www.w3.org/2000/svg" viewBox="0 0 719.94 651.54"><defs><style>.cls-1,.cls-4{fill:#f3eee8;}.cls-2,.cls-5{fill:#d1ccc7;}.cls-3{fill:#9b9a98;}.cls-4{stroke:#000;}.cls-4,.cls-5{stroke-miterlimit:10;stroke-width:2px;}.cls-5{stroke:#d1ccc7;}.cls-6{fill:#040000;}</style></defs><title>dr</title><g id="Layer_2" data-name="Layer 2"><g id="圖層_1" data-name="圖層 1"><path d="M94.69,206.79c-2.23-2.34-7.42-1.82-10.22-2-14-.77-28.47-.47-42.3,2.27a1.18,1.18,0,0,0-.95.8,1.5,1.5,0,0,0-.52.73c-1.38,4-2.36,8.61-1.29,12.84s4.3,6.7,8.27,7.9c10.65,3.2,21.78.36,32.61,1.08,3.91.26,8.93,1,12.27-1.72s3.56-8.14,3.52-12.32C96.06,213.62,96.8,209,94.69,206.79Z"/><path class="cls-1" d="M62,217.58q0,.77-.64.77H57.93v.29a11.47,11.47,0,0,0,1.74-.17l-.12-.29L61,218a8.3,8.3,0,0,1,1.32,1.1q.35.39.07.56l-.81.35a.52.52,0,0,1-.67-.14l-.26-.33q-1.37.23-3.85.42t-4.34.16a.49.49,0,0,1-.52-.29l-.32-.75q-.12-.36.4-.36a33.34,33.34,0,0,0,4.17-.06v-.35H53.13q-.64,0-.64-.77v-3q0-.65.58-.65h3.18v-.41h-5q-.35,0-.35-.38v-.87q0-.36.35-.36h5v-.41q0-.36.35-.36h1.1q.35,0,.35.36v.41h5.5q.35,0,.35.36v.87q0,.38-.35.38H58v.41h3.3a.57.57,0,0,1,.64.65Zm-1.74,2.23q.29,0,.29.16v.45h3.13q.29,0,.29.14v1.07q0,.13-.29.13H60.54v2.13q0,.52-.81.77a7.66,7.66,0,0,1-1.85.25.46.46,0,0,1-.46-.38l-.29-1c-.06-.23,0-.35.23-.35a6,6,0,0,0,.95-.08q.5-.08.5-.38v-1H51.22q-.35,0-.35-.14v-1.06q0-.14.35-.14H58.8V220c0-.11.1-.16.29-.16Zm-6.15,1.85,2,1.29q.26.16.12.35l-.82.9q-.22.2-.54,0a24.23,24.23,0,0,0-2.07-1.4q-.17-.14,0-.33l.72-.71A.43.43,0,0,1,54.1,221.66Zm.19-6.55v.41h2v-.41Zm0,1.59v.41h2v-.41ZM58,215.1v.41h2.14v-.41Zm0,1.59v.41h2.14v-.41Z"/><path class="cls-1" d="M68,215a.45.45,0,0,1,.46-.12,11.88,11.88,0,0,1,2.31,1.07q.23.16.06.45l-.46.81q-.15.23-.52.06l-2.26-1a.34.34,0,0,1-.12-.56Zm1.5,4.2q.09-.35.41-.23l1.1.41q.2.09.12.45a18.36,18.36,0,0,1-1.62,4.44.43.43,0,0,1-.64.17l-1-.46q-.38-.19-.12-.64A14.91,14.91,0,0,0,69.47,219.15Zm-.17-8.07a8.3,8.3,0,0,1,1.85,1.39q.2.2-.06.51l-.58.61a.47.47,0,0,1-.58-.06q-.8-.61-1.79-1.29-.33-.25-.06-.52l.69-.64A.46.46,0,0,1,69.3,211.08Zm5.15.55q.23-.49.64-.41l1,.23q.42.12.17.64L74.33,216l4-.29-.41-.64a.45.45,0,0,1,.23-.72l.75-.29a.38.38,0,0,1,.52.12L81.28,217q.19.32-.17.54l-.87.54q-.25.12-.46-.19l-.35-.52-7.58.52q-.43,0-.46-.35l-.06-.88q0-.46.29-.48l.69-.06Zm-1.74,12.95q-.46,0-.46-.52v-5.17q0-.48.52-.48h6.94a.42.42,0,0,1,.46.48v5.17q0,.52-.46.52ZM74,223H78.4V220H74Z"/><path class="cls-2" d="M240.9,199c-5.87-5-14.31-7.43-21.61-9.32-16.27-4.21-33.31-5.52-50.06-6.09-29.32-1-58.83-2.8-88.16-2.8-11.23,0-39.94,2.2-51.08,2.71-7.93.37-19.28-1.9-25.09,3.72L3.47,252.79c-.34,16.3-.41,32.63-.44,48.93,0,10-.18,19.92,9.24,25.45,11.74,6.9,45,6.31,58.12,7.82a695,695,0,0,0,75.29,4c23.65.12,47.2-1.74,70.83-1.91,8.34-.06,20.36,2.8,23.34-6.78,8.09-26,10.47-53.49,10.42-80.59C250.24,233.45,254.92,211.1,240.9,199Zm-1.35,52.72c0,23.86-2.11,48.06-9.44,70.94-2.7,8.43-13.59,5.92-21.16,6-21.42.15-42.76,1.78-64.2,1.68a648.43,648.43,0,0,1-68.24-3.51c-11.91-1.33-43.68-.71-54.32-6.79-8.53-4.87-8.39-13.63-8.37-22.4,0-14.35.09-28.72.4-43.07l1.28-57.7c5.27-4.95,15.56-3,22.74-3.27,10.1-.45,37.77-2.48,47.95-2.48,26.58,0,53.33,1.58,79.9,2.46,15.18.51,30.62,1.66,45.37,5.36,6.62,1.66,14.27,3.76,19.59,8.21C243.76,217.77,239.52,237.45,239.55,251.75Z"/><path d="M.47,252.79C.12,270-.08,287.31,0,304.56c.07,11.17,2.42,21.94,13.73,26.64,9.8,4.08,21.29,4.55,31.74,5.23,11.52.75,23,1.45,34.45,2.56,35,3.35,70,3.38,105.08,2,8.85-.35,17.7-.7,26.55-.84,5.8-.09,11.7.63,17.49.22,4.39-.32,8.85-1.54,11.62-5.2,4-5.33,5-14.19,6.41-20.56A277.32,277.32,0,0,0,253,264.86c.26-7.39.1-14.78.44-22.16.28-6.17.73-12.34.44-18.52-.54-11.53-4-22.88-14-29.61-12-8.06-28.74-10.22-42.71-11.93-16.74-2.06-33.68-2.18-50.51-2.89-17.64-.74-35.28-1.53-52.93-1.81-12.13-.19-24.15.2-36.25.93-10.6.64-21.35,1.92-32,1.68-6.08-.14-22.41-1.7-23.67,7.11-.71,4.92-.22,10.32-.33,15.29l-1,46.53-.07,3.33c-.08,3.86,5.92,3.86,6,0l.72-33.27.49-22.59.14-6.59a10.29,10.29,0,0,1,0-2.16c.51-2-.7.68.43.19,5.41-2.31,10.79-2,16.58-1.86,4.63.12,9.22-.2,13.84-.48,10.79-.66,21.58-1.43,32.39-1.92,28.73-1.32,57.67.92,86.38,2.06,16.12.64,32.27,1,48.21,3.7,12.65,2.18,30.44,4.78,37.74,16.74,5.85,9.59,4.73,22,4.2,32.74-.71,14.19-.39,28.38-1.64,42.56-.7,7.93-1.72,15.82-3.17,23.65s-2.66,16.7-5.86,23.93c-2.27,5.14-7.58,5-12.53,4.89-5.94-.19-11.81-.29-17.76-.15-32.65.78-65.06,2.4-97.73.82-15.05-.73-30-2.65-45-3.59-12-.75-24.11-.89-36-2.8-4.73-.76-10-1.6-14.16-4.09-6.73-4-7.62-11.46-7.74-18.6-.31-17.71.07-35.48.43-53.18C6.55,248.93.55,248.93.47,252.79Z"/><path d="M12.72,254.57c-.32,15.71-.74,31.5-.38,47.21.21,9.18,2.85,17.37,12.05,20.91C33,326,43,326.38,52.17,326.94c10.07.62,20.09,1,30.13,2,31.75,3.14,63.67,3.35,95.52,2.12,13.55-.52,27-.42,40.57-.59,3.6,0,7.61-.47,10.41-3,4.27-3.85,5-11.89,6.28-17.15a230.79,230.79,0,0,0,5.66-43.48c.28-6.68.13-13.37.41-20,.24-5.79.73-11.59.46-17.39-.44-9.37-3.08-18.71-11-24.48-10.34-7.53-25.59-9.39-37.9-10.93-15.29-1.92-30.74-2-46.11-2.66-16.25-.66-32.49-1.38-48.75-1.63-20.37-.31-40.53,2.13-60.85,2.42-5.35.08-21.12-2.37-23,5.09-.46,1.79-.09,4.2-.13,6l-.25,11.29-.89,40c0,1.93,3,1.93,3,0l.67-30.34.44-19.61c0-1.87-.25-4.18.13-6,.08-.38-.14-1,0-1.37.4-.85,3.65-1.47,4.92-1.75,4.93-1.09,10.12-.27,15.11-.34,4-.06,8.11-.4,12.15-.65,9.47-.58,18.94-1.21,28.42-1.62,26.2-1.14,52.6.86,78.78,1.87,14.55.56,29.13.89,43.53,3.33,11.45,1.94,27.32,4.26,34.24,14.76,5.74,8.71,4.74,20.18,4.23,30.09-.66,13-.37,26-1.65,39-.66,6.77-1.62,13.51-2.92,20.19q-1.08,5.57-2.51,11.07c-.88,3.39-1.45,8-3.47,10.86-3.06,4.35-9.69,3.48-14.27,3.26-6.07-.29-12.15-.07-18.22.11-29.29.86-58.39,2-87.69.41-13.18-.7-26.28-2.42-39.45-3.09-10.75-.55-21.6-.74-32.26-2.37-4.12-.63-8.55-1.35-12.3-3.26-6.83-3.46-8.13-10.33-8.29-17.33-.36-15.71.06-31.5.38-47.21C15.76,252.64,12.76,252.64,12.72,254.57Z"/><path d="M48.56,248.47H46.78v-4.41a18.72,18.72,0,0,1-2.63,3.58L43.5,246a14.18,14.18,0,0,0,3.22-4.06H43.89v-1.63h2.89v-1.91h1.78v1.91h2.26v1.63H48.56v.65c.93.61,1.85,1.3,2.8,2.06l-1,1.46c-.7-.82-1.3-1.48-1.8-2Zm-1.48,1.33a16,16,0,0,1-1.89,4.63l-1.52-.94a13.31,13.31,0,0,0,1.67-4.08ZM50,254.86a1.79,1.79,0,0,1-2-2.06v-3.58h1.8v3.2c0,.48.24.72.76.72h3.89a.85.85,0,0,0,.69-.3,3.67,3.67,0,0,0,.35-1.83l1.67.56c-.13,1.57-.39,2.52-.8,2.85a2.48,2.48,0,0,1-1.59.43Zm4.21-3.7-1.41,1a20.66,20.66,0,0,0-1.94-2.48l1.37-.85A21.93,21.93,0,0,1,54.21,251.15Zm5.15-12.39v9.54H51.84v-9.54Zm-1.7,2.76v-1.2H53.56v1.2Zm0,2.61V243H53.56v1.17Zm0,1.43H53.56v1.22h4.09Zm3.13,7.35-1.5,1a34.27,34.27,0,0,0-2.72-4.2l1.43-.91A31.9,31.9,0,0,1,60.79,252.91Z"/><path d="M80.75,238.78v1.57H75.43v1.35h4.21v4.91H72c-.28.46-.52.89-.74,1.3H81v1.63H77.1a6.46,6.46,0,0,1-1.8,2.54c1.76.54,3.58,1.17,5.43,1.87l-1.09,1.44c-2-.83-3.95-1.57-5.93-2.22a28.67,28.67,0,0,1-8.56,2.15l-.67-1.56a34.7,34.7,0,0,0,6.91-1.32c-1.43-.43-2.85-.8-4.28-1.13.41-.59.81-1.19,1.19-1.78H64v-1.63H69.3c.26-.44.52-.87.76-1.3H65.37v-4.91h4.21v-1.35H64.26v-1.57Zm-11.17,4.43H67.06v1.91h2.52Zm5.69,6.34H70.32l-.72,1.07c1.24.26,2.5.56,3.8.91A4.88,4.88,0,0,0,75.27,249.54Zm-1.52-9.19H71.27v1.35h2.48Zm0,2.85H71.27v1.91h2.48Zm4.2,0H75.43v1.91H78Z"/><path d="M89.51,238.83a24.28,24.28,0,0,1-1.22,3.24v13.17h-1.7V245a26.44,26.44,0,0,1-1.8,2.3l-.52-1.76a21.29,21.29,0,0,0,3.7-7.45Zm4.59.2v-.87h1.7V239h4.76v1.39H95.8v.82H100v5.63H99.6a20,20,0,0,1,1.63,2.13l-1.2.85c-.19-.3-.39-.59-.59-.89a5.23,5.23,0,0,0-.76.06v1.13h2.45v1.52H98.67v2c0,1-.56,1.5-1.63,1.5H94.88l-.35-1.56c.69.06,1.33.09,1.93.09.37,0,.56-.15.56-.43v-1.65H91.41a14.36,14.36,0,0,1,2.74,1.65l-.87,1.37a12.89,12.89,0,0,0-2.87-2l.7-1h-2v-1.52H97v-1c-2,.09-4.43.19-7.39.26l-.2-1.39,4.69-.09v-1h-4v-5.63h4v-.82H89.75V239Zm.11,4.43v-.94H91.65v.94Zm0,1.17H91.65v1h2.56Zm1.46-1.17H98.4v-.94H95.67Zm2.72,1.17H95.67v1H98.4Zm-.46,2.45.33-.2H95.8v1l2.67-.13Z"/><path d="M109.34,242.67V244a24.73,24.73,0,0,1-2,2.87h2.07v1.17a20.43,20.43,0,0,1-.76,3.39,3,3,0,0,1,.48.37,6.28,6.28,0,0,0,1.69,1.19,6.71,6.71,0,0,0,2.33.35c1,0,2.13,0,3.43,0s3.06-.06,5.21-.13l-.39,1.67h-4.61c-1.3,0-2.52,0-3.71-.07a8.51,8.51,0,0,1-2.83-.44,6,6,0,0,1-2.09-1.41.59.59,0,0,0-.43-.19q-.56,0-1.78,2.39l-1.28-1.17a5.92,5.92,0,0,1,2.39-2.8,19.6,19.6,0,0,0,.72-2.87h-2.5v-1.33a22.78,22.78,0,0,0,2.09-2.8H105v-1.59Zm-.19-1.78L108,242a17.84,17.84,0,0,0-2.72-2.7l1.15-1.09A20.5,20.5,0,0,1,109.15,240.89Zm3-.5,0,4.08c0,3.3-.52,5.8-1.45,7.48l-1.43-.69a15.5,15.5,0,0,0,1.37-6.8V239a59.52,59.52,0,0,0,9.87-.87l.78,1.35c-1.24.22-2.54.41-3.87.56v.57H121v1.22h-3.54v.69h3.91v.67a11.16,11.16,0,0,1-.52,2l-1.31-.37a8.9,8.9,0,0,0,.37-1H117.4v.78l1.76-.2.19,1.13-1.94.22v0c0,.39.22.59.67.59h2.8v1.2h-3.43c-.93,0-1.39-.41-1.39-1.2v-.48l-1.52.17a12.58,12.58,0,0,1-1.76,6.8l-1.19-1a11,11,0,0,0,1.56-5.76v-3.56H116v-2.35C114.73,240.3,113.45,240.35,112.12,240.39ZM117,248v.72a6.32,6.32,0,0,1-.61,2.74,3.49,3.49,0,0,1-1.82,1.46l-.76-1.2a2.91,2.91,0,0,0,1.44-1.13,4.12,4.12,0,0,0,.41-1.87V248Zm-.94-4.17h-1.52v1.09l1.52-.17Zm3.59,8.89c-1,0-1.54-.43-1.54-1.28V248h1.33v3.15c0,.15.07.24.26.28h.44c.19,0,.28-.15.3-.39a8.81,8.81,0,0,0,.06-1.13l1.24.46a4.06,4.06,0,0,1-.3,2,1.75,1.75,0,0,1-1.22.37Z"/><path d="M129,255.27l-1.28-1.15a6.31,6.31,0,0,0,1.72-4.43V246a24.44,24.44,0,0,1-3.2,3.13l-1.13-1.48a20.06,20.06,0,0,0,5.09-5.87h-4.59v-1.69H131c.28-.67.52-1.33.74-2l1.8.2c-.19.63-.39,1.24-.61,1.82h8.95v1.69h-9.69a18.77,18.77,0,0,1-1,1.8h8.47v9.95c0,1.09-.63,1.65-1.85,1.65H135.9l-.41-1.57c.63,0,1.24.07,1.8.07s.69-.26.69-.74v-1.56H130.9A7.57,7.57,0,0,1,129,255.27Zm2.09-5.69c0,.07,0,.17,0,.24H138v-1.59h-6.91Zm6.91-4.52h-6.91v1.65H138Z"/><path d="M161.94,247.06h-1.69v-1.83H147.73V247H146v-3.33h.63l-.76-1.19a5.25,5.25,0,0,0,2.57-1.3,3.54,3.54,0,0,0,.72-2.13v-.93h1.63v.93a6.45,6.45,0,0,1-.37,1.91,30.41,30.41,0,0,1,3.2,1.59l-1.11,1.11h8.06a16.43,16.43,0,0,0-2.85-1.54,5.9,5.9,0,0,1-2.87,1.48l-.83-1.33a5.09,5.09,0,0,0,2.43-1.15,3.06,3.06,0,0,0,.69-1.87v-1.15h1.63v1.15a6.57,6.57,0,0,1-.3,1.61,18.73,18.73,0,0,1,3.19,1.52l-.83,1.28h1.07Zm-13.56-6.37-1.33.57a11.43,11.43,0,0,0-.89-2.07l1.28-.54A12,12,0,0,1,148.38,240.69Zm-1.2,3h5.24a19,19,0,0,0-2.67-1.46A6.16,6.16,0,0,1,147.17,243.71Zm12.21,2.37v3.61h-4.56l-.24.82H161v4.8h-1.72v-.69H149.1v.7h-1.7V250.5h5.43l.22-.82h-4.41v-3.61Zm-.11,7.13v-1.32H149.1v1.32Zm-1.57-5.84h-7.37v1h7.37Zm-4.09-8.45a6.31,6.31,0,0,1-.91,2.2l-1.37-.46a7,7,0,0,0,.87-2.11Zm2.59,1.78-1.33.57a14.78,14.78,0,0,0-.89-2.13l1.28-.54A13.35,13.35,0,0,1,156.19,240.71Zm5.46-1.74a7.07,7.07,0,0,1-.85,2.19l-1.37-.46a7.81,7.81,0,0,0,.82-2.09Z"/><path d="M170.77,239.41a8.28,8.28,0,0,0-.67-1l1.82-.3c.2.41.41.85.59,1.33h3.76a7.52,7.52,0,0,0,.57-1.39l1.78.26a5,5,0,0,1-.57,1.13h3.71v1.35h-6.52v.63h5.95v1.22h-5.95v.65h7.37v1.41h-3.67a9.58,9.58,0,0,0,4.08,2.5l-.74,1.54a10.73,10.73,0,0,1-5.06-4h-5.63a9.87,9.87,0,0,1-2.17,2.43h10v4.76a16.16,16.16,0,0,0,1.09-1.2l1.43.72a18.35,18.35,0,0,1-2,1.85c.78.26,1.52.52,2.24.8l-.91,1.37a41.39,41.39,0,0,0-7-2.43l.7-1.07h-4.46v1.83c1.19-.22,2.33-.46,3.43-.74l.28,1.33a52.59,52.59,0,0,1-5.41,1L168.4,254a.56.56,0,0,0,.44-.61v-5.84a16.27,16.27,0,0,1-2.24,1.33l-.87-1.44a10.52,10.52,0,0,0,4.09-2.76h-3.7v-1.41h7.32v-.65h-6v-1.22h6v-.63h-6.56v-1.35Zm7,8.8h-7.17V249h7.17Zm-7.17,2.5h7.17v-.76h-7.17Zm6.95-5.35v1.07h-6.17v-1.07Zm.91,7.39c.33-.28.65-.56.94-.85h-4.24C176.27,252.15,177.36,252.43,178.42,252.75Z"/><path d="M191.58,238.85a22,22,0,0,1-1.35,3.33v13.1h-1.7V245a27.35,27.35,0,0,1-1.87,2.3l-.52-1.74a20.24,20.24,0,0,0,3.91-7.39ZM202,245.69v7.21h-2.17a24.41,24.41,0,0,1,3.54,1l-.54,1.33a24.85,24.85,0,0,0-4.43-1.48l.44-.89H195.6l.67.89a14.76,14.76,0,0,1-4.46,1.46l-.74-1.28a18.76,18.76,0,0,0,4-1.07h-2.46v-7.21Zm1.15-6.93v1.48h-3.5v1h2.87V245H192v-3.78h3v-1h-3.06v-1.48Zm-8,3.74h-1.67v1.28h1.67Zm5.24,5.28v-.91h-6.24v.91Zm0,1.91v-.87h-6.24v.87Zm0,1.06h-6.24v.89h6.24Zm-2.28-8.24h-1.67v1.28h1.67Zm0-2.26h-1.65v1h1.65ZM201,242.5h-1.57v1.28H201Z"/><path d="M44.21,271.43l-.57-1.87a20.35,20.35,0,0,0,3.78-7.41l1.59.74a22.58,22.58,0,0,1-1.31,3.39v13.06H46V269.17C45.43,269.95,44.84,270.71,44.21,271.43Zm11.61-9.06c0,.5-.09,1-.13,1.46h4.43v1.59H55.51c-.07.44-.13.85-.19,1.26H59v10.52h1.69v1.59H48.41v-1.59h1.83V266.69H53.6c.07-.43.13-.85.17-1.26H49.21v-1.59H54c0-.57.09-1.15.13-1.7Zm1.46,7.06v-1.17H51.93v1.17Zm0,2.56v-1.17H51.93V272Zm0,2.59v-1.19H51.93v1.19Zm0,2.63V276H51.93v1.24Z"/><path d="M70.89,278.17H69.21v-1H66.28v1.5H64.6V265.28h1.76a17.14,17.14,0,0,0,.74-3.09l1.76.24a15,15,0,0,1-.81,2.85h2.85Zm-1.69-7.82v-3.41H66.28v3.41Zm0,5.22v-3.65H66.28v3.65Zm11,1.54c-.19,1.33-1.07,2-2.65,2-.37,0-1,0-2-.09l-.43-1.61c.81,0,1.52.07,2.11.07a1.19,1.19,0,0,0,1.28-1.17c.11-.93.17-4,.2-9.32H74.08a16.65,16.65,0,0,1-1.81,3.06l-1.06-1.39a16.26,16.26,0,0,0,2.52-6.5l1.74.22a21.54,21.54,0,0,1-.74,2.91h5.72Q80.45,274.89,80.18,277.12ZM77,273.71l-1.39,1a34.92,34.92,0,0,0-2.85-4.08l1.43-.89A30.79,30.79,0,0,1,77,273.71Z"/><path d="M96.42,265.08c-.07.26-.15.5-.24.74a8.63,8.63,0,0,0,5,2.2l-.72,1.44a8.45,8.45,0,0,1-1.43-.33v7.59H95.34a40.28,40.28,0,0,1,5.72,1.33l-.57,1.39a36.94,36.94,0,0,0-6.19-1.61l.57-1.11H90.62l.76,1a20.13,20.13,0,0,1-5.89,1.72l-.8-1.35a25,25,0,0,0,5.48-1.35H86.76v-7.65h4.46l-.7-1.07c2.48-.44,3.95-1.52,4.41-3.22Zm-6.35,1.44V268H84.71v-1.5Zm-.39-3.33v1.48H85.08v-1.48Zm7.61,8.1v-.87h-8.8v.87Zm0,2v-.82h-8.8v.82Zm0,1.15h-8.8v.91h8.8Zm-6.35-7.76-1-1.28a6.82,6.82,0,0,0,2.67-3.26l1.61.19c-.11.3-.22.59-.35.87h6.5v1.22a10.39,10.39,0,0,1-1.59,2.43l-1.2-.94a7.52,7.52,0,0,0,1-1.26H93A9.61,9.61,0,0,1,90.93,266.65Zm7.91,2.43A8.88,8.88,0,0,1,95.49,267a6.34,6.34,0,0,1-3.37,2.07Z"/><path d="M107.34,264.45a17.86,17.86,0,0,0-.76-1.82l1.69-.46a14.44,14.44,0,0,1,.72,2.28h2.26v1.63h-6.41v-1.63ZM110.73,279h-1.61v-.8h-2.19v.94h-1.61v-6.63h5.41Zm-.17-11.82v1.54h-5.08v-1.54Zm0,2.57v1.56h-5.08v-1.56Zm-1.44,6.85v-2.5h-2.19v2.5Zm4.5-6.95v-5.06h-2v-1.69h7.87v6a37.31,37.31,0,0,0,.46,7.28c.13.57.26.87.37.87a2.2,2.2,0,0,0,.17-.76c0-.52.06-1.13.06-1.85l1.37.67a10.26,10.26,0,0,1-.5,3.43.83.83,0,0,1-.7.54,2,2,0,0,1-1.72-1.26c-.81-1.46-1.22-4.43-1.22-8.91v-4.3h-2.44v5.06h2.06v1.69h-2.06v7.85h-1.7v-7.85h-2.06v-1.69Z"/><path d="M134.79,269.8a2.43,2.43,0,0,1,.46,1.52,3.9,3.9,0,0,1-.83,2.48,4.16,4.16,0,0,1-2.22,1.43v-1.15a2.72,2.72,0,0,0,1.26-.87,2.26,2.26,0,0,0,.46-1.3,1.38,1.38,0,0,1-.44.07,1.31,1.31,0,0,1-1-.41,1.34,1.34,0,0,1-.39-1,1.3,1.3,0,0,1,.41-1,1.43,1.43,0,0,1,1.06-.39A1.47,1.47,0,0,1,134.79,269.8Z"/><path d="M151.21,266.13c1.5,1.7,2.93,3.48,4.26,5.33l-1.11,1.2c-.24-.37-.46-.69-.67-1v7.58h-1.63v-.94h-3.3v.94h-1.65v-7.41l-.65.61-1-1.37a29.49,29.49,0,0,0,4.35-5Zm-1.28-2.61a21.3,21.3,0,0,1-3.19,3.35l-1.19-1.13a19.39,19.39,0,0,0,3.13-3.17Zm3.63,8q-1.67-2.39-2.83-3.78a29.22,29.22,0,0,1-3.24,3.78Zm-1.5,5.22v-3.63h-3.3v3.63ZM155,265.3l-1.2,1.19a18.64,18.64,0,0,0-3-3l1.11-1.06A24,24,0,0,1,155,265.3ZM158.69,277l-.44-1.7,1.15.07c.44,0,.69-.24.69-.72V265h-2.56v14.23h-1.67V263.39h5.87V275c0,1.32-.59,2-1.78,2Z"/><path d="M172.21,273.19l-1.35.35-.19-.87a23.91,23.91,0,0,1-4.33,1l-.43-1.43a2.37,2.37,0,0,0,.72-.44,17.3,17.3,0,0,0,2-2.91l-2.35.35-.41-1.43a1.44,1.44,0,0,0,.67-.59,30.48,30.48,0,0,0,2-5l1.57.63a28.9,28.9,0,0,1-2.32,4.78c.54-.07,1.09-.15,1.65-.26.35-.69.72-1.43,1.11-2.2l1.52.57a41.22,41.22,0,0,1-3.82,6.21q1.06-.19,2.17-.5c-.15-.52-.28-1-.43-1.52l1.28-.41A32.32,32.32,0,0,1,172.21,273.19Zm-4.33,1.43a34.84,34.84,0,0,1-.46,4.39l-1.46-.46a21.71,21.71,0,0,0,.54-4.11Zm2.37,3.45-1.48.35c-.07-1.44-.19-2.74-.31-3.87l1.3-.26Q170,276,170.25,278.06Zm2.07-1.72a18.57,18.57,0,0,0,.61-2.52l1.44.31a21.69,21.69,0,0,1-1.32,4.61l-1.33-.83c.17-.41.33-.83.48-1.24l-1.15.54a25,25,0,0,0-.76-3l1.24-.43A23.13,23.13,0,0,1,172.32,276.34Zm3.39-12.69a6.94,6.94,0,0,0,.52-1.43l1.72.22a6.32,6.32,0,0,1-.5,1.2h4.63v8.54H177.7a24.1,24.1,0,0,1,1.8,2.83l-1.22.83a25,25,0,0,0-1.78-2.95l1.15-.72h-4.87v-8.54Zm4.83,1.37h-6.24v5.8h1.93l-.69-.89a21.74,21.74,0,0,0,1.87-1.44q-.33-.31-.67-.56a19.06,19.06,0,0,1-1.69,1.26l-.74-1c.52-.33,1-.69,1.44-1-.33-.26-.69-.5-1-.72l.78-.93c.41.26.8.54,1.19.82q.56-.56,1.06-1.17l.87.78c-.33.41-.65.78-1,1.11.22.19.44.35.65.54.41-.44.8-.89,1.15-1.33l.85.78a16,16,0,0,1-1.11,1.35c.35.33.69.67,1,1l-.83,1a15.51,15.51,0,0,0-1.06-1.15,22.12,22.12,0,0,1-1.91,1.52h4.15Zm-4.21,14c-1,0-1.54-.56-1.54-1.63v-3.74h1.57v3.43c0,.26.15.41.48.41h1.48a.67.67,0,0,0,.52-.2,3.65,3.65,0,0,0,.28-1.5l1.46.48a4.13,4.13,0,0,1-.65,2.41,2.21,2.21,0,0,1-1.33.35Zm6.69-1.76-1.37.63a27.9,27.9,0,0,0-1.67-4.06l1.43-.46A24.47,24.47,0,0,1,183,277.25Z"/><path d="M186.49,272.13v-1.59H203v1.59h-7.17v1.72H201v1.56h-5.19v2c.85.07,1.85.11,3,.11,1.63,0,3,0,4.13-.07l-.48,1.65c-1.3,0-2.48,0-3.52,0a20,20,0,0,1-6.3-.7,5.8,5.8,0,0,1-2.43-2.22,10.65,10.65,0,0,1-2.67,3.19l-1.15-1.44a9.78,9.78,0,0,0,3.41-5.26l1.67.28c-.19.67-.39,1.28-.61,1.87a5,5,0,0,0,2.48,2.19c.22.07.46.13.74.2v-5Zm14-9.35v6.69H189v-6.69Zm-1.74,2.65v-1.15h-8v1.15Zm0,1.39h-8V268h8Z"/><path d="M44.1,298.32l-.52-1.78a17.08,17.08,0,0,0,3.93-5.89H43.95v-1.59h2c-.26-.8-.54-1.57-.85-2.35l1.67-.44a26.78,26.78,0,0,1,.91,2.8h1.52v1.43a14.84,14.84,0,0,1-1.8,3.87v.07a6.37,6.37,0,0,1,.52.48,7.24,7.24,0,0,0,1.17-1.61l1,1a6.5,6.5,0,0,1-1.26,1.56c.37.41.72.83,1.07,1.3l-.94,1.44a21.77,21.77,0,0,0-1.56-2.26v7.09h-1.7v-6.8C45.21,297.17,44.67,297.75,44.1,298.32Zm12.06-12v2.09h4v.83a20.1,20.1,0,0,1-.7,3.22L57.88,292a15.21,15.21,0,0,0,.57-2h-2.3v3.43h3.22v1.52a11.06,11.06,0,0,1-2.11,4.76,16.19,16.19,0,0,0,3.58,2.15l-1,1.54a17.33,17.33,0,0,1-3.72-2.46,12.9,12.9,0,0,1-4.08,2.48l-.89-1.57a11.74,11.74,0,0,0,3.72-2.17,10.78,10.78,0,0,1-2.37-4.61H52a15.5,15.5,0,0,1-2.17,8.26l-1.43-1.24A13,13,0,0,0,50.3,295v-6.61h4.11V286.3ZM52,290v3.43h2.43V290Zm5.74,5.06H54.1A8.77,8.77,0,0,0,56,298.51,10.08,10.08,0,0,0,57.73,295.06Z"/><path d="M66.52,291.1v-4.74h1.76v4.74h2.22v1.69H68.28v5.69a25.91,25.91,0,0,0,2.46-.89v1.72a51.3,51.3,0,0,1-6.43,2l-.44-1.76c.91-.15,1.8-.33,2.65-.56v-6.19H64.13V291.1ZM75.91,301a71.78,71.78,0,0,0,2.09-9.3l1.72.46A66.07,66.07,0,0,1,77.62,301H81v1.7H70.12V301Zm-1-11.91a22.88,22.88,0,0,0-1-2.59l1.82-.3a29.46,29.46,0,0,1,.94,2.89h3.93v1.69H70.8v-1.69Zm0,10.76-1.59.41a67.16,67.16,0,0,0-1.87-7.84l1.61-.52A70.73,70.73,0,0,1,74.93,299.9Z"/><path d="M86.67,291.08v-4.71h1.74v4.71h2.07v1.7H88.41v5.54c.63-.22,1.26-.48,1.87-.74v1.74a38.26,38.26,0,0,1-5.56,1.82l-.44-1.74c.81-.15,1.61-.33,2.39-.54v-6.08H84.62v-1.7ZM90,303.32l-1.3-1.13q2.95-3.75,3-12v-1.61H90.17v-1.67H99v.93A26.05,26.05,0,0,1,98.1,292h2.61v1.54a13.51,13.51,0,0,1-2.65,6,11.69,11.69,0,0,0,3.33,2.13l-.85,1.54a12.41,12.41,0,0,1-3.63-2.41,14.1,14.1,0,0,1-4.11,2.63l-.89-1.57a12.87,12.87,0,0,0,3.82-2.39,13.58,13.58,0,0,1-2.46-5.85h0Q92.62,300,90,303.32Zm3.39-14.75v1.61c0,.61,0,1.2-.06,1.8h3.09a31,31,0,0,0,.72-3.41Zm3.46,9.69A12.59,12.59,0,0,0,99,293.63h-4.3A11.7,11.7,0,0,0,96.86,298.27Z"/><path d="M116.79,289.15c-.07.26-.15.5-.24.74a8.63,8.63,0,0,0,5,2.2l-.72,1.44a8.45,8.45,0,0,1-1.43-.33v7.59h-3.67a40.28,40.28,0,0,1,5.72,1.33l-.57,1.39a37,37,0,0,0-6.19-1.61l.57-1.11H111l.76,1a20.13,20.13,0,0,1-5.89,1.72l-.8-1.35a25,25,0,0,0,5.48-1.35h-3.41v-7.65h4.46l-.7-1.07c2.48-.44,3.95-1.52,4.41-3.22Zm-6.35,1.44v1.5h-5.35v-1.5Zm-.39-3.33v1.48h-4.59v-1.48Zm7.61,8.1v-.87h-8.8v.87Zm0,2v-.82h-8.8v.82Zm0,1.15h-8.8v.91h8.8Zm-6.35-7.76-1-1.28a6.82,6.82,0,0,0,2.67-3.26l1.61.19c-.11.3-.22.59-.35.87h6.5v1.22a10.39,10.39,0,0,1-1.59,2.43l-1.2-.94a7.52,7.52,0,0,0,1-1.26h-5.52A9.61,9.61,0,0,1,111.3,290.73Zm7.91,2.43a8.88,8.88,0,0,1-3.35-2.07,6.34,6.34,0,0,1-3.37,2.07Z"/><path d="M127.71,288.52a17.86,17.86,0,0,0-.76-1.82l1.69-.46a14.43,14.43,0,0,1,.72,2.28h2.26v1.63h-6.41v-1.63Zm3.39,14.58h-1.61v-.8H127.3v.94h-1.61v-6.63h5.41Zm-.17-11.82v1.54h-5.08v-1.54Zm0,2.57v1.56h-5.08v-1.56Zm-1.44,6.85v-2.5H127.3v2.5Zm4.5-6.95v-5.06h-2V287h7.87v6a37.31,37.31,0,0,0,.46,7.28c.13.57.26.87.37.87a2.2,2.2,0,0,0,.17-.76c0-.52.06-1.13.06-1.85l1.37.67a10.25,10.25,0,0,1-.5,3.43.83.83,0,0,1-.7.54,2,2,0,0,1-1.72-1.26c-.81-1.46-1.22-4.43-1.22-8.91v-4.3h-2.44v5.06h2.06v1.69h-2.06v7.85H134v-7.85h-2.06v-1.69Z"/><path d="M148.51,301c1.56-.37,3.09-.8,4.63-1.3l.44,1.65c-2.11.67-4.39,1.26-6.82,1.78l-.54-1.65a1.18,1.18,0,0,0,.52-1V286.58h1.76v4.95h4.61v1.72h-4.61Zm7.78,1.89c-1.33,0-2-.7-2-2.11V286.52h1.76v5.17l5.56-.35V293l-5.56.37v7a.65.65,0,0,0,.72.74h2.63a1,1,0,0,0,.74-.33c.26-.26.43-1.33.5-3.19l1.69.56c-.2,2.26-.48,3.61-.85,4a2.28,2.28,0,0,1-1.63.63Z"/><path d="M182.64,287.15v1.72h-7.89v2.43c2.26,1.09,4.56,2.35,6.89,3.76l-1.06,1.59c-2.33-1.52-4.28-2.69-5.84-3.48V303.4H173V288.87h-6.93v-1.72Z"/><path d="M202.46,302.49l-1.5,1c-.28-.5-.57-1-.87-1.52q-6.42.58-12.15.89l-.31-1.43c1.52-.82,3.09-2.78,4.69-5.85h-5.87v-1.72h7.41v-3.06H187.6v-1.7h6.24v-2.8h1.78v2.8h6.21v1.7h-6.21v3.06H203v1.72h-8.76a21.77,21.77,0,0,1-3.61,5.63c4-.3,6.82-.54,8.52-.7-.74-1.11-1.56-2.24-2.45-3.43l1.41-.91A51.45,51.45,0,0,1,202.46,302.49Z"/><rect class="cls-2" x="96.78" y="405.15" width="538.94" height="231.02"/><path d="M635.72,633.16H105c-2.24,0-5-.46-7.26,0a4.88,4.88,0,0,1-.92,0l3,3v-231l-3,3H627.53c2.24,0,5,.46,7.26,0a4.88,4.88,0,0,1,.92,0l-3-3v231c0,3.86,6,3.87,6,0v-231a3,3,0,0,0-3-3H118.59c-6.92,0-14-.41-20.88,0-.31,0-.62,0-.92,0a3,3,0,0,0-3,3v231a3,3,0,0,0,3,3H613.91c6.92,0,14,.41,20.88,0,.31,0,.62,0,.92,0C639.58,639.16,639.58,633.16,635.72,633.16Z"/><rect class="cls-2" x="96.78" y="636.16" width="538.94" height="12.19"/><path d="M635.72,633.16H118.59c-6.92,0-14-.41-20.88,0-.31,0-.62,0-.92,0a3,3,0,0,0-3,3v12.19a3,3,0,0,0,3,3H613.91c6.92,0,14,.41,20.88,0,.31,0,.62,0,.92,0a3,3,0,0,0,3-3V636.16c0-3.86-6-3.87-6,0v12.19l3-3H105c-2.24,0-5-.46-7.26,0a4.88,4.88,0,0,1-.92,0l3,3V636.16l-3,3H613.91c6.92,0,14,.41,20.88,0,.31,0,.62,0,.92,0C639.58,639.16,639.58,633.16,635.72,633.16Z"/><path class="cls-1" d="M443.64,49.2c0,17.44-2.13,46.66,4.28,63.58,2.38,6.29,7.16.41,16.85,3.29,6.5,1.94,16.79,1.52,24.07,1.76,18.78.62,35.72-1.36,54.23,0,12,.9,31.55.77,43.66,1.16,4.12.13,21.52,2.85,25.44,1.75,13.14-3.69,8.91-19.4,8.91-28,0-16.8-1.49-33.38-1.49-50.19,0-6.34,5.73-25.84-1.3-30.84s-46.85-2.83-56.93-3.36c-11.65-.61-48.85.89-57.19.2,0,0-60.43-1.82-61.16,3.55S443.64,49.2,443.64,49.2Z"/><path d="M440.64,49.2c0,12.46-.67,24.92-.08,37.38a124,124,0,0,0,2,18.3c.78,3.93,1.63,10.16,5.19,12.72,3.41,2.45,8.05.47,11.86.64,3.07.14,6,1.25,9.05,1.68a88.3,88.3,0,0,0,10.21.74c15.47.39,30.87-.14,46.33-.29,14-.14,28,1.08,42,1.29,10.47.16,20.7.45,31.1,1.57,8.21.88,17.79,2.44,23.21-5.47,5.29-7.72,2.61-18.23,2.53-26.93-.15-16.23-2.28-32.68-1.46-48.89.45-8.8,4-18.08,1.3-26.85-2.24-7.26-9.19-8.15-15.78-8.86-9.75-1-19.65-.91-29.45-.84-29.45.19-58.9.22-88.35-.08-8.27-.08-16.55-.07-24.82.21-6.62.23-13.81.18-20.24,1.94-5.44,1.49-5.45,5-5.48,10.06-.05,8.61.29,17.23.61,25.84q.11,2.91.23,5.82c.16,3.85,6.16,3.87,6,0q-.35-8.26-.59-16.53c-.12-4.16-.23-8.33-.25-12.49,0-1.4,0-2.81,0-4.21a14.7,14.7,0,0,0,.05-2c-.28-2.27.85-.46-.48-.24,2.9-.49,9-1.63,13.21-1.89,7.37-.45,14.76-.55,22.14-.57,9.83,0,19.64.41,29.46.48,17.05.12,34.12-1,51.16-.38,16.17.57,32.62-1.22,48.69,1.09,2,.29,5.13.49,6.74,1.9,3.08,2.7,2.06,9.33,1.73,12.87-.39,4.16-1.23,8.25-1.7,12.39-.68,6-.12,12.34.1,18.41.5,13.42.46,27,1.47,40.38.59,7.79,1.21,19.6-9.62,19.6-7.8,0-15.5-1.76-23.28-2-11.95-.43-23.91-.24-35.85-.75-15.9-.68-31.56-.56-47.47-.32-7.47.12-15-.07-22.43-.23a68.51,68.51,0,0,1-11.57-.88c-2.64-.51-5.15-1.37-7.85-1.54-2.49-.16-5.18.82-7.59.53-2.67-.32-2.78-3.12-3.44-5.59a95.68,95.68,0,0,1-2.65-19.08c-.73-13,0-25.94,0-38.91C446.65,45.34,440.65,45.33,440.64,49.2Z"/><path class="cls-1" d="M457.48,26.6q-1.37,17.8-2,35.66a4.25,4.25,0,0,0,.64,3c.94,1.15,2.76,1.29,4.33,1.32q11.72.2,23.42-.15c1.54,0,3.26-.17,4.26-1.2a4.71,4.71,0,0,0,1-3,206.42,206.42,0,0,0,.35-33.48,3.92,3.92,0,0,0-.86-2.61,5.06,5.06,0,0,0-3.38-1,158.5,158.5,0,0,0-27.71,1.49"/><path d="M454.48,26.6q-.94,12.37-1.57,24.75c-.23,4.72-2.66,14.12,2.5,17.15,2,1.19,4.69,1,6.94,1.07,3.9.07,7.81.06,11.71,0,4.55,0,12.94,1.41,16.37-2.58,1.43-1.66,1.53-3.7,1.73-5.78.41-4.24.61-8.52.72-12.78q.15-5.91,0-11.83c-.1-3.19.25-7-.71-10.07-1.6-5.16-7.76-4.56-12.06-4.57a172.42,172.42,0,0,0-22.59,1.62c-3.78.49-3.82,6.5,0,6,4.88-.63,9.77-1.14,14.69-1.4,2.34-.13,4.69-.2,7-.22q1.73,0,3.45,0c1.91,0,2.15-.26,3.23,1.39,1.53,2.32,1,6.51,1,9.19s.07,5.26,0,7.89-.13,5.25-.27,7.87c-.1,1.9.33,7.06-.93,8.38s-4.94.74-6.77.77q-3.9.08-7.81.1t-7.81,0c-3.8,0-4.8.52-4.82-3.31,0-11.19,1.12-22.52,2-33.67.29-3.85-5.71-3.83-6,0Z"/><path class="cls-3" d="M464.44,53.55a40.07,40.07,0,0,0-.3,4.85.64.64,0,0,0,.67.82,38,38,0,0,0,5.32.28.69.69,0,0,0,.85-.81l0-4.15a.9.9,0,0,0-.2-.71.87.87,0,0,0-.46-.16A13.85,13.85,0,0,0,465,54"/><path class="cls-2" d="M464.87,42.24a40.07,40.07,0,0,0-.3,4.85.64.64,0,0,0,.67.82,38,38,0,0,0,5.32.28.69.69,0,0,0,.85-.81l0-4.15a.9.9,0,0,0-.2-.71.87.87,0,0,0-.46-.16,16.61,16.61,0,0,0-5.93-.12"/><path d="M533.2,5.67c-1.21,5.21,1.56,12.32,8,11.39,4.83-.7,8.8-6.27,7.22-11-1.28-3.87-5.59-6.21-9.53-6-4.72.23-8,3.93-8.87,8.39-.7,3.52.59,7.13,4.23,8.3a10.57,10.57,0,0,0,8.51-1.3c2.76-1.72,4.58-4.81,3.68-8.09-1.3-4.76-7-7.33-11-3.94-4.76,4-1.68,12.28,4.63,12.26a6.31,6.31,0,0,0,5.74-4.71,8.38,8.38,0,0,0-1.78-8c-1.42-1.69-4.58-.79-5,1.32a19.82,19.82,0,0,1-.83,2.84c-1.06,2.85,3,5,5,2.92a3.85,3.85,0,0,0,1.26-3.76,3.22,3.22,0,0,0-.89-1.51,7.47,7.47,0,0,0-.7-.55q-.85-.49.65.78c-1.78-3.43-7-.4-5.18,3a3.09,3.09,0,0,0,.82.93c1.06.92-.3-.5-.45-1V6.34l.25-.59,5,2.92a19.82,19.82,0,0,0,.83-2.84l-5,1.32a2.15,2.15,0,0,1,.3,2c-.06.2-.1.42-.25.52-.46.29.13,0,.07-.06-1-.34-1.22-1.88-.15-1.82.51,0,.84,1.07.83,1,.21.5.06.4.06.3,0,.25,0-.13,0-.11a2.74,2.74,0,0,1-.16.55c.21-.69-.41.39.06-.12-.19.21-.38.42-.59.61s.38-.26,0,0a4.51,4.51,0,0,1-.43.28c-.14.08-1.13.56-.58.34a9.2,9.2,0,0,1-1,.33c-.17,0-.93.18-.63.14a3.51,3.51,0,0,1-1.24-.07c-.69-.21,0-.05-.31-.13s0,0,0,.06-.16-.42,0-.09c-.17-.49-.18.07-.05-.69.2-1.18.74-3.23,2.34-4a4,4,0,0,1,3.8.69,1.94,1.94,0,0,1,.89,1.37c0-.17,0,.19-.06.42a3.61,3.61,0,0,1-.62,1.15c-2.29,2.93-3.71-.08-3.14-2.55.87-3.76-4.91-5.36-5.79-1.6Z"/><path class="cls-4" d="M523.19,36.31l14.75,26.06,32.85,2.28S565.78,26.59,523.19,36.31Z"/><path class="cls-2" d="M537.94,62.37l-6.29,32.92s40.55,2.54,38.63-29.1Z"/><path class="cls-3" d="M521.63,37.95l16.31,24.43-6.29,32.92S504.59,89,504.59,69.42,512.76,40.84,521.63,37.95Z"/><path d="M532,31.25c-6.39,1.32-13.22,2.4-18.7,6.21S504.18,47.6,502.42,54C498.62,67.94,502.19,84,515,91.7c6.63,4,14.81,7.28,22.63,7.3s16.18-3.31,22.92-7.13a23.1,23.1,0,0,0,11.64-15.34c1.55-6.83,2.06-15.61.28-22.4-2.1-8-9.84-14.39-16.74-18.39A34.19,34.19,0,0,0,532,31.25c-3.79.7-2.19,6.48,1.6,5.79,7.81-1.44,15.41,1.2,21.82,5.62,3.44,2.37,7.27,5.54,9.5,9.17s2.32,7.67,2.31,11.79c0,7.11-.14,15.22-5.83,20.37s-16.22,9-23.81,9-16.44-3.72-22.39-8.39c-6.38-5-8.33-13.14-8.17-20.94.16-7.41,2.69-15.63,8.61-20.46,5-4.05,11.86-4.91,17.95-6.17,3.78-.78,2.18-6.57-1.6-5.79Z"/><path class="cls-1" d="M539.14,62.27q14.59,2,29.33,2.72"/><path d="M538.34,65.16c10,1.37,20,2.34,30.12,2.83,3.86.19,3.85-5.81,0-6-9.55-.46-19.06-1.31-28.53-2.61-3.78-.52-5.41,5.26-1.6,5.79Z"/><path class="cls-1" d="M523.19,37.95l15.33,24"/><path d="M520.6,39.46l15.33,24c2.07,3.24,7.27.24,5.18-3l-15.33-24c-2.07-3.24-7.27-.24-5.18,3Z"/><path class="cls-1" d="M537.94,62.37a314.05,314.05,0,0,0-6.29,31.49"/><path d="M535,61.58q-3.91,15.59-6.29,31.49c-.57,3.78,5.21,5.41,5.79,1.6q2.39-15.9,6.29-31.49c.94-3.75-4.85-5.34-5.79-1.6Z"/><path d="M565.43,44.86c.79-1.93,1.44-3.9,2.2-5.84l-1.45,1.1c3.77-.16,7.49.19,11.25.26,1.93,0,1.93-3,0-3-3.76-.08-7.48-.42-11.25-.26a1.57,1.57,0,0,0-1.45,1.1c-.76,1.94-1.41,3.92-2.2,5.84s2.17,2.56,2.89.8Z"/><path d="M585.51,37c6.49.86,13,.35,19.54.31a1.5,1.5,0,0,0,0-3H603.3a1.5,1.5,0,0,0,0,3H605v-3c-6.52,0-13.05.55-19.54-.31-1.91-.25-1.89,2.75,0,3Z"/><path d="M584.43,43.79c7,0,13.93-.51,20.86.31v-3h-1.45a1.5,1.5,0,0,0,0,3h1.45c2,0,1.87-2.78,0-3-6.93-.82-13.9-.35-20.86-.31a1.5,1.5,0,0,0,0,3Z"/><path d="M584.43,50.41c7,0,13.93-.51,20.86.31v-3h-1.45a1.5,1.5,0,0,0,0,3h1.45c2,0,1.87-2.78,0-3-6.93-.82-13.9-.35-20.86-.31a1.5,1.5,0,0,0,0,3Z"/><path d="M580,88.17c6.49.86,13,.35,19.54.31a1.5,1.5,0,0,0,0-3h-1.75a1.5,1.5,0,0,0,0,3h1.75v-3c-6.52,0-13.05.55-19.54-.31-1.91-.25-1.89,2.75,0,3Z"/><path d="M578.92,95c7,0,13.93-.51,20.86.31v-3h-1.45a1.5,1.5,0,0,0,0,3h1.45c2,0,1.87-2.78,0-3-6.93-.82-13.9-.35-20.86-.31a1.5,1.5,0,0,0,0,3Z"/><path d="M578.92,101.6c7,0,13.93-.51,20.86.31v-3h-1.45a1.5,1.5,0,0,0,0,3h1.45c2,0,1.87-2.78,0-3-6.93-.82-13.9-.35-20.86-.31a1.5,1.5,0,0,0,0,3Z"/><path d="M477,84.41c6.49.86,13,.35,19.54.31a1.5,1.5,0,0,0,0-3h-1.75a1.5,1.5,0,0,0,0,3h1.75v-3c-6.52,0-13.05.55-19.54-.31-1.91-.25-1.89,2.75,0,3Z"/><path d="M475.91,91.23c7,0,13.93-.51,20.86.31v-3h-1.45a1.5,1.5,0,0,0,0,3h1.45c2,0,1.87-2.78,0-3-6.93-.82-13.9-.35-20.86-.31a1.5,1.5,0,0,0,0,3Z"/><path d="M475.91,96.73c7,0,13.93-.51,20.86.31V94h-1.45a1.5,1.5,0,0,0,0,3h1.45c2,0,1.87-2.78,0-3-6.93-.82-13.9-.35-20.86-.31a1.5,1.5,0,0,0,0,3Z"/><path d="M560,90.88c.79,1.93,1.44,3.9,2.2,5.84a1.57,1.57,0,0,0,1.45,1.1c3.77.16,7.49-.19,11.25-.26,1.93,0,1.93-3,0-3-3.76.08-7.48.42-11.25.26l1.45,1.1c-.76-1.94-1.41-3.92-2.2-5.84-.72-1.76-3.63-1-2.89.8Z"/><path d="M489.59,79.23l5-7.43-1.3.74h11.5a1.5,1.5,0,0,0,0-3h-5.43c-1.84,0-4.22-.42-6,0-1.5.35-2.14,1.93-3,3.16l-3.38,5c-1.08,1.6,1.52,3.11,2.59,1.51Z"/><path d="M463.79,30.93a34.87,34.87,0,0,0-.3,4.58A2.33,2.33,0,0,0,465,38a16.72,16.72,0,0,0,4.11.37c1.21,0,2.9.28,3.76-.8.73-.93.47-2.48.48-3.56s.3-2.72-.5-3.7-2.08-.85-3.12-.89a16.28,16.28,0,0,0-4.33.47c-1.88.44-1.08,3.34.8,2.89a12.93,12.93,0,0,1,2.54-.37c.33,0,.66,0,1,0l.49,0q.79.27.32-.24c-.26-.87-.19.73-.19.76v1l0,1.3v.52q-.1.83.65-.43c0-.06-4.79-.21-4.79-.22q.36,1.09.3.35,0-.27,0-.54,0-.68.05-1.35c0-.9.14-1.8.24-2.69.22-1.91-2.78-1.9-3,0Z"/><path d="M475.51,36.25l7.72,0a1.5,1.5,0,0,0,0-3l-7.72,0a1.5,1.5,0,0,0,0,3Z"/><path d="M463.37,42.24a29.65,29.65,0,0,0-.3,4.85,2.2,2.2,0,0,0,1.77,2.26,22.93,22.93,0,0,0,4.65.34c1.21,0,2.62,0,3.19-1.25s.25-2.69.26-3.92.17-2.65-1-3.36a8.71,8.71,0,0,0-3.42-.59,13.34,13.34,0,0,0-4,.21c-1.88.42-1.09,3.31.8,2.89a12.81,12.81,0,0,1,4.31,0l.63.09q.62.16-.25-.54a9.51,9.51,0,0,0,0,1l0,1.56c0,.34-.16,1,0,1.3q-.09.59.32-.09.74-.54-.21-.34a5.76,5.76,0,0,0-1.33,0l-1.33-.06c-.35,0-1-.24-1.33-.11q-.49-.16-.11.28.27.73.16-.23a10.45,10.45,0,0,0,0-1.35c0-1,.14-2,.25-3,.22-1.91-2.78-1.9-3,0Z"/><path d="M475.08,47.56l7.72,0a1.5,1.5,0,0,0,0-3l-7.72,0a1.5,1.5,0,0,0,0,3Z"/><path d="M462.94,53.55a34.87,34.87,0,0,0-.3,4.58,2.33,2.33,0,0,0,1.51,2.49,16.72,16.72,0,0,0,4.11.37c1.21,0,2.9.28,3.76-.8.73-.93.47-2.48.48-3.56s.3-2.72-.5-3.7-2.08-.85-3.12-.89a16.28,16.28,0,0,0-4.33.47c-1.88.44-1.08,3.34.8,2.89a12.93,12.93,0,0,1,2.54-.37c.33,0,.66,0,1,0l.49,0q.79.27.32-.24c-.26-.87-.19.73-.19.76v1l0,1.3v.52q-.1.83.65-.43c0-.06-4.79-.21-4.79-.22q.36,1.09.3.35,0-.27,0-.54,0-.68.05-1.35c0-.9.14-1.8.24-2.69.22-1.91-2.78-1.9-3,0Z"/><path d="M474.65,58.87l7.72,0a1.5,1.5,0,0,0,0-3l-7.72,0a1.5,1.5,0,0,0,0,3Z"/><rect x="161.24" y="452.05" width="410.01" height="103.43" rx="51.71" ry="51.71"/><path class="cls-5" d="M414.67,210.15a107.71,107.71,0,0,1,10,33.85s46.54,4.09,57.33,37.26,29,63.79-6.7,95.51c-2.46,2.19-4.68,4.31-6.68,6.35h53S522.62,222.38,414.67,210.15Z"/><path class="cls-5" d="M283.27,354.4c-3.79-25.09-8.52-66.49,47.42-103.21,0,0,7.17-.43,6.24-9.22-.52-4.95-2.3-15.51,1-25.72-64.55,17.19-74.57,68-87.3,166.86h59C298.89,378.14,285.48,369.1,283.27,354.4Z"/><path class="cls-2" d="M626.19,240.2c.56,12.08,9.28,14.73,19.56,16.24,10.63,1.57,24.4,2,33.46-4.76,5.07-3.79,3.83-13.28,1.57-18.34-5.23,3.11-7.87,8.18-14.17,10.28a52.61,52.61,0,0,1-15.16,3.07c-5.62.18-10.69-1.61-15.8-3.71-3.56-1.46-8.73-5.24-11.62-5.68"/><path d="M589.6,203.59c0,18.79-.79,37.57-.28,56.36a228,228,0,0,0,2,26.79c.7,4.81.43,12.14,5,15,8,5,16.82,4.47,25.87,4.93,12.63.65,25.21.84,37.78,2.33,9.74,1.16,19.57.87,29.35,1.37,6.47.33,13.21,3.68,19.71,2.67,14.41-2.24,10.52-28.44,10.28-38-.32-12.67-.33-25.36-.63-38-.27-11.16-.85-22.42-.44-33.58.49-13.67,2.1-27.31,1.41-41-.22-4.43-.25-10.43-3.29-14-3.54-4.19-10.66-4.6-15.68-5-8-.65-16-.2-24-.23-5.65,0-11.28-.36-16.94-.28-8.32.11-16.64.36-25,.53-5.83.12-12,.65-17.78-.11-3.82-.5-3.78,5.5,0,6,11,1.45,22.87,0,33.94-.26,10.14-.22,20.25.22,30.37.07,7-.1,14-.31,21,.43,4.75.5,9.48.79,10.59,6,2.63,12.24.63,26.14-.14,38.51-1.08,17.6-.26,35.21.14,52.82.24,10.34.09,20.7.5,31,.3,7.52,1.22,15.73-.91,23.06-.7,2.42-1.91,5.61-4.62,6.22-3.23.73-7.89-1.05-11.08-1.71-7.1-1.47-14.32-1.27-21.54-1.49-9.81-.3-19.46-1.7-29.25-2.29-11.11-.68-22.26-.91-33.38-1.36-4-.16-10.49-.7-13.55-3.89.22.23-.14-.36-.25-1.32-.21-1.81-.61-3.6-.94-5.39-1.7-9.06-2.19-18.33-2.48-27.53-.63-19.53.19-39.06.22-58.59,0-3.86-6-3.87-6,0Z"/><path d="M646.64,141.2c-1.21,5.21,1.56,12.32,8,11.39,4.83-.7,8.8-6.27,7.22-11-1.28-3.87-5.59-6.21-9.53-6-4.72.23-8,3.93-8.87,8.39-.7,3.52.59,7.13,4.23,8.3a10.57,10.57,0,0,0,8.51-1.3c2.76-1.72,4.58-4.81,3.68-8.09-1.3-4.76-7-7.33-11-3.94-4.76,4-1.68,12.28,4.63,12.26a6.31,6.31,0,0,0,5.74-4.71,8.38,8.38,0,0,0-1.78-8c-1.42-1.69-4.58-.79-5,1.32a19.82,19.82,0,0,1-.83,2.84c-1.06,2.85,3,5,5,2.92a3.85,3.85,0,0,0,1.26-3.76,3.22,3.22,0,0,0-.89-1.51,7.47,7.47,0,0,0-.7-.55q-.85-.49.65.78c-1.78-3.43-7-.4-5.18,3a3.09,3.09,0,0,0,.82.93c1.06.92-.3-.5-.45-1v-1.6l.25-.59,5,2.92a19.82,19.82,0,0,0,.83-2.84l-5,1.32a2.15,2.15,0,0,1,.3,2c-.06.2-.1.42-.25.52-.46.29.13,0,.07-.06-1-.34-1.22-1.88-.15-1.82.51,0,.84,1.07.83,1,.21.5.06.4.06.3,0,.25,0-.13,0-.11a2.74,2.74,0,0,1-.16.55c.21-.69-.41.39.06-.12-.19.21-.38.42-.59.61s.38-.26,0,0a4.51,4.51,0,0,1-.43.28c-.14.08-1.13.56-.58.34a9.2,9.2,0,0,1-1,.33c-.17,0-.93.18-.63.14a3.51,3.51,0,0,1-1.24-.07c-.69-.21,0-.05-.31-.13s0,0,0,.06-.16-.42,0-.09c-.17-.49-.18.07-.05-.69.2-1.18.74-3.23,2.34-4a4,4,0,0,1,3.8.69,1.94,1.94,0,0,1,.89,1.37c0-.17,0,.19-.06.42a3.61,3.61,0,0,1-.62,1.15c-2.29,2.93-3.71-.08-3.14-2.55.87-3.76-4.91-5.36-5.79-1.6Z"/><circle cx="649.33" cy="223.66" r="12.8"/><path d="M620.76,230.37c-.25-6.59,5.44-12.18,10.24-16a33.86,33.86,0,0,1,20.73-7.22,58.69,58.69,0,0,1,21.91,4.14c2.73,1,7.06,2.15,7.45,5.43.33,2.77-1.8,6.78-2.93,9.16-4.48,9.37-9.88,16.46-20.67,18.37-14.85,2.63-29.81-1.41-37.14-15.42-1.79-3.42-7-.39-5.18,3,6.63,12.7,19.09,19.07,33.19,19.08,11.64,0,22.69-2.87,29.7-12.71,4.45-6.25,13.76-21.17,6.47-28-4.33-4-12.22-6-17.81-7.38a55,55,0,0,0-23.25-.8c-12.35,2.42-29.24,14.19-28.71,28.29.15,3.85,6.15,3.87,6,0Z"/><path class="cls-1" d="M540.35,113.18c0,30-5.2,57.63-3.82,87.5,23.32,6.07,53.74,2.62,78.26,1.93.71-17.07.06-35.57.08-53.12,0-12,1.69-30.2-12.28-33.7-18.47-4.63-42.91-2.6-62.25-2.6h3.47"/><path d="M537.35,113.18c-.11,29.23-5,58.24-3.82,87.5a3.07,3.07,0,0,0,2.2,2.89c25.77,6.44,52.87,2.83,79.06,2a3.06,3.06,0,0,0,3-3c.66-17.08.1-34.16.08-51.24,0-9.68,1.26-20.71-3.38-29.61-5.42-10.4-18.84-10.79-29.17-11.53-15-1.08-30-.08-45,0-3.86,0-3.87,6,0,6h3.47c3.86,0,3.87-6,0-6h-3.47v6c13.32,0,26.64-.81,40-.24,10,.43,26-.35,29.93,11.09,3.16,9.26,1.6,20.41,1.67,30,.11,15.18.48,30.37-.11,45.55l3-3c-25.61.77-52.27,4.47-77.46-1.83l2.2,2.89c-1.22-29.26,3.71-58.27,3.82-87.5,0-3.86-6-3.87-6,0Z"/><path d="M551.37,187.33c13.57-.68,27,2.47,40.6,2.47a1.5,1.5,0,0,0,0-3h-.17a1.5,1.5,0,0,0,0,3H592v-3c-13.55,0-27-3.15-40.6-2.47-1.92.1-1.93,3.1,0,3Z"/><path d="M551.63,179.49c2.53-.82,5.65-.28,8.27-.25,4.1,0,8.18,0,12.28.26,7,.36,14.41-.2,21.24,1.54,1.87.48,2.67-2.42.8-2.89-7.12-1.81-14.75-1.28-22-1.64-4.41-.22-8.81-.19-13.22-.26-2.67,0-5.54-.47-8.12.36-1.83.59-1,3.49.8,2.89Z"/><path d="M548.46,165.53c9.6,1.36,19.27,1.08,28.94,1.49,7.58.32,15.4,1,22.94-.09,1.9-.28,1.09-3.17-.8-2.89-7.25,1.06-14.86.29-22.15,0-9.39-.4-18.82-.07-28.14-1.39-1.89-.27-2.7,2.62-.8,2.89Z"/><path d="M562.38,164.33c1-2.84-.35-10-.44-14.67-2.85-.24-5.63-.43-8,1.56.2,4.24-.21,9.34.73,13.38C554.64,164.6,562.1,165.13,562.38,164.33Z"/><path d="M563.82,164.73c1.35-4.74-.23-10.24-.39-15.07a1.54,1.54,0,0,0-1.5-1.5c-2.77-.22-8.56-.47-9.52,3.06-.5,1.83,0,4.83.09,6.77a38.36,38.36,0,0,0,.7,7,1.53,1.53,0,0,0,1.45,1.1c2.16.15,7.17,1.14,8.8-.71,1.27-1.45-.84-3.58-2.12-2.12-.54.61-5.48-.08-6.68-.17l1.45,1.1c-.88-4.27-.52-8.66-.68-13l-.74,1.3c2.3-1.66,4.58-1.56,7.27-1.35l-1.5-1.5c.15,4.49,1.75,9.87.5,14.27A1.5,1.5,0,0,0,563.82,164.73Z"/><path d="M578,164.92c1.36-8.8.36-19.82-.26-25.21-2.1-.45-5.33.8-7.53.86-1.87,7.55,0,16.22-1.16,24.06C569,164.62,577.87,165.8,578,164.92Z"/><path d="M579.45,165.32c1.16-8.51.74-17.1-.21-25.61a1.55,1.55,0,0,0-1.5-1.5c-2.58-.22-5,.61-7.53.86a1.54,1.54,0,0,0-1.45,1.1c-1.71,8.08-.19,16.31-1.22,24.46-.11.88.78,1.41,1.5,1.5,2.5.33,8,1.9,10-.14,1.36-1.38-.76-3.5-2.12-2.12-.66.67-6.65-.58-7.89-.74l1.5,1.5c1-7.87-.54-15.86,1.11-23.66l-1.45,1.1c2.51-.24,5-1.07,7.53-.86l-1.5-1.5c.92,8.22,1.44,16.59.31,24.81C576.3,166.41,579.19,167.23,579.45,165.32Z"/><path d="M591.65,166.44c2.09-.81,1.27-21.75,1.37-32.41-1.56.38-7.09.74-8.19,1.89-1.26,1.32-.56,6.25-.49,7.82.36,7.27,1,15.21-.34,22.47C584,166.21,588.53,167.66,591.65,166.44Z"/><path d="M592.4,167.74c2.81-2,2.07-8.46,2.14-11.37.17-7.44-.07-14.89,0-22.34a1.52,1.52,0,0,0-1.9-1.45c-4.58.89-9.6.3-10,6-.68,9.1,1.46,18.07,0,27.25a1.54,1.54,0,0,0,1,1.85,15.17,15.17,0,0,0,8.45.24,1.5,1.5,0,0,0-.8-2.89,12.13,12.13,0,0,1-6.85-.24l1,1.85c1.19-7.31.88-14.66.43-22-.12-2-1.19-6.42.64-7.88,1.39-1.11,5.21-.9,6.9-1.23l-1.9-1.45c0,6,.1,12,.08,18,0,2,.61,12.19-.7,13.12C589.33,166.26,590.83,168.86,592.4,167.74Z"/><path d="M565,108.72c-.8,4.19-.94,9.57,1.89,13.07,3.6,4.46,9.82,1.81,12.9-1.9a10.3,10.3,0,0,0,.24-12.75c-2.72-3.73-7.66-5.71-11.94-3.36-3.76,2.07-6.61,7.31-5.11,11.55,1.26,3.56,5.21,5.48,8.84,5.24,3.95-.26,7.27-3,7.42-7.11.2-5.56-4.31-9.9-9.66-7.15-1.9,1-4.47,2.84-4.78,5.11a5.48,5.48,0,0,0,9.14,4.3c1.89-2,2.83-6.89.2-8.56-2.8-1.79-5.17,1.6-4.1,4.1.54,1.28,2.16,3.53,3.61,3.79a3,3,0,0,0,3.69-3.69l0-.09-.3,2.31a4.53,4.53,0,0,0,.76-4.88,4.34,4.34,0,0,0-1.36-1.47c-.43-.31-.71-.74-.39-.16-1.86-3.39-7-.36-5.18,3,.35.63,1.31,1.83,2.1,2q.8.6-.24-1-.24-1.88-.86-.59a2.93,2.93,0,0,0-.29,2.4l3.69-3.69c2.08.37,1.22,1.07.88.32.14.32-.17-.24-.23-.33a5.8,5.8,0,0,1-.67-1l-4.1,4.1,0,0-1.49-2.59s-.14,1.92-.15,1.91c.33.37-.47-.07.09-.1l.49-.31c.21-.12.5.07.68,0-.73.29.25-.15,0,.07s-.5-.71-.17,0c-.27-.61.44,2.18-.25,1.73,0,0,.74-.69,1-.91a7,7,0,0,1,1.84-.84c-.05.14-.64-.22-.64-.25s.25.38.25.35a12.4,12.4,0,0,0,.36,1.5c.06.69-.09.94-.33,1.17-.1.09-.44.31,0,0a2.56,2.56,0,0,1-.46.26c.53-.2-.52.13-.71.17-.51.1.7,0-.18,0H571a2.43,2.43,0,0,1-.89-.17,2.37,2.37,0,0,1-1.18-.67c.2.21-.32-.51-.18-.14-.23-.6-.22-.23-.15-.93.11-1.17,1.52-3.61,3.23-3.94a2.59,2.59,0,0,1,1.62.33,5,5,0,0,1,2,1.88,4.16,4.16,0,0,1-.09,5A6.74,6.74,0,0,1,572,118.2c-.21,0-.49-.13-.22.05a2.17,2.17,0,0,1-.54-.78c-.94-2-.84-4.93-.42-7.15.72-3.77-5.06-5.39-5.79-1.6Z"/><path d="M656.89,200.67c3.28-8,5.79-16.31,9-24.35l-1.45,1.1c4.51-.16,9,.13,13.52.23,1.93,0,1.93-3,0-3-4.51-.1-9-.39-13.52-.23a1.57,1.57,0,0,0-1.45,1.1c-3.18,8-5.69,16.35-9,24.35-.73,1.78,2.17,2.56,2.89.8Z"/><path d="M687,174.62c3.38.79,6.79.36,10.22.32a1.5,1.5,0,0,0,0-3h-.88a1.5,1.5,0,0,0,0,3h.88v-3c-3.13,0-6.33.5-9.42-.22-1.88-.44-2.68,2.45-.8,2.89Z"/><path d="M686.88,180.63c3.35,0,6.77-.47,10.08.22l.4-2.95h-.73a1.5,1.5,0,0,0,0,3h.73c1.65,0,2.09-2.59.4-2.95-3.6-.75-7.24-.36-10.88-.32a1.5,1.5,0,0,0,0,3Z"/><path d="M653.88,237.61c5.37,7.88,8.1,17.49,12.55,25.87L669,262c-.75-1.21-1.39-2.53-2.25-3.66-1.16-1.51-3.76,0-2.59,1.51.86,1.13,1.51,2.45,2.25,3.66A1.5,1.5,0,0,0,669,262c-4.45-8.39-7.18-18-12.55-25.87-1.08-1.59-3.68-.09-2.59,1.51Z"/><path d="M666,272.22c6.41,0,12.82-.25,19.23-.27a1.5,1.5,0,0,0,0-3c-6.41,0-12.82.23-19.23.27a1.5,1.5,0,0,0,0,3Z"/><path d="M666.29,278.45a165.14,165.14,0,0,1,21.13.81c1.91.24,1.89-2.76,0-3a165.16,165.16,0,0,0-21.13-.81,1.5,1.5,0,0,0,0,3Z"/><path d="M627.66,256.52a61.35,61.35,0,0,0,33.55,6.23c7.17-.68,18.82-2,22.3-9.48,1.61-3.48-3.56-6.53-5.18-3-2.76,6-15.05,6.51-20.51,6.74a54.67,54.67,0,0,1-27.13-5.65c-3.44-1.73-6.48,3.44-3,5.18Z"/><path d="M628.69,259.67c-2.6,2-5.45,3.72-7.31,6.5-1.08,1.61,1.52,3.11,2.59,1.51,1.55-2.31,4.07-3.76,6.23-5.42,1.51-1.16,0-3.77-1.51-2.59Z"/><path d="M608.9,273c6.15,0,12.28.5,18.42.54a1.5,1.5,0,0,0,0-3c-6.14,0-12.28-.51-18.42-.54a1.5,1.5,0,0,0,0,3Z"/><path d="M608.9,279.85c6.15,0,12.28.5,18.42.54a1.5,1.5,0,0,0,0-3c-6.14,0-12.28-.51-18.42-.54a1.5,1.5,0,0,0,0,3Z"/><circle cx="389.81" cy="230.05" r="2.69"/><path d="M388.05,224.92c2.64-.33,6.33-.6,7.81,2.21,2.34,4.45-2.83,7.49-6.55,7.22a9.6,9.6,0,0,1-4.22-.9c-1.23-.79-1.47-2.1-1.35-3.55a5.77,5.77,0,0,1,4.72-5c1.88-.43,1.08-3.32-.8-2.89a8.69,8.69,0,0,0-6.86,9.13c.25,5.19,5.07,6.46,9.7,6.33,5.09-.15,9.52-4.23,8.71-9.52-.84-5.47-6.55-6.56-11.15-6C386.16,222.16,386.14,225.16,388.05,224.92Z"/><path d="M361.2,224.92c2.64-.33,6.33-.6,7.81,2.21,2.34,4.45-2.83,7.49-6.55,7.22a9.6,9.6,0,0,1-4.22-.9c-1.23-.79-1.47-2.1-1.35-3.55a5.77,5.77,0,0,1,4.72-5c1.88-.43,1.08-3.32-.8-2.89a8.69,8.69,0,0,0-6.86,9.13c.25,5.19,5.07,6.46,9.7,6.33,5.09-.15,9.52-4.23,8.71-9.52-.84-5.47-6.55-6.56-11.15-6C359.31,222.16,359.28,225.16,361.2,224.92Z"/><circle cx="363.16" cy="230.05" r="2.69"/><path d="M386.62,213a3.46,3.46,0,0,0-2.62.68,2.57,2.57,0,0,0-.46,3c.78,1.42,2.94,1.36,4.31,1.08,1.83-.38,3.78-2.45,2.12-4.2a4,4,0,0,0-5.08-.15c-1,1-.22,2.56.9,3.1A2.81,2.81,0,0,0,389,216a1.52,1.52,0,0,0-.66-2.51l-.24-.09a1.51,1.51,0,0,0-1.85,1,1.53,1.53,0,0,0,1,1.85l.24.09-.66-2.51c.05-.05.14-.06.19-.1s0,0,0,0,.07.06.05,0c-.09-.29.36.83.26.3l-.39,1.46q.16-.18,0,0t0,0a1.39,1.39,0,0,1,.27,0h.37l.15,0q.27.09,0,0,.17.12,0,0a.73.73,0,0,1-.15-.75q.32-.48.12-.27t0,0c-.22.08-.54.26-.63.28.18,0-.18,0-.23,0l-.48,0h-.59q.24,0,0,0l-.05,0a.58.58,0,0,1,.38.32c.31.5,0,.46-.2.82-.07.12-.26,0,0,0a5.16,5.16,0,0,0,.68,0,1.5,1.5,0,0,0,0-3Z"/><path d="M366.75,213a3.46,3.46,0,0,0-2.62.68,2.57,2.57,0,0,0-.46,3c.78,1.42,2.94,1.36,4.31,1.08,1.83-.38,3.78-2.45,2.12-4.2a4,4,0,0,0-5.08-.15c-1,1-.22,2.56.9,3.1a2.81,2.81,0,0,0,3.2-.47,1.52,1.52,0,0,0-.66-2.51l-.24-.09a1.51,1.51,0,0,0-1.85,1,1.53,1.53,0,0,0,1,1.85l.24.09-.66-2.51c.05-.05.14-.06.19-.1s0,0,0,0,.07.06.05,0c-.09-.29.36.83.26.3l-.39,1.46q.16-.18,0,0t0,0a1.39,1.39,0,0,1,.27,0h.37l.15,0q.27.09,0,0,.17.12,0,0a.73.73,0,0,1-.15-.75q.32-.48.12-.27t0,0c-.22.08-.54.26-.63.28.18,0-.18,0-.23,0l-.48,0h-.59q.24,0,0,0l-.05,0a.58.58,0,0,1,.38.32c.31.5,0,.46-.2.82-.07.12-.26,0,0,0a5.16,5.16,0,0,0,.68,0,1.5,1.5,0,0,0,0-3Z"/><path d="M372.64,228.26c-.58,2.47-2,7.22.73,9,2.49,1.62,6.06-.05,5.69-3.18a1.55,1.55,0,0,0-1.1-1.45l-.11,0c-1.88-.39-2.69,2.5-.8,2.89l.11,0-1.1-1.45c.06.51-.3,1.14-.91.72-.42-.29-.25-1.13-.25-1.59a17.23,17.23,0,0,1,.64-4.12c.44-1.88-2.45-2.68-2.89-.8Z"/><path d="M362.67,244.47c8.79-2.16,19.08-1.56,28.07-1.56a1.5,1.5,0,0,0,0-3c-9.33,0-19.8-.56-28.86,1.66-1.87.46-1.08,3.35.8,2.89Z"/><path d="M339.9,254.9c0-4.87.36-9.85-.1-14.7a125.43,125.43,0,0,1-1-13.78c.14-9.85,5-18,12.85-23.68,7.16-5.21,17.66-8.05,26.47-8.51a134,134,0,0,1,14,0c4.36.24,9.12,2.9,12.76,5.27s6.61,6.69,8.54,10.51c1.22,2.42,1.46,5,2.42,7.49.75,1.95,1.9,3.73,2.57,5.72,1.29,3.82,1.1,8.41,2,12.43.7,3.05.1,7.42,1.91,10.11,2.15,3.2,7.82,4.08,11.22,5,2.72.75,5.45,1.44,8.16,2.2,1.35.38,3.91.75,4.92,1.58,3,2.45,7.22-1.77,4.24-4.24-2.58-2.14-6.35-2.8-9.51-3.66-2.41-.65-4.83-1.27-7.24-2-1.68-.48-4.62-.82-6-2-1.24-1-.61-.46-.84-2.11s-.46-3.24-.78-4.87c-.76-3.9-1-7.79-1.7-11.67-.63-3.52-2.66-6.45-3.75-9.81-1.35-4.16-2.25-7.33-4.82-11-4.3-6.15-8.7-9.48-15.47-12.71s-14.44-2.3-21.92-2.34c-7.23,0-15.7,2.26-22.37,5a42.22,42.22,0,0,0-16.66,12.35,35.2,35.2,0,0,0-7,20,88.47,88.47,0,0,0,.77,12.84c.68,5.46.38,11,.36,16.49,0,3.86,6,3.87,6,0Z"/><path d="M374.78,247.64c-3.85-.47-5.9,3.27-5,6.67a4.85,4.85,0,0,0,2.94,3.45c2,.64,3.79-.41,5.22-1.67l-2.36-.3c1.85,3,5.3,4.76,8,1.66,1.53-1.74,2.92-5.87.09-7.18-1.74-.8-3.27,1.78-1.51,2.59.19.09.17.24.1.69a4,4,0,0,1-.84,1.83c-1.28,1.59-2.45.25-3.28-1.1a1.52,1.52,0,0,0-2.36-.3c-1.37,1.2-2.79,1.37-3.2-.68-.33-1.67.37-2.87,2.14-2.66s1.9-2.77,0-3Z"/><path class="cls-1" d="M380.49,206.88c6.29-1.53,14-2.55,14.11-10.53.15-8.78-4.08-17.66-12.7-20.53-7.09-2.37-18.85,1-23.26,7.13-4.83,6.74-1.29,16.63,5.1,20.94C363.75,203.89,371.58,209,380.49,206.88Z"/><path d="M381.29,209.78c4.85-1.15,10.47-2.09,13.81-6.18,3.59-4.38,2.83-11.15,1.22-16.19-3.77-11.79-14.72-17.38-26.53-14.47-11.55,2.84-19.87,12.7-14.78,24.7,4.34,10.23,15.89,14.16,26.28,12.14,3.79-.74,2.18-6.52-1.6-5.79-6.68,1.3-14.58-.8-18.25-6.89-5.38-8.91,1.15-16.25,9.94-18.38,8.59-2.08,16.33,1.67,19.15,10.28,1.2,3.67,2.22,9.1-1.18,11.8-2.57,2-6.57,2.46-9.66,3.19C375.94,204.88,377.53,210.67,381.29,209.78Z"/><path d="M376.26,194.8c-3.28.22-6.68-2-4.61-5.69,1-1.83,3.07-1.83,4.52-1.73a3.46,3.46,0,0,1,3.52,3.85c-.16,1.93-2.13,3.1-3.83,3.62s-1.06,3.46.8,2.89c3.24-1,6.24-3.48,6-7.13a6.5,6.5,0,0,0-6.77-6.24c-3.7-.07-6.92,1.61-7.62,5.53-.92,5.11,3.22,8.22,8,7.9C378.18,197.67,378.19,194.67,376.26,194.8Z"/><path class="cls-1" d="M373.64,233.89c-6.85,0-12.56,4.81-15.91,11.36,4.57,1.59,13.83-3.07,18.42-2.86,7.85.35,11.86,2.13,16.94,4,.22-5.42-4.52-10.17-9.48-12.78-2.62-1.38-8.35-3.06-10,.93"/><path d="M373.64,232.39c-7.87.42-13.55,5.4-17.21,12.1a1.52,1.52,0,0,0,.9,2.2c5.26,1.32,10.55-1.36,15.62-2.41,6.7-1.38,13.53,1.25,19.73,3.53a1.51,1.51,0,0,0,1.9-1.45c-.21-6.45-5-11.56-10.62-14.27-3.93-1.89-9.17-2.7-11.63,1.66a1.5,1.5,0,0,0,2.59,1.51c2.05-3.64,7.46-.81,9.75.69,3.68,2.4,6.75,5.81,6.9,10.4l1.9-1.45c-5.7-2.1-11.62-4.2-17.79-4-5.8.16-11.77,4.36-17.56,2.91l.9,2.2c3.13-5.74,7.8-10.25,14.62-10.61,1.92-.1,1.93-3.1,0-3Z"/><path d="M668.44,402.15H83.14c-6.31,0-12.86.52-19.16,0-9.94-.82-10.24-14.59-.11-15.49.38,0,.77,0,1.14,0,2.84-.08,5.7,0,8.54,0H586.93c26.55,0,53.14-.41,79.69,0,.56,0,1.15,0,1.71,0,10,.85,10.31,14.85.11,15.49-3.84.24-3.86,6.24,0,6,17.78-1.11,17.69-26.77-.14-27.49-2-.08-4,0-6,0H144c-26.34,0-52.71-.41-79,0-9.58.15-17.45,8.68-14,18.41,2.35,6.57,8.57,9.07,15,9.07h602.5C672.3,408.15,672.31,402.15,668.44,402.15Z"/><path d="M417,212.3c17.56,2.63,34,8.85,47.81,20.2a107.69,107.69,0,0,1,28.44,36.89c8.33,17.41,12.43,36.46,15.71,55.36,3.42,19.69,6.49,39.45,9.71,59.18.62,3.8,6.4,2.19,5.79-1.6q-4-24.66-8.06-49.31c-2.56-15.57-5.25-31.19-10-46.27-7.86-25-21.84-47.79-43.4-63.13-13.23-9.41-28.43-14.71-44.41-17.1-3.78-.57-5.41,5.21-1.6,5.79Z"/><path d="M253.62,379c2.67-34.19,5.32-69.63,19.82-101.24,13.17-28.71,35-51.19,65.63-60.55,3.68-1.12,2.11-6.92-1.6-5.79-31.52,9.63-54.65,32.4-68.56,61.91-15.54,33-18.49,69.84-21.29,105.67-.3,3.85,5.7,3.83,6,0Z"/><path class="cls-1" d="M266.79,516.72a1.55,1.55,0,0,1-1.73,1.78h-.75q3.89.84,6.93,1.26,1.73.28.28,2.44L270,524.08a2.68,2.68,0,0,1-2.86.61q-6-1.5-8.43-3.28a7,7,0,0,1-2.53-2.81H249a7.79,7.79,0,0,1-2.48,2.81q-2.44,2-8.62,3.47a2.71,2.71,0,0,1-2.81-1.12l-1.92-2.3q-.8-1.26,2.16-1.5a16,16,0,0,0,5.43-1.36h-.66a1.67,1.67,0,0,1-1.78-1.87v-15.6a1.22,1.22,0,0,1,.94-1.36l-1-2.9a.3.3,0,0,1,0-.23l-4.36,2q-1.41.66-1.83-.19L230.35,495q-.52-1,1.12-1.69l11.29-5q-.28-.47.75-1.12a28.11,28.11,0,0,0,5.67-6.18,1.31,1.31,0,0,1,1.69-.84l3.75.8q1.13.28.14,2.15H266a5.46,5.46,0,0,1,2,.37l2.76,1.08q1.31.56.75,2.2a13.33,13.33,0,0,1-2.9,4.26,1.62,1.62,0,0,1-2,.56L264,490.07q-.75-.66.09-1.73h-5.06a10.87,10.87,0,0,0,3.65,4.59q2.81,2.25,10.17,3.42,1.36.19.19,1.87L271.24,501q-.37.61-1.64.33-1.59-.37-3-.8a2.21,2.21,0,0,1,.19,1ZM235.5,480.93q3.09,1.22,6.42,2.9,1.5.75.89,1.83l-1.59,2.72q-.8,1-2.16.14a68.92,68.92,0,0,0-6.37-3q-1.78-.75-1.22-1.69l1.64-2.67Q233.72,480.28,235.5,480.93Zm10.45,10.77q.7,1-1.45,2l-4.36,2q7.17-.84,9.93-3a9.54,9.54,0,0,0,3.56-4.4h-2.81q-1.36,1.26-3,2.62a2,2,0,0,1-2.2.14l-.09,0Zm-2.06,12.37V505h17.38v-.94Zm0,4.5v.89h17.38v-.89Zm0,4.64v.94h17.38v-.94Zm12.55-18.13q-2.76,2.76-9.74,4.5h17.05A22.29,22.29,0,0,1,256.44,495.08Z"/><path class="cls-1" d="M286.83,492.64a1.16,1.16,0,0,1-1.31-1.31v-2.62a1.16,1.16,0,0,1,1.31-1.31h14.9q1.13,0,1.13,1.31v2.62q0,1.31-1.12,1.31Zm12.6-6.37H289.12q-1.55,0-1.55-1.31v-2.25q0-1.69,1.55-1.69h10.31q1.55,0,1.5,1.69V485Q301,486.27,299.43,486.27Zm0,12.55H289.12q-1.55,0-1.55-1.31v-2.44a1.32,1.32,0,0,1,1.55-1.5h10.31q1.55,0,1.5,1.31v2.62Q301,498.83,299.43,498.83Zm0,6.37H288.93q-1.36,0-1.36-1.31v-2.44q0-1.69,1.55-1.69h10.31q1.55,0,1.5,1.5v2.62Q301,505.2,299.43,505.2Zm1.5,16.11q0,2.62-2.06,2.62h-9.18q-2.11,0-2.11-2.62V508.76q0-2.44,2.11-2.44h9.18q2.06,0,2.06,2.44Zm-8-9.37v6.18h2.86v-6.18ZM304.86,487q-1.5.09-1.5-.75v-3.75q-.09-1.12,1.5-1.12h17.61q1.69,0,1.69,1.55v26.89a26.5,26.5,0,0,0,.19,5q.19,1.92,1.12,1.36l.75-1a1,1,0,0,1,1.31-.19l2.44,2.11a2.35,2.35,0,0,1-.19,2.53q-5,6.18-6.93,4.36-2.44-1.64-3.19-5.88a49.79,49.79,0,0,1-.75-8.69V487h-5.43v10.31H317q1.5,0,1.5,1.41v2.9a1.32,1.32,0,0,1-1.5,1.5h-3.56q-.47,13.49-6.7,20.85a1.21,1.21,0,0,1-2,.14l-2.62-2.2a1.13,1.13,0,0,1-.09-1.83q5.67-5.71,5.76-17H303q-1.31,0-1.31-1.41v-3.09a1.16,1.16,0,0,1,1.31-1.31h4.87V487Z"/><path class="cls-1" d="M343.07,483.56q0-1.87,1.59-1.87h11q2.11,0,2.11,1.83v33.64q-.1,4.45-2.25,5.72l-4.08,1.59a1.32,1.32,0,0,1-1.78-.8l-.8-3q-.38-1.22,1-1.64l1.12-.42a1.77,1.77,0,0,0,1.31-1.92v-4.78h-3.93q-.89,7.59-2.62,10.31-1.12,2.15-2.62,1.45L341,522.2a1.59,1.59,0,0,1-.23-2.48,23.52,23.52,0,0,0,2.2-7q.14-2.29.09-5.06Zm5.34,4v6.18h3.93v-6.18Zm0,12.51V506h3.93V500Zm33-18q2.39,0,2.44,2.67v14.38q0,3.47-2.44,3.47H365.46v14.76q0,1.12,1.31,1.17h10.12q1.22,0,1.88-1.92l.38-1.36a1.8,1.8,0,0,1,2.25-1.31l2.81.75q1.17.52.75,2.11l-.94,3.61q-1.22,3.84-5.81,3.84h-15q-3.56,0-3.56-3.84V484.87q0-2.86,2.25-2.86Zm-15.93,14.38h3.75V488h-3.75Zm9.18,0h3.75V488h-3.75Z"/><path class="cls-1" d="M397.72,483.13q0-1.83,1.59-1.83h9.84q2.2,0,2.2,1.78V517a11.41,11.41,0,0,1-.47,3.58,3.39,3.39,0,0,1-1.87,2,35.82,35.82,0,0,1-4.17,1.59q-1.41.28-1.83-.8l-1.22-3.23q-.42-1.55,1.08-1.69a12.31,12.31,0,0,0,2.16-.42q.7-.23.7-1.45v-5.81h-2.58q-.89,8.53-2.72,11.24-1.41,2.06-2.62,1.41l-2.2-1.45q-1.17-.89-.23-2.44a25,25,0,0,0,2.25-8q.14-2.25.09-5Zm5.43,3.89v6h2.58v-6Zm0,12.18V505h2.58V499.2Zm35.65,6.37q1.5,0,1.5,1.31v3a1.32,1.32,0,0,1-1.5,1.5H428.5V523q0,1.64-1.31,1.64h-3.33q-1,0-1.12-1.55l0-11.71H412.57q-1.12,0-1.12-1.31V507q0-1.45,1.12-1.41h10.12v-5.43h-8.06q-1.08,0-1.12-1.31v-3.19q0-1.31,1.13-1.31h8.06v-12A1.16,1.16,0,0,1,424,481h3q1.5,0,1.45,1.31v12h8.81q1.12,0,1.12,1.31v3.19q0,1.31-1.12,1.31H428.5v5.43ZM419,492.92q-.42.84-1.69.28L414.4,492q-1.17-.47-.7-1.55a46.89,46.89,0,0,0,3.23-8q.28-1.17,1.78-.61l2.86.94q.94.33.66,1.45A48.62,48.62,0,0,1,419,492.92Zm15.79-.14a79,79,0,0,0-5.34-7.4,1,1,0,0,1,.23-1.59l2.53-2q1.13-.84,1.87.14a31,31,0,0,1,5.15,7.21,1.25,1.25,0,0,1-.28,1.64l-2.48,1.87Q435.19,493.44,434.77,492.78Z"/><path class="cls-1" d="M477.29,480.28q1.12,0,1.12,1.31V485h14.43q1.12,0,1.12,1.41v3.09a1,1,0,0,1-1.12,1.12H463.24V506.7a25.42,25.42,0,0,1-5.67,16.54q-1.12,1.26-2,.56l-2.72-2.11q-1.31-1.08.14-2.62a15.89,15.89,0,0,0,3.51-5.25,12.37,12.37,0,0,0,.75-4.5L453.87,511q-.94.38-1.31-.19l-1.5-3.19a1.27,1.27,0,0,1,.56-1.87l5.81-2.62v-3.37l-.47.75q-.47.75-1.22,0l-4.68-4.31a1.13,1.13,0,0,1,0-1.69l2.06-1.87a1.13,1.13,0,0,1,1.69,0l2.62,2.06v-8.24a1.32,1.32,0,0,1,1.5-1.5h13.87v-3.37a1.16,1.16,0,0,1,1.31-1.31Zm13.87,18.36H480.85v5.25h10.68q1.13,0,1.13,1.45v3q0,1.31-1.12,1.31H480.85v8.43h12.74q1.31,0,1.31,1.41V523q0,1.12-1.31,1.12H461.92A1,1,0,0,1,460.8,523v-3.47q0-1.41,1.13-1.41h4.31V503.7q0-1.69,1.5-1.69h3.19q1.12,0,1.12,1.69v14.43h3V498.64h-9.37a1.16,1.16,0,0,1-1.31-1.31v-3q0-1.45,1.31-1.45h25.48q1.31,0,1.31,1.45v3A1.16,1.16,0,0,1,491.16,498.64Z"/><path d="M680.92,213.66a12.7,12.7,0,0,0,11.8-9.83c.8-3.77-5-5.38-5.79-1.6a6.64,6.64,0,0,1-6,5.42c-3.84.21-3.86,6.21,0,6Z"/><path d="M683.95,224.18a11.72,11.72,0,0,0,12.69-5c2.15-3.22-3-6.23-5.18-3a5.52,5.52,0,0,1-5.91,2.21c-3.75-.93-5.35,4.85-1.6,5.79Z"/><path d="M332.31,250.06c-3.61,8-4.27,15.79-1,24,3.42,8.54,9.15,15.9,12.43,24.53l1.38-3.39c-6.12,4.53-7.57,11.24-10.09,18-.6,1.62.69,3.16,2.1,3.69,5.63,2.14,15.72-3.17,19.63-7,2.18-2.15,3.85-5.64,2.58-8.64-1.55-3.66-6.48-4.64-9.8-5.92-3.61-1.38-5.17,4.41-1.6,5.79,1.17.45,5.63,1.52,5.82,2.55.3,1.58-3.26,3.44-4.18,4-2.5,1.43-7.89,4.63-10.86,3.5l2.1,3.69c1.85-5,2.79-11.09,7.33-14.46a3.08,3.08,0,0,0,1.38-3.39c-5.51-14.48-19.41-27.61-12-43.88,1.58-3.49-3.59-6.54-5.18-3Z"/><path d="M408.39,304.44c-6.09-7.55-1.18-19.29,3.55-26.2,4.51-6.58,12.52-13.12,21-9.77,13.51,5.35,15,28.13,7.33,38.44-2.31,3.1,2.89,6.09,5.18,3,10.37-13.89,5.95-44.13-13.48-48-21.63-4.26-41.36,29.9-27.82,46.69,2.42,3,6.65-1.26,4.24-4.24Z"/><path d="M430.88,264.85c4-7.2,3-20.74-2.19-27.16-2.42-3-6.64,1.26-4.24,4.24,3.35,4.16,3.8,15.31,1.25,19.89-1.88,3.38,3.3,6.41,5.18,3Z"/><path d="M402.43,300c.79,3.25,1.53,6.52,2.43,9.75a3,3,0,0,0,2.89,2.2,13.18,13.18,0,0,0,5.7-1.61,3.07,3.07,0,0,0,1.38-3.39c-1-4.63-2.66-9.38-7.31-11.46-3.5-1.56-6.55,3.61-3,5.18,3.22,1.44,3.87,4.7,4.55,7.87l1.38-3.39a6.08,6.08,0,0,1-2.67.79l2.89,2.2c-.91-3.22-1.64-6.49-2.43-9.75-.91-3.75-6.7-2.16-5.79,1.6Z"/><path d="M446,301.18c3.86,0,3.87-6,0-6s-3.87,6,0,6Z"/><path d="M446.79,295.29c-1.63-.35-3.31-.08-4.92-.41a3,3,0,0,0-3.69,2.1c-.77,3.48-1.41,7-2.13,10.48a3,3,0,0,0,3.69,3.69c5.85-1.29,7.57-7.23,7.45-12.54-.09-3.85-6.09-3.87-6,0,.06,2.58,0,6.08-3,6.75l3.69,3.69c.72-3.49,1.35-7,2.13-10.48l-3.69,2.1c1.63.33,3.32.07,4.92.41,3.77.8,5.38-5,1.6-5.79Z"/><path d="M447.9,255.35c31,10.33,41.15,44.35,44.24,73.79,1.39,13.21.29,29.18-8.45,39.91-11.43,14-33.09,10.39-48.92,9.16-8.32-.64-16.51-.06-24.81-.36-4.27-.16-9.15-.58-12.47-3.56-4.4-3.94-6.28-9.66-.44-13a3,3,0,0,0-1.51-5.59c-6.08.07-9.53-7-2.37-8.92,3.75-1,2.16-6.57-1.6-5.79-5.11,1.07,1.33-7.83,2.78-9,5.62-4.65,16-3,22.81-3.39,14.78-.9,29.72,4.15,44.38.87,3.77-.84,2.17-6.63-1.6-5.79-10.73,2.4-22.12-.27-32.91-1a156.19,156.19,0,0,0-15.64.21c-5.42.18-11.28,0-16.45,1.89-5.57,2.06-10.11,8-11.12,13.78-1.09,6.32,3.47,9.47,9.33,8.24l-1.6-5.79c-13.59,3.67-9,20.85,4,20.7L394,356.09c-8.31,4.75-8.35,13-2.76,20.16,5.24,6.67,13.42,7.63,21.41,7.62,10.23,0,20.18.24,30.4,1,10.46.76,21.58,1.26,31.6-2.4,16.29-6,22.56-23.07,23.71-39.12,1.26-17.51-2.86-36.82-9.08-53.12-7.25-19-20.16-34.1-39.81-40.65-3.67-1.23-5.25,4.57-1.6,5.79Z"/><path d="M395.4,325.2c-14.58-2.72-29.74-8.23-44.75-7.25a128.48,128.48,0,0,0-15.19,2.38c-3.58.67-9.18,2.28-12,2.28-3.86,0-3.87,6,0,6,3.35,0,7-1.22,10.23-1.85A157.2,157.2,0,0,1,350,324c14.63-1.24,29.59,4.33,43.81,7,3.77.7,5.39-5.08,1.6-5.79Z"/><path d="M334,246.16c-30.92,14.5-51,47.77-54.86,81-1.59,13.73-1,29.75,7.08,41.54,10.41,15.13,29.79,15.09,46.35,15.82,6.54.29,13.09.08,19.63.24,5.92.15,11.79.9,17.7,1.21,9.23.49,21.49.52,27.91-7.32,2.43-3-1.79-7.23-4.24-4.24-5.66,6.9-17.24,6-25.28,5.47-9.45-.62-18.75-1.13-28.22-1.19a242.08,242.08,0,0,1-27.48-1.62c-7.78-1-15.43-4-20.39-10.28-8-10.15-8.44-24.85-7.32-37.13a97.17,97.17,0,0,1,11.29-37.76c9.29-17,23.12-32.23,40.86-40.54,3.49-1.64.45-6.81-3-5.18Z"/><path class="cls-1" d="M479.53,355.4a67.31,67.31,0,0,0-7.36,27.71c28.61,1,57.92,1.66,86.72.79-1.35-6.74-6-13.08-7.54-20-1.82-8.2-2.85-9.11-14.85-10.6-15.5-1.93-42.75-4.08-57,2.12"/><path d="M476.93,353.89a73.07,73.07,0,0,0-7.76,29.23,3,3,0,0,0,3,3c28.89,1,57.81,1.63,86.72.79a3,3,0,0,0,2.89-3.8c-1.35-5.69-4.35-10.63-6.34-16.08-1.25-3.41-1.5-7.36-3.38-10.53-3.36-5.71-11.49-5.74-17.27-6.43-17.77-2.11-39.07-4.59-56.06,2.44-3.52,1.45-2,7.26,1.6,5.79,15.1-6.24,33.68-4.37,49.54-2.77,4.62.47,14.85-.2,17.35,4.62,1.56,3,1.77,6.85,3.05,10,2,4.85,4.52,9.41,5.74,14.53l2.89-3.8c-28.91.84-57.82.26-86.72-.79l3,3a65.62,65.62,0,0,1,6.95-26.2c1.7-3.45-3.47-6.5-5.18-3Z"/><path d="M582,383.32c-.24-8.62-3.09-17.31-1.82-25.94l-2.1,2.1c5.18-1,20.41-5.73,23.12.54,1.43,3.3,1,8.37,1,11.88a105.92,105.92,0,0,1-.39,11.12l3.8-2.89c-8.55-1.38-17.09-.79-25.71-.73-3.86,0-3.87,6,0,6,8-.05,16.14-.76,24.11.52a3.07,3.07,0,0,0,3.8-2.89,108,108,0,0,0,.31-14.65c-.16-4,0-9.56-2.43-13-5.58-8.07-21.6-3.12-29.23-1.67a2.89,2.89,0,0,0-2.1,2.1c-1.37,9.3,1.35,18.26,1.6,27.53.11,3.85,6.11,3.87,6,0Z"/><path d="M590.7,349.19c-.57-9.56,4.2-20.21,13.66-23.66L601,321.12c-4.43,8.85-12.66,17.39-12.5,27.84l5.59-1.51c-3.36-5.77-4.92-12.51-8.72-18s-9.48-7.87-16.07-8.45c-2.51-.22-4.07,3.49-2.12,5.12,7.36,6.14,14.12,12.88,17.6,22l5-2.92c-9.75-7.88-20.68-12.19-32-4.58-1.93,1.3-2,5,.72,5.48A108.06,108.06,0,0,1,586,355.2a3.06,3.06,0,0,0,4.1-1.08c6.54-11.85,20.67-12.62,32.35-8.88v-5.79c-5.38,1.68-10.65,3.66-16,5.39-4.6,1.48-10.12,3.74-15.05,3.26-3.84-.37-3.81,5.63,0,6,5.1.5,10.62-1.57,15.39-3.07,5.79-1.82,11.47-4,17.26-5.79a3,3,0,0,0,0-5.79c-14.26-4.56-31.3-2.55-39.13,11.64L589,350a114.06,114.06,0,0,0-28.88-9.71l.72,5.48c8.93-6,17-2.58,24.69,3.64,2,1.66,6.2.2,5-2.92-3.88-10.17-10.89-17.76-19.15-24.64L569.28,327c13,1.14,14.15,14.11,19.61,23.49a3,3,0,0,0,5.59-1.51c-.14-9.06,7.82-17.1,11.68-24.81,1.07-2.13-.74-5.37-3.39-4.41-11.95,4.35-18.8,17-18.07,29.44.23,3.84,6.23,3.86,6,0Z"/><path d="M583.65,377.11c5.53.67,11.12.23,16.67,0,1.92-.08,1.93-3.08,0-3-5.55.23-11.14.67-16.67,0-1.91-.23-1.9,2.77,0,3Z"/><path d="M492.39,358.58a33.73,33.73,0,0,0-3.45,16.78,3.11,3.11,0,0,0,3,3c7.15.77,16-2.28,16.28-10.7.2-6.27-8.62-14.58-14.76-10.16-3.11,2.24-.11,7.44,3,5.18,1.17-.84,2.9.53,3.81,1.34,1.53,1.37,2.41,3,1.59,5-1.49,3.65-6.69,3.69-10,3.34l3,3a27.66,27.66,0,0,1,2.63-13.75c1.64-3.47-3.53-6.52-5.18-3Z"/><path d="M513.8,358.78c-1,3.7-1.62,7.48-2.52,11.21-.47,2-1.36,4.2-1.33,6.25a3,3,0,0,0,5.73,1.34c1.88-3.38-3.3-6.4-5.18-3l-.09.16,1.79-1.38h0l3.8,2.89c0,.92.31-1.37.42-1.8.27-1.15.57-2.29.84-3.44.83-3.54,1.44-7.11,2.38-10.63,1-3.73-4.79-5.33-5.79-1.6Z"/><path d="M517.72,363.1c1.75-.12,4.1-.35,5.7.53a1.56,1.56,0,0,1,.91,1.41c0,.21-.17.4,0,.24a3.06,3.06,0,0,1-1,.55,12.26,12.26,0,0,1-1.25.32c-.09,0-1,.14-.49.09a32.45,32.45,0,0,1-3.91.14c-3.86,0-3.87,6,0,6,4.32,0,10.5-.19,12.22-5.09a7.52,7.52,0,0,0-2.8-8.39c-2.66-1.88-6.28-2-9.42-1.79-3.83.27-3.86,6.27,0,6Z"/><path d="M516.92,372.27a23.82,23.82,0,0,1,4.83,2.32c.89.52,1.79,1,2.63,1.65.22.16.43.3.64.48s.85,1,.42.35c2.06,3.26,7.25.25,5.18-3-1.23-1.95-3.47-3.24-5.41-4.38a31,31,0,0,0-6.69-3.18c-3.71-1.11-5.29,4.68-1.6,5.79Z"/><path d="M535,379.26c3.86,0,3.87-6,0-6s-3.87,6,0,6Z"/><path d="M626.89,203.81c15.26-15.87,39.7-16.19,57.71-5.09,3.3,2,6.31-3.16,3-5.18-20.25-12.49-47.9-11.73-65,6-2.68,2.78,1.56,7,4.24,4.24Z"/><path class="cls-1" d="M652.54,223.38c1.72-4.12-5-7.32-7.49-3.38a3.48,3.48,0,0,0,1,5c1.37.8,2.45.47,3.88.23C649.89,225.18,652,224.74,652.54,223.38Z"/><path d="M191.76,57.35c-2.23-2.34-7.42-1.82-10.22-2-14-.77-28.47-.47-42.3,2.27a1.18,1.18,0,0,0-.95.8,1.5,1.5,0,0,0-.52.73c-1.38,4-2.36,8.61-1.29,12.84s4.3,6.7,8.27,7.9c10.65,3.2,21.78.36,32.61,1.08,3.91.26,8.93,1,12.27-1.72s3.56-8.14,3.52-12.32C193.13,64.18,193.88,59.57,191.76,57.35Z"/><path class="cls-1" d="M159.06,68.14q0,.77-.64.77H155v.29a11.47,11.47,0,0,0,1.74-.17l-.12-.29,1.45-.13a8.3,8.3,0,0,1,1.32,1.1q.35.39.07.56l-.81.35a.52.52,0,0,1-.67-.14l-.26-.33q-1.37.23-3.85.42t-4.34.16a.49.49,0,0,1-.52-.29l-.32-.75q-.12-.36.4-.36a33.34,33.34,0,0,0,4.17-.06V68.9H150.2q-.64,0-.64-.77v-3q0-.65.58-.65h3.18v-.41h-5q-.35,0-.35-.38v-.87q0-.36.35-.36h5v-.41q0-.36.35-.36h1.1q.35,0,.35.36v.41h5.5q.35,0,.35.36v.87q0,.38-.35.38h-5.5v.41h3.3a.57.57,0,0,1,.64.65Zm-1.74,2.23q.29,0,.29.16V71h3.13q.29,0,.29.14v1.07q0,.13-.29.13h-3.12v2.13q0,.52-.81.77a7.66,7.66,0,0,1-1.85.25.46.46,0,0,1-.46-.38l-.29-1c-.06-.23,0-.35.23-.35a6,6,0,0,0,.95-.08q.5-.08.5-.38v-1h-7.58q-.35,0-.35-.14V71.12q0-.14.35-.14h7.58v-.45c0-.11.1-.16.29-.16Zm-6.15,1.85,2,1.29q.26.16.12.35l-.82.9q-.22.2-.54,0a24.23,24.23,0,0,0-2.07-1.4q-.17-.14,0-.33l.72-.71A.43.43,0,0,1,151.17,72.22Zm.19-6.55v.41h2v-.41Zm0,1.59v.41h2v-.41Zm3.76-1.59v.41h2.14v-.41Zm0,1.59v.41h2.14v-.41Z"/><path class="cls-1" d="M165,65.52a.45.45,0,0,1,.46-.12,11.88,11.88,0,0,1,2.31,1.07q.23.16.06.45l-.46.81q-.15.23-.52.06l-2.26-1a.34.34,0,0,1-.12-.56Zm1.5,4.2q.09-.35.41-.23l1.1.41q.2.09.12.45a18.36,18.36,0,0,1-1.62,4.44.43.43,0,0,1-.64.17l-1-.46q-.38-.19-.12-.64A14.91,14.91,0,0,0,166.55,69.71Zm-.17-8.07A8.3,8.3,0,0,1,168.23,63q.2.2-.06.51l-.58.61a.47.47,0,0,1-.58-.06q-.8-.61-1.79-1.29-.33-.25-.06-.52l.69-.64A.46.46,0,0,1,166.37,61.64Zm5.15.55q.23-.49.64-.41l1,.23q.42.12.17.64l-1.91,3.89,4-.29-.41-.64a.45.45,0,0,1,.23-.72l.75-.29a.38.38,0,0,1,.52.12l1.85,2.84q.19.32-.17.54l-.87.54q-.25.12-.46-.19l-.35-.52-7.58.52q-.43,0-.46-.35l-.06-.88q0-.46.29-.48l.69-.06Zm-1.74,12.95q-.46,0-.46-.52V69.45q0-.48.52-.48h6.94a.42.42,0,0,1,.46.48v5.17q0,.52-.46.52Zm1.33-1.62h4.35V70.58h-4.34Z"/><path class="cls-2" d="M326.24,45.13c-5.87-5-14.31-7.43-21.61-9.32-16.27-4.21-33.31-5.52-50.06-6.09-29.32-1-58.83-2.8-88.16-2.8-11.23,0-22.34,1.38-33.48,1.9-7.93.37-19.28-1.9-25.09,3.72l-1.41,65.54c-.34,16.3-.41,13.44-.44,29.74,0,10-.18,19.92,9.24,25.45,11.74,6.9,27.37,7.13,40.51,8.64a695,695,0,0,0,75.29,4c23.65.12,47.2-1.74,70.83-1.91,8.34-.06,20.36,2.8,23.34-6.78,8.09-26,10.47-34.3,10.42-61.4C335.58,79.55,340.26,57.2,326.24,45.13Zm-1.35,52.72c0,23.86-2.11,28.87-9.44,51.75-2.7,8.43-13.59,5.92-21.16,6-21.42.15-42.76,1.78-64.2,1.68a648.43,648.43,0,0,1-68.24-3.51c-11.91-1.33-26.07-1.53-36.72-7.6-8.53-4.87-8.39-13.63-8.37-22.4,0-14.35.09-9.53.4-23.88l1.28-57.7c5.27-4.95,15.56-3,22.74-3.27,10.1-.45,20.17-1.67,30.34-1.67,26.58,0,53.33,1.58,79.9,2.46,15.18.51,30.62,1.66,45.37,5.36,6.62,1.66,14.27,3.76,19.59,8.21C329.1,63.87,324.86,83.55,324.89,97.85Z"/><path d="M103.42,98.08c-.21,9.91-.43,19.82-.44,29.74s.34,20.94,9.44,27.22c10.58,7.3,24.72,8,37.09,9.23,14.93,1.43,29.79,3,44.78,3.7,32,1.55,63.77.07,95.76-.77,6.2-.16,12.36-.21,18.56.05,4.19.18,8.66.26,12.59-1.45,4.3-1.87,6.08-5.32,7.46-9.58,2.05-6.35,4-12.77,5.64-19.24a140.86,140.86,0,0,0,4.2-30.83c.37-11.85,1.32-24,.76-35.87-.47-10-3-20.42-10.89-27.26-9.46-8.21-23.78-10.76-35.73-12.82-15.18-2.62-30.53-3.17-45.89-3.76-15.68-.6-31.36-1.36-47-1.88-16.35-.55-32.75-1.1-49.08.06-6.7.48-13.44,1.26-20.16,1.25-5.64,0-11.38-.69-16.94.57-3.39.77-8,2.5-8.69,6.28a30,30,0,0,0-.09,4.41l-.49,22.75-.82,38.21c-.08,3.86,5.92,3.86,6,0L110,69.76c.25-11.7-.26-23.7.76-35.36a5.38,5.38,0,0,1,0-1.39c0-.1-.05-.32,0-.41-1.46,2.08,2,.45,1.47.48,2.38-.15,4.77-1.27,7.28-1.39,2.75-.13,5.5,0,8.24.1,13.51.36,27-1.9,40.53-1.88,29.37,0,58.73,1.73,88.07,2.86,14.07.54,28.17,1.61,41.95,4.62,11.28,2.47,25.09,5.39,31,16.44,4.89,9.08,4.11,20.31,3.62,30.25-.53,10.93-.16,21.9-1.2,32.8-1,10.11-3.56,19.87-6.48,29.56-1.28,4.26-1.92,11.52-6.28,13.74-4,2-9.63,1.05-14,.87-13.49-.58-27.16.52-40.65,1.05-14.36.56-28.71.89-43.08.68-16.15-.24-32.3-.89-48.4-2.21-14.37-1.18-29.6-1.78-43.65-5.12-6.25-1.49-13.85-3.71-17.48-9.44-3.33-5.25-2.88-12.26-2.88-18.22,0-9.92.23-19.82.44-29.74C109.5,94.21,103.5,94.21,103.42,98.08Z"/><path d="M115.67,99.85c-.17,8-.39,15.91-.4,23.88,0,8.45.19,17.6,7.84,22.9,9,6.24,21.31,7,31.85,7.93,13.66,1.26,27.26,2.67,41,3.33,28.64,1.38,57.09.23,85.72-.58,5.75-.16,11.5-.35,17.25-.08,4,.19,8.47.55,12.3-1a10.11,10.11,0,0,0,5.69-6.18c2.19-5.63,3.84-11.68,5.49-17.49a106.36,106.36,0,0,0,3.9-26.14c.31-10.19,1.16-20.68.68-30.86-.4-8.67-2.63-17.51-9.52-23.33-8.33-7-21-9.16-31.43-10.92C272.65,39,259.13,38.47,245.6,38c-14.3-.52-28.59-1.2-42.89-1.67s-28.43-1.06-42.58-.18c-6.31.39-12.61,1.07-18.93,1.26-5.06.15-10.16-.51-15.2.16-2.92.39-8,1.4-9,4.61a13,13,0,0,0-.07,3.24l-.43,19.2-.78,35.27c0,1.93,3,1.93,3,0l.56-25.37.42-19.1c.08-3.45-.81-8.7.27-12,.09-.27-.12-.76,0-1,.33-.58,3.41-1.25,4.28-1.47,4.69-1.17,9.7-.49,14.47-.47,12.26.05,24.45-1.76,36.73-1.69,25.67.14,51.31,1.56,77,2.48,12.89.46,25.81,1.37,38.46,4C301.38,47.41,314.24,50,320.14,60c4.81,8.16,4.09,18.58,3.63,27.67-.47,9.42-.09,18.91-1.09,28.29-.89,8.35-3.27,16.35-5.82,24.32-1.53,4.79-2.33,11.85-7.83,13.49-4,1.19-8.43.48-12.5.34-25.34-.84-50.78,1.93-76.16,1.54-14.35-.22-28.71-.8-43-1.94-12.76-1-26.13-1.63-38.66-4.3-6-1.28-13.61-3.3-17.35-8.62-3.16-4.5-3.06-10.43-3.08-15.68,0-8.43.21-16.84.4-25.27C118.71,97.92,115.71,97.92,115.67,99.85Z"/><path d="M149.78,95.54v6.17h-2.89v.74a.36.36,0,0,0,.41.41h2.95a.79.79,0,0,0,.63-.26,4.27,4.27,0,0,0,.3-1.61l1.44.46a4.22,4.22,0,0,1-.69,2.39,2.31,2.31,0,0,1-1.39.35h-3.67c-1,0-1.56-.48-1.56-1.43v-1.06h-1.78q-1.42,2.28-6.67,2.89l-.82-1.26c2.8-.26,4.69-.82,5.69-1.63h-3V95.54Zm-10.84-3.8h2.57V92.8H139l.06.82H149.5l.06-.82H147V91.74h2.61l.06-.7h-2.61V90h2.69l.06-.78H147V87.94h4.3L151,93.61h1.26v3h-1.56V94.84H137.89v1.82h-1.56v-3h1.31l-.39-5.32a18.25,18.25,0,0,0,3.89-.83l.5,1.22a20.19,20.19,0,0,1-2.89.63l.06.65h2.7V91h-2.63Zm9.24,5.5V96.5h-7.87v.74Zm0,1.65v-.7h-7.87v.7Zm0,.93h-7.87v.78h7.87Zm-3.65-11.36a8.52,8.52,0,0,0,1-.87l.94.59c-.31.33-.61.61-.91.87a13.31,13.31,0,0,1,1.13.76l-.8.78a12.7,12.7,0,0,0-1.28-.87,15.2,15.2,0,0,1-2,1l-.59-1a8.44,8.44,0,0,0,1.52-.63l-1.28-.67.8-.74C143.58,87.94,144.08,88.2,144.54,88.46Zm-.07,2.93a7.08,7.08,0,0,0,.94-.89l.89.56a8.65,8.65,0,0,1-.91.93q.64.42,1.17.83l-.78.78a12.46,12.46,0,0,0-1.26-1,13.5,13.5,0,0,1-1.83,1l-.57-.93A9.74,9.74,0,0,0,143.6,92c-.37-.22-.76-.46-1.17-.69l.72-.69C143.61,90.89,144.06,91.13,144.47,91.39Z"/><path d="M161.65,88a14.8,14.8,0,0,1-5.09,5.45l-.54-1.7a12.54,12.54,0,0,0,4.17-4.43Zm-5,10.54-.5-1.67a13.5,13.5,0,0,0,4.13-4.83l1.52.7a13.51,13.51,0,0,1-1.57,2.52v9.21h-1.7V97.1C157.89,97.61,157.28,98.1,156.61,98.58Zm16.13-3.39v1.54h-2.11v1.17h2.54v1.54h-2.54v3.22c0,1.15-.61,1.72-1.82,1.72h-2l-.37-1.67a15.47,15.47,0,0,0,1.78.13c.44,0,.69-.2.69-.61v-2.8h-7.61V97.89h7.61V96.73h-6.95V95.19Zm-1-7.22v6.17h-9V88Zm-5.22,14.45-1.33.93a19.15,19.15,0,0,0-2.26-2.7l1.26-.91A19.24,19.24,0,0,1,166.49,102.41Zm3.54-12v-1h-5.65v1Zm0,1.32h-5.65v1H170Z"/><path d="M193.73,87.26v1.61h-4.3v9.74h-1.8V87.26Z"/><path d="M202.73,100.47h-3.54v1.2h-1.74V88.87h5.28ZM201,98.82v-8.3h-1.83v8.3Zm5.09-2.93q-.81,5.56-3.43,8.52l-1.3-1.11q3.31-3.78,3.37-12V89.74H203.3V88.07h8.85V89a24.07,24.07,0,0,1-1.2,4.28h2.37V94.8a12.91,12.91,0,0,1-2.67,5.93,11.13,11.13,0,0,0,3.17,2.06l-.85,1.54a12.27,12.27,0,0,1-3.5-2.37,14.09,14.09,0,0,1-3.89,2.41l-.87-1.57a12.88,12.88,0,0,0,3.58-2.17A12.88,12.88,0,0,1,206.12,95.89Zm.31-6.15v1.54q0,1-.06,2h2.91a28.71,28.71,0,0,0,1-3.54Zm3,9.65a11.29,11.29,0,0,0,2.17-4.46h-4.22A11.65,11.65,0,0,0,209.45,99.39Z"/><path d="M217.58,99.45a.58.58,0,0,0,.44-.56V89h1.72v9.8c.76-.24,1.52-.5,2.28-.8V87.48h1.74V102.8a12.7,12.7,0,0,0,4.37-3.41A19.26,19.26,0,0,1,226,95l1.43-.82a18.33,18.33,0,0,0,1.76,3.63,14.33,14.33,0,0,0,1.59-6h-3.32a13.65,13.65,0,0,1-2.37,4L224,94.47a15.2,15.2,0,0,0,2.83-7.13l1.76.3c-.17.85-.35,1.67-.56,2.43h5.87v1.72h-1.44a15.56,15.56,0,0,1-2.2,7.58,19.1,19.1,0,0,0,4.06,3.83l-1.2,1.41a21,21,0,0,1-3.93-3.74,14.78,14.78,0,0,1-4.5,3.59l-.93-1.5v1.41H222V99.73c-1.26.44-2.56.85-3.93,1.2Z"/><path d="M249.67,90.24c-.07.26-.15.5-.24.74a8.63,8.63,0,0,0,5,2.2l-.72,1.44a8.45,8.45,0,0,1-1.43-.33v7.59H248.6a40.27,40.27,0,0,1,5.72,1.33l-.57,1.39a37,37,0,0,0-6.19-1.61l.57-1.11h-4.26l.76,1a20.13,20.13,0,0,1-5.89,1.72l-.8-1.35a25,25,0,0,0,5.48-1.35H240V94.24h4.46l-.7-1.07c2.48-.44,3.95-1.52,4.41-3.22Zm-6.35,1.44v1.5H238v-1.5Zm-.39-3.33v1.48h-4.59V88.35Zm7.61,8.1v-.87h-8.8v.87Zm0,2v-.82h-8.8v.82Zm0,1.15h-8.8v.91h8.8Zm-6.35-7.76-1-1.28a6.82,6.82,0,0,0,2.67-3.26l1.61.19c-.11.3-.22.59-.35.87h6.5v1.22A10.39,10.39,0,0,1,252.06,92l-1.2-.94a7.52,7.52,0,0,0,1-1.26H246.3A9.62,9.62,0,0,1,244.19,91.82Zm7.91,2.43a8.88,8.88,0,0,1-3.35-2.07,6.34,6.34,0,0,1-3.37,2.07Z"/><path d="M260.6,89.61a17.85,17.85,0,0,0-.76-1.82l1.69-.46a14.44,14.44,0,0,1,.72,2.28h2.26v1.63H258.1V89.61ZM264,104.19h-1.61v-.8h-2.19v.94h-1.61V97.71H264Zm-.17-11.82v1.54h-5.08V92.37Zm0,2.57V96.5h-5.08V94.95Zm-1.44,6.85V99.3h-2.19v2.5Zm4.5-6.95V89.8h-2V88.11h7.87v6a37.32,37.32,0,0,0,.46,7.28c.13.57.26.87.37.87a2.2,2.2,0,0,0,.17-.76c0-.52.06-1.13.06-1.85l1.37.67a10.27,10.27,0,0,1-.5,3.43.83.83,0,0,1-.7.54,2,2,0,0,1-1.72-1.26c-.81-1.46-1.22-4.43-1.22-8.91V89.8h-2.45v5.06h2.06v1.69h-2.06v7.85h-1.7V96.54h-2.06V94.85Z"/><path d="M280.78,95.82l-1.37.37a52,52,0,0,0-1.06-5.11l1.41-.46C280.13,92.13,280.49,93.85,280.78,95.82Zm4.45-4.35a14.31,14.31,0,0,1-2.32,2.3v.41a29.31,29.31,0,0,1-.24,3.54c.83.94,1.69,2,2.54,3.15l-1,1.57c-.7-1.24-1.32-2.22-1.83-3a11.33,11.33,0,0,1-2.52,5l-1.3-1.15q2.67-2.86,2.72-9.19V87.54h1.67v4.39a17.55,17.55,0,0,0,1.35-1.7Zm3.63-.7a9.82,9.82,0,0,0,.35-1.2H285V88h10v1.56h-4.09a10.29,10.29,0,0,1-.33,1.2h3.58V101h-2.35a23.4,23.4,0,0,1,3.35,2.35L294,104.49a19.39,19.39,0,0,0-3.32-2.54l1-1h-3.32l1.13,1a15,15,0,0,1-3.74,2.59l-.94-1.22a14.23,14.23,0,0,0,3.52-2.35H286V90.76Zm3.67,2.91V92.19h-4.91v1.48Zm0,3V95h-4.91v1.59Zm0,1.37h-4.91v1.56h4.91Z"/><path d="M308.42,95a2.43,2.43,0,0,1,.46,1.52A3.9,3.9,0,0,1,308,99a4.16,4.16,0,0,1-2.22,1.43V99.24a2.72,2.72,0,0,0,1.26-.87,2.26,2.26,0,0,0,.46-1.3,1.38,1.38,0,0,1-.44.07,1.31,1.31,0,0,1-1-.41,1.34,1.34,0,0,1-.39-1,1.3,1.3,0,0,1,.41-1,1.43,1.43,0,0,1,1.06-.39A1.47,1.47,0,0,1,308.42,95Z"/><path d="M151.09,112.15a24.28,24.28,0,0,1-1.22,3.24v13.17h-1.7V118.34a26.44,26.44,0,0,1-1.8,2.3l-.52-1.76a21.29,21.29,0,0,0,3.7-7.45Zm4.59.2v-.87h1.7v.87h4.76v1.39h-4.76v.82h4.15v5.63h-.35a20,20,0,0,1,1.63,2.13l-1.2.85c-.19-.3-.39-.59-.59-.89a5.23,5.23,0,0,0-.76.06v1.13h2.45V125h-2.45v2c0,1-.56,1.5-1.63,1.5h-2.17l-.35-1.56c.69.06,1.33.09,1.93.09.37,0,.56-.15.56-.43V125H153a14.36,14.36,0,0,1,2.74,1.65l-.87,1.37a12.89,12.89,0,0,0-2.87-2l.7-1h-2v-1.52h7.93v-1c-2,.09-4.43.19-7.39.26l-.2-1.39,4.69-.09v-1h-4v-5.63h4v-.82h-4.35v-1.39Zm.11,4.43v-.94h-2.56v.94Zm0,1.17h-2.56v1h2.56Zm1.46-1.17H160v-.94h-2.72Zm2.72,1.17h-2.72v1H160Zm-.46,2.45.33-.2h-2.46v1l2.67-.13Z"/><path d="M171,116v1.37a25.58,25.58,0,0,1-2,2.87h2.22v1.17a21.23,21.23,0,0,1-.89,3.41l.44.33a7,7,0,0,0,1.69,1.15,8.12,8.12,0,0,0,2.37.35c1,0,2.17,0,3.46,0s3-.06,5.11-.15l-.39,1.67h-4.5c-1.31,0-2.57,0-3.76-.07a8.93,8.93,0,0,1-2.87-.43,6.14,6.14,0,0,1-2.11-1.35.59.59,0,0,0-.43-.19q-.56,0-1.78,2.39l-1.28-1.17q1.28-2.39,2.44-2.83a15.86,15.86,0,0,0,.83-2.83h-2.67v-1.33a24.21,24.21,0,0,0,2.19-2.8h-2.52V116Zm-.11-1.78-1.15,1.15a17.32,17.32,0,0,0-2.82-2.69l1.15-1.09A20.49,20.49,0,0,1,170.91,114.21Zm7.26-2.74v1.2h3.95v1.5h-3.95v1.06h5v1.54h-2.26a11.5,11.5,0,0,1-.59,1.39h1.95v1.48h-4.06v1h3.5v1.43h-3.5v1h4.69v1.56h-4.69v1.57H176.5v-1.57h-4.58V123.1h4.58v-1H173v-1.43h3.54v-1h-4.06v-1.48h2c-.22-.5-.44-1-.69-1.39h-2.19v-1.54h4.93v-1.06h-3.8v-1.5h3.8v-1.2Zm1.09,5.3h-3.82q.31.67.61,1.39h2.61A9,9,0,0,0,179.26,116.76Z"/><path d="M198.75,114.32c-.07.26-.15.5-.24.74a8.63,8.63,0,0,0,5,2.2l-.72,1.44a8.45,8.45,0,0,1-1.43-.33V126h-3.67a40.27,40.27,0,0,1,5.72,1.33l-.57,1.39a37,37,0,0,0-6.19-1.61l.57-1.11h-4.26l.76,1a20.13,20.13,0,0,1-5.89,1.72l-.8-1.35A25,25,0,0,0,192.5,126h-3.41v-7.65h4.46l-.7-1.07c2.48-.44,3.95-1.52,4.41-3.22Zm-6.35,1.44v1.5H187v-1.5Zm-.39-3.33v1.48h-4.59v-1.48Zm7.61,8.1v-.87h-8.8v.87Zm0,2v-.82h-8.8v.82Zm0,1.15h-8.8v.91h8.8Zm-6.35-7.76-1-1.28a6.82,6.82,0,0,0,2.67-3.26l1.61.19c-.11.3-.22.59-.35.87h6.5v1.22a10.39,10.39,0,0,1-1.59,2.43l-1.2-.94a7.52,7.52,0,0,0,1-1.26h-5.52A9.62,9.62,0,0,1,193.26,115.89Zm7.91,2.43a8.88,8.88,0,0,1-3.35-2.07,6.34,6.34,0,0,1-3.37,2.07Z"/><path d="M209.67,113.69a17.85,17.85,0,0,0-.76-1.82l1.69-.46a14.44,14.44,0,0,1,.72,2.28h2.26v1.63h-6.41v-1.63Zm3.39,14.58h-1.61v-.8h-2.19v.94h-1.61v-6.63h5.41Zm-.17-11.82V118h-5.08v-1.54Zm0,2.57v1.56h-5.08V119Zm-1.44,6.85v-2.5h-2.19v2.5Zm4.5-6.95v-5.06h-2v-1.69h7.87v6a37.32,37.32,0,0,0,.46,7.28c.13.57.26.87.37.87a2.2,2.2,0,0,0,.17-.76c0-.52.06-1.13.06-1.85l1.37.67a10.26,10.26,0,0,1-.5,3.43.83.83,0,0,1-.7.54,2,2,0,0,1-1.72-1.26c-.81-1.46-1.22-4.43-1.22-8.91v-4.3h-2.45v5.06h2.06v1.69h-2.06v7.85h-1.7v-7.85h-2.06v-1.69Z"/><path d="M244,112.09v1.65h-7.17V115h5.67v7.61h-5.93a7.67,7.67,0,0,1-.94,2.63,27,27,0,0,0,9,1.65l-.44,1.7a26.56,26.56,0,0,1-9.67-2.07c-1.33,1-3.43,1.72-6.3,2.06l-.76-1.61a11.92,11.92,0,0,0,5.33-1.3,17.2,17.2,0,0,1-2.72-1.87l1.35-.93a16.19,16.19,0,0,0,2.59,1.65,6.44,6.44,0,0,0,.8-1.91h-5.32V115h5.61v-1.28h-7.15v-1.65Zm-8.91,6v-1.56h-3.87v1.56Zm0,1.89v-.44h-3.87v1.57H235C235.06,120.73,235.08,120.34,235.08,120Zm5.67-.44h-3.93V120a10.71,10.71,0,0,1-.06,1.13h4Zm-3.93-1.44h3.93v-1.56h-3.93Z"/><path d="M250.23,119.89l-1.37.37a51.83,51.83,0,0,0-1.06-5.11l1.41-.46C249.58,116.21,249.93,117.93,250.23,119.89Zm4.45-4.35a14.31,14.31,0,0,1-2.32,2.3v.41a29.31,29.31,0,0,1-.24,3.54c.83.94,1.69,2,2.54,3.15l-1,1.57c-.7-1.24-1.32-2.22-1.83-3a11.33,11.33,0,0,1-2.52,5l-1.3-1.15q2.67-2.86,2.72-9.19v-6.63h1.67V116a17.55,17.55,0,0,0,1.35-1.7Zm3.63-.7a9.82,9.82,0,0,0,.35-1.2h-4.17v-1.56h10v1.56h-4.09a10.29,10.29,0,0,1-.33,1.2h3.58v10.23h-2.35a23.4,23.4,0,0,1,3.35,2.35l-1.13,1.15a19.39,19.39,0,0,0-3.32-2.54l1-1h-3.32l1.13,1a15,15,0,0,1-3.74,2.59l-.94-1.22a14.23,14.23,0,0,0,3.52-2.35h-2.43V114.84Zm3.67,2.91v-1.48h-4.91v1.48Zm0,3v-1.59h-4.91v1.59Zm0,1.37h-4.91v1.56H262Z"/><path d="M277.67,124.38a1.23,1.23,0,0,1,.39.94,1.3,1.3,0,0,1-.39,1,1.47,1.47,0,0,1-1,.37,1.29,1.29,0,0,1-.94-.39,1.24,1.24,0,0,1-.41-.94,1.18,1.18,0,0,1,.41-.94,1.27,1.27,0,0,1,.94-.37A1.33,1.33,0,0,1,277.67,124.38Zm.19-10.95-.43,9.48H276l-.43-9.48Z"/><path d="M294.45,117.28v11.36h-6.09V127h4.3v-9.74Z"/><path class="cls-1" d="M471.11,174.47c17.71,4.34,31.18-5.14,40.72-20.68s6.8-37.83-6.89-49.88c-9.71-8.55-23.05-11.44-35.85-13.36s-25.65-3.13-38.3-1-25.08,7.92-33,18a40.65,40.65,0,0,0,33.35,65.84c3.5-.13,7-.7,10.47-.07s9.45,1.29,10.23,4.7c.49,2.12-.13,4.32,0,6.49s1.48,4.63,3.66,4.62c1.49,0,2.68-1.18,3.7-2.27,3.78-4.06,8.18-8.28,12-12.34"/><path d="M470.32,177.37c11.51,2.59,22.6.19,31.75-7.35s16.13-18.43,17.87-30.1c1.68-11.33-.88-23.31-7.78-32.55C504,96.48,490.83,91.57,477.92,89c-27-5.31-62.29-7.9-81.8,15.78-16.49,20-11.64,50.68,10.18,64.6a44.84,44.84,0,0,0,19.61,6.78c4.11.41,8.11-.26,12.2-.18,2.69.05,8.57.28,10.26,2.7s-.17,6.78,1.56,9.86a6.44,6.44,0,0,0,5.93,3.48c3.38-.23,5.59-3.32,7.75-5.55,3.19-3.31,6.47-6.54,9.63-9.89,2.65-2.81-1.59-7.06-4.24-4.24-1.42,1.51-12.24,14.16-14.08,12.64-1-.82.22-6.37-.21-7.8a7.4,7.4,0,0,0-3-4c-8.21-5.59-19.6-1.7-28.65-3.42-24.07-4.58-37.64-30.85-27.35-53.12C407.07,92,438,89.7,461.45,92.51c12,1.44,24.86,3.21,35.47,9.34a35,35,0,0,1,17.2,26.09c3.1,23.26-17.63,49.17-42.22,43.64-3.76-.85-5.37,4.94-1.6,5.79Z"/><path d="M440.34,126.25q1.58,0,1.61,1.8v7.39q0,2.27-1.61,2.24h-4.59v5.71q0,.56.87.62H439a1.16,1.16,0,0,0,1-.75l.62-1.61a.89.89,0,0,1,1-.5l2.36.75a1,1,0,0,1,.5,1.12l-2,4a2.71,2.71,0,0,1-2.11,1H434q-2.24-.06-2.24-2.61v-7.7h-2.95a12.27,12.27,0,0,1-2,5.34q-2.48,3.82-8.79,4.75-.81.15-1.09-.25l-1-2.11q-.4-1,.4-1.15,4.72-.62,6.55-3.06t1.89-3.52h-3.23q-1.71,0-1.74-2.24V131.1a8.43,8.43,0,0,1-1.49,1.49q-.56.53-1.24-.5l-1.37-1.74a1.13,1.13,0,0,1,0-1.49,47.48,47.48,0,0,0,7.95-9.31q.68-1.37,1.61-1.37l2.61.75q.81.37,0,1.61h6.58a4.29,4.29,0,0,1,1.61.37l2,.75q1,.5.25,1.49a37.23,37.23,0,0,0-2.61,3.1Zm-16.52,7.42h5.09v-3.6h-5.09Zm.12-7.42h7q.84-1.05,1.74-2.36h-6.71A15,15,0,0,1,423.95,126.25Zm8.82,7.42H438v-3.6h-5.21Z"/><path d="M473.74,125.14q0,1.27-1.61,1.37h-5.21v.62h7.82q1.46,0,1.37,1.49-.16,4.41-2.86,5.71l-1.37.25a1.24,1.24,0,0,1-.84-.09v8.32q0,1.27-1.15,1.21h-.5q2.58.56,4.59.87,1,.43.19,1.68l-1,1.27a1.65,1.65,0,0,1-1.89.4,16.86,16.86,0,0,1-5.59-2.24,4.49,4.49,0,0,1-1.68-1.92h-3.26a5,5,0,0,1-1.65,1.92,15.15,15.15,0,0,1-5.71,2.36,1.79,1.79,0,0,1-1.86-.75L450.24,146q-.44-.87,1.43-1a11.58,11.58,0,0,0,3.6-1h-.43a1.12,1.12,0,0,1-1.18-1.27v-8.44a24.12,24.12,0,0,1-3.63,1.18,1.41,1.41,0,0,1-1.86-.47l-.59-1.49q-.59-1.18.34-1.43a13.67,13.67,0,0,0,6.3-2.17h-3.07q-1.12,0-.87-1.61l1.24-3.48q.28-1.15,2-1.12H457V123h-5.59q-1.21-.09-1.24-.87v-1.37q0-.9,1.24-.87H457v-.25q-.19-.78.62-.75h2q1,0,1,.62v.37h2.76v-.09q0-1,.81-1H466q.87,0,.87,1v.09h5.21a1.4,1.4,0,0,1,1.61,1.61Zm-18.87,1.37-.25.62h1.89l.22-.62Zm2.48,7.7v.62h10v-.62Zm0,3v.62h10v-.62Zm0,3.17V141h10v-.62Zm6-9.59V130h-4l-1,1.24h5A2.37,2.37,0,0,1,463.34,130.82Zm0-4.32h-2.83l-.06.62h2.89Zm-2.76-2.73h2.76V123h-2.76Zm9.31,0V123h-3v.75Zm.13,7.33h.87q.37,0,.84-.56t-.22-.56h-4.59v.84a1.4,1.4,0,0,1,0,.4h1.71a2.47,2.47,0,0,1,.59.06A1.55,1.55,0,0,1,470,131.1Z"/><path class="cls-1" d="M240.29,348.95c.82-1.43,3-10.15,2-12.69a646.46,646.46,0,0,0-112.21-3.8c-.79,5.32-.47,16-.47,18.83"/><path d="M242.88,350.46c2-4.23,3.45-10.37,2.35-15a3.1,3.1,0,0,0-2.89-2.2,644.83,644.83,0,0,0-112.21-3.8,3.11,3.11,0,0,0-3,3c-.8,6.23-.51,12.56-.47,18.83,0,3.86,6,3.87,6,0,0-6.27-.33-12.6.47-18.83l-3,3a644.83,644.83,0,0,1,112.21,3.8l-2.89-2.2c.68,2.86-.49,7.72-1.74,10.37-1.63,3.47,3.54,6.52,5.18,3Z"/><path class="cls-1" d="M131.86,361.77c-.82-1.43-3-10.15-2-12.69A646.46,646.46,0,0,1,242,345.28c.79,5.32.47,16,.47,18.83"/><path d="M134.45,360.25c-1.24-2.63-2.42-7.53-1.74-10.37l-2.89,2.2A644.83,644.83,0,0,1,242,348.28l-3-3c.8,6.23.51,12.56.47,18.83,0,3.86,6,3.87,6,0,0-6.27.33-12.6-.47-18.83a3.1,3.1,0,0,0-3-3,644.83,644.83,0,0,0-112.21,3.8,3.12,3.12,0,0,0-2.89,2.2c-1.1,4.62.35,10.76,2.35,15,1.64,3.49,6.81.45,5.18-3Z"/><path class="cls-1" d="M130.89,366.9c-.82-1.43-2-2.35-1.08-4.88A646.46,646.46,0,0,1,242,358.21c.79,5.32.47,16,.47,18.83"/><path d="M133.48,365.38a3.33,3.33,0,0,1-.77-2.57l-2.89,2.2A644.83,644.83,0,0,1,242,361.21l-3-3c.8,6.23.51,12.56.47,18.83,0,3.86,6,3.87,6,0,0-6.27.33-12.6-.47-18.83a3.1,3.1,0,0,0-3-3A644.83,644.83,0,0,0,129.82,359a3.12,3.12,0,0,0-2.89,2.2c-.68,2.88-.18,4.73,1.38,7.19,2.06,3.26,7.25.25,5.18-3Z"/><path class="cls-1" d="M115.67,382.12a49.57,49.57,0,0,1,1.46-13.76c21.35-1,43.43,1.81,64.77,3.62,10.66.9,57.37-2.57,60.59,8.87"/><path d="M118.67,382.12a53.8,53.8,0,0,1,1.35-13l-2.89,2.2c25.84-1.07,51.31,3.87,77.08,3.78,8.91,0,17.86-.05,26.74.73,4.09.36,16.91.67,18.65,5.78,1.23,3.64,7,2.08,5.79-1.6-2.23-6.58-10.54-8.25-16.55-9.23-9.78-1.59-19.77-1.69-29.65-1.69-27.43,0-54.6-4.91-82.05-3.77a3.07,3.07,0,0,0-2.89,2.2,61,61,0,0,0-1.57,14.56c0,3.86,6,3.87,6,0Z"/><line class="cls-1" x1="132.58" y1="339.62" x2="199.25" y2="338.29"/><path d="M132.58,341.12l66.67-1.33c1.93,0,1.93-3,0-3l-66.67,1.33c-1.93,0-1.93,3,0,3Z"/><path d="M373.69,296c4.42,11.21,8.82,22.46,14.77,33l5.18-3a12.07,12.07,0,0,0-1.5-2.31c-2.26-3.08-7.47-.09-5.18,3a12.07,12.07,0,0,1,1.5,2.31c1.91,3.35,7.09.34,5.18-3-5.7-10.07-9.93-20.8-14.16-31.54-1.4-3.55-7.21-2-5.79,1.6Z"/><path d="M371.09,286.39c-4.05,4.55-9.22,11-5.39,17.27,2.95,4.84,10,6.16,15.24,5.45,12.92-1.76,11.93-18.53,2.59-24.42C373,278,361,287.14,362.47,299c1.54,12.31,17.17,15.41,26.29,8.91,10.23-7.29,3.53-24.23-7.1-27.45-11.18-3.38-25,10-19,21.15,4.62,8.48,22.13,11.92,28,3.1,5.63-8.46-1.07-23.93-12-22.62-9.76,1.17-19.9,14.21-13,23.33,5.87,7.78,21.47,7.28,25.66-2,4.35-9.67-6.79-21.18-16.42-20.46a10,10,0,0,0-9.31,10c-.1,6,4.33,11.2,9.9,13.06,5,1.66,11.9,1.08,15-3.75,2.63-4.13,1.35-9.6-1.15-13.46-2.77-4.26-7.49-7.47-12.73-6.47-5.78,1.11-10.27,6.84-9.18,12.78,1.95,10.71,23.14,14.77,22.24,1.12-.35-5.39-5.33-11.08-10.67-12-5.63-1-9.19,4.14-8.62,9.27s4.79,10.06,10.06,10.52c4.95.44,8.06-3.44,7.48-8.19-.52-4.2-4.12-10.3-9-10.28-5.38,0-6.52,7-4.94,10.94,1.79,4.43,7.34,7.85,11.24,3.51,2.77-3.08,1.27-8.92-1.8-11.28-9.75-7.49-9.93,17.11.3,11.43,5-2.78,1.65-9.26-1.3-12.17a3,3,0,0,0-4.71.61c-1.91,3.74-.74,8.22,3.25,10,1.53.68,4.12.33,4.41-1.79.53-4-1.2-6.45-5.24-6.95-3-.37-4.08,4.33-1.51,5.59a5.32,5.32,0,0,0,3.56.74c3.78-.46,3.83-6.46,0-6l-.53.08-1.51,5.59-.55-.65,4.41-1.79-1.1-1.78-4.71.61c.47.46,1.42,2.37,1.86,2.53,4.1,1.5.88-4.16,0-.89,0,0,1.4,2.72.25,1.67a4.82,4.82,0,0,1-1.1-2.47c-.36-2.72.61-.92,1.46.27.51.71,1.9,3.09,1.4,4-1.3,2.26-4.42-1-5.17-2.54-.86-1.77-1.37-4.56,2.28-4.15,1,.11,2.9,2.33,3.44,3.18,1.57,2.47,1.47,5-1.77,5.41-2.91.4-7.48-2.74-7.59-5.75-.15-4.06,4.53-6.24,7.78-4.6,2.78,1.4,6.11,6.39,4.72,9.62-2.61,6-13,1-14-4-1.32-7,6.54-5.9,10.1-3.06s6.67,8.41,2.25,11.75c-3,2.28-8.08,2.29-11.36.56-5.09-2.67-3.21-8.36,0-11.77s8.58-5.88,11.75-1.32c2.57,3.69,3.75,11-1.57,12.68a16,16,0,0,1-12.55-2c-5.84-4.05-2.13-11.34,3-14.06,5.76-3.07,10.88.48,13.38,5.83,2.85,6.09-.06,10.86-6.47,11.87-5.89.93-12.13-1.21-11.9-8.18.21-6.3,6-10.55,11.72-7.19,4.6,2.68,7.67,12.06.54,13.57-2.4.51-6.37.19-8.36-1.3-4.43-3.32.63-8.44,3.1-11.21s-1.67-7.13-4.24-4.24Z"/><path class="cls-1" d="M471.84,574.89c4.79,9.41,11.56,25.82,20,33,3.13,2.68,4.33-1.93,10.85-3.28,4.37-.91,10.32-4.22,14.68-6.27,11.25-5.3,20.7-11.46,32-16.27,7.34-3.12,18.83-9.06,26.08-12.48,2.47-1.17,13.48-4.92,15.49-6.69,6.74-5.93-.07-13.14-2.43-17.78-4.61-9.06-10-17.56-14.66-26.64-1.74-3.42-3.71-15.66-9.23-16.25s-28.42,12.54-34.51,15.28c-7,3.16-28.58,15.15-33.69,17.28,0,0-36.16,17.16-35.11,20.27S471.84,574.89,471.84,574.89Z"/><path d="M469.25,576.4c3.57,7.1,6.77,14.41,10.84,21.25,2.54,4.28,7.65,13.95,13.5,14.05,2.6,0,4.41-1.93,6.59-3,3.55-1.79,7.69-2.48,11.35-4.17,9-4.16,17.69-8.91,26.44-13.55,8-4.26,16.41-7.74,24.57-11.72,6.43-3.14,12.74-6.42,19.42-9,5.26-2,11.83-3.72,14.12-9.49,2.77-7-3.24-13.86-6.31-19.66-4.49-8.49-10.66-16.71-13.94-25.75-1.79-4.93-2.87-11.59-7.55-14.78-3.82-2.6-8.39-.63-12.22.92-5.95,2.41-11.67,5.37-17.37,8.32Q512.91,523.11,487,536.07c-5.53,2.75-11,5.55-16.43,8.57-3.53,2-8.25,4.1-10.91,7.28-2.84,3.4.23,7.31,2,10.59,2.47,4.68,5.06,9.3,7.67,13.9,1.91,3.36,7.09.34,5.18-3q-2.61-4.59-5.14-9.21c-1.16-2.12-2.32-4.25-3.43-6.4-.29-.56-.73-2.22-1.26-2.53-.76-.45-.79.78-.49.66,2.69-1,5.66-3.92,8.24-5.4,4.21-2.4,8.5-4.63,12.82-6.83,14.92-7.59,29.73-15.57,44.82-22.8,8.87-4.25,17.43-9.18,26.46-13.09,4.19-1.82,8-4.37,10.52.59s3.47,10.18,6.05,15c4.26,8,8.75,15.85,13.15,23.74,1.59,2.84,4.58,6.17,4.65,9.57.07,3.81-3.76,5-6.62,6.24-11.55,4.8-22.62,10.42-34,15.54-9,4-17.5,8.61-26.17,13.18a191,191,0,0,1-24.31,10.72,22.34,22.34,0,0,0-4,2c-1.7,1-1.53,1.23-3.09.17-3.11-2.1-5.46-6.77-7.33-9.92-4.06-6.85-7.26-14.15-10.84-21.25C472.7,569.92,467.52,573,469.25,576.4Z"/><path class="cls-1" d="M482.33,572.49c3.45,6.77,8.18,18.65,14.65,23.63,2.4,1.85,3.57-1.62,8.86-2.9,3.55-.86,8.48-3.57,12.07-5.28,9.27-4.41,17.14-9.39,26.43-13.44,6-2.63,15.53-7.52,21.5-10.37,2-1,11-4.23,12.74-5.63,5.67-4.69.51-9.74-1.19-13.08-3.32-6.52-7.32-12.59-10.64-19.12-1.25-2.46-2.32-11.46-6.73-11.65s-23.39,10.52-28.4,12.81c-5.8,2.65-23.63,12.46-27.83,14.26,0,0-29.81,14.28-29.1,16.54S482.33,572.49,482.33,572.49Z"/><path d="M479.74,574c2.82,5.64,5.29,11.5,8.74,16.8,2.18,3.35,5.93,9.42,10.63,8.75,2.25-.32,4-2.16,6.06-3,3-1.19,6-2,8.92-3.4,7.38-3.51,14.54-7.4,21.77-11.19,11.52-6,23.59-12.07,35.66-16.93,4.17-1.68,9.37-3.11,11.66-7.37,2.68-5-.81-9.51-3.19-13.75-3.68-6.53-8.56-13.32-11-20.38-1.33-3.77-2.06-8.82-5.89-11-3.24-1.86-7-.16-10.07,1.12-4.87,2-9.56,4.44-14.24,6.85-14,7.21-28,14.42-42.14,21.42-7.44,3.69-16.93,7.17-23.06,12.94-2.75,2.58-1.57,4.91,0,7.9,2,3.82,4.1,7.55,6.25,11.27,1.93,3.34,7.12.32,5.18-3q-2.21-3.82-4.33-7.69c-.71-1.29-1.33-3.31-2.31-4.35l-.34-.7q-.64-1.86-.73,1.37a11.76,11.76,0,0,1,1.24-1c6.13-3,11.95-6.88,18.09-10,11.8-5.94,23.46-12.21,35.34-18,6.86-3.33,13.55-7,20.48-10.22,2.18-1,6.36-3.81,8.35-2,1.32,1.22,1.69,4.16,2.2,5.81a32.59,32.59,0,0,0,2.54,6c3.17,5.89,6.47,11.8,9.85,17.57.92,1.56,3.15,4,2.88,6-.41,3-4.94,4.12-7.17,5-8.84,3.61-17.23,8.11-25.91,12.09C531.7,577,519,585.61,505,590.33a27.71,27.71,0,0,0-3.44,1.27c-.62.31-2.85,2.18-3.5,2.08s-3.76-4.89-4.43-5.91c-3.47-5.28-5.92-11.16-8.74-16.8C483.19,567.52,478,570.55,479.74,574Z"/><path d="M500.62,553.77q.61-.31,1,.43l2,3.83,1.92-1q.61-.31,1,.46l.85,1.68q.38.75-.13,1l-2,1,.76,1.49a34.26,34.26,0,0,0,4.93,2.45q.52.17.43.85l-.2,1.85c-.06.41-.21.62-.45.63a6.8,6.8,0,0,1-2.17-.77l5,9.8q.32.64-.21.91l-1.81.92q-.61.31-.88-.22l-5-9.8a27,27,0,0,1-.28,5.24.66.66,0,0,1-.85.57l-1.87-.39q-.84-.21-.73-1a33.5,33.5,0,0,0-.34-10.69L499,564.39c-.41.21-.74.05-1-.46l-.85-1.68c-.25-.5-.18-.85.23-1.06l3.25-1.65-2-3.83a.73.73,0,0,1,.34-1.11Zm5.24,7.79a27.83,27.83,0,0,0,1.41-4.94,30.06,30.06,0,0,0,.52-6.23.85.85,0,0,1,.47-.91l2.21-1.12a.71.71,0,0,1,.94.19,15.16,15.16,0,0,0,4.64,2.83,22,22,0,0,0,7.31,1.55q1.24,0,1.15.75l-.49,2.13q-.17.72-.56.69l-1.15-.09,2.84,5.59q.38.75-.29,1.08l-1.54.79a2.49,2.49,0,0,1,.35.69,6.65,6.65,0,0,1,.44,1.65,10.7,10.7,0,0,1,5.47,1.14,1,1,0,0,1,.49,1.29l-.79,1.88q-.24.39-1,.13a38.59,38.59,0,0,0-3.86-1.26,11,11,0,0,1-.75,3.93.84.84,0,0,1-.89.49l-1.7-.31q-.7-.18-.34-1.33a10,10,0,0,0,.41-3.73,10.36,10.36,0,0,0-.53-3.22l-1,.5q-.67.34-1-.41l-2.88-5.67q-.34-.67.25-1l4.82-2.45q-1.68-.21-3.34-.58l.27.53a.53.53,0,0,1-.26.8l-6.55,3.33q-.37.19-.59-.24l-.27-.53q-.43,1.39-.89,2.6l4.63-2.36a.66.66,0,0,1,1,.33l2.88,5.67c.25.5.16.86-.29,1.08l-1.38.7a2.57,2.57,0,0,1,.27.6,6.22,6.22,0,0,1,.44,1.32,10.82,10.82,0,0,1,3.47,1.22q.72.37.33,1.57l-.52,1.47q-.18.5-.95.11l-2-1a18.74,18.74,0,0,1-.91,4.28.7.7,0,0,1-.89.49l-2.1-.37q-.67-.13-.29-1.36a13.49,13.49,0,0,0,.82-3.6,9.27,9.27,0,0,0-.45-3.32l-1,.5q-.67.34-1-.41l-2.72-5.35q-.21.51-2.15-.28Q505.25,563,505.86,561.56Zm5.39-8.77a12.92,12.92,0,0,1-.43,3.84l3.86-2A12.61,12.61,0,0,1,511.25,552.79ZM512,564l.85,1.68,1.12-.57-.85-1.68Zm7.27-3.7.85,1.68,1.33-.68-.85-1.68Z"/><path d="M528.28,540.17a.83.83,0,0,1,.85-.7l3.92.05a.76.76,0,0,1,.81.8l-.12,2.14q-.09.62-1,.65l-4.14,0q-.76,0-.75-.69Zm1.83,7.82a.84.84,0,0,1,.9-.59l4-.08a.74.74,0,0,1,.77.72l-.25,1.87c0,.56-.25.88-.73.94l-4.07.16q-.95,0-.93-.77Zm10.79-13.57q1.3-.66,1.85.47l8.33,16.37a1.23,1.23,0,0,1-.67,1.85,6.13,6.13,0,0,0,3.36,1.07q1.08-.11.81,1.33l-.19,1.47q-.24.86-1.33.81a9.86,9.86,0,0,1-5-2.5q-.62-.56-.18-.88l-1.49.76a.62.62,0,0,1,.82.56,9.55,9.55,0,0,1-1,5.59q-.58.9-1.32.7l-1.6-.83q-.94-.59-.52-1.35a8.81,8.81,0,0,0,1.21-3.43,1.12,1.12,0,0,1-1.73-.5l-8.38-16.48a1.15,1.15,0,0,1,.6-1.71ZM536,555.13q-.06-1,.47-1.18l2.19-.44c.32,0,.58.34.77,1a69.59,69.59,0,0,1,1.58,9.42q.14.8-.85,1l-2.46.18q-.78-.07-.72-1.14A45,45,0,0,0,536,555.13Zm2.1-15.38,1.15,2.26,2.45-1.25-1.15-2.26Zm2.57,5.06,1.15,2.26,2.45-1.25-1.15-2.26ZM551.25,550l-8-15.66q-.27-.53.47-.91l1.57-.8q.67-.34.94.19l8,15.66q.43.85-.21,1.18l-1.6.81Q551.68,550.85,551.25,550Zm-7.92,0,1.1,2.16,2.45-1.25-1.1-2.16Zm13.48.15-9.7-19.06q-.27-.53.42-.89l1.76-.89q.64-.33.91.21L560,548.77q1.8,3.54-.23,5.35L558,555.59a1,1,0,0,1-1.5-.18l-1.18-1.27q-.78-.74-.2-1.17l1.59-1.08Q557.43,551.35,556.8,550.12Z"/><path class="cls-6" d="M106.21,467.71V631.92c0,3.86,6,3.87,6,0V467.71c0-3.86-6-3.87-6,0Z"/><path d="M489.53,119.51a74.9,74.9,0,0,0-5.37,15.93c-.75,3.77,5,5.38,5.79,1.6a68.23,68.23,0,0,1,4.76-14.5c1.58-3.49-3.59-6.54-5.18-3Z"/><path d="M485.05,149.24h.67a3,3,0,0,0,0-6h-.67a3,3,0,0,0,0,6Z"/></g></g></svg>