<svg id="圖層_1" data-name="圖層 1" xmlns="http://www.w3.org/2000/svg" viewBox="0 0 699.93 651.54"><defs><style>.cls-1,.cls-4{fill:#f3eee8;}.cls-2,.cls-5{fill:#d1ccc7;}.cls-3{fill:#9b9a98;}.cls-4{stroke:#000;}.cls-4,.cls-5{stroke-miterlimit:10;stroke-width:2px;}.cls-5{stroke:#d1ccc7;}.cls-6{fill:#040000;}</style></defs><title>工作區域 24</title><path d="M667,174.62c3.38.79,6.79.36,10.22.32a1.5,1.5,0,0,0,0-3h-.88a1.5,1.5,0,0,0,0,3h.88v-3c-3.13,0-6.33.51-9.42-.21-1.88-.44-2.68,2.45-.8,2.89Z"/><path d="M666.87,180.63c3.35,0,6.77-.47,10.08.22l.4-2.95h-.73a1.5,1.5,0,0,0,0,3h.73c1.65,0,2.1-2.59.4-2.94-3.6-.75-7.23-.36-10.88-.33a1.5,1.5,0,0,0,0,3Z"/><path d="M660.91,213.66a12.7,12.7,0,0,0,11.8-9.83c.8-3.76-5-5.37-5.78-1.59a6.65,6.65,0,0,1-6,5.42c-3.84.21-3.86,6.21,0,6Z"/><path d="M663.94,224.18a11.71,11.71,0,0,0,12.69-5c2.15-3.21-3-6.22-5.18-3a5.53,5.53,0,0,1-5.91,2.21c-3.75-.94-5.35,4.85-1.6,5.78Z"/><path d="M96.68,202.79c-2.23-2.34-7.42-1.82-10.22-2-14-.77-28.46-.47-42.29,2.27a1.19,1.19,0,0,0-1,.8,1.45,1.45,0,0,0-.52.73c-1.38,4-2.36,8.61-1.29,12.84s4.3,6.7,8.26,7.9c10.66,3.2,21.78.36,32.62,1.08,3.91.26,8.92,1,12.27-1.72s3.56-8.14,3.52-12.32C98.05,209.62,98.8,205,96.68,202.79Z"/><path class="cls-1" d="M64,213.58c0,.51-.21.76-.64.76H59.93v.29a11.14,11.14,0,0,0,1.73-.17l-.11-.29L63,214a8,8,0,0,1,1.32,1.1c.23.26.26.45.07.56l-.81.35a.51.51,0,0,1-.66-.14l-.26-.34c-.92.16-2.2.3-3.85.42s-3.1.18-4.34.16a.47.47,0,0,1-.52-.29l-.32-.75c-.08-.24.06-.36.4-.36a32.25,32.25,0,0,0,4.17-.06v-.35H55.12c-.42,0-.63-.25-.63-.76v-3c0-.44.19-.65.58-.65h3.18v-.41h-5c-.23,0-.34-.12-.34-.37v-.87c0-.24.11-.36.34-.36h5v-.41c0-.24.11-.36.35-.36h1.1c.23,0,.34.12.34.36v.41h5.5a.32.32,0,0,1,.35.36v.87c0,.25-.12.37-.35.37H60v.41h3.3a.57.57,0,0,1,.64.65Zm-1.74,2.22c.19,0,.29.06.29.16v.45h3.13c.19,0,.29.05.29.15v1.07c0,.08-.1.13-.29.13H62.53v2.12c0,.35-.27.61-.81.77a7.32,7.32,0,0,1-1.85.25.46.46,0,0,1-.46-.38l-.29-1c-.06-.23,0-.34.23-.34a6.52,6.52,0,0,0,.95-.08c.33-.06.5-.18.5-.39v-1H53.21c-.23,0-.34,0-.34-.15v-1.05c0-.1.11-.15.34-.15H60.8V216c0-.1.09-.16.28-.16Zm-6.15,1.86,2,1.28c.18.11.22.23.12.35l-.83.9c-.14.13-.32.12-.53,0a22.71,22.71,0,0,0-2.07-1.41c-.12-.09-.1-.21,0-.33l.73-.71A.41.41,0,0,1,56.09,217.66Zm.19-6.56v.41h2v-.41Zm0,1.59v.41h2v-.41ZM60,211.1v.41h2.14v-.41Zm0,1.59v.41h2.14v-.41Z"/><path class="cls-1" d="M70,211a.45.45,0,0,1,.47-.12,12.56,12.56,0,0,1,2.31,1.07.31.31,0,0,1,.06.45l-.46.81c-.1.16-.28.18-.53.06-.69-.33-1.44-.68-2.25-1a.35.35,0,0,1-.12-.57Zm1.51,4.19a.27.27,0,0,1,.4-.23l1.1.41c.14.06.18.2.12.45a19,19,0,0,1-1.62,4.44.43.43,0,0,1-.64.17l-1-.46c-.25-.13-.29-.34-.12-.64A15,15,0,0,0,71.47,215.15Zm-.18-8.07a8.59,8.59,0,0,1,1.86,1.39q.19.19-.06.51l-.58.6a.47.47,0,0,1-.58-.05c-.53-.41-1.13-.84-1.79-1.29-.23-.17-.25-.34-.06-.52l.69-.64A.45.45,0,0,1,71.29,207.08Zm5.15.55c.16-.33.37-.46.64-.4l1,.23c.28.07.34.29.18.63L76.33,212l4-.29-.4-.64a.44.44,0,0,1,.23-.72l.75-.29a.38.38,0,0,1,.52.11L83.27,213c.13.21.07.39-.17.53l-.87.54c-.16.08-.32,0-.46-.19l-.35-.52-7.58.52c-.29,0-.44-.09-.46-.35l-.06-.88c0-.31.08-.47.29-.48l.69,0Zm-1.73,13c-.31,0-.47-.17-.47-.52v-5.17c0-.31.19-.47.53-.47h6.94a.41.41,0,0,1,.46.47v5.17c0,.35-.15.52-.46.52ZM76,219h4.35V216H76Z"/><path class="cls-2" d="M216.59,193c-5.21-4.49-12.72-6.61-19.22-8.29-14.47-3.75-29.63-4.91-44.53-5.42-26.08-.9-52.32-2.49-78.41-2.49-10,0-35.53,2-45.44,2.41-7,.33-17.15-1.69-22.32,3.31l-1.26,58.3c-.3,14.49-.36,29-.38,43.51,0,8.87-.16,17.72,8.21,22.64,10.45,6.14,40,5.62,51.69,7a618.93,618.93,0,0,0,67,3.55c21,.1,42-1.55,63-1.7,7.42-.05,18.11,2.49,20.76-6,7.19-23.12,9.31-47.58,9.26-71.68C224.9,223.63,229.07,203.75,216.59,193Zm-1.19,46.89c0,21.22-1.88,42.75-8.4,63.1-2.41,7.5-12.09,5.27-18.82,5.31-19.05.14-38,1.59-57.1,1.5a577.3,577.3,0,0,1-60.69-3.13c-10.6-1.18-38.85-.63-48.32-6-7.59-4.34-7.46-12.13-7.45-19.93,0-12.77.08-25.55.36-38.31l1.13-51.32c4.69-4.4,13.84-2.63,20.23-2.91,9-.4,33.6-2.21,42.65-2.21,23.65,0,47.43,1.4,71.07,2.19,13.5.45,27.24,1.47,40.36,4.77,5.88,1.48,12.69,3.34,17.42,7.3C219.14,209.69,215.37,227.19,215.4,239.91Z"/><path d="M2.41,240.84c-.31,15.87-.72,31.82-.37,47.7.22,9.68,3,18.54,12.68,22.46,8.64,3.51,18.69,3.95,27.87,4.56,10,.66,19.95,1.22,29.93,2.19,31.21,3.06,62.54,3.13,93.84,1.87,7.55-.3,15.09-.6,22.64-.74,5.79-.11,11.74.62,17.51.13,12.3-1,13.6-12.62,15.86-22.83A244.62,244.62,0,0,0,227.66,253c.48-11.91,1.21-24.16.89-36.07-.27-10.08-2.69-20.42-11-26.91-10.14-7.93-25.43-10-37.77-11.61-14.77-2-29.7-2.12-44.57-2.74-15.69-.65-31.38-1.38-47.08-1.67-11.07-.2-22,0-33,.7-9.53.56-19.15,1.67-28.7,1.61-6,0-21.85-2-22.74,7.05-.57,5.81-.25,11.84-.38,17.67l-.86,39.86c-.08,3.86,5.92,3.86,6,0L9,211.69l.43-20L9.62,185a7.13,7.13,0,0,1,0-1.73c.6-1.85-1.08,1.08.55.33,5.05-2.32,10.81-1.41,16.19-1.38,3.86,0,7.73-.3,11.58-.54,9.54-.6,19.07-1.27,28.62-1.68,26.08-1.13,52.36,1,78.42,2,14.2.55,28.43.95,42.44,3.58,10.84,2,25.59,4.44,31.5,15,5,8.88,3.69,20.14,3.22,29.88-.59,12.15-.32,24.28-1.39,36.42-1.21,13.69-3.14,28.16-7.73,41.19-1.83,5.17-6.48,5.15-11.25,5-5.59-.18-11.14-.24-16.74-.1-28.64.73-57.08,2.08-85.73.71-13.66-.66-27.21-2.42-40.84-3.25-10.22-.61-20.52-.78-30.65-2.34-4.34-.67-9.23-1.42-13.08-3.69C9,301,8.18,294.61,8,288.54c-.35-15.88.06-31.83.37-47.7C8.49,237,2.49,237,2.41,240.84Z"/><path d="M13.48,242.42c-.28,13.67-.54,27.38-.35,41.06.11,8.12,1.86,15.75,9.94,19.32,7.48,3.31,16.67,3.57,24.69,4.09,8.49.55,17,.72,25.44,1.6,28,2.94,56.32,3.31,84.47,2.24,12.91-.49,25.74-.55,38.64-.63,3.09,0,6.5-.3,9.05-2.24,3.91-2.95,4.56-9.12,5.67-13.5a201,201,0,0,0,5.54-39.44c.53-11,1.15-22.36.89-33.38-.21-8.83-2.32-17.8-9.79-23.31-8.68-6.4-21.38-8.14-31.77-9.57-13.79-1.89-27.73-2-41.62-2.59-14.48-.58-29-1.24-43.46-1.49-18.24-.31-36.27,1.55-54.48,2.11-5.09.15-19.7-2.35-21.73,4.57-.41,1.39-.08,3.5-.11,4.92l-.21,9.42-.81,36.82c-.05,1.93,2.95,1.93,3,0l.6-27.16.39-17.76a28,28,0,0,1,.11-4.85c.07-.34-.13-1,0-1.32.41-.78,4.29-1.33,5.5-1.5,7.44-1.05,15.44-.23,23-.69,8.46-.52,16.92-1.09,25.39-1.45,23.18-1,46.53.77,69.69,1.66,12.69.48,25.41.76,38,2.81,10.67,1.74,25.44,3.83,31.65,13.8,5,8,3.72,18.69,3.28,27.69-.56,11.48-.32,22.93-1.51,34.4-.64,6.1-1.54,12.17-2.77,18.18-.63,3.07-1.34,6.13-2.14,9.15s-1.42,7.82-4,9.95c-3.16,2.59-8.32,1.76-12.11,1.59-5.71-.25-11.45,0-17.15.19-25.89.81-51.63,1.68-77.52.25-11.3-.63-22.52-2.11-33.8-2.69-9.42-.48-18.9-.66-28.24-2-3.78-.56-7.89-1.18-11.34-2.92-5.89-3-7.17-8.82-7.35-14.88-.42-14.11,0-28.32.33-42.42C16.52,240.49,13.52,240.49,13.48,242.42Z"/><rect class="cls-2" x="76.77" y="405.15" width="538.94" height="231.02"/><path d="M615.71,633.16H85c-2.24,0-5-.45-7.25,0a4.82,4.82,0,0,1-.93,0l3,3v-231l-3,3H607.53c2.24,0,5.05.46,7.25,0a4.82,4.82,0,0,1,.93,0l-3-3v231c0,3.87,6,3.87,6,0v-231a3,3,0,0,0-3-3H98.58c-6.92,0-14-.41-20.88,0-.31,0-.62,0-.93,0a3,3,0,0,0-3,3v231a3,3,0,0,0,3,3H593.9c6.92,0,14,.41,20.88,0h.93C619.57,639.16,619.58,633.16,615.71,633.16Z"/><rect class="cls-2" x="76.77" y="636.16" width="538.94" height="12.19"/><path d="M615.71,633.16H98.58c-6.92,0-14-.4-20.88,0-.31,0-.62,0-.93,0a3,3,0,0,0-3,3v12.2a3,3,0,0,0,3,3H593.9c6.92,0,14,.41,20.88,0,.31,0,.62,0,.93,0a3,3,0,0,0,3-3v-12.2c0-3.86-6-3.86-6,0v12.2l3-3H85c-2.24,0-5-.46-7.25,0a5.78,5.78,0,0,1-.93,0l3,3v-12.2l-3,3H593.9c6.92,0,14,.41,20.88,0h.93C619.57,639.16,619.58,633.16,615.71,633.16Z"/><path class="cls-1" d="M423.63,49.2c0,17.43-2.12,46.66,4.28,63.58,2.38,6.29,7.16.4,16.85,3.29,6.51,1.93,16.79,1.52,24.07,1.76,18.78.62,35.72-1.36,54.23,0,12,.9,31.56.76,43.66,1.16,4.13.13,21.52,2.85,25.44,1.75,13.14-3.69,8.91-19.4,8.91-28,0-16.8-1.48-33.38-1.48-50.2,0-6.33,5.72-25.84-1.31-30.83s-46.85-2.83-56.93-3.37c-11.64-.61-48.85.89-57.19.2,0,0-60.44-1.82-61.16,3.55S423.63,49.2,423.63,49.2Z"/><path d="M420.63,49.2c0,12.46-.67,24.92-.07,37.38a123.64,123.64,0,0,0,2.05,18.3c.78,3.93,1.63,10.16,5.19,12.72,3.4,2.44,8.05.47,11.86.64,3.07.13,6,1.25,9,1.68a89.54,89.54,0,0,0,10.21.74c15.47.38,30.87-.14,46.34-.29,14-.14,28,1.08,42,1.29,10.47.16,20.7.45,31.1,1.57,8.21.88,17.79,2.43,23.21-5.47,5.29-7.73,2.6-18.23,2.52-26.93-.14-16.23-2.28-32.68-1.46-48.89.45-8.8,4-18.08,1.31-26.84-2.24-7.27-9.19-8.15-15.79-8.86-9.75-1-19.65-.91-29.45-.85-29.44.19-58.89.23-88.34-.07-8.27-.09-16.55-.07-24.82.21-6.62.23-13.81.18-20.24,1.94-5.45,1.5-5.45,5-5.48,10.06-.05,8.62.29,17.24.61,25.84.08,1.94.15,3.89.23,5.83.17,3.84,6.17,3.86,6,0q-.35-8.27-.59-16.53c-.12-4.16-.22-8.33-.25-12.49,0-1.41,0-2.81,0-4.21a13.28,13.28,0,0,0,.06-2c-.29-2.27.85-.47-.48-.24,2.9-.49,9-1.63,13.21-1.89,7.37-.45,14.76-.55,22.14-.57,9.83,0,19.64.41,29.46.47,17.05.12,34.12-1,51.16-.38,16.17.58,32.62-1.22,48.7,1.1,2,.28,5.13.49,6.73,1.9,3.08,2.7,2.07,9.33,1.73,12.87-.38,4.16-1.22,8.25-1.69,12.39-.69,6-.13,12.35.1,18.41.5,13.42.46,27,1.47,40.38.59,7.79,1.21,19.6-9.62,19.61-7.8,0-15.5-1.77-23.28-2-12-.43-23.91-.24-35.86-.75-15.9-.68-31.56-.56-47.47-.32-7.48.12-15-.07-22.43-.23a68.88,68.88,0,0,1-11.57-.88c-2.64-.52-5.14-1.37-7.85-1.54-2.48-.16-5.18.82-7.58.53-2.67-.33-2.79-3.12-3.44-5.6a95.11,95.11,0,0,1-2.65-19.08c-.73-13,0-25.94,0-38.91C426.64,45.34,420.64,45.33,420.63,49.2Z"/><path class="cls-1" d="M437.47,26.6q-1.37,17.81-2,35.65a4.29,4.29,0,0,0,.64,3c.94,1.15,2.75,1.29,4.33,1.32q11.72.19,23.42-.15c1.54,0,3.25-.17,4.25-1.2a4.71,4.71,0,0,0,1-3,206.73,206.73,0,0,0,.35-33.48,4,4,0,0,0-.86-2.61,5.11,5.11,0,0,0-3.39-1,158.36,158.36,0,0,0-27.71,1.5"/><path d="M434.47,26.6q-.93,12.36-1.56,24.75c-.24,4.72-2.66,14.12,2.5,17.15,2,1.18,4.69,1,6.94,1.07,3.9.06,7.81.05,11.71,0,4.56,0,12.94,1.42,16.37-2.57,1.42-1.66,1.53-3.7,1.73-5.78.41-4.25.61-8.52.72-12.78q.15-5.91-.05-11.83c-.1-3.19.25-7-.71-10.07-1.6-5.16-7.75-4.56-12.06-4.57a172.46,172.46,0,0,0-22.59,1.62c-3.77.49-3.82,6.49,0,6,4.88-.63,9.78-1.14,14.69-1.4,2.34-.13,4.69-.21,7-.22q1.72,0,3.45,0c1.91,0,2.15-.25,3.23,1.39,1.53,2.33,1,6.52,1,9.19s.07,5.26,0,7.89-.13,5.25-.27,7.87c-.1,1.9.33,7.06-.94,8.39s-4.93.73-6.77.77q-3.9.08-7.8.1t-7.81,0c-3.8,0-4.81.52-4.82-3.31,0-11.19,1.12-22.52,2-33.67.29-3.85-5.71-3.83-6,0Z"/><path class="cls-3" d="M444.43,53.55a39.35,39.35,0,0,0-.3,4.85.85.85,0,0,0,.18.65.83.83,0,0,0,.49.17,37.78,37.78,0,0,0,5.32.28.93.93,0,0,0,.71-.23,1,1,0,0,0,.14-.58l0-4.15a.92.92,0,0,0-.2-.71.85.85,0,0,0-.46-.16A13.89,13.89,0,0,0,445,54"/><path class="cls-2" d="M444.86,42.24a39.35,39.35,0,0,0-.3,4.85.86.86,0,0,0,.18.65.83.83,0,0,0,.49.17,37.78,37.78,0,0,0,5.32.28.93.93,0,0,0,.71-.23,1,1,0,0,0,.14-.58l.05-4.15a.89.89,0,0,0-.21-.71.79.79,0,0,0-.45-.16,16.67,16.67,0,0,0-5.93-.12"/><path d="M513.19,5.67c-1.2,5.21,1.56,12.32,8,11.39,4.84-.7,8.8-6.26,7.22-11-1.28-3.87-5.59-6.21-9.53-6-4.71.24-8,3.93-8.87,8.39-.7,3.52.6,7.13,4.24,8.3a10.54,10.54,0,0,0,8.5-1.3c2.76-1.72,4.58-4.81,3.69-8.1-1.3-4.76-7-7.33-11-3.94-4.75,4.05-1.68,12.28,4.63,12.26a6.32,6.32,0,0,0,5.74-4.72,8.38,8.38,0,0,0-1.78-8c-1.42-1.7-4.58-.79-5,1.32a20.07,20.07,0,0,1-.83,2.84c-1.05,2.84,3,5,5,2.92a3.84,3.84,0,0,0,1.26-3.77,3.19,3.19,0,0,0-.89-1.51,7.36,7.36,0,0,0-.7-.55c-.56-.32-.35-.06.65.79-1.79-3.43-7-.4-5.18,3a3.06,3.06,0,0,0,.82.93c1.06.91-.31-.5-.45-1V6.34l.25-.59,5,2.92a19.69,19.69,0,0,0,.83-2.84l-5,1.33a2.15,2.15,0,0,1,.29,1.95c-.06.21-.09.43-.25.52-.46.29.14,0,.07-.06-1-.33-1.22-1.88-.15-1.82.51,0,.85,1.07.83,1,.21.5.06.4.06.3,0,.25,0-.13,0-.11a3.81,3.81,0,0,1-.16.55c.21-.69-.42.39.06-.13-.19.21-.38.42-.59.62s.38-.26,0,0c-.14.1-.29.2-.43.28s-1.13.56-.58.34c-.33.13-.67.23-1,.33-.17,0-.93.17-.63.14a3.68,3.68,0,0,1-1.23-.07c-.69-.21,0,0-.31-.13s0,0,0,.06-.16-.42,0-.09c-.17-.49-.18.07-.05-.68.19-1.18.74-3.24,2.34-4a4.06,4.06,0,0,1,3.8.68,2,2,0,0,1,.88,1.38c0-.18,0,.19-.06.42a3.45,3.45,0,0,1-.61,1.15c-2.3,2.93-3.71-.08-3.14-2.55.87-3.76-4.91-5.36-5.79-1.6Z"/><path class="cls-4" d="M503.18,36.31l14.75,26.06,32.85,2.28S545.77,26.59,503.18,36.31Z"/><path class="cls-2" d="M517.93,62.37l-6.29,32.92s40.55,2.55,38.63-29.1Z"/><path class="cls-3" d="M501.62,38l16.31,24.42-6.29,32.92S484.58,89,484.58,69.42,492.75,40.84,501.62,38Z"/><path d="M512,31.25c-6.39,1.32-13.23,2.4-18.7,6.21S484.17,47.6,482.41,54C478.62,67.94,482.18,84,495,91.7c6.62,4,14.81,7.28,22.63,7.3s16.17-3.32,22.91-7.13a23.11,23.11,0,0,0,11.65-15.34c1.54-6.83,2-15.61.27-22.4-2.1-8-9.83-14.4-16.73-18.4A34.16,34.16,0,0,0,512,31.25c-3.8.7-2.19,6.48,1.59,5.79,7.81-1.44,15.41,1.2,21.82,5.62,3.45,2.37,7.28,5.54,9.51,9.16s2.32,7.67,2.31,11.8c0,7.11-.14,15.22-5.83,20.37s-16.23,9-23.81,9-16.44-3.72-22.39-8.39c-6.38-5-8.34-13.15-8.17-20.94.15-7.41,2.68-15.63,8.61-20.47,5-4.05,11.86-4.9,17.95-6.16,3.78-.79,2.18-6.57-1.59-5.79Z"/><path class="cls-1" d="M519.13,62.27q14.6,2,29.33,2.71"/><path d="M518.34,65.16c10,1.37,20,2.33,30.12,2.82,3.86.19,3.85-5.81,0-6-9.55-.46-19.06-1.31-28.53-2.61-3.78-.51-5.41,5.27-1.59,5.79Z"/><path class="cls-1" d="M503.18,38l15.33,24"/><path d="M500.59,39.46l15.33,24c2.08,3.24,7.27.23,5.18-3l-15.33-24c-2.07-3.24-7.27-.23-5.18,3Z"/><path class="cls-1" d="M517.93,62.37a315.43,315.43,0,0,0-6.29,31.49"/><path d="M515,61.58q-3.9,15.58-6.29,31.49c-.57,3.77,5.21,5.4,5.78,1.59q2.38-15.9,6.3-31.49c.93-3.74-4.85-5.34-5.79-1.59Z"/><path d="M545.42,44.86c.79-1.93,1.44-3.91,2.2-5.84l-1.45,1.1c3.77-.16,7.49.18,11.25.26,1.93,0,1.93-3,0-3-3.76-.08-7.48-.42-11.25-.26a1.55,1.55,0,0,0-1.44,1.1c-.76,1.94-1.41,3.91-2.2,5.84s2.16,2.56,2.89.8Z"/><path d="M565.5,37c6.49.86,13,.35,19.54.31a1.5,1.5,0,0,0,0-3h-1.75a1.5,1.5,0,0,0,0,3H585v-3c-6.52,0-13,.55-19.54-.31-1.91-.25-1.89,2.75,0,3Z"/><path d="M564.42,43.79c7,0,13.93-.51,20.86.31v-3h-1.45a1.5,1.5,0,0,0,0,3h1.45c2,0,1.87-2.78,0-3-6.93-.82-13.9-.35-20.86-.31a1.5,1.5,0,0,0,0,3Z"/><path d="M564.42,50.41c7,0,13.93-.51,20.86.31v-3h-1.45a1.5,1.5,0,0,0,0,3h1.45c2,0,1.87-2.78,0-3-6.93-.82-13.9-.35-20.86-.31a1.5,1.5,0,0,0,0,3Z"/><path d="M560,88.17c6.48.86,13,.35,19.53.31a1.5,1.5,0,0,0,0-3h-1.74a1.5,1.5,0,0,0,0,3h1.74v-3c-6.51,0-13,.55-19.53-.31-1.91-.25-1.89,2.75,0,3Z"/><path d="M558.91,95c7,0,13.93-.52,20.86.31v-3h-1.46a1.5,1.5,0,0,0,0,3h1.46c2,0,1.87-2.78,0-3-6.93-.83-13.9-.35-20.86-.31a1.5,1.5,0,0,0,0,3Z"/><path d="M558.91,101.6c7,0,13.93-.51,20.86.31v-3h-1.46a1.5,1.5,0,0,0,0,3h1.46c2,0,1.87-2.78,0-3-6.93-.82-13.9-.34-20.86-.31a1.5,1.5,0,0,0,0,3Z"/><path d="M457,84.41c6.49.86,13,.35,19.54.31a1.5,1.5,0,0,0,0-3h-1.75a1.5,1.5,0,0,0,0,3h1.75v-3c-6.52,0-13,.55-19.54-.31-1.9-.26-1.89,2.75,0,3Z"/><path d="M455.91,91.23c6.95,0,13.92-.52,20.86.3v-3h-1.46a1.5,1.5,0,0,0,0,3h1.46c2,0,1.86-2.77,0-3-6.94-.82-13.91-.34-20.86-.3a1.5,1.5,0,0,0,0,3Z"/><path d="M455.91,96.73c6.95,0,13.92-.51,20.86.31V94h-1.46a1.5,1.5,0,0,0,0,3h1.46c2,0,1.86-2.78,0-3-6.94-.82-13.91-.35-20.86-.31a1.5,1.5,0,0,0,0,3Z"/><path d="M540,90.88c.79,1.92,1.44,3.9,2.2,5.84a1.58,1.58,0,0,0,1.44,1.1c3.77.16,7.49-.19,11.25-.27,1.93,0,1.94-3,0-3-3.76.08-7.48.43-11.25.27l1.45,1.1c-.76-1.94-1.41-3.92-2.2-5.84-.72-1.76-3.63-1-2.89.8Z"/><path d="M469.58,79.23l5-7.43-1.29.75h11.49a1.5,1.5,0,0,0,0-3h-5.43c-1.84,0-4.22-.43-6,0-1.5.35-2.14,1.92-3,3.15l-3.38,5c-1.08,1.6,1.52,3.1,2.59,1.51Z"/><path d="M443.79,30.93a33.34,33.34,0,0,0-.3,4.58A2.33,2.33,0,0,0,445,38a16.6,16.6,0,0,0,4.11.36c1.21,0,2.9.29,3.76-.8.72-.93.47-2.48.48-3.56s.3-2.72-.5-3.7-2.08-.85-3.11-.89a16.17,16.17,0,0,0-4.33.48c-1.88.44-1.09,3.33.8,2.89a12.76,12.76,0,0,1,2.54-.37h1l.49,0c.53.18.63.1.32-.24-.26-.87-.19.73-.19.76v2.85c-.07.55.15.41.64-.43,0-.06-4.79-.21-4.78-.22.23.72.34.84.3.35,0-.18,0-.36,0-.54,0-.45,0-.9.05-1.35.05-.9.13-1.8.24-2.69.22-1.92-2.78-1.9-3,0Z"/><path d="M455.5,36.25l7.72,0a1.5,1.5,0,0,0,0-3l-7.72,0a1.5,1.5,0,0,0,0,3Z"/><path d="M443.36,42.24a29.12,29.12,0,0,0-.3,4.85,2.18,2.18,0,0,0,1.77,2.26,21.93,21.93,0,0,0,4.65.34c1.21,0,2.62,0,3.19-1.24s.25-2.69.26-3.92.17-2.65-1-3.36a8.56,8.56,0,0,0-3.42-.59,13.17,13.17,0,0,0-4,.21c-1.88.42-1.09,3.31.8,2.89a12.67,12.67,0,0,1,4.3,0l.63.09c.41.1.33-.08-.24-.55a8.66,8.66,0,0,0,0,1l0,1.56c0,.34-.16,1,0,1.29-.06.4,0,.37.32-.09.5-.36.43-.47-.21-.34a6.56,6.56,0,0,0-1.33,0c-.44,0-.89,0-1.33-.06s-1-.24-1.33-.11c-.33-.11-.37,0-.11.28.18.48.23.41.15-.23a12.18,12.18,0,0,0,.05-1.35c0-1,.13-2,.25-3,.22-1.92-2.78-1.9-3,0Z"/><path d="M455.07,47.56l7.72,0a1.5,1.5,0,0,0,0-3l-7.72,0a1.5,1.5,0,0,0,0,3Z"/><path d="M442.93,53.55a33.34,33.34,0,0,0-.3,4.58,2.33,2.33,0,0,0,1.51,2.49,16.6,16.6,0,0,0,4.11.36c1.21,0,2.9.29,3.76-.8.72-.93.47-2.48.48-3.56s.3-2.72-.5-3.7-2.08-.85-3.11-.89a16.17,16.17,0,0,0-4.33.48c-1.88.44-1.08,3.33.8,2.89a12.76,12.76,0,0,1,2.54-.37h1l.49,0c.53.18.63.1.32-.24-.26-.87-.19.73-.19.76v2.85c-.06.56.15.41.65-.43,0-.06-4.8-.21-4.79-.22.23.72.34.84.3.35,0-.18,0-.36,0-.54,0-.45,0-.9.05-1.35.05-.9.13-1.8.24-2.69.22-1.92-2.78-1.9-3,0Z"/><path d="M454.65,58.87l7.71,0a1.5,1.5,0,0,0,0-3l-7.71,0a1.5,1.5,0,0,0,0,3Z"/><rect x="141.24" y="452.05" width="410.01" height="103.43" rx="51.71" ry="51.71"/><path class="cls-5" d="M394.66,210.15a107.64,107.64,0,0,1,10,33.84s46.54,4.09,57.33,37.26,29,63.79-6.7,95.51q-3.69,3.28-6.68,6.35h53S502.61,222.38,394.66,210.15Z"/><path class="cls-5" d="M263.26,354.4c-3.79-25.09-8.52-66.49,47.42-103.21,0,0,7.17-.43,6.24-9.22-.53-4.95-2.3-15.51,1-25.72-64.55,17.19-74.57,68-87.3,166.86h59C278.89,378.14,265.48,369.1,263.26,354.4Z"/><path class="cls-2" d="M606.19,240.2c.56,12.08,9.27,14.73,19.56,16.24,10.63,1.57,24.4,2,33.45-4.75,5.08-3.79,3.84-13.28,1.57-18.34-5.23,3.11-7.87,8.18-14.17,10.28a52.36,52.36,0,0,1-15.16,3.07c-5.61.18-10.69-1.61-15.8-3.71-3.56-1.46-8.73-5.25-11.62-5.68"/><path d="M569.59,203.59c0,18.79-.78,37.57-.28,56.36a228.66,228.66,0,0,0,2,26.8c.7,4.81.43,12.14,5,15,8,5,16.83,4.47,25.87,4.93,12.64.65,25.21.84,37.79,2.34,9.73,1.15,19.56.87,29.34,1.37,6.47.33,13.21,3.68,19.71,2.67,14.41-2.23,10.52-28.43,10.28-38-.33-12.67-.33-25.36-.64-38-.27-11.16-.84-22.41-.44-33.57.49-13.67,2.1-27.32,1.41-41-.22-4.43-.25-10.43-3.29-14-3.54-4.19-10.66-4.6-15.68-5-8-.65-16-.2-24-.23-5.66,0-11.28-.37-16.95-.29-8.32.12-16.64.37-25,.53-5.83.12-12,.66-17.78-.11-3.81-.5-3.78,5.51,0,6,11,1.45,22.88,0,33.94-.25,10.14-.23,20.25.22,30.38.07,7-.1,14-.31,21,.43,4.75.5,9.48.79,10.59,6,2.63,12.24.63,26.14-.13,38.51-1.09,17.59-.26,35.21.14,52.82.24,10.34.09,20.71.5,31,.29,7.52,1.22,15.73-.91,23.06-.71,2.42-1.91,5.61-4.62,6.22-3.23.72-7.89-1.05-11.08-1.71-7.1-1.47-14.32-1.28-21.54-1.49-9.81-.3-19.46-1.7-29.25-2.3-11.11-.67-22.26-.91-33.38-1.36-4-.16-10.49-.7-13.55-3.89.22.23-.13-.36-.25-1.32-.21-1.81-.6-3.6-.94-5.39a180,180,0,0,1-2.48-27.53c-.63-19.53.19-39.06.21-58.59,0-3.86-6-3.87-6,0Z"/><path d="M626.63,141.2c-1.2,5.21,1.56,12.32,8,11.39,4.84-.7,8.8-6.27,7.22-11-1.28-3.87-5.59-6.21-9.53-6-4.71.24-8,3.93-8.87,8.39-.7,3.52.6,7.13,4.23,8.3a10.61,10.61,0,0,0,8.51-1.3c2.76-1.72,4.58-4.81,3.68-8.1-1.29-4.76-7-7.33-11-3.94-4.76,4.05-1.68,12.28,4.63,12.26a6.3,6.3,0,0,0,5.73-4.72,8.38,8.38,0,0,0-1.77-8c-1.43-1.69-4.58-.78-5,1.33a20.07,20.07,0,0,1-.83,2.84c-1.06,2.84,3,5,5,2.92a3.86,3.86,0,0,0,1.26-3.77,3.21,3.21,0,0,0-.9-1.51,7.23,7.23,0,0,0-.69-.55c-.57-.32-.35-.06.64.79-1.78-3.43-7-.4-5.18,3a3.2,3.2,0,0,0,.82.93c1.06.91-.3-.5-.44-1v-1.6l.25-.59,5,2.92a19.73,19.73,0,0,0,.84-2.84l-5,1.33a2.12,2.12,0,0,1,.3,1.95c-.06.21-.1.43-.25.52-.46.29.13,0,.07-.06-1-.33-1.23-1.88-.15-1.82.51,0,.84,1.07.82,1,.21.5.07.4.07.3,0,.25,0-.13,0-.11a2.72,2.72,0,0,1-.15.55c.21-.69-.42.39.06-.13-.2.21-.38.42-.59.62s.38-.26,0,0a4,4,0,0,1-.43.28c-.14.08-1.13.56-.57.34-.33.13-.67.23-1,.33-.17,0-.94.17-.63.14a3.74,3.74,0,0,1-1.24-.07c-.68-.21,0-.05-.31-.13s0,0,0,.06-.16-.42,0-.09c-.17-.49-.18.07,0-.68.19-1.18.74-3.24,2.34-4a4,4,0,0,1,3.79.68,2,2,0,0,1,.89,1.38c0-.18,0,.19-.06.42a3.47,3.47,0,0,1-.62,1.15c-2.29,2.93-3.71-.08-3.13-2.55.87-3.76-4.92-5.36-5.79-1.6Z"/><circle cx="629.32" cy="223.66" r="12.8"/><path d="M600.76,230.37c-.25-6.59,5.44-12.17,10.24-16a33.86,33.86,0,0,1,20.73-7.21,58.53,58.53,0,0,1,21.91,4.14c2.73,1,7.06,2.14,7.45,5.42.33,2.77-1.79,6.78-2.93,9.16-4.49,9.37-9.88,16.46-20.67,18.37-14.86,2.63-29.82-1.41-37.14-15.42-1.79-3.43-7-.4-5.18,3,6.63,12.7,19.09,19.07,33.18,19.08,11.64,0,22.69-2.87,29.7-12.71,4.45-6.26,13.76-21.17,6.47-28-4.32-4-12.22-6-17.81-7.38a55.1,55.1,0,0,0-23.25-.8c-12.34,2.42-29.24,14.19-28.7,28.29.15,3.85,6.15,3.87,6,0Z"/><path class="cls-1" d="M520.35,113.18c0,30-5.21,57.63-3.82,87.5,23.32,6.07,53.74,2.62,78.26,1.93.71-17.06.06-35.57.08-53.12,0-12,1.69-30.2-12.28-33.7-18.47-4.64-42.91-2.61-62.24-2.61h3.47"/><path d="M517.35,113.18c-.11,29.23-5,58.24-3.82,87.5a3.08,3.08,0,0,0,2.2,2.89c25.78,6.44,52.87,2.83,79.06,2a3.06,3.06,0,0,0,3-3c.66-17.07.1-34.16.09-51.24,0-9.68,1.26-20.71-3.38-29.61-5.43-10.4-18.84-10.79-29.18-11.53-15-1.08-30-.09-45,0-3.86,0-3.87,6,0,6h3.47c3.86,0,3.87-6,0-6h-3.47v6c13.32,0,26.64-.81,39.95-.24,10,.43,26-.35,29.93,11.1,3.17,9.26,1.6,20.41,1.67,30,.11,15.19.48,30.37-.11,45.55l3-3c-25.61.77-52.27,4.47-77.46-1.82l2.2,2.89c-1.22-29.26,3.71-58.27,3.82-87.5,0-3.86-6-3.86-6,0Z"/><path d="M531.36,187.33c13.57-.69,27,2.47,40.6,2.47a1.5,1.5,0,0,0,0-3h-.17a1.5,1.5,0,0,0,0,3H572v-3c-13.55,0-27-3.16-40.6-2.47-1.92.09-1.93,3.09,0,3Z"/><path d="M531.63,179.49c2.52-.82,5.65-.28,8.27-.26,4.1.05,8.19.05,12.28.26,7,.37,14.41-.2,21.24,1.54,1.87.48,2.67-2.42.8-2.89-7.12-1.81-14.75-1.28-22-1.65-4.41-.22-8.81-.18-13.23-.26-2.67,0-5.54-.47-8.12.37-1.83.59-1.05,3.49.8,2.89Z"/><path d="M528.45,165.53c9.61,1.35,19.28,1.08,28.94,1.49,7.59.32,15.4,1,23-.09,1.9-.28,1.09-3.17-.8-2.9-7.25,1.06-14.87.3-22.15,0-9.38-.4-18.81-.07-28.14-1.39-1.89-.26-2.7,2.63-.8,2.9Z"/><path d="M542.37,164.33c1-2.84-.35-10-.44-14.67-2.85-.23-5.63-.43-8,1.56.2,4.24-.21,9.34.73,13.38C534.63,164.6,542.09,165.13,542.37,164.33Z"/><path d="M543.82,164.73c1.35-4.74-.23-10.24-.39-15.07a1.54,1.54,0,0,0-1.5-1.5c-2.78-.21-8.56-.47-9.53,3.06-.5,1.82.05,4.82.09,6.76a38.41,38.41,0,0,0,.7,7,1.51,1.51,0,0,0,1.44,1.1c2.16.15,7.17,1.15,8.8-.71,1.27-1.45-.84-3.58-2.12-2.12-.54.61-5.48-.08-6.68-.17l1.45,1.1c-.88-4.26-.52-8.66-.68-13l-.74,1.29c2.3-1.65,4.58-1.56,7.27-1.35l-1.5-1.5c.14,4.49,1.75,9.88.49,14.27A1.51,1.51,0,0,0,543.82,164.73Z"/><path d="M558,164.92c1.36-8.8.36-19.82-.26-25.21-2.1-.45-5.33.8-7.53.86-1.87,7.54,0,16.21-1.16,24.05C549,164.62,557.86,165.8,558,164.92Z"/><path d="M559.44,165.32c1.16-8.51.74-17.09-.21-25.61a1.55,1.55,0,0,0-1.5-1.5c-2.58-.22-5,.61-7.53.86a1.53,1.53,0,0,0-1.44,1.1c-1.72,8.08-.19,16.31-1.22,24.45-.11.88.78,1.41,1.5,1.5,2.5.33,8,1.91,10-.14a1.5,1.5,0,0,0-2.12-2.12c-.66.68-6.65-.57-7.89-.74l1.5,1.5c1-7.87-.54-15.86,1.11-23.66l-1.45,1.11c2.52-.25,5-1.07,7.53-.86l-1.5-1.5c.92,8.22,1.44,16.59.32,24.81C556.29,166.41,559.18,167.23,559.44,165.32Z"/><path d="M571.64,166.44c2.09-.81,1.27-21.75,1.37-32.41-1.56.38-7.1.74-8.2,1.89-1.26,1.32-.56,6.25-.48,7.82.35,7.27,1,15.21-.34,22.47C564,166.21,568.52,167.66,571.64,166.44Z"/><path d="M572.4,167.74c2.81-2,2.07-8.46,2.13-11.37.17-7.45-.07-14.9,0-22.34a1.53,1.53,0,0,0-1.9-1.45c-4.58.89-9.6.31-10,6-.68,9.1,1.46,18.07,0,27.25a1.53,1.53,0,0,0,1,1.84,15.19,15.19,0,0,0,8.45.24,1.5,1.5,0,0,0-.8-2.89,12.2,12.2,0,0,1-6.85-.24l1.05,1.84c1.19-7.3.88-14.65.43-22-.12-2-1.19-6.42.64-7.87,1.39-1.11,5.21-.91,6.9-1.23l-1.9-1.45c0,6,.1,12,.07,18,0,2,.62,12.19-.7,13.13C569.33,166.26,570.82,168.86,572.4,167.74Z"/><path d="M545,108.72c-.8,4.19-.94,9.57,1.89,13.08,3.61,4.46,9.82,1.81,12.91-1.9a10.3,10.3,0,0,0,.24-12.75c-2.71-3.73-7.65-5.71-11.94-3.36-3.76,2.07-6.6,7.31-5.1,11.55,1.26,3.56,5.21,5.48,8.84,5.23,3.94-.26,7.27-3,7.41-7.11.2-5.56-4.3-9.9-9.66-7.15-1.9,1-4.46,2.85-4.78,5.11a5.2,5.2,0,0,0,2.88,5,5.13,5.13,0,0,0,6.26-.75c1.9-2,2.84-6.89.21-8.56-2.81-1.79-5.17,1.6-4.11,4.1.55,1.28,2.17,3.54,3.61,3.8a3,3,0,0,0,3.69-3.69v-.09l-.3,2.31a4.55,4.55,0,0,0,.76-4.88,4.29,4.29,0,0,0-1.37-1.47c-.43-.31-.71-.74-.39-.16-1.86-3.38-7-.36-5.18,3,.35.63,1.31,1.83,2.1,2,.53.4.45.08-.24-1-.17-1.26-.45-1.46-.87-.6a3,3,0,0,0-.28,2.4l3.69-3.69c2.08.37,1.22,1.07.88.32.14.31-.16-.24-.23-.34a5.53,5.53,0,0,1-.67-1l-4.11,4.1,0,0-1.49-2.59s-.14,1.92-.14,1.91c.33.38-.47-.06.08-.1l.49-.3c.21-.13.51.07.68,0-.73.29.25-.15,0,.07s-.5-.71-.17,0c-.27-.61.44,2.18-.25,1.72,0,0,.74-.68,1-.91a6.89,6.89,0,0,1,1.84-.84c0,.14-.64-.22-.65-.25s.25.38.25.35a11.88,11.88,0,0,0,.36,1.5c.06.68-.08.94-.33,1.17-.1.09-.44.31,0,0a2.73,2.73,0,0,1-.47.27c.53-.2-.52.13-.7.16-.52.1.7,0-.19,0H551a3.53,3.53,0,0,1-2.07-.83c.2.21-.32-.51-.18-.14-.23-.61-.22-.23-.15-.93.11-1.17,1.52-3.61,3.23-3.94a2.54,2.54,0,0,1,1.61.34,5,5,0,0,1,2,1.88,4.17,4.17,0,0,1-.09,5A6.79,6.79,0,0,1,552,118.2c-.21,0-.49-.13-.22,0a2,2,0,0,1-.54-.78c-.94-2-.85-4.93-.42-7.15.72-3.77-5.06-5.39-5.79-1.6Z"/><path d="M636.88,200.67c3.29-8,5.8-16.31,9-24.35l-1.45,1.1c4.51-.15,9,.13,13.52.23,1.93,0,1.93-3,0-3-4.51-.1-9-.38-13.52-.23a1.57,1.57,0,0,0-1.44,1.1c-3.19,8-5.7,16.35-9,24.35-.73,1.79,2.17,2.57,2.89.8Z"/><path d="M633.88,237.61c5.37,7.89,8.1,17.5,12.54,25.88L649,262a41.77,41.77,0,0,0-2.25-3.66c-1.15-1.51-3.76,0-2.59,1.52a40.34,40.34,0,0,1,2.25,3.66A1.5,1.5,0,0,0,649,262c-4.45-8.38-7.17-18-12.54-25.87-1.08-1.59-3.68-.09-2.59,1.51Z"/><path d="M646,272.22c6.41,0,12.82-.25,19.23-.27a1.5,1.5,0,0,0,0-3c-6.41,0-12.82.23-19.23.27a1.5,1.5,0,0,0,0,3Z"/><path d="M646.28,278.45a165.61,165.61,0,0,1,21.13.81c1.91.25,1.89-2.75,0-3a165.61,165.61,0,0,0-21.13-.81,1.5,1.5,0,0,0,0,3Z"/><path d="M607.65,256.52a61.45,61.45,0,0,0,33.55,6.23c7.17-.68,18.82-2,22.3-9.48,1.61-3.48-3.56-6.53-5.18-3-2.76,6-15.05,6.51-20.51,6.74a54.52,54.52,0,0,1-27.13-5.65c-3.44-1.73-6.48,3.45-3,5.19Z"/><path d="M608.68,259.67c-2.6,2-5.45,3.73-7.31,6.5-1.08,1.61,1.52,3.11,2.59,1.52,1.55-2.31,4.07-3.77,6.23-5.43,1.51-1.16,0-3.76-1.51-2.59Z"/><path d="M588.89,273c6.15,0,12.28.5,18.42.54a1.5,1.5,0,0,0,0-3c-6.14,0-12.27-.51-18.42-.54a1.5,1.5,0,0,0,0,3Z"/><path d="M588.89,279.85c6.15,0,12.28.5,18.42.54a1.5,1.5,0,0,0,0-3c-6.14,0-12.27-.51-18.42-.54a1.5,1.5,0,0,0,0,3Z"/><circle cx="369.8" cy="230.05" r="2.69"/><path d="M368.05,224.92c2.63-.33,6.33-.6,7.8,2.21,2.34,4.45-2.83,7.49-6.55,7.22a9.47,9.47,0,0,1-4.22-.9c-1.23-.78-1.48-2.1-1.35-3.55a5.76,5.76,0,0,1,4.71-5c1.88-.43,1.09-3.33-.79-2.89a8.69,8.69,0,0,0-6.86,9.12c.25,5.19,5.07,6.47,9.7,6.33,5.09-.15,9.52-4.23,8.71-9.52-.84-5.48-6.55-6.56-11.15-6C366.15,222.16,366.13,225.16,368.05,224.92Z"/><path d="M341.19,224.92c2.64-.33,6.33-.6,7.81,2.21,2.33,4.45-2.84,7.49-6.56,7.22a9.53,9.53,0,0,1-4.22-.9c-1.23-.78-1.47-2.1-1.35-3.55a5.76,5.76,0,0,1,4.72-5c1.88-.43,1.08-3.33-.8-2.89a8.69,8.69,0,0,0-6.86,9.12c.25,5.19,5.08,6.47,9.71,6.33,5.08-.15,9.51-4.23,8.7-9.52-.83-5.48-6.55-6.56-11.15-6C339.3,222.16,339.28,225.16,341.19,224.92Z"/><circle cx="343.15" cy="230.05" r="2.69"/><path d="M366.61,213a3.44,3.44,0,0,0-2.62.69,2.57,2.57,0,0,0-.45,3c.78,1.42,2.93,1.37,4.31,1.08,1.83-.38,3.78-2.45,2.12-4.2a4,4,0,0,0-5.09-.14c-1,1-.22,2.55.9,3.1A2.82,2.82,0,0,0,369,216a1.52,1.52,0,0,0-.66-2.51l-.23-.09a1.52,1.52,0,0,0-1.85,1.05,1.54,1.54,0,0,0,1.05,1.85l.23.08-.66-2.5c.05-.06.14-.06.19-.1s0,0,0,0,.07.06,0,0c-.09-.29.36.83.26.29l-.38,1.46q.15-.18,0,0c-.11.06-.12.07,0,0a.66.66,0,0,1,.27,0h.37l.16,0c.18.06.19.05,0,0,.12.08.13.07,0,0a.75.75,0,0,1-.15-.75c.22-.32.26-.41.13-.27h0c-.22.08-.53.26-.62.28.18,0-.19,0-.23,0s-.32,0-.49,0-.29,0-.44,0h-.14c.16,0,.15,0,0,0s-.16,0-.05,0a.6.6,0,0,1,.38.32c.3.5,0,.46-.2.82-.07.12-.26,0,0,0a5,5,0,0,0,.67,0,1.5,1.5,0,0,0,0-3Z"/><path d="M346.74,213a3.44,3.44,0,0,0-2.62.69,2.55,2.55,0,0,0-.46,3c.78,1.42,2.94,1.37,4.32,1.08,1.83-.38,3.78-2.45,2.11-4.2a3.94,3.94,0,0,0-5.08-.14c-1,1-.22,2.55.9,3.1a2.83,2.83,0,0,0,3.2-.47,1.52,1.52,0,0,0-.66-2.51l-.24-.09a1.51,1.51,0,0,0-1.84,1.05,1.54,1.54,0,0,0,1.05,1.85l.23.08-.66-2.5c.05-.06.14-.06.19-.1s0,0,0,0,.06.06.05,0c-.09-.29.36.83.26.29l-.38,1.46q.15-.18,0,0c-.11.06-.12.07,0,0a.66.66,0,0,1,.27,0h.37l.16,0c.18.06.18.05,0,0,.12.08.12.07,0,0a.75.75,0,0,1-.15-.75q.33-.48.12-.27c-.07.07-.07.07,0,0-.22.08-.53.26-.62.28.18,0-.19,0-.23,0l-.49,0c-.15,0-.29,0-.44,0h-.15c.17,0,.16,0,0,0s-.16,0-.05,0a.56.56,0,0,1,.37.32c.31.5,0,.46-.19.82-.07.12-.26,0,0,0a5,5,0,0,0,.67,0,1.5,1.5,0,0,0,0-3Z"/><path d="M352.63,228.26c-.58,2.47-1.95,7.22.73,9,2.49,1.62,6.06,0,5.69-3.18a1.55,1.55,0,0,0-1.1-1.44l-.11,0c-1.89-.38-2.69,2.51-.8,2.9l.11,0-1.1-1.45c.06.51-.3,1.14-.91.72-.41-.29-.25-1.13-.25-1.59a17.34,17.34,0,0,1,.64-4.12c.44-1.88-2.45-2.68-2.9-.8Z"/><path d="M342.66,244.47c8.79-2.16,19.08-1.56,28.07-1.56a1.5,1.5,0,0,0,0-3c-9.33,0-19.8-.55-28.86,1.67-1.88.46-1.08,3.35.79,2.89Z"/><path d="M319.89,254.9c0-4.87.37-9.85-.1-14.7a126.81,126.81,0,0,1-1-13.78c.14-9.85,5-18,12.85-23.68,7.17-5.21,17.67-8.05,26.47-8.5a130.39,130.39,0,0,1,14,0c4.36.24,9.12,2.89,12.76,5.27s6.61,6.69,8.54,10.51c1.22,2.42,1.46,5,2.42,7.49.75,1.95,1.9,3.73,2.57,5.72,1.3,3.82,1.1,8.41,2,12.42.7,3.06.1,7.43,1.9,10.11,2.15,3.2,7.82,4.08,11.22,5,2.72.75,5.45,1.44,8.17,2.2,1.34.39,3.91.75,4.91,1.59,2.95,2.45,7.22-1.78,4.25-4.25-2.59-2.14-6.36-2.8-9.51-3.65-2.42-.66-4.84-1.28-7.24-2-1.69-.48-4.62-.82-6-2s-.62-.46-.84-2.11-.46-3.24-.77-4.88c-.76-3.9-1-7.79-1.71-11.67-.63-3.52-2.66-6.45-3.75-9.81-1.35-4.16-2.25-7.33-4.82-11-4.3-6.15-8.69-9.48-15.47-12.71s-14.45-2.3-21.93-2.34c-7.23,0-15.7,2.27-22.37,5a42.15,42.15,0,0,0-16.66,12.34,35.14,35.14,0,0,0-7,20,87.4,87.4,0,0,0,.76,12.84c.68,5.46.38,11,.36,16.49,0,3.86,6,3.87,6,0Z"/><path d="M354.77,247.64c-3.84-.46-5.9,3.28-5,6.67a4.88,4.88,0,0,0,2.94,3.46c2,.64,3.79-.41,5.22-1.67l-2.36-.3c1.85,3,5.31,4.76,8,1.65,1.53-1.74,2.92-5.87.09-7.18-1.74-.8-3.27,1.79-1.51,2.59.19.09.16.25.1.69a4,4,0,0,1-.84,1.83c-1.28,1.58-2.45.25-3.28-1.1a1.52,1.52,0,0,0-2.35-.3c-1.37,1.2-2.79,1.37-3.2-.68-.33-1.67.37-2.87,2.14-2.66,1.92.24,1.9-2.76,0-3Z"/><path class="cls-1" d="M360.48,206.88c6.29-1.52,14-2.55,14.11-10.52.15-8.78-4.08-17.66-12.69-20.54-7.1-2.37-18.86,1-23.26,7.13-4.83,6.74-1.3,16.62,5.1,20.94C343.74,203.89,351.57,209.05,360.48,206.88Z"/><path d="M361.28,209.78c4.85-1.15,10.47-2.1,13.82-6.18,3.59-4.38,2.82-11.16,1.22-16.2-3.77-11.78-14.72-17.37-26.54-14.46-11.55,2.84-19.86,12.7-14.77,24.7,4.34,10.23,15.89,14.16,26.27,12.14,3.79-.74,2.19-6.53-1.59-5.79-6.68,1.3-14.58-.8-18.25-6.89-5.38-8.91,1.15-16.24,9.94-18.38,8.59-2.08,16.33,1.67,19.15,10.28,1.2,3.67,2.22,9.1-1.18,11.8-2.56,2-6.56,2.46-9.66,3.19C355.93,204.88,357.52,210.67,361.28,209.78Z"/><path d="M356.25,194.8c-3.28.22-6.67-2-4.61-5.69,1-1.84,3.08-1.83,4.52-1.73a3.46,3.46,0,0,1,3.52,3.85c-.15,1.93-2.13,3.11-3.82,3.62-1.85.57-1.06,3.46.79,2.9,3.25-1,6.24-3.48,6-7.14s-3.06-6.17-6.77-6.24S349,186,348.27,189.9c-.92,5.12,3.22,8.22,8,7.9C358.17,197.67,358.19,194.67,356.25,194.8Z"/><path class="cls-1" d="M353.64,233.89c-6.85.05-12.56,4.81-15.92,11.36,4.58,1.6,13.83-3.06,18.42-2.86,7.85.35,11.87,2.14,16.94,4,.23-5.42-4.52-10.17-9.48-12.78-2.62-1.38-8.35-3.06-10,.93"/><path d="M353.64,232.39c-7.87.42-13.55,5.4-17.21,12.1a1.52,1.52,0,0,0,.9,2.21c5.26,1.32,10.55-1.37,15.62-2.41,6.7-1.38,13.53,1.25,19.73,3.53a1.51,1.51,0,0,0,1.9-1.45c-.21-6.44-5-11.56-10.61-14.27-3.93-1.89-9.17-2.7-11.63,1.67a1.5,1.5,0,0,0,2.59,1.51c2.05-3.64,7.46-.81,9.75.69,3.69,2.41,6.75,5.81,6.9,10.4l1.9-1.44c-5.7-2.1-11.62-4.2-17.79-4-5.8.16-11.78,4.36-17.57,2.91l.9,2.2c3.13-5.74,7.8-10.25,14.62-10.62,1.92-.1,1.93-3.1,0-3Z"/><path d="M648.44,402.15H63.14c-6.31,0-12.87.52-19.16,0-9.94-.82-10.24-14.6-.11-15.49.38,0,.77,0,1.15,0,2.84-.08,5.69,0,8.54,0H566.93c26.55,0,53.14-.41,79.69,0,.57,0,1.15-.05,1.71,0,10,.85,10.31,14.85.11,15.49-3.84.24-3.87,6.24,0,6,17.78-1.12,17.68-26.78-.14-27.49-2-.08-4,0-6,0H124c-26.34,0-52.71-.41-79,0-9.58.15-17.45,8.68-14,18.41,2.36,6.58,8.57,9.08,15,9.08h602.5C652.3,408.15,652.3,402.15,648.44,402.15Z"/><path d="M397,212.3c17.56,2.64,34,8.86,47.81,20.2a107.74,107.74,0,0,1,28.44,36.89c8.33,17.4,12.43,36.46,15.71,55.36,3.42,19.69,6.49,39.45,9.72,59.18.62,3.8,6.4,2.19,5.78-1.6q-4-24.65-8.05-49.31c-2.56-15.57-5.26-31.19-10-46.27-7.86-25-21.84-47.79-43.41-63.13-13.23-9.41-28.43-14.71-44.41-17.1-3.78-.57-5.41,5.21-1.59,5.78Z"/><path d="M233.62,379c2.67-34.19,5.32-69.63,19.82-101.24,13.17-28.7,35-51.19,65.62-60.55,3.69-1.12,2.12-6.92-1.59-5.78-31.52,9.63-54.65,32.4-68.56,61.9-15.54,33-18.49,69.84-21.29,105.67-.3,3.85,5.7,3.83,6,0Z"/><path class="cls-1" d="M246.79,516.72a1.55,1.55,0,0,1-1.74,1.78h-.74c2.59.56,4.9,1,6.93,1.27,1.15.18,1.25,1,.28,2.43L250,524.08a2.68,2.68,0,0,1-2.85.61c-4-1-6.81-2.1-8.44-3.28a7.12,7.12,0,0,1-2.53-2.81H229a7.83,7.83,0,0,1-2.49,2.81q-2.43,2-8.62,3.46a2.7,2.7,0,0,1-2.81-1.12l-1.92-2.3q-.79-1.26,2.16-1.5a16,16,0,0,0,5.43-1.35h-.65a1.67,1.67,0,0,1-1.78-1.88v-15.6a1.23,1.23,0,0,1,.93-1.36l-1-2.9a.3.3,0,0,1,0-.23l-4.35,2c-.94.44-1.55.37-1.83-.19L210.34,495c-.34-.68,0-1.25,1.13-1.68l11.29-5c-.19-.31.06-.68.75-1.12a28.27,28.27,0,0,0,5.66-6.18,1.32,1.32,0,0,1,1.69-.85l3.75.8c.75.19.79.91.14,2.15H246a5.49,5.49,0,0,1,2,.38l2.77,1.08c.87.37,1.12,1.11.75,2.2a13.4,13.4,0,0,1-2.91,4.26,1.61,1.61,0,0,1-2,.56L244,490.07c-.5-.44-.46-1,.1-1.74h-5.06a10.77,10.77,0,0,0,3.65,4.59c1.88,1.5,5.26,2.64,10.17,3.42.9.13,1,.75.18,1.88L251.24,501c-.25.41-.8.52-1.64.33-1.06-.25-2.06-.52-3-.8a2.29,2.29,0,0,1,.19,1ZM215.5,480.93c2.06.81,4.19,1.78,6.41,2.91,1,.5,1.3,1.11.89,1.82l-1.59,2.72c-.53.66-1.25.7-2.15.14a69.36,69.36,0,0,0-6.38-2.95c-1.18-.5-1.59-1.06-1.21-1.69l1.64-2.67C213.51,480.59,214.31,480.5,215.5,480.93Zm10.44,10.78c.47.68,0,1.36-1.45,2l-4.36,2q7.17-.86,9.93-3a9.47,9.47,0,0,0,3.56-4.41h-2.81c-.9.85-1.92,1.72-3,2.63a2,2,0,0,1-2.2.14l-.1-.05Zm-2.06,12.36V505h17.38v-.94Zm0,4.5v.89h17.38v-.89Zm0,4.64v.94h17.38v-.94Zm12.55-18.13q-2.76,2.76-9.74,4.5h17.05A22.53,22.53,0,0,1,236.43,495.08Z"/><path class="cls-1" d="M266.82,492.64a1.15,1.15,0,0,1-1.31-1.31v-2.62a1.15,1.15,0,0,1,1.31-1.31h14.9c.75,0,1.12.43,1.12,1.31v2.62c0,.88-.37,1.31-1.12,1.31Zm12.6-6.37H269.11c-1,0-1.54-.43-1.54-1.31v-2.25c0-1.12.51-1.68,1.54-1.68h10.31q1.54,0,1.5,1.68V485C281,485.84,280.45,486.27,279.42,486.27Zm0,12.56H269.11c-1,0-1.54-.44-1.54-1.31v-2.44a1.32,1.32,0,0,1,1.54-1.5h10.31c1,0,1.53.41,1.5,1.31v2.63C281,498.39,280.45,498.83,279.42,498.83Zm0,6.37H268.93c-.91,0-1.36-.44-1.36-1.31v-2.44c0-1.12.51-1.69,1.54-1.69h10.31q1.54,0,1.5,1.5v2.63C281,504.76,280.45,505.2,279.42,505.2Zm1.5,16.11c0,1.75-.69,2.63-2.06,2.63h-9.18c-1.41,0-2.11-.88-2.11-2.63V508.76c0-1.63.7-2.44,2.11-2.44h9.18c1.37,0,2.06.81,2.06,2.44Zm-8-9.37v6.19h2.86v-6.19ZM284.85,487c-1,.07-1.5-.19-1.5-.75v-3.75c-.06-.74.44-1.12,1.5-1.12h17.62c1.12,0,1.68.52,1.68,1.55v26.89a26.53,26.53,0,0,0,.19,5c.13,1.28.5,1.73,1.13,1.36l.75-1a1,1,0,0,1,1.31-.18l2.43,2.1a2.35,2.35,0,0,1-.18,2.53q-5,6.2-6.94,4.36-2.43-1.63-3.18-5.88a49.8,49.8,0,0,1-.75-8.69V487h-5.44v10.31H297c1,0,1.5.47,1.5,1.4v2.91a1.33,1.33,0,0,1-1.5,1.5h-3.56q-.47,13.49-6.7,20.84a1.2,1.2,0,0,1-2,.14l-2.63-2.2a1.12,1.12,0,0,1-.09-1.82q5.67-5.72,5.76-17H283c-.87,0-1.31-.47-1.31-1.41v-3.09a1.16,1.16,0,0,1,1.31-1.31h4.87V487Z"/><path class="cls-1" d="M323.06,483.56c0-1.25.53-1.88,1.59-1.88h11c1.41,0,2.11.61,2.11,1.83v33.63q-.09,4.46-2.25,5.72l-4.07,1.59a1.32,1.32,0,0,1-1.78-.79l-.8-3c-.25-.81.09-1.35,1-1.64l1.12-.42a1.77,1.77,0,0,0,1.32-1.92v-4.78H328.4q-.88,7.59-2.62,10.31c-.75,1.44-1.63,1.92-2.63,1.45L321,522.2a1.58,1.58,0,0,1-.23-2.48,23.6,23.6,0,0,0,2.2-7c.09-1.53.12-3.21.09-5.06Zm5.34,4v6.18h3.94v-6.18Zm0,12.51V506h3.94v-5.94Zm33-18c1.59,0,2.41.86,2.44,2.67v14.38c0,2.31-.82,3.47-2.44,3.47H345.45v14.75c0,.75.47,1.14,1.31,1.18h10.12c.82,0,1.44-.68,1.88-1.93l.37-1.35a1.81,1.81,0,0,1,2.25-1.32l2.81.75c.78.35,1,1,.75,2.11l-.94,3.61q-1.22,3.84-5.8,3.84h-15q-3.56,0-3.56-3.84V484.87c0-1.91.75-2.86,2.25-2.86Zm-15.93,14.38h3.75V488h-3.75Zm9.19,0h3.74V488h-3.74Z"/><path class="cls-1" d="M377.71,483.13c0-1.21.53-1.82,1.59-1.82h9.84c1.47,0,2.2.59,2.2,1.78V517a11.52,11.52,0,0,1-.46,3.59,3.39,3.39,0,0,1-1.88,2,34.72,34.72,0,0,1-4.17,1.6c-.94.18-1.54-.08-1.82-.8l-1.22-3.23c-.28-1,.07-1.59,1.07-1.69a11.68,11.68,0,0,0,2.16-.42c.47-.16.7-.64.7-1.45v-5.81h-2.57q-.9,8.52-2.72,11.24c-.94,1.38-1.81,1.84-2.62,1.41L375.6,522c-.78-.6-.86-1.41-.23-2.44a25,25,0,0,0,2.25-8c.09-1.5.12-3.15.09-5Zm5.44,3.89v6h2.57v-6Zm0,12.18V505h2.57V499.2Zm35.65,6.37c1,0,1.49.44,1.49,1.31v3a1.32,1.32,0,0,1-1.49,1.5H408.49V523c0,1.09-.41,1.64-1.31,1.64h-3.33c-.69,0-1.06-.49-1.12-1.55l-.05-11.71H392.56c-.75,0-1.12-.47-1.12-1.31V507c0-1,.37-1.44,1.12-1.41h10.12v-5.43h-8.06c-.72,0-1.09-.44-1.12-1.31v-3.19c0-.87.4-1.31,1.12-1.31h8.06v-12A1.16,1.16,0,0,1,404,481H407c1,0,1.48.43,1.45,1.31v12h8.81c.75,0,1.12.44,1.12,1.31v3.19c0,.87-.37,1.31-1.12,1.31h-8.81v5.43ZM399,492.92c-.28.57-.84.66-1.69.29l-2.9-1.18c-.78-.31-1-.82-.7-1.54a47.09,47.09,0,0,0,3.23-8c.19-.78.78-1,1.78-.6l2.86.93c.62.22.84.71.65,1.46A48.39,48.39,0,0,1,399,492.92Zm15.79-.14a81.24,81.24,0,0,0-5.34-7.4,1,1,0,0,1,.23-1.59l2.53-2c.75-.57,1.37-.52,1.87.14a30.91,30.91,0,0,1,5.16,7.21,1.26,1.26,0,0,1-.28,1.64l-2.49,1.87C415.61,493.17,415.05,493.22,414.77,492.78Z"/><path class="cls-1" d="M457.28,480.28c.75,0,1.13.43,1.13,1.31V485h14.43c.75,0,1.12.47,1.12,1.41v3.09a1,1,0,0,1-1.12,1.12H443.23V506.7a25.4,25.4,0,0,1-5.67,16.53c-.75.85-1.42,1-2,.57l-2.72-2.11c-.87-.72-.83-1.59.14-2.63a15.8,15.8,0,0,0,3.51-5.24,12.13,12.13,0,0,0,.75-4.5L433.86,511c-.62.25-1.06.18-1.31-.19l-1.5-3.19a1.27,1.27,0,0,1,.56-1.87l5.81-2.62v-3.38l-.47.75c-.31.5-.72.5-1.22,0l-4.68-4.31a1.13,1.13,0,0,1,0-1.68l2.06-1.88a1.14,1.14,0,0,1,1.69,0l2.62,2.06v-8.24a1.33,1.33,0,0,1,1.5-1.5h13.87v-3.37a1.15,1.15,0,0,1,1.31-1.31Zm13.87,18.36H460.84v5.25h10.68c.75,0,1.13.48,1.13,1.45v3c0,.88-.38,1.32-1.13,1.32H460.84v8.43h12.75c.87,0,1.31.47,1.31,1.4V523c0,.75-.44,1.12-1.31,1.12H441.92a1,1,0,0,1-1.13-1.12v-3.47c0-.93.38-1.4,1.13-1.4h4.31V503.7c0-1.13.5-1.69,1.5-1.69h3.18c.75,0,1.13.56,1.13,1.69v14.43h3V498.64h-9.36a1.16,1.16,0,0,1-1.32-1.31v-3.05c0-1,.44-1.45,1.32-1.45h25.48c.87,0,1.31.49,1.31,1.45v3.05A1.16,1.16,0,0,1,471.15,498.64Z"/><path d="M312.3,250.06c-3.6,7.95-4.26,15.79-1,24,3.42,8.53,9.15,15.9,12.43,24.52l1.38-3.38c-6.13,4.53-7.57,11.24-10.1,18-.6,1.62.69,3.16,2.1,3.69,5.63,2.14,15.72-3.17,19.63-7,2.18-2.15,3.86-5.64,2.59-8.64-1.55-3.67-6.48-4.64-9.81-5.92-3.61-1.38-5.17,4.42-1.59,5.79,1.17.45,5.63,1.52,5.82,2.55.3,1.58-3.26,3.44-4.18,4-2.5,1.43-7.89,4.63-10.87,3.5l2.1,3.69c1.85-5,2.79-11.09,7.33-14.45a3.08,3.08,0,0,0,1.38-3.39c-5.5-14.48-19.41-27.62-12-43.88,1.58-3.49-3.59-6.54-5.19-3Z"/><path d="M388.39,304.44c-6.1-7.55-1.18-19.29,3.55-26.2,4.51-6.58,12.52-13.12,21-9.77,13.51,5.35,15,28.13,7.34,38.44-2.31,3.1,2.89,6.09,5.18,3,10.37-13.88,5.94-44.13-13.48-47.95-21.63-4.26-41.36,29.9-27.82,46.69,2.43,3,6.65-1.26,4.25-4.24Z"/><path d="M410.87,264.85c4-7.2,3-20.74-2.19-27.16-2.42-3-6.64,1.26-4.24,4.25,3.35,4.16,3.8,15.3,1.25,19.89-1.87,3.37,3.31,6.4,5.18,3Z"/><path d="M382.42,300c.79,3.26,1.53,6.52,2.44,9.75a3,3,0,0,0,2.89,2.2,13.21,13.21,0,0,0,5.7-1.6,3.08,3.08,0,0,0,1.38-3.39c-1-4.63-2.66-9.38-7.31-11.46-3.5-1.56-6.55,3.61-3,5.18,3.22,1.44,3.87,4.7,4.55,7.87l1.38-3.38a6.12,6.12,0,0,1-2.67.78l2.89,2.2c-.91-3.22-1.64-6.49-2.43-9.74-.91-3.75-6.7-2.16-5.79,1.59Z"/><path d="M426,301.18c3.86,0,3.87-6,0-6s-3.87,6,0,6Z"/><path d="M426.78,295.29c-1.63-.35-3.31-.09-4.92-.42a3,3,0,0,0-3.69,2.1c-.77,3.48-1.41,7-2.13,10.48a3,3,0,0,0,3.69,3.69c5.85-1.29,7.57-7.23,7.45-12.54-.09-3.85-6.09-3.87-6,0,.06,2.58,0,6.09-3,6.76l3.69,3.69c.72-3.5,1.35-7,2.12-10.49l-3.69,2.1c1.63.33,3.33.07,4.92.41,3.77.81,5.38-5,1.6-5.78Z"/><path d="M427.9,255.35c31,10.33,41.14,44.35,44.23,73.79,1.39,13.2.29,29.18-8.45,39.9-11.43,14-33.09,10.39-48.92,9.16-8.32-.64-16.51-.05-24.81-.36-4.27-.15-9.15-.58-12.47-3.56-4.4-3.94-6.29-9.66-.44-13a3,3,0,0,0-1.52-5.59c-6.08.07-9.53-7-2.37-8.91,3.75-1,2.16-6.58-1.6-5.79-5.11,1.07,1.34-7.84,2.79-9,5.62-4.66,16-3,22.81-3.4,14.78-.89,29.72,4.16,44.38.87,3.76-.84,2.17-6.63-1.6-5.78-10.73,2.4-22.12-.27-32.91-1a154,154,0,0,0-15.64.21c-5.42.18-11.28,0-16.45,1.89-5.57,2.06-10.11,7.95-11.11,13.77-1.09,6.32,3.47,9.47,9.33,8.25l-1.6-5.79c-13.59,3.67-9,20.85,4,20.7L374,356.09c-8.31,4.76-8.35,13.05-2.76,20.17,5.24,6.66,13.42,7.63,21.41,7.62,10.23,0,20.19.24,30.41,1,10.45.76,21.58,1.26,31.6-2.4,16.29-6,22.55-23.07,23.71-39.12,1.25-17.51-2.86-36.83-9.08-53.12-7.25-19-20.16-34.1-39.81-40.66-3.67-1.22-5.24,4.57-1.59,5.79Z"/><path d="M375.39,325.2c-14.58-2.72-29.74-8.23-44.74-7.25a129.67,129.67,0,0,0-15.19,2.38c-3.59.67-9.19,2.28-12,2.27-3.86,0-3.87,6,0,6,3.34,0,7-1.22,10.23-1.84A155.31,155.31,0,0,1,330,324c14.63-1.24,29.59,4.33,43.81,7,3.77.7,5.39-5.08,1.59-5.79Z"/><path d="M314,246.16c-30.92,14.5-51,47.77-54.86,81-1.59,13.72-1,29.74,7.07,41.54,10.41,15.13,29.8,15.09,46.36,15.81,6.54.29,13.09.08,19.63.24,5.92.15,11.79.9,17.7,1.21,9.24.49,21.49.52,27.92-7.32,2.43-3-1.8-7.23-4.25-4.24-5.65,6.9-17.24,6-25.28,5.47-9.45-.63-18.75-1.13-28.22-1.2a240.24,240.24,0,0,1-27.48-1.62c-7.79-.95-15.43-4-20.39-10.28-8-10.15-8.44-24.84-7.32-37.13a97.18,97.18,0,0,1,11.29-37.75c9.29-17,23.12-32.23,40.86-40.55,3.49-1.64.45-6.81-3-5.18Z"/><path class="cls-1" d="M459.52,355.4a67.43,67.43,0,0,0-7.36,27.71c28.61,1.05,57.93,1.67,86.72.79-1.35-6.74-6-13.07-7.54-20-1.82-8.21-2.85-9.11-14.85-10.6-15.5-1.93-42.74-4.08-57,2.12"/><path d="M456.93,353.89a73.2,73.2,0,0,0-7.77,29.22,3,3,0,0,0,3,3c28.9,1.05,57.81,1.64,86.72.79a3,3,0,0,0,2.89-3.79c-1.35-5.69-4.34-10.64-6.34-16.09-1.25-3.41-1.5-7.35-3.37-10.53-3.37-5.7-11.49-5.73-17.27-6.42-17.78-2.11-39.07-4.59-56.07,2.44-3.52,1.45-2,7.26,1.6,5.78,15.1-6.24,33.68-4.37,49.53-2.76,4.63.47,14.86-.2,17.35,4.62,1.56,3,1.77,6.85,3,10,2,4.85,4.52,9.41,5.74,14.53l2.89-3.8c-28.91.85-57.82.26-86.72-.79l3,3a65.55,65.55,0,0,1,6.95-26.19c1.7-3.46-3.47-6.5-5.18-3Z"/><path d="M562,383.32c-.24-8.62-3.1-17.32-1.82-25.94l-2.1,2.09c5.19-1,20.41-5.73,23.13.55,1.43,3.3,1,8.37,1,11.88a105.87,105.87,0,0,1-.4,11.12l3.8-2.9c-8.55-1.37-17.09-.79-25.71-.73-3.86,0-3.86,6,0,6,8-.05,16.15-.76,24.11.52a3.06,3.06,0,0,0,3.8-2.89,108.52,108.52,0,0,0,.32-14.65c-.16-4,0-9.56-2.43-13-5.58-8.07-21.61-3.12-29.23-1.67a2.91,2.91,0,0,0-2.1,2.09c-1.37,9.3,1.35,18.27,1.61,27.54.11,3.85,6.11,3.86,6,0Z"/><path d="M570.69,349.19c-.56-9.56,4.2-20.22,13.67-23.66L581,321.12c-4.43,8.85-12.66,17.39-12.5,27.85l5.59-1.52c-3.35-5.76-4.92-12.51-8.72-18s-9.47-7.87-16.07-8.45c-2.51-.22-4.07,3.49-2.12,5.12,7.35,6.14,14.12,12.89,17.6,22l5-2.92c-9.75-7.88-20.68-12.19-32-4.58-1.94,1.3-2,5,.71,5.48A107.88,107.88,0,0,1,566,355.2a3.06,3.06,0,0,0,4.1-1.08c6.54-11.85,20.68-12.62,32.36-8.88v-5.79c-5.38,1.68-10.65,3.67-16,5.39-4.6,1.48-10.12,3.74-15,3.26-3.84-.37-3.82,5.63,0,6,5.09.5,10.62-1.57,15.39-3.07,5.79-1.82,11.47-4,17.26-5.79a3,3,0,0,0,0-5.79c-14.25-4.55-31.3-2.55-39.13,11.64L569,350a114,114,0,0,0-28.88-9.71l.71,5.48c8.94-6,17-2.58,24.69,3.64,2.05,1.66,6.21.2,5-2.92-3.88-10.16-10.9-17.75-19.15-24.64L549.27,327c13,1.14,14.15,14.11,19.61,23.49a3,3,0,0,0,5.59-1.51c-.14-9.06,7.82-17.11,11.68-24.82,1.06-2.13-.74-5.37-3.39-4.41-12,4.35-18.8,17-18.07,29.45.23,3.84,6.23,3.86,6,0Z"/><path d="M563.65,377.11c5.53.67,11.12.23,16.66,0,1.93-.09,1.94-3.09,0-3-5.54.23-11.13.67-16.66,0-1.92-.24-1.9,2.77,0,3Z"/><path d="M472.38,358.58a33.78,33.78,0,0,0-3.45,16.78,3.1,3.1,0,0,0,3,3c7.15.78,16-2.27,16.29-10.69.2-6.27-8.62-14.58-14.76-10.16-3.11,2.23-.11,7.44,3,5.18,1.17-.85,2.9.53,3.81,1.34,1.53,1.37,2.41,3,1.59,5-1.49,3.66-6.69,3.7-10,3.34l3,3a27.68,27.68,0,0,1,2.63-13.75c1.65-3.47-3.52-6.52-5.18-3Z"/><path d="M493.79,358.78c-1,3.71-1.62,7.49-2.52,11.21-.47,2-1.36,4.2-1.33,6.25a3.05,3.05,0,0,0,3.8,2.9,3.11,3.11,0,0,0,1.93-1.55c1.88-3.38-3.3-6.41-5.18-3l-.1.16,1.8-1.38h-.05l3.8,2.89c0,.93.32-1.37.42-1.79.27-1.15.57-2.29.84-3.44.83-3.54,1.43-7.12,2.38-10.63,1-3.73-4.79-5.33-5.79-1.6Z"/><path d="M497.71,363.1c1.75-.12,4.1-.35,5.7.53a1.55,1.55,0,0,1,.91,1.41c0,.21-.16.41,0,.25a3.22,3.22,0,0,1-1,.54,10.75,10.75,0,0,1-1.24.32c-.09,0-1,.14-.49.08a31.94,31.94,0,0,1-3.91.14c-3.86,0-3.86,6,0,6,4.33,0,10.5-.19,12.22-5.09a7.5,7.5,0,0,0-2.8-8.39c-2.66-1.88-6.28-2-9.42-1.79-3.83.26-3.86,6.27,0,6Z"/><path d="M496.92,372.27a23.69,23.69,0,0,1,4.82,2.32c.89.52,1.79,1.05,2.63,1.65a7.62,7.62,0,0,1,.64.48c.19.16.85,1,.42.35,2.06,3.26,7.25.25,5.18-3-1.23-1.94-3.47-3.23-5.41-4.38a31.07,31.07,0,0,0-6.69-3.18c-3.71-1.11-5.29,4.68-1.59,5.79Z"/><path d="M515,379.26c3.86,0,3.87-6,0-6s-3.87,6,0,6Z"/><path d="M606.89,203.81c15.26-15.87,39.69-16.2,57.71-5.09,3.29,2,6.31-3.15,3-5.18-20.24-12.49-47.9-11.72-65,6-2.67,2.78,1.56,7,4.25,4.24Z"/><path class="cls-1" d="M632.53,223.38c1.73-4.12-4.95-7.32-7.48-3.38a3.48,3.48,0,0,0,1,5c1.38.79,2.45.47,3.88.22C629.88,225.18,632,224.74,632.53,223.38Z"/><path d="M171.75,57.35c-2.22-2.34-7.42-1.82-10.21-2-14-.77-28.47-.47-42.3,2.27a1.19,1.19,0,0,0-.95.8,1.51,1.51,0,0,0-.52.73c-1.38,4-2.36,8.61-1.29,12.84s4.3,6.7,8.27,7.9c10.65,3.2,21.77.36,32.61,1.08,3.91.26,8.93,1,12.27-1.72,3.5-2.8,3.56-8.14,3.52-12.32C173.13,64.18,173.87,59.57,171.75,57.35Z"/><path class="cls-1" d="M139.05,68.14c0,.51-.21.76-.64.76H135v.29a11.15,11.15,0,0,0,1.74-.17l-.12-.29,1.45-.13a8.24,8.24,0,0,1,1.31,1.1c.24.26.26.45.08.56l-.81.35a.52.52,0,0,1-.67-.14l-.26-.34c-.92.16-2.2.3-3.85.42s-3.09.18-4.34.16a.48.48,0,0,1-.52-.29l-.32-.75c-.07-.24.06-.36.41-.36a32.07,32.07,0,0,0,4.16-.06V68.9H130.2c-.43,0-.64-.25-.64-.76v-3c0-.44.19-.65.58-.65h3.18v-.41h-5c-.23,0-.35-.12-.35-.37v-.87a.32.32,0,0,1,.35-.36h5v-.41a.32.32,0,0,1,.35-.36h1.1a.32.32,0,0,1,.35.36v.41h5.49c.24,0,.35.12.35.36v.87c0,.25-.11.37-.35.37h-5.49v.41h3.29a.57.57,0,0,1,.64.65Zm-1.73,2.22c.19,0,.28.06.28.16V71h3.13c.19,0,.29,0,.29.15v1.07c0,.08-.1.13-.29.13H137.6v2.12c0,.35-.27.61-.81.77a7.32,7.32,0,0,1-1.85.25.46.46,0,0,1-.46-.38l-.29-1c-.06-.23,0-.34.23-.34a6.41,6.41,0,0,0,1-.08c.33-.06.5-.18.5-.39v-1h-7.58c-.23,0-.35,0-.35-.15v-1c0-.1.12-.15.35-.15h7.58v-.45c0-.1.09-.16.29-.16Zm-6.15,1.86,2,1.28c.17.11.21.23.11.35l-.82.9c-.15.13-.33.12-.54,0a22.71,22.71,0,0,0-2.07-1.41c-.11-.09-.1-.21.05-.33l.72-.71A.44.44,0,0,1,131.17,72.22Zm.18-6.56v.41h2v-.41Zm0,1.59v.41h2v-.41Zm3.77-1.59v.41h2.14v-.41Zm0,1.59v.41h2.14v-.41Z"/><path class="cls-1" d="M145,65.52a.43.43,0,0,1,.46-.12,12.26,12.26,0,0,1,2.31,1.07q.24.16.06.45l-.46.81c-.1.16-.27.18-.52.06-.7-.33-1.45-.68-2.26-1a.35.35,0,0,1-.12-.57Zm1.5,4.19a.28.28,0,0,1,.41-.23l1.09.41q.21.09.12.45a18.81,18.81,0,0,1-1.62,4.44.43.43,0,0,1-.64.17l-1-.46c-.25-.13-.29-.34-.12-.64A14.69,14.69,0,0,0,146.54,69.71Zm-.17-8.07A8.52,8.52,0,0,1,148.22,63q.19.19-.06.51l-.58.6a.47.47,0,0,1-.58,0c-.53-.41-1.13-.84-1.79-1.29-.22-.17-.24-.34-.06-.52l.7-.64A.45.45,0,0,1,146.37,61.64Zm5.15.55c.15-.33.36-.46.63-.4l1,.23c.28.07.34.29.17.63l-1.91,3.9,4-.29-.4-.64a.44.44,0,0,1,.23-.72l.75-.29a.38.38,0,0,1,.52.11l1.86,2.84c.12.21.06.39-.18.53l-.87.54c-.16.08-.31,0-.46-.19l-.35-.52-7.58.52c-.29,0-.44-.09-.46-.35l-.06-.88c0-.31.08-.47.29-.48l.7,0Zm-1.74,13c-.31,0-.46-.17-.46-.52V69.45c0-.31.18-.47.52-.47h6.94a.42.42,0,0,1,.47.47v5.17c0,.35-.16.52-.47.52Zm1.33-1.62h4.36l0-2.94h-4.34Z"/><path class="cls-2" d="M306.23,45.13c-5.87-5.05-14.31-7.43-21.61-9.32-16.28-4.21-33.31-5.52-50.06-6.1-29.33-1-58.83-2.79-88.17-2.79-11.22,0-22.33,1.38-33.47,1.89-7.93.37-19.29-1.9-25.1,3.72L86.41,98.08c-.34,16.3-.41,13.43-.44,29.73,0,10-.17,19.92,9.24,25.45,11.74,6.91,27.37,7.13,40.51,8.64,24.79,2.85,50.35,3.87,75.29,4,23.65.12,47.21-1.74,70.83-1.91,8.35-.06,20.37,2.8,23.35-6.78,8.09-26,10.47-34.3,10.41-61.4C315.57,79.55,320.25,57.2,306.23,45.13Zm-1.35,52.72c.05,23.86-2.11,28.87-9.44,51.76-2.7,8.43-13.59,5.91-21.16,6-21.41.15-42.76,1.78-64.19,1.67a645.16,645.16,0,0,1-68.24-3.51c-11.91-1.33-26.07-1.52-36.72-7.6-8.53-4.87-8.38-13.63-8.37-22.4,0-14.35.09-9.54.4-23.89l1.28-57.69c5.27-4.95,15.56-2.95,22.74-3.28,10.1-.45,20.17-1.67,30.34-1.67,26.59,0,53.33,1.58,79.91,2.47,15.18.5,30.62,1.66,45.37,5.36,6.62,1.66,14.27,3.76,19.59,8.21C309.09,63.87,304.85,83.55,304.88,97.85Z"/><path d="M83.41,98.08C83.2,108,83,117.9,83,127.81c0,10.07.34,20.94,9.44,27.23,10.58,7.29,24.73,8,37.09,9.23,14.93,1.43,29.79,3,44.78,3.69,32,1.55,63.76.08,95.76-.77,6.2-.16,12.36-.21,18.55.06,4.19.18,8.67.25,12.59-1.46,4.3-1.87,6.08-5.31,7.46-9.58,2.05-6.35,4-12.77,5.64-19.23a141.29,141.29,0,0,0,4.2-30.83c.36-11.85,1.31-24,.76-35.88-.47-10-3-20.42-10.89-27.26-9.45-8.21-23.78-10.76-35.73-12.82-15.18-2.62-30.53-3.17-45.89-3.76-15.68-.6-31.35-1.36-47-1.88-16.35-.55-32.75-1.11-49.08.05-6.7.48-13.44,1.26-20.17,1.25-5.63,0-11.37-.69-16.93.58-3.39.77-8,2.5-8.69,6.28a29.44,29.44,0,0,0-.1,4.41l-.49,22.74-.82,38.22c-.08,3.86,5.92,3.86,6,0L90,69.76c.25-11.7-.26-23.7.76-35.36a5.76,5.76,0,0,1,0-1.38c0-.1,0-.32,0-.41-1.46,2.08,2,.45,1.47.48,2.38-.15,4.77-1.27,7.28-1.39,2.75-.13,5.5,0,8.25.1,13.51.36,27-1.9,40.53-1.88,29.37,0,58.73,1.73,88.07,2.86,14.07.54,28.17,1.61,42,4.62,11.28,2.47,25.09,5.39,31,16.44,4.89,9.07,4.11,20.31,3.62,30.25-.53,10.93-.16,21.9-1.2,32.8-1,10.11-3.56,19.87-6.47,29.57-1.29,4.26-1.92,11.52-6.29,13.74-4,2.05-9.63,1.05-13.95.87-13.49-.59-27.16.52-40.65,1.05-14.36.56-28.71.89-43.08.68-16.15-.24-32.3-.89-48.4-2.21-14.37-1.18-29.61-1.77-43.66-5.12-6.25-1.49-13.85-3.71-17.48-9.44C88.52,140.77,89,133.76,89,127.81c0-9.92.23-19.82.44-29.73C89.49,94.21,83.49,94.21,83.41,98.08Z"/><path d="M95.66,99.85c-.18,8-.39,15.92-.4,23.89,0,8.44.19,17.59,7.84,22.9,9,6.24,21.31,7,31.85,7.93,13.66,1.26,27.26,2.67,41,3.33,28.64,1.38,57.09.22,85.72-.59,5.75-.16,11.5-.35,17.25-.08,4,.19,8.47.55,12.3-1a10.13,10.13,0,0,0,5.7-6.19c2.19-5.62,3.83-11.68,5.49-17.48a106.57,106.57,0,0,0,3.9-26.15c.31-10.19,1.16-20.67.68-30.86-.4-8.67-2.63-17.5-9.51-23.32-8.33-7-21-9.17-31.43-10.93C252.64,39,239.12,38.47,225.59,38c-14.3-.52-28.59-1.2-42.89-1.67s-28.43-1.06-42.58-.18c-6.31.4-12.62,1.07-18.94,1.26-5.06.16-10.16-.51-15.19.16-2.93.4-8,1.4-9,4.62a12.91,12.91,0,0,0-.07,3.23l-.43,19.2-.78,35.26c0,1.94,3,1.94,3,0l.56-25.37.43-19.1c.07-3.45-.81-8.7.26-12,.09-.27-.12-.76,0-1,.33-.59,3.42-1.25,4.29-1.47,4.68-1.17,9.69-.49,14.46-.47,12.26,0,24.46-1.76,36.74-1.69,25.66.14,51.31,1.55,77,2.48,12.88.46,25.81,1.37,38.46,4C281.38,47.41,294.23,50,300.13,60c4.81,8.17,4.09,18.59,3.63,27.68-.47,9.42-.09,18.9-1.09,28.29-.88,8.35-3.27,16.35-5.81,24.32-1.53,4.79-2.33,11.85-7.83,13.49-4,1.18-8.43.47-12.5.34-25.34-.84-50.78,1.93-76.16,1.54-14.36-.23-28.71-.8-43-1.94-12.76-1-26.13-1.63-38.66-4.3-6-1.28-13.62-3.3-17.35-8.62-3.17-4.5-3.06-10.42-3.08-15.68,0-8.43.21-16.84.4-25.27C98.7,97.92,95.7,97.92,95.66,99.85Z"/><path d="M129.78,95.54v6.17h-2.89v.74a.36.36,0,0,0,.4.41h3a.82.82,0,0,0,.63-.26,4.42,4.42,0,0,0,.3-1.61l1.44.46c-.15,1.33-.37,2.13-.69,2.39a2.29,2.29,0,0,1-1.38.35h-3.67c-1,0-1.56-.48-1.56-1.43v-1.05h-1.78q-1.41,2.28-6.67,2.89l-.81-1.26c2.8-.26,4.69-.82,5.69-1.63h-3V95.54Zm-10.84-3.8h2.57V92.8H119l.06.81H129.5l.05-.81H127V91.74h2.61l.05-.7h-2.61V90h2.69l.05-.77H127V87.94h4.29L131,93.61h1.26v3h-1.56V94.84H117.88v1.81h-1.55v-3h1.31l-.39-5.31a17.93,17.93,0,0,0,3.89-.84l.5,1.23a21.6,21.6,0,0,1-2.89.63l.06.64h2.7V91h-2.63Zm9.24,5.5V96.5h-7.87v.74Zm0,1.65v-.7h-7.87v.7Zm0,.93h-7.87v.78h7.87Zm-3.65-11.36a7.94,7.94,0,0,0,1-.87l.94.6a12.09,12.09,0,0,1-.91.87,12.35,12.35,0,0,1,1.13.76l-.79.77a14.88,14.88,0,0,0-1.28-.87,15.79,15.79,0,0,1-2,1l-.6-1a7.84,7.84,0,0,0,1.52-.63c-.4-.22-.83-.44-1.27-.66l.79-.74C123.57,87.94,124.07,88.2,124.53,88.46Zm-.07,2.93a7.14,7.14,0,0,0,.94-.89l.89.56a8.77,8.77,0,0,1-.9.92c.42.28.81.56,1.16.84l-.78.77a12.9,12.9,0,0,0-1.26-1,12.54,12.54,0,0,1-1.83,1l-.57-.92a10,10,0,0,0,1.48-.67c-.37-.22-.76-.46-1.17-.68l.72-.69C123.61,90.89,124.05,91.13,124.46,91.39Z"/><path d="M141.64,88a14.76,14.76,0,0,1-5.09,5.44l-.54-1.7a12.55,12.55,0,0,0,4.17-4.43Zm-5,10.54-.5-1.67a13.57,13.57,0,0,0,4.13-4.83l1.52.7a13.88,13.88,0,0,1-1.58,2.52v9.21h-1.7V97.1C137.88,97.61,137.27,98.1,136.61,98.58Zm16.13-3.39v1.54h-2.11v1.16h2.54v1.54h-2.54v3.22c0,1.15-.61,1.73-1.82,1.73h-2l-.37-1.67a16.58,16.58,0,0,0,1.78.13c.45,0,.69-.21.69-.61v-2.8h-7.62V97.89h7.62V96.73h-6.95V95.19Zm-1-7.23v6.17h-9V88Zm-5.22,14.45-1.33.93a19.83,19.83,0,0,0-2.26-2.71l1.25-.9A19.3,19.3,0,0,1,146.48,102.41Zm3.54-12v-1h-5.65v1Zm0,1.32h-5.65v1H150Z"/><path d="M173.72,87.26v1.61h-4.3v9.74h-1.79V87.26Z"/><path d="M182.72,100.47h-3.54v1.2h-1.74V88.87h5.28ZM181,98.82v-8.3h-1.83v8.3Zm5.1-2.93c-.54,3.71-1.69,6.54-3.43,8.52l-1.29-1.11q3.3-3.78,3.37-12V89.74h-1.47V88.07h8.86V89a23.92,23.92,0,0,1-1.21,4.28h2.38V94.8a13,13,0,0,1-2.67,5.93,11,11,0,0,0,3.17,2l-.86,1.54a12.46,12.46,0,0,1-3.5-2.37,14.14,14.14,0,0,1-3.89,2.41l-.87-1.58a12.79,12.79,0,0,0,3.58-2.16A12.85,12.85,0,0,1,186.11,95.89Zm.31-6.15v1.54c0,.68,0,1.35,0,2h2.91a29.15,29.15,0,0,0,1-3.54Zm3,9.65a11.34,11.34,0,0,0,2.17-4.46h-4.22A11.73,11.73,0,0,0,189.44,99.39Z"/><path d="M197.57,99.45a.57.57,0,0,0,.44-.56V89h1.73v9.8c.76-.24,1.52-.5,2.28-.8V87.48h1.74V102.8a12.75,12.75,0,0,0,4.37-3.41A19.19,19.19,0,0,1,206,95l1.43-.81a18.44,18.44,0,0,0,1.75,3.63,14.26,14.26,0,0,0,1.6-6h-3.32a13.65,13.65,0,0,1-2.37,4L204,94.47a15.17,15.17,0,0,0,2.83-7.14l1.76.3c-.16.85-.35,1.67-.55,2.43h5.87v1.72h-1.45a15.58,15.58,0,0,1-2.2,7.58,19.07,19.07,0,0,0,4.06,3.83l-1.21,1.41a21.22,21.22,0,0,1-3.93-3.74,14.69,14.69,0,0,1-4.5,3.59l-.92-1.5v1.41H202V99.73c-1.26.44-2.56.85-3.93,1.2Z"/><path d="M229.67,90.24c-.08.26-.15.5-.24.74a8.57,8.57,0,0,0,5,2.21l-.72,1.44a7.86,7.86,0,0,1-1.43-.33v7.59h-3.67a40.54,40.54,0,0,1,5.73,1.34l-.58,1.39a36.38,36.38,0,0,0-6.18-1.61l.57-1.12h-4.26l.76,1a20.38,20.38,0,0,1-5.89,1.72l-.8-1.35a24.63,24.63,0,0,0,5.48-1.36H220V94.24h4.46l-.7-1.07c2.48-.45,3.94-1.52,4.4-3.22Zm-6.36,1.45v1.5H218v-1.5Zm-.39-3.34v1.48h-4.59V88.35Zm7.62,8.1v-.87h-8.8v.87Zm0,2v-.82h-8.8v.82Zm0,1.15h-8.8v.91h8.8Zm-6.36-7.76-1-1.28a6.82,6.82,0,0,0,2.67-3.26l1.61.18c-.11.3-.22.6-.35.87h6.5v1.23A10.46,10.46,0,0,1,232.06,92L230.85,91a7.91,7.91,0,0,0,1-1.26H226.3A9.81,9.81,0,0,1,224.18,91.82Zm7.91,2.42a8.9,8.9,0,0,1-3.35-2.07,6.32,6.32,0,0,1-3.37,2.07Z"/><path d="M240.59,89.61a16.37,16.37,0,0,0-.76-1.81l1.69-.47a15.39,15.39,0,0,1,.72,2.28h2.26v1.63h-6.41V89.61ZM244,104.19h-1.61v-.8h-2.19v1h-1.61V97.71H244Zm-.17-11.82v1.54h-5.07V92.37Zm0,2.58V96.5h-5.07V95Zm-1.44,6.85V99.3h-2.19v2.5Zm4.5-7v-5h-2V88.11h7.87v6a36.85,36.85,0,0,0,.47,7.28c.13.57.25.87.37.87a2.44,2.44,0,0,0,.16-.76c0-.52.06-1.13.06-1.86l1.37.67a10.16,10.16,0,0,1-.5,3.43.84.84,0,0,1-.7.53,2,2,0,0,1-1.73-1.25c-.81-1.47-1.22-4.43-1.22-8.91V89.8h-2.45v5h2.06v1.69h-2.06v7.85h-1.7V96.54h-2.06V94.85Z"/><path d="M260.78,95.82l-1.37.37a51.21,51.21,0,0,0-1.06-5.11l1.41-.47C260.13,92.13,260.48,93.85,260.78,95.82Zm4.44-4.36a14.35,14.35,0,0,1-2.31,2.3v.41a31.47,31.47,0,0,1-.24,3.54c.83.94,1.68,2,2.53,3.15l-1,1.57c-.71-1.24-1.32-2.22-1.84-3a11.35,11.35,0,0,1-2.52,5l-1.29-1.15q2.66-2.86,2.72-9.19V87.54h1.67v4.39a17.65,17.65,0,0,0,1.35-1.71Zm3.63-.7a9.51,9.51,0,0,0,.35-1.2H265V88h10v1.56h-4.09a12.2,12.2,0,0,1-.34,1.2h3.58V101h-2.35a23,23,0,0,1,3.35,2.35L274,104.49a19.34,19.34,0,0,0-3.32-2.54l1-1h-3.31l1.13,1a15.09,15.09,0,0,1-3.74,2.59l-.95-1.22a14.21,14.21,0,0,0,3.52-2.35h-2.43V90.76Zm3.67,2.91V92.19h-4.91v1.48Zm0,3V95h-4.91v1.59Zm0,1.37h-4.91v1.56h4.91Z"/><path d="M288.41,95a2.42,2.42,0,0,1,.46,1.51A4,4,0,0,1,288,99a4.2,4.2,0,0,1-2.22,1.42V99.24a2.61,2.61,0,0,0,1.25-.87,2.23,2.23,0,0,0,.47-1.29,1.63,1.63,0,0,1-.45.07,1.31,1.31,0,0,1-1-.41,1.33,1.33,0,0,1-.39-1,1.29,1.29,0,0,1,.41-1,1.42,1.42,0,0,1,1.05-.39A1.47,1.47,0,0,1,288.41,95Z"/><path d="M131.09,112.15a25.69,25.69,0,0,1-1.22,3.24v13.17h-1.71V118.34a25.84,25.84,0,0,1-1.8,2.29l-.51-1.76a21.47,21.47,0,0,0,3.7-7.44Zm4.59.2v-.87h1.71v.87h4.76v1.39h-4.76v.82h4.15v5.63h-.36a18.76,18.76,0,0,1,1.63,2.13l-1.2.85c-.19-.3-.39-.59-.59-.89a4.87,4.87,0,0,0-.76.06v1.13h2.44V125h-2.44v2c0,1-.56,1.5-1.63,1.5h-2.17l-.35-1.55c.68,0,1.33.09,1.92.09.37,0,.56-.15.56-.42V125H133a14.34,14.34,0,0,1,2.74,1.65l-.87,1.37a13.16,13.16,0,0,0-2.87-2l.7-1h-2v-1.52h7.93v-1c-2,.09-4.43.19-7.39.26L131,121.3l4.69-.09v-1h-4v-5.63h4v-.82h-4.35v-1.39Zm.11,4.43v-.94h-2.55v.94Zm0,1.17h-2.55v1h2.55Zm1.47-1.17H140v-.94h-2.72ZM140,118h-2.72v1H140Zm-.46,2.44.33-.2h-2.46v1l2.66-.13C139.87,120.8,139.68,120.6,139.52,120.39Z"/><path d="M151,116v1.37a26.11,26.11,0,0,1-2,2.88h2.22v1.16a21.75,21.75,0,0,1-.89,3.41l.45.33a6.81,6.81,0,0,0,1.68,1.15,8,8,0,0,0,2.37.36c1,0,2.17,0,3.47,0s3,0,5.11-.15l-.39,1.67h-4.5c-1.32,0-2.58,0-3.76-.07a8.93,8.93,0,0,1-2.87-.43,6.22,6.22,0,0,1-2.12-1.35.58.58,0,0,0-.42-.19c-.37,0-1,.8-1.78,2.39l-1.28-1.16c.85-1.6,1.67-2.54,2.45-2.84a15.6,15.6,0,0,0,.83-2.83h-2.67v-1.34a23.67,23.67,0,0,0,2.19-2.79h-2.52V116Zm-.11-1.77-1.15,1.14a17.09,17.09,0,0,0-2.81-2.68l1.15-1.1A20.64,20.64,0,0,1,150.9,114.21Zm7.26-2.75v1.21h4v1.5h-4v1h5v1.54h-2.26a12.34,12.34,0,0,1-.59,1.39h1.94v1.48h-4.06v1h3.51v1.43h-3.51v1h4.69v1.55h-4.69v1.58H156.5v-1.58h-4.58V123.1h4.58v-1H153v-1.43h3.54v-1h-4.06v-1.48h2c-.22-.5-.44-1-.68-1.39h-2.19v-1.54h4.93v-1h-3.8v-1.5h3.8v-1.21Zm1.1,5.3h-3.82c.21.45.41.91.61,1.39h2.61A8.34,8.34,0,0,0,159.26,116.76Z"/><path d="M178.74,114.32c-.08.26-.15.5-.24.74a8.62,8.62,0,0,0,5,2.2l-.72,1.45a9.05,9.05,0,0,1-1.43-.34V126h-3.67a40.21,40.21,0,0,1,5.73,1.33l-.58,1.39a37.08,37.08,0,0,0-6.18-1.61l.57-1.11h-4.26l.76,1a20,20,0,0,1-5.89,1.72l-.8-1.35A25,25,0,0,0,172.5,126h-3.41v-7.65h4.46l-.7-1.08c2.48-.44,3.94-1.52,4.41-3.22Zm-6.35,1.44v1.5H167v-1.5Zm-.39-3.33v1.48h-4.6v-1.48Zm7.61,8.09v-.87h-8.8v.87Zm0,2v-.81h-8.8v.81Zm0,1.15h-8.8v.91h8.8Zm-6.35-7.76-1-1.28a6.78,6.78,0,0,0,2.67-3.26l1.61.19c-.11.29-.22.59-.35.87h6.5v1.22a10.54,10.54,0,0,1-1.59,2.43l-1.21-1a7,7,0,0,0,1-1.26h-5.52A9.75,9.75,0,0,1,173.26,115.89Zm7.91,2.43a9,9,0,0,1-3.36-2.08,6.33,6.33,0,0,1-3.37,2.08Z"/><path d="M189.66,113.69a17.39,17.39,0,0,0-.76-1.82l1.69-.46a14.69,14.69,0,0,1,.72,2.28h2.26v1.63h-6.41v-1.63Zm3.39,14.58h-1.61v-.8h-2.18v.94h-1.62v-6.63h5.41Zm-.16-11.82V118h-5.08v-1.53Zm0,2.57v1.56h-5.08V119Zm-1.45,6.86v-2.51h-2.18v2.51Zm4.5-6.95v-5.06h-2v-1.68h7.87v6a36.72,36.72,0,0,0,.47,7.28c.13.57.26.87.37.87s.09-.26.16-.76.06-1.13.06-1.85l1.37.67a10.13,10.13,0,0,1-.5,3.42.83.83,0,0,1-.7.54,2,2,0,0,1-1.73-1.26q-1.22-2.19-1.22-8.91v-4.3h-2.44v5.06h2v1.68h-2v7.86h-1.71v-7.86h-2.05v-1.68Z"/><path d="M224,112.09v1.65h-7.17V115h5.67v7.61h-5.93a7.42,7.42,0,0,1-.94,2.63,27,27,0,0,0,9,1.65l-.44,1.71a26.45,26.45,0,0,1-9.67-2.08q-2,1.56-6.3,2.06l-.76-1.61a12,12,0,0,0,5.34-1.3,18.22,18.22,0,0,1-2.73-1.87l1.36-.93a15.62,15.62,0,0,0,2.59,1.65,6.7,6.7,0,0,0,.8-1.91h-5.32V115h5.61v-1.28h-7.15v-1.65Zm-8.91,6v-1.56H211.2v1.56Zm0,1.89v-.45H211.2v1.58H215C215.05,120.73,215.07,120.34,215.07,120Zm5.67-.45h-3.93V120a10.22,10.22,0,0,1-.05,1.13h4Zm-3.93-1.44h3.93v-1.56h-3.93Z"/><path d="M230.22,119.89l-1.37.37a51.21,51.21,0,0,0-1.06-5.11l1.41-.46C229.57,116.21,229.92,117.93,230.22,119.89Zm4.44-4.35a14,14,0,0,1-2.31,2.3v.4a29.14,29.14,0,0,1-.24,3.54c.83,1,1.68,2,2.54,3.15l-1,1.58c-.7-1.25-1.32-2.23-1.83-3a11.45,11.45,0,0,1-2.52,5l-1.3-1.15c1.78-1.91,2.69-5,2.72-9.19v-6.63h1.67V116a17.57,17.57,0,0,0,1.35-1.7Zm3.64-.7a11,11,0,0,0,.35-1.21h-4.17v-1.55h10v1.55h-4.09a10.14,10.14,0,0,1-.33,1.21h3.57v10.22h-2.35a23.43,23.43,0,0,1,3.35,2.35l-1.13,1.15a19.74,19.74,0,0,0-3.31-2.54l1-1h-3.32l1.13,1a15.38,15.38,0,0,1-3.74,2.6l-1-1.23a13.94,13.94,0,0,0,3.52-2.35h-2.42V114.84Zm3.66,2.9v-1.48h-4.91v1.48Zm0,3v-1.6h-4.91v1.6Zm0,1.37h-4.91v1.55H242Z"/><path d="M257.67,124.38a1.21,1.21,0,0,1,.39.94,1.29,1.29,0,0,1-.39,1,1.48,1.48,0,0,1-1,.37,1.28,1.28,0,0,1-.94-.39,1.21,1.21,0,0,1-.41-.94,1.17,1.17,0,0,1,.41-.94,1.27,1.27,0,0,1,.94-.38A1.35,1.35,0,0,1,257.67,124.38Zm.18-10.95-.42,9.48H256l-.42-9.48Z"/><path d="M274.44,117.28v11.36h-6.09V127h4.3v-9.74Z"/><path class="cls-1" d="M451.11,174.47c17.71,4.35,31.18-5.14,40.71-20.68s6.8-37.83-6.88-49.88c-9.71-8.55-23.06-11.44-35.85-13.36s-25.65-3.13-38.3-1-25.08,7.92-33,18a40.65,40.65,0,0,0,33.35,65.83c3.5-.12,7-.7,10.47-.07s9.45,1.29,10.24,4.7c.48,2.12-.13,4.32,0,6.49s1.48,4.64,3.65,4.62c1.49,0,2.69-1.18,3.7-2.27,3.78-4.06,8.18-8.29,12-12.35"/><path d="M450.31,177.37c11.52,2.59,22.6.18,31.75-7.36s16.13-18.43,17.87-30.1c1.68-11.32-.88-23.31-7.79-32.55C484,96.48,470.82,91.57,457.91,89c-27-5.32-62.29-7.91-81.79,15.77-16.5,20-11.64,50.69,10.17,64.6a44.78,44.78,0,0,0,19.61,6.77c4.11.42,8.11-.26,12.21-.18,2.68.06,8.56.28,10.26,2.71s-.17,6.77,1.55,9.85a6.46,6.46,0,0,0,5.93,3.49c3.39-.24,5.6-3.32,7.75-5.56,3.2-3.31,6.48-6.54,9.63-9.89,2.65-2.81-1.59-7.06-4.24-4.24-1.42,1.51-12.24,14.17-14.08,12.64-1-.82.22-6.38-.21-7.81a7.42,7.42,0,0,0-3-4c-8.2-5.59-19.6-1.7-28.65-3.42-24.07-4.59-37.64-30.85-27.35-53.12C387.07,92,418,89.7,441.45,92.51c12,1.44,24.86,3.21,35.47,9.34a35,35,0,0,1,17.2,26.09c3.1,23.26-17.63,49.18-42.21,43.64-3.76-.85-5.37,4.94-1.6,5.79Z"/><path d="M420.33,126.25c1.06,0,1.6.58,1.62,1.81v7.38c0,1.52-.54,2.26-1.62,2.24h-4.59v5.71c0,.37.29.58.87.62H419a1.17,1.17,0,0,0,1-.74l.62-1.62a.88.88,0,0,1,1-.49l2.36.74a1,1,0,0,1,.5,1.12l-2,4a2.68,2.68,0,0,1-2.11,1H414c-1.49-.05-2.24-.91-2.24-2.61v-7.7h-2.95a12.27,12.27,0,0,1-2,5.34q-2.49,3.81-8.79,4.75c-.54.1-.9,0-1.09-.25l-1-2.11c-.27-.64-.13-1,.4-1.15,3.15-.41,5.33-1.43,6.56-3.06s1.85-2.8,1.89-3.52h-3.23c-1.14,0-1.72-.72-1.74-2.24V131.1a8.06,8.06,0,0,1-1.49,1.49c-.37.35-.79.18-1.24-.5l-1.37-1.74a1.14,1.14,0,0,1,0-1.49,47,47,0,0,0,7.95-9.31c.46-.91,1-1.37,1.62-1.37l2.6.75c.54.25.54.79,0,1.61h6.59a4.28,4.28,0,0,1,1.61.38l2,.74c.64.33.72.83.25,1.49a36.22,36.22,0,0,0-2.61,3.1Zm-16.51,7.42h5.09v-3.6h-5.09Zm.12-7.42h6.95c.56-.7,1.14-1.49,1.74-2.35h-6.7A15,15,0,0,1,403.94,126.25Zm8.82,7.42H418v-3.6h-5.21Z"/><path d="M453.74,125.14c0,.85-.52,1.3-1.62,1.36h-5.21v.62h7.82c1,0,1.43.48,1.37,1.49q-.17,4.41-2.86,5.72l-1.37.24a1.14,1.14,0,0,1-.83-.09v8.32c0,.85-.39,1.25-1.15,1.21h-.5q2.58.57,4.59.87c.67.29.73.85.19,1.68l-1,1.27a1.65,1.65,0,0,1-1.9.4,16.8,16.8,0,0,1-5.59-2.23,4.41,4.41,0,0,1-1.67-1.93h-3.26a5,5,0,0,1-1.65,1.93,15.05,15.05,0,0,1-5.71,2.36,1.79,1.79,0,0,1-1.86-.75L430.23,146c-.29-.58.19-.91,1.43-1a11.53,11.53,0,0,0,3.6-1h-.43a1.12,1.12,0,0,1-1.18-1.27v-8.44a25,25,0,0,1-3.63,1.18,1.42,1.42,0,0,1-1.87-.47l-.59-1.49c-.39-.78-.27-1.26.35-1.43a13.61,13.61,0,0,0,6.3-2.17h-3.07c-.75,0-1-.56-.87-1.61l1.24-3.48c.18-.77.85-1.14,2-1.12H437V123h-5.59c-.8-.07-1.22-.36-1.24-.87v-1.37c0-.6.44-.89,1.24-.87H437v-.25c-.12-.51.08-.76.62-.74h2c.66,0,1,.21,1,.62v.37h2.77v-.09c0-.64.26-1,.8-1H446q.87,0,.87,1v.09h5.21a1.4,1.4,0,0,1,1.62,1.62Zm-18.88,1.36-.25.62h1.9l.21-.62Zm2.48,7.7v.62h10v-.62Zm0,3v.63h10v-.63Zm0,3.17V141h10v-.62Zm6-9.59V130h-4l-1,1.24h5A2.5,2.5,0,0,1,443.34,130.82Zm0-4.32h-2.83l-.06.62h2.89Zm-2.77-2.73h2.77V123h-2.77Zm9.32,0V123h-3v.74Zm.12,7.33h.87c.25,0,.53-.19.84-.56s.24-.56-.22-.56h-4.59v.84a1.34,1.34,0,0,1,0,.4h1.7a2.49,2.49,0,0,1,.59.06A1.62,1.62,0,0,1,450,131.1Z"/><path class="cls-1" d="M220.29,349c.81-1.43,3-10.15,2-12.69a646.49,646.49,0,0,0-112.21-3.8c-.79,5.32-.47,16-.47,18.83"/><path d="M222.88,350.46c2-4.23,3.44-10.37,2.34-15a3.09,3.09,0,0,0-2.89-2.2,644.29,644.29,0,0,0-112.21-3.8,3.1,3.1,0,0,0-3,3c-.8,6.23-.5,12.56-.47,18.83,0,3.86,6,3.87,6,0,0-6.27-.33-12.6.47-18.83l-3,3a644.29,644.29,0,0,1,112.21,3.8l-2.89-2.2c.68,2.86-.5,7.72-1.74,10.37-1.64,3.48,3.54,6.53,5.18,3Z"/><path class="cls-1" d="M111.85,361.77c-.81-1.43-2.95-10.15-2-12.69A646.49,646.49,0,0,1,222,345.28c.79,5.32.47,16,.47,18.83"/><path d="M114.44,360.25c-1.23-2.63-2.41-7.53-1.74-10.37l-2.89,2.2A644.29,644.29,0,0,1,222,348.28l-3-3c.8,6.23.5,12.56.47,18.83,0,3.86,6,3.86,6,0,0-6.27.33-12.6-.47-18.83a3.1,3.1,0,0,0-3-3,644.29,644.29,0,0,0-112.21,3.8,3.12,3.12,0,0,0-2.89,2.2c-1.1,4.63.35,10.76,2.34,15,1.64,3.49,6.82.45,5.18-3Z"/><path class="cls-1" d="M110.89,366.9c-.82-1.43-2-2.35-1.08-4.88A645.5,645.5,0,0,1,222,358.21c.79,5.33.47,16,.47,18.83"/><path d="M113.48,365.38a3.35,3.35,0,0,1-.78-2.57L109.81,365A645.28,645.28,0,0,1,222,361.21l-3-3c.8,6.24.5,12.56.47,18.83,0,3.86,6,3.87,6,0,0-6.26.33-12.6-.47-18.83a3.11,3.11,0,0,0-3-3A645.28,645.28,0,0,0,109.81,359a3.09,3.09,0,0,0-2.89,2.2c-.68,2.88-.18,4.73,1.38,7.19,2,3.26,7.25.25,5.18-3Z"/><path class="cls-1" d="M95.67,382.12a49.31,49.31,0,0,1,1.46-13.76c21.34-1,43.43,1.81,64.77,3.61,10.66.91,57.37-2.56,60.59,8.88"/><path d="M98.67,382.12a53.8,53.8,0,0,1,1.35-13l-2.89,2.2c25.84-1.08,51.3,3.87,77.07,3.78,8.92,0,17.86-.06,26.75.72,4.09.36,16.91.67,18.65,5.79,1.23,3.63,7,2.07,5.78-1.6-2.23-6.58-10.53-8.25-16.54-9.23-9.78-1.59-19.78-1.68-29.66-1.69-27.43,0-54.6-4.91-82.05-3.77a3.08,3.08,0,0,0-2.9,2.2,60.94,60.94,0,0,0-1.56,14.56c0,3.85,6,3.86,6,0Z"/><line class="cls-1" x1="112.57" y1="339.62" x2="179.24" y2="338.29"/><path d="M112.57,341.12l66.67-1.33c1.93,0,1.94-3,0-3l-66.67,1.33c-1.92,0-1.93,3,0,3Z"/><path d="M353.68,296c4.42,11.21,8.82,22.45,14.77,33l5.18-3a12.1,12.1,0,0,0-1.5-2.32c-2.26-3.08-7.47-.09-5.18,3a12.1,12.1,0,0,1,1.5,2.32c1.91,3.35,7.08.34,5.18-3-5.7-10.07-9.93-20.8-14.16-31.54-1.4-3.55-7.21-2-5.79,1.6Z"/><path d="M351.09,286.39c-4.06,4.56-9.23,11-5.39,17.28,2.94,4.84,10,6.15,15.23,5.44,12.92-1.75,11.93-18.53,2.6-24.42C353,278,341,287.14,342.46,299c1.54,12.31,17.17,15.41,26.29,8.91,10.23-7.29,3.53-24.23-7.1-27.44-11.18-3.39-25,10-19,21.15,4.62,8.48,22.13,11.92,28,3.1,5.63-8.46-1.07-23.94-12-22.63-9.76,1.18-19.9,14.21-13,23.33,5.87,7.78,21.47,7.28,25.66-2,4.35-9.68-6.78-21.18-16.42-20.46a10,10,0,0,0-9.31,10c-.11,6,4.33,11.21,9.89,13.06,5,1.66,11.9,1.08,15-3.75,2.63-4.13,1.35-9.59-1.15-13.46-2.77-4.26-7.49-7.47-12.74-6.46-5.78,1.1-10.26,6.84-9.18,12.78,2,10.7,23.14,14.76,22.24,1.12-.36-5.39-5.33-11.08-10.67-12.05-5.63-1-9.19,4.14-8.61,9.27s4.78,10,10.05,10.52c4.95.44,8.07-3.44,7.48-8.19-.51-4.21-4.12-10.31-9-10.29-5.38,0-6.52,7-4.94,11,1.78,4.43,7.34,7.84,11.23,3.51,2.77-3.08,1.27-8.92-1.8-11.28-9.74-7.49-9.93,17.11.3,11.43,5-2.78,1.65-9.26-1.3-12.17a3,3,0,0,0-4.71.61c-1.91,3.73-.74,8.21,3.25,10,1.53.68,4.12.33,4.41-1.79.53-3.95-1.2-6.44-5.24-6.95-3-.36-4.08,4.33-1.51,5.59a5.26,5.26,0,0,0,3.56.74c3.78-.45,3.83-6.46,0-6l-.53.08-1.52,5.59-.55-.64,4.41-1.8-1.1-1.77-4.71.6c.47.46,1.42,2.37,1.86,2.53,4.09,1.5.88-4.16,0-.89,0,.05,1.4,2.72.25,1.67a4.81,4.81,0,0,1-1.1-2.47c-.36-2.72.61-.93,1.46.27.51.7,1.9,3.09,1.4,4-1.3,2.26-4.42-1-5.17-2.54-.86-1.77-1.38-4.56,2.28-4.15,1,.11,2.9,2.33,3.44,3.18,1.57,2.47,1.47,5-1.76,5.41-2.91.4-7.48-2.74-7.59-5.75-.15-4.06,4.53-6.25,7.78-4.61,2.77,1.41,6.11,6.39,4.72,9.63-2.61,6.05-13.05,1-14-4-1.33-7,6.53-5.9,10.1-3.06,3.41,2.72,6.67,8.41,2.24,11.75-3,2.28-8.08,2.29-11.36.56-5.09-2.67-3.21-8.35,0-11.77s8.58-5.88,11.75-1.32c2.57,3.69,3.75,11-1.57,12.68a16,16,0,0,1-12.54-2c-5.84-4.05-2.13-11.34,3-14.06,5.76-3.08,10.88.48,13.39,5.83,2.85,6.09-.06,10.86-6.47,11.88-5.89.93-12.13-1.21-11.9-8.18.21-6.3,6-10.55,11.72-7.19,4.6,2.68,7.66,12.06.54,13.57-2.41.5-6.37.18-8.36-1.3-4.43-3.33.63-8.44,3.1-11.21s-1.67-7.14-4.24-4.25Z"/><path class="cls-1" d="M451.84,574.89c4.78,9.4,11.55,25.81,20,33,3.14,2.68,4.34-1.93,10.85-3.28,4.37-.91,10.33-4.22,14.68-6.28,11.26-5.3,20.71-11.46,32-16.26,7.34-3.13,18.83-9.06,26.08-12.48,2.47-1.17,13.48-4.93,15.49-6.7,6.74-5.93-.07-13.14-2.43-17.78-4.61-9.06-10-17.57-14.65-26.64-1.74-3.42-3.72-15.66-9.24-16.25s-28.42,12.54-34.51,15.28c-7,3.16-28.59,15.14-33.7,17.28,0,0-36.15,17.16-35.11,20.27S451.84,574.89,451.84,574.89Z"/><path d="M449.25,576.4c3.57,7.1,6.77,14.41,10.83,21.25,2.54,4.28,7.65,14,13.5,14.05,2.61,0,4.41-1.92,6.59-3,3.55-1.79,7.69-2.49,11.35-4.17,9-4.16,17.69-8.91,26.44-13.56,8-4.26,16.41-7.73,24.57-11.71,6.43-3.14,12.75-6.43,19.42-9,5.27-2,11.83-3.72,14.12-9.49,2.78-7-3.24-13.86-6.31-19.66-4.49-8.48-10.66-16.71-13.94-25.75-1.79-4.93-2.87-11.58-7.55-14.77-3.81-2.61-8.39-.63-12.22.92-5.94,2.42-11.67,5.38-17.37,8.32-17.18,8.87-34.41,17.67-51.73,26.27-5.53,2.75-11,5.55-16.43,8.57-3.53,2-8.25,4.09-10.91,7.28-2.84,3.4.23,7.3,2,10.58,2.47,4.68,5.06,9.3,7.68,13.9,1.9,3.36,7.09.34,5.18-3q-2.61-4.59-5.15-9.21c-1.16-2.12-2.32-4.25-3.42-6.4-.29-.56-.74-2.22-1.26-2.53-.77-.45-.8.78-.5.66,2.7-1,5.66-3.92,8.25-5.39,4.2-2.4,8.5-4.64,12.81-6.83,14.92-7.59,29.74-15.57,44.82-22.8,8.87-4.25,17.43-9.18,26.46-13.09,4.19-1.81,8-4.36,10.52.59s3.47,10.18,6,15c4.26,8,8.75,15.85,13.15,23.74,1.59,2.85,4.59,6.17,4.65,9.58.08,3.81-3.76,5-6.62,6.24-11.55,4.8-22.62,10.42-34,15.54-8.95,4-17.5,8.61-26.17,13.18a190.94,190.94,0,0,1-24.31,10.72,22.85,22.85,0,0,0-4,2c-1.69,1-1.52,1.23-3.09.18-3.12-2.1-5.47-6.77-7.34-9.93-4.06-6.85-7.26-14.15-10.83-21.25C452.69,569.92,447.51,573,449.25,576.4Z"/><path class="cls-1" d="M462.32,572.49c3.45,6.77,8.19,18.65,14.65,23.63,2.4,1.85,3.57-1.62,8.86-2.9,3.55-.86,8.48-3.57,12.07-5.28,9.28-4.42,17.14-9.39,26.43-13.44,6-2.63,15.53-7.52,21.51-10.37,2-1,11-4.23,12.74-5.62,5.67-4.69.5-9.75-1.19-13.09-3.32-6.52-7.32-12.59-10.65-19.12-1.25-2.46-2.31-11.46-6.72-11.66s-23.39,10.52-28.41,12.81c-5.79,2.65-23.63,12.46-27.83,14.26,0,0-29.8,14.27-29.09,16.54S462.32,572.49,462.32,572.49Z"/><path d="M459.73,574c2.83,5.64,5.29,11.5,8.74,16.8,2.19,3.34,5.93,9.42,10.63,8.75,2.25-.33,4-2.16,6.06-3,3-1.2,6-2,8.91-3.41,7.38-3.5,14.55-7.4,21.78-11.19,11.52-6,23.59-12.07,35.66-16.93,4.17-1.68,9.37-3.12,11.66-7.38,2.68-5-.81-9.51-3.19-13.74-3.68-6.53-8.56-13.32-11.05-20.38-1.33-3.78-2.06-8.82-5.9-11-3.24-1.86-6.95-.16-10.06,1.12-4.87,2-9.57,4.44-14.25,6.85-14,7.21-28,14.41-42.14,21.42-7.44,3.69-16.93,7.17-23.06,12.94-2.74,2.58-1.56,4.91,0,7.9,1.95,3.82,4.11,7.55,6.25,11.26,1.93,3.34,7.12.33,5.18-3q-2.21-3.81-4.33-7.68c-.71-1.29-1.33-3.31-2.31-4.36l-.35-.7c-.43-1.24-.67-.78-.73,1.38a12,12,0,0,1,1.24-1c6.13-3.05,11.95-6.88,18.09-10,11.8-5.94,23.46-12.21,35.34-18,6.86-3.33,13.55-7,20.48-10.22,2.18-1,6.36-3.81,8.35-2,1.32,1.22,1.69,4.16,2.2,5.81a33,33,0,0,0,2.54,6c3.17,5.89,6.47,11.79,9.85,17.57.92,1.56,3.15,4,2.89,6-.41,3-4.94,4.13-7.18,5-8.84,3.61-17.23,8.11-25.91,12.09C511.69,577,499,585.61,485,590.33a26.26,26.26,0,0,0-3.44,1.27c-.62.31-2.85,2.18-3.5,2.08s-3.77-4.9-4.44-5.91c-3.47-5.29-5.92-11.16-8.74-16.8C463.18,567.52,458,570.55,459.73,574Z"/><path d="M480.61,553.77c.41-.21.74-.06,1,.44l1.95,3.83,1.91-1c.41-.2.75,0,1,.46l.85,1.68c.26.5.21.83-.12,1l-2,1,.76,1.5a34.82,34.82,0,0,0,4.93,2.45c.35.11.5.39.44.85l-.2,1.84q-.09.61-.45.63a6.59,6.59,0,0,1-2.17-.77l5,9.8c.22.42.15.73-.21.91l-1.81.92c-.4.21-.7.13-.88-.22l-5-9.8a27.41,27.41,0,0,1-.29,5.24.66.66,0,0,1-.85.57l-1.87-.39c-.56-.14-.81-.46-.73-1a33.53,33.53,0,0,0-.34-10.69L479,564.39c-.41.21-.74.05-1-.46l-.85-1.68c-.25-.49-.18-.85.23-1l3.25-1.66-2-3.83a.73.73,0,0,1,.34-1.11Zm5.24,7.79a28,28,0,0,0,1.41-4.94,30.3,30.3,0,0,0,.52-6.23.85.85,0,0,1,.47-.91l2.21-1.12a.71.71,0,0,1,.94.19,15,15,0,0,0,4.64,2.83,22,22,0,0,0,7.31,1.55c.83,0,1.21.25,1.15.75l-.49,2.13c-.11.48-.3.71-.56.69l-1.15-.09,2.85,5.59c.25.5.16.86-.29,1.09l-1.54.78a2.74,2.74,0,0,1,.35.69,7,7,0,0,1,.44,1.66,10.66,10.66,0,0,1,5.47,1.14,1,1,0,0,1,.49,1.29l-.79,1.87c-.16.26-.48.31-1,.13a36.21,36.21,0,0,0-3.86-1.25,11,11,0,0,1-.75,3.93.84.84,0,0,1-.89.49l-1.7-.31c-.46-.12-.58-.57-.34-1.34a12.87,12.87,0,0,0-.12-6.94l-1,.5c-.45.22-.79.09-1.05-.41l-2.88-5.67c-.23-.44-.14-.76.25-1l4.82-2.45c-1.13-.15-2.24-.34-3.35-.58l.27.53a.53.53,0,0,1-.26.8l-6.55,3.33c-.25.13-.45,0-.59-.23l-.27-.53c-.29.93-.58,1.79-.89,2.59l4.63-2.35a.66.66,0,0,1,1,.32l2.88,5.68a.7.7,0,0,1-.28,1.08l-1.39.7a2.61,2.61,0,0,1,.27.6,6.27,6.27,0,0,1,.44,1.32,11,11,0,0,1,3.47,1.22c.48.25.59.77.33,1.58l-.52,1.47c-.13.33-.44.37-.95.11q-1.12-.57-2-1a18.57,18.57,0,0,1-.91,4.29.69.69,0,0,1-.89.48l-2.1-.37c-.45-.09-.54-.54-.29-1.36a13.56,13.56,0,0,0,.82-3.6,9.28,9.28,0,0,0-.46-3.32l-1,.5c-.44.22-.79.09-1-.41l-2.73-5.35c-.14.34-.86.25-2.15-.28C485.6,563.16,485.45,562.53,485.85,561.56Zm5.39-8.77a12.65,12.65,0,0,1-.43,3.83l3.87-2A12.48,12.48,0,0,1,491.24,552.79ZM492,564l.85,1.68,1.12-.57-.85-1.68Zm7.27-3.7.85,1.68,1.33-.68-.85-1.68Z"/><path d="M508.27,540.17a.82.82,0,0,1,.85-.7l3.92,0a.76.76,0,0,1,.8.8l-.12,2.14c-.06.41-.39.62-1,.64l-4.14,0q-.76,0-.75-.69ZM510.1,548a.84.84,0,0,1,.91-.6l4-.08a.73.73,0,0,1,.76.72l-.25,1.87c0,.56-.25.87-.73.94l-4.07.16c-.64,0-.94-.22-.93-.77Zm10.8-13.57c.86-.45,1.48-.29,1.84.46l8.33,16.38a1.23,1.23,0,0,1-.67,1.85,6.21,6.21,0,0,0,3.37,1.07c.72-.08,1,.37.81,1.33l-.19,1.47c-.16.57-.6.84-1.33.81a9.88,9.88,0,0,1-5-2.5c-.41-.37-.47-.67-.18-.88l-1.49.76a.62.62,0,0,1,.82.55,9.53,9.53,0,0,1-1,5.59c-.38.6-.82.84-1.31.71l-1.6-.83c-.63-.4-.8-.85-.52-1.35a8.77,8.77,0,0,0,1.21-3.43,1.13,1.13,0,0,1-1.73-.49l-8.38-16.48a1.15,1.15,0,0,1,.6-1.72ZM516,555.13c0-.69.11-1.09.47-1.18l2.19-.44c.32,0,.57.34.77,1a69.58,69.58,0,0,1,1.57,9.42c.09.54-.19.86-.85,1l-2.45.18q-.78-.07-.72-1.14A45.6,45.6,0,0,0,516,555.13Zm2.09-15.38,1.15,2.27,2.45-1.25-1.15-2.26Zm2.58,5.06,1.15,2.26,2.45-1.24-1.15-2.26ZM531.24,550l-8-15.65c-.18-.36,0-.66.48-.92l1.57-.8c.44-.22.75-.16.94.2l8,15.65c.29.57.22,1-.21,1.18l-1.59.81C531.92,550.73,531.53,550.57,531.24,550Zm-7.93,0,1.1,2.15,2.45-1.24-1.1-2.16Zm13.49.14-9.7-19.06c-.18-.36,0-.65.42-.89l1.76-.89c.42-.22.73-.15.91.21l9.8,19.28c1.2,2.36,1.13,4.14-.23,5.34L538,555.59a1,1,0,0,1-1.5-.17l-1.18-1.28c-.52-.49-.59-.89-.2-1.17l1.6-1.08C537.2,551.53,537.21,550.94,536.8,550.12Z"/><path class="cls-6" d="M86.2,467.71V631.92c0,3.86,6,3.87,6,0V467.71c0-3.86-6-3.87-6,0Z"/><path d="M469.52,119.51a75,75,0,0,0-5.36,15.94c-.76,3.77,5,5.38,5.78,1.59a68.6,68.6,0,0,1,4.76-14.5c1.58-3.49-3.59-6.54-5.18-3Z"/><path d="M465.05,149.24h.66a3,3,0,1,0,0-6h-.66a3,3,0,1,0,0,6Z"/><path d="M51.51,248.91h-2V244.6A19.11,19.11,0,0,1,47,248.06l-.72-1.88a13.65,13.65,0,0,0,3.21-4H46.61V240.4h2.9v-1.9h2v1.9h2.24v1.83H51.51v.57c.93.59,1.86,1.25,2.81,2l-1.12,1.67c-.65-.77-1.22-1.42-1.69-1.91ZM50,250.26A17.85,17.85,0,0,1,48.09,255L46.38,254A13,13,0,0,0,48,249.83Zm3,5.19a1.91,1.91,0,0,1-2.14-2.19v-3.61h2v3.2c0,.45.25.68.74.68h4a.72.72,0,0,0,.61-.28,4.41,4.41,0,0,0,.32-1.81l1.88.65c-.15,1.63-.42,2.62-.81,2.92a2.65,2.65,0,0,1-1.66.44Zm4.33-3.89-1.57,1.1a22.94,22.94,0,0,0-1.94-2.51l1.54-1A20.31,20.31,0,0,1,57.26,251.56Zm5.34-12.71v9.93H54.72v-9.93Zm-1.92,2.85v-1.11h-4v1.11Zm0,2.65v-1.06h-4v1.06Zm0,1.6h-4v1.12h4ZM64,253.36l-1.69,1.18a37.57,37.57,0,0,0-2.78-4.31l1.62-1A35.63,35.63,0,0,1,64,253.36Z"/><path d="M71.29,239a24.69,24.69,0,0,1-1.26,3.3v13.51h-1.9V245.59c-.53.74-1.12,1.46-1.73,2.18l-.6-2a21.12,21.12,0,0,0,3.74-7.6Zm4.54.09v-.84h1.92v.84h4.82v1.56H77.75v.74H82v5.85h-.3a19.52,19.52,0,0,1,1.61,2.09l-1.36.95c-.2-.3-.38-.59-.58-.87a4.48,4.48,0,0,0-.64.05v1.05h2.43v1.69H80.71v2c0,1.06-.59,1.61-1.77,1.61H76.72l-.4-1.75c.68.06,1.35.1,2,.1.34,0,.53-.14.53-.4v-1.52H73.45A14.35,14.35,0,0,1,76,253.8l-1,1.52a13.27,13.27,0,0,0-2.93-2l.74-1.06H70.75v-1.69h8.08v-.93c-2,.07-4.45.17-7.49.24l-.24-1.55c1.73,0,3.3-.06,4.73-.1v-.93h-4v-5.85h4v-.74H71.44v-1.56Zm.13,4.58v-.87H73.51v.87ZM76,245H73.51v.89H76Zm1.63-1.27h2.64v-.87H77.59ZM80.23,245H77.59v.89h2.64Zm-.41,2.49.3-.19H77.75v.87l2.54-.11C80.12,247.83,80,247.64,79.82,247.47Z"/><path d="M90.27,242.85v1.54a27.73,27.73,0,0,1-1.92,2.83H90.4v1.3a22.8,22.8,0,0,1-.74,3.36,3.4,3.4,0,0,1,.47.38,6.59,6.59,0,0,0,1.71,1.18,7.25,7.25,0,0,0,2.3.36l3.5,0c1.38,0,3.19-.06,5.43-.14l-.46,1.86H97.87c-1.28,0-2.55,0-3.8-.07A9.06,9.06,0,0,1,91.2,255a6.17,6.17,0,0,1-2.15-1.44.51.51,0,0,0-.42-.19c-.36,0-.95.81-1.76,2.45l-1.43-1.33a6.39,6.39,0,0,1,2.43-2.89,18.12,18.12,0,0,0,.69-2.75H86.05v-1.49a23.24,23.24,0,0,0,2.07-2.75H85.75v-1.79Zm-.17-1.8-1.28,1.27A17.33,17.33,0,0,0,86,239.57l1.29-1.22A19.93,19.93,0,0,1,90.1,241.05Zm3.05-.38,0,4.1a17.3,17.3,0,0,1-1.44,7.68l-1.62-.78a15.22,15.22,0,0,0,1.37-6.9v-5.64a64.25,64.25,0,0,0,10.19-.87l.85,1.5c-1.25.23-2.56.42-3.91.57v.45h3.55v1.37H98.61v.59h4v.74a11,11,0,0,1-.51,2.05l-1.47-.43a5.29,5.29,0,0,0,.34-.92H98.57v.67l1.75-.19.21,1.27-2,.21c0,.34.25.51.68.51h2.81V248H98.57c-1,0-1.5-.43-1.5-1.27v-.42l-1.45.15a12.9,12.9,0,0,1-1.8,7l-1.33-1.16a11.24,11.24,0,0,0,1.58-5.84v-3.7H97v-2.26C95.76,240.57,94.48,240.63,93.15,240.67Zm5,7.71v.76A6.36,6.36,0,0,1,97.5,252a3.52,3.52,0,0,1-1.86,1.5l-.85-1.35A3,3,0,0,0,96.25,251a4.6,4.6,0,0,0,.42-1.86v-.76Zm-1.08-4.2H95.62v1l1.45-.15Zm3.74,9.08c-1.1,0-1.65-.45-1.65-1.36v-3.5h1.48v3.17c0,.14.08.21.25.25h.4c.15,0,.24-.15.26-.42s0-.6,0-1.06l1.4.53a3.77,3.77,0,0,1-.32,2,1.88,1.88,0,0,1-1.31.39Z"/><path d="M110,238.29c-.21,1.22-.42,2.34-.61,3.39h3.12v1.08a20.17,20.17,0,0,1-1.7,7.71,27.94,27.94,0,0,1,2.49,2.15L112,254.18c-.59-.61-1.3-1.26-2.09-1.94a14.62,14.62,0,0,1-3.41,3.74l-1.36-1.69a12.88,12.88,0,0,0,3.21-3.34c-.86-.71-1.79-1.43-2.8-2.17.56-1.59,1-3.32,1.51-5.18h-1.75v-1.92h2.16c.23-1.16.44-2.36.63-3.58Zm.57,5.31H109a37.23,37.23,0,0,1-1.31,4.57c.55.38,1.06.74,1.54,1.1A16.92,16.92,0,0,0,110.58,243.6Zm6.36,2.43v-2.09a23.14,23.14,0,0,0,2.68-3h-6.19V239h8.47V241a27.7,27.7,0,0,1-3,3.58V246h3.62V248h-3.62v5.46c0,1.48-.57,2.22-1.68,2.22h-2.84l-.52-1.88c.76,0,1.62,0,2.55,0,.32,0,.49-.33.49-1V248h-4V246Z"/><path d="M131.8,254.67h-1.9v-.95h-2.81v1.5h-1.9V241.35H127a16.22,16.22,0,0,0,.74-3.13l2,.26a16.64,16.64,0,0,1-.84,2.87h2.89Zm-1.9-8.13v-3.32h-2.81v3.32Zm0,5.36v-3.59h-2.81v3.59Zm11.4,1.76c-.19,1.33-1.1,2-2.74,2-.38,0-1.06,0-2.05-.12l-.47-1.8c.83.06,1.57.09,2.2.09a1.14,1.14,0,0,0,1.2-1.12c.11-.91.17-4,.21-9.42h-4.6a15.25,15.25,0,0,1-1.82,3.08l-1.2-1.58a16.12,16.12,0,0,0,2.54-6.59l2,.25a26.15,26.15,0,0,1-.72,2.9h5.77Q141.58,251.33,141.3,253.66ZM138.07,250l-1.6,1.11a33.54,33.54,0,0,0-2.83-4.16l1.62-1A33.38,33.38,0,0,1,138.07,250Z"/><path d="M156.65,241.26c-.07.25-.15.49-.23.72a8.86,8.86,0,0,0,5,2.15l-.8,1.65c-.49-.08-.95-.19-1.37-.3v7.75h-3.21a43.87,43.87,0,0,1,5.28,1.19l-.64,1.58a40.14,40.14,0,0,0-6.35-1.61l.59-1.16h-4.27l.76,1a21.78,21.78,0,0,1-6,1.77l-.9-1.54a26.9,26.9,0,0,0,5.32-1.23h-3.21v-8h4.64l-.73-1.14c2.51-.44,4-1.5,4.45-3.21Zm-6.57,1.37v1.69h-5.53v-1.69Zm-.4-3.42v1.67h-4.75v-1.67Zm7.67,8.34v-.8h-8.79v.8Zm0,2v-.76h-8.79v.76Zm0,1.25h-8.79v.84h8.79Zm-6.34-8-1.08-1.42a6.63,6.63,0,0,0,2.69-3.33l1.83.23c-.12.31-.21.57-.32.84h6.59v1.37a11.39,11.39,0,0,1-1.64,2.5L157.75,242a7.83,7.83,0,0,0,.92-1.16h-5.51A10.25,10.25,0,0,1,151,242.87Zm7.69,2.4a9.13,9.13,0,0,1-3-2,6.27,6.27,0,0,1-3.09,2Z"/><path d="M166.32,240.46c-.22-.59-.45-1.16-.72-1.73l1.9-.51a22.5,22.5,0,0,1,.71,2.24h2.27v1.82h-6.61v-1.82ZM170,255.54h-1.8v-.77h-2v.93h-1.82v-6.9H170Zm-.15-12.23V245h-5.3v-1.73Zm0,2.66v1.75h-5.3V246Zm-1.65,7v-2.39h-2V253Zm4.65-7.11v-5h-2V239H179v6.21a42,42,0,0,0,.41,7.3c.12.57.23.87.35.87a3.21,3.21,0,0,0,.13-.82c0-.51,0-1.08,0-1.72l1.54.74a10.47,10.47,0,0,1-.54,3.55.85.85,0,0,1-.74.55,2.21,2.21,0,0,1-1.84-1.31c-.85-1.45-1.29-4.5-1.29-9.16v-4.31h-2.3v5h2v1.89h-2v8h-1.92v-8h-2v-1.89Z"/><path d="M193.34,246a2.64,2.64,0,0,1,.5,1.63,4.28,4.28,0,0,1-.88,2.64,4.56,4.56,0,0,1-2.37,1.54v-1.25a3.16,3.16,0,0,0,1.31-.92,2.31,2.31,0,0,0,.49-1.34,1.67,1.67,0,0,1-.47.07,1.45,1.45,0,0,1-1-.43,1.49,1.49,0,0,1-.42-1.07,1.37,1.37,0,0,1,.46-1.08,1.5,1.5,0,0,1,1.14-.42A1.6,1.6,0,0,1,193.34,246Z"/><path d="M52.31,270.25c1.53,1.76,3,3.59,4.35,5.47l-1.28,1.33-.55-.82v7.58H53v-.93H49.84v.93H48v-7.45c-.19.17-.36.35-.53.5l-1.12-1.54a29.4,29.4,0,0,0,4.43-5.07ZM51,267.66a22.42,22.42,0,0,1-3.24,3.44l-1.31-1.27a19.52,19.52,0,0,0,3.15-3.23Zm3.54,8.1a45.2,45.2,0,0,0-2.74-3.67,31.17,31.17,0,0,1-3.15,3.67ZM53,281.09v-3.55H49.84v3.55Zm3.19-11.76-1.35,1.35a18.88,18.88,0,0,0-3.08-3L53,266.47A24.11,24.11,0,0,1,56.18,269.33Zm3.74,12.16-.51-1.92,1.18.1c.43,0,.66-.25.66-.72v-9.69H58.82v14.51H56.94V267.42h6.17v11.94c0,1.41-.64,2.13-1.9,2.13Z"/><path d="M72.52,277.5l-1.54.4-.17-.81a23,23,0,0,1-4.41,1L66,276.46a3.12,3.12,0,0,0,.8-.51,17.56,17.56,0,0,0,1.88-2.78c-.73.12-1.49.23-2.28.34l-.48-1.63a1.71,1.71,0,0,0,.78-.65,34.64,34.64,0,0,0,1.86-5l1.81.72a30.22,30.22,0,0,1-2.3,4.75l1.5-.25c.34-.68.7-1.42,1.08-2.2l1.71.64a44,44,0,0,1-3.8,6.21q1-.19,2-.45c-.13-.51-.27-1-.4-1.48l1.42-.46A33.05,33.05,0,0,1,72.52,277.5ZM68.06,279a41.13,41.13,0,0,1-.42,4.52L66,283a26.68,26.68,0,0,0,.51-4.19Zm2.43,3.5-1.65.4c-.08-1.48-.16-2.81-.27-3.95l1.44-.31C70.2,279.82,70.36,281.11,70.49,282.5Zm2.09-1.94a18.17,18.17,0,0,0,.55-2.37l1.63.36a22.91,22.91,0,0,1-1.31,4.71l-1.5-.93.46-1.2-1.22.55a31,31,0,0,0-.72-3.08l1.37-.47C72.1,278.89,72.35,279.69,72.58,280.56ZM76,267.7a7.23,7.23,0,0,0,.49-1.42l1.94.26A6,6,0,0,1,78,267.7h4.68v8.87H78.2A26.34,26.34,0,0,1,80,279.38l-1.37.93a30.41,30.41,0,0,0-1.8-3l1.14-.72H73V267.7Zm4.92,1.52H74.69v3.12l1.33-.95-1-.69.85-1c.4.24.78.51,1.16.78.38-.38.72-.76,1-1.15l1,.88c-.31.38-.63.74-.94,1.08.19.15.38.33.57.48a17.09,17.09,0,0,0,1.11-1.31l1,.87c-.34.46-.7.89-1.08,1.31.34.32.67.65,1,1l-.93,1.14a14,14,0,0,0-1-1.12c-.57.49-1.16,1-1.79,1.42h4Zm-5.49,4.26-.76-1v2.54h1.9l-.73-.93a19.46,19.46,0,0,0,1.85-1.4c-.21-.19-.4-.35-.59-.5A16.6,16.6,0,0,1,75.45,273.48Zm1.25,10c-1.1,0-1.63-.58-1.63-1.72V278h1.76v3.46c0,.24.14.38.44.38h1.46a.61.61,0,0,0,.5-.23,3.41,3.41,0,0,0,.24-1.43l1.66.53a4.47,4.47,0,0,1-.67,2.47,2.32,2.32,0,0,1-1.4.36Zm6.92-1.86-1.56.71a29.67,29.67,0,0,0-1.67-4.14l1.61-.52A29.37,29.37,0,0,1,83.62,281.66Z"/><path d="M85.76,276.55v-1.78h17v1.78H95.45v1.6h5.25v1.75H95.45v1.82c.86.08,1.85.11,3,.11,1.69,0,3.11,0,4.27-.07l-.55,1.86c-1.33,0-2.53,0-3.59,0a20.73,20.73,0,0,1-6.48-.72,5.7,5.7,0,0,1-2.43-2.18,10.8,10.8,0,0,1-2.72,3.19l-1.29-1.66a9.73,9.73,0,0,0,3.46-5.28l1.88.33a16.56,16.56,0,0,1-.61,1.88,4.8,4.8,0,0,0,2.49,2.12l.63.18v-4.89Zm14.46-9.72v6.93H88.33v-6.93Zm-2,2.68v-1h-8v1Zm0,1.55h-8v1h8Z"/><path d="M113.94,266.31v2.07c0,.54,0,1.07-.08,1.56h7.22c-.07,3.38-.19,6.1-.38,8.17a12.21,12.21,0,0,1-1,4.33,2.59,2.59,0,0,1-2.19,1.28h-2.7l-.53-1.92c.8,0,1.54.07,2.26.07,1,0,1.6-.62,1.9-1.84a48.84,48.84,0,0,0,.61-8.15h-5.38a21.51,21.51,0,0,1-1.69,6.59,11.65,11.65,0,0,1-5.53,5.4l-1.06-1.69a10.75,10.75,0,0,0,5.07-5.15,20.65,20.65,0,0,0,1.2-5.15h-5.24v-1.94h5.41c0-.51.06-1,.08-1.56v-2.07Z"/><path d="M141.6,267.09V269h-6.11a22.31,22.31,0,0,1-1.09,2.05v.8a39.66,39.66,0,0,1,7.7,5.55l-1.39,1.65A33.66,33.66,0,0,0,134.4,274v9.92h-2.05v-10a27.83,27.83,0,0,1-6.48,5.25l-1.31-1.73c4.11-2.32,7-5.09,8.67-8.36h-8.08v-1.94Z"/><path d="M149.57,266.94a14.87,14.87,0,0,1-4.79,5.66l-.59-1.9a12,12,0,0,0,3.63-4.6Zm-4.72,10.91-.6-2a12,12,0,0,0,3.59-4.47l1.74.82a13.24,13.24,0,0,1-1.08,1.94v9.59h-2v-7.29C146,277,145.42,277.41,144.85,277.85Zm12.22-4.09v2.38h3.59v1.91h-3.59v3.69a13.45,13.45,0,0,0,1.63.09c1,0,2.07-.05,3.18-.13l-.4,2H159.6c-2.59,0-4.41-.34-5.51-1a5.25,5.25,0,0,1-1.81-2.14,16.82,16.82,0,0,1-1.65,3.51l-1.52-1.37a16.46,16.46,0,0,0,2.26-7.62l1.86.25a21.67,21.67,0,0,1-.34,2.87,5.71,5.71,0,0,0,2,3,.85.85,0,0,0,.17.08v-7.47Zm-5.87,0L150,272.24a13.28,13.28,0,0,0,2.32-6l1.94.34a21.8,21.8,0,0,1-.63,2.64c.63.57,1.28,1.18,1.92,1.84l-1.18,1.79c-.55-.8-1-1.44-1.38-1.9A12.46,12.46,0,0,1,151.2,273.78Zm5.45-.27L155.42,272a12.58,12.58,0,0,0,2.3-5.82l1.93.34a22.75,22.75,0,0,1-.68,2.76c.82.68,1.63,1.42,2.45,2.22l-1.2,1.83c-.78-1-1.42-1.81-1.92-2.36A11.05,11.05,0,0,1,156.65,273.51Z"/><path d="M167.54,272.47a43.34,43.34,0,0,1-2.17,8.89l-1.72-1.08a39.39,39.39,0,0,0,2-8.21Zm3.31,10.77a2,2,0,0,1-2.32-2.3V270.25h2V280.5c0,.54.31.8.93.8h3.23a.77.77,0,0,0,.74-.57,14.21,14.21,0,0,0,.38-3.7l1.88.62c-.15,2.72-.43,4.34-.85,4.85a2.1,2.1,0,0,1-1.77.74Zm4.84-11.95L174,272.43a43.86,43.86,0,0,0-3.78-5.22l1.63-1A39.48,39.48,0,0,1,175.69,271.29Zm5.76,8.51-1.83.84a61.67,61.67,0,0,0-2.92-8.42l1.9-.62A70.36,70.36,0,0,1,181.45,279.8Z"/><path d="M194,273.21a2.53,2.53,0,0,1,0,3.65,2.69,2.69,0,0,1-1.88.74,2.62,2.62,0,0,1-1.88-.74,2.39,2.39,0,0,1-.78-1.83,2.33,2.33,0,0,1,.78-1.82,2.62,2.62,0,0,1,1.88-.74A2.69,2.69,0,0,1,194,273.21Zm-2.78,1a1.12,1.12,0,0,0-.38.87,1.15,1.15,0,0,0,.38.88,1.29,1.29,0,0,0,1.79,0,1.19,1.19,0,0,0,.38-.88,1.15,1.15,0,0,0-.38-.87,1.29,1.29,0,0,0-1.79,0Z"/></svg>