<?xml version="1.0" encoding="utf-8"?>
<!-- Generator: Adobe Illustrator 22.0.1, SVG Export Plug-In . SVG Version: 6.00 Build 0)  -->
<!DOCTYPE svg PUBLIC "-//W3C//DTD SVG 1.1//EN" "http://www.w3.org/Graphics/SVG/1.1/DTD/svg11.dtd">
<svg version="1.1" id="圖層_1" xmlns="http://www.w3.org/2000/svg" xmlns:xlink="http://www.w3.org/1999/xlink" x="0px" y="0px"
	 viewBox="0 0 699.9 651.5" style="enable-background:new 0 0 699.9 651.5;" xml:space="preserve">
<style type="text/css">
	.st0{fill:#D1CCC7;}
	.st1{fill:#F3EEE8;}
	.st2{fill:#9B9A98;}
	.st3{fill:#F3EEE8;stroke:#000000;stroke-width:2;stroke-miterlimit:10;}
	.st4{fill:#D1CCC7;stroke:#D1CCC7;stroke-width:2;stroke-miterlimit:10;}
	.st5{fill:none;}
	.st6{fill:#040000;}
</style>
<path d="M667,174.6c3.4,0.8,6.8,0.4,10.2,0.3c0.8,0,1.5-0.7,1.5-1.5s-0.7-1.5-1.5-1.5h-0.9c-0.8,0-1.5,0.7-1.5,1.5s0.7,1.5,1.5,1.5
	h0.9v-3c-3.1,0-6.3,0.5-9.4-0.2C665.9,171.3,665.1,174.2,667,174.6z"/>
<path d="M666.9,180.6c3.3,0,6.8-0.5,10.1,0.2l0.4-2.9h-0.7c-0.8,0-1.5,0.7-1.5,1.5s0.7,1.5,1.5,1.5h0.7c1.7,0,2.1-2.6,0.4-2.9
	c-3.6-0.8-7.2-0.4-10.9-0.3c-0.8,0-1.5,0.7-1.5,1.5S666,180.6,666.9,180.6L666.9,180.6z"/>
<path d="M660.9,213.7c5.7-0.3,10.5-4.3,11.8-9.8c0.8-3.8-5-5.4-5.8-1.6c-0.5,3-3,5.2-6,5.4C657.1,207.9,657.1,213.9,660.9,213.7
	L660.9,213.7z"/>
<path d="M663.9,224.2c4.9,1.2,10-0.8,12.7-5c2.2-3.2-3-6.2-5.2-3c-1.3,1.9-3.7,2.8-5.9,2.2C661.8,217.4,660.2,223.2,663.9,224.2
	L663.9,224.2z"/>
<rect x="76.8" y="405.1" class="st0" width="538.9" height="231"/>
<path d="M615.7,633.2H85c-2.2,0-5-0.5-7.3,0c-0.3,0-0.6,0-0.9,0l3,3v-231l-3,3h530.7c2.2,0,5,0.5,7.3,0c0.3,0,0.6,0,0.9,0l-3-3v231
	c0,3.9,6,3.9,6,0v-231c0-1.7-1.3-3-3-3H98.6c-6.9,0-14-0.4-20.9,0c-0.3,0-0.6,0-0.9,0c-1.7,0-3,1.3-3,3v231c0,1.7,1.3,3,3,3h517.1
	c6.9,0,14,0.4,20.9,0h0.9C619.6,639.2,619.6,633.2,615.7,633.2z"/>
<rect x="76.8" y="636.2" class="st0" width="538.9" height="12.2"/>
<path d="M615.7,633.2H98.6c-6.9,0-14-0.4-20.9,0c-0.3,0-0.6,0-0.9,0c-1.7,0-3,1.3-3,3v12.2c0,1.7,1.3,3,3,3h517.1
	c6.9,0,14,0.4,20.9,0c0.3,0,0.6,0,0.9,0c1.7,0,3-1.3,3-3v-12.2c0-3.9-6-3.9-6,0v12.2l3-3H85c-2.2,0-5-0.5-7.3,0c-0.3,0-0.6,0-0.9,0
	l3,3v-12.2l-3,3h517.1c6.9,0,14,0.4,20.9,0h0.9C619.6,639.2,619.6,633.2,615.7,633.2z"/>
<path class="st1" d="M423.6,49.2c0,17.4-2.1,46.7,4.3,63.6c2.4,6.3,7.2,0.4,16.9,3.3c6.5,1.9,16.8,1.5,24.1,1.8
	c18.8,0.6,35.7-1.4,54.2,0c12,0.9,31.6,0.8,43.7,1.2c4.1,0.1,21.5,2.8,25.4,1.8c13.1-3.7,8.9-19.4,8.9-28c0-16.8-1.5-33.4-1.5-50.2
	c0-6.3,5.7-25.8-1.3-30.8s-46.8-2.8-56.9-3.4c-11.6-0.6-48.9,0.9-57.2,0.2c0,0-60.4-1.8-61.2,3.6S423.6,49.2,423.6,49.2z"/>
<path d="M420.6,49.2c0,12.5-0.7,24.9-0.1,37.4c0.2,6.1,0.9,12.3,2,18.3c0.8,3.9,1.6,10.2,5.2,12.7c3.4,2.4,8,0.5,11.9,0.6
	c3.1,0.1,6,1.3,9,1.7c3.4,0.4,6.8,0.7,10.2,0.7c15.5,0.4,30.9-0.1,46.3-0.3c14-0.1,28,1.1,42,1.3c10.5,0.2,20.7,0.4,31.1,1.6
	c8.2,0.9,17.8,2.4,23.2-5.5c5.3-7.7,2.6-18.2,2.5-26.9c-0.1-16.2-2.3-32.7-1.5-48.9c0.5-8.8,4-18.1,1.3-26.8
	c-2.2-7.3-9.2-8.1-15.8-8.9c-9.8-1-19.7-0.9-29.5-0.8c-29.4,0.2-58.9,0.2-88.3-0.1c-8.3-0.1-16.5-0.1-24.8,0.2
	c-6.6,0.2-13.8,0.2-20.2,1.9c-5.5,1.5-5.5,5-5.5,10.1c0,8.6,0.3,17.2,0.6,25.8C420.5,45.3,420.5,47.3,420.6,49.2
	c0.1,3.8,6.1,3.9,6,0c-0.2-5.5-0.4-11-0.6-16.5c-0.1-4.2-0.2-8.3-0.3-12.5c0-1.4,0-2.8,0-4.2c0.1-0.7,0.1-1.3,0.1-2
	c-0.3-2.3,0.9-0.5-0.5-0.2c2.9-0.5,9-1.6,13.2-1.9c7.4-0.4,14.8-0.6,22.1-0.6c9.8,0,19.6,0.4,29.5,0.5c17,0.1,34.1-1,51.2-0.4
	c16.2,0.6,32.6-1.2,48.7,1.1c2,0.3,5.1,0.5,6.7,1.9c3.1,2.7,2.1,9.3,1.7,12.9c-0.4,4.2-1.2,8.3-1.7,12.4c-0.7,6-0.1,12.4,0.1,18.4
	c0.5,13.4,0.5,27,1.5,40.4c0.6,7.8,1.2,19.6-9.6,19.6c-7.8,0-15.5-1.8-23.3-2c-12-0.4-23.9-0.2-35.9-0.8
	c-15.9-0.7-31.6-0.6-47.5-0.3c-7.5,0.1-15-0.1-22.4-0.2c-3.9,0-7.7-0.3-11.6-0.9c-2.6-0.5-5.1-1.4-7.9-1.5c-2.5-0.2-5.2,0.8-7.6,0.5
	c-2.7-0.3-2.8-3.1-3.4-5.6c-1.5-6.3-2.4-12.6-2.6-19.1c-0.7-13,0-25.9,0-38.9C426.6,45.3,420.6,45.3,420.6,49.2z"/>
<path class="st1" d="M437.5,26.6c-0.9,11.9-1.6,23.8-2,35.7c-0.2,1,0.1,2.1,0.6,3c0.9,1.2,2.8,1.3,4.3,1.3
	c7.8,0.1,15.6,0.1,23.4-0.2c1.5,0,3.3-0.2,4.3-1.2c0.7-0.9,1-1.9,1-3c1-11.1,1.1-22.3,0.4-33.5c0-0.9-0.3-1.9-0.9-2.6
	c-1-0.7-2.2-1.1-3.4-1C455.9,24.8,446.7,25.3,437.5,26.6"/>
<path d="M434.5,26.6c-0.6,8.2-1.1,16.5-1.6,24.7c-0.2,4.7-2.7,14.1,2.5,17.2c2,1.2,4.7,1,6.9,1.1c3.9,0.1,7.8,0.1,11.7,0
	c4.6,0,12.9,1.4,16.4-2.6c1.4-1.7,1.5-3.7,1.7-5.8c0.4-4.3,0.6-8.5,0.7-12.8c0.1-3.9,0.1-7.9,0-11.8c-0.1-3.2,0.3-7-0.7-10.1
	c-1.6-5.2-7.8-4.6-12.1-4.6c-7.6,0-15.1,0.6-22.6,1.6c-3.8,0.5-3.8,6.5,0,6c4.9-0.6,9.8-1.1,14.7-1.4c2.3-0.1,4.7-0.2,7-0.2
	c1.1,0,2.3,0,3.5,0c1.9,0,2.1-0.3,3.2,1.4c1.5,2.3,1,6.5,1,9.2s0.1,5.3,0,7.9s-0.1,5.3-0.3,7.9c-0.1,1.9,0.3,7.1-0.9,8.4
	s-4.9,0.7-6.8,0.8c-2.6,0.1-5.2,0.1-7.8,0.1c-2.6,0-5.2,0-7.8,0c-3.8,0-4.8,0.5-4.8-3.3c0-11.2,1.1-22.5,2-33.7
	C440.7,22.7,434.7,22.8,434.5,26.6L434.5,26.6z"/>
<path class="st2" d="M444.4,53.5c-0.2,1.6-0.3,3.2-0.3,4.8c0,0.2,0,0.5,0.2,0.7c0.1,0.1,0.3,0.2,0.5,0.2c1.8,0.2,3.5,0.3,5.3,0.3
	c0.3,0,0.5-0.1,0.7-0.2c0.1-0.2,0.2-0.4,0.1-0.6v-4.2c0-0.3,0-0.5-0.2-0.7c-0.1-0.1-0.3-0.2-0.5-0.2c-1.8-0.2-3.6-0.1-5.3,0.3"/>
<path class="st0" d="M444.9,42.2c-0.2,1.6-0.3,3.2-0.3,4.8c0,0.2,0,0.5,0.2,0.7c0.1,0.1,0.3,0.2,0.5,0.2c1.8,0.2,3.5,0.3,5.3,0.3
	c0.3,0,0.5-0.1,0.7-0.2c0.1-0.2,0.2-0.4,0.1-0.6l0-4.2c0-0.3,0-0.5-0.2-0.7c-0.1-0.1-0.3-0.2-0.5-0.2
	C448.8,42,446.8,41.9,444.9,42.2"/>
<path d="M513.2,5.7c-1.2,5.2,1.6,12.3,8,11.4c4.8-0.7,8.8-6.3,7.2-11c-1.3-3.9-5.6-6.2-9.5-6c-4.7,0.2-8,3.9-8.9,8.4
	c-0.7,3.5,0.6,7.1,4.2,8.3c2.9,0.8,6,0.3,8.5-1.3c2.8-1.7,4.6-4.8,3.7-8.1c-1.3-4.8-7-7.3-11-3.9c-4.8,4.1-1.7,12.3,4.6,12.3
	c2.7-0.2,5.1-2.1,5.7-4.7c0.8-2.8,0.2-5.8-1.8-8c-1.4-1.7-4.6-0.8-5,1.3c-0.2,1-0.5,1.9-0.8,2.8c-1,2.8,3,5,5,2.9
	c1.1-0.9,1.6-2.4,1.3-3.8c-0.1-0.6-0.5-1.1-0.9-1.5c-0.2-0.2-0.5-0.4-0.7-0.6c-0.6-0.3-0.3-0.1,0.7,0.8c-1.8-3.4-7-0.4-5.2,3
	c0.2,0.4,0.5,0.7,0.8,0.9c1.1,0.9-0.3-0.5-0.5-1V6.3l0.3-0.6l5,2.9c0.3-0.9,0.6-1.9,0.8-2.8l-5,1.3c0.4,0.6,0.5,1.3,0.3,1.9
	c-0.1,0.2-0.1,0.4-0.3,0.5c-0.5,0.3,0.1,0,0.1-0.1c-1-0.3-1.2-1.9-0.2-1.8c0.5,0,0.8,1.1,0.8,1c0.2,0.5,0.1,0.4,0.1,0.3
	c0,0.3,0-0.1,0-0.1c0,0.2-0.1,0.4-0.2,0.6c0.2-0.7-0.4,0.4,0.1-0.1c-0.2,0.2-0.4,0.4-0.6,0.6s0.4-0.3,0,0c-0.1,0.1-0.3,0.2-0.4,0.3
	s-1.1,0.6-0.6,0.3c-0.3,0.1-0.7,0.2-1,0.3c-0.2,0-0.9,0.2-0.6,0.1c-0.4,0-0.8,0-1.2-0.1c-0.7-0.2,0,0-0.3-0.1s0,0,0,0.1
	s-0.2-0.4,0-0.1c-0.2-0.5-0.2,0.1,0-0.7c0.2-1.2,0.7-3.2,2.3-4c1.3-0.4,2.7-0.2,3.8,0.7c0.5,0.3,0.8,0.8,0.9,1.4
	c0-0.2,0,0.2-0.1,0.4c-0.1,0.4-0.3,0.8-0.6,1.1c-2.3,2.9-3.7-0.1-3.1-2.6C519.8,3.5,514,1.9,513.2,5.7L513.2,5.7z"/>
<path class="st3" d="M503.2,36.3l14.8,26.1l32.8,2.3C550.8,64.7,545.8,26.6,503.2,36.3z"/>
<path class="st0" d="M517.9,62.4l-6.3,32.9c0,0,40.6,2.6,38.6-29.1L517.9,62.4z"/>
<path class="st2" d="M501.6,38l16.3,24.4l-6.3,32.9c0,0-27.1-6.3-27.1-25.9S492.8,40.8,501.6,38z"/>
<path d="M512,31.3c-6.4,1.3-13.2,2.4-18.7,6.2s-9.1,10.1-10.9,16.5c-3.8,13.9-0.2,30,12.6,37.7c6.6,4,14.8,7.3,22.6,7.3
	s16.2-3.3,22.9-7.1c5.9-3.2,10.2-8.8,11.7-15.3c1.5-6.8,2-15.6,0.3-22.4c-2.1-8-9.8-14.4-16.7-18.4C528.6,31.4,520.2,29.8,512,31.3
	c-3.8,0.7-2.2,6.5,1.6,5.8c7.8-1.4,15.4,1.2,21.8,5.6c3.5,2.4,7.3,5.5,9.5,9.2s2.3,7.7,2.3,11.8c0,7.1-0.1,15.2-5.8,20.4
	s-16.2,9-23.8,9s-16.4-3.7-22.4-8.4c-6.4-5-8.3-13.2-8.2-20.9c0.1-7.4,2.7-15.6,8.6-20.5c5-4,11.9-4.9,17.9-6.2
	C517.4,36.2,515.8,30.5,512,31.3L512,31.3z"/>
<path class="st1" d="M519.1,62.3c9.7,1.3,19.5,2.2,29.3,2.7"/>
<path d="M518.3,65.2c10,1.4,20,2.3,30.1,2.8c3.9,0.2,3.8-5.8,0-6c-9.5-0.5-19.1-1.3-28.5-2.6C516.1,58.9,514.5,64.6,518.3,65.2
	L518.3,65.2z"/>
<path class="st1" d="M503.2,38l15.3,24"/>
<path d="M500.6,39.5l15.3,24c2.1,3.2,7.3,0.2,5.2-3l-15.3-24C503.7,33.2,498.5,36.2,500.6,39.5z"/>
<path class="st1" d="M517.9,62.4c-2.6,10.4-4.7,20.9-6.3,31.5"/>
<path d="M515,61.6c-2.6,10.4-4.7,20.9-6.3,31.5c-0.6,3.8,5.2,5.4,5.8,1.6c1.6-10.6,3.7-21.1,6.3-31.5
	C521.7,59.4,515.9,57.8,515,61.6z"/>
<path d="M545.4,44.9c0.8-1.9,1.4-3.9,2.2-5.8l-1.5,1.1c3.8-0.2,7.5,0.2,11.3,0.3c1.9,0,1.9-3,0-3c-3.8-0.1-7.5-0.4-11.3-0.3
	c-0.7,0-1.2,0.5-1.4,1.1c-0.8,1.9-1.4,3.9-2.2,5.8S544.7,46.6,545.4,44.9z"/>
<path d="M565.5,37c6.5,0.9,13,0.3,19.5,0.3c0.8,0,1.5-0.7,1.5-1.5s-0.7-1.5-1.5-1.5h-1.8c-0.8,0-1.5,0.7-1.5,1.5s0.7,1.5,1.5,1.5
	h1.7v-3c-6.5,0-13,0.5-19.5-0.3C563.6,33.8,563.6,36.8,565.5,37L565.5,37z"/>
<path d="M564.4,43.8c7,0,13.9-0.5,20.9,0.3v-3h-1.5c-0.8,0-1.5,0.7-1.5,1.5s0.7,1.5,1.5,1.5h1.5c2,0,1.9-2.8,0-3
	c-6.9-0.8-13.9-0.3-20.9-0.3c-0.8,0-1.5,0.7-1.5,1.5S563.6,43.8,564.4,43.8z"/>
<path d="M564.4,50.4c7,0,13.9-0.5,20.9,0.3v-3h-1.5c-0.8,0-1.5,0.7-1.5,1.5s0.7,1.5,1.5,1.5h1.5c2,0,1.9-2.8,0-3
	c-6.9-0.8-13.9-0.3-20.9-0.3c-0.8,0-1.5,0.7-1.5,1.5S563.6,50.4,564.4,50.4z"/>
<path d="M560,88.2c6.5,0.9,13,0.3,19.5,0.3c0.8,0,1.5-0.7,1.5-1.5s-0.7-1.5-1.5-1.5h-1.7c-0.8,0-1.5,0.7-1.5,1.5s0.7,1.5,1.5,1.5
	h1.7v-3c-6.5,0-13,0.6-19.5-0.3C558.1,84.9,558.1,87.9,560,88.2z"/>
<path d="M558.9,95c7,0,13.9-0.5,20.9,0.3v-3h-1.5c-0.8,0-1.5,0.7-1.5,1.5s0.7,1.5,1.5,1.5h1.5c2,0,1.9-2.8,0-3
	c-6.9-0.8-13.9-0.3-20.9-0.3c-0.8,0-1.5,0.7-1.5,1.5S558.1,95,558.9,95z"/>
<path d="M558.9,101.6c7,0,13.9-0.5,20.9,0.3v-3h-1.5c-0.8,0-1.5,0.7-1.5,1.5s0.7,1.5,1.5,1.5h1.5c2,0,1.9-2.8,0-3
	c-6.9-0.8-13.9-0.3-20.9-0.3c-0.8,0-1.5,0.7-1.5,1.5S558.1,101.6,558.9,101.6z"/>
<path d="M457,84.4c6.5,0.9,13,0.3,19.5,0.3c0.8,0,1.5-0.7,1.5-1.5s-0.7-1.5-1.5-1.5h-1.8c-0.8,0-1.5,0.7-1.5,1.5s0.7,1.5,1.5,1.5
	h1.8v-3c-6.5,0-13,0.6-19.5-0.3C455.1,81.2,455.1,84.2,457,84.4z"/>
<path d="M455.9,91.2c7,0,13.9-0.5,20.9,0.3v-3h-1.5c-0.8,0-1.5,0.7-1.5,1.5s0.7,1.5,1.5,1.5h1.5c2,0,1.9-2.8,0-3
	c-6.9-0.8-13.9-0.3-20.9-0.3c-0.8,0-1.5,0.7-1.5,1.5S455.1,91.2,455.9,91.2L455.9,91.2z"/>
<path d="M455.9,96.7c7,0,13.9-0.5,20.9,0.3v-3h-1.5c-0.8,0-1.5,0.7-1.5,1.5s0.7,1.5,1.5,1.5h1.5c2,0,1.9-2.8,0-3
	c-6.9-0.8-13.9-0.3-20.9-0.3c-0.8,0-1.5,0.7-1.5,1.5S455.1,96.7,455.9,96.7L455.9,96.7z"/>
<path d="M540,90.9c0.8,1.9,1.4,3.9,2.2,5.8c0.2,0.6,0.8,1.1,1.4,1.1c3.8,0.2,7.5-0.2,11.3-0.3c1.9,0,1.9-3,0-3
	c-3.8,0.1-7.5,0.4-11.3,0.3l1.5,1.1c-0.8-1.9-1.4-3.9-2.2-5.8C542.2,88.3,539.3,89.1,540,90.9z"/>
<path d="M469.6,79.2l5-7.4l-1.3,0.8h11.5c0.8,0,1.5-0.7,1.5-1.5s-0.7-1.5-1.5-1.5l0,0h-5.4c-1.8,0-4.2-0.4-6,0
	c-1.5,0.3-2.1,1.9-3,3.2l-3.4,5C465.9,79.3,468.5,80.8,469.6,79.2L469.6,79.2z"/>
<path d="M443.8,30.9c-0.2,1.5-0.3,3-0.3,4.6c-0.1,1.1,0.5,2.1,1.5,2.5c1.3,0.3,2.7,0.4,4.1,0.4c1.2,0,2.9,0.3,3.8-0.8
	c0.7-0.9,0.5-2.5,0.5-3.6s0.3-2.7-0.5-3.7s-2.1-0.9-3.1-0.9c-1.5,0-2.9,0.1-4.3,0.5c-1.9,0.4-1.1,3.3,0.8,2.9
	c0.8-0.2,1.7-0.3,2.5-0.4h1h0.5c0.5,0.2,0.6,0.1,0.3-0.2c-0.3-0.9-0.2,0.7-0.2,0.8v2.8c-0.1,0.5,0.1,0.4,0.6-0.4
	c0-0.1-4.8-0.2-4.8-0.2c0.2,0.7,0.3,0.8,0.3,0.3c0-0.2,0-0.4,0-0.5c0-0.5,0-0.9,0-1.3c0-0.9,0.1-1.8,0.2-2.7
	C447,29,444,29,443.8,30.9L443.8,30.9z"/>
<path d="M455.5,36.3h7.7c0.8,0,1.5-0.7,1.5-1.5s-0.7-1.5-1.5-1.5h-7.7c-0.8,0-1.5,0.7-1.5,1.5S454.7,36.3,455.5,36.3z"/>
<path d="M443.4,42.2c-0.2,1.6-0.3,3.2-0.3,4.8c-0.1,1.1,0.7,2.1,1.8,2.3c1.5,0.3,3.1,0.4,4.6,0.3c1.2,0,2.6,0,3.2-1.2
	s0.3-2.7,0.3-3.9s0.2-2.7-1-3.4c-1.1-0.4-2.3-0.6-3.4-0.6c-1.3-0.1-2.7-0.1-4,0.2c-1.9,0.4-1.1,3.3,0.8,2.9c1.4-0.2,2.9-0.2,4.3,0
	l0.6,0.1c0.4,0.1,0.3-0.1-0.2-0.5c0,0.3,0,0.7,0,1v1.6c0,0.3-0.2,1,0,1.3c-0.1,0.4,0,0.4,0.3-0.1c0.5-0.4,0.4-0.5-0.2-0.3
	c-0.4,0-0.9,0-1.3,0c-0.4,0-0.9,0-1.3-0.1s-1-0.2-1.3-0.1c-0.3-0.1-0.4,0-0.1,0.3c0.2,0.5,0.2,0.4,0.1-0.2c0-0.4,0.1-0.9,0-1.3
	c0-1,0.1-2,0.3-3c0.2-1.9-2.8-1.9-3,0L443.4,42.2z"/>
<path d="M455.1,47.6h7.7c0.8,0,1.5-0.7,1.5-1.5s-0.7-1.5-1.5-1.5h-7.7c-0.8,0-1.5,0.7-1.5,1.5S454.2,47.6,455.1,47.6z"/>
<path d="M442.9,53.5c-0.2,1.5-0.3,3-0.3,4.6c-0.1,1.1,0.5,2.1,1.5,2.5c1.3,0.3,2.7,0.4,4.1,0.4c1.2,0,2.9,0.3,3.8-0.8
	c0.7-0.9,0.5-2.5,0.5-3.6s0.3-2.7-0.5-3.7s-2.1-0.8-3.1-0.9c-1.5,0-2.9,0.1-4.3,0.5c-1.9,0.4-1.1,3.3,0.8,2.9
	c0.8-0.2,1.7-0.3,2.5-0.4h1h0.5c0.5,0.2,0.6,0.1,0.3-0.2c-0.3-0.9-0.2,0.7-0.2,0.8v2.8c-0.1,0.6,0.1,0.4,0.6-0.4
	c0-0.1-4.8-0.2-4.8-0.2c0.2,0.7,0.3,0.8,0.3,0.3c0-0.2,0-0.4,0-0.5c0-0.5,0-0.9,0-1.3c0-0.9,0.1-1.8,0.2-2.7
	C446.2,51.6,443.2,51.6,442.9,53.5L442.9,53.5z"/>
<path d="M454.6,58.9h7.7c0.8,0,1.5-0.7,1.5-1.5s-0.7-1.5-1.5-1.5h-7.7c-0.8,0-1.5,0.7-1.5,1.5S453.8,58.9,454.6,58.9z"/>
<path d="M193,452h306.6c28.6,0,51.7,23.2,51.7,51.7v0c0,28.6-23.2,51.7-51.7,51.7H193c-28.6,0-51.7-23.2-51.7-51.7v0
	C141.2,475.2,164.4,452,193,452z"/>
<path class="st4" d="M394.7,210.1c5.2,10.7,8.6,22.1,10,33.8c0,0,46.5,4.1,57.3,37.3s29,63.8-6.7,95.5c-2.5,2.2-4.7,4.3-6.7,6.4h53
	C501.6,383.1,502.6,222.4,394.7,210.1z"/>
<path class="st4" d="M263.3,354.4c-3.8-25.1-8.5-66.5,47.4-103.2c0,0,7.2-0.4,6.2-9.2c-0.5-4.9-2.3-15.5,1-25.7
	c-64.6,17.2-74.6,68-87.3,166.9h59C278.9,378.1,265.5,369.1,263.3,354.4z"/>
<path class="st0" d="M606.2,240.2c0.6,12.1,9.3,14.7,19.6,16.2c10.6,1.6,24.4,2,33.5-4.8c5.1-3.8,3.8-13.3,1.6-18.3
	c-5.2,3.1-7.9,8.2-14.2,10.3c-4.9,1.8-10,2.8-15.2,3.1c-5.6,0.2-10.7-1.6-15.8-3.7c-3.6-1.5-8.7-5.3-11.6-5.7"/>
<path d="M569.6,203.6c0,18.8-0.8,37.6-0.3,56.4c0.1,9,0.8,17.9,2,26.8c0.7,4.8,0.4,12.1,5,15c8,5,16.8,4.5,25.9,4.9
	c12.6,0.6,25.2,0.8,37.8,2.3c9.7,1.1,19.6,0.9,29.3,1.4c6.5,0.3,13.2,3.7,19.7,2.7c14.4-2.2,10.5-28.4,10.3-38
	c-0.3-12.7-0.3-25.4-0.6-38c-0.3-11.2-0.8-22.4-0.4-33.6c0.5-13.7,2.1-27.3,1.4-41c-0.2-4.4-0.3-10.4-3.3-14
	c-3.5-4.2-10.7-4.6-15.7-5c-8-0.6-16-0.2-24-0.2c-5.7,0-11.3-0.4-17-0.3c-8.3,0.1-16.6,0.4-25,0.5c-5.8,0.1-12,0.7-17.8-0.1
	c-3.8-0.5-3.8,5.5,0,6c11,1.4,22.9,0,33.9-0.3c10.1-0.2,20.3,0.2,30.4,0.1c7-0.1,14-0.3,21,0.4c4.8,0.5,9.5,0.8,10.6,6
	c2.6,12.2,0.6,26.1-0.1,38.5c-1.1,17.6-0.3,35.2,0.1,52.8c0.2,10.3,0.1,20.7,0.5,31c0.3,7.5,1.2,15.7-0.9,23.1
	c-0.7,2.4-1.9,5.6-4.6,6.2c-3.2,0.7-7.9-1-11.1-1.7c-7.1-1.5-14.3-1.3-21.5-1.5c-9.8-0.3-19.5-1.7-29.3-2.3
	c-11.1-0.7-22.3-0.9-33.4-1.4c-4-0.2-10.5-0.7-13.5-3.9c0.2,0.2-0.1-0.4-0.3-1.3c-0.2-1.8-0.6-3.6-0.9-5.4
	c-1.5-9.1-2.4-18.3-2.5-27.5c-0.6-19.5,0.2-39.1,0.2-58.6C575.6,199.8,569.6,199.8,569.6,203.6L569.6,203.6z"/>
<path d="M626.6,141.2c-1.2,5.2,1.6,12.3,8,11.4c4.8-0.7,8.8-6.3,7.2-11c-1.3-3.9-5.6-6.2-9.5-6c-4.7,0.2-8,3.9-8.9,8.4
	c-0.7,3.5,0.6,7.1,4.2,8.3c2.9,0.8,6,0.3,8.5-1.3c2.8-1.7,4.6-4.8,3.7-8.1c-1.3-4.8-7-7.3-11-3.9c-4.8,4.1-1.7,12.3,4.6,12.3
	c2.7-0.2,5-2.1,5.7-4.7c0.8-2.8,0.2-5.8-1.8-8c-1.4-1.7-4.6-0.8-5,1.3c-0.2,1-0.5,1.9-0.8,2.8c-1.1,2.8,3,5,5,2.9
	c1.1-0.9,1.6-2.4,1.3-3.8c-0.2-0.6-0.5-1.1-0.9-1.5c-0.2-0.2-0.4-0.4-0.7-0.6c-0.6-0.3-0.3-0.1,0.6,0.8c-1.8-3.4-7-0.4-5.2,3
	c0.2,0.4,0.5,0.7,0.8,0.9c1.1,0.9-0.3-0.5-0.4-1v-1.6l0.3-0.6l5,2.9c0.4-0.9,0.6-1.9,0.8-2.8l-5,1.3c0.4,0.6,0.5,1.3,0.3,1.9
	c-0.1,0.2-0.1,0.4-0.3,0.5c-0.5,0.3,0.1,0,0.1-0.1c-1-0.3-1.2-1.9-0.2-1.8c0.5,0,0.8,1.1,0.8,1c0.2,0.5,0.1,0.4,0.1,0.3
	c0,0.3,0-0.1,0-0.1c0,0.2-0.1,0.4-0.2,0.6c0.2-0.7-0.4,0.4,0.1-0.1c-0.2,0.2-0.4,0.4-0.6,0.6s0.4-0.3,0,0c-0.1,0.1-0.3,0.2-0.4,0.3
	c-0.1,0.1-1.1,0.6-0.6,0.3c-0.3,0.1-0.7,0.2-1,0.3c-0.2,0-0.9,0.2-0.6,0.1c-0.4,0-0.8,0-1.2-0.1c-0.7-0.2,0-0.1-0.3-0.1s0,0,0,0.1
	s-0.2-0.4,0-0.1c-0.2-0.5-0.2,0.1,0-0.7c0.2-1.2,0.7-3.2,2.3-4c1.3-0.4,2.7-0.2,3.8,0.7c0.5,0.3,0.8,0.8,0.9,1.4
	c0-0.2,0,0.2-0.1,0.4c-0.1,0.4-0.3,0.8-0.6,1.1c-2.3,2.9-3.7-0.1-3.1-2.6C633.3,139,627.5,137.4,626.6,141.2L626.6,141.2z"/>
<circle cx="629.3" cy="223.7" r="12.8"/>
<path d="M600.8,230.4c-0.3-6.6,5.4-12.2,10.2-16c5.9-4.6,13.2-7.2,20.7-7.2c7.5,0,14.9,1.4,21.9,4.1c2.7,1,7.1,2.1,7.5,5.4
	c0.3,2.8-1.8,6.8-2.9,9.2c-4.5,9.4-9.9,16.5-20.7,18.4c-14.9,2.6-29.8-1.4-37.1-15.4c-1.8-3.4-7-0.4-5.2,3
	c6.6,12.7,19.1,19.1,33.2,19.1c11.6,0,22.7-2.9,29.7-12.7c4.5-6.3,13.8-21.2,6.5-28c-4.3-4-12.2-6-17.8-7.4
	c-7.6-1.9-15.5-2.2-23.3-0.8c-12.3,2.4-29.2,14.2-28.7,28.3C594.9,234.2,600.9,234.2,600.8,230.4L600.8,230.4z"/>
<path class="st1" d="M520.3,113.2c0,30-5.2,57.6-3.8,87.5c23.3,6.1,53.7,2.6,78.3,1.9c0.7-17.1,0.1-35.6,0.1-53.1
	c0-12,1.7-30.2-12.3-33.7C564.1,111.1,539.7,113.2,520.3,113.2l3.5,0"/>
<path d="M517.3,113.2c-0.1,29.2-5,58.2-3.8,87.5c0,1.3,0.9,2.5,2.2,2.9c25.8,6.4,52.9,2.8,79.1,2c1.6,0,3-1.4,3-3
	c0.7-17.1,0.1-34.2,0.1-51.2c0-9.7,1.3-20.7-3.4-29.6c-5.4-10.4-18.8-10.8-29.2-11.5c-15-1.1-30-0.1-45,0c-3.9,0-3.9,6,0,6h3.5
	c3.9,0,3.9-6,0-6h-3.5v6c13.3,0,26.6-0.8,40-0.2c10,0.4,26-0.3,29.9,11.1c3.2,9.3,1.6,20.4,1.7,30c0.1,15.2,0.5,30.4-0.1,45.6l3-3
	c-25.6,0.8-52.3,4.5-77.5-1.8l2.2,2.9c-1.2-29.3,3.7-58.3,3.8-87.5C523.3,109.3,517.3,109.3,517.3,113.2L517.3,113.2z"/>
<path d="M531.4,187.3c13.6-0.7,27,2.5,40.6,2.5c0.8,0,1.5-0.7,1.5-1.5s-0.7-1.5-1.5-1.5h-0.2c-0.8,0-1.5,0.7-1.5,1.5
	s0.7,1.5,1.5,1.5h0.2v-3c-13.5,0-27-3.2-40.6-2.5C529.5,184.4,529.5,187.4,531.4,187.3L531.4,187.3z"/>
<path d="M531.6,179.5c2.5-0.8,5.7-0.3,8.3-0.3c4.1,0.1,8.2,0.1,12.3,0.3c7,0.4,14.4-0.2,21.2,1.5c1.9,0.5,2.7-2.4,0.8-2.9
	c-7.1-1.8-14.8-1.3-22-1.6c-4.4-0.2-8.8-0.2-13.2-0.3c-2.7,0-5.5-0.5-8.1,0.4C529,177.2,529.8,180.1,531.6,179.5L531.6,179.5z"/>
<path d="M528.5,165.5c9.6,1.4,19.3,1.1,28.9,1.5c7.6,0.3,15.4,1,23-0.1c1.9-0.3,1.1-3.2-0.8-2.9c-7.3,1.1-14.9,0.3-22.2,0
	c-9.4-0.4-18.8-0.1-28.1-1.4C527.4,162.4,526.6,165.3,528.5,165.5L528.5,165.5z"/>
<path d="M542.4,164.3c1-2.8-0.3-10-0.4-14.7c-2.8-0.2-5.6-0.4-8,1.6c0.2,4.2-0.2,9.3,0.7,13.4C534.6,164.6,542.1,165.1,542.4,164.3z
	"/>
<path d="M543.8,164.7c1.3-4.7-0.2-10.2-0.4-15.1c0-0.8-0.7-1.5-1.5-1.5c-2.8-0.2-8.6-0.5-9.5,3.1c-0.5,1.8,0,4.8,0.1,6.8
	c0,2.3,0.3,4.7,0.7,7c0.2,0.6,0.8,1.1,1.4,1.1c2.2,0.1,7.2,1.1,8.8-0.7c1.3-1.4-0.8-3.6-2.1-2.1c-0.5,0.6-5.5-0.1-6.7-0.2l1.5,1.1
	c-0.9-4.3-0.5-8.7-0.7-13l-0.7,1.3c2.3-1.6,4.6-1.6,7.3-1.4l-1.5-1.5c0.1,4.5,1.8,9.9,0.5,14.3c-0.2,0.8,0.3,1.6,1.1,1.8
	C542.8,165.9,543.6,165.5,543.8,164.7z"/>
<path d="M558,164.9c1.4-8.8,0.4-19.8-0.3-25.2c-2.1-0.4-5.3,0.8-7.5,0.9c-1.9,7.5,0,16.2-1.2,24.1C549,164.6,557.9,165.8,558,164.9z
	"/>
<path d="M559.4,165.3c1.2-8.5,0.7-17.1-0.2-25.6c0-0.8-0.7-1.5-1.5-1.5c-2.6-0.2-5,0.6-7.5,0.9c-0.7,0-1.3,0.5-1.4,1.1
	c-1.7,8.1-0.2,16.3-1.2,24.4c-0.1,0.9,0.8,1.4,1.5,1.5c2.5,0.3,8,1.9,10-0.1c0.6-0.6,0.5-1.6-0.1-2.1c-0.6-0.5-1.5-0.5-2,0
	c-0.7,0.7-6.7-0.6-7.9-0.7l1.5,1.5c1-7.9-0.5-15.9,1.1-23.7l-1.5,1.1c2.5-0.3,5-1.1,7.5-0.9l-1.5-1.5c0.9,8.2,1.4,16.6,0.3,24.8
	C556.3,166.4,559.2,167.2,559.4,165.3z"/>
<path d="M571.6,166.4c2.1-0.8,1.3-21.8,1.4-32.4c-1.6,0.4-7.1,0.7-8.2,1.9c-1.3,1.3-0.6,6.3-0.5,7.8c0.3,7.3,1,15.2-0.3,22.5
	C564,166.2,568.5,167.7,571.6,166.4z"/>
<path d="M572.4,167.7c2.8-2,2.1-8.5,2.1-11.4c0.2-7.4-0.1-14.9,0-22.3c0-0.8-0.7-1.5-1.6-1.5c-0.1,0-0.2,0-0.3,0
	c-4.6,0.9-9.6,0.3-10,6c-0.7,9.1,1.5,18.1,0,27.3c-0.2,0.8,0.2,1.6,1,1.8c2.7,0.9,5.7,1,8.5,0.2c0.8-0.2,1.2-1.1,1-1.9
	c-0.2-0.8-1-1.2-1.8-1c-2.3,0.6-4.6,0.5-6.8-0.2l1,1.8c1.2-7.3,0.9-14.6,0.4-22c-0.1-2-1.2-6.4,0.6-7.9c1.4-1.1,5.2-0.9,6.9-1.2
	l-1.9-1.4c0,6,0.1,12,0.1,18c0,2,0.6,12.2-0.7,13.1C569.3,166.3,570.8,168.9,572.4,167.7z"/>
<path d="M545,108.7c-0.8,4.2-0.9,9.6,1.9,13.1c3.6,4.5,9.8,1.8,12.9-1.9c3-3.7,3.1-9,0.2-12.8c-2.7-3.7-7.7-5.7-11.9-3.4
	c-3.8,2.1-6.6,7.3-5.1,11.6c1.3,3.6,5.2,5.5,8.8,5.2c3.9-0.3,7.3-3,7.4-7.1c0.2-5.6-4.3-9.9-9.7-7.2c-1.9,1-4.5,2.8-4.8,5.1
	c-0.1,2.1,1,4.1,2.9,5c2,1.2,4.6,0.9,6.3-0.8c1.9-2,2.8-6.9,0.2-8.6c-2.8-1.8-5.2,1.6-4.1,4.1c0.5,1.3,2.2,3.5,3.6,3.8
	c1.6,0.4,3.2-0.5,3.7-2.1c0.1-0.5,0.1-1.1,0-1.6v-0.1l-0.3,2.3c1.2-1.3,1.5-3.2,0.8-4.9c-0.3-0.6-0.8-1.1-1.4-1.5
	c-0.4-0.3-0.7-0.7-0.4-0.2c-1.9-3.4-7-0.4-5.2,3c0.3,0.6,1.3,1.8,2.1,2c0.5,0.4,0.5,0.1-0.2-1c-0.2-1.3-0.5-1.5-0.9-0.6
	c-0.4,0.7-0.5,1.6-0.3,2.4l3.7-3.7c2.1,0.4,1.2,1.1,0.9,0.3c0.1,0.3-0.2-0.2-0.2-0.3c-0.3-0.3-0.5-0.6-0.7-1l-4.1,4.1l0,0l-1.5-2.6
	c0,0-0.1,1.9-0.1,1.9c0.3,0.4-0.5-0.1,0.1-0.1l0.5-0.3c0.2-0.1,0.5,0.1,0.7,0c-0.7,0.3,0.3-0.2,0,0.1s-0.5-0.7-0.2,0
	c-0.3-0.6,0.4,2.2-0.3,1.7c0,0,0.7-0.7,1-0.9c0.6-0.4,1.2-0.7,1.8-0.8c0,0.1-0.6-0.2-0.7-0.3s0.3,0.4,0.3,0.3c0.1,0.5,0.2,1,0.4,1.5
	c0.1,0.7-0.1,0.9-0.3,1.2c-0.1,0.1-0.4,0.3,0,0c-0.1,0.1-0.3,0.2-0.5,0.3c0.5-0.2-0.5,0.1-0.7,0.2c-0.5,0.1,0.7,0-0.2,0H551
	c-0.8,0-1.5-0.3-2.1-0.8c0.2,0.2-0.3-0.5-0.2-0.1c-0.2-0.6-0.2-0.2-0.2-0.9c0.1-1.2,1.5-3.6,3.2-3.9c0.6-0.1,1.1,0.1,1.6,0.3
	c0.8,0.4,1.5,1.1,2,1.9c1.1,1.5,1,3.5-0.1,5c-0.8,1.1-2,2-3.3,2.4c-0.2,0-0.5-0.1-0.2,0c-0.2-0.2-0.4-0.5-0.5-0.8
	c-0.9-2-0.8-4.9-0.4-7.2C551.5,106.5,545.8,104.9,545,108.7L545,108.7z"/>
<path d="M636.9,200.7c3.3-8,5.8-16.3,9-24.4l-1.5,1.1c4.5-0.1,9,0.1,13.5,0.2c1.9,0,1.9-3,0-3c-4.5-0.1-9-0.4-13.5-0.2
	c-0.7,0-1.2,0.5-1.4,1.1c-3.2,8-5.7,16.4-9,24.4C633.3,201.7,636.2,202.4,636.9,200.7L636.9,200.7z"/>
<path d="M633.9,237.6c5.4,7.9,8.1,17.5,12.5,25.9l2.6-1.5c-0.7-1.3-1.4-2.5-2.3-3.7c-1.2-1.5-3.8,0-2.6,1.5c0.8,1.2,1.6,2.4,2.3,3.7
	c0.4,0.7,1.3,1,2.1,0.5c0.7-0.4,1-1.3,0.5-2.1l0,0c-4.5-8.4-7.2-18-12.5-25.9C635.4,234.5,632.8,236,633.9,237.6L633.9,237.6z"/>
<path d="M646,272.2c6.4,0,12.8-0.3,19.2-0.3c0.8,0,1.5-0.7,1.5-1.5s-0.7-1.5-1.5-1.5c-6.4,0-12.8,0.2-19.2,0.3
	c-0.8,0-1.5,0.7-1.5,1.5S645.2,272.2,646,272.2z"/>
<path d="M646.3,278.5c7.1-0.2,14.1,0.1,21.1,0.8c1.9,0.3,1.9-2.8,0-3c-7-0.7-14.1-1-21.1-0.8c-0.8,0-1.5,0.7-1.5,1.5
	S645.5,278.5,646.3,278.5z"/>
<path d="M607.7,256.5c10.4,5.2,22,7.4,33.5,6.2c7.2-0.7,18.8-2,22.3-9.5c1.6-3.5-3.6-6.5-5.2-3c-2.8,6-15,6.5-20.5,6.7
	c-9.4,0.5-18.7-1.5-27.1-5.6C607.2,249.6,604.2,254.8,607.7,256.5L607.7,256.5z"/>
<path d="M608.7,259.7c-2.6,2-5.5,3.7-7.3,6.5c-1.1,1.6,1.5,3.1,2.6,1.5c1.5-2.3,4.1-3.8,6.2-5.4
	C611.7,261.1,610.2,258.5,608.7,259.7z"/>
<path d="M588.9,273c6.2,0,12.3,0.5,18.4,0.5c0.8,0,1.5-0.7,1.5-1.5s-0.7-1.5-1.5-1.5c-6.1,0-12.3-0.5-18.4-0.5
	c-0.8,0-1.5,0.7-1.5,1.5S588.1,273,588.9,273z"/>
<path d="M588.9,279.9c6.2,0,12.3,0.5,18.4,0.5c0.8,0,1.5-0.7,1.5-1.5s-0.7-1.5-1.5-1.5c-6.1,0-12.3-0.5-18.4-0.5
	c-0.8,0-1.5,0.7-1.5,1.5S588.1,279.9,588.9,279.9z"/>
<circle cx="369.8" cy="230.1" r="2.7"/>
<path d="M368,224.9c2.6-0.3,6.3-0.6,7.8,2.2c2.3,4.4-2.8,7.5-6.5,7.2c-1.5,0-2.9-0.3-4.2-0.9c-1.2-0.8-1.5-2.1-1.4-3.6
	c0.3-2.5,2.2-4.6,4.7-5c1.9-0.4,1.1-3.3-0.8-2.9c-4.2,0.9-7.2,4.8-6.9,9.1c0.3,5.2,5.1,6.5,9.7,6.3c5.1-0.1,9.5-4.2,8.7-9.5
	c-0.8-5.5-6.5-6.6-11.1-6C366.1,222.2,366.1,225.2,368,224.9z"/>
<path d="M341.2,224.9c2.6-0.3,6.3-0.6,7.8,2.2c2.3,4.4-2.8,7.5-6.6,7.2c-1.5,0-2.9-0.3-4.2-0.9c-1.2-0.8-1.5-2.1-1.4-3.6
	c0.3-2.5,2.2-4.6,4.7-5c1.9-0.4,1.1-3.3-0.8-2.9c-4.2,0.9-7.2,4.8-6.9,9.1c0.3,5.2,5.1,6.5,9.7,6.3c5.1-0.1,9.5-4.2,8.7-9.5
	c-0.8-5.5-6.5-6.6-11.1-6C339.3,222.2,339.3,225.2,341.2,224.9z"/>
<circle cx="343.1" cy="230.1" r="2.7"/>
<path d="M366.6,213c-0.9-0.1-1.9,0.1-2.6,0.7c-0.8,0.8-1,2-0.5,3c0.8,1.4,2.9,1.4,4.3,1.1c1.8-0.4,3.8-2.4,2.1-4.2
	c-1.4-1.3-3.6-1.3-5.1-0.1c-1,1-0.2,2.6,0.9,3.1c1.1,0.5,2.4,0.3,3.2-0.5c0.6-0.6,0.6-1.6,0-2.1c-0.2-0.2-0.4-0.3-0.6-0.4l-0.2-0.1
	c-0.8-0.2-1.6,0.3-1.9,1.1c-0.2,0.8,0.3,1.6,1,1.9l0.2,0.1l-0.7-2.5c0-0.1,0.1-0.1,0.2-0.1s0,0,0,0s0.1,0.1,0,0
	c-0.1-0.3,0.4,0.8,0.3,0.3l-0.4,1.5c0.1-0.1,0.1-0.1,0,0c-0.1,0.1-0.1,0.1,0,0c0.1,0,0.2,0,0.3,0h0.4h0.2c0.2,0.1,0.2,0.1,0,0
	c0.1,0.1,0.1,0.1,0,0c-0.2-0.2-0.2-0.5-0.1-0.8c0.2-0.3,0.3-0.4,0.1-0.3l0,0c-0.2,0.1-0.5,0.3-0.6,0.3c0.2,0-0.2,0-0.2,0
	s-0.3,0-0.5,0s-0.3,0-0.4,0h-0.1c0.2,0,0.1,0,0,0s-0.2,0,0,0c0.2,0,0.3,0.2,0.4,0.3c0.3,0.5,0,0.5-0.2,0.8c-0.1,0.1-0.3,0,0,0
	c0.2,0,0.4,0,0.7,0c0.8,0,1.5-0.7,1.5-1.5S367.4,212.9,366.6,213L366.6,213z"/>
<path d="M346.7,213c-0.9-0.1-1.9,0.1-2.6,0.7c-0.8,0.8-1,2-0.5,3c0.8,1.4,2.9,1.4,4.3,1.1c1.8-0.4,3.8-2.4,2.1-4.2
	c-1.4-1.3-3.6-1.3-5.1-0.1c-1,1-0.2,2.6,0.9,3.1c1.1,0.5,2.3,0.3,3.2-0.5c0.6-0.6,0.6-1.6,0-2.1c-0.2-0.2-0.4-0.3-0.6-0.4l-0.2-0.1
	c-0.8-0.2-1.6,0.3-1.8,1.1c-0.2,0.8,0.3,1.6,1,1.9l0.2,0.1l-0.7-2.5c0-0.1,0.1-0.1,0.2-0.1s0,0,0,0s0.1,0.1,0,0
	c-0.1-0.3,0.4,0.8,0.3,0.3l-0.4,1.5c0.1-0.1,0.1-0.1,0,0c-0.1,0.1-0.1,0.1,0,0c0.1,0,0.2,0,0.3,0h0.4h0.2c0.2,0.1,0.2,0.1,0,0
	c0.1,0.1,0.1,0.1,0,0c-0.2-0.2-0.2-0.5-0.1-0.8c0.2-0.3,0.3-0.4,0.1-0.3c-0.1,0.1-0.1,0.1,0,0c-0.2,0.1-0.5,0.3-0.6,0.3
	c0.2,0-0.2,0-0.2,0h-0.5c-0.1,0-0.3,0-0.4,0H346c0.2,0,0.2,0,0,0s-0.2,0,0,0c0.2,0,0.3,0.2,0.4,0.3c0.3,0.5,0,0.5-0.2,0.8
	c-0.1,0.1-0.3,0,0,0c0.2,0,0.4,0,0.7,0c0.8,0,1.5-0.7,1.5-1.5S347.6,213,346.7,213L346.7,213z"/>
<path d="M352.6,228.3c-0.6,2.5-2,7.2,0.7,9c2.5,1.6,6.1,0,5.7-3.2c0-0.7-0.5-1.2-1.1-1.4h-0.1c-1.9-0.4-2.7,2.5-0.8,2.9h0.1
	l-1.1-1.4c0.1,0.5-0.3,1.1-0.9,0.7c-0.4-0.3-0.3-1.1-0.3-1.6c0-1.4,0.3-2.8,0.6-4.1C356,227.2,353.1,226.4,352.6,228.3L352.6,228.3z
	"/>
<path d="M342.7,244.5c8.8-2.2,19.1-1.6,28.1-1.6c0.8,0,1.5-0.7,1.5-1.5s-0.7-1.5-1.5-1.5c-9.3,0-19.8-0.6-28.9,1.7
	C340,242,340.8,244.9,342.7,244.5z"/>
<path d="M319.9,254.9c0-4.9,0.4-9.9-0.1-14.7c-0.6-4.6-0.9-9.2-1-13.8c0.1-9.9,5-18,12.9-23.7c7.2-5.2,17.7-8.1,26.5-8.5
	c4.7-0.3,9.3-0.3,14,0c4.4,0.2,9.1,2.9,12.8,5.3s6.6,6.7,8.5,10.5c1.2,2.4,1.5,5,2.4,7.5c0.8,1.9,1.9,3.7,2.6,5.7
	c1.3,3.8,1.1,8.4,2,12.4c0.7,3.1,0.1,7.4,1.9,10.1c2.1,3.2,7.8,4.1,11.2,5c2.7,0.8,5.5,1.4,8.2,2.2c1.3,0.4,3.9,0.8,4.9,1.6
	c3,2.5,7.2-1.8,4.3-4.3c-2.6-2.1-6.4-2.8-9.5-3.6c-2.4-0.7-4.8-1.3-7.2-2c-1.7-0.5-4.6-0.8-6-2s-0.6-0.5-0.8-2.1s-0.5-3.2-0.8-4.9
	c-0.8-3.9-1-7.8-1.7-11.7c-0.6-3.5-2.7-6.4-3.8-9.8c-1.4-4.2-2.3-7.3-4.8-11c-4.3-6.1-8.7-9.5-15.5-12.7s-14.5-2.3-21.9-2.3
	c-7.2,0-15.7,2.3-22.4,5c-6.5,2.7-12.2,6.9-16.7,12.3c-4.3,5.8-6.8,12.8-7,20c-0.1,4.3,0.2,8.6,0.8,12.8c0.7,5.5,0.4,11,0.4,16.5
	c0,3.9,6,3.9,6,0L319.9,254.9z"/>
<path d="M354.8,247.6c-3.8-0.5-5.9,3.3-5,6.7c0.4,1.6,1.5,2.9,2.9,3.5c2,0.6,3.8-0.4,5.2-1.7l-2.4-0.3c1.9,3,5.3,4.8,8,1.7
	c1.5-1.7,2.9-5.9,0.1-7.2c-1.7-0.8-3.3,1.8-1.5,2.6c0.2,0.1,0.2,0.3,0.1,0.7c-0.1,0.7-0.4,1.3-0.8,1.8c-1.3,1.6-2.5,0.3-3.3-1.1
	c-0.4-0.7-1.4-0.9-2.1-0.5c-0.1,0.1-0.2,0.1-0.3,0.2c-1.4,1.2-2.8,1.4-3.2-0.7c-0.3-1.7,0.4-2.9,2.1-2.7
	C356.6,250.9,356.6,247.9,354.8,247.6L354.8,247.6z"/>
<path class="st1" d="M360.5,206.9c6.3-1.5,14-2.6,14.1-10.5c0.1-8.8-4.1-17.7-12.7-20.5c-7.1-2.4-18.9,1-23.3,7.1
	c-4.8,6.7-1.3,16.6,5.1,20.9C343.7,203.9,351.6,209.1,360.5,206.9z"/>
<path d="M361.3,209.8c4.9-1.1,10.5-2.1,13.8-6.2c3.6-4.4,2.8-11.2,1.2-16.2c-3.8-11.8-14.7-17.4-26.5-14.5
	c-11.5,2.8-19.9,12.7-14.8,24.7C339.4,207.9,350.9,211.8,361.3,209.8c3.8-0.7,2.2-6.5-1.6-5.8c-6.7,1.3-14.6-0.8-18.3-6.9
	c-5.4-8.9,1.1-16.2,9.9-18.4c8.6-2.1,16.3,1.7,19.1,10.3c1.2,3.7,2.2,9.1-1.2,11.8c-2.6,2-6.6,2.5-9.7,3.2
	C355.9,204.9,357.5,210.7,361.3,209.8z"/>
<path d="M356.3,194.8c-3.3,0.2-6.7-2-4.6-5.7c1-1.8,3.1-1.8,4.5-1.7c1.9,0,3.5,1.5,3.5,3.4c0,0.2,0,0.3,0,0.5
	c-0.1,1.9-2.1,3.1-3.8,3.6c-1.9,0.6-1.1,3.5,0.8,2.9c3.3-1,6.2-3.5,6-7.1s-3.1-6.2-6.8-6.2s-6.9,1.6-7.6,5.5c-0.9,5.1,3.2,8.2,8,7.9
	C358.2,197.7,358.2,194.7,356.3,194.8z"/>
<path class="st1" d="M353.6,233.9c-6.9,0.1-12.6,4.8-15.9,11.4c4.6,1.6,13.8-3.1,18.4-2.9c7.9,0.4,11.9,2.1,16.9,4
	c0.2-5.4-4.5-10.2-9.5-12.8c-2.6-1.4-8.4-3.1-10,0.9"/>
<path d="M353.6,232.4c-7.9,0.4-13.5,5.4-17.2,12.1c-0.4,0.7-0.2,1.7,0.6,2.1c0.1,0.1,0.2,0.1,0.3,0.1c5.3,1.3,10.5-1.4,15.6-2.4
	c6.7-1.4,13.5,1.3,19.7,3.5c0.8,0.2,1.6-0.3,1.8-1.1c0-0.1,0.1-0.3,0.1-0.4c-0.2-6.4-5-11.6-10.6-14.3c-3.9-1.9-9.2-2.7-11.6,1.7
	c-0.4,0.7-0.1,1.6,0.6,2c0.7,0.4,1.6,0.1,2-0.5c2-3.6,7.5-0.8,9.8,0.7c3.7,2.4,6.8,5.8,6.9,10.4l1.9-1.4c-5.7-2.1-11.6-4.2-17.8-4
	c-5.8,0.2-11.8,4.4-17.6,2.9l0.9,2.2c3.1-5.7,7.8-10.3,14.6-10.6C355.6,235.3,355.6,232.3,353.6,232.4L353.6,232.4z"/>
<path d="M648.4,402.1H63.1c-6.3,0-12.9,0.5-19.2,0c-9.9-0.8-10.2-14.6-0.1-15.5c0.4,0,0.8,0,1.2,0c2.8-0.1,5.7,0,8.5,0h513.4
	c26.5,0,53.1-0.4,79.7,0c0.6,0,1.2,0,1.7,0C658.3,387.5,658.6,401.5,648.4,402.1c-3.8,0.2-3.9,6.2,0,6c17.8-1.1,17.7-26.8-0.1-27.5
	c-2-0.1-4,0-6,0H124c-26.3,0-52.7-0.4-79,0c-9.6,0.1-17.5,8.7-14,18.4c2.4,6.6,8.6,9.1,15,9.1h602.5
	C652.3,408.1,652.3,402.1,648.4,402.1z"/>
<path d="M397,212.3c17.6,2.6,34,8.9,47.8,20.2c12.1,10.1,21.8,22.7,28.4,36.9c8.3,17.4,12.4,36.5,15.7,55.4
	c3.4,19.7,6.5,39.5,9.7,59.2c0.6,3.8,6.4,2.2,5.8-1.6c-2.7-16.4-5.4-32.9-8-49.3c-2.6-15.6-5.3-31.2-10-46.3
	c-7.9-25-21.8-47.8-43.4-63.1c-13.2-9.4-28.4-14.7-44.4-17.1C394.8,205.9,393.2,211.7,397,212.3L397,212.3z"/>
<path d="M233.6,379c2.7-34.2,5.3-69.6,19.8-101.2c13.2-28.7,35-51.2,65.6-60.6c3.7-1.1,2.1-6.9-1.6-5.8
	c-31.5,9.6-54.6,32.4-68.6,61.9c-15.5,33-18.5,69.8-21.3,105.7C227.3,382.9,233.3,382.8,233.6,379z"/>
<path class="st1" d="M246.8,516.7c0.1,0.8-0.4,1.6-1.3,1.8c-0.2,0-0.3,0-0.5,0h-0.7c2.6,0.6,4.9,1,6.9,1.3c1.1,0.2,1.3,1,0.3,2.4
	l-1.5,1.9c-0.7,0.7-1.9,1-2.9,0.6c-4-1-6.8-2.1-8.4-3.3c-1.1-0.7-2-1.7-2.5-2.8H229c-0.6,1.1-1.4,2.1-2.5,2.8
	c-1.6,1.3-4.5,2.5-8.6,3.5c-1.1,0.2-2.2-0.2-2.8-1.1l-1.9-2.3c-0.5-0.8,0.2-1.3,2.2-1.5c1.9-0.1,3.7-0.6,5.4-1.3h-0.6
	c-0.9,0.1-1.7-0.6-1.8-1.5c0-0.1,0-0.2,0-0.3v-15.6c-0.1-0.6,0.3-1.2,0.9-1.4l-1-2.9c0-0.1,0-0.2,0-0.2l-4.4,2
	c-0.9,0.4-1.6,0.4-1.8-0.2l-1.7-3.4c-0.3-0.7,0-1.3,1.1-1.7l11.3-5c-0.2-0.3,0.1-0.7,0.8-1.1c2.2-1.8,4.1-3.9,5.7-6.2
	c0.2-0.7,1-1.1,1.7-0.9c0,0,0,0,0,0l3.8,0.8c0.8,0.2,0.8,0.9,0.1,2.1H246c0.7,0,1.4,0.1,2,0.4l2.8,1.1c0.9,0.4,1.1,1.1,0.8,2.2
	c-0.7,1.6-1.7,3-2.9,4.3c-0.4,0.6-1.3,0.9-2,0.6l-2.6-1.5c-0.5-0.4-0.5-1,0.1-1.7H239c0.8,1.8,2,3.4,3.6,4.6
	c1.9,1.5,5.3,2.6,10.2,3.4c0.9,0.1,1,0.8,0.2,1.9l-1.8,2.8c-0.3,0.4-0.8,0.5-1.6,0.3c-1.1-0.3-2.1-0.5-3-0.8c0.1,0.3,0.2,0.7,0.2,1
	L246.8,516.7z M215.5,480.9c2.1,0.8,4.2,1.8,6.4,2.9c1,0.5,1.3,1.1,0.9,1.8l-1.6,2.7c-0.5,0.7-1.3,0.7-2.1,0.1
	c-2.1-1.1-4.2-2.1-6.4-3c-1.2-0.5-1.6-1.1-1.2-1.7l1.6-2.7C213.5,480.6,214.3,480.5,215.5,480.9z M225.9,491.7c0.5,0.7,0,1.4-1.4,2
	l-4.4,2c4.8-0.6,8.1-1.6,9.9-3c1.6-1.1,2.9-2.6,3.6-4.4h-2.8c-0.9,0.9-1.9,1.7-3,2.6c-0.6,0.5-1.5,0.5-2.2,0.1l-0.1,0L225.9,491.7z
	 M223.9,504.1v0.9h17.4v-0.9L223.9,504.1z M223.9,508.6v0.9h17.4v-0.9H223.9z M223.9,513.2v0.9h17.4v-0.9H223.9z M236.4,495.1
	c-1.8,1.8-5.1,3.3-9.7,4.5h17.1C241,498.6,238.6,497,236.4,495.1L236.4,495.1z"/>
<path class="st1" d="M266.8,492.6c-0.6,0.1-1.2-0.3-1.3-1c0-0.1,0-0.2,0-0.3v-2.6c-0.1-0.6,0.3-1.2,1-1.3c0.1,0,0.2,0,0.3,0h14.9
	c0.8,0,1.1,0.4,1.1,1.3v2.6c0,0.9-0.4,1.3-1.1,1.3H266.8z M279.4,486.3h-10.3c-1,0-1.5-0.4-1.5-1.3v-2.3c0-1.1,0.5-1.7,1.5-1.7h10.3
	c1,0,1.5,0.6,1.5,1.7v2.3C281,485.8,280.5,486.3,279.4,486.3L279.4,486.3z M279.4,498.8h-10.3c-1,0-1.5-0.4-1.5-1.3v-2.4
	c-0.1-0.7,0.4-1.4,1.1-1.5c0.1,0,0.3,0,0.4,0h10.3c1,0,1.5,0.4,1.5,1.3v2.6C281,498.4,280.5,498.8,279.4,498.8L279.4,498.8z
	 M279.4,505.2h-10.5c-0.9,0-1.4-0.4-1.4-1.3v-2.4c0-1.1,0.5-1.7,1.5-1.7h10.3c1,0,1.5,0.5,1.5,1.5v2.6
	C281,504.8,280.5,505.2,279.4,505.2z M280.9,521.3c0,1.8-0.7,2.6-2.1,2.6h-9.2c-1.4,0-2.1-0.9-2.1-2.6v-12.5c0-1.6,0.7-2.4,2.1-2.4
	h9.2c1.4,0,2.1,0.8,2.1,2.4V521.3z M272.9,511.9v6.2h2.9v-6.2H272.9z M284.9,487c-1,0.1-1.5-0.2-1.5-0.8v-3.8
	c-0.1-0.7,0.4-1.1,1.5-1.1h17.6c1.1,0,1.7,0.5,1.7,1.5v26.9c-0.1,1.7,0,3.3,0.2,5c0.1,1.3,0.5,1.7,1.1,1.4l0.8-1
	c0.3-0.4,0.9-0.5,1.3-0.2l2.4,2.1c0.4,0.8,0.4,1.8-0.2,2.5c-3.3,4.1-5.6,5.6-6.9,4.4c-1.6-1.1-2.7-3-3.2-5.9
	c-0.5-2.9-0.8-5.8-0.8-8.7V487h-5.4v10.3h3.5c1,0,1.5,0.5,1.5,1.4v2.9c0.1,0.7-0.4,1.4-1.1,1.5c-0.1,0-0.2,0-0.4,0h-3.6
	c-0.3,9-2.5,15.9-6.7,20.8c-0.3,0.6-1.1,0.8-1.6,0.5c-0.1-0.1-0.3-0.2-0.4-0.3l-2.6-2.2c-0.5-0.3-0.7-1-0.3-1.5
	c0.1-0.1,0.1-0.2,0.2-0.3c3.8-3.8,5.7-9.5,5.8-17H283c-0.9,0-1.3-0.5-1.3-1.4v-3.1c-0.1-0.6,0.4-1.2,1-1.3c0.1,0,0.2,0,0.3,0h4.9
	V487H284.9z"/>
<path class="st1" d="M323.1,483.6c0-1.3,0.5-1.9,1.6-1.9h11c1.4,0,2.1,0.6,2.1,1.8v33.6c-0.1,3-0.8,4.9-2.3,5.7l-4.1,1.6
	c-0.7,0.3-1.4,0-1.7-0.7c0,0,0-0.1,0-0.1l-0.8-3c-0.3-0.8,0.1-1.3,1-1.6l1.1-0.4c0.9-0.2,1.4-1,1.3-1.9v-4.8h-3.9
	c-0.6,5.1-1.5,8.5-2.6,10.3c-0.8,1.4-1.6,1.9-2.6,1.5l-2.1-1.5c-0.7-0.5-0.9-1.4-0.5-2.2c0.1-0.1,0.2-0.2,0.2-0.3
	c1.1-2.2,1.8-4.6,2.2-7c0.1-1.5,0.1-3.2,0.1-5.1V483.6z M328.4,487.6v6.2h3.9v-6.2H328.4z M328.4,500.1v5.9h3.9v-5.9L328.4,500.1z
	 M361.4,482.1c1.6,0,2.4,0.9,2.4,2.7v14.4c0,2.3-0.8,3.5-2.4,3.5h-15.9v14.8c0,0.8,0.5,1.1,1.3,1.2h10.1c0.8,0,1.4-0.7,1.9-1.9
	l0.4-1.3c0.2-1,1.2-1.6,2.2-1.3c0,0,0,0,0.1,0l2.8,0.8c0.8,0.3,1,1,0.8,2.1l-0.9,3.6c-0.8,2.6-2.7,3.8-5.8,3.8h-15
	c-2.4,0-3.6-1.3-3.6-3.8v-35.5c0-1.9,0.8-2.9,2.3-2.9L361.4,482.1z M345.5,496.5h3.8V488h-3.8V496.5z M354.7,496.5h3.7V488h-3.7
	V496.5z"/>
<path class="st1" d="M377.7,483.1c0-1.2,0.5-1.8,1.6-1.8h9.8c1.5,0,2.2,0.6,2.2,1.8V517c0,1.2-0.1,2.4-0.5,3.6c-0.3,0.9-1,1.6-1.9,2
	c-1.4,0.6-2.7,1.2-4.2,1.6c-0.9,0.2-1.5-0.1-1.8-0.8l-1.2-3.2c-0.3-1,0.1-1.6,1.1-1.7c0.7-0.1,1.5-0.2,2.2-0.4
	c0.5-0.2,0.7-0.6,0.7-1.5v-5.8h-2.6c-0.6,5.7-1.5,9.4-2.7,11.2c-0.9,1.4-1.8,1.8-2.6,1.4l-2.2-1.4c-0.8-0.6-0.9-1.4-0.2-2.4
	c1.2-2.5,2-5.2,2.3-8c0.1-1.5,0.1-3.1,0.1-5V483.1z M383.1,487v6h2.6v-6H383.1z M383.1,499.2v5.8h2.6v-5.8H383.1z M418.8,505.6
	c1,0,1.5,0.4,1.5,1.3v3c0.1,0.7-0.4,1.4-1.1,1.5c-0.1,0-0.3,0-0.4,0h-10.3V523c0,1.1-0.4,1.6-1.3,1.6h-3.3c-0.7,0-1.1-0.5-1.1-1.5
	l0-11.7h-10.1c-0.8,0-1.1-0.5-1.1-1.3V507c0-1,0.4-1.4,1.1-1.4h10.1v-5.4h-8.1c-0.7,0-1.1-0.4-1.1-1.3v-3.2c0-0.9,0.4-1.3,1.1-1.3
	h8.1v-12c-0.1-0.6,0.3-1.2,0.9-1.3c0.1,0,0.3,0,0.4,0h3c1,0,1.5,0.4,1.5,1.3v12h8.8c0.8,0,1.1,0.4,1.1,1.3v3.2
	c0,0.9-0.4,1.3-1.1,1.3h-8.8v5.4L418.8,505.6z M399,492.9c-0.3,0.6-0.8,0.7-1.7,0.3l-2.9-1.2c-0.8-0.3-1-0.8-0.7-1.5
	c1.3-2.6,2.4-5.2,3.2-8c0.2-0.8,0.8-1,1.8-0.6l2.9,0.9c0.6,0.2,0.8,0.7,0.6,1.5C401.4,487.3,400.3,490.1,399,492.9z M414.8,492.8
	c-1.6-2.6-3.4-5-5.3-7.4c-0.4-0.4-0.4-1,0-1.4c0.1-0.1,0.1-0.1,0.2-0.2l2.5-2c0.8-0.6,1.4-0.5,1.9,0.1c2.1,2.1,3.8,4.6,5.2,7.2
	c0.3,0.5,0.2,1.2-0.3,1.6l-2.5,1.9C415.6,493.2,415,493.2,414.8,492.8L414.8,492.8z"/>
<path class="st1" d="M457.3,480.3c0.8,0,1.1,0.4,1.1,1.3v3.4h14.4c0.8,0,1.1,0.5,1.1,1.4v3.1c0.1,0.5-0.3,1-0.9,1.1
	c-0.1,0-0.2,0-0.3,0h-29.6v16.1c0.1,6-1.9,11.9-5.7,16.5c-0.8,0.8-1.4,1-2,0.6l-2.7-2.1c-0.9-0.7-0.8-1.6,0.1-2.6
	c1.5-1.5,2.7-3.3,3.5-5.2c0.5-1.4,0.8-3,0.8-4.5l-3.4,1.7c-0.6,0.3-1.1,0.2-1.3-0.2l-1.5-3.2c-0.4-0.6-0.2-1.4,0.4-1.8
	c0.1,0,0.1-0.1,0.2-0.1l5.8-2.6v-3.4l-0.5,0.8c-0.3,0.5-0.7,0.5-1.2,0l-4.7-4.3c-0.5-0.4-0.5-1.1-0.1-1.6c0,0,0.1-0.1,0.1-0.1
	l2.1-1.9c0.4-0.5,1.1-0.5,1.6-0.1c0,0,0.1,0.1,0.1,0.1l2.6,2.1v-8.2c-0.1-0.7,0.4-1.4,1.1-1.5c0.1,0,0.2,0,0.4,0h13.9v-3.4
	c-0.1-0.6,0.3-1.2,1-1.3c0.1,0,0.2,0,0.3,0L457.3,480.3z M471.1,498.6h-10.3v5.3h10.7c0.8,0,1.1,0.5,1.1,1.5v3
	c0,0.9-0.4,1.3-1.1,1.3h-10.7v8.4h12.8c0.9,0,1.3,0.5,1.3,1.4v3.5c0,0.8-0.4,1.1-1.3,1.1h-31.7c-0.5,0.1-1.1-0.3-1.1-0.9
	c0-0.1,0-0.2,0-0.3v-3.5c0-0.9,0.4-1.4,1.1-1.4h4.3v-14.4c0-1.1,0.5-1.7,1.5-1.7h3.2c0.8,0,1.1,0.6,1.1,1.7v14.4h3v-19.5h-9.4
	c-0.6,0.1-1.2-0.3-1.3-1c0-0.1,0-0.2,0-0.3v-3c0-1,0.4-1.5,1.3-1.5h25.5c0.9,0,1.3,0.5,1.3,1.5v3c0.1,0.6-0.4,1.2-1,1.3
	C471.4,498.7,471.3,498.7,471.1,498.6z"/>
<path d="M312.3,250.1c-3.6,8-4.3,15.8-1,24c3.4,8.5,9.1,15.9,12.4,24.5l1.4-3.4c-6.1,4.5-7.6,11.2-10.1,18c-0.6,1.6,0.7,3.2,2.1,3.7
	c5.6,2.1,15.7-3.2,19.6-7c2.2-2.1,3.9-5.6,2.6-8.6c-1.5-3.7-6.5-4.6-9.8-5.9c-3.6-1.4-5.2,4.4-1.6,5.8c1.2,0.5,5.6,1.5,5.8,2.5
	c0.3,1.6-3.3,3.4-4.2,4c-2.5,1.4-7.9,4.6-10.9,3.5l2.1,3.7c1.9-5,2.8-11.1,7.3-14.5c1.2-0.7,1.7-2.1,1.4-3.4
	c-5.5-14.5-19.4-27.6-12-43.9C319.1,249.6,313.9,246.6,312.3,250.1L312.3,250.1z"/>
<path d="M388.4,304.4c-6.1-7.5-1.2-19.3,3.5-26.2c4.5-6.6,12.5-13.1,21-9.8c13.5,5.4,15,28.1,7.3,38.4c-2.3,3.1,2.9,6.1,5.2,3
	c10.4-13.9,5.9-44.1-13.5-48c-21.6-4.3-41.4,29.9-27.8,46.7C386.6,311.6,390.8,307.4,388.4,304.4L388.4,304.4z"/>
<path d="M410.9,264.9c4-7.2,3-20.7-2.2-27.2c-2.4-3-6.6,1.3-4.2,4.3c3.4,4.2,3.8,15.3,1.3,19.9C403.8,265.2,409,268.2,410.9,264.9
	L410.9,264.9z"/>
<path d="M382.4,300c0.8,3.3,1.5,6.5,2.4,9.8c0.4,1.3,1.5,2.2,2.9,2.2c2-0.1,3.9-0.6,5.7-1.6c1.2-0.7,1.7-2.1,1.4-3.4
	c-1-4.6-2.7-9.4-7.3-11.5c-3.5-1.6-6.5,3.6-3,5.2c3.2,1.4,3.9,4.7,4.5,7.9l1.4-3.4c-0.8,0.5-1.7,0.7-2.7,0.8l2.9,2.2
	c-0.9-3.2-1.6-6.5-2.4-9.7C387.3,294.7,381.5,296.3,382.4,300L382.4,300z"/>
<path d="M426,301.2c3.9,0,3.9-6,0-6S422.1,301.2,426,301.2z"/>
<path d="M426.8,295.3c-1.6-0.4-3.3-0.1-4.9-0.4c-1.6-0.4-3.2,0.5-3.7,2.1c0,0,0,0,0,0c-0.8,3.5-1.4,7-2.1,10.5
	c-0.4,1.6,0.5,3.2,2.1,3.7c0.5,0.1,1.1,0.1,1.6,0c5.9-1.3,7.6-7.2,7.5-12.5c-0.1-3.9-6.1-3.9-6,0c0.1,2.6,0,6.1-3,6.8l3.7,3.7
	c0.7-3.5,1.4-7,2.1-10.5l-3.7,2.1c1.6,0.3,3.3,0.1,4.9,0.4C429,301.9,430.6,296.1,426.8,295.3L426.8,295.3z"/>
<path d="M427.9,255.4c31,10.3,41.1,44.4,44.2,73.8c1.4,13.2,0.3,29.2-8.5,39.9c-11.4,14-33.1,10.4-48.9,9.2
	c-8.3-0.6-16.5,0-24.8-0.4c-4.3-0.1-9.1-0.6-12.5-3.6c-4.4-3.9-6.3-9.7-0.4-13c1.4-0.8,1.9-2.7,1.1-4.1c-0.5-0.9-1.5-1.5-2.6-1.5
	c-6.1,0.1-9.5-7-2.4-8.9c3.8-1,2.2-6.6-1.6-5.8c-5.1,1.1,1.3-7.8,2.8-9c5.6-4.7,16-3,22.8-3.4c14.8-0.9,29.7,4.2,44.4,0.9
	c3.8-0.8,2.2-6.6-1.6-5.8c-10.7,2.4-22.1-0.3-32.9-1c-5.2-0.2-10.4-0.1-15.6,0.2c-5.4,0.2-11.3,0-16.5,1.9
	c-5.6,2.1-10.1,8-11.1,13.8c-1.1,6.3,3.5,9.5,9.3,8.3l-1.6-5.8c-13.6,3.7-9,20.9,4,20.7l-1.5-5.6c-8.3,4.8-8.4,13-2.8,20.2
	c5.2,6.7,13.4,7.6,21.4,7.6c10.2,0,20.2,0.2,30.4,1c10.5,0.8,21.6,1.3,31.6-2.4c16.3-6,22.5-23.1,23.7-39.1
	c1.3-17.5-2.9-36.8-9.1-53.1c-7.3-19-20.2-34.1-39.8-40.7C425.8,248.4,424.2,254.2,427.9,255.4L427.9,255.4z"/>
<path d="M375.4,325.2c-14.6-2.7-29.7-8.2-44.7-7.3c-5.1,0.5-10.2,1.3-15.2,2.4c-3.6,0.7-9.2,2.3-12,2.3c-3.9,0-3.9,6,0,6
	c3.3,0,7-1.2,10.2-1.8c5.4-1.2,10.8-2.1,16.3-2.8c14.6-1.2,29.6,4.3,43.8,7C377.6,331.7,379.2,325.9,375.4,325.2L375.4,325.2z"/>
<path d="M314,246.2c-30.9,14.5-51,47.8-54.9,81c-1.6,13.7-1,29.7,7.1,41.5c10.4,15.1,29.8,15.1,46.4,15.8c6.5,0.3,13.1,0.1,19.6,0.2
	c5.9,0.1,11.8,0.9,17.7,1.2c9.2,0.5,21.5,0.5,27.9-7.3c2.4-3-1.8-7.2-4.3-4.2c-5.6,6.9-17.2,6-25.3,5.5c-9.5-0.6-18.8-1.1-28.2-1.2
	c-9.2,0-18.4-0.6-27.5-1.6c-7.8-1-15.4-4-20.4-10.3c-8-10.1-8.4-24.8-7.3-37.1c1.1-13.2,5-26.1,11.3-37.8
	c9.3-17,23.1-32.2,40.9-40.6C320.5,249.7,317.5,244.5,314,246.2L314,246.2z"/>
<path class="st1" d="M459.5,355.4c-4.4,8.6-6.9,18.1-7.4,27.7c28.6,1,57.9,1.7,86.7,0.8c-1.3-6.7-6-13.1-7.5-20
	c-1.8-8.2-2.8-9.1-14.8-10.6C501,351.4,473.8,349.2,459.5,355.4"/>
<path d="M456.9,353.9c-4.6,9.1-7.2,19-7.8,29.2c0,1.7,1.3,3,3,3c28.9,1,57.8,1.6,86.7,0.8c1.7,0,3-1.3,3-3c0-0.3,0-0.5-0.1-0.8
	c-1.3-5.7-4.3-10.6-6.3-16.1c-1.3-3.4-1.5-7.4-3.4-10.5c-3.4-5.7-11.5-5.7-17.3-6.4c-17.8-2.1-39.1-4.6-56.1,2.4
	c-3.5,1.5-2,7.3,1.6,5.8c15.1-6.2,33.7-4.4,49.5-2.8c4.6,0.5,14.9-0.2,17.3,4.6c1.6,3,1.8,6.9,3,10c2,4.9,4.5,9.4,5.7,14.5l2.9-3.8
	c-28.9,0.9-57.8,0.3-86.7-0.8l3,3c0.5-9.1,2.8-18,7-26.2C463.8,353.4,458.6,350.4,456.9,353.9L456.9,353.9z"/>
<path d="M562,383.3c-0.2-8.6-3.1-17.3-1.8-25.9l-2.1,2.1c5.2-1,20.4-5.7,23.1,0.5c1.4,3.3,1,8.4,1,11.9c0.1,3.7-0.1,7.4-0.4,11.1
	l3.8-2.9c-8.5-1.4-17.1-0.8-25.7-0.7c-3.9,0-3.9,6,0,6c8,0,16.2-0.8,24.1,0.5c1.6,0.4,3.3-0.6,3.7-2.2c0.1-0.2,0.1-0.4,0.1-0.7
	c0.4-4.9,0.5-9.8,0.3-14.6c-0.2-4,0-9.6-2.4-13c-5.6-8.1-21.6-3.1-29.2-1.7c-1,0.3-1.8,1.1-2.1,2.1c-1.4,9.3,1.3,18.3,1.6,27.5
	C556.1,387.2,562.1,387.2,562,383.3L562,383.3z"/>
<path d="M570.7,349.2c-0.6-9.6,4.2-20.2,13.7-23.7l-3.4-4.4c-4.4,8.9-12.7,17.4-12.5,27.9l5.6-1.5c-3.3-5.8-4.9-12.5-8.7-18
	s-9.5-7.9-16.1-8.5c-2.5-0.2-4.1,3.5-2.1,5.1c7.3,6.1,14.1,12.9,17.6,22l5-2.9c-9.8-7.9-20.7-12.2-32-4.6c-1.9,1.3-2,5,0.7,5.5
	c9.5,1.8,18.8,4.8,27.5,9.1c1.4,0.8,3.2,0.3,4.1-1.1c6.5-11.9,20.7-12.6,32.4-8.9v-5.8c-5.4,1.7-10.7,3.7-16,5.4
	c-4.6,1.5-10.1,3.7-15,3.3c-3.8-0.4-3.8,5.6,0,6c5.1,0.5,10.6-1.6,15.4-3.1c5.8-1.8,11.5-4,17.3-5.8c1.6-0.4,2.5-2.1,2.1-3.7
	c-0.3-1-1.1-1.8-2.1-2.1c-14.3-4.5-31.3-2.5-39.1,11.6l4-1.1c-9.1-4.5-18.9-7.8-28.9-9.7l0.7,5.5c8.9-6,17-2.6,24.7,3.6
	c2,1.7,6.2,0.2,5-2.9c-3.9-10.2-10.9-17.8-19.2-24.6l-2.1,5.1c13,1.1,14.2,14.1,19.6,23.5c0.8,1.4,2.7,1.9,4.1,1.1
	c0.9-0.5,1.5-1.5,1.5-2.6c-0.1-9.1,7.8-17.1,11.7-24.8c1.1-2.1-0.7-5.4-3.4-4.4c-12,4.4-18.8,17-18.1,29.5
	C564.9,353,570.9,353.1,570.7,349.2L570.7,349.2z"/>
<path d="M563.7,377.1c5.5,0.7,11.1,0.2,16.7,0c1.9-0.1,1.9-3.1,0-3c-5.5,0.2-11.1,0.7-16.7,0C561.7,373.9,561.8,376.9,563.7,377.1z"
	/>
<path d="M472.4,358.6c-2.6,5.2-3.8,11-3.5,16.8c0.1,1.6,1.4,2.9,3,3c7.1,0.8,16-2.3,16.3-10.7c0.2-6.3-8.6-14.6-14.8-10.2
	c-3.1,2.2-0.1,7.4,3,5.2c1.2-0.9,2.9,0.5,3.8,1.3c1.5,1.4,2.4,3,1.6,5c-1.5,3.7-6.7,3.7-10,3.3l3,3c-0.3-4.7,0.6-9.5,2.6-13.8
	C479.1,358.1,474,355.1,472.4,358.6L472.4,358.6z"/>
<path d="M493.8,358.8c-1,3.7-1.6,7.5-2.5,11.2c-0.5,2-1.4,4.2-1.3,6.3c0,1.7,1.4,3,3.1,3c0.2,0,0.5,0,0.7-0.1
	c0.8-0.2,1.5-0.8,1.9-1.5c1.9-3.4-3.3-6.4-5.2-3l-0.1,0.2l1.8-1.4h0l3.8,2.9c0,0.9,0.3-1.4,0.4-1.8c0.3-1.1,0.6-2.3,0.8-3.4
	c0.8-3.5,1.4-7.1,2.4-10.6C500.6,356.7,494.8,355.1,493.8,358.8L493.8,358.8z"/>
<path d="M497.7,363.1c1.8-0.1,4.1-0.4,5.7,0.5c0.6,0.3,0.9,0.8,0.9,1.4c0,0.2-0.2,0.4,0,0.3c-0.3,0.2-0.6,0.4-1,0.5
	c-0.4,0.1-0.8,0.2-1.2,0.3c-0.1,0-1,0.1-0.5,0.1c-1.3,0.1-2.6,0.2-3.9,0.1c-3.9,0-3.9,6,0,6c4.3,0,10.5-0.2,12.2-5.1
	c1-3.1-0.1-6.5-2.8-8.4c-2.7-1.9-6.3-2-9.4-1.8C493.9,357.4,493.8,363.4,497.7,363.1L497.7,363.1z"/>
<path d="M496.9,372.3c1.7,0.6,3.3,1.4,4.8,2.3c0.9,0.5,1.8,1,2.6,1.6c0.2,0.1,0.4,0.3,0.6,0.5c0.2,0.2,0.9,1,0.4,0.4
	c2.1,3.3,7.3,0.3,5.2-3c-1.2-1.9-3.5-3.2-5.4-4.4c-2.1-1.3-4.3-2.4-6.7-3.2C494.8,365.4,493.2,371.2,496.9,372.3L496.9,372.3z"/>
<path d="M515,379.3c3.9,0,3.9-6,0-6S511.1,379.3,515,379.3z"/>
<path d="M606.9,203.8c15.3-15.9,39.7-16.2,57.7-5.1c3.3,2,6.3-3.1,3-5.2c-20.2-12.5-47.9-11.7-65,6
	C599.9,202.3,604.2,206.5,606.9,203.8L606.9,203.8z"/>
<path class="st1" d="M632.5,223.4c1.7-4.1-5-7.3-7.5-3.4c-1.1,1.6-0.8,3.7,0.8,4.9c0.1,0,0.1,0.1,0.2,0.1c1.4,0.8,2.5,0.5,3.9,0.2
	C629.9,225.2,632,224.7,632.5,223.4z"/>
<path class="st1" d="M451.1,174.5c17.7,4.4,31.2-5.1,40.7-20.7s6.8-37.8-6.9-49.9c-9.7-8.6-23.1-11.4-35.9-13.4s-25.6-3.1-38.3-1
	s-25.1,7.9-33,18c-13.9,17.6-10.9,43.2,6.7,57.1c7.6,6,17,9.1,26.7,8.7c3.5-0.1,7-0.7,10.5-0.1s9.5,1.3,10.2,4.7
	c0.5,2.1-0.1,4.3,0,6.5s1.5,4.6,3.6,4.6c1.5,0,2.7-1.2,3.7-2.3C443,182.8,447.4,178.6,451.1,174.5"/>
<path d="M450.3,177.4c11.5,2.6,22.6,0.2,31.8-7.4s16.1-18.4,17.9-30.1c1.7-11.3-0.9-23.3-7.8-32.6C484,96.5,470.8,91.6,457.9,89
	c-27-5.3-62.3-7.9-81.8,15.8c-16.5,20-11.6,50.7,10.2,64.6c5.9,3.8,12.6,6.1,19.6,6.8c4.1,0.4,8.1-0.3,12.2-0.2
	c2.7,0.1,8.6,0.3,10.3,2.7s-0.2,6.8,1.5,9.9c1.1,2.2,3.4,3.6,5.9,3.5c3.4-0.2,5.6-3.3,7.8-5.6c3.2-3.3,6.5-6.5,9.6-9.9
	c2.6-2.8-1.6-7.1-4.2-4.2c-1.4,1.5-12.2,14.2-14.1,12.6c-1-0.8,0.2-6.4-0.2-7.8c-0.5-1.6-1.6-3.1-3-4c-8.2-5.6-19.6-1.7-28.6-3.4
	c-24.1-4.6-37.6-30.9-27.4-53.1C387.1,92,418,89.7,441.5,92.5c12,1.4,24.9,3.2,35.5,9.3c9.5,5.5,15.9,15.2,17.2,26.1
	c3.1,23.3-17.6,49.2-42.2,43.6C448.2,170.7,446.5,176.5,450.3,177.4L450.3,177.4z"/>
<path d="M420.3,126.3c1.1,0,1.6,0.6,1.6,1.8v7.4c0,1.5-0.5,2.3-1.6,2.2h-4.6v5.7c0,0.4,0.3,0.6,0.9,0.6h2.4c0.4,0,0.8-0.3,1-0.7
	l0.6-1.6c0.2-0.4,0.6-0.6,1-0.5l2.4,0.7c0.4,0.2,0.6,0.7,0.5,1.1l-2,4c-0.5,0.6-1.3,1-2.1,1H414c-1.5-0.1-2.2-0.9-2.2-2.6v-7.7h-3
	c-0.2,1.9-0.9,3.7-2,5.3c-1.7,2.5-4.6,4.1-8.8,4.8c-0.5,0.1-0.9,0-1.1-0.3l-1-2.1c-0.3-0.6-0.1-1,0.4-1.1c3.1-0.4,5.3-1.4,6.6-3.1
	s1.9-2.8,1.9-3.5h-3.2c-1.1,0-1.7-0.7-1.7-2.2v-4.4c-0.4,0.6-0.9,1.1-1.5,1.5c-0.4,0.4-0.8,0.2-1.2-0.5l-1.4-1.7
	c-0.4-0.4-0.4-1.1,0-1.5c3-2.7,5.7-5.9,8-9.3c0.5-0.9,1-1.4,1.6-1.4l2.6,0.8c0.5,0.3,0.5,0.8,0,1.6h6.6c0.6,0,1.1,0.1,1.6,0.4l2,0.7
	c0.6,0.3,0.7,0.8,0.3,1.5c-0.9,1-1.8,2-2.6,3.1L420.3,126.3z M403.8,133.7h5.1v-3.6h-5.1V133.7z M403.9,126.3h7
	c0.6-0.7,1.1-1.5,1.7-2.3h-6.7C405.3,124.7,404.7,125.5,403.9,126.3L403.9,126.3z M412.8,133.7h5.2v-3.6h-5.2L412.8,133.7z"/>
<path d="M453.7,125.1c0,0.8-0.5,1.3-1.6,1.4h-5.2v0.6h7.8c1,0,1.4,0.5,1.4,1.5c-0.1,2.9-1.1,4.8-2.9,5.7l-1.4,0.2
	c-0.3,0.1-0.6,0-0.8-0.1v8.3c0,0.9-0.4,1.3-1.1,1.2h-0.5c1.7,0.4,3.3,0.7,4.6,0.9c0.7,0.3,0.7,0.9,0.2,1.7l-1,1.3
	c-0.5,0.5-1.2,0.7-1.9,0.4c-2-0.4-3.9-1.2-5.6-2.2c-0.7-0.5-1.3-1.1-1.7-1.9h-3.3c-0.4,0.8-0.9,1.4-1.6,1.9c-1.7,1.2-3.7,2-5.7,2.4
	c-0.7,0.2-1.5-0.1-1.9-0.8l-1.3-1.6c-0.3-0.6,0.2-0.9,1.4-1c1.2-0.1,2.5-0.5,3.6-1h-0.4c-0.6,0-1.1-0.4-1.2-1c0-0.1,0-0.1,0-0.2
	v-8.4c-1.2,0.5-2.4,0.9-3.6,1.2c-0.7,0.4-1.5,0.2-1.9-0.5l-0.6-1.5c-0.4-0.8-0.3-1.3,0.4-1.4c2.2-0.2,4.4-0.9,6.3-2.2h-3.1
	c-0.8,0-1-0.6-0.9-1.6l1.2-3.5c0.2-0.8,0.9-1.1,2-1.1h3.5V123h-5.6c-0.8-0.1-1.2-0.4-1.2-0.9v-1.4c0-0.6,0.4-0.9,1.2-0.9h5.6v-0.3
	c-0.1-0.5,0.1-0.8,0.6-0.7h2c0.7,0,1,0.2,1,0.6v0.4h2.8v-0.1c0-0.6,0.3-1,0.8-1h1.8c0.6,0,0.9,0.3,0.9,1v0.1h5.2
	c0.8-0.1,1.5,0.4,1.6,1.1c0,0.2,0,0.3,0,0.5L453.7,125.1z M434.9,126.5l-0.3,0.6h1.9l0.2-0.6H434.9z M437.3,134.2v0.6h10v-0.6H437.3
	z M437.3,137.2v0.6h10v-0.6H437.3z M437.3,140.4v0.6h10v-0.6L437.3,140.4z M443.3,130.8V130h-4l-1,1.2h5
	C443.3,131.1,443.3,131,443.3,130.8L443.3,130.8z M443.3,126.5h-2.8l-0.1,0.6h2.9L443.3,126.5z M440.6,123.7h2.8V123h-2.8V123.7z
	 M449.9,123.7V123h-3v0.7L449.9,123.7z M450,131.1h0.9c0.3,0,0.5-0.2,0.8-0.6s0.2-0.6-0.2-0.6h-4.6v0.8c0,0.1,0,0.3,0,0.4h1.7
	c0.2,0,0.4,0,0.6,0.1C449.5,131.1,449.7,131.1,450,131.1L450,131.1z"/>
<path class="st1" d="M220.3,349c0.8-1.4,3-10.1,2-12.7c-37.2-4.5-74.8-5.8-112.2-3.8c-0.8,5.3-0.5,16-0.5,18.8"/>
<path d="M222.9,350.5c2-4.2,3.4-10.4,2.3-15c-0.4-1.3-1.6-2.2-2.9-2.2c-37.2-4.5-74.8-5.8-112.2-3.8c-1.6,0.1-2.9,1.4-3,3
	c-0.8,6.2-0.5,12.6-0.5,18.8c0,3.9,6,3.9,6,0c0-6.3-0.3-12.6,0.5-18.8l-3,3c37.4-2,75-0.7,112.2,3.8l-2.9-2.2
	c0.7,2.9-0.5,7.7-1.7,10.4C216.1,350.9,221.2,354,222.9,350.5L222.9,350.5z"/>
<path class="st1" d="M111.8,361.8c-0.8-1.4-2.9-10.1-2-12.7c37.2-4.5,74.7-5.8,112.2-3.8c0.8,5.3,0.5,16,0.5,18.8"/>
<path d="M114.4,360.3c-1.2-2.6-2.4-7.5-1.7-10.4l-2.9,2.2c37.2-4.5,74.8-5.8,112.2-3.8l-3-3c0.8,6.2,0.5,12.6,0.5,18.8
	c0,3.9,6,3.9,6,0c0-6.3,0.3-12.6-0.5-18.8c-0.1-1.6-1.4-2.9-3-3c-37.4-2-75-0.7-112.2,3.8c-1.3,0-2.5,0.9-2.9,2.2
	c-1.1,4.6,0.3,10.8,2.3,15C110.9,366.8,116.1,363.7,114.4,360.3L114.4,360.3z"/>
<path class="st1" d="M110.9,366.9c-0.8-1.4-2-2.4-1.1-4.9c37.2-4.5,74.8-5.8,112.2-3.8c0.8,5.3,0.5,16,0.5,18.8"/>
<path d="M113.5,365.4c-0.6-0.7-0.9-1.6-0.8-2.6l-2.9,2.2c37.2-4.5,74.8-5.8,112.2-3.8l-3-3c0.8,6.2,0.5,12.6,0.5,18.8
	c0,3.9,6,3.9,6,0c0-6.3,0.3-12.6-0.5-18.8c-0.1-1.6-1.4-2.9-3-3c-37.4-2-75-0.7-112.2,3.8c-1.3,0-2.5,0.9-2.9,2.2
	c-0.7,2.9-0.2,4.7,1.4,7.2C110.3,371.7,115.5,368.6,113.5,365.4L113.5,365.4z"/>
<path class="st1" d="M95.7,382.1c-0.2-4.6,0.3-9.3,1.5-13.8c21.3-1,43.4,1.8,64.8,3.6c10.7,0.9,57.4-2.6,60.6,8.9"/>
<path d="M98.7,382.1c-0.1-4.4,0.4-8.7,1.3-13l-2.9,2.2c25.8-1.1,51.3,3.9,77.1,3.8c8.9,0,17.9-0.1,26.8,0.7
	c4.1,0.4,16.9,0.7,18.6,5.8c1.2,3.6,7,2.1,5.8-1.6c-2.2-6.6-10.5-8.3-16.5-9.2c-9.8-1.6-19.8-1.7-29.7-1.7
	c-27.4,0-54.6-4.9-82.1-3.8c-1.3,0-2.5,0.9-2.9,2.2c-1.1,4.8-1.6,9.7-1.6,14.6C92.7,385.9,98.7,385.9,98.7,382.1L98.7,382.1z"/>
<line class="st5" x1="112.6" y1="339.6" x2="179.2" y2="338.3"/>
<path d="M112.6,341.1l66.7-1.3c1.9,0,1.9-3,0-3l-66.7,1.3C110.6,338.1,110.6,341.1,112.6,341.1z"/>
<path d="M353.7,296c4.4,11.2,8.8,22.5,14.8,33l5.2-3c-0.4-0.8-0.9-1.6-1.5-2.3c-2.3-3.1-7.5-0.1-5.2,3c0.6,0.7,1.1,1.5,1.5,2.3
	c1.9,3.4,7.1,0.3,5.2-3c-5.7-10.1-9.9-20.8-14.2-31.5C358.1,290.9,352.3,292.5,353.7,296L353.7,296z"/>
<path d="M351.1,286.4c-4.1,4.6-9.2,11-5.4,17.3c2.9,4.8,10,6.1,15.2,5.4c12.9-1.8,11.9-18.5,2.6-24.4C353,278,341,287.1,342.5,299
	c1.5,12.3,17.2,15.4,26.3,8.9c10.2-7.3,3.5-24.2-7.1-27.4c-11.2-3.4-25,10-19,21.1c4.6,8.5,22.1,11.9,28,3.1
	c5.6-8.5-1.1-23.9-12-22.6c-9.8,1.2-19.9,14.2-13,23.3c5.9,7.8,21.5,7.3,25.7-2c4.4-9.7-6.8-21.2-16.4-20.5c-5.3,0.4-9.3,4.7-9.3,10
	c-0.1,6,4.3,11.2,9.9,13.1c5,1.7,11.9,1.1,15-3.8c2.6-4.1,1.4-9.6-1.1-13.5c-2.8-4.3-7.5-7.5-12.7-6.5c-5.8,1.1-10.3,6.8-9.2,12.8
	c2,10.7,23.1,14.8,22.2,1.1c-0.4-5.4-5.3-11.1-10.7-12c-5.6-1-9.2,4.1-8.6,9.3s4.8,10,10,10.5c5,0.4,8.1-3.4,7.5-8.2
	c-0.5-4.2-4.1-10.3-9-10.3c-5.4,0-6.5,7-4.9,11c1.8,4.4,7.3,7.8,11.2,3.5c2.8-3.1,1.3-8.9-1.8-11.3c-9.7-7.5-9.9,17.1,0.3,11.4
	c5-2.8,1.6-9.3-1.3-12.2c-1.2-1.2-3.1-1.2-4.2,0c-0.2,0.2-0.3,0.4-0.5,0.6c-1.9,3.7-0.7,8.2,3.3,10c1.5,0.7,4.1,0.3,4.4-1.8
	c0.5-4-1.2-6.4-5.2-7c-3-0.4-4.1,4.3-1.5,5.6c1.1,0.7,2.3,0.9,3.6,0.7c3.8-0.5,3.8-6.5,0-6l-0.5,0.1l-1.5,5.6l-0.5-0.6l4.4-1.8
	l-1.1-1.8l-4.7,0.6c0.5,0.5,1.4,2.4,1.9,2.5c4.1,1.5,0.9-4.2,0-0.9c0,0,1.4,2.7,0.3,1.7c-0.6-0.7-1-1.6-1.1-2.5
	c-0.4-2.7,0.6-0.9,1.5,0.3c0.5,0.7,1.9,3.1,1.4,4c-1.3,2.3-4.4-1-5.2-2.5c-0.9-1.8-1.4-4.6,2.3-4.1c1,0.1,2.9,2.3,3.4,3.2
	c1.6,2.5,1.5,5-1.8,5.4c-2.9,0.4-7.5-2.7-7.6-5.8c-0.1-4.1,4.5-6.3,7.8-4.6c2.8,1.4,6.1,6.4,4.7,9.6c-2.6,6-13,1-14-4
	c-1.3-7,6.5-5.9,10.1-3.1c3.4,2.7,6.7,8.4,2.2,11.8c-3,2.3-8.1,2.3-11.4,0.6c-5.1-2.7-3.2-8.4,0-11.8s8.6-5.9,11.8-1.3
	c2.6,3.7,3.8,11-1.6,12.7c-4.3,1.1-8.8,0.4-12.5-2c-5.8-4-2.1-11.3,3-14.1c5.8-3.1,10.9,0.5,13.4,5.8c2.9,6.1-0.1,10.9-6.5,11.9
	c-5.9,0.9-12.1-1.2-11.9-8.2c0.2-6.3,6-10.5,11.7-7.2c4.6,2.7,7.7,12.1,0.5,13.6c-2.4,0.5-6.4,0.2-8.4-1.3
	c-4.4-3.3,0.6-8.4,3.1-11.2S353.7,283.6,351.1,286.4L351.1,286.4z"/>
<path class="st1" d="M451.8,574.9c4.8,9.4,11.5,25.8,20,33c3.1,2.7,4.3-1.9,10.9-3.3c4.4-0.9,10.3-4.2,14.7-6.3
	c11.3-5.3,20.7-11.5,32-16.3c7.3-3.1,18.8-9.1,26.1-12.5c2.5-1.2,13.5-4.9,15.5-6.7c6.7-5.9-0.1-13.1-2.4-17.8
	c-4.6-9.1-10-17.6-14.7-26.6c-1.7-3.4-3.7-15.7-9.2-16.3s-28.4,12.5-34.5,15.3c-7,3.2-28.6,15.1-33.7,17.3c0,0-36.1,17.2-35.1,20.3
	S451.8,574.9,451.8,574.9z"/>
<path d="M449.3,576.4c3.6,7.1,6.8,14.4,10.8,21.3c2.5,4.3,7.6,14,13.5,14c2.6,0,4.4-1.9,6.6-3c3.5-1.8,7.7-2.5,11.4-4.2
	c9-4.2,17.7-8.9,26.4-13.6c8-4.3,16.4-7.7,24.6-11.7c6.4-3.1,12.8-6.4,19.4-9c5.3-2,11.8-3.7,14.1-9.5c2.8-7-3.2-13.9-6.3-19.7
	c-4.5-8.5-10.7-16.7-13.9-25.8c-1.8-4.9-2.9-11.6-7.5-14.8c-3.8-2.6-8.4-0.6-12.2,0.9c-5.9,2.4-11.7,5.4-17.4,8.3
	c-17.2,8.9-34.4,17.7-51.7,26.3c-5.5,2.8-11,5.5-16.4,8.6c-3.5,2-8.3,4.1-10.9,7.3c-2.8,3.4,0.2,7.3,2,10.6
	C444.1,567.2,446.7,571.8,449.3,576.4c1.9,3.4,7.1,0.4,5.2-3c-1.7-3.1-3.5-6.1-5.1-9.2c-1.2-2.1-2.3-4.3-3.4-6.4
	c-0.3-0.6-0.7-2.2-1.3-2.5c-0.8-0.5-0.8,0.8-0.5,0.7c2.7-1,5.7-3.9,8.3-5.4c4.2-2.4,8.5-4.6,12.8-6.8c14.9-7.6,29.7-15.6,44.8-22.8
	c8.9-4.3,17.4-9.2,26.5-13.1c4.2-1.8,8-4.4,10.5,0.6c2.5,4.9,3.5,10.2,6,15c4.3,8,8.8,15.8,13.2,23.7c1.6,2.8,4.6,6.2,4.7,9.6
	c0.1,3.8-3.8,5-6.6,6.2c-11.5,4.8-22.6,10.4-34,15.5c-9,4-17.5,8.6-26.2,13.2c-7.8,4.1-16,7.7-24.3,10.7c-1.4,0.5-2.7,1.2-4,2
	c-1.7,1-1.5,1.2-3.1,0.2c-3.1-2.1-5.5-6.8-7.3-9.9c-4.1-6.8-7.3-14.2-10.8-21.3C452.7,569.9,447.5,573,449.3,576.4z"/>
<path class="st1" d="M462.3,572.5c3.5,6.8,8.2,18.7,14.6,23.6c2.4,1.8,3.6-1.6,8.9-2.9c3.5-0.9,8.5-3.6,12.1-5.3
	c9.3-4.4,17.1-9.4,26.4-13.4c6-2.6,15.5-7.5,21.5-10.4c2-1,11-4.2,12.7-5.6c5.7-4.7,0.5-9.8-1.2-13.1c-3.3-6.5-7.3-12.6-10.7-19.1
	c-1.3-2.5-2.3-11.5-6.7-11.7s-23.4,10.5-28.4,12.8c-5.8,2.7-23.6,12.5-27.8,14.3c0,0-29.8,14.3-29.1,16.5S462.3,572.5,462.3,572.5z"
	/>
<path d="M459.7,574c2.8,5.6,5.3,11.5,8.7,16.8c2.2,3.3,5.9,9.4,10.6,8.8c2.3-0.3,4-2.2,6.1-3c3-1.2,6-2,8.9-3.4
	c7.4-3.5,14.5-7.4,21.8-11.2c11.5-6,23.6-12.1,35.7-16.9c4.2-1.7,9.4-3.1,11.7-7.4c2.7-5-0.8-9.5-3.2-13.7
	c-3.7-6.5-8.6-13.3-11-20.4c-1.3-3.8-2.1-8.8-5.9-11c-3.2-1.9-7-0.2-10.1,1.1c-4.9,2-9.6,4.4-14.3,6.8c-14,7.2-28,14.4-42.1,21.4
	c-7.4,3.7-16.9,7.2-23.1,12.9c-2.7,2.6-1.6,4.9,0,7.9C455.5,566.6,457.6,570.3,459.7,574c2,3.4,7.2,0.3,5.2-3
	c-1.5-2.5-2.9-5.1-4.3-7.7c-0.7-1.3-1.3-3.3-2.3-4.4l-0.4-0.7c-0.4-1.2-0.7-0.8-0.7,1.4c0.4-0.4,0.8-0.7,1.2-1c6.1-3,12-6.9,18.1-10
	c11.8-5.9,23.5-12.2,35.3-18c6.9-3.3,13.6-7,20.5-10.2c2.2-1,6.4-3.8,8.3-2c1.3,1.2,1.7,4.2,2.2,5.8c0.6,2.1,1.5,4.1,2.5,6
	c3.2,5.9,6.5,11.8,9.8,17.6c0.9,1.6,3.2,4,2.9,6c-0.4,3-4.9,4.1-7.2,5c-8.8,3.6-17.2,8.1-25.9,12.1c-13.4,6.1-26.1,14.7-40.1,19.4
	c-1.2,0.3-2.3,0.8-3.4,1.3c-0.6,0.3-2.9,2.2-3.5,2.1s-3.8-4.9-4.4-5.9c-3.5-5.3-5.9-11.2-8.7-16.8C463.2,567.5,458,570.5,459.7,574z
	"/>
<path d="M480.6,553.8c0.4-0.2,0.7-0.1,1,0.4l2,3.8l1.9-1c0.4-0.2,0.8,0,1,0.5l0.9,1.7c0.3,0.5,0.2,0.8-0.1,1l-2,1l0.8,1.5
	c1.6,0.9,3.2,1.8,4.9,2.5c0.4,0.1,0.5,0.4,0.4,0.8l-0.2,1.8c-0.1,0.4-0.2,0.6-0.5,0.6c-0.8-0.1-1.5-0.4-2.2-0.8l5,9.8
	c0.2,0.4,0.1,0.7-0.2,0.9l-1.8,0.9c-0.4,0.2-0.7,0.1-0.9-0.2l-5-9.8c0.1,1.8,0,3.5-0.3,5.2c0,0.4-0.4,0.6-0.7,0.6c0,0-0.1,0-0.1,0
	l-1.9-0.4c-0.6-0.1-0.8-0.5-0.7-1c0.5-3.6,0.3-7.2-0.3-10.7l-2.5,1.4c-0.4,0.2-0.7,0-1-0.5l-0.9-1.7c-0.3-0.5-0.2-0.8,0.2-1l3.3-1.7
	l-2-3.8c-0.2-0.3-0.2-0.8,0.2-1c0.1,0,0.1-0.1,0.2-0.1L480.6,553.8z M485.8,561.6c0.6-1.6,1.1-3.3,1.4-4.9c0.4-2.1,0.6-4.1,0.5-6.2
	c-0.1-0.4,0.1-0.7,0.5-0.9l2.2-1.1c0.3-0.2,0.7-0.1,0.9,0.2c1.4,1.2,2.9,2.2,4.6,2.8c2.3,0.9,4.8,1.5,7.3,1.5c0.8,0,1.2,0.3,1.1,0.8
	l-0.5,2.1c-0.1,0.5-0.3,0.7-0.6,0.7l-1.1-0.1l2.9,5.6c0.3,0.5,0.2,0.9-0.3,1.1l-1.5,0.8c0.1,0.2,0.3,0.4,0.4,0.7
	c0.2,0.5,0.4,1.1,0.4,1.7c1.9-0.1,3.8,0.3,5.5,1.1c0.5,0.2,0.7,0.8,0.5,1.3l-0.8,1.9c-0.2,0.3-0.5,0.3-1,0.1
	c-1.3-0.5-2.6-0.9-3.9-1.3c0,1.3-0.3,2.7-0.8,3.9c-0.2,0.3-0.5,0.5-0.9,0.5l-1.7-0.3c-0.5-0.1-0.6-0.6-0.3-1.3
	c0.6-2.3,0.6-4.7-0.1-6.9l-1,0.5c-0.5,0.2-0.8,0.1-1-0.4l-2.9-5.7c-0.2-0.4-0.1-0.8,0.3-1l4.8-2.5c-1.1-0.2-2.2-0.3-3.4-0.6l0.3,0.5
	c0.2,0.2,0.1,0.6-0.1,0.7c0,0-0.1,0-0.1,0.1l-6.5,3.3c-0.3,0.1-0.5,0-0.6-0.2l-0.3-0.5c-0.3,0.9-0.6,1.8-0.9,2.6l4.6-2.3
	c0.3-0.2,0.7-0.1,0.9,0.2c0,0,0.1,0.1,0.1,0.2l2.9,5.7c0.2,0.3,0.2,0.7-0.1,1c-0.1,0-0.1,0.1-0.2,0.1l-1.4,0.7
	c0.1,0.2,0.2,0.4,0.3,0.6c0.2,0.4,0.3,0.9,0.4,1.3c1.2,0.2,2.4,0.6,3.5,1.2c0.5,0.3,0.6,0.8,0.3,1.6l-0.5,1.5
	c-0.1,0.3-0.4,0.4-1,0.1c-0.7-0.4-1.4-0.7-2-1c-0.1,1.5-0.4,2.9-0.9,4.3c-0.1,0.4-0.5,0.6-0.8,0.5c0,0,0,0,0,0l-2.1-0.4
	c-0.5-0.1-0.5-0.5-0.3-1.4c0.4-1.2,0.7-2.4,0.8-3.6c0-1.1-0.1-2.3-0.5-3.3l-1,0.5c-0.4,0.2-0.8,0.1-1-0.4l-2.7-5.3
	c-0.1,0.3-0.9,0.3-2.1-0.3C485.6,563.2,485.5,562.5,485.8,561.6L485.8,561.6z M491.2,552.8c0.1,1.3-0.1,2.6-0.4,3.8l3.9-2
	C493.4,554.2,492.3,553.6,491.2,552.8z M492,564l0.9,1.7l1.1-0.6l-0.9-1.7L492,564z M499.3,560.3l0.9,1.7l1.3-0.7l-0.9-1.7
	L499.3,560.3z"/>
<path d="M508.3,540.2c0.1-0.4,0.4-0.7,0.9-0.7h3.9c0.4,0,0.8,0.3,0.8,0.7c0,0,0,0.1,0,0.1l-0.1,2.1c-0.1,0.4-0.4,0.6-1,0.6h-4.1
	c-0.5,0-0.8-0.2-0.8-0.7L508.3,540.2z M510.1,548c0.1-0.4,0.5-0.7,0.9-0.6l4-0.1c0.4,0,0.7,0.3,0.8,0.7c0,0,0,0,0,0l-0.3,1.9
	c0,0.6-0.3,0.9-0.7,0.9l-4.1,0.2c-0.6,0-0.9-0.2-0.9-0.8L510.1,548z M520.9,534.4c0.9-0.5,1.5-0.3,1.8,0.5l8.3,16.4
	c0.4,0.6,0.2,1.3-0.4,1.7c-0.1,0.1-0.2,0.1-0.3,0.1c1,0.7,2.2,1,3.4,1.1c0.7-0.1,1,0.4,0.8,1.3l-0.2,1.5c-0.2,0.6-0.6,0.8-1.3,0.8
	c-1.9-0.3-3.6-1.2-5-2.5c-0.4-0.4-0.5-0.7-0.2-0.9l-1.5,0.8c0.3-0.1,0.7,0.1,0.8,0.4c0,0.1,0,0.1,0,0.2c0.2,1.9-0.1,3.9-1,5.6
	c-0.4,0.6-0.8,0.8-1.3,0.7l-1.6-0.8c-0.6-0.4-0.8-0.8-0.5-1.3c0.6-1,1.1-2.2,1.2-3.4c-0.5,0.4-1.2,0.3-1.6-0.2
	c-0.1-0.1-0.1-0.2-0.1-0.3l-8.4-16.5c-0.3-0.5-0.2-1.2,0.3-1.6c0.1-0.1,0.2-0.1,0.3-0.1L520.9,534.4z M516,555.1
	c0-0.7,0.1-1.1,0.5-1.2l2.2-0.4c0.3,0,0.6,0.3,0.8,1c0.7,3.1,1.3,6.2,1.6,9.4c0.1,0.5-0.2,0.9-0.8,1l-2.5,0.2
	c-0.5,0-0.8-0.4-0.7-1.1C516.9,561,516.6,558,516,555.1z M518.1,539.8l1.2,2.3l2.5-1.3l-1.2-2.3L518.1,539.8z M520.7,544.8l1.2,2.3
	l2.5-1.2l-1.2-2.3L520.7,544.8z M531.2,550l-8-15.7c-0.2-0.4,0-0.7,0.5-0.9l1.6-0.8c0.4-0.2,0.8-0.2,0.9,0.2l8,15.7
	c0.3,0.6,0.2,1-0.2,1.2l-1.6,0.8C531.9,550.7,531.5,550.6,531.2,550z M523.3,550l1.1,2.2l2.5-1.2l-1.1-2.2L523.3,550z M536.8,550.1
	l-9.7-19.1c-0.2-0.4,0-0.7,0.4-0.9l1.8-0.9c0.4-0.2,0.7-0.2,0.9,0.2l9.8,19.3c1.2,2.4,1.1,4.1-0.2,5.3l-1.8,1.5
	c-0.4,0.4-1,0.3-1.4-0.1c0,0-0.1-0.1-0.1-0.1l-1.2-1.3c-0.5-0.5-0.6-0.9-0.2-1.2l1.6-1.1C537.2,551.5,537.2,550.9,536.8,550.1
	L536.8,550.1z"/>
<path class="st6" d="M86.2,467.7v164.2c0,3.9,6,3.9,6,0V467.7C92.2,463.9,86.2,463.8,86.2,467.7z"/>
<path d="M469.5,119.5c-2.4,5.1-4.2,10.4-5.4,15.9c-0.8,3.8,5,5.4,5.8,1.6c1-5,2.6-9.9,4.8-14.5C476.3,119,471.1,116,469.5,119.5
	L469.5,119.5z"/>
<path d="M465,149.2h0.7c1.7,0,3-1.3,3-3s-1.3-3-3-3l0,0H465c-1.7,0-3,1.3-3,3S463.4,149.2,465,149.2z"/>
</svg>
