<svg xmlns="http://www.w3.org/2000/svg" viewBox="0 0 740.25 653.13"><defs><style>.cls-1{fill:#f3eee8;}.cls-2{fill:#d1ccc7;}.cls-3{fill:#9b9a98;}.cls-4{fill:#040000;}</style></defs><title>工作區域 52</title><g id="圖層_1" data-name="圖層 1"><path d="M104.14,142.51c-2.46-2.58-8.19-2-11.28-2.17-15.48-.85-31.41-.52-46.67,2.5a1.3,1.3,0,0,0-1,.89,1.56,1.56,0,0,0-.57.8C43.05,149,42,154,43.15,158.7s4.74,7.4,9.12,8.71c11.75,3.54,24,.4,36,1.2,4.32.28,9.85,1.06,13.55-1.9,3.85-3.09,3.92-9,3.88-13.59C105.65,150.05,106.47,145,104.14,142.51Z"/><path class="cls-1" d="M67.5,146.06c.27,0,.41.16.41.48v.7h5.35c.27,0,.41.17.41.52v1.14a.37.37,0,0,1-.41.42h-11v6.52A9.44,9.44,0,0,1,60.2,162c-.28.32-.53.38-.75.21l-1-.78c-.32-.27-.3-.59.06-1a6,6,0,0,0,1.3-1.94,4.45,4.45,0,0,0,.27-1.67l-1.24.63c-.24.09-.4.07-.49-.07l-.55-1.18c-.14-.33-.07-.56.2-.7l2.15-1V152.3l-.17.28q-.18.28-.45,0L57.79,151a.37.37,0,0,1,0-.62l.76-.69a.44.44,0,0,1,.62,0l1,.76v-2.64a.49.49,0,0,1,.56-.55h5.13v-.7a.43.43,0,0,1,.49-.48Zm-4.37,4h9.71c.43,0,.63.23.62.68v.78c0,.36-.19.54-.62.55H69V153h3.54q.9,0,.9,1v6.76c0,.66-.14,1.08-.42,1.25a3.29,3.29,0,0,1-1,.38,13.12,13.12,0,0,1-1.39.19c-.34,0-.57-.18-.69-.59l-.28-.92c-.14-.4,0-.62.34-.65l.77,0c.41,0,.62-.33.62-.92v-.28a5.06,5.06,0,0,1-1.73-.23,3.14,3.14,0,0,1-1.53-1.16,3.23,3.23,0,0,1-1.47,1.16,4.54,4.54,0,0,1-1.86.23v2.48c0,.45-.18.67-.55.66h-1c-.36,0-.55-.21-.56-.66V154q0-1,.9-1h3.33v-.92H63.13c-.42,0-.63-.19-.63-.55v-.78C62.5,150.31,62.71,150.08,63.13,150.08Zm1.66,5V157a2.28,2.28,0,0,0,1.61-.39,2.11,2.11,0,0,0,.54-1.52Zm4.37,0a2.3,2.3,0,0,0,.71,1.52,1.9,1.9,0,0,0,1.51.35v-1.87Z"/><path class="cls-1" d="M85.28,146.06c.27,0,.41.16.41.48v1.25H91c.28,0,.42.18.42.52v1.15c0,.28-.14.41-.42.41h-11v6A9.39,9.39,0,0,1,78,162c-.27.32-.52.38-.74.21l-1-.78c-.32-.27-.31-.59,0-1a5.83,5.83,0,0,0,1.3-1.94,4.5,4.5,0,0,0,.28-1.67l-1.25.63c-.23.09-.39.07-.48-.07l-.56-1.18c-.14-.33-.07-.56.21-.7l2.15-1v-1.25l-.17.28q-.18.28-.45,0L75.56,152a.43.43,0,0,1,0-.63l.77-.69a.41.41,0,0,1,.62,0l1,.76v-3.05a.5.5,0,0,1,.56-.56h5.13v-1.25a.43.43,0,0,1,.49-.48Zm5.13,6.8H86.59v1.94h4c.28,0,.41.18.41.54v1.13c0,.32-.13.48-.41.48h-4v3.12h4.72c.32,0,.49.18.49.52v1.29c0,.27-.17.41-.49.41H79.59a.37.37,0,0,1-.42-.41v-1.29c0-.34.14-.52.42-.52h1.59v-5.34c0-.42.19-.62.56-.62h1.18c.27,0,.41.2.41.62v5.34h1.11v-7.21H81a.43.43,0,0,1-.48-.49v-1.13c0-.35.16-.53.48-.53h9.44c.32,0,.48.18.48.53v1.13A.43.43,0,0,1,90.41,152.86Z"/><path class="cls-2" d="M265.46,134c-6.48-5.57-15.79-8.2-23.85-10.28-18-4.65-36.75-6.09-55.23-6.73-32.36-1.11-64.92-3.08-97.28-3.08-12.38,0-44.07,2.42-56.36,3-8.75.4-21.28-2.1-27.69,4.1L3.49,193.27c-.37,18-.45,36-.48,54,0,11-.2,22,10.19,28.09,13,7.61,49.62,7,64.12,8.63,27.36,3.13,55.55,4.26,83.08,4.4,26.09.12,52.08-1.92,78.15-2.11,9.21-.06,22.47,3.09,25.76-7.48,8.92-28.68,11.55-59,11.49-88.92C275.77,171.93,280.93,147.27,265.46,134ZM264,192.12c0,26.32-2.33,53-10.42,78.28-3,9.3-15,6.53-23.34,6.59-23.63.16-47.18,2-70.83,1.85A714.15,714.15,0,0,1,84.09,275c-13.15-1.46-48.2-.78-59.94-7.48-9.41-5.38-9.26-15.05-9.24-24.72,0-15.84.1-31.69.44-47.53l1.41-63.66c5.81-5.46,17.17-3.25,25.1-3.61,11.14-.5,41.68-2.74,52.9-2.74,29.33,0,58.84,1.74,88.16,2.71,16.75.56,33.79,1.84,50.06,5.92,7.31,1.84,15.75,4.15,21.61,9.06C268.62,154.63,263.94,176.34,264,192.12Z"/><path d="M.49,193.27Q-.08,221.33,0,249.4c0,12.57,2.22,24.88,15.1,30.16,10.58,4.35,22.93,4.91,34.21,5.66,12.24.81,24.41,1.45,36.62,2.67,38.39,3.81,77,4,115.5,2.46,9.43-.37,18.87-.76,28.32-1,7-.15,14,.44,21,.25,4.86-.13,10-1.05,13.49-4.77,4.84-5.23,5.81-14.94,7.33-21.59a297.43,297.43,0,0,0,6.83-53.76c.37-8.45.19-16.91.52-25.36.25-6.61.78-13.22.65-19.84-.23-12.67-3.11-25.89-13.78-33.91-12.43-9.35-30.7-11.88-45.67-13.88-18.42-2.47-37-2.66-55.57-3.43C145,112.28,125.5,111.38,106,111c-13.71-.25-27.28.06-41,.87-12,.72-24.18,2.19-36.21,2-6.43-.11-25.66-2.18-26.75,7.61-.62,5.57-.25,11.44-.37,17l-1.1,51-.08,3.73c-.08,3.86,5.92,3.86,6,0l.79-36.66.53-24.54L8,123.79a7.67,7.67,0,0,1,0-2.09c.47-1.25-.46.14,1.07,0s3.28-1.3,4.83-1.57a32.2,32.2,0,0,1,4.81-.42c3.35-.1,6.7.12,10.05.18,5,.08,10-.35,15-.66,11.8-.74,23.6-1.57,35.42-2.09,33-1.44,66.27,1.27,99.25,2.53,17.55.66,35.12,1.28,52.41,4.66,13.43,2.61,31,5.76,38.24,18.86,6.19,11.25,4.57,25.37,4,37.68-.76,15.82-.42,31.59-1.95,47.39-.85,8.75-2.07,17.47-3.77,26.11-.78,4-1.66,7.95-2.65,11.88-1,4.13-1.78,9.51-3.91,13.23-2.83,4.92-10,4.29-14.79,4.08-7.06-.3-14.07-.23-21.13,0-35.76,1-71.27,2.56-107,.73-15.31-.78-30.49-2.66-45.77-3.74-11.32-.79-22.67-1-34-2.22-9.92-1-24.87-2-29.77-12.39C5.51,259.9,6,252.73,6,246.29q0-13.5.12-27,.11-13,.36-26C6.57,189.41.57,189.41.49,193.27Z"/><path d="M13.85,195.23c-.35,17.2-.73,34.46-.42,51.66.17,10,2.8,19.24,12.89,23.24,9.46,3.76,20.54,4.15,30.57,4.77,10.68.67,21.33,1,32,2.07,34.53,3.53,69.32,3.94,104,2.62,15.66-.59,31.22-.88,46.88-.76,4,0,8.52-.26,11.8-2.86,4.69-3.72,5.48-11.58,6.83-17a249.51,249.51,0,0,0,6.74-49c.36-7.64.19-15.29.49-22.92.24-6.12.76-12.24.57-18.37-.31-10.65-3-21.44-12-28.06-11.24-8.27-27.94-10.34-41.37-12-17-2.18-34.25-2.3-51.39-3-17.31-.71-34.62-1.47-51.95-1.77-22.84-.39-45.42,2.06-68.22,2.63-5.76.14-11.58-.66-17.3.33-2.79.49-7.74,1.74-8.66,4.84-.37,1.26-.07,3.08-.1,4.37L15,145.49l-1,46.32-.08,3.42c0,1.93,3,1.93,3,0l.75-33.82.47-21.34a48,48,0,0,1,.15-6.57c.08-.44-.16-1.21,0-1.61.48-1,4.38-1.8,5.78-2.07,5.84-1.16,11.92-.17,17.82-.36,4-.13,8-.43,12-.68,10.79-.65,21.59-1.38,32.4-1.83,28.9-1.21,58,1,86.89,2.13,16.22.62,32.47,1,48.49,3.89,12.62,2.25,29.6,4.91,36.9,16.76,6.27,10.18,4.73,23.37,4.17,34.75-.67,13.87-.37,27.7-1.76,41.55a234.52,234.52,0,0,1-3.59,23.87c-.77,3.7-1.62,7.37-2.59,11s-1.68,9.45-4.58,12.26c-3.78,3.67-10.57,2.68-15.35,2.46-6.78-.33-13.58,0-20.36.16-32,1-63.73,2.12-95.7.45-14.69-.77-29.28-2.69-43.95-3.44-11.63-.59-23.34-.83-34.87-2.52-4.8-.7-10-1.51-14.37-3.74-7.16-3.67-8.88-10.87-9.13-18.29-.58-17.63,0-35.4.4-53C16.89,193.3,13.89,193.3,13.85,195.23Z"/><path d="M53.24,188.5h-2v-4.87a21.1,21.1,0,0,1-2.9,4l-.72-1.84a15.69,15.69,0,0,0,3.56-4.48H48.09v-1.8h3.19v-2.1h2v2.1h2.49v1.8H53.24V182c1,.67,2,1.43,3.09,2.27l-1.11,1.61q-1.15-1.35-2-2.19ZM51.61,190a17.87,17.87,0,0,1-2.09,5.11l-1.68-1a14.53,14.53,0,0,0,1.84-4.5Zm3.22,5.58a2,2,0,0,1-2.2-2.27v-3.94h2v3.53c0,.53.27.8.84.8h4.29a.94.94,0,0,0,.76-.33,4.11,4.11,0,0,0,.38-2l1.84.61c-.14,1.74-.43,2.78-.87,3.15a2.74,2.74,0,0,1-1.76.47Zm4.64-4.09-1.55,1.08a23.13,23.13,0,0,0-2.15-2.73l1.52-.94A24.38,24.38,0,0,1,59.47,191.46Zm5.69-13.67v10.52h-8.3V177.79Zm-1.88,3V179.5H58.76v1.33Zm0,2.89v-1.29H58.76v1.29Zm0,1.57H58.76v1.35h4.52Zm3.45,8.11-1.66,1.15a36.93,36.93,0,0,0-3-4.64l1.57-1A35.69,35.69,0,0,1,66.73,193.4Z"/><path d="M88.76,177.81v1.74H82.89V181h4.64v5.41H79.15c-.31.51-.57,1-.82,1.43H89v1.8H84.73a7,7,0,0,1-2,2.8q2.91.9,6,2.07l-1.21,1.59q-3.25-1.38-6.54-2.45c-1.92,1-5.07,1.78-9.44,2.37l-.74-1.72a37.36,37.36,0,0,0,7.63-1.45c-1.58-.47-3.15-.88-4.73-1.24.45-.66.9-1.31,1.31-2H70.3v-1.8h5.83c.28-.49.57-1,.83-1.43H71.79V181h4.64v-1.49H70.57v-1.74Zm-12.33,4.88H73.65v2.11h2.78Zm6.28,7H77.25l-.8,1.19c1.37.28,2.76.61,4.19,1A5.39,5.39,0,0,0,82.71,189.68ZM81,179.55H78.29V181H81Zm0,3.14H78.29v2.11H81Zm4.64,0H82.89v2.11h2.78Z"/><path d="M98.42,177.87a27.46,27.46,0,0,1-1.35,3.58V196H95.19V184.7a29.75,29.75,0,0,1-2,2.53l-.58-1.94a23.5,23.5,0,0,0,4.09-8.22Zm5.07.22v-1h1.88v1h5.25v1.54h-5.25v.9H110v6.21h-.39a23.67,23.67,0,0,1,1.8,2.35L110,190c-.21-.33-.43-.65-.66-1a5.79,5.79,0,0,0-.83.06v1.25h2.69V192h-2.69v2.25c0,1.11-.62,1.66-1.8,1.66h-2.39l-.39-1.72c.75.06,1.47.1,2.12.1.41,0,.62-.16.62-.47V192h-6.18a15.91,15.91,0,0,1,3,1.82l-1,1.52a14.23,14.23,0,0,0-3.17-2.19l.78-1.15H98v-1.67h8.75v-1.15q-3.26.16-8.16.29L98.32,188c1.88,0,3.61-.06,5.17-.11v-1.12h-4.4v-6.21h4.4v-.9H98.68v-1.54Zm.12,4.89v-1h-2.82v1Zm0,1.29h-2.82v1.06h2.82Zm1.61-1.29h3v-1h-3Zm3,1.29h-3v1.06h3Zm-.51,2.69.37-.22h-2.72v1.06c1.06,0,2-.1,2.94-.14C108.11,187.41,107.9,187.19,107.72,187Z"/><path d="M120.3,182.1v1.51a27,27,0,0,1-2.16,3.17h2.28v1.29a22.85,22.85,0,0,1-.83,3.74,3.28,3.28,0,0,1,.53.41,7.09,7.09,0,0,0,1.86,1.31,7.53,7.53,0,0,0,2.57.38c1.11,0,2.35.05,3.78.05s3.38-.07,5.75-.15l-.43,1.84h-5.09c-1.43,0-2.78,0-4.09-.08a9.31,9.31,0,0,1-3.13-.49,6.81,6.81,0,0,1-2.31-1.55.62.62,0,0,0-.47-.21c-.4,0-1.06.88-2,2.64l-1.41-1.29c.9-1.7,1.78-2.72,2.64-3.09a22.07,22.07,0,0,0,.8-3.16h-2.76v-1.48a25.71,25.71,0,0,0,2.31-3.08H115.5V182.1Zm-.2-2-1.25,1.27a19.62,19.62,0,0,0-3-3l1.26-1.2A22.52,22.52,0,0,1,120.1,180.14Zm3.27-.55,0,4.49c0,3.64-.57,6.4-1.6,8.26l-1.57-.76a17,17,0,0,0,1.51-7.5v-6a64.84,64.84,0,0,0,10.9-1l.86,1.5c-1.37.24-2.81.45-4.28.61v.63h3.91v1.35h-3.91V182h4.32v.73a12.67,12.67,0,0,1-.58,2.19l-1.45-.41a8.27,8.27,0,0,0,.41-1.08h-2.72v.86l1.94-.23.21,1.25-2.15.24v0c0,.43.25.66.74.66H133v1.33h-3.78c-1,0-1.53-.45-1.53-1.33v-.53l-1.68.18a13.86,13.86,0,0,1-1.94,7.5l-1.31-1.12a12.11,12.11,0,0,0,1.72-6.36V182h3.15v-2.6C126.25,179.48,124.84,179.55,123.37,179.59Zm5.37,8.4v.79a7,7,0,0,1-.67,3,3.83,3.83,0,0,1-2,1.61l-.84-1.32a3.23,3.23,0,0,0,1.59-1.25,4.5,4.5,0,0,0,.45-2.07V188Zm-1-4.6H126v1.2l1.68-.18Zm4,9.81c-1.15,0-1.7-.47-1.7-1.41V188h1.47v3.47c0,.17.08.27.29.31h.49c.2,0,.3-.16.32-.43a8.09,8.09,0,0,0,.07-1.25l1.37.51a4.54,4.54,0,0,1-.33,2.17,1.93,1.93,0,0,1-1.35.41Z"/><path d="M142,196l-1.41-1.27a6.94,6.94,0,0,0,1.9-4.88v-4.11a27.47,27.47,0,0,1-3.53,3.45l-1.25-1.63a22.18,22.18,0,0,0,5.62-6.48h-5.07v-1.86h6c.31-.74.57-1.47.82-2.23l2,.23c-.2.69-.43,1.37-.68,2h9.88v1.86H145.52a21.18,21.18,0,0,1-1.13,2h9.34v11c0,1.2-.69,1.82-2,1.82H149.6l-.44-1.74c.69,0,1.36.08,2,.08s.75-.29.75-.82v-1.71h-7.8A8.44,8.44,0,0,1,142,196Zm2.31-6.28c0,.09,0,.19,0,.27h7.64v-1.76h-7.62Zm7.62-5h-7.62v1.82h7.62Z"/><path d="M178.34,186.94h-1.86v-2H162.66v2H160.8v-3.67h.69l-.83-1.31a5.82,5.82,0,0,0,2.84-1.43,3.92,3.92,0,0,0,.79-2.35v-1h1.8v1a6.93,6.93,0,0,1-.41,2.1,33.33,33.33,0,0,1,3.54,1.76L168,183.25h8.89a17.83,17.83,0,0,0-3.14-1.7,6.53,6.53,0,0,1-3.17,1.63l-.92-1.47a5.56,5.56,0,0,0,2.68-1.26,3.4,3.4,0,0,0,.75-2.07v-1.27h1.8v1.27a6.88,6.88,0,0,1-.33,1.78,20.77,20.77,0,0,1,3.52,1.67l-.92,1.42h1.19Zm-15-7-1.47.64a11.94,11.94,0,0,0-1-2.29l1.41-.59A12.73,12.73,0,0,1,163.37,179.91Zm-1.32,3.34h5.78a20.29,20.29,0,0,0-2.94-1.62A6.94,6.94,0,0,1,162.05,183.25Zm13.46,2.61v4h-5l-.27.9h7.07V196h-1.9v-.76H164.17v.78h-1.88v-5.31h6l.24-.9h-4.86v-4Zm-.12,7.87v-1.45H164.17v1.45Zm-1.74-6.44h-8.13v1.13h8.13ZM169.14,178a7,7,0,0,1-1,2.43l-1.52-.51a7.51,7.51,0,0,0,1-2.33Zm2.86,2-1.47.64a17.39,17.39,0,0,0-1-2.35l1.41-.6A15.51,15.51,0,0,1,172,179.93Zm6-1.92a7.84,7.84,0,0,1-.94,2.41l-1.51-.51a9,9,0,0,0,.9-2.31Z"/><path d="M188.08,178.5a9.31,9.31,0,0,0-.74-1.14l2-.33c.22.45.45.94.65,1.47h4.15a8.49,8.49,0,0,0,.63-1.53l2,.29a5.17,5.17,0,0,1-.63,1.24h4.09V180H193v.69h6.57V182H193v.71h8.14v1.56h-4a10.68,10.68,0,0,0,4.5,2.76l-.82,1.69a11.86,11.86,0,0,1-5.58-4.45H189a11.13,11.13,0,0,1-2.39,2.68h11v5.25c.45-.45.84-.88,1.21-1.33l1.57.8a20.6,20.6,0,0,1-2.16,2c.85.29,1.67.57,2.47.88l-1,1.51a46.74,46.74,0,0,0-7.69-2.68l.78-1.18h-4.93v2c1.31-.24,2.58-.51,3.78-.82l.31,1.48a58.42,58.42,0,0,1-6,1.14l-.51-1.51a.62.62,0,0,0,.49-.68v-6.43a17.7,17.7,0,0,1-2.47,1.47l-1-1.6a11.67,11.67,0,0,0,4.52-3H183v-1.56H191V182h-6.58v-1.35H191V180h-7.23v-1.5Zm7.68,9.71h-7.91v.84h7.91ZM187.85,191h7.91v-.84h-7.91Zm7.67-5.91v1.19h-6.81v-1.19Zm1,8.16a13.55,13.55,0,0,0,1-.94h-4.68C194.15,192.57,195.35,192.87,196.52,193.22Z"/><path d="M211.05,177.89a23.83,23.83,0,0,1-1.5,3.68V196h-1.88V184.66a32.54,32.54,0,0,1-2.06,2.53l-.57-1.92a22.34,22.34,0,0,0,4.31-8.16Zm11.48,7.54v7.95h-2.39a27.08,27.08,0,0,1,3.9,1.15l-.59,1.47a27.19,27.19,0,0,0-4.88-1.64l.49-1h-3.58l.74,1a16.18,16.18,0,0,1-4.93,1.62l-.82-1.41a21,21,0,0,0,4.38-1.19h-2.72v-7.95Zm1.27-7.64v1.63h-3.86v1.09h3.16v4.17H211.47v-4.17h3.27v-1.09h-3.37v-1.63ZM215,181.92h-1.84v1.41H215Zm5.78,5.82v-1h-6.88v1Zm0,2.11v-1h-6.88v1Zm0,1.16h-6.88v1h6.88Zm-2.51-9.09h-1.84v1.41h1.84Zm0-2.5h-1.82v1.09h1.82Zm3.17,2.5h-1.74v1.41h1.74Z"/><path d="M48.44,213.83l-.64-2.06A22.48,22.48,0,0,0,52,203.59l1.76.82a25,25,0,0,1-1.45,3.74v14.41H50.4V211.34A31.55,31.55,0,0,1,48.44,213.83Zm12.81-10c0,.55-.1,1.08-.14,1.61H66v1.76H60.9c-.08.49-.14.94-.2,1.39h4v11.61h1.86V222H53.08v-1.76h2V208.6h3.7c.08-.47.14-.94.18-1.39H54v-1.76h5.23c0-.63.1-1.26.14-1.88Zm1.62,7.79v-1.29H57v1.29Zm0,2.82v-1.29H57v1.29Zm0,2.86V216H57v1.31Zm0,2.9v-1.37H57v1.37Z"/><path d="M77.88,221.27H76v-1.06H72.79v1.66H70.93V207.05h1.95a19.26,19.26,0,0,0,.81-3.41l2,.26a17.51,17.51,0,0,1-.9,3.15h3.14ZM76,212.65v-3.76H72.79v3.76Zm0,5.76v-4H72.79v4Zm12.1,1.7c-.2,1.47-1.18,2.21-2.92,2.21-.41,0-1.14,0-2.17-.11l-.47-1.77c.9,0,1.68.08,2.33.08a1.31,1.31,0,0,0,1.41-1.29c.13-1,.19-4.46.23-10.28H81.4a18.38,18.38,0,0,1-2,3.37l-1.17-1.53A17.88,17.88,0,0,0,81,203.62l1.92.24a22.8,22.8,0,0,1-.82,3.21h6.32Q88.43,217.65,88.12,220.11Zm-3.45-3.76-1.53,1.08A38.17,38.17,0,0,0,80,212.94l1.57-1A34.56,34.56,0,0,1,84.67,216.35Z"/><path d="M106,206.82c-.08.29-.16.56-.26.82a9.48,9.48,0,0,0,5.49,2.43l-.79,1.6a9.6,9.6,0,0,1-1.58-.37v8.38h-4a45.34,45.34,0,0,1,6.31,1.47l-.63,1.53a40.71,40.71,0,0,0-6.83-1.77l.64-1.23H99.64l.84,1.08a22.1,22.1,0,0,1-6.5,1.9l-.88-1.49a27.76,27.76,0,0,0,6.05-1.49H95.39v-8.44h4.93l-.78-1.19q4.11-.74,4.87-3.55Zm-7,1.6v1.65H93.12v-1.65Zm-.43-3.68v1.63H93.53v-1.63Zm8.4,8.93v-1H97.29v1Zm0,2.19V215H97.29v.9Zm0,1.27H97.29v1H107Zm-7-8.57-1.06-1.41a7.51,7.51,0,0,0,2.94-3.6l1.78.21a10.14,10.14,0,0,1-.39,1h7.18v1.35a12.08,12.08,0,0,1-1.76,2.68l-1.33-1.05a8,8,0,0,0,1.06-1.39h-6.09A10.4,10.4,0,0,1,100,208.56Zm8.73,2.68A9.8,9.8,0,0,1,105,209a7,7,0,0,1-3.72,2.29Z"/><path d="M118.09,206.13a19,19,0,0,0-.83-2l1.86-.51a15.81,15.81,0,0,1,.79,2.51h2.5v1.8h-7.07v-1.8Zm3.74,16.08h-1.77v-.87h-2.42v1h-1.77v-7.32h6Zm-.18-13v1.7h-5.6v-1.7Zm0,2.85v1.71h-5.6V212Zm-1.59,7.56v-2.76h-2.42v2.76Zm5-7.67v-5.58h-2.2v-1.86h8.68v6.61a41.79,41.79,0,0,0,.51,8c.15.63.29,1,.41,1a2.65,2.65,0,0,0,.19-.84q.06-.85.06-2l1.51.73a11.45,11.45,0,0,1-.55,3.78c-.21.39-.47.6-.78.6a2.23,2.23,0,0,1-1.9-1.39c-.9-1.62-1.35-4.89-1.35-9.83v-4.75h-2.7v5.58h2.27v1.86H126.9v8.67H125v-8.67h-2.27v-1.86Z"/><path d="M148.38,212a2.64,2.64,0,0,1,.51,1.67,4.34,4.34,0,0,1-.92,2.74,4.51,4.51,0,0,1-2.45,1.57v-1.26a3.07,3.07,0,0,0,1.39-1,2.55,2.55,0,0,0,.51-1.43,1.56,1.56,0,0,1-.49.08,1.5,1.5,0,0,1-1.07-.45,1.52,1.52,0,0,1-.42-1.09,1.45,1.45,0,0,1,.44-1.1,1.58,1.58,0,0,1,1.17-.43A1.64,1.64,0,0,1,148.38,212Z"/><path d="M166.5,208a74.41,74.41,0,0,1,4.7,5.89L170,215.2c-.27-.4-.52-.75-.74-1.06v8.36h-1.8v-1H163.8v1H162v-8.17l-.71.67-1.1-1.51A33.23,33.23,0,0,0,165,208Zm-1.41-2.88a24,24,0,0,1-3.51,3.7l-1.31-1.25a21.06,21.06,0,0,0,3.45-3.5Zm4,8.83q-1.84-2.64-3.13-4.17a32.18,32.18,0,0,1-3.58,4.17Zm-1.66,5.76v-4H163.8v4Zm3.25-12.63-1.33,1.31a20.19,20.19,0,0,0-3.35-3.31l1.23-1.17A26.37,26.37,0,0,1,170.69,207.07ZM174.76,220l-.49-1.88,1.26.08c.5,0,.76-.27.76-.8V206.76h-2.82v15.7h-1.84V205h6.48v12.86c0,1.45-.65,2.19-2,2.19Z"/><path d="M189.67,215.78l-1.49.38-.2-1a26.21,26.21,0,0,1-4.79,1.07l-.47-1.58a2.39,2.39,0,0,0,.8-.49,18.85,18.85,0,0,0,2.17-3.21c-.86.13-1.72.27-2.6.39l-.45-1.57a1.59,1.59,0,0,0,.74-.66,33,33,0,0,0,2.18-5.47l1.74.69a31.38,31.38,0,0,1-2.55,5.27c.59-.08,1.2-.16,1.82-.28l1.22-2.43,1.68.63a46.11,46.11,0,0,1-4.21,6.85c.77-.15,1.57-.33,2.39-.56-.16-.57-.31-1.12-.47-1.67l1.41-.45A33.48,33.48,0,0,1,189.67,215.78Zm-4.78,1.57a39,39,0,0,1-.51,4.84l-1.62-.51a23.57,23.57,0,0,0,.6-4.53Zm2.62,3.8-1.64.39c-.08-1.59-.2-3-.35-4.27L187,217C187.16,218.25,187.34,219.64,187.51,221.15Zm2.29-1.9a20.88,20.88,0,0,0,.67-2.78l1.59.35a23.14,23.14,0,0,1-1.45,5.09l-1.47-.92c.19-.45.37-.92.53-1.37l-1.26.59a29.87,29.87,0,0,0-.84-3.31l1.37-.47A28.42,28.42,0,0,1,189.8,219.25Zm3.74-14a7.8,7.8,0,0,0,.57-1.57l1.9.24a7.15,7.15,0,0,1-.55,1.33h5.11v9.42h-4.85a25.38,25.38,0,0,1,2,3.13l-1.34.92a26.88,26.88,0,0,0-2-3.25l1.27-.8h-5.37v-9.42Zm5.33,1.51H192v6.4h2.13l-.76-1a22.67,22.67,0,0,0,2.07-1.6c-.25-.22-.49-.42-.74-.61a21.42,21.42,0,0,1-1.86,1.39L192,210.3c.57-.37,1.11-.76,1.6-1.15-.37-.28-.76-.55-1.13-.79l.86-1c.45.29.88.6,1.31.9A14.1,14.1,0,0,0,195.8,207l1,.86c-.36.44-.71.85-1.08,1.22.25.21.49.39.72.59.45-.49.88-1,1.26-1.47l.94.86a16.13,16.13,0,0,1-1.22,1.49c.39.37.75.74,1.1,1.13l-.92,1.12c-.37-.45-.75-.86-1.16-1.27a23.2,23.2,0,0,1-2.11,1.68h4.58Zm-4.64,15.43c-1.14,0-1.7-.61-1.7-1.79v-4.13h1.74v3.78c0,.28.16.45.53.45h1.64a.72.72,0,0,0,.57-.23,4,4,0,0,0,.31-1.65l1.61.53a4.64,4.64,0,0,1-.71,2.66,2.49,2.49,0,0,1-1.48.38Zm7.38-1.94-1.51.7a32.24,32.24,0,0,0-1.84-4.48l1.57-.51A26.62,26.62,0,0,1,201.61,220.25Z"/><path d="M205.43,214.61v-1.76h18.21v1.76h-7.91v1.9h5.72v1.72h-5.72v2.19c.94.08,2,.12,3.27.12,1.8,0,3.33,0,4.55-.08l-.53,1.82c-1.43,0-2.74,0-3.88-.05-3.39,0-5.7-.28-6.95-.77a6.46,6.46,0,0,1-2.68-2.45,11.69,11.69,0,0,1-2.94,3.51l-1.27-1.59a10.78,10.78,0,0,0,3.76-5.81l1.84.31c-.2.73-.43,1.41-.67,2.06A5.45,5.45,0,0,0,213,219.9c.24.09.51.15.81.23v-5.52Zm15.49-10.32v7.38h-12.7v-7.38ZM219,207.21V206h-8.85v1.26Zm0,1.54h-8.85V210H219Z"/><path d="M48.31,243.5l-.57-2a18.85,18.85,0,0,0,4.34-6.5H48.15v-1.76h2.21c-.29-.87-.59-1.73-.94-2.59l1.84-.49a30.17,30.17,0,0,1,1,3.08h1.68v1.58a16.42,16.42,0,0,1-2,4.27v.08c.21.17.39.35.58.53A8.09,8.09,0,0,0,53.81,238l1.11,1.08a7.34,7.34,0,0,1-1.39,1.72,17.28,17.28,0,0,1,1.18,1.43l-1,1.59A22,22,0,0,0,52,241.3v7.82H50.07v-7.5C49.54,242.24,49,242.87,48.31,243.5Zm13.31-13.26v2.31h4.44v.92a22.58,22.58,0,0,1-.78,3.55l-1.76-.49a15.67,15.67,0,0,0,.63-2.2H61.62v3.78h3.56v1.67A12.28,12.28,0,0,1,62.85,245a18,18,0,0,0,3.94,2.37l-1.08,1.69a18.66,18.66,0,0,1-4.11-2.71,14.25,14.25,0,0,1-4.5,2.73l-1-1.73A13,13,0,0,0,60.23,245a11.93,11.93,0,0,1-2.62-5.09H57A17.11,17.11,0,0,1,54.63,249l-1.57-1.37a14.3,14.3,0,0,0,2.1-7.8v-7.3H59.7v-2.31ZM57,234.33v3.78H59.7v-3.78Zm6.34,5.58h-4a9.76,9.76,0,0,0,2.09,3.8A11.35,11.35,0,0,0,63.36,239.91Z"/><path d="M73.06,235.53V230.3H75v5.23h2.45v1.86H75v6.28c.94-.29,1.84-.62,2.72-1v1.9a56.1,56.1,0,0,1-7.09,2.18l-.49-1.94c1-.16,2-.37,2.92-.61v-6.83H70.42v-1.86Zm10.36,11a78.16,78.16,0,0,0,2.31-10.26l1.9.51a72.19,72.19,0,0,1-2.33,9.75h3.78v1.88H77v-1.88Zm-1.08-13.14a25.2,25.2,0,0,0-1.15-2.87l2-.32a32.42,32.42,0,0,1,1,3.19h4.33v1.86H77.78v-1.86Zm0,11.87-1.76.45a73.2,73.2,0,0,0-2.06-8.64l1.78-.58A79.14,79.14,0,0,1,82.34,245.24Z"/><path d="M95.29,235.51v-5.19h1.92v5.19H99.5v1.88H97.21v6.11c.7-.24,1.39-.53,2.07-.81v1.92a43.28,43.28,0,0,1-6.14,2l-.49-1.92c.9-.16,1.78-.37,2.64-.59v-6.71H93v-1.88ZM99,249l-1.43-1.24q3.25-4.14,3.31-13.25v-1.78h-1.7v-1.84h9.75v1a28,28,0,0,1-1,4.57h2.88v1.7a14.89,14.89,0,0,1-2.92,6.66,12.82,12.82,0,0,0,3.68,2.35l-.94,1.7a13.62,13.62,0,0,1-4-2.66,15.53,15.53,0,0,1-4.53,2.91l-1-1.74a14.51,14.51,0,0,0,4.21-2.64,15,15,0,0,1-2.72-6.46h0Q101.85,245.38,99,249Zm3.74-16.27v1.78c0,.68,0,1.33-.06,2h3.41a34.42,34.42,0,0,0,.8-3.76Zm3.82,10.69a13.79,13.79,0,0,0,2.41-5.11H104.2A12.9,12.9,0,0,0,106.53,243.44Z"/><path d="M128.52,233.39q-.12.42-.27.81a9.55,9.55,0,0,0,5.5,2.44l-.8,1.59a8.57,8.57,0,0,1-1.57-.37v8.38h-4a45.48,45.48,0,0,1,6.32,1.47l-.64,1.54a40.36,40.36,0,0,0-6.82-1.78l.63-1.23h-4.7l.84,1.09a22.41,22.41,0,0,1-6.5,1.9l-.88-1.5a26.64,26.64,0,0,0,6-1.49h-3.76V237.8h4.93l-.78-1.18c2.74-.49,4.35-1.68,4.86-3.56Zm-7,1.59v1.66H115.6V235Zm-.43-3.68v1.64H116V231.3Zm8.4,8.93v-1h-9.71v1Zm0,2.19v-.9h-9.71v.9Zm0,1.27h-9.71v1h9.71Zm-7-8.57-1.06-1.41a7.49,7.49,0,0,0,2.94-3.59l1.78.2c-.13.33-.25.66-.39,1h7.17v1.35a11.42,11.42,0,0,1-1.76,2.68l-1.32-1a9.07,9.07,0,0,0,1.06-1.39H124.8A10.81,10.81,0,0,1,122.47,235.12Zm8.73,2.68a9.8,9.8,0,0,1-3.7-2.29,7,7,0,0,1-3.72,2.29Z"/><path d="M140.57,232.69a17.89,17.89,0,0,0-.84-2l1.86-.51a15.55,15.55,0,0,1,.8,2.51h2.49v1.8h-7.07v-1.8Zm3.74,16.09h-1.78v-.88h-2.41v1h-1.78v-7.32h6Zm-.18-13v1.69h-5.6v-1.69Zm0,2.84v1.72h-5.6v-1.72Zm-1.6,7.56v-2.76h-2.41v2.76Zm5-7.66V232.9h-2.21V231H154v6.6a41,41,0,0,0,.51,8c.14.63.29,1,.41,1a2.52,2.52,0,0,0,.18-.84c0-.57.06-1.24.06-2l1.52.74a11.42,11.42,0,0,1-.56,3.78.92.92,0,0,1-.77.59,2.22,2.22,0,0,1-1.9-1.39c-.9-1.62-1.35-4.89-1.35-9.83V232.9h-2.7v5.58h2.27v1.86h-2.27V249H147.5v-8.66h-2.27v-1.86Z"/><path d="M163.52,246.45c1.71-.41,3.41-.88,5.11-1.43l.49,1.82c-2.33.73-4.85,1.39-7.52,2L161,247a1.32,1.32,0,0,0,.58-1.15V230.55h1.94V236h5.09v1.9h-5.09Zm8.58,2.08c-1.47,0-2.19-.77-2.19-2.33V230.48h2v5.71l6.13-.39v1.88l-6.13.41v7.76a.71.71,0,0,0,.79.82h2.91a1.13,1.13,0,0,0,.81-.37c.29-.28.47-1.47.55-3.51l1.87.61c-.23,2.5-.54,4-.95,4.44a2.48,2.48,0,0,1-1.79.69Z"/><path d="M201.18,231.18v1.9h-8.71v2.68c2.5,1.2,5,2.59,7.61,4.15l-1.17,1.75c-2.57-1.67-4.72-3-6.44-3.84V249.1h-1.94v-16h-7.64v-1.9Z"/><path d="M223,248.1l-1.65,1.15-1-1.68c-4.72.43-9.2.76-13.41,1l-.35-1.57c1.68-.9,3.41-3.07,5.17-6.46h-6.48v-1.9h8.18v-3.37h-6.89v-1.88h6.89v-3.09h2v3.09h6.85v1.88H215.5v3.37h8.16v1.9H214a24,24,0,0,1-4,6.21c4.4-.32,7.52-.59,9.41-.77-.82-1.23-1.72-2.48-2.7-3.78l1.55-1A56.08,56.08,0,0,1,223,248.1Z"/><rect class="cls-2" x="117.09" y="406.74" width="538.94" height="231.02"/><path d="M656,634.76H125.27c-2.25,0-5-.46-7.26,0a4.71,4.71,0,0,1-.92,0l3,3v-231l-3,3H647.84c2.25,0,5,.46,7.26,0a4.82,4.82,0,0,1,.93,0l-3-3v231c0,3.86,6,3.87,6,0v-231a3,3,0,0,0-3-3H138.9c-6.92,0-14-.41-20.89,0-.3,0-.62,0-.92,0a3,3,0,0,0-3,3v231a3,3,0,0,0,3,3H634.22c6.91,0,14,.41,20.88,0,.31,0,.62,0,.93,0C659.89,640.76,659.89,634.76,656,634.76Z"/><rect class="cls-2" x="117.09" y="637.76" width="538.94" height="12.19"/><path d="M656,634.76H138.9c-6.92,0-14-.41-20.89,0-.3,0-.62,0-.92,0a3,3,0,0,0-3,3V650a3,3,0,0,0,3,3H634.22c6.91,0,14,.41,20.88,0,.31,0,.62,0,.93,0a3,3,0,0,0,3-3V637.76c0-3.86-6-3.87-6,0V650l3-3H125.27c-2.25,0-5-.46-7.26,0a4.71,4.71,0,0,1-.92,0l3,3V637.76l-3,3H634.22c6.91,0,14,.41,20.88,0,.31,0,.62,0,.93,0C659.89,640.76,659.89,634.76,656,634.76Z"/><path class="cls-1" d="M464,50.79c0,17.44-2.13,46.67,4.28,63.58,2.38,6.29,7.15.41,16.85,3.29,6.5,1.94,16.79,1.52,24.06,1.77,18.79.62,35.73-1.37,54.24,0,12,.9,31.55.76,43.66,1.16,4.12.14,21.52,2.85,25.44,1.75,13.14-3.69,8.91-19.4,8.91-28,0-16.8-1.49-33.38-1.49-50.19,0-6.34,5.73-25.84-1.3-30.84S591.74,10.5,581.67,10c-11.65-.62-48.86.89-57.2.2,0,0-60.43-1.82-61.16,3.54S464,50.79,464,50.79Z"/><path d="M461,50.79c0,12.46-.67,24.92-.08,37.38a124.84,124.84,0,0,0,2.05,18.3c.79,3.93,1.64,10.16,5.19,12.72s8.05.47,11.86.64c3.07.14,6,1.25,9.06,1.68a87,87,0,0,0,10.21.74c15.47.39,30.87-.14,46.33-.29,14-.13,28,1.09,42,1.3,10.47.15,20.69.45,31.1,1.56,8.21.88,17.79,2.44,23.2-5.47,5.29-7.72,2.61-18.22,2.53-26.93-.15-16.22-2.28-32.67-1.46-48.88.44-8.81,4-18.08,1.3-26.85C642,9.43,635,8.54,628.44,7.83c-9.76-1-19.65-.91-29.45-.85-29.45.2-58.9.23-88.35-.07-8.27-.08-16.55-.07-24.81.21-6.62.23-13.81.18-20.25,2-5.44,1.49-5.45,5-5.48,10.06-.05,8.61.3,17.23.62,25.84q.11,2.91.23,5.82c.16,3.85,6.17,3.87,6,0q-.34-8.26-.59-16.53c-.12-4.16-.23-8.32-.25-12.49,0-1.4,0-2.81,0-4.21a16.6,16.6,0,0,0,.06-2c-.29-2.27.84-.46-.49-.24,2.91-.49,9-1.63,13.21-1.89,7.37-.45,14.76-.55,22.15-.57,9.82,0,19.64.41,29.46.48,17,.11,34.11-1,51.16-.38,16.17.57,32.61-1.23,48.69,1.09,2,.29,5.13.49,6.74,1.9,3.08,2.7,2.06,9.34,1.73,12.88-.39,4.15-1.23,8.24-1.7,12.39-.68,6-.12,12.34.11,18.41.5,13.42.46,27,1.47,40.37.58,7.79,1.21,19.61-9.63,19.61-7.8,0-15.5-1.77-23.28-2.05-11.94-.43-23.91-.24-35.85-.75-15.9-.68-31.56-.56-47.48-.32-7.47.12-15-.06-22.42-.23a67.85,67.85,0,0,1-11.57-.88c-2.64-.51-5.15-1.37-7.85-1.54-2.49-.15-5.18.82-7.59.53-2.66-.32-2.78-3.12-3.43-5.59A95.94,95.94,0,0,1,467,89.7c-.73-13,0-25.94,0-38.91C467,46.93,461,46.92,461,50.79Z"/><path class="cls-1" d="M477.79,28.19q-1.38,17.81-2,35.66a4.24,4.24,0,0,0,.63,3c.95,1.15,2.76,1.29,4.33,1.32q11.71.2,23.42-.15c1.54,0,3.26-.17,4.26-1.2a4.64,4.64,0,0,0,1-3,205.48,205.48,0,0,0,.35-33.47,3.88,3.88,0,0,0-.86-2.61,5,5,0,0,0-3.38-1,159.22,159.22,0,0,0-27.71,1.49"/><path d="M474.79,28.19q-.94,12.37-1.57,24.75c-.23,4.72-2.66,14.12,2.5,17.15,2,1.19,4.69,1,6.95,1.07,3.9.07,7.81.06,11.71,0,4.55-.05,12.94,1.41,16.37-2.58,1.42-1.66,1.53-3.7,1.73-5.78.41-4.24.61-8.52.72-12.78q.13-5.91-.05-11.83c-.1-3.19.25-7-.71-10.07-1.6-5.15-7.76-4.56-12.06-4.57a172.46,172.46,0,0,0-22.59,1.62c-3.78.49-3.83,6.5,0,6,4.88-.63,9.77-1.13,14.69-1.4q3.51-.2,7-.22c1.15,0,2.3,0,3.45,0,1.91,0,2.15-.26,3.23,1.39,1.52,2.32.95,6.51,1,9.19s.07,5.25,0,7.88-.13,5.25-.27,7.88c-.11,1.89.33,7.06-.94,8.38s-4.94.74-6.77.77c-2.6.06-5.21.09-7.81.1s-5.21,0-7.81,0c-3.79,0-4.8.53-4.82-3.31,0-11.18,1.12-22.52,2-33.67.29-3.85-5.71-3.83-6,0Z"/><path class="cls-3" d="M484.74,55.14a43.69,43.69,0,0,0-.3,4.85.64.64,0,0,0,.67.82,37.86,37.86,0,0,0,5.32.28.88.88,0,0,0,.71-.23.86.86,0,0,0,.14-.57l.05-4.15a.94.94,0,0,0-.2-.72,1,1,0,0,0-.46-.16,13.89,13.89,0,0,0-5.41.29"/><path class="cls-2" d="M485.17,43.83a43.69,43.69,0,0,0-.3,4.85.64.64,0,0,0,.67.82,37.86,37.86,0,0,0,5.32.28.88.88,0,0,0,.71-.23.87.87,0,0,0,.14-.58l.05-4.14a.94.94,0,0,0-.2-.72.88.88,0,0,0-.46-.16,16.67,16.67,0,0,0-5.93-.12"/><path d="M553.51,7.27c-1.21,5.21,1.56,12.32,8,11.39,4.83-.7,8.8-6.27,7.22-11-1.28-3.87-5.59-6.21-9.53-6-4.72.24-8,3.93-8.87,8.39-.7,3.52.59,7.13,4.23,8.3a10.57,10.57,0,0,0,8.51-1.3c2.76-1.72,4.58-4.81,3.68-8.1-1.29-4.75-7-7.33-11-3.94C551,9,554.09,17.24,560.4,17.21a6.3,6.3,0,0,0,5.74-4.72,8.36,8.36,0,0,0-1.78-8c-1.42-1.7-4.57-.79-5,1.32a20.07,20.07,0,0,1-.83,2.84c-1.06,2.85,3,5,5,2.92a3.85,3.85,0,0,0,1.26-3.76,3.24,3.24,0,0,0-.9-1.52,7.12,7.12,0,0,0-.69-.54c-.57-.33-.35-.07.64.78-1.78-3.43-7-.4-5.18,3a3.2,3.2,0,0,0,.82.93c1.06.92-.3-.5-.45-1V7.94l.26-.59,5,2.92a20.11,20.11,0,0,0,.84-2.84l-5,1.32a2.14,2.14,0,0,1,.3,2c-.06.2-.1.42-.25.52-.46.29.13,0,.06-.06-1-.34-1.22-1.89-.14-1.83.51,0,.84,1.07.82,1,.21.49.07.39.07.29,0,.25,0-.13,0-.11a2.16,2.16,0,0,1-.16.55c.22-.69-.41.39.07-.12-.2.21-.39.42-.6.61s.39-.26,0,0c-.14.1-.28.2-.43.29s-1.13.56-.58.33a8.36,8.36,0,0,1-1,.33c-.17.05-.94.18-.63.14a3.49,3.49,0,0,1-1.24-.07c-.69-.21,0,0-.31-.13s0,0,0,.06-.16-.42,0-.08c-.17-.5-.18.06-.06-.69.2-1.18.75-3.23,2.34-4a4,4,0,0,1,3.8.69,1.94,1.94,0,0,1,.89,1.37c0-.17,0,.19-.06.42a3.67,3.67,0,0,1-.62,1.15c-2.29,2.94-3.71-.07-3.13-2.55.87-3.75-4.92-5.36-5.79-1.59Z"/><path class="cls-1" d="M543.5,37.91,558.25,64l32.85,2.27S586.09,28.18,543.5,37.91Z"/><path d="M592.25,67.32l-34.61-2.39L542,37.23l1.31-.3c13.8-3.15,25.19-1.69,33.85,4.34,12.72,8.84,14.88,24.19,15,24.84ZM558.85,63l31,2.15C589.1,61.4,586,49.83,576,42.9c-7.9-5.49-18.31-6.94-30.93-4.3Z"/><path class="cls-2" d="M558.25,64,552,96.89s40.55,2.54,38.63-29.11Z"/><path class="cls-3" d="M541.94,39.54,558.25,64,552,96.89S524.9,90.6,524.9,71,533.07,42.43,541.94,39.54Z"/><path d="M552.35,32.84c-6.39,1.33-13.22,2.4-18.7,6.21s-9.16,10.14-10.92,16.58c-3.8,13.9-.23,29.93,12.58,37.66,6.63,4,14.82,7.28,22.63,7.3s16.18-3.31,22.92-7.13A23.08,23.08,0,0,0,592.5,78.12c1.55-6.82,2.06-15.61.28-22.4-2.1-8-9.84-14.4-16.74-18.39a34.21,34.21,0,0,0-23.69-4.49c-3.79.7-2.18,6.49,1.6,5.79,7.8-1.44,15.41,1.2,21.82,5.62,3.44,2.37,7.27,5.54,9.5,9.16s2.32,7.67,2.31,11.8c0,7.11-.13,15.22-5.83,20.37s-16.22,9-23.81,9-16.43-3.72-22.39-8.39c-6.38-5-8.33-13.14-8.17-20.94.16-7.41,2.69-15.63,8.62-20.46,5-4.06,11.86-4.91,18-6.17,3.78-.78,2.18-6.57-1.6-5.79Z"/><path class="cls-1" d="M559.45,63.86q14.58,2,29.32,2.72"/><path d="M558.65,66.75c10,1.37,20,2.34,30.12,2.83,3.86.18,3.85-5.82,0-6-9.54-.47-19-1.31-28.52-2.61-3.78-.52-5.41,5.26-1.6,5.78Z"/><path class="cls-1" d="M543.5,39.54l15.33,24"/><path d="M540.91,41.06l15.33,24c2.07,3.24,7.27.24,5.18-3L546.09,38c-2.08-3.25-7.27-.24-5.18,3Z"/><path class="cls-1" d="M558.25,64A312.07,312.07,0,0,0,552,95.46"/><path d="M555.36,63.17q-3.92,15.6-6.3,31.49c-.57,3.78,5.22,5.41,5.79,1.6q2.39-15.9,6.29-31.5c.94-3.74-4.85-5.34-5.78-1.59Z"/><path d="M585.74,46.45c.79-1.93,1.43-3.9,2.2-5.84l-1.45,1.1c3.77-.16,7.49.19,11.25.26,1.93,0,1.93-3,0-3-3.76-.07-7.48-.42-11.25-.26a1.59,1.59,0,0,0-1.45,1.1c-.76,1.94-1.41,3.92-2.2,5.84s2.17,2.56,2.9.8Z"/><path d="M605.82,38.57c6.49.86,13,.35,19.54.31a1.5,1.5,0,0,0,0-3h-1.75a1.5,1.5,0,0,0,0,3h1.75v-3c-6.52,0-13.05.55-19.54-.31-1.91-.26-1.89,2.74,0,3Z"/><path d="M604.74,45.38c7,0,13.93-.51,20.86.31v-3h-1.45a1.5,1.5,0,0,0,0,3h1.45c2,0,1.87-2.78,0-3-6.93-.82-13.9-.35-20.86-.31a1.5,1.5,0,0,0,0,3Z"/><path d="M604.74,52c7,0,13.93-.51,20.86.31v-3h-1.45a1.5,1.5,0,0,0,0,3h1.45c2,0,1.87-2.78,0-3-6.93-.82-13.9-.35-20.86-.31a1.5,1.5,0,0,0,0,3Z"/><path d="M600.3,89.76c6.49.86,13,.35,19.54.31a1.5,1.5,0,0,0,0-3h-1.75a1.5,1.5,0,0,0,0,3h1.75v-3c-6.52,0-13.05.55-19.54-.31-1.9-.25-1.89,2.75,0,3Z"/><path d="M599.22,96.58c7,0,13.93-.51,20.86.31v-3h-1.45a1.5,1.5,0,0,0,0,3h1.45c2,0,1.87-2.78,0-3-6.93-.82-13.9-.35-20.86-.31a1.5,1.5,0,0,0,0,3Z"/><path d="M599.22,103.2c7,0,13.93-.51,20.86.31v-3h-1.45a1.5,1.5,0,0,0,0,3h1.45c2,0,1.87-2.78,0-3-6.93-.82-13.9-.35-20.86-.31a1.5,1.5,0,0,0,0,3Z"/><path d="M497.3,86c6.49.86,13,.35,19.54.31a1.5,1.5,0,0,0,0-3h-1.75a1.5,1.5,0,0,0,0,3h1.75v-3c-6.52,0-13.05.55-19.54-.31-1.91-.25-1.89,2.75,0,3Z"/><path d="M496.22,92.82c7,0,13.93-.51,20.86.31v-3h-1.45a1.5,1.5,0,0,0,0,3h1.45c2,0,1.87-2.78,0-3-6.93-.82-13.9-.35-20.86-.31a1.5,1.5,0,0,0,0,3Z"/><path d="M496.22,98.32c7,0,13.93-.51,20.86.31v-3h-1.45a1.5,1.5,0,0,0,0,3h1.45c2,0,1.87-2.78,0-3-6.93-.82-13.9-.35-20.86-.31a1.5,1.5,0,0,0,0,3Z"/><path d="M580.3,92.47c.79,1.92,1.44,3.9,2.2,5.84a1.58,1.58,0,0,0,1.45,1.1c3.77.16,7.49-.18,11.25-.26,1.93,0,1.93-3,0-3-3.76.08-7.48.42-11.25.26l1.45,1.1c-.77-1.94-1.41-3.91-2.2-5.84-.73-1.76-3.63-1-2.9.8Z"/><path d="M509.9,80.82l5-7.42-1.3.74h11.5a1.5,1.5,0,0,0,0-3h-5.43c-1.84,0-4.22-.42-6,0-1.5.35-2.14,1.93-3,3.15l-3.38,5c-1.09,1.6,1.51,3.11,2.59,1.51Z"/><path d="M484.1,32.52a35,35,0,0,0-.29,4.58,2.32,2.32,0,0,0,1.51,2.49,16.56,16.56,0,0,0,4.11.37c1.2,0,2.9.28,3.75-.81.73-.92.47-2.48.49-3.56s.3-2.72-.5-3.7-2.09-.85-3.12-.88a15.85,15.85,0,0,0-4.33.47c-1.87.44-1.08,3.34.8,2.89a12.85,12.85,0,0,1,2.54-.36,8.18,8.18,0,0,1,1,0l.5,0c.52.18.63.1.32-.23-.26-.88-.19.72-.19.75v1l0,1.3v.52c-.07.55.15.4.64-.44,0-.06-4.79-.21-4.79-.22.24.73.34.84.31.35v-.54c0-.45,0-.9.05-1.35.05-.9.14-1.8.24-2.69.23-1.91-2.77-1.9-3,0Z"/><path d="M495.82,37.84l7.72,0a1.5,1.5,0,0,0,0-3l-7.72,0a1.5,1.5,0,0,0,0,3Z"/><path d="M483.67,43.83a30.31,30.31,0,0,0-.3,4.85A2.2,2.2,0,0,0,485.14,51a22.7,22.7,0,0,0,4.66.33c1.21,0,2.62,0,3.19-1.24s.24-2.69.26-3.92.17-2.65-1-3.36a8.74,8.74,0,0,0-3.42-.59,13.48,13.48,0,0,0-4,.21c-1.89.42-1.09,3.31.79,2.9a13,13,0,0,1,4.31,0l.63.09c.41.1.33-.08-.25-.54a8.65,8.65,0,0,0,0,1l0,1.56c0,.34-.16,1,0,1.3-.07.39,0,.36.32-.09.49-.36.42-.48-.21-.34a5.38,5.38,0,0,0-1.33,0l-1.34-.07c-.35,0-1-.24-1.32-.11-.33-.11-.37,0-.12.28.18.49.23.41.16-.23a10.1,10.1,0,0,0,0-1.35c.05-1,.14-2,.25-3,.23-1.91-2.77-1.9-3,0Z"/><path d="M495.39,49.15l7.72,0a1.5,1.5,0,0,0,0-3l-7.72,0a1.5,1.5,0,0,0,0,3Z"/><path d="M483.24,55.14a35.21,35.21,0,0,0-.29,4.58,2.31,2.31,0,0,0,1.51,2.49,16.61,16.61,0,0,0,4.11.37c1.2,0,2.9.28,3.75-.81.73-.92.47-2.47.49-3.56s.3-2.71-.5-3.69-2.08-.86-3.12-.89a16.25,16.25,0,0,0-4.33.47c-1.87.44-1.08,3.34.8,2.89a12.85,12.85,0,0,1,2.54-.36c.33,0,.66,0,1,0l.5,0c.52.18.63.11.32-.23-.26-.88-.19.73-.19.75v1l0,1.3V60c-.07.55.15.4.64-.44,0-.06-4.79-.21-4.79-.22.24.73.34.84.31.35v-.54c0-.45,0-.9.05-1.35.05-.9.14-1.79.24-2.69.23-1.91-2.77-1.9-3,0Z"/><path d="M495,60.46l7.72,0a1.5,1.5,0,0,0,0-3l-7.72,0a1.5,1.5,0,0,0,0,3Z"/><rect x="181.55" y="453.64" width="410.01" height="141.7" rx="70.85" ry="70.85"/><path class="cls-2" d="M435,211.74a107.89,107.89,0,0,1,10,33.85s46.53,4.08,57.33,37.26,28.95,63.79-6.71,95.5c-2.46,2.19-4.67,4.31-6.68,6.35h53S542.93,224,435,211.74Z"/><path class="cls-2" d="M542.92,385.7H486.57l1.67-1.7c2.09-2.13,4.35-4.28,6.73-6.39,30.43-27.07,21-53.45,11-81.37-1.53-4.27-3.11-8.68-4.54-13.09-10.47-32.16-56-36.53-56.47-36.57l-.82-.07-.09-.81a106.1,106.1,0,0,0-9.92-33.51l-.84-1.65,1.84.21c24.87,2.82,46,13.75,62.88,32.51,13.45,15,24.18,34.89,31.91,59.25,13.14,41.38,13,81.8,13,82.2Zm-51.55-2h49.55c-.08-6.44-1-43.14-13-80.63-7.64-24.07-18.24-43.75-31.49-58.49-16.1-17.91-36.2-28.54-59.78-31.62a109.59,109.59,0,0,1,9.22,31.72c6.31.76,47.3,6.88,57.38,37.86,1.43,4.37,3,8.77,4.53,13,10.24,28.58,19.92,55.58-11.52,83.54C494.59,380.62,492.93,382.17,491.37,383.7Z"/><path class="cls-2" d="M303.58,356c-3.79-25.1-8.52-66.49,47.41-103.21,0,0,7.17-.44,6.24-9.23-.52-4.95-2.29-15.51,1-25.72-64.54,17.19-74.57,68-87.3,166.86h59C319.2,379.73,305.79,370.69,303.58,356Z"/><path class="cls-2" d="M334.47,385.7H269.8l.14-1.12c12.65-98.16,22.31-150.2,88-167.7l1.77-.47-.57,1.74c-2.88,8.94-1.8,18.1-1.15,23.57.07.64.14,1.22.2,1.74.33,3.19-.29,5.75-1.85,7.6a8.19,8.19,0,0,1-5,2.69c-56.56,37.25-50.2,79.42-46.77,102.1,2.14,14.22,15.2,23,25.78,27.95Zm-62.4-2h53.6c-10.14-5.38-21.06-14.17-23.08-27.56h0c-2.09-13.8-3.87-30,1.34-47.67,6.31-21.39,22-40.4,46.52-56.52l.22-.15h.26a6.25,6.25,0,0,0,3.94-2c1.18-1.41,1.64-3.46,1.37-6.07-.06-.52-.12-1.09-.2-1.72-.62-5.28-1.64-13.9.72-22.67C294.07,236.84,284.42,288,272.07,383.7Z"/><path class="cls-2" d="M646.5,241.79c.56,12.09,9.28,14.73,19.56,16.25,10.63,1.56,24.4,2,33.46-4.76,5.07-3.79,3.83-13.28,1.57-18.34-5.24,3.11-7.87,8.18-14.17,10.28a52.49,52.49,0,0,1-15.16,3.07c-5.62.18-10.69-1.61-15.81-3.71-3.55-1.46-8.73-5.24-11.62-5.68"/><path d="M609.91,205.18c0,18.79-.79,37.58-.28,56.37a228.65,228.65,0,0,0,2,26.79c.7,4.81.43,12.14,5,15,8,5,16.82,4.47,25.87,4.94,12.63.64,25.21.84,37.78,2.33,9.74,1.16,19.57.87,29.35,1.37,6.47.33,13.21,3.69,19.71,2.68,14.41-2.24,10.52-28.44,10.27-38-.32-12.68-.32-25.37-.63-38-.27-11.16-.85-22.42-.44-33.58.49-13.67,2.09-27.31,1.41-41-.23-4.43-.26-10.42-3.29-14-3.54-4.2-10.66-4.6-15.68-5-8-.65-16-.2-24-.23-5.65,0-11.28-.36-16.94-.29-8.32.12-16.64.37-25,.54-5.84.11-12,.65-17.78-.11-3.82-.51-3.78,5.5,0,6,11,1.44,22.87,0,33.94-.26,10.14-.22,20.25.22,30.37.07,7-.1,14-.31,21,.43,4.75.51,9.48.79,10.59,6,2.63,12.24.63,26.15-.14,38.51-1.08,17.6-.26,35.21.14,52.82.24,10.34.09,20.71.5,31,.3,7.52,1.23,15.73-.91,23.06-.7,2.42-1.9,5.61-4.61,6.22-3.24.73-7.9-1.05-11.08-1.71-7.1-1.47-14.32-1.27-21.54-1.49-9.82-.3-19.46-1.7-29.25-2.29-11.11-.68-22.26-.92-33.38-1.36-4-.17-10.49-.71-13.55-3.89.22.22-.14-.36-.25-1.33-.21-1.81-.61-3.6-.94-5.39-1.71-9.06-2.19-18.33-2.49-27.52-.63-19.54.19-39.06.22-58.6,0-3.86-6-3.86-6,0Z"/><path d="M667,142.8c-1.21,5.21,1.56,12.32,8,11.39,4.83-.71,8.79-6.27,7.22-11-1.28-3.87-5.6-6.21-9.53-6-4.72.24-8,3.93-8.87,8.39-.71,3.52.59,7.13,4.23,8.3a10.57,10.57,0,0,0,8.51-1.3c2.75-1.72,4.58-4.81,3.68-8.1-1.3-4.75-7-7.33-10.95-3.94-4.76,4.05-1.69,12.29,4.62,12.26a6.31,6.31,0,0,0,5.74-4.72,8.39,8.39,0,0,0-1.78-8c-1.42-1.7-4.57-.79-5,1.32a18.87,18.87,0,0,1-.84,2.84c-1.05,2.85,3,5,5,2.92a3.85,3.85,0,0,0,1.25-3.76,3.14,3.14,0,0,0-.89-1.52,6.2,6.2,0,0,0-.7-.54c-.56-.33-.35-.07.65.78-1.78-3.43-7-.4-5.18,3a3.06,3.06,0,0,0,.82.93c1.06.92-.31-.5-.45-1v-1.59l.26-.59,5,2.92a20.46,20.46,0,0,0,.83-2.84l-5,1.32a2.17,2.17,0,0,1,.3,2c-.06.2-.1.42-.25.52-.46.28.13,0,.06-.06-1-.34-1.22-1.89-.15-1.83.52,0,.85,1.07.83,1,.21.5.06.4.06.3,0,.25,0-.13,0-.11a2.16,2.16,0,0,1-.16.55c.21-.69-.41.39.07-.12-.2.21-.39.42-.6.61s.38-.26,0,0c-.14.1-.28.2-.43.29s-1.13.56-.58.33a9.16,9.16,0,0,1-1,.33c-.16,0-.93.18-.62.14a3.47,3.47,0,0,1-1.24-.07c-.69-.21,0,0-.31-.13s0,0,0,.06-.16-.42,0-.08c-.17-.5-.18.06-.06-.69.2-1.18.75-3.23,2.34-4a4,4,0,0,1,3.8.69,1.9,1.9,0,0,1,.88,1.37c0-.17,0,.19,0,.42a3.67,3.67,0,0,1-.62,1.15c-2.29,2.94-3.71-.07-3.14-2.55.87-3.76-4.91-5.36-5.78-1.59Z"/><circle cx="669.64" cy="225.25" r="12.8"/><path d="M641.07,232c-.25-6.59,5.45-12.17,10.25-16a33.81,33.81,0,0,1,20.73-7.22A58.77,58.77,0,0,1,694,212.92c2.73,1,7.06,2.15,7.45,5.43.32,2.76-1.8,6.78-2.94,9.15-4.48,9.38-9.88,16.47-20.67,18.37-14.85,2.63-29.81-1.4-37.14-15.42-1.78-3.42-7-.39-5.18,3,6.64,12.7,19.09,19.07,33.19,19.07,11.64,0,22.69-2.86,29.7-12.71,4.45-6.25,13.75-21.17,6.47-28-4.33-4-12.22-6-17.81-7.38a55.1,55.1,0,0,0-23.25-.8c-12.35,2.42-29.24,14.2-28.71,28.29.15,3.85,6.15,3.87,6,0Z"/><path class="cls-1" d="M560.66,114.78c0,29.95-5.2,57.63-3.81,87.49,23.32,6.07,53.74,2.62,78.26,1.94.71-17.07.06-35.58.08-53.13,0-12,1.69-30.2-12.28-33.7-18.47-4.63-42.91-2.6-62.25-2.6h3.48"/><path d="M557.66,114.78c-.1,29.22-5,58.24-3.81,87.49a3.05,3.05,0,0,0,2.2,2.89c25.77,6.45,52.86,2.83,79.06,2.05a3.07,3.07,0,0,0,3-3c.66-17.08.1-34.16.08-51.24,0-9.68,1.26-20.71-3.38-29.62-5.42-10.4-18.83-10.78-29.17-11.53-15-1.08-30-.08-45,0-3.86,0-3.86,6,0,6h3.48c3.86,0,3.86-6,0-6h-3.48v6c13.32,0,26.64-.81,40-.24,10,.42,26-.35,29.93,11.09,3.16,9.26,1.6,20.41,1.67,30,.1,15.18.47,30.37-.11,45.55l3-3c-25.61.77-52.27,4.47-77.47-1.83l2.21,2.89c-1.22-29.25,3.71-58.27,3.81-87.49,0-3.87-6-3.87-6,0Z"/><path d="M571.68,188.92c13.56-.68,27,2.47,40.6,2.47a1.5,1.5,0,0,0,0-3h-.17a1.5,1.5,0,0,0,0,3h.17v-3c-13.55,0-27-3.15-40.6-2.47-1.93.1-1.94,3.1,0,3Z"/><path d="M571.94,181.08c2.53-.82,5.65-.28,8.28-.25,4.09,0,8.18,0,12.27.26,7,.36,14.41-.2,21.25,1.53,1.87.48,2.67-2.41.8-2.89-7.12-1.81-14.76-1.28-22-1.64-4.41-.22-8.81-.19-13.22-.26-2.67-.05-5.54-.48-8.13.36-1.82.59-1,3.49.8,2.89Z"/><path d="M568.77,167.12c9.6,1.36,19.27,1.08,28.94,1.49,7.58.32,15.4,1,22.94-.09,1.91-.28,1.1-3.17-.79-2.89-7.25,1.05-14.87.29-22.15,0-9.39-.4-18.82-.07-28.14-1.38-1.89-.27-2.71,2.62-.8,2.89Z"/><path d="M582.69,165.92c1-2.84-.35-10-.45-14.66-2.84-.24-5.62-.44-8,1.55.2,4.25-.21,9.34.73,13.39C575,166.2,582.41,166.73,582.69,165.92Z"/><path d="M584.13,166.32c1.36-4.74-.23-10.24-.39-15.06a1.53,1.53,0,0,0-1.5-1.5c-2.77-.22-8.56-.48-9.52,3.05-.5,1.83,0,4.83.09,6.77a38.29,38.29,0,0,0,.69,7A1.54,1.54,0,0,0,575,167.7c2.16.14,7.17,1.14,8.8-.72,1.27-1.44-.85-3.57-2.12-2.12-.54.61-5.48-.08-6.68-.16l1.45,1.1c-.88-4.27-.52-8.66-.68-13l-.74,1.3c2.3-1.66,4.58-1.56,7.26-1.35l-1.5-1.5c.15,4.49,1.75,9.87.5,14.26A1.5,1.5,0,0,0,584.13,166.32Z"/><path d="M598.31,166.52c1.36-8.81.36-19.83-.26-25.22-2.1-.45-5.33.81-7.53.86-1.87,7.55,0,16.22-1.17,24.06C589.35,166.22,598.18,167.39,598.31,166.52Z"/><path d="M599.76,166.91c1.16-8.51.74-17.09-.21-25.61a1.56,1.56,0,0,0-1.5-1.5c-2.58-.22-5,.61-7.53.86a1.56,1.56,0,0,0-1.45,1.1c-1.71,8.09-.19,16.31-1.22,24.46-.11.87.79,1.4,1.5,1.5,2.5.32,8,1.9,10-.14,1.36-1.38-.76-3.5-2.12-2.12-.67.67-6.65-.58-7.9-.74l1.5,1.5c1-7.87-.54-15.86,1.12-23.66l-1.45,1.1c2.51-.24,5-1.07,7.53-.86l-1.5-1.5c.92,8.22,1.44,16.6.31,24.82C596.61,168,599.5,168.82,599.76,166.91Z"/><path d="M612,168c2.09-.82,1.27-21.75,1.36-32.42-1.56.38-7.09.74-8.19,1.89-1.27,1.32-.56,6.26-.49,7.82.36,7.27,1,15.21-.33,22.47C604.31,167.8,608.84,169.25,612,168Z"/><path d="M612.71,169.33c2.81-2,2.07-8.46,2.14-11.37.17-7.45-.07-14.89,0-22.34a1.52,1.52,0,0,0-1.9-1.44c-4.57.89-9.6.3-10,6-.68,9.1,1.46,18.08,0,27.25a1.55,1.55,0,0,0,1,1.85,15.28,15.28,0,0,0,8.45.23,1.5,1.5,0,0,0-.8-2.89,12.11,12.11,0,0,1-6.85-.24l1,1.85c1.2-7.31.89-14.66.44-22-.12-2-1.19-6.43.64-7.88,1.39-1.11,5.2-.9,6.89-1.23l-1.9-1.45c0,6,.11,12,.08,18,0,2,.61,12.18-.7,13.12C609.64,167.85,611.14,170.46,612.71,169.33Z"/><path d="M585.32,110.32c-.8,4.18-.94,9.57,1.89,13.07,3.6,4.46,9.82,1.81,12.9-1.9a10.3,10.3,0,0,0,.25-12.74c-2.72-3.74-7.66-5.72-11.94-3.37-3.76,2.07-6.6,7.31-5.11,11.55,1.27,3.57,5.21,5.48,8.84,5.24,4-.27,7.27-3,7.42-7.11.19-5.56-4.31-9.91-9.66-7.15-1.9,1-4.47,2.84-4.78,5.11a5.48,5.48,0,0,0,9.14,4.3c1.9-2,2.83-6.89.21-8.57-2.81-1.78-5.17,1.61-4.11,4.11.54,1.27,2.16,3.53,3.61,3.79a3,3,0,0,0,3.69-3.69l0-.09-.3,2.31a4.51,4.51,0,0,0,.76-4.88,4.25,4.25,0,0,0-1.36-1.47c-.43-.31-.71-.73-.39-.16-1.86-3.38-7-.36-5.18,3a4.48,4.48,0,0,0,2.09,2c.54.39.46.08-.24-1-.16-1.25-.45-1.45-.86-.59a2.9,2.9,0,0,0-.28,2.39l3.69-3.69c2.08.37,1.21,1.07.88.32.14.32-.17-.24-.23-.33a5.84,5.84,0,0,1-.68-1l-4.1,4.1,0,0L590,111.37s-.14,1.91-.15,1.91c.33.37-.47-.07.09-.1,0,0,.55-.35.49-.31.21-.12.5.07.67,0-.72.29.26-.14,0,.07s-.49-.7-.16,0c-.27-.61.44,2.18-.25,1.73,0,0,.74-.69,1-.91a6.8,6.8,0,0,1,1.83-.85c-.05.14-.63-.22-.64-.25s.25.38.25.35a11.88,11.88,0,0,0,.36,1.5c.06.69-.09.94-.34,1.17-.09.09-.43.31,0,0a2.64,2.64,0,0,1-.46.27c.53-.2-.52.13-.71.17-.51.1.7,0-.18,0h-.57a2.22,2.22,0,0,1-.89-.16,2.37,2.37,0,0,1-1.18-.67c.2.22-.32-.51-.18-.14-.23-.6-.23-.23-.16-.93.12-1.17,1.52-3.61,3.23-3.94a2.64,2.64,0,0,1,1.62.34,5,5,0,0,1,2,1.88,4.14,4.14,0,0,1-.09,5,6.63,6.63,0,0,1-3.34,2.24c-.2,0-.48-.12-.22.06a2.26,2.26,0,0,1-.54-.78c-.93-2-.84-4.94-.42-7.16.72-3.77-5.06-5.39-5.78-1.59Z"/><path d="M677.2,202.27c3.28-8,5.79-16.32,9-24.36L684.73,179c4.51-.16,9,.13,13.52.23,1.93,0,1.93-3,0-3-4.51-.1-9-.39-13.52-.23a1.56,1.56,0,0,0-1.45,1.1c-3.18,8-5.69,16.35-9,24.35-.74,1.78,2.17,2.56,2.89.8Z"/><path d="M707.33,176.21c3.38.79,6.79.36,10.22.33a1.5,1.5,0,0,0,0-3h-.88a1.5,1.5,0,0,0,0,3h.88v-3c-3.14,0-6.34.5-9.42-.22-1.88-.44-2.68,2.45-.8,2.89Z"/><path d="M707.19,182.23c3.35,0,6.77-.48,10.08.21l.4-2.94h-.73a1.5,1.5,0,0,0,0,3h.73c1.65,0,2.09-2.6.4-2.95-3.61-.75-7.24-.36-10.88-.32a1.5,1.5,0,0,0,0,3Z"/><path d="M674.19,239.21c5.38,7.88,8.1,17.49,12.55,25.87l2.59-1.51a42.72,42.72,0,0,0-2.25-3.66c-1.16-1.51-3.77,0-2.59,1.51.86,1.13,1.5,2.45,2.25,3.66a1.5,1.5,0,0,0,2.59-1.51c-4.45-8.39-7.18-18-12.55-25.88-1.08-1.58-3.68-.08-2.59,1.52Z"/><path d="M686.33,273.81c6.41,0,12.82-.25,19.23-.27a1.5,1.5,0,0,0,0-3c-6.41,0-12.82.24-19.23.27a1.5,1.5,0,0,0,0,3Z"/><path d="M686.6,280.05a165.61,165.61,0,0,1,21.13.81c1.91.24,1.89-2.76,0-3a165.61,165.61,0,0,0-21.13-.81,1.5,1.5,0,0,0,0,3Z"/><path d="M648,258.11a61.24,61.24,0,0,0,33.54,6.23c7.18-.68,18.83-1.95,22.31-9.48,1.61-3.48-3.56-6.53-5.18-3-2.76,6-15.06,6.5-20.51,6.74A54.74,54.74,0,0,1,651,252.93c-3.44-1.73-6.49,3.44-3,5.18Z"/><path d="M649,261.27c-2.61,2-5.45,3.72-7.32,6.49-1.07,1.61,1.52,3.12,2.59,1.52,1.55-2.31,4.08-3.76,6.24-5.42,1.51-1.16,0-3.77-1.51-2.59Z"/><path d="M629.21,274.63c6.14,0,12.28.5,18.42.54a1.5,1.5,0,0,0,0-3c-6.14,0-12.28-.51-18.42-.54a1.5,1.5,0,0,0,0,3Z"/><path d="M629.21,281.44c6.14,0,12.28.5,18.42.54a1.5,1.5,0,0,0,0-3c-6.14,0-12.28-.51-18.42-.54a1.5,1.5,0,0,0,0,3Z"/><circle cx="410.12" cy="231.65" r="2.69"/><path d="M408.36,226.52c2.64-.33,6.33-.6,7.81,2.2,2.33,4.45-2.83,7.49-6.56,7.23a9.67,9.67,0,0,1-4.22-.91c-1.23-.78-1.47-2.1-1.35-3.55a5.78,5.78,0,0,1,4.72-5c1.88-.43,1.08-3.32-.8-2.89a8.69,8.69,0,0,0-6.86,9.12c.25,5.19,5.08,6.47,9.71,6.33,5.08-.15,9.51-4.22,8.71-9.52-.84-5.47-6.56-6.56-11.16-6C406.47,223.75,406.45,226.75,408.36,226.52Z"/><path d="M381.51,226.52c2.64-.33,6.33-.6,7.8,2.2,2.34,4.45-2.83,7.49-6.55,7.23a9.61,9.61,0,0,1-4.22-.91c-1.23-.78-1.48-2.1-1.35-3.55a5.77,5.77,0,0,1,4.72-5c1.88-.43,1.08-3.32-.8-2.89a8.69,8.69,0,0,0-6.86,9.12c.25,5.19,5.07,6.47,9.7,6.33,5.09-.15,9.52-4.22,8.71-9.52-.84-5.47-6.55-6.56-11.15-6C379.62,223.75,379.59,226.75,381.51,226.52Z"/><circle cx="383.47" cy="231.65" r="2.69"/><path d="M406.93,214.56a3.44,3.44,0,0,0-2.62.69,2.55,2.55,0,0,0-.46,2.95c.78,1.43,2.94,1.37,4.32,1.08,1.83-.38,3.78-2.45,2.11-4.19a3.94,3.94,0,0,0-5.08-.15c-1,1.05-.22,2.56.9,3.1a2.81,2.81,0,0,0,3.2-.47,1.53,1.53,0,0,0-.66-2.51l-.24-.08a1.5,1.5,0,0,0-1.84,1,1.54,1.54,0,0,0,1,1.85l.24.09-.66-2.51c.05,0,.14-.06.19-.1s0,0,0,0,.06.06.05,0c-.09-.29.36.83.26.3l-.39,1.46c.11-.12.1-.12,0,0s-.12.06,0,0a1.83,1.83,0,0,1,.27,0h.37l.15,0q.27.09,0,0c.11.08.12.07,0,0a.73.73,0,0,1-.15-.75q.33-.48.12-.27c-.07.07-.07.07,0,0-.22.09-.54.27-.63.28.18,0-.18,0-.22,0l-.49,0h-.59c.16,0,.16,0,0,0s-.17,0-.05,0a.58.58,0,0,1,.37.32c.31.5,0,.46-.19.82-.08.13-.26,0,0,0a5.15,5.15,0,0,0,.68,0,1.5,1.5,0,0,0,0-3Z"/><path d="M387.06,214.56a3.42,3.42,0,0,0-2.62.69,2.55,2.55,0,0,0-.46,2.95c.78,1.43,2.94,1.37,4.31,1.08,1.83-.38,3.79-2.45,2.12-4.19a3.94,3.94,0,0,0-5.08-.15c-1,1.05-.22,2.56.89,3.1a2.82,2.82,0,0,0,3.21-.47,1.53,1.53,0,0,0-.66-2.51l-.24-.08a1.51,1.51,0,0,0-1.85,1,1.54,1.54,0,0,0,1.05,1.85l.24.09-.66-2.51c.05,0,.13-.06.19-.1s0,0,0,0,.07.06,0,0c-.09-.29.37.83.27.3l-.39,1.46c.11-.12.1-.12,0,0s-.12.06,0,0a1.89,1.89,0,0,1,.28,0H388l.15,0c.18.06.19.05,0,0q.18.12,0,0a.71.71,0,0,1-.15-.75q.31-.48.12-.27c-.07.07-.07.07,0,0-.22.09-.54.27-.63.28.18,0-.18,0-.23,0l-.48,0h-.59c.16,0,.16,0,0,0l-.06,0a.57.57,0,0,1,.38.32c.31.5,0,.46-.2.82-.07.13-.25,0,0,0a5.15,5.15,0,0,0,.68,0,1.5,1.5,0,0,0,0-3Z"/><path d="M393,229.85c-.58,2.47-2,7.22.73,9,2.49,1.63,6.06,0,5.68-3.17a1.53,1.53,0,0,0-1.1-1.45l-.11,0c-1.88-.39-2.69,2.5-.8,2.89l.12,0-1.11-1.44c.07.5-.29,1.14-.9.71-.42-.29-.25-1.13-.25-1.59a17.41,17.41,0,0,1,.63-4.12c.45-1.88-2.44-2.68-2.89-.8Z"/><path d="M383,246.07c8.79-2.16,19.08-1.56,28.07-1.56a1.5,1.5,0,0,0,0-3c-9.33,0-19.81-.56-28.87,1.66-1.87.46-1.08,3.36.8,2.9Z"/><path d="M360.21,256.5c0-4.87.36-9.85-.1-14.7a124.71,124.71,0,0,1-1-13.78c.14-9.85,5-18,12.85-23.69,7.16-5.21,17.66-8.05,26.47-8.5a135.81,135.81,0,0,1,14,0c4.36.24,9.12,2.9,12.76,5.27s6.61,6.69,8.53,10.51c1.22,2.42,1.47,5,2.43,7.49.75,1.95,1.9,3.74,2.57,5.72,1.29,3.82,1.1,8.41,2,12.43.7,3.05.1,7.42,1.91,10.1,2.15,3.21,7.81,4.08,11.22,5,2.71.75,5.45,1.43,8.16,2.2,1.35.38,3.92.75,4.92,1.58,2.95,2.45,7.22-1.77,4.24-4.24-2.58-2.15-6.35-2.81-9.51-3.66-2.41-.65-4.83-1.27-7.24-2-1.68-.48-4.61-.83-6-2-1.23-1-.61-.46-.83-2.11s-.46-3.24-.78-4.88c-.76-3.9-1-7.78-1.7-11.67-.63-3.52-2.66-6.44-3.76-9.81-1.35-4.16-2.24-7.32-4.81-11-4.3-6.15-8.7-9.48-15.48-12.71s-14.44-2.29-21.92-2.33c-7.24,0-15.7,2.26-22.38,5a42.12,42.12,0,0,0-16.65,12.35,35.19,35.19,0,0,0-7,20,88.8,88.8,0,0,0,.77,12.84c.68,5.46.38,11,.36,16.5,0,3.86,6,3.86,6,0Z"/><path d="M395.09,249.24c-3.85-.47-5.9,3.27-5,6.67a4.84,4.84,0,0,0,2.94,3.45c1.95.64,3.78-.41,5.22-1.67l-2.36-.3c1.85,3,5.3,4.76,8,1.65,1.52-1.74,2.92-5.87.09-7.17-1.74-.81-3.27,1.78-1.52,2.59.2.09.17.24.11.68a4,4,0,0,1-.84,1.83c-1.29,1.59-2.46.25-3.28-1.1a1.53,1.53,0,0,0-2.36-.3c-1.36,1.2-2.79,1.37-3.19-.67-.33-1.68.37-2.88,2.14-2.66s1.89-2.77,0-3Z"/><path class="cls-1" d="M400.8,208.48c6.29-1.53,14-2.56,14.11-10.53.15-8.78-4.09-17.66-12.7-20.54-7.09-2.36-18.85,1-23.26,7.13-4.83,6.75-1.29,16.63,5.11,20.94C384.06,205.48,391.89,210.64,400.8,208.48Z"/><path d="M401.6,211.37c4.85-1.15,10.47-2.1,13.81-6.18,3.59-4.38,2.83-11.15,1.22-16.19-3.76-11.79-14.72-17.38-26.53-14.47-11.55,2.84-19.87,12.7-14.78,24.7,4.34,10.24,15.89,14.16,26.28,12.14,3.78-.74,2.18-6.52-1.6-5.79-6.68,1.3-14.57-.8-18.25-6.89-5.38-8.91,1.15-16.24,9.95-18.37,8.58-2.09,16.33,1.66,19.15,10.27,1.2,3.68,2.22,9.1-1.18,11.8-2.57,2-6.57,2.46-9.67,3.19C396.25,206.47,397.84,212.26,401.6,211.37Z"/><path d="M396.57,196.39c-3.28.22-6.67-2-4.61-5.69,1-1.83,3.07-1.83,4.52-1.73a3.46,3.46,0,0,1,3.52,3.86c-.16,1.93-2.13,3.1-3.83,3.62s-1.05,3.46.8,2.89c3.24-1,6.24-3.48,6-7.13a6.52,6.52,0,0,0-6.77-6.25c-3.71-.06-6.92,1.62-7.63,5.54-.91,5.11,3.23,8.21,8,7.89C398.49,199.26,398.5,196.26,396.57,196.39Z"/><path class="cls-1" d="M394,235.49c-6.85,0-12.56,4.8-15.91,11.35,4.57,1.6,13.83-3.06,18.42-2.86,7.85.35,11.86,2.14,16.94,4,.22-5.43-4.52-10.18-9.48-12.79-2.62-1.38-8.35-3.06-10,.94"/><path d="M394,234c-7.87.41-13.55,5.39-17.2,12.1a1.51,1.51,0,0,0,.89,2.2c5.26,1.32,10.56-1.36,15.63-2.4,6.7-1.38,13.53,1.24,19.73,3.52a1.5,1.5,0,0,0,1.9-1.44c-.21-6.45-5-11.57-10.62-14.27-3.93-1.89-9.16-2.71-11.62,1.66a1.5,1.5,0,0,0,2.59,1.51c2.05-3.64,7.45-.8,9.75.69,3.68,2.41,6.75,5.81,6.9,10.41l1.9-1.45c-5.7-2.1-11.62-4.2-17.8-4-5.79.16-11.77,4.36-17.56,2.91l.9,2.2c3.13-5.73,7.79-10.25,14.61-10.61,1.92-.1,1.93-3.11,0-3Z"/><path d="M688.75,403.74H103.45c-6.31,0-12.86.52-19.16,0-9.93-.82-10.23-14.59-.1-15.49.38,0,.77,0,1.14,0,2.84-.07,5.7,0,8.54,0H607.24c26.56,0,53.15-.41,79.7,0,.56,0,1.14,0,1.71,0,10,.85,10.3,14.85.1,15.49-3.83.24-3.86,6.24,0,6,17.78-1.11,17.69-26.77-.14-27.49-2-.08-4,0-6,0H164.28c-26.33,0-52.71-.4-79,0-9.58.15-17.45,8.68-14,18.42,2.35,6.57,8.56,9.07,15,9.07H688.75C692.61,409.74,692.62,403.74,688.75,403.74Z"/><path d="M437.35,213.9c17.56,2.63,34,8.85,47.82,20.19A107.87,107.87,0,0,1,513.61,271c8.33,17.41,12.43,36.46,15.71,55.37,3.42,19.69,6.49,39.45,9.71,59.17.62,3.8,6.41,2.19,5.79-1.59q-4-24.66-8.06-49.31c-2.55-15.58-5.25-31.19-10-46.28-7.85-25-21.83-47.78-43.4-63.12-13.23-9.41-28.43-14.71-44.41-17.11-3.78-.56-5.41,5.22-1.6,5.79Z"/><path d="M273.93,380.55c2.67-34.19,5.32-69.63,19.82-101.23,13.18-28.71,35-51.2,65.63-60.55,3.68-1.13,2.11-6.92-1.59-5.79-31.53,9.63-54.66,32.4-68.56,61.91-15.54,33-18.5,69.83-21.3,105.66-.3,3.85,5.7,3.83,6,0Z"/><path class="cls-1" d="M283.3,519.43a1.67,1.67,0,0,1-1.87,1.91h-.81q4.19.92,7.47,1.37c1.25.2,1.35,1.08.31,2.62l-1.67,2a2.88,2.88,0,0,1-3.08.65q-6.47-1.62-9.09-3.53a7.58,7.58,0,0,1-2.73-3H264.1a8.38,8.38,0,0,1-2.68,3q-2.62,2.12-9.29,3.73a2.91,2.91,0,0,1-3-1.21L247,524.53c-.57-.91.2-1.45,2.32-1.62a17.41,17.41,0,0,0,5.86-1.46h-.7a1.8,1.8,0,0,1-1.92-2V502.61a1.32,1.32,0,0,1,1-1.47L252.49,498a.27.27,0,0,1,0-.25l-4.7,2.17c-1,.47-1.67.4-2-.2L244,496c-.37-.74,0-1.35,1.21-1.82l12.17-5.4c-.2-.34.07-.74.81-1.22a29.87,29.87,0,0,0,6.11-6.66,1.42,1.42,0,0,1,1.82-.91l4,.86c.81.2.86,1,.15,2.32h12.18a6,6,0,0,1,2.17.4l3,1.17q1.41.6.81,2.37a14.54,14.54,0,0,1-3.13,4.6,1.75,1.75,0,0,1-2.13.6l-2.87-1.66c-.54-.48-.51-1.1.1-1.87H275a11.8,11.8,0,0,0,3.94,4.95q3,2.42,11,3.68c1,.14,1.05.81.2,2l-2,3c-.27.44-.85.56-1.76.36-1.15-.27-2.23-.56-3.24-.86a2.3,2.3,0,0,1,.21,1.06Zm-33.74-38.59c2.22.87,4.52,1.92,6.92,3.13,1.07.54,1.39,1.19,1,2l-1.72,2.93c-.57.7-1.35.75-2.33.15a72.49,72.49,0,0,0-6.87-3.18c-1.27-.54-1.71-1.15-1.31-1.82l1.77-2.88Q247.64,480.14,249.56,480.84Zm11.26,11.61c.5.74,0,1.47-1.57,2.18l-4.69,2.17q7.72-.92,10.7-3.24,3.14-2.42,3.84-4.74h-3c-1,.91-2.07,1.85-3.28,2.83a2.12,2.12,0,0,1-2.37.15l-.11-.05Zm-2.22,13.34v1h18.74v-1Zm0,4.85v1h18.74v-1Zm0,5v1h18.74v-1Zm13.53-19.55c-2,2-5.49,3.6-10.5,4.85H280A24.14,24.14,0,0,1,272.13,496.09Z"/><path class="cls-1" d="M304.89,493.46a1.25,1.25,0,0,1-1.41-1.41v-2.83a1.25,1.25,0,0,1,1.41-1.41H321c.8,0,1.21.47,1.21,1.41v2.83c0,.94-.41,1.41-1.21,1.41Zm13.59-6.87H307.37c-1.11,0-1.67-.47-1.67-1.41v-2.42c0-1.22.56-1.82,1.67-1.82h11.11c1.11,0,1.65.6,1.62,1.82v2.42Q320.15,486.59,318.48,486.59Zm0,13.54H307.37c-1.11,0-1.67-.47-1.67-1.41v-2.63a1.43,1.43,0,0,1,1.67-1.62h11.11c1.11,0,1.65.44,1.62,1.42v2.83Q320.15,500.13,318.48,500.13Zm0,6.87H307.17q-1.47,0-1.47-1.41V503c0-1.21.56-1.82,1.67-1.82h11.11q1.66,0,1.62,1.62v2.83Q320.15,507,318.48,507Zm1.62,17.38c0,1.88-.74,2.82-2.23,2.82H308c-1.51,0-2.27-.94-2.27-2.82V510.84c0-1.75.76-2.63,2.27-2.63h9.9c1.49,0,2.23.88,2.23,2.63Zm-8.64-10.11v6.67h3.08v-6.67Zm12.88-26.87q-1.62.11-1.62-.81v-4c-.06-.8.47-1.21,1.62-1.21h19c1.21,0,1.82.56,1.82,1.67v29a28.61,28.61,0,0,0,.2,5.4c.14,1.39.54,1.87,1.21,1.47l.81-1.06a1.09,1.09,0,0,1,1.42-.2l2.62,2.27a2.53,2.53,0,0,1-.2,2.73q-5.35,6.66-7.47,4.69c-1.76-1.17-2.9-3.29-3.44-6.33a53.62,53.62,0,0,1-.81-9.37V487.4h-5.86v11.11h3.84c1.08,0,1.62.51,1.62,1.52v3.13a1.43,1.43,0,0,1-1.62,1.62h-3.84q-.5,14.55-7.22,22.47a1.3,1.3,0,0,1-2.12.16L321.46,525a1.21,1.21,0,0,1-.1-2q6.11-6.16,6.21-18.28h-5.25c-.94,0-1.42-.51-1.42-1.52v-3.33a1.26,1.26,0,0,1,1.42-1.42h5.25V487.4Z"/><path class="cls-1" d="M365.53,483.66c0-1.34.58-2,1.72-2h11.87c1.52,0,2.28.66,2.28,2v36.27q-.11,4.8-2.43,6.16l-4.39,1.72c-1,.23-1.62,0-1.92-.86l-.86-3.18q-.41-1.32,1.11-1.77l1.21-.45a1.91,1.91,0,0,0,1.42-2.07v-5.16h-4.25q-1,8.19-2.82,11.12c-.81,1.54-1.76,2.07-2.83,1.56l-2.33-1.62a1.71,1.71,0,0,1-.25-2.67,25.38,25.38,0,0,0,2.37-7.58c.1-1.65.14-3.47.1-5.45Zm5.76,4.3v6.67h4.25V488Zm0,13.48v6.42h4.25v-6.42ZM406.85,482c1.72,0,2.59.92,2.63,2.88v15.5c0,2.5-.88,3.74-2.63,3.74H389.68V520q0,1.22,1.41,1.26H402c.88,0,1.55-.72,2-2.07l.41-1.46a1.94,1.94,0,0,1,2.42-1.42l3,.81q1.26.55.81,2.28l-1,3.88c-.88,2.77-3,4.15-6.26,4.15H387.25q-3.83,0-3.83-4.15V485.08c0-2.05.8-3.08,2.42-3.08Zm-17.17,15.5h4v-9.09h-4Zm9.9,0h4v-9.09h-4Z"/><path class="cls-1" d="M424.46,483.21c0-1.31.57-2,1.72-2h10.6c1.59,0,2.38.64,2.38,1.92v36.57a12.14,12.14,0,0,1-.51,3.86,3.62,3.62,0,0,1-2,2.2,41,41,0,0,1-4.49,1.72c-1,.2-1.67-.09-2-.86l-1.32-3.49c-.3-1.11.09-1.71,1.17-1.82a13,13,0,0,0,2.32-.45c.5-.17.76-.69.76-1.57v-6.26h-2.78q-1,9.2-2.93,12.12c-1,1.48-1.95,2-2.83,1.52l-2.37-1.57c-.84-.64-.93-1.51-.26-2.62a26.84,26.84,0,0,0,2.43-8.64c.1-1.62.13-3.4.1-5.35Zm5.86,4.19v6.47h2.78V487.4Zm0,13.13v6.27h2.78v-6.27Zm38.44,6.87c1.07,0,1.61.48,1.61,1.42v3.23a1.43,1.43,0,0,1-1.61,1.62H457.65v12.52c0,1.18-.44,1.77-1.42,1.77h-3.59c-.74,0-1.14-.52-1.21-1.67l-.05-12.62H440.47c-.81,0-1.21-.51-1.21-1.42v-3.33c0-1,.4-1.55,1.21-1.52h10.91v-5.85h-8.69c-.77,0-1.17-.48-1.21-1.42V496.7c0-.95.44-1.42,1.21-1.42h8.69V482.35a1.25,1.25,0,0,1,1.42-1.41h3.28c1.08,0,1.6.47,1.57,1.41v12.93h9.49c.81,0,1.21.47,1.21,1.42v3.43c0,.94-.4,1.42-1.21,1.42h-9.49v5.85Zm-21.37-13.63c-.3.6-.91.7-1.82.3l-3.13-1.26a1.13,1.13,0,0,1-.76-1.67,49.84,49.84,0,0,0,3.49-8.59c.2-.84.84-1.06,1.92-.65l3.08,1c.67.23.91.75.71,1.56A52.75,52.75,0,0,1,447.39,493.77Zm17-.15a84.58,84.58,0,0,0-5.75-8,1.09,1.09,0,0,1,.25-1.71l2.72-2.17c.81-.61,1.49-.56,2,.15a33.2,33.2,0,0,1,5.55,7.78,1.32,1.32,0,0,1-.3,1.76l-2.68,2C465.32,494,464.72,494.09,464.41,493.62Z"/><path class="cls-1" d="M510.26,480.13c.8,0,1.21.47,1.21,1.41v3.64H527c.81,0,1.22.51,1.22,1.52V490a1.07,1.07,0,0,1-1.22,1.21H495.1v17.38A27.44,27.44,0,0,1,489,526.45c-.81.91-1.53,1.11-2.17.6l-2.93-2.27c-.94-.78-.89-1.72.15-2.83a17.08,17.08,0,0,0,3.79-5.66,13.33,13.33,0,0,0,.81-4.85L485,513.26c-.67.27-1.14.21-1.41-.2L482,509.63c-.4-.95-.2-1.62.61-2l6.26-2.83v-3.64l-.51.81c-.33.54-.77.54-1.31,0l-5-4.65a1.22,1.22,0,0,1,0-1.82l2.22-2a1.24,1.24,0,0,1,1.82,0l2.83,2.23V486.8a1.43,1.43,0,0,1,1.62-1.62h15v-3.64a1.25,1.25,0,0,1,1.41-1.41Zm15,19.8H514.09v5.66h11.52c.81,0,1.21.52,1.21,1.56v3.28c0,.95-.4,1.42-1.21,1.42H514.09v9.09h13.74c.94,0,1.42.51,1.42,1.52v3.73c0,.81-.48,1.22-1.42,1.22H493.69a1.07,1.07,0,0,1-1.21-1.22v-3.73c0-1,.4-1.52,1.21-1.52h4.65V505.38c0-1.21.53-1.81,1.61-1.81h3.44c.8,0,1.21.6,1.21,1.81v15.56h3.23v-21h-10.1a1.26,1.26,0,0,1-1.42-1.42v-3.28c0-1,.48-1.56,1.42-1.56h27.48q1.41,0,1.41,1.56v3.28A1.25,1.25,0,0,1,525.21,499.93Z"/><path d="M701.23,215.26a12.71,12.71,0,0,0,11.8-9.83c.8-3.77-5-5.38-5.79-1.6a6.65,6.65,0,0,1-6,5.43c-3.84.21-3.87,6.21,0,6Z"/><path d="M704.26,225.78a11.73,11.73,0,0,0,12.68-5c2.16-3.22-3-6.23-5.18-3a5.52,5.52,0,0,1-5.91,2.21c-3.75-.93-5.34,4.85-1.59,5.79Z"/><path d="M352.62,251.66c-3.6,8-4.27,15.79-1,24,3.42,8.54,9.14,15.9,12.42,24.53l1.38-3.39c-6.12,4.53-7.57,11.24-10.09,18-.6,1.62.69,3.16,2.1,3.69,5.63,2.14,15.71-3.17,19.63-7,2.18-2.15,3.85-5.65,2.58-8.65-1.55-3.66-6.47-4.64-9.8-5.91-3.61-1.39-5.17,4.41-1.6,5.78,1.17.45,5.63,1.53,5.83,2.55.3,1.58-3.26,3.44-4.19,4-2.49,1.44-7.89,4.63-10.86,3.51l2.1,3.69c1.85-5,2.78-11.09,7.33-14.46a3.08,3.08,0,0,0,1.38-3.39c-5.51-14.48-19.41-27.61-12-43.88,1.58-3.49-3.58-6.54-5.18-3Z"/><path d="M428.7,306c-6.09-7.55-1.18-19.29,3.55-26.2,4.51-6.58,12.52-13.12,21-9.77,13.51,5.35,15,28.13,7.33,38.45-2.31,3.09,2.9,6.09,5.18,3,10.37-13.88,5.95-44.13-13.47-47.95-21.63-4.25-41.37,29.91-27.82,46.7,2.42,3,6.65-1.27,4.24-4.25Z"/><path d="M451.19,266.45c4-7.2,3-20.75-2.19-27.16-2.42-3-6.65,1.26-4.25,4.24,3.35,4.16,3.8,15.31,1.26,19.89-1.88,3.38,3.3,6.41,5.18,3Z"/><path d="M422.74,301.57c.79,3.25,1.52,6.52,2.43,9.74a3,3,0,0,0,2.9,2.2,13.11,13.11,0,0,0,5.7-1.6,3.09,3.09,0,0,0,1.38-3.39c-1-4.63-2.67-9.38-7.31-11.46-3.5-1.56-6.56,3.61-3,5.19,3.21,1.43,3.87,4.69,4.55,7.87l1.38-3.39a6,6,0,0,1-2.67.78l2.89,2.21c-.91-3.23-1.64-6.5-2.44-9.75-.91-3.75-6.7-2.16-5.78,1.6Z"/><path d="M466.3,302.77c3.86,0,3.86-6,0-6s-3.87,6,0,6Z"/><path d="M467.1,296.88c-1.64-.35-3.31-.08-4.93-.41a3,3,0,0,0-3.69,2.09c-.77,3.48-1.4,7-2.12,10.48a3,3,0,0,0,3.69,3.69c5.85-1.29,7.57-7.23,7.44-12.53-.08-3.86-6.08-3.87-6,0,.06,2.58,0,6.08-3,6.75l3.69,3.69c.72-3.49,1.36-7,2.13-10.48l-3.69,2.09c1.63.34,3.32.07,4.92.41,3.77.81,5.38-5,1.6-5.78Z"/><path d="M468.21,256.94c31,10.33,41.15,44.35,44.24,73.79,1.38,13.21.29,29.18-8.45,39.9-11.44,14-33.09,10.39-48.92,9.17-8.32-.65-16.51-.06-24.82-.36-4.26-.16-9.15-.58-12.47-3.56-4.39-3.94-6.28-9.67-.44-13a3,3,0,0,0-1.51-5.59c-6.08.07-9.54-7-2.38-8.92,3.76-1,2.17-6.57-1.59-5.79-5.11,1.07,1.33-7.83,2.78-9,5.63-4.65,16-3,22.81-3.39,14.78-.9,29.72,4.15,44.38.87,3.77-.85,2.18-6.63-1.59-5.79-10.73,2.41-22.12-.27-32.91-1-5.25-.35-10.39,0-15.64.21-5.42.18-11.28,0-16.45,1.89-5.57,2.06-10.11,8-11.12,13.78-1.08,6.32,3.48,9.47,9.33,8.24l-1.59-5.79c-13.59,3.67-9,20.85,4,20.71l-1.52-5.59c-8.3,4.75-8.34,13-2.75,20.16,5.24,6.67,13.42,7.63,21.41,7.62,10.23,0,20.18.24,30.4,1,10.46.76,21.58,1.26,31.6-2.4,16.29-5.95,22.56-23.07,23.71-39.12,1.26-17.51-2.85-36.83-9.07-53.12-7.26-19-20.16-34.1-39.81-40.65-3.67-1.23-5.25,4.56-1.6,5.78Z"/><path d="M415.71,326.79c-14.58-2.71-29.74-8.23-44.75-7.24a128.21,128.21,0,0,0-15.19,2.37c-3.58.68-9.18,2.28-12,2.28-3.86,0-3.86,6,0,6,3.35,0,7-1.22,10.24-1.85a155.12,155.12,0,0,1,16.29-2.75c14.63-1.24,29.6,4.33,43.81,7,3.78.7,5.4-5.08,1.6-5.79Z"/><path d="M354.3,247.75c-30.92,14.5-51,47.77-54.87,81-1.58,13.73-1,29.75,7.08,41.54,10.41,15.13,29.79,15.09,46.35,15.82,6.54.28,13.09.08,19.64.24,5.92.14,11.79.89,17.7,1.21,9.23.48,21.49.51,27.91-7.33,2.43-3-1.79-7.23-4.24-4.24-5.66,6.9-17.25,6-25.28,5.47-9.45-.62-18.75-1.13-28.23-1.19a245.15,245.15,0,0,1-27.48-1.62c-7.78-1-15.43-4-20.38-10.28-8-10.16-8.45-24.85-7.32-37.13a97,97,0,0,1,11.28-37.76c9.3-17,23.13-32.23,40.86-40.55,3.5-1.63.45-6.81-3-5.18Z"/><path class="cls-1" d="M499.83,357a67.42,67.42,0,0,0-7.35,27.72c28.61,1,57.92,1.66,86.72.79-1.36-6.74-6-13.08-7.54-20-1.82-8.2-2.85-9.11-14.85-10.6-15.5-1.93-42.75-4.08-57,2.12"/><path d="M497.24,355.48a73.07,73.07,0,0,0-7.76,29.23,3,3,0,0,0,3,3c28.89,1,57.81,1.63,86.72.79a3,3,0,0,0,2.89-3.8c-1.35-5.69-4.35-10.63-6.34-16.08-1.25-3.42-1.51-7.36-3.38-10.53-3.36-5.71-11.49-5.74-17.27-6.43-17.77-2.11-39.06-4.59-56.06,2.44-3.52,1.46-2,7.26,1.59,5.79,15.1-6.25,33.68-4.37,49.54-2.77,4.62.47,14.85-.2,17.35,4.62,1.55,3,1.77,6.85,3.05,10,1.95,4.85,4.52,9.41,5.73,14.53l2.9-3.79c-28.91.84-57.83.25-86.72-.79l3,3a65.6,65.6,0,0,1,6.95-26.2c1.69-3.45-3.48-6.5-5.19-3Z"/><path d="M602.33,384.91c-.24-8.62-3.09-17.32-1.82-25.94l-2.09,2.1c5.18-1,20.41-5.73,23.12.54,1.43,3.31,1,8.37,1,11.88a105.86,105.86,0,0,1-.39,11.12l3.8-2.89c-8.55-1.38-17.1-.79-25.71-.74-3.86,0-3.87,6,0,6,8-.05,16.14-.76,24.11.52a3.07,3.07,0,0,0,3.8-2.89,108.52,108.52,0,0,0,.31-14.65c-.15-4,0-9.55-2.43-13-5.57-8.07-21.6-3.13-29.23-1.68a2.91,2.91,0,0,0-2.09,2.1c-1.37,9.3,1.34,18.26,1.6,27.53.11,3.85,6.11,3.87,6,0Z"/><path d="M611,350.78c-.57-9.56,4.2-20.21,13.66-23.66l-3.39-4.4c-4.42,8.84-12.65,17.38-12.49,27.84l5.59-1.52c-3.36-5.76-4.92-12.51-8.72-18s-9.48-7.87-16.07-8.45c-2.51-.22-4.07,3.5-2.12,5.12,7.35,6.14,14.12,12.89,17.6,22l5-2.92c-9.75-7.88-20.68-12.19-32-4.58-1.93,1.31-2,5,.72,5.48a108.67,108.67,0,0,1,27.45,9.11,3.06,3.06,0,0,0,4.1-1.08c6.54-11.85,20.67-12.61,32.36-8.88v-5.78c-5.38,1.68-10.65,3.66-16,5.39-4.6,1.48-10.11,3.73-15.05,3.25-3.84-.37-3.81,5.63,0,6,5.1.5,10.62-1.57,15.4-3.07,5.79-1.82,11.47-4,17.26-5.79a3,3,0,0,0,0-5.78c-14.26-4.56-31.3-2.55-39.13,11.64l4.1-1.08a113.9,113.9,0,0,0-28.88-9.71l.72,5.48c8.93-6,17-2.58,24.69,3.64,2,1.66,6.21.2,5-2.91C607,337.94,600,330.35,591.71,323.46l-2.12,5.12c13,1.14,14.15,14.12,19.61,23.49a3,3,0,0,0,5.59-1.51c-.14-9.06,7.82-17.1,11.67-24.82,1.07-2.13-.74-5.37-3.38-4.4-12,4.35-18.81,17-18.07,29.44.23,3.84,6.23,3.87,6,0Z"/><path d="M604,378.7c5.53.67,11.12.23,16.67,0,1.92-.08,1.93-3.08,0-3-5.55.23-11.14.67-16.67,0-1.91-.23-1.89,2.77,0,3Z"/><path d="M512.7,360.18A33.63,33.63,0,0,0,509.25,377a3.11,3.11,0,0,0,3,3c7.14.77,16-2.28,16.28-10.7.2-6.27-8.62-14.58-14.76-10.16-3.1,2.24-.11,7.44,3,5.18,1.18-.84,2.91.54,3.82,1.35,1.53,1.36,2.41,3,1.58,5-1.49,3.65-6.68,3.69-10,3.34l3,3a27.72,27.72,0,0,1,2.63-13.76c1.64-3.47-3.53-6.51-5.18-3Z"/><path d="M534.11,360.38c-1,3.7-1.63,7.48-2.52,11.2-.48,2-1.37,4.21-1.33,6.26a3,3,0,0,0,5.72,1.34c1.89-3.38-3.29-6.4-5.18-3l-.09.16,1.79-1.37h0l3.8,2.9c0,.92.31-1.37.41-1.8.28-1.15.57-2.29.84-3.44.84-3.54,1.44-7.11,2.38-10.63,1-3.73-4.78-5.32-5.78-1.59Z"/><path d="M538,364.69c1.75-.12,4.1-.35,5.7.53a1.58,1.58,0,0,1,.91,1.42c0,.2-.17.4,0,.24a3,3,0,0,1-1,.55c-.41.13-.83.22-1.25.31-.09,0-1,.15-.48.09A34.07,34.07,0,0,1,538,368c-3.86,0-3.87,6,0,6,4.32,0,10.5-.19,12.22-5.09a7.53,7.53,0,0,0-2.8-8.4c-2.66-1.87-6.29-2-9.42-1.79-3.83.27-3.86,6.27,0,6Z"/><path d="M537.23,373.86a23.52,23.52,0,0,1,4.83,2.32c.89.52,1.79,1.05,2.63,1.65.22.16.43.3.64.48s.84,1,.42.35c2,3.26,7.25.25,5.18-3-1.24-1.95-3.48-3.24-5.41-4.39a31.55,31.55,0,0,0-6.69-3.18c-3.71-1.11-5.29,4.68-1.6,5.79Z"/><path d="M555.36,380.85c3.86,0,3.86-6,0-6s-3.87,6,0,6Z"/><path d="M647.2,205.4c15.27-15.86,39.7-16.19,57.71-5.08,3.3,2,6.31-3.16,3-5.18-20.25-12.49-47.9-11.73-65,6-2.68,2.78,1.56,7,4.24,4.24Z"/><path class="cls-1" d="M672.85,225c1.72-4.12-5-7.32-7.49-3.38a3.49,3.49,0,0,0,1,5c1.37.8,2.45.47,3.88.23C670.2,226.78,672.28,226.33,672.85,225Z"/><path class="cls-1" d="M482.59,175.17c17.71,4.35,31.17-5.14,40.71-20.68s6.8-37.83-6.89-49.88c-9.71-8.55-23-11.44-35.84-13.36s-25.66-3.13-38.31-1-25.08,7.92-33,18a40.65,40.65,0,0,0,33.35,65.83c3.5-.12,7-.7,10.47-.07s9.45,1.29,10.23,4.7c.49,2.12-.12,4.33,0,6.49s1.48,4.64,3.65,4.62c1.49,0,2.68-1.18,3.7-2.27,3.78-4.06,8.18-8.29,12-12.35"/><path d="M481.79,178.07c11.51,2.59,22.6.18,31.75-7.36s16.13-18.42,17.86-30.1c1.69-11.32-.87-23.31-7.78-32.55-8.14-10.88-21.32-15.79-34.23-18.33-26.95-5.31-62.29-7.91-81.79,15.77-16.5,20-11.64,50.69,10.17,64.6a44.92,44.92,0,0,0,19.61,6.78c4.11.41,8.11-.27,12.2-.19,2.69.06,8.57.28,10.26,2.71s-.16,6.77,1.56,9.85a6.44,6.44,0,0,0,5.93,3.49c3.39-.24,5.6-3.32,7.75-5.56,3.2-3.31,6.47-6.53,9.63-9.88,2.64-2.81-1.59-7.07-4.24-4.25-1.42,1.51-12.25,14.17-14.08,12.64-1-.82.22-6.37-.21-7.81a7.46,7.46,0,0,0-3-4c-8.21-5.59-19.6-1.7-28.65-3.42a38,38,0,0,1-27.35-53.12c11.4-24.65,42.3-26.92,65.78-24.1,12,1.43,24.86,3.2,35.47,9.33a35.07,35.07,0,0,1,17.2,26.09c3.1,23.27-17.63,49.18-42.22,43.64-3.76-.85-5.36,4.94-1.59,5.79Z"/><path d="M451.81,127c1.06,0,1.59.58,1.61,1.8v7.39c0,1.51-.53,2.25-1.61,2.23h-4.59v5.71c0,.38.29.58.86.62h2.37a1.17,1.17,0,0,0,1-.74l.62-1.62a.88.88,0,0,1,1-.49l2.36.74a1,1,0,0,1,.5,1.12l-2,4a2.68,2.68,0,0,1-2.11,1h-6.33c-1.49,0-2.24-.91-2.24-2.61v-7.7h-2.95a12.22,12.22,0,0,1-2,5.34q-2.49,3.83-8.79,4.75c-.54.1-.9,0-1.09-.25l-1-2.11c-.27-.64-.13-1,.4-1.15q4.73-.61,6.55-3.06c1.22-1.62,1.86-2.79,1.9-3.52h-3.23c-1.14,0-1.72-.72-1.74-2.23V131.8a8.37,8.37,0,0,1-1.49,1.49c-.37.35-.79.19-1.24-.5l-1.37-1.74a1.14,1.14,0,0,1,0-1.49,47,47,0,0,0,7.95-9.31c.46-.91,1-1.37,1.61-1.37l2.61.75c.54.25.54.79,0,1.61H446a4.29,4.29,0,0,1,1.62.38l2,.74c.65.33.73.83.25,1.49a36.27,36.27,0,0,0-2.6,3.11Zm-16.52,7.42h5.1v-3.61h-5.1Zm.13-7.42h6.95c.56-.71,1.14-1.49,1.74-2.36h-6.7A16.07,16.07,0,0,1,435.42,127Zm8.82,7.42h5.21v-3.61h-5.21Z"/><path d="M485.21,125.84c0,.85-.51,1.3-1.61,1.36h-5.21v.63h7.82c1,0,1.43.47,1.36,1.49-.1,2.93-1.05,4.84-2.85,5.71l-1.37.25a1.22,1.22,0,0,1-.84-.1v8.32c0,.85-.38,1.26-1.15,1.21h-.49q2.58.57,4.59.87c.67.29.73.85.19,1.68l-1,1.27a1.65,1.65,0,0,1-1.89.41,17,17,0,0,1-5.59-2.24,4.4,4.4,0,0,1-1.67-1.92h-3.26a5,5,0,0,1-1.65,1.92,15.05,15.05,0,0,1-5.71,2.36,1.77,1.77,0,0,1-1.86-.75l-1.28-1.58c-.29-.58.19-.91,1.43-1a11.83,11.83,0,0,0,3.6-1h-.43a1.13,1.13,0,0,1-1.18-1.28v-8.44a25,25,0,0,1-3.63,1.18,1.42,1.42,0,0,1-1.87-.47l-.59-1.49c-.39-.78-.28-1.26.35-1.43a13.61,13.61,0,0,0,6.3-2.17h-3.08c-.74,0-1-.56-.87-1.61l1.25-3.48c.18-.77.84-1.14,2-1.12h3.48v-.74h-5.59c-.8-.06-1.22-.35-1.24-.87v-1.37c0-.6.44-.89,1.24-.87h5.59v-.25c-.12-.51.08-.76.62-.74h2c.66,0,1,.21,1,.62v.37h2.77v-.09c0-.64.26-1,.8-1h1.9q.87,0,.87,1v.09h5.21a1.39,1.39,0,0,1,1.61,1.62Zm-18.87,1.36-.25.63H468l.21-.63Zm2.48,7.7v.62h10v-.62Zm0,3v.62h10V138Zm0,3.16v.62h10v-.62Zm6-9.59v-.84h-4l-1,1.24h5A1.71,1.71,0,0,1,474.82,131.52Zm0-4.32H472l-.06.63h2.89Zm-2.77-2.73h2.77v-.74h-2.77Zm9.31,0v-.74h-3v.74Zm.13,7.33h.87c.25,0,.53-.19.84-.56s.23-.56-.22-.56h-4.59v.84a1.34,1.34,0,0,1,0,.4h1.7a2,2,0,0,1,.59.07A1.52,1.52,0,0,1,481.49,131.8Z"/><path class="cls-1" d="M260.6,350.54c.82-1.43,3-10.15,2-12.68a645.5,645.5,0,0,0-112.21-3.81c-.79,5.33-.47,16-.47,18.83"/><path d="M263.19,352.06c2-4.23,3.45-10.37,2.35-15a3.07,3.07,0,0,0-2.89-2.2,644.33,644.33,0,0,0-112.21-3.81,3.1,3.1,0,0,0-3,3c-.81,6.23-.51,12.56-.47,18.83,0,3.86,6,3.87,6,0,0-6.27-.34-12.6.47-18.83l-3,3a644.33,644.33,0,0,1,112.21,3.81l-2.9-2.21c.68,2.86-.49,7.72-1.74,10.38-1.63,3.47,3.54,6.52,5.18,3Z"/><path class="cls-1" d="M152.17,363.36c-.82-1.43-3-10.15-2-12.69a646.38,646.38,0,0,1,112.2-3.8c.79,5.33.48,16,.48,18.83"/><path d="M154.76,361.85c-1.24-2.64-2.42-7.53-1.74-10.38l-2.89,2.2a645.2,645.2,0,0,1,112.2-3.8l-3-3c.81,6.23.51,12.56.48,18.83,0,3.86,6,3.87,6,0,0-6.27.33-12.6-.48-18.83a3.09,3.09,0,0,0-3-3,645.2,645.2,0,0,0-112.2,3.8,3.12,3.12,0,0,0-2.9,2.21c-1.1,4.62.36,10.75,2.35,15,1.64,3.5,6.81.45,5.18-3Z"/><path class="cls-1" d="M151.2,368.49c-.81-1.43-2-2.35-1.07-4.88a647.37,647.37,0,0,1,112.2-3.81c.79,5.33.48,16,.48,18.84"/><path d="M153.79,367a3.33,3.33,0,0,1-.77-2.57l-2.89,2.2a645.2,645.2,0,0,1,112.2-3.81l-3-3c.81,6.24.51,12.57.48,18.84,0,3.86,6,3.86,6,0,0-6.27.33-12.6-.48-18.84a3.1,3.1,0,0,0-3-3,645.2,645.2,0,0,0-112.2,3.81,3.14,3.14,0,0,0-2.9,2.2c-.68,2.88-.17,4.74,1.38,7.19,2.06,3.26,7.25.25,5.18-3Z"/><path class="cls-1" d="M136,383.71A50.11,50.11,0,0,1,137.44,370c21.35-1,43.44,1.81,64.77,3.62,10.66.9,57.38-2.57,60.6,8.87"/><path d="M139,383.71a53.81,53.81,0,0,1,1.36-13l-2.9,2.2c25.85-1.07,51.31,3.87,77.08,3.78,8.92,0,17.86-.05,26.75.73,4.09.36,16.91.66,18.64,5.78,1.24,3.64,7,2.07,5.79-1.6-2.23-6.57-10.54-8.25-16.55-9.23-9.78-1.58-19.77-1.68-29.65-1.69-27.43,0-54.6-4.91-82.06-3.77a3.06,3.06,0,0,0-2.89,2.2A61.52,61.52,0,0,0,133,383.71c.05,3.86,6.05,3.87,6,0Z"/><line class="cls-1" x1="152.89" y1="341.21" x2="219.56" y2="339.88"/><path d="M152.89,342.71l66.67-1.33c1.92,0,1.93-3,0-3l-66.67,1.33c-1.93,0-1.93,3,0,3Z"/><path d="M394,297.56c4.42,11.21,8.82,22.46,14.76,33l5.19-3a12.25,12.25,0,0,0-1.51-2.31c-2.26-3.08-7.47-.09-5.18,3a11.73,11.73,0,0,1,1.5,2.31c1.92,3.35,7.09.34,5.19-3-5.7-10.06-9.93-20.8-14.17-31.54-1.4-3.55-7.2-2-5.78,1.6Z"/><path d="M391.4,288c-4,4.55-9.22,11-5.39,17.27,2.95,4.84,10,6.16,15.24,5.45,12.92-1.76,11.93-18.53,2.59-24.43-10.55-6.66-22.55,2.45-21.06,14.35,1.54,12.31,17.17,15.42,26.29,8.91,10.22-7.29,3.53-24.22-7.1-27.44-11.18-3.39-25.05,10-19,21.15,4.62,8.48,22.14,11.92,28,3.1,5.63-8.46-1.08-23.93-12-22.62-9.76,1.17-19.9,14.2-13,23.33,5.87,7.78,21.47,7.28,25.66-2,4.35-9.67-6.79-21.18-16.42-20.46a10,10,0,0,0-9.32,10c-.1,6.05,4.33,11.21,9.9,13.07,5,1.66,11.9,1.07,15-3.75,2.63-4.14,1.35-9.6-1.16-13.46-2.76-4.26-7.49-7.48-12.73-6.47-5.78,1.11-10.26,6.84-9.18,12.78,1.94,10.71,23.13,14.77,22.24,1.12-.36-5.39-5.33-11.08-10.67-12.05-5.63-1-9.19,4.15-8.62,9.27s4.79,10.06,10.06,10.52c4.95.44,8.06-3.43,7.48-8.19-.52-4.2-4.12-10.31-9-10.28-5.39,0-6.52,7-5,10.94,1.79,4.43,7.34,7.85,11.24,3.51,2.77-3.08,1.27-8.92-1.8-11.28-9.75-7.48-9.93,17.11.3,11.43,5-2.78,1.65-9.26-1.3-12.17a3,3,0,0,0-4.71.61c-1.91,3.74-.74,8.22,3.25,10,1.52.67,4.12.33,4.41-1.8.53-4-1.2-6.44-5.24-6.94-3-.37-4.08,4.33-1.52,5.59a5.33,5.33,0,0,0,3.57.74c3.78-.46,3.83-6.47,0-6l-.54.08-1.51,5.59-.55-.65,4.41-1.79-1.1-1.78-4.71.61c.46.46,1.41,2.36,1.85,2.53,4.1,1.49.89-4.16,0-.9,0,.05,1.4,2.73.25,1.67a4.81,4.81,0,0,1-1.1-2.47c-.35-2.72.62-.92,1.47.27.5.71,1.9,3.09,1.4,4-1.3,2.26-4.43-1-5.18-2.54-.86-1.76-1.37-4.55,2.29-4.15,1,.12,2.9,2.33,3.44,3.18,1.56,2.47,1.47,5-1.77,5.41-2.9.4-7.48-2.73-7.59-5.75-.14-4.06,4.54-6.24,7.78-4.6,2.78,1.4,6.11,6.39,4.72,9.62-2.61,6-13,1-14-4-1.32-7,6.54-5.9,10.1-3.06s6.67,8.41,2.25,11.75c-3,2.28-8.08,2.29-11.37.57-5.08-2.67-3.21-8.36,0-11.77s8.57-5.89,11.75-1.33c2.57,3.69,3.74,11-1.57,12.68a16,16,0,0,1-12.55-2c-5.84-4.05-2.12-11.33,3-14.06,5.76-3.07,10.87.48,13.38,5.83,2.86,6.09-.05,10.87-6.46,11.88-5.89.93-12.14-1.21-11.91-8.18.21-6.29,6-10.54,11.72-7.19,4.6,2.69,7.67,12.06.54,13.57-2.4.51-6.37.19-8.36-1.3-4.43-3.32.64-8.44,3.11-11.21S394,285.1,391.4,288Z"/><path class="cls-4" d="M126.52,469.3V633.52c0,3.86,6,3.86,6,0V469.3c0-3.86-6-3.87-6,0Z"/><path d="M501,120.21a75.55,75.55,0,0,0-5.37,15.94c-.75,3.77,5,5.38,5.79,1.59a68.6,68.6,0,0,1,4.76-14.5c1.58-3.49-3.59-6.54-5.18-3Z"/><path d="M496.53,150h.66a3,3,0,0,0,0-6h-.66a3,3,0,0,0-3,3,3.06,3.06,0,0,0,3,3Z"/><path class="cls-1" d="M142.74,486.42c4,7.8,9.59,21.41,16.57,27.39,2.6,2.22,3.6-1.6,9-2.73,3.62-.75,8.56-3.5,12.18-5.2,9.33-4.4,17.17-9.5,26.55-13.49,6.08-2.59,41.74-19.23,47.76-22.07,2.05-1,11.18-4.08,12.85-5.55,5.59-4.92-.06-10.9-2-14.75-3.82-7.52-8.33-14.57-12.15-22.09-1.45-2.84-3.09-13-7.66-13.48s-49.71,22.12-54.76,24.39c-5.84,2.62-23.71,12.56-27.95,14.33,0,0-30,14.23-29.12,16.81S142.74,486.42,142.74,486.42Z"/><path d="M140.8,487.55c4,8,7.49,16.52,13,23.65,1.53,2,3.62,5,6.28,5.45,2.86.5,5.51-2.37,8-3.19,15.8-5.15,30.12-14.6,45.25-21.47,11.72-5.32,23.38-10.77,35-16.22,4.3-2,8.55-3.92,13-5.65,5.38-2.11,11.71-4.56,10.76-11.62-.46-3.41-2.71-6.23-4.34-9.15-2.72-4.87-5.37-9.78-8.11-14.64a62.39,62.39,0,0,1-5.47-11.35c-1-3-1.93-6.38-4.06-8.77-2.7-3-5.57-2.48-9-1.3-4.79,1.68-9.44,3.83-14.06,5.91-21.35,9.65-41.9,20.69-62.93,31-9.27,4.53-18.83,8.75-27.52,14.36-3.25,2.11-5.87,3.75-4.18,7.75,2.23,5.29,5.43,10.3,8.26,15.28,1.43,2.52,5.32.25,3.89-2.27-2.16-3.8-4.3-7.61-6.34-11.47-.56-1.06-1.08-2.13-1.63-3.18-.65-1.26-.26-.58-.53-.16.92-1.42,3.44-2.48,4.84-3.32,7.4-4.42,15.21-8.25,23-11.93,16.78-7.94,33.1-16.88,49.87-24.88,9.35-4.45,18.75-9.28,28.53-12.71.77-.27,2.43-1.14,3.27-1,2.31.48,3.56,5.85,4.22,7.89,2.35,7.24,6.67,13.63,10.37,20.24,1.93,3.48,3.92,6.94,5.83,10.42,1.4,2.56,2.86,5.48,0,7.92a16.69,16.69,0,0,1-4.23,2c-3.82,1.57-7.66,3-11.41,4.76Q235.31,477,220.14,484c-4.43,2-8.86,4.1-13.32,6.07-8.86,3.9-17.15,8.84-25.83,13.1a89.11,89.11,0,0,1-13.28,5.76,51.66,51.66,0,0,0-4.83,2c-2.28,1-2.94.57-4.64-1.41-6-7-9.45-16.08-13.55-24.24C143.39,482.69,139.5,485,140.8,487.55Z"/><path class="cls-1" d="M151.44,484.43c2.86,5.61,6.79,15.47,12.15,19.6,2,1.53,3-1.34,7.35-2.41,2.94-.71,7-3,10-4.38,7.7-3.66,14.22-7.78,21.92-11.14,5-2.18,39-18,44-20.32,1.69-.8,9.16-3.51,10.57-4.67,4.7-3.89.42-8.08-1-10.85-2.75-5.41-6.07-10.44-8.83-15.86-1-2-1.92-9.5-5.58-9.66s-45.53,20.43-49.69,22.33c-4.8,2.2-19.6,10.34-23.08,11.83,0,0-24.72,11.84-24.13,13.72S151.44,484.43,151.44,484.43Z"/><path d="M149.5,485.56c3.12,6.26,5.75,13.25,10.66,18.38,4.66,4.86,8.76,1,14.13-1.08,12.45-4.86,24-12.18,36.2-17.75q15.34-7,30.64-14.18c3.33-1.55,6.63-3.13,10-4.51,4.41-1.78,10.67-3.58,10.61-9.42,0-2.67-1.62-4.79-2.91-7-2.46-4.2-4.79-8.49-7.17-12.73a52.07,52.07,0,0,1-3.55-8.51c-.76-2.11-1.77-4.47-3.84-5.61-2.45-1.35-5-.12-7.33.81-4.12,1.61-8.16,3.45-12.19,5.28-17.67,8-35,16.66-52.27,25.54-7.88,4.06-16,7.64-23.65,12.14-2.37,1.4-6.45,3.18-5.85,6.49.75,4.09,4.42,8.58,6.49,12.15,1.45,2.51,5.34.25,3.88-2.27-1.79-3.11-3.26-6.62-5.29-9.56-.91-1.31-.09-1.34-1-.31a3.49,3.49,0,0,1,.94-.7c1.52-.49,3.14-2,4.56-2.77,5.78-3.27,11.76-6.24,17.75-9.11,14.22-6.82,28.11-14.28,42.37-21,8.09-3.83,16.18-7.77,24.49-11.13a18.41,18.41,0,0,1,3.47-1.3c2.12-.38,2.19.26,3.09,2.6a110.48,110.48,0,0,0,7.63,15.86c1.53,2.69,3.57,5.55,4.77,8.41,2.26,5.37-2.58,6.37-6.24,7.85-2.67,1.09-5.28,2.25-7.9,3.47q-12.67,5.93-25.39,11.78c-10,4.62-20,9.15-29.72,14.34-4,2.12-8,4.21-12.15,6.08-2,.88-4,1.4-6,2.18-.93.36-2.71,1.9-3.62,1.93-2.88.09-5.87-6.64-7.06-8.86-1.71-3.18-3.18-6.48-4.79-9.71C152.09,480.7,148.21,483,149.5,485.56Z"/><path d="M169.62,472q-.52-5.82,4.17-8.35,5.49-2.66,9.2,3a6,6,0,0,1,.71,5.14A7,7,0,0,1,188,475.7q3,6.45-3.23,9.84a8.6,8.6,0,0,1-8.9-.61c-.56-.42-.77-.83-.64-1.24l.83-2.39c.14-.29.37-.32.68-.09a6.81,6.81,0,0,0,6.38.65q2.81-1.5,1.6-4.6-1.59-2.83-5-1-.6.31-1-.57l-.9-1.77a.92.92,0,0,1,0-1.22q3.18-1.32,2-4.17a2.77,2.77,0,0,0-1.85-1.66,3.5,3.5,0,0,0-2.37.46c-1.76.89-2.56,2.75-2.41,5.56,0,.56-.32.79-1,.72l-1.76-.23A1.52,1.52,0,0,1,169.62,472Z"/><path d="M196.94,462c.44.05.66.42.67,1.11a23.58,23.58,0,0,1-2.05,7.76,1,1,0,0,1-1,.5L193,470.8c-.44-.21-.57-.59-.38-1.16a22.66,22.66,0,0,0,1.9-6.73.74.74,0,0,1,.76-.75Zm5.31-7.25c.2-.11.48,0,.82.4a17.54,17.54,0,0,0,8.45,4.81c.63.16.91.5.83,1l-.48,1.7a.87.87,0,0,1-1,.37,22,22,0,0,1-9.22-4.71l-6.41,3.26a.57.57,0,0,1-.87-.28l-.72-1.42c-.22-.43-.13-.74.25-.93Zm-4.95,12.44,9.53-4.85c.91-.46,1.64-.11,2.2,1.06l3,5.83q1.26,2.46-.5,4.08L210,474.67q-.56.48-1,.09l-1.58-1.13c-.35-.39-.18-.83.54-1.33l.53-.38c.74-.46,1-1,.69-1.48l-2.38-4.69-3.54,1.8q2.68,6.29-.53,10.64c-.36.51-.76.69-1.2.53l-1.26-.55a.78.78,0,0,1-.25-1.24,8,8,0,0,0,.53-8l-1.89,1q-.74.38-1-.12l-.83-1.64C196.66,467.75,196.81,467.43,197.3,467.18Z"/><path d="M226,462c.26.28.24.71-.07,1.28-1.45,1.63-3.22,3.43-5.33,5.39-.41.35-.76.4-1.07.14l-1.28-1.31c-.26-.3-.21-.61.16-.91l1.14-1c-.16.08-.38,0-.66-.28-.75-.81-1.47-1.53-2.14-2.17-.34-.3-.42-.6-.25-.91l.86-1.16c.2-.21.45-.19.74,0a13.92,13.92,0,0,1,1.84,1.78l-1.44-2.82-2.21,1.13c-.33.17-.6.06-.8-.34l-.67-1.32c-.2-.39-.14-.68.19-.84l2.22-1.13-.63-1.23-1.07.54c-.32.17-.6,0-.82-.41-.16.48-.43.69-.82.63l-1.71-.51a.74.74,0,0,1-.21-1,15.89,15.89,0,0,0,1.13-5.7,1.33,1.33,0,0,1,.36-.93l1.31-.67a1.09,1.09,0,0,1,1.09.1c1.39.8,2.48,1.38,3.25,1.72.49.21.73.43.73.67a6.9,6.9,0,0,1-.34,1.52c-.09.29-.23.43-.41.41l.67,1.32a.56.56,0,0,1-.28.86l-.58.3.63,1.23,1.81-.92c.33-.17.59,0,.79.34l.67,1.32c.2.4.14.68-.19.84l-1.8.92,1,2.08-.31-2c0-.31.17-.5.53-.58l.94-.17a.67.67,0,0,1,.83.61l.32,2.45.2-.21q.48-.54,1,.12Zm-10.2-10.89c-.09.91-.19,1.79-.3,2.66l2.71-1.38A13.82,13.82,0,0,1,215.82,451.09Zm7.88-7.89c.39-.19.69-.07.92.39l.25.49,3-1.55c.33-.17.59-.06.79.33l.59,1.17a.48.48,0,0,1-.24.74l-.82.42.27,1.13,1.89-1c.32-.17.59-.05.79.34l.59,1.15c.19.39.13.66-.2.83l-10.19,5.18a.57.57,0,0,1-.87-.28l-.58-1.15a.59.59,0,0,1,.27-.89l1.72-.88-.75-.88-.58.3a.56.56,0,0,1-.82-.2l-.6-1.18a.56.56,0,0,1,.28-.86l3-1.51-.25-.49a.66.66,0,0,1,.31-1Zm-3.08,21-.84,1.18,1-.91Zm13.83-9.82c.25.5.19.86-.19,1.05l-3,1.5.21.42,3.2-1.63q.49-.26.81.36l.62,1.21a.5.5,0,0,1-.25.75l-3.2,1.63.25.49,3.7-1.88c.38-.2.68-.08.9.34l.55,1.09a.59.59,0,0,1-.27.89l-10.11,5.14a.58.58,0,0,1-.87-.3l-.56-1.09c-.21-.43-.13-.74.25-.93l4.11-2.09-.25-.49-3.2,1.63c-.39.19-.66.12-.83-.2l-.62-1.22a.59.59,0,0,1,.27-.9l3.2-1.63-.21-.42-2.79,1.43a.75.75,0,0,1-1.13-.39l-2.79-5.48c-.25-.49-.18-.84.2-1l8.22-4.18c.38-.2.7-.05.95.44Zm-11.94,7.83.25.49.61-.62Zm1.28-14.74.76.88,1.32-.67-.27-1.13Zm1.31,6,.46.9,1.24-.63-.46-.9Zm1.39,2.73.39.76,1.23-.63-.38-.76Zm2.15-4.53.46.9,1.15-.58-.46-.91Zm1.39,2.73.38.76,1.15-.59-.38-.76Z"/><circle class="cls-1" cx="362.3" cy="557.93" r="20.77"/><path d="M356.82,547.26c.36,0,.55.22.55.66v3.43h1.71q.54,0,.54.69v1.49c0,.45-.15.67-.45.67h-1.8v1.33a27.83,27.83,0,0,0,2.61,3.52c.21.2.21.46,0,.76l-.81,1.23c-.19.27-.37.37-.54.29a5.26,5.26,0,0,1-1.26-1.33v8.74q0,.57-.48.57h-1.61c-.37,0-.55-.16-.55-.47v-8.75a21.62,21.62,0,0,1-2.09,3.61.53.53,0,0,1-.81.1l-1.19-.95a.65.65,0,0,1-.17-1,26.5,26.5,0,0,0,3.62-7.7h-2.26c-.37,0-.55-.23-.55-.69V552c0-.44.18-.66.55-.66h2.9v-3.43c0-.44.21-.66.64-.66Zm.9,7.41a21.65,21.65,0,0,0,2.78-3,23.63,23.63,0,0,0,2.62-4.23.67.67,0,0,1,.66-.48h2a.56.56,0,0,1,.59.48,12,12,0,0,0,2.27,3.68,17.38,17.38,0,0,0,4.62,3.73c.59.3.77.62.55.95l-1.12,1.33c-.25.31-.47.4-.64.29l-.78-.48v5q0,.66-.6.66h-1.38a1.6,1.6,0,0,1,0,.62,5.07,5.07,0,0,1-.28,1.33,8.52,8.52,0,0,1,3.47,2.78.81.81,0,0,1-.12,1.09l-1.24,1.05c-.2.13-.45,0-.73-.26a30.24,30.24,0,0,0-2.29-2.28,8.78,8.78,0,0,1-1.94,2.52.68.68,0,0,1-.81,0l-1.09-.83c-.29-.26-.21-.61.23-1.07a7.73,7.73,0,0,0,1.64-2.5,8.42,8.42,0,0,0,.79-2.47H366q-.6,0-.6-.66v-5.07c0-.39.18-.59.53-.59h4.3c-.75-.51-1.47-1-2.17-1.62v.48a.41.41,0,0,1-.47.47h-5.85c-.22,0-.33-.12-.33-.38v-.47c-.54.55-1.06,1.06-1.57,1.52H364a.52.52,0,0,1,.59.59V562c0,.44-.2.66-.59.66h-1.24a1.89,1.89,0,0,1,0,.52,4.89,4.89,0,0,1-.17,1.1,8.49,8.49,0,0,1,2,2.11c.25.35.14.76-.33,1.24l-.9.85c-.21.19-.45.11-.72-.26-.39-.54-.75-1-1.07-1.42a15.27,15.27,0,0,1-2.18,2.71.57.57,0,0,1-.81,0l-1.36-1c-.28-.22-.19-.58.29-1.07a10.66,10.66,0,0,0,1.88-2.26,7.37,7.37,0,0,0,.88-2.52h-.88q-.6,0-.6-.66v-4.78c-.22.19-.69-.14-1.42-1C357,555.72,357.09,555.21,357.72,554.67Zm3.5,4v1.5h1v-1.5Zm3.49-8.24A10.14,10.14,0,0,1,363,553h3.45A9.81,9.81,0,0,1,364.71,550.4Zm3,8.24v1.5h1.19v-1.5Z"/><circle class="cls-1" cx="410.64" cy="557.93" r="20.77"/><path d="M400.16,553.79a.67.67,0,0,1,.86-.09l2.85,1.38a.59.59,0,0,1,.29.78l-.86,1.24a.66.66,0,0,1-.86.4l-2.94-1.35c-.46-.21-.59-.5-.38-.88Zm1.62,7.2c.22-.5.47-.72.76-.66l1.71.47c.22.13.29.46.19,1a55.46,55.46,0,0,1-2.28,7.25c-.13.41-.45.54-1,.38l-1.81-.76c-.35-.22-.38-.58-.09-1.07A36.62,36.62,0,0,0,401.78,561Zm-.1-13.4a.67.67,0,0,1,.86-.19l2.76,1.45a.61.61,0,0,1,.28.86l-.85,1.47c-.19.27-.51.3-1,.09l-2.95-1.47a.5.5,0,0,1-.29-.76Zm11,.48q1.17,0,1.14,1v14.62c0,.71-.38,1.07-1.14,1.07a4.86,4.86,0,0,0,2,2c.54.21.57.62.09,1.24l-.66,1a.92.92,0,0,1-1.24.1,7.84,7.84,0,0,1-2.66-3.59c-.16-.41-.1-.64.19-.69H409.1c.35.09.47.32.38.69a7.58,7.58,0,0,1-2.76,3.59c-.49.28-.89.29-1.19,0l-.83-1.16q-.45-.76.12-1.14a7,7,0,0,0,2.09-2c-.7,0-1-.32-1-1V549.06a.91.91,0,0,1,1-1Zm-3.9,2.78v2H411v-2Zm0,4.51v2H411v-2Zm0,4.61v1.93H411V560Zm5.61,2.88v-14c0-.31.22-.47.67-.47h1.4c.4,0,.59.16.59.47v14c0,.51-.19.76-.57.76h-1.42C414.64,563.61,414.42,563.36,414.42,562.85Zm3.9,2.09v-17c0-.31.21-.47.62-.47h1.57c.38,0,.57.16.57.47v17.21c0,2.11-.7,3.34-2.09,3.71l-1.76.43a.82.82,0,0,1-1-.67l-.38-1.33c-.19-.54-.1-.84.28-.9l1.52-.19C418.1,566.08,418.32,565.67,418.32,564.94Z"/><path class="cls-2" d="M359.62,23.12c-6.48-5.57-15.79-8.2-23.85-10.28-18-4.64-36.75-6.09-55.24-6.72C248.18,5,215.62,3,183.26,3c-12.38,0-24.64,1.52-36.94,2.09-8.75.4-21.27-2.09-27.69,4.1l-1.55,72.32c-.38,18-.45,14.83-.49,32.81,0,11-.19,22,10.2,28.09,13,7.61,30.19,7.86,44.69,9.52,27.36,3.14,55.55,4.27,83.08,4.41,26.09.12,52.08-1.92,78.15-2.11,9.21-.06,22.47,3.09,25.76-7.48C367.39,118.1,370,108.93,370,79,369.92,61.1,375.09,36.44,359.62,23.12Zm-1.49,58.17c.05,26.33-2.33,31.86-10.42,57.11-3,9.3-15,6.53-23.34,6.59-23.63.16-47.18,2-70.83,1.85A714.15,714.15,0,0,1,178.25,143c-13.15-1.46-28.77-1.68-40.51-8.39-9.42-5.37-9.26-15-9.24-24.72,0-15.83.1-10.51.44-26.34l1.41-63.67c5.81-5.45,17.16-3.25,25.09-3.61,11.15-.5,22.26-1.84,33.48-1.84,29.33,0,58.84,1.74,88.16,2.72,16.75.56,33.79,1.83,50.06,5.92,7.31,1.83,15.75,4.15,21.61,9C362.78,43.8,358.1,65.51,358.13,81.29Z"/><path d="M114.08,81.54c-.23,10.94-.47,21.87-.49,32.81,0,11.39.48,23.46,11,30.26,11.4,7.35,26,8.33,39.15,9.57,16.72,1.59,33.37,3.35,50.16,4.16,34.8,1.69,69.34.18,104.12-.8,7.18-.21,14.34-.36,21.51,0,4.73.22,9.81.42,14.24-1.5,5-2.15,6.86-6.18,8.39-11.13,2.07-6.67,4.15-13.35,5.91-20.12a154.94,154.94,0,0,0,4.72-34.42c.39-12.87,1.37-26.07.86-38.93-.45-11.17-3.15-22.79-11.94-30.42-10.47-9.08-26.47-11.89-39.69-14.13-16-2.72-32.23-3.39-48.45-4C255.72,2.19,237.86,1.32,220,.72,202.57.14,185.07-.53,167.67.66c-8.18.55-16.41,1.57-24.62,1.5-6.13-.06-12.42-.75-18.45.72-3.34.81-8.29,2.67-9,6.42a26.71,26.71,0,0,0-.08,3.9l-.43,20-1,45.33-.06,3.05c-.09,3.86,5.91,3.86,6,0l1.51-70.25a5.14,5.14,0,0,1,0-1.62c0-.09,0-.3,0-.37-1.53,2,2.49.32,1.61.36,1.2-.05,3-1,4.28-1.27a30.89,30.89,0,0,1,4.8-.41c3.35-.11,6.7.12,10.05.17C157.32,8.38,172.24,6,187.22,6c32.35.15,64.7,1.89,97,3.21,15.82.65,31.68,2,47.13,5.59,12,2.82,26,6.23,32.2,18.08C369,43.3,367.93,56,367.37,67.34c-.59,11.76-.15,23.56-1.29,35.29-1.09,11.1-3.95,21.83-7.16,32.47-1.51,5-2.23,13.28-7.67,15.53-4.62,1.91-10.37.91-15.21.71-14.73-.61-29.63.59-44.35,1.17-16.23.64-32.44,1-48.69.74-17.46-.27-34.91-1-52.32-2.41-15.93-1.3-32.86-2-48.45-5.69-6.64-1.58-14.9-4-19-9.92-3.87-5.54-3.61-13-3.62-19.44,0-11.42.25-22.83.49-34.25C120.16,77.68,114.16,77.68,114.08,81.54Z"/><path class="cls-1" d="M128.94,83.51c-.34,15.83-.41,10.51-.44,26.34,0,9.68-.18,19.35,9.24,24.72,11.74,6.71,27.36,6.93,40.51,8.39a714.15,714.15,0,0,0,75.29,3.88c23.65.11,47.2-1.69,70.83-1.85,8.34-.06,20.36,2.71,23.34-6.59,8.09-25.25,10.47-30.78,10.42-57.11,0-15.78,4.65-37.49-9.38-49.21-5.86-4.9-14.3-7.22-21.61-9-16.27-4.09-33.31-5.36-50.06-5.92-29.32-1-58.83-2.72-88.16-2.72-11.22,0-22.33,1.34-33.48,1.84-7.93.36-19.28-1.84-25.09,3.61Z"/><path d="M127.44,83.51c-.2,9-.44,18-.44,27,0,9.45.55,19.37,9.34,24.92,10.41,6.58,23.78,7.27,35.69,8.38,14.92,1.39,29.79,2.89,44.77,3.59,31.35,1.47,62.47.18,93.79-.7,6.13-.17,12.27-.4,18.4-.11,4.67.23,9.85.73,14.25-1.23a11,11,0,0,0,5.92-6.6c2.39-6.12,4.15-12.67,6-19a116.6,116.6,0,0,0,4.36-28.4c.39-11.3,1.24-22.9.8-34.2-.37-9.7-2.75-19.68-10.48-26.2-9.31-7.86-23.45-10.15-35.06-12.09-14.41-2.41-29-3-43.54-3.53-15.68-.57-31.35-1.31-47-1.83s-31.45-1.21-47.11-.27c-7.21.43-14.41,1.21-21.63,1.43-5.74.18-11.55-.62-17.26.24-3,.45-8.26,1.6-9.33,4.89-.38,1.15-.07,3-.09,4.16l-.49,21.72-.83,37.77c0,1.93,2.95,1.93,3,0l.61-27.87.47-21c.09-4-.75-9.45.3-13.35.61-2.29,1.46-2,4.5-2.87,5.29-1.51,11.11-.64,16.52-.62,14,.06,27.92-2,41.95-1.86,28.68.22,57.37,1.67,86,2.83,13.57.55,27.17,1.64,40.48,4.47,11.65,2.48,25.86,5.46,32,16.81,5.07,9.3,4.18,20.75,3.66,30.95-.53,10.4,0,20.86-1.25,31.22-1.07,9.2-3.78,18-6.6,26.82-1.74,5.46-2.41,12.41-8.73,14.21-4.39,1.26-9.31.45-13.8.31-13.82-.44-27.78.62-41.59,1.14-14.35.53-28.68.78-43,.55-15.51-.25-31-.88-46.48-2.12-14.49-1.15-29.86-1.72-44-5-6.53-1.52-14.54-3.85-18.38-9.82-3.2-5-3.07-11.32-3.08-17,0-9.25.23-18.49.44-27.73C130.48,81.57,127.48,81.57,127.44,83.51Z"/><path d="M211.24,36.61c-2.45-2.58-8.19-2-11.27-2.18-15.48-.85-31.41-.51-46.67,2.51a1.29,1.29,0,0,0-1,.88,1.67,1.67,0,0,0-.58.81c-1.52,4.43-2.61,9.5-1.43,14.16s4.75,7.4,9.13,8.72c11.75,3.53,24,.4,36,1.19,4.31.29,9.85,1.06,13.54-1.9,3.86-3.09,3.92-9,3.88-13.58C212.76,44.14,213.58,39.06,211.24,36.61Z"/><path class="cls-1" d="M174.93,40.25q.42,0,.42.48v.7h5.34c.28,0,.41.17.41.52v1.14c0,.28-.13.42-.41.42h-11V50a9.39,9.39,0,0,1-2.1,6.12q-.42.47-.75.21l-1-.78c-.33-.27-.31-.59.05-1a5.91,5.91,0,0,0,1.3-2,4.64,4.64,0,0,0,.28-1.66l-1.25.62c-.23.1-.39.07-.49-.07l-.55-1.17c-.14-.33-.07-.56.21-.7l2.15-1V46.49l-.18.28q-.17.27-.45,0l-1.73-1.6a.37.37,0,0,1,0-.62l.76-.7a.46.46,0,0,1,.62,0l1,.77V42a.48.48,0,0,1,.55-.55h5.13v-.7a.43.43,0,0,1,.49-.48Zm-4.37,4h9.71c.43,0,.64.23.63.68v.78c0,.36-.2.54-.63.55h-3.81v.92H180c.61,0,.91.31.91,1v6.76c0,.66-.15,1.07-.43,1.25a3.2,3.2,0,0,1-1,.38,13.12,13.12,0,0,1-1.39.19c-.33,0-.56-.18-.69-.59l-.28-.92c-.14-.4,0-.62.35-.66h.76c.42,0,.63-.33.63-.92v-.28a5.16,5.16,0,0,1-1.74-.24A3.06,3.06,0,0,1,175.55,52a3,3,0,0,1-1.47,1.15,4.54,4.54,0,0,1-1.86.24v2.48c0,.45-.18.67-.55.66h-1c-.36,0-.55-.21-.56-.66V48.16q0-1,.9-1h3.33v-.92h-3.81c-.42,0-.63-.19-.63-.55V45C169.93,44.5,170.14,44.27,170.56,44.27Zm1.66,5v1.9a2.18,2.18,0,0,0,1.61-.39,2.07,2.07,0,0,0,.54-1.51Zm4.37,0a2.29,2.29,0,0,0,.71,1.51,1.88,1.88,0,0,0,1.52.36V49.27Z"/><path class="cls-1" d="M192.71,40.25c.28,0,.41.16.41.48V42h5.35c.27,0,.41.17.41.52v1.15a.37.37,0,0,1-.41.41h-11v6a9.44,9.44,0,0,1-2.09,6.12q-.42.47-.75.21l-1-.78c-.32-.27-.3-.59.06-1a5.91,5.91,0,0,0,1.3-2,4.64,4.64,0,0,0,.28-1.66l-1.25.62c-.24.1-.4.07-.49-.07L183,50.38c-.13-.33-.06-.56.21-.7l2.15-1V47.46l-.17.28q-.18.27-.45,0L183,46.14a.42.42,0,0,1,0-.62l.77-.69a.41.41,0,0,1,.62,0l1,.76V42.54a.5.5,0,0,1,.56-.56H191V40.73a.43.43,0,0,1,.49-.48Zm5.13,6.8H194V49H198q.42,0,.42.54v1.12c0,.33-.14.49-.42.49H194v3.12h4.71c.33,0,.49.17.49.52v1.28c0,.28-.16.42-.49.42H187a.37.37,0,0,1-.42-.42V54.78c0-.35.14-.52.42-.52h1.59V48.92c0-.42.19-.63.56-.63h1.18q.42,0,.42.63v5.34h1.1V47.05h-3.46a.43.43,0,0,1-.49-.49V45.43c0-.36.16-.54.49-.54h9.43c.32,0,.49.18.49.54v1.13A.44.44,0,0,1,197.84,47.05Z"/><path d="M164.92,78.74v6.81h-3.18v.82a.4.4,0,0,0,.45.45h3.25a.85.85,0,0,0,.69-.29,4.72,4.72,0,0,0,.33-1.78l1.59.51c-.16,1.48-.41,2.35-.75,2.64a2.54,2.54,0,0,1-1.54.39h-4c-1.15,0-1.72-.53-1.72-1.57V85.55h-2q-1.57,2.52-7.36,3.19l-.9-1.39c3.09-.29,5.17-.9,6.27-1.8h-3.33V78.74ZM153,74.55h2.84v1.17h-2.74l.06.9h11.49l.06-.9h-2.8V74.55h2.88l.06-.77h-2.88V72.59h3l.07-.86h-3.11V70.36h4.74l-.37,6.26h1.39V80h-1.71V78H151.8v2h-1.71V76.62h1.45l-.43-5.87a19.94,19.94,0,0,0,4.29-.92l.55,1.35a21.7,21.7,0,0,1-3.19.7l.06.71h3v1.19h-2.9Zm10.2,6.07v-.81h-8.69v.81Zm0,1.82v-.77h-8.69v.77Zm0,1h-8.69v.85h8.69Zm-4-12.53a9.67,9.67,0,0,0,1.06-1l1.05.65c-.35.37-.68.67-1,1,.45.27.86.55,1.25.84l-.88.86a12.79,12.79,0,0,0-1.41-1A17.91,17.91,0,0,1,157,73.41l-.65-1.08a9.59,9.59,0,0,0,1.68-.7c-.45-.24-.92-.49-1.41-.73l.88-.82C158.08,70.36,158.63,70.65,159.14,70.94Zm-.08,3.23a8.7,8.7,0,0,0,1-1l1,.61a8.82,8.82,0,0,1-1,1c.47.31.9.61,1.29.92l-.86.86a12.67,12.67,0,0,0-1.39-1.08,16.47,16.47,0,0,1-2,1.08l-.64-1a10.63,10.63,0,0,0,1.64-.74c-.41-.24-.84-.51-1.29-.76l.8-.75C158.12,73.61,158.61,73.88,159.06,74.17Z"/><path d="M178,70.47a16.33,16.33,0,0,1-5.62,6l-.59-1.88a14,14,0,0,0,4.6-4.89ZM172.46,82.1l-.55-1.84a15,15,0,0,0,4.56-5.34l1.67.78a15.22,15.22,0,0,1-1.73,2.78V88.64h-1.88V80.46C173.87,81,173.2,81.56,172.46,82.1Zm17.8-3.74v1.69h-2.33v1.29h2.8V83h-2.8v3.55c0,1.27-.67,1.9-2,1.9H183.7l-.41-1.84a15.55,15.55,0,0,0,2,.15c.49,0,.75-.23.75-.68V83h-8.4v-1.7H186V80.05h-7.66V78.36Zm-1.14-8v6.81h-10V70.38Zm-5.77,16-1.47,1a20.86,20.86,0,0,0-2.49-3l1.39-1A21.5,21.5,0,0,1,183.35,86.33Zm3.91-13.27V71.94H181v1.12Zm0,1.45H181v1.15h6.24Z"/><path d="M213.41,69.61v1.78h-4.74V82.14h-2V69.61Z"/><path d="M223.34,84.18h-3.9v1.33h-1.92V71.39h5.82Zm-1.88-1.82V73.21h-2v9.15Zm5.62-3.23c-.59,4.09-1.86,7.22-3.78,9.4l-1.43-1.22c2.43-2.78,3.68-7.2,3.72-13.27V72.35H224V70.51h9.77v1a26.05,26.05,0,0,1-1.32,4.72H235v1.68a14.29,14.29,0,0,1-2.94,6.54,12.37,12.37,0,0,0,3.49,2.27l-.94,1.69a13.44,13.44,0,0,1-3.86-2.61,15.61,15.61,0,0,1-4.29,2.65l-1-1.73a14.11,14.11,0,0,0,3.94-2.4A14.18,14.18,0,0,1,227.08,79.13Zm.35-6.78V74c0,.76,0,1.5-.06,2.21h3.21a33.62,33.62,0,0,0,1.1-3.9ZM230.76,83a12.54,12.54,0,0,0,2.39-4.93h-4.66A12.93,12.93,0,0,0,230.76,83Z"/><path d="M239.73,83.06a.66.66,0,0,0,.49-.62V71.57h1.9V82.38c.84-.26,1.67-.55,2.51-.88V69.85h1.92V86.76A14,14,0,0,0,251.38,83,21.33,21.33,0,0,1,249,78.15l1.57-.9a20.09,20.09,0,0,0,1.94,4,15.8,15.8,0,0,0,1.76-6.66h-3.66A14.8,14.8,0,0,1,248,79l-1.2-1.47A16.89,16.89,0,0,0,250,69.69l1.94.33c-.19.94-.39,1.84-.62,2.67h6.48V74.6h-1.59A17.1,17.1,0,0,1,253.73,83a21,21,0,0,0,4.47,4.24l-1.33,1.55a23.66,23.66,0,0,1-4.33-4.13,16.44,16.44,0,0,1-5,4l-1-1.66v1.55h-1.92V83.36c-1.39.49-2.82.94-4.33,1.33Z"/><path d="M275.14,72.9a7.16,7.16,0,0,1-.27.82,9.6,9.6,0,0,0,5.5,2.43l-.79,1.59a8.49,8.49,0,0,1-1.58-.37v8.38H274a43.79,43.79,0,0,1,6.32,1.48l-.63,1.53A40.72,40.72,0,0,0,272.81,87l.63-1.23h-4.7l.84,1.09a22.1,22.1,0,0,1-6.5,1.9l-.88-1.49a27.11,27.11,0,0,0,6.05-1.5h-3.76V77.31h4.93l-.78-1.18c2.74-.49,4.35-1.68,4.87-3.56Zm-7,1.59v1.66h-5.91V74.49Zm-.43-3.68v1.64h-5.07V70.81Zm8.4,8.94v-1h-9.71v1Zm0,2.18V81h-9.71v.9Zm0,1.27h-9.71v1h9.71Zm-7-8.56L268,73.23a7.56,7.56,0,0,0,2.94-3.6l1.78.2c-.12.33-.25.66-.39,1h7.17v1.35a11.3,11.3,0,0,1-1.75,2.68l-1.33-1a8.47,8.47,0,0,0,1.06-1.39h-6.09A10.63,10.63,0,0,1,269.09,74.64Zm8.73,2.67a9.68,9.68,0,0,1-3.7-2.29,7,7,0,0,1-3.72,2.29Z"/><path d="M287.19,72.2a17.89,17.89,0,0,0-.84-2l1.87-.51A16.48,16.48,0,0,1,289,72.2h2.5V74h-7.08V72.2Zm3.74,16.09h-1.77v-.88h-2.42v1H285V81.14h6Zm-.18-13V77h-5.6v-1.7Zm0,2.84v1.72h-5.6V78.09Zm-1.59,7.56V82.89h-2.42v2.76Zm5-7.66V72.41h-2.21V70.55h8.69v6.6a41,41,0,0,0,.51,8c.14.64.29,1,.41,1a2.41,2.41,0,0,0,.18-.83c.05-.58.07-1.25.07-2l1.51.74a11.45,11.45,0,0,1-.55,3.78.92.92,0,0,1-.78.59,2.22,2.22,0,0,1-1.9-1.39c-.9-1.61-1.35-4.88-1.35-9.83V72.41H296V78h2.27v1.86H296v8.66h-1.88V79.85h-2.27V78Z"/><path d="M309.46,79.05l-1.51.41a55.63,55.63,0,0,0-1.16-5.64l1.55-.51C308.75,75,309.14,76.88,309.46,79.05Zm4.91-4.8a15.66,15.66,0,0,1-2.55,2.53v.45a35.32,35.32,0,0,1-.27,3.91c.92,1,1.86,2.2,2.8,3.47l-1.14,1.74c-.78-1.37-1.46-2.46-2-3.27a12.46,12.46,0,0,1-2.78,5.56L307,87.37c2-2.11,3-5.48,3-10.14V69.91h1.84v4.85a19.71,19.71,0,0,0,1.49-1.88Zm4-.78a11.06,11.06,0,0,0,.38-1.33h-4.59V70.43h11v1.71h-4.51c-.11.47-.23.92-.37,1.33h3.94V84.75h-2.59a26.41,26.41,0,0,1,3.7,2.6l-1.25,1.27a21.46,21.46,0,0,0-3.66-2.8l1.1-1.07h-3.65l1.24,1.09A16.57,16.57,0,0,1,315,88.7l-1-1.35a16.09,16.09,0,0,0,3.89-2.6h-2.68V73.47Zm4,3.21V75.05H317v1.63Zm0,3.27V78.19H317V80Zm0,1.51H317v1.72h5.41Z"/><path d="M340,78.11a2.67,2.67,0,0,1,.51,1.68,4.28,4.28,0,0,1-.92,2.74,4.63,4.63,0,0,1-2.45,1.57V82.83a3,3,0,0,0,1.39-1,2.47,2.47,0,0,0,.51-1.43,1.51,1.51,0,0,1-.49.08A1.5,1.5,0,0,1,337,79a1.41,1.41,0,0,1,.45-1.1,1.55,1.55,0,0,1,1.16-.43A1.6,1.6,0,0,1,340,78.11Z"/><path d="M166.37,97.07a26.09,26.09,0,0,1-1.35,3.58v14.53h-1.88V103.9a27.86,27.86,0,0,1-2,2.53l-.57-1.94a23.5,23.5,0,0,0,4.09-8.22Zm5.07.23v-1h1.88v1h5.25v1.53h-5.25v.9h4.58v6.21h-.39a22.23,22.23,0,0,1,1.8,2.35l-1.33.94c-.2-.33-.43-.65-.65-1a5.93,5.93,0,0,0-.84.06v1.25h2.7v1.67h-2.7v2.25c0,1.11-.61,1.66-1.8,1.66H172.3l-.39-1.72c.76.06,1.47.1,2.13.1.41,0,.61-.16.61-.47v-1.82h-6.17a16.7,16.7,0,0,1,3,1.82l-1,1.52a14,14,0,0,0-3.17-2.19l.78-1.15H165.9v-1.67h8.75v-1.15c-2.17.11-4.88.21-8.15.29l-.23-1.53c1.88,0,3.62-.06,5.17-.11v-1.12h-4.39V99.73h4.39v-.9h-4.8V97.3Zm.12,4.88v-1h-2.82v1Zm0,1.29h-2.82v1.06h2.82Zm1.62-1.29h3v-1h-3Zm3,1.29h-3v1.06h3Zm-.51,2.7.37-.23h-2.72V107c1.06,0,2.05-.1,2.94-.14Z"/><path d="M188.36,101.3v1.51a27.94,27.94,0,0,1-2.25,3.17h2.45v1.29a22.63,22.63,0,0,1-1,3.76l.49.37a8.11,8.11,0,0,0,1.86,1.27,9.17,9.17,0,0,0,2.62.38c1.1,0,2.39,0,3.82,0s3.33-.06,5.64-.16l-.43,1.84h-5c-1.46,0-2.85,0-4.15-.08a10,10,0,0,1-3.17-.47,6.81,6.81,0,0,1-2.33-1.49.63.63,0,0,0-.47-.21c-.41,0-1.06.88-2,2.64l-1.41-1.29c.94-1.76,1.84-2.8,2.69-3.13a17,17,0,0,0,.92-3.12H183.8v-1.47a27,27,0,0,0,2.41-3.09h-2.78V101.3Zm-.12-2L187,100.61a19.59,19.59,0,0,0-3.11-3l1.27-1.2A22.58,22.58,0,0,1,188.24,99.34Zm8-3v1.33h4.35V99.3h-4.35v1.16h5.48v1.7h-2.5a13,13,0,0,1-.65,1.53h2.14v1.64h-4.47v1.1h3.86V108h-3.86v1.14h5.17v1.72h-5.17v1.73h-1.84v-1.73h-5v-1.72h5V108H190.5v-1.58h3.91v-1.1h-4.48v-1.64h2.21c-.25-.55-.49-1.06-.76-1.53H189v-1.7h5.44V99.3h-4.19V97.64h4.19V96.31Zm1.2,5.85h-4.21c.23.49.45,1,.68,1.53h2.88A9.11,9.11,0,0,0,197.45,102.16Z"/><path d="M219,99.46c-.08.29-.17.55-.27.82a9.48,9.48,0,0,0,5.5,2.43l-.8,1.6a10.6,10.6,0,0,1-1.57-.37v8.38h-4.05a45.15,45.15,0,0,1,6.32,1.47l-.63,1.53a41.71,41.71,0,0,0-6.83-1.78l.63-1.22h-4.7l.84,1.08a22.1,22.1,0,0,1-6.5,1.9l-.88-1.49a27.76,27.76,0,0,0,6.05-1.49H208.3v-8.44h4.93l-.78-1.19c2.74-.49,4.35-1.67,4.86-3.56Zm-7,1.6v1.65H206v-1.65Zm-.43-3.68V99h-5.07V97.38Zm8.4,8.93v-1H210.2v1Zm0,2.19v-.9H210.2v.9Zm0,1.26H210.2v1h9.71Zm-7-8.56-1.06-1.41a7.51,7.51,0,0,0,2.94-3.6l1.78.21c-.13.32-.25.65-.39,1h7.17v1.35a11.43,11.43,0,0,1-1.75,2.67l-1.33-1A8.47,8.47,0,0,0,221.32,99h-6.09A10.4,10.4,0,0,1,212.9,101.2Zm8.73,2.68a9.8,9.8,0,0,1-3.7-2.29,7,7,0,0,1-3.72,2.29Z"/><path d="M231,98.77a18,18,0,0,0-.84-2l1.86-.51a15.33,15.33,0,0,1,.8,2.52h2.49v1.8h-7.07v-1.8Zm3.74,16.08H233V114h-2.41v1h-1.78V107.7h6Zm-.18-13v1.7H229v-1.7Zm0,2.84v1.72H229v-1.72Zm-1.6,7.57v-2.76h-2.41v2.76Zm5-7.67V99h-2.21V97.11h8.69v6.6a41.09,41.09,0,0,0,.51,8c.14.63.29,1,.41,1a2.52,2.52,0,0,0,.18-.84c0-.57.06-1.25.06-2.05l1.52.74a11.1,11.1,0,0,1-.56,3.78.89.89,0,0,1-.77.59,2.22,2.22,0,0,1-1.9-1.39c-.9-1.61-1.35-4.88-1.35-9.83V99h-2.7v5.58h2.27v1.86h-2.27v8.67h-1.88v-8.67h-2.27v-1.86Z"/><path d="M268.87,97v1.82H261v1.41h6.25v8.4h-6.54a8.41,8.41,0,0,1-1,2.9,29.77,29.77,0,0,0,9.91,1.82l-.49,1.88A29.22,29.22,0,0,1,258.38,113c-1.47,1.15-3.78,1.9-6.95,2.27l-.83-1.78a13.07,13.07,0,0,0,5.88-1.43,19.35,19.35,0,0,1-3-2.06l1.49-1a17.57,17.57,0,0,0,2.86,1.82,6.85,6.85,0,0,0,.88-2.1h-5.87v-8.4H259V98.83h-7.89V97Zm-9.83,6.6v-1.72h-4.27v1.72Zm0,2.09v-.49h-4.27v1.73H259C259,106.53,259,106.1,259,105.7Zm6.25-.49H261v.49a12,12,0,0,1-.06,1.24h4.39Zm-4.33-1.6h4.33v-1.72H261Z"/><path d="M275.75,105.61l-1.51.41q-.47-2.94-1.17-5.64l1.56-.51C275,101.55,275.42,103.45,275.75,105.61Zm4.9-4.8a15.7,15.7,0,0,1-2.55,2.54v.44a30.92,30.92,0,0,1-.27,3.91c.92,1,1.86,2.21,2.8,3.47l-1.14,1.74c-.78-1.37-1.45-2.45-2-3.27a12.66,12.66,0,0,1-2.78,5.56l-1.43-1.27q2.94-3.15,3-10.14V96.48h1.84v4.84a19.71,19.71,0,0,0,1.49-1.88Zm4-.78a11,11,0,0,0,.39-1.32h-4.6V97h11v1.72H287a9.35,9.35,0,0,1-.37,1.32h3.95v11.29h-2.6a25,25,0,0,1,3.7,2.59l-1.25,1.27a21.34,21.34,0,0,0-3.65-2.8l1.1-1.06h-3.66l1.25,1.08a17,17,0,0,1-4.13,2.86l-1-1.35a15.53,15.53,0,0,0,3.88-2.59h-2.68V100Zm4,3.21v-1.63h-5.42v1.63Zm0,3.27v-1.75h-5.42v1.75Zm0,1.52h-5.42v1.71h5.42Z"/><path d="M306,110.56a1.34,1.34,0,0,1,.43,1,1.44,1.44,0,0,1-.43,1.07,1.62,1.62,0,0,1-1.08.4,1.39,1.39,0,0,1-1-.43,1.34,1.34,0,0,1-.45-1,1.29,1.29,0,0,1,.45-1,1.37,1.37,0,0,1,1-.41A1.43,1.43,0,0,1,306,110.56Zm.21-12.08L305.77,109h-1.62l-.47-10.47Z"/><path d="M324.55,102.73v12.53h-6.73v-1.78h4.74V102.73Z"/></g></svg>