<svg xmlns="http://www.w3.org/2000/svg" viewBox="0 0 131.14 28.81"><title>工作區域 62</title><g id="圖層_1" data-name="圖層 1"><path d="M31.42,16.93l-3-6.57-5,5.22,2.7.48A11.83,11.83,0,1,1,14.45,2.57a11.72,11.72,0,0,1,6.14,1.7,1.26,1.26,0,0,0,2-1,1.38,1.38,0,0,0-.61-1.09s-.05,0-.05,0A14.1,14.1,0,0,0,14.41,0,14.41,14.41,0,1,0,28.73,16.45Z"/><path d="M27,7.14a1.61,1.61,0,1,1-1.61-1.61A1.6,1.6,0,0,1,27,7.14"/><path id="_路徑_" data-name="&lt;路徑&gt;" d="M89.05,20.76V3.7H87.13V20.5c0,3.53,1.88,5.57,5.1,5.57h.65V24.33h-.65c-2.4-.13-3.14-1.65-3.18-3.57"/><path d="M102.46,9.92a8.19,8.19,0,0,0,0,16.37c2.57,0,5.57-1.92,6.44-3.79v3.57h1.74l0-8a8.15,8.15,0,0,0-8.18-8.19m0,14.5a6.32,6.32,0,1,1,6.31-6.31,6.32,6.32,0,0,1-6.31,6.31"/><rect id="_路徑_2" data-name="&lt;路徑&gt;" x="74.77" y="17.19" width="7.01" height="2.05"/><path d="M123,9.92a7.26,7.26,0,0,0-6.35,3.44V4.13h-1.78V26h1.78v-3.4A7.28,7.28,0,0,0,123,26.2a8.14,8.14,0,1,0,0-16.28m0,14.5a6.32,6.32,0,1,1,6.32-6.31A6.32,6.32,0,0,1,123,24.42"/><path d="M69.81,18a8.18,8.18,0,0,0-16.36,0,8.11,8.11,0,0,0,8.18,8.18,8.51,8.51,0,0,0,7.53-4.44H66.85a6.39,6.39,0,0,1-5.26,2.48c-3.14,0-6-1.87-6.31-5h14.4A4.65,4.65,0,0,0,69.81,18Zm-8.18-6.27a6.28,6.28,0,0,1,6.22,5.35H55.36a6.37,6.37,0,0,1,6.27-5.35"/><path d="M51.14,10.58c0-4-2.7-7.19-7.31-7.32H36.08V26.07H38V17.89h5.31a.48.48,0,0,1,.44.22c.17.3,0,.08,5.13,8h2.22s-5.31-8.14-5.35-8.23-.09-.13,0-.13a7,7,0,0,0,5.44-7.13M38,5h5.26c4.44.08,6.05,2.65,6.05,5.57,0,3.13-2,5.39-5.92,5.44H38Z"/></g></svg>