<svg xmlns="http://www.w3.org/2000/svg" viewBox="0 0 600.15 12.47"><defs><style>.cls-1{fill:#f3eee8;}</style></defs><title>paper-bottom</title><g id="圖層_1" data-name="圖層 1"><rect class="cls-1" x="3.17" width="592.03" height="7.17"/><path d="M0,2.9V8.08A3,3,0,0,0,2.2,11c21.54,3.28,43.44.17,65.12,0,12-.1,24-.12,36.06-.15q61.14-.14,122.27-.06,76.11,0,152.21.14l137.56.2q39.16.06,78.33.12h3.4a3,3,0,0,0,3-3V0h-6V8.22l3-3q-33.91,0-67.83-.1l-132.1-.2q-76.41-.1-152.83-.16-64.12,0-128.24,0C89.53,4.83,63,4.84,36.38,6c-10.85.49-21.81.78-32.59-.86L6,8.08V0H0Z"/></g></svg>